<svg width="56" height="31" viewBox="0 0 56 31" fill="none" xmlns="http://www.w3.org/2000/svg">
<path d="M4 30V9H0V6H8V30H4Z" fill="#FBEDD0"/>
<path d="M7 7V30H5V10V9H4H1V7H7ZM8 6H0V10H4V31H8V6Z" fill="#DCA34C"/>
<path d="M11 31V4H5V1H14V31H11Z" fill="#FBEDD0"/>
<path d="M13 1V29H10V4V3H5V1H13ZM14 0H4V4H10V30H14V0Z" fill="#DCA34C"/>
<path d="M32 29C23.8093 29 17 22.9952 17 15C17 7.00477 23.8093 0 32 0C40.0753 0 46.8162 6.15988 47 14H43C42.8169 8.01926 38.1705 3 32 3C25.7141 3 20 8.86414 20 15C20 21.1359 25.7141 26 32 26H55V29H32Z" fill="#FBEDD0"/>
<path d="M32 1C39.8306 1 46.6351 6.42023 47 14H44C43.6379 7.925 38.2943 3 32 3C25.4717 3 20 8.60864 20 15C20 21.3914 25.4717 27 32 27H55V29H32C23.9361 29 18 22.8948 18 15C18 7.10523 23.9361 1 32 1ZM32 0C23.5516 0 17 6.72886 17 15C17 23.2711 23.5516 30 32 30H56V26H32C25.8561 26 21 21.015 21 15C21 8.985 25.8561 4 32 4C38.1439 4 43 8.985 43 15H48C48 6.72886 40.4484 0 32 0Z" fill="#DCA34C"/>
<path d="M32 23C27.6318 23 24 19.4111 24 15C24 10.5889 27.6318 7 32 7C36.2525 7 39.8195 10.7496 40 15H36C35.8236 12.6682 34.3532 10 32 10C29.531 10 27 12.5068 27 15C27 17.4932 29.531 20 32 20H55V23H32Z" fill="#FBEDD0"/>
<path d="M32 8C35.9854 8 39.6473 11.034 40 15H37C36.6612 12.6002 34.4494 11 32 11C29.3148 11 27 13.2658 27 16C27 18.7342 29.3148 20 32 20H55V23H32C27.7809 23 25 20.296 25 16C25 11.704 27.7809 8 32 8ZM32 7C27.3969 7 24 11.313 24 16C24 20.687 27.3969 24 32 24H56V20H32C29.6981 20 28 18.3439 28 16C28 13.6561 29.6981 11 32 11C34.3019 11 37 13.6561 37 16H41C41 11.313 36.6031 7 32 7Z" fill="#DCA34C"/>
</svg>
