<svg width="27" height="31" viewBox="0 0 27 31" fill="none" xmlns="http://www.w3.org/2000/svg">
<mask id="path-1-inside-1_284_27037" fill="white">
<path fill-rule="evenodd" clip-rule="evenodd" d="M11.4308 17.1103C11.439 17.1185 11.447 17.1266 11.4547 17.1342C11.6658 17.3447 11.8935 17.5153 12.1378 17.6464C12.3431 17.7594 12.5602 17.8441 12.7891 17.9006V19.6557H8.75789C8.72868 19.6559 8.6996 19.6559 8.67053 19.6557C8.66657 19.6557 8.66268 19.6557 8.65859 19.6557H8.57123C8.15928 19.6462 7.77654 19.5669 7.42335 19.4175L11.4308 17.1103ZM14.207 9.74436C14.5274 9.91846 14.8266 10.1435 15.1046 10.4194C15.3671 10.6814 15.5842 10.962 15.756 11.2613C15.8964 11.149 16.0472 11.0603 16.2087 10.9952C16.4339 10.9028 16.6786 10.8565 16.9435 10.8563C17.4771 10.8549 17.9324 11.0416 18.3099 11.4162C18.3316 11.4378 18.3528 11.4603 18.3734 11.4837L15.5695 13.0958C15.5647 13.0874 15.5594 13.0794 15.5535 13.072C15.545 13.0683 15.537 13.0644 15.5297 13.06C15.4078 12.9391 15.2805 12.8317 15.1484 12.7384C14.8591 12.5331 14.5455 12.3889 14.207 12.3055V9.74436ZM4.92504 11.015C4.53547 11.4031 4.09192 11.6572 3.59453 11.7775V18.4206C4.08906 18.5405 4.52994 18.7909 4.91712 19.1712C4.92176 19.1755 4.92708 19.1793 4.93302 19.183C4.94032 19.1894 4.94831 19.196 4.95684 19.2029L6.18805 18.4921C5.70498 17.9173 5.46263 17.2435 5.46127 16.4711C5.46332 15.7283 5.6884 15.077 6.13645 14.5174C6.21712 14.4171 6.30441 14.3192 6.3986 14.2235C6.98772 13.637 7.69205 13.3287 8.51171 13.2983C8.51096 13.2469 8.51096 13.1952 8.51171 13.1434C8.51171 13.1131 8.51171 13.0827 8.51171 13.052L10.716 14.3227C10.6835 14.447 10.6596 14.5755 10.6445 14.7079C10.6257 14.835 10.6151 14.9661 10.6128 15.101C10.6144 15.375 10.6488 15.6358 10.716 15.8833L6.19603 18.4921C6.26005 18.5701 6.32891 18.6456 6.40262 18.7185C6.43647 18.7526 6.47087 18.7856 6.50588 18.8177C6.78584 19.0779 7.09159 19.2764 7.42328 19.4134L5.65591 20.4338C5.72471 20.6791 5.76183 20.9372 5.76716 21.2082C5.76723 21.2134 5.76723 21.2187 5.76716 21.2241C5.76177 21.4915 5.72594 21.7458 5.65987 21.9865L11.427 25.3101C11.436 25.3021 11.4454 25.2942 11.4547 25.2862L11.4587 25.2822C11.8477 24.8983 12.2926 24.6455 12.7932 24.5238V19.6516H14.2071V17.8965C14.7032 17.7761 15.1456 17.5221 15.5338 17.1341C15.5399 17.1308 15.5466 17.1282 15.5536 17.1261C15.5599 17.118 15.5665 17.11 15.5735 17.1023L19.581 19.4173C19.2016 19.5759 18.7885 19.6554 18.3417 19.6555C18.3377 19.6555 18.3339 19.6555 18.33 19.6555H14.2072V24.5237C14.7031 24.6463 15.1452 24.8992 15.5338 25.2821C15.5386 25.2851 15.5438 25.2877 15.5498 25.2901C15.5568 25.2973 15.5634 25.3051 15.5697 25.314L21.3404 21.9943C21.2706 21.7454 21.235 21.4831 21.2333 21.208C21.235 20.9303 21.2694 20.6655 21.3366 20.4138L19.5811 19.4132C19.8791 19.2867 20.1571 19.1121 20.4153 18.889C20.477 18.8355 20.5379 18.7786 20.5978 18.7183C20.6715 18.6452 20.7416 18.5696 20.8084 18.4919L16.2806 15.8752C16.3454 15.6345 16.3798 15.3789 16.3839 15.1088C16.3839 15.1035 16.3839 15.0983 16.3839 15.093C16.383 15.0446 16.3817 14.997 16.3798 14.95C16.3667 14.7329 16.3336 14.525 16.2806 14.3266L18.8742 12.8335C18.8699 13.0027 18.8462 13.1642 18.8026 13.3179C19.4878 13.411 20.0863 13.7128 20.5978 14.2234C20.8841 14.5079 21.1054 14.8203 21.2611 15.1604C21.4419 15.5589 21.5319 15.9956 21.5311 16.4709C21.5319 17.243 21.2937 17.9169 20.8162 18.4919L22.0396 19.1948C22.0506 19.185 22.0613 19.1757 22.0714 19.1671V19.163C22.4601 18.7812 22.9022 18.5298 23.398 18.4085V11.7812C22.902 11.6588 22.4597 11.4073 22.0714 11.0268V11.0228C22.0623 11.0163 22.053 11.0097 22.0437 11.0029L18.8743 12.8334C18.8743 12.8144 18.8743 12.7958 18.8743 12.7779C18.8754 12.5134 18.8302 12.2685 18.7391 12.0432C18.6559 11.8388 18.5343 11.6509 18.3737 11.4794L21.3367 9.77589C21.2695 9.52685 21.2351 9.26477 21.2334 8.98959C21.2351 8.71728 21.2695 8.4578 21.3367 8.21135L15.5617 4.88388C15.5537 4.892 15.5456 4.89999 15.5379 4.9077C15.1483 5.29433 14.7048 5.54719 14.2073 5.66615V9.74019C13.9289 9.58738 13.6351 9.47355 13.3256 9.39868C13.1527 9.35745 12.9753 9.32838 12.7934 9.31139V5.674C12.2913 5.5519 11.8451 5.29645 11.455 4.9077C11.4474 4.90013 11.4394 4.89207 11.4311 4.88388L5.66008 8.21135C5.72621 8.45234 5.76197 8.70643 5.76736 8.97383C5.76743 8.97901 5.76743 8.98434 5.76736 8.98959C5.76197 9.26238 5.72484 9.5218 5.65612 9.76797L8.82962 11.5865C9.01594 11.1624 9.28736 10.7733 9.64383 10.4191C9.73692 10.3265 9.83226 10.2392 9.92972 10.157C10.6239 9.57947 11.4381 9.29091 12.3723 9.29139C12.5142 9.29193 12.6532 9.29985 12.7893 9.31521V12.3053C12.5305 12.3677 12.287 12.4656 12.0585 12.5991C11.8453 12.7214 11.6453 12.8749 11.4588 13.0597C11.4529 13.064 11.4461 13.068 11.439 13.0717C11.4343 13.078 11.4289 13.0846 11.4231 13.0915L8.82566 11.5906C8.73304 11.8011 8.66016 12.0195 8.60719 12.2457C8.54898 12.5025 8.51724 12.7699 8.51192 13.0479L4.94121 10.9949C4.93916 10.9997 4.9365 11.0037 4.93336 11.0069C4.92988 11.0093 4.92715 11.0119 4.92504 11.015ZM11.4506 0.84178L11.4586 0.837822C11.9209 0.381238 12.4624 0.111246 13.083 0.0277774C13.217 0.00969143 13.3546 0.000477741 13.4961 0C14.2889 0.00170622 14.968 0.28098 15.5336 0.837822L15.5415 0.84178C16.0963 1.40019 16.3783 2.07524 16.3875 2.86686C16.3876 2.87259 16.3876 2.87921 16.3875 2.88672C16.3808 3.1578 16.3423 3.41585 16.2723 3.66107L22.0393 6.98069C22.0497 6.97298 22.0603 6.96499 22.071 6.95687V6.94493C22.6355 6.3915 23.3174 6.11482 24.1165 6.11509C24.9079 6.11413 25.5859 6.39075 26.15 6.94493L26.158 6.96076C26.3711 7.17417 26.5444 7.40452 26.6782 7.65171C26.8883 8.05261 26.9956 8.49731 26.9999 8.98591C27 8.99116 27 8.99649 26.9999 9.00174C26.9915 9.79629 26.7094 10.47 26.1541 11.0229C25.7636 11.4131 25.3187 11.6686 24.8195 11.7893V18.4086C25.3171 18.5276 25.7607 18.7791 26.1499 19.1631L26.1579 19.1712C26.7112 19.7308 26.9921 20.4072 26.9998 21.2001C27 21.204 27 21.208 26.9998 21.2121C26.9952 21.6616 26.9025 22.0721 26.7218 22.4431C26.585 22.7313 26.3956 22.9959 26.1541 23.2372C25.5887 23.8012 24.9096 24.0832 24.1165 24.0831C23.317 24.0826 22.6353 23.8006 22.071 23.2372C22.0611 23.2285 22.0517 23.2206 22.0433 23.2133L16.2723 26.537C16.3422 26.7797 16.3808 27.0377 16.3875 27.3113C16.3876 27.3188 16.3876 27.3253 16.3875 27.3312C16.3777 28.1257 16.0944 28.7993 15.5376 29.3523C15.0607 29.8297 14.502 30.1049 13.8615 30.1782C13.7428 30.1922 13.621 30.1989 13.4961 30.1981C12.698 30.1975 12.0174 29.9156 11.4546 29.3523C10.8969 28.7971 10.6175 28.1207 10.6166 27.3231C10.617 27.048 10.6501 26.786 10.7159 26.537L4.95677 23.2133C4.9492 23.222 4.94121 23.23 4.93295 23.2372C4.92981 23.2394 4.92708 23.2418 4.92497 23.2451C4.35844 23.8093 3.67793 24.0911 2.88351 24.091C2.08411 24.0903 1.40224 23.8085 0.838027 23.2451C0.554385 22.9622 0.343974 22.6471 0.206589 22.3C0.0702963 21.967 0.00143322 21.6042 0 21.2121C0.00170622 20.4172 0.281048 19.7398 0.838027 19.1791L0.842053 19.1712C1.23107 18.7899 1.67585 18.5397 2.17659 18.4206V11.7775C1.67435 11.6566 1.2282 11.4025 0.838027 11.015C0.280434 10.4599 0.00109198 9.78353 0 8.98598C0.000136498 8.47192 0.115272 8.00606 0.345612 7.58831C0.474943 7.35947 0.639082 7.14517 0.838027 6.945L0.842053 6.93708C1.40511 6.38358 2.08575 6.1069 2.88351 6.10717C3.67506 6.10629 4.35284 6.38297 4.91705 6.93708C4.92169 6.94397 4.92702 6.95052 4.93295 6.95694C4.94292 6.96451 4.95213 6.97243 4.96066 6.98076L10.7158 3.66114C10.65 3.41367 10.6169 3.15282 10.6165 2.87894C10.617 2.08288 10.895 1.40381 11.4506 0.84178Z"/>
</mask>
<path fill-rule="evenodd" clip-rule="evenodd" d="M11.4308 17.1103C11.439 17.1185 11.447 17.1266 11.4547 17.1342C11.6658 17.3447 11.8935 17.5153 12.1378 17.6464C12.3431 17.7594 12.5602 17.8441 12.7891 17.9006V19.6557H8.75789C8.72868 19.6559 8.6996 19.6559 8.67053 19.6557C8.66657 19.6557 8.66268 19.6557 8.65859 19.6557H8.57123C8.15928 19.6462 7.77654 19.5669 7.42335 19.4175L11.4308 17.1103ZM14.207 9.74436C14.5274 9.91846 14.8266 10.1435 15.1046 10.4194C15.3671 10.6814 15.5842 10.962 15.756 11.2613C15.8964 11.149 16.0472 11.0603 16.2087 10.9952C16.4339 10.9028 16.6786 10.8565 16.9435 10.8563C17.4771 10.8549 17.9324 11.0416 18.3099 11.4162C18.3316 11.4378 18.3528 11.4603 18.3734 11.4837L15.5695 13.0958C15.5647 13.0874 15.5594 13.0794 15.5535 13.072C15.545 13.0683 15.537 13.0644 15.5297 13.06C15.4078 12.9391 15.2805 12.8317 15.1484 12.7384C14.8591 12.5331 14.5455 12.3889 14.207 12.3055V9.74436ZM4.92504 11.015C4.53547 11.4031 4.09192 11.6572 3.59453 11.7775V18.4206C4.08906 18.5405 4.52994 18.7909 4.91712 19.1712C4.92176 19.1755 4.92708 19.1793 4.93302 19.183C4.94032 19.1894 4.94831 19.196 4.95684 19.2029L6.18805 18.4921C5.70498 17.9173 5.46263 17.2435 5.46127 16.4711C5.46332 15.7283 5.6884 15.077 6.13645 14.5174C6.21712 14.4171 6.30441 14.3192 6.3986 14.2235C6.98772 13.637 7.69205 13.3287 8.51171 13.2983C8.51096 13.2469 8.51096 13.1952 8.51171 13.1434C8.51171 13.1131 8.51171 13.0827 8.51171 13.052L10.716 14.3227C10.6835 14.447 10.6596 14.5755 10.6445 14.7079C10.6257 14.835 10.6151 14.9661 10.6128 15.101C10.6144 15.375 10.6488 15.6358 10.716 15.8833L6.19603 18.4921C6.26005 18.5701 6.32891 18.6456 6.40262 18.7185C6.43647 18.7526 6.47087 18.7856 6.50588 18.8177C6.78584 19.0779 7.09159 19.2764 7.42328 19.4134L5.65591 20.4338C5.72471 20.6791 5.76183 20.9372 5.76716 21.2082C5.76723 21.2134 5.76723 21.2187 5.76716 21.2241C5.76177 21.4915 5.72594 21.7458 5.65987 21.9865L11.427 25.3101C11.436 25.3021 11.4454 25.2942 11.4547 25.2862L11.4587 25.2822C11.8477 24.8983 12.2926 24.6455 12.7932 24.5238V19.6516H14.2071V17.8965C14.7032 17.7761 15.1456 17.5221 15.5338 17.1341C15.5399 17.1308 15.5466 17.1282 15.5536 17.1261C15.5599 17.118 15.5665 17.11 15.5735 17.1023L19.581 19.4173C19.2016 19.5759 18.7885 19.6554 18.3417 19.6555C18.3377 19.6555 18.3339 19.6555 18.33 19.6555H14.2072V24.5237C14.7031 24.6463 15.1452 24.8992 15.5338 25.2821C15.5386 25.2851 15.5438 25.2877 15.5498 25.2901C15.5568 25.2973 15.5634 25.3051 15.5697 25.314L21.3404 21.9943C21.2706 21.7454 21.235 21.4831 21.2333 21.208C21.235 20.9303 21.2694 20.6655 21.3366 20.4138L19.5811 19.4132C19.8791 19.2867 20.1571 19.1121 20.4153 18.889C20.477 18.8355 20.5379 18.7786 20.5978 18.7183C20.6715 18.6452 20.7416 18.5696 20.8084 18.4919L16.2806 15.8752C16.3454 15.6345 16.3798 15.3789 16.3839 15.1088C16.3839 15.1035 16.3839 15.0983 16.3839 15.093C16.383 15.0446 16.3817 14.997 16.3798 14.95C16.3667 14.7329 16.3336 14.525 16.2806 14.3266L18.8742 12.8335C18.8699 13.0027 18.8462 13.1642 18.8026 13.3179C19.4878 13.411 20.0863 13.7128 20.5978 14.2234C20.8841 14.5079 21.1054 14.8203 21.2611 15.1604C21.4419 15.5589 21.5319 15.9956 21.5311 16.4709C21.5319 17.243 21.2937 17.9169 20.8162 18.4919L22.0396 19.1948C22.0506 19.185 22.0613 19.1757 22.0714 19.1671V19.163C22.4601 18.7812 22.9022 18.5298 23.398 18.4085V11.7812C22.902 11.6588 22.4597 11.4073 22.0714 11.0268V11.0228C22.0623 11.0163 22.053 11.0097 22.0437 11.0029L18.8743 12.8334C18.8743 12.8144 18.8743 12.7958 18.8743 12.7779C18.8754 12.5134 18.8302 12.2685 18.7391 12.0432C18.6559 11.8388 18.5343 11.6509 18.3737 11.4794L21.3367 9.77589C21.2695 9.52685 21.2351 9.26477 21.2334 8.98959C21.2351 8.71728 21.2695 8.4578 21.3367 8.21135L15.5617 4.88388C15.5537 4.892 15.5456 4.89999 15.5379 4.9077C15.1483 5.29433 14.7048 5.54719 14.2073 5.66615V9.74019C13.9289 9.58738 13.6351 9.47355 13.3256 9.39868C13.1527 9.35745 12.9753 9.32838 12.7934 9.31139V5.674C12.2913 5.5519 11.8451 5.29645 11.455 4.9077C11.4474 4.90013 11.4394 4.89207 11.4311 4.88388L5.66008 8.21135C5.72621 8.45234 5.76197 8.70643 5.76736 8.97383C5.76743 8.97901 5.76743 8.98434 5.76736 8.98959C5.76197 9.26238 5.72484 9.5218 5.65612 9.76797L8.82962 11.5865C9.01594 11.1624 9.28736 10.7733 9.64383 10.4191C9.73692 10.3265 9.83226 10.2392 9.92972 10.157C10.6239 9.57947 11.4381 9.29091 12.3723 9.29139C12.5142 9.29193 12.6532 9.29985 12.7893 9.31521V12.3053C12.5305 12.3677 12.287 12.4656 12.0585 12.5991C11.8453 12.7214 11.6453 12.8749 11.4588 13.0597C11.4529 13.064 11.4461 13.068 11.439 13.0717C11.4343 13.078 11.4289 13.0846 11.4231 13.0915L8.82566 11.5906C8.73304 11.8011 8.66016 12.0195 8.60719 12.2457C8.54898 12.5025 8.51724 12.7699 8.51192 13.0479L4.94121 10.9949C4.93916 10.9997 4.9365 11.0037 4.93336 11.0069C4.92988 11.0093 4.92715 11.0119 4.92504 11.015ZM11.4506 0.84178L11.4586 0.837822C11.9209 0.381238 12.4624 0.111246 13.083 0.0277774C13.217 0.00969143 13.3546 0.000477741 13.4961 0C14.2889 0.00170622 14.968 0.28098 15.5336 0.837822L15.5415 0.84178C16.0963 1.40019 16.3783 2.07524 16.3875 2.86686C16.3876 2.87259 16.3876 2.87921 16.3875 2.88672C16.3808 3.1578 16.3423 3.41585 16.2723 3.66107L22.0393 6.98069C22.0497 6.97298 22.0603 6.96499 22.071 6.95687V6.94493C22.6355 6.3915 23.3174 6.11482 24.1165 6.11509C24.9079 6.11413 25.5859 6.39075 26.15 6.94493L26.158 6.96076C26.3711 7.17417 26.5444 7.40452 26.6782 7.65171C26.8883 8.05261 26.9956 8.49731 26.9999 8.98591C27 8.99116 27 8.99649 26.9999 9.00174C26.9915 9.79629 26.7094 10.47 26.1541 11.0229C25.7636 11.4131 25.3187 11.6686 24.8195 11.7893V18.4086C25.3171 18.5276 25.7607 18.7791 26.1499 19.1631L26.1579 19.1712C26.7112 19.7308 26.9921 20.4072 26.9998 21.2001C27 21.204 27 21.208 26.9998 21.2121C26.9952 21.6616 26.9025 22.0721 26.7218 22.4431C26.585 22.7313 26.3956 22.9959 26.1541 23.2372C25.5887 23.8012 24.9096 24.0832 24.1165 24.0831C23.317 24.0826 22.6353 23.8006 22.071 23.2372C22.0611 23.2285 22.0517 23.2206 22.0433 23.2133L16.2723 26.537C16.3422 26.7797 16.3808 27.0377 16.3875 27.3113C16.3876 27.3188 16.3876 27.3253 16.3875 27.3312C16.3777 28.1257 16.0944 28.7993 15.5376 29.3523C15.0607 29.8297 14.502 30.1049 13.8615 30.1782C13.7428 30.1922 13.621 30.1989 13.4961 30.1981C12.698 30.1975 12.0174 29.9156 11.4546 29.3523C10.8969 28.7971 10.6175 28.1207 10.6166 27.3231C10.617 27.048 10.6501 26.786 10.7159 26.537L4.95677 23.2133C4.9492 23.222 4.94121 23.23 4.93295 23.2372C4.92981 23.2394 4.92708 23.2418 4.92497 23.2451C4.35844 23.8093 3.67793 24.0911 2.88351 24.091C2.08411 24.0903 1.40224 23.8085 0.838027 23.2451C0.554385 22.9622 0.343974 22.6471 0.206589 22.3C0.0702963 21.967 0.00143322 21.6042 0 21.2121C0.00170622 20.4172 0.281048 19.7398 0.838027 19.1791L0.842053 19.1712C1.23107 18.7899 1.67585 18.5397 2.17659 18.4206V11.7775C1.67435 11.6566 1.2282 11.4025 0.838027 11.015C0.280434 10.4599 0.00109198 9.78353 0 8.98598C0.000136498 8.47192 0.115272 8.00606 0.345612 7.58831C0.474943 7.35947 0.639082 7.14517 0.838027 6.945L0.842053 6.93708C1.40511 6.38358 2.08575 6.1069 2.88351 6.10717C3.67506 6.10629 4.35284 6.38297 4.91705 6.93708C4.92169 6.94397 4.92702 6.95052 4.93295 6.95694C4.94292 6.96451 4.95213 6.97243 4.96066 6.98076L10.7158 3.66114C10.65 3.41367 10.6169 3.15282 10.6165 2.87894C10.617 2.08288 10.895 1.40381 11.4506 0.84178Z" fill="#DCA34C" stroke="#373737" stroke-width="0.6" mask="url(#path-1-inside-1_284_27037)"/>
</svg>
