<svg width="50" height="51" viewBox="0 0 50 51" fill="none" xmlns="http://www.w3.org/2000/svg">
<g clip-path="url(#clip0_284_26921)">
<path d="M25 51C38.8071 51 50 39.5833 50 25.5C50 11.4167 38.8071 0 25 0C11.1929 0 0 11.4167 0 25.5C0 39.5833 11.1929 51 25 51Z" fill="#5B5A5F"/>
<path d="M42.8223 24.856H41.748V23.7603H41.4595V25.1514H42.8223V24.856ZM41.605 27.0439C41.1807 27.0439 40.766 26.9156 40.4133 26.6752C40.0605 26.4348 39.7856 26.0931 39.6232 25.6933C39.4609 25.2935 39.4184 24.8536 39.5012 24.4292C39.5839 24.0048 39.7882 23.6149 40.0882 23.3089C40.3882 23.0029 40.7704 22.7946 41.1865 22.7101C41.6026 22.6257 42.0339 22.669 42.4258 22.8346C42.8178 23.0002 43.1528 23.2807 43.3885 23.6405C43.6242 24.0003 43.75 24.4233 43.75 24.856C43.7469 25.4353 43.5199 25.99 43.1183 26.3996C42.7167 26.8093 42.1729 27.0408 41.605 27.0439ZM41.605 23.068C41.2583 23.068 40.9194 23.1729 40.6311 23.3694C40.3428 23.5658 40.1182 23.8451 39.9855 24.1718C39.8528 24.4985 39.8181 24.858 39.8857 25.2048C39.9534 25.5517 40.1203 25.8703 40.3655 26.1203C40.6106 26.3704 40.923 26.5407 41.263 26.6097C41.603 26.6786 41.9555 26.6432 42.2758 26.5079C42.5961 26.3726 42.8699 26.1434 43.0625 25.8494C43.2551 25.5553 43.3579 25.2097 43.3579 24.856C43.3581 24.6212 43.3129 24.3886 43.2249 24.1716C43.1368 23.9545 43.0077 23.7574 42.8449 23.5913C42.6821 23.4252 42.4888 23.2935 42.276 23.2037C42.0633 23.1139 41.8352 23.0678 41.605 23.068ZM37.48 26.0344V22.5421H36.7583L34.0151 26.1813V26.8756H36.4902V28.2642H37.48V26.8756H38.3052V26.0339L37.48 26.0344ZM36.4902 25.2141V26.013H35.8301C35.624 26.013 35.2524 26.0339 35.1289 26.0339L36.5312 24.0985C36.5312 24.2668 36.4902 24.7718 36.4902 25.2136V25.2141ZM30.0347 28.2432H33.8921V27.3806H31.334C31.6846 25.9502 33.8296 25.6345 33.8296 24.0357C33.8296 23.1731 33.252 22.5416 32.0557 22.5416C31.4104 22.5469 30.7751 22.7053 30.2002 23.0043L30.4688 23.8066C30.8813 23.6174 31.335 23.4281 31.8916 23.4281C32.3452 23.4281 32.7578 23.6174 32.7578 24.1433C32.7778 25.3187 30.2617 25.4029 30.0347 28.2432ZM26.3018 25.9079L24.6519 23.594H25.8481L26.9224 25.1085L28.0156 23.594H29.2119L27.5391 25.9079L29.2305 28.2432H28.0342L26.9409 26.6863L25.8271 28.2432H24.6309L26.3018 25.9079ZM22.6924 22.1422C22.6924 21.9525 22.7663 21.7706 22.8978 21.6364C23.0292 21.5023 23.2076 21.427 23.3936 21.427C23.5795 21.427 23.7579 21.5023 23.8894 21.6364C24.0209 21.7706 24.0947 21.9525 24.0947 22.1422C24.0947 22.5207 23.7852 22.8364 23.373 22.8364C22.9609 22.8364 22.6924 22.5421 22.6924 22.1422ZM22.8159 23.5935H23.9707V28.2427H22.8164L22.8159 23.5935ZM19.227 23.5935H20.2168L20.3403 24.1194C20.7529 23.6986 21.124 23.4884 21.5986 23.4884C21.8248 23.4892 22.0463 23.5548 22.2378 23.6776L21.8262 24.6668C21.6712 24.5691 21.4927 24.5173 21.3105 24.5173C21.001 24.5173 20.7539 24.6434 20.3828 24.98V28.2642H19.2275L19.227 23.5935ZM13.1431 22.1422C13.1423 22.048 13.1599 21.9547 13.1948 21.8675C13.2298 21.7804 13.2814 21.7012 13.3467 21.6347C13.412 21.5681 13.4896 21.5154 13.575 21.4798C13.6604 21.4441 13.7519 21.4262 13.8442 21.427C14.2349 21.427 14.5659 21.7213 14.5659 22.1422C14.5659 22.5207 14.2563 22.8364 13.8442 22.8364C13.4321 22.8364 13.1431 22.5421 13.1431 22.1422ZM13.2666 23.5935H14.4214V28.2427H13.2671L13.2666 23.5935ZM15.9668 27.1072V24.5173H15.1416V23.594H15.9668V22.5212L17.1216 22.1845V23.594H18.5059L18.2173 24.5198H17.124V26.8109C17.124 27.2526 17.2705 27.4 17.5776 27.4C17.8285 27.394 18.0721 27.3136 18.2788 27.1685L18.6294 27.9678C18.2993 28.1994 17.7427 28.3254 17.2886 28.3254C16.4639 28.3483 15.9668 27.8851 15.9668 27.1072ZM8.00781 21.7646H9.86328C11.2246 21.7646 11.8433 22.564 11.8433 23.4057C11.8433 23.9735 11.5752 24.4785 11.0801 24.7504V24.7714C11.8228 24.9606 12.2764 25.5707 12.2764 26.3282C12.2764 27.3378 11.5337 28.2427 10.0488 28.2427H8.00781V21.7646ZM9.71973 24.4785C10.3589 24.4785 10.7095 24.1209 10.7095 23.6159C10.7095 23.1323 10.3999 22.7533 9.71973 22.7533H9.18262V24.4785H9.71973ZM9.90527 27.2765C10.6685 27.2765 11.1016 26.9822 11.1016 26.3302C11.1016 25.7824 10.689 25.4467 10.0498 25.4467H9.18359V27.277L9.90527 27.2765Z" fill="#FBEDD0"/>
</g>
<defs>
<clipPath id="clip0_284_26921">
<rect width="50" height="51" fill="white"/>
</clipPath>
</defs>
</svg>
