<svg width="74" height="21" viewBox="0 0 74 21" fill="none" xmlns="http://www.w3.org/2000/svg">
<path fill-rule="evenodd" clip-rule="evenodd" d="M11.5947 15.6069H8.4038C3.42595 15.6069 7.04235 4.99591 11.2331 4.99591H16.2748C17.0831 4.99591 18.5084 5.14539 19.2104 3.13846L20.2953 0.0213623H13.3816C9.63766 0.0213623 6.72323 1.34506 4.61723 3.56547C0.979565 7.36575 -0.25426 13.3011 0.617929 16.1406C1.44757 18.7667 3.7025 20.496 7.23378 20.5387L9.978 20.5601H13.3604L14.19 18.0621C14.8069 16.2901 13.4242 15.6069 11.5947 15.6069ZM50.4391 11.2088L51.4813 7.81413H40.3557C38.505 7.81413 37.6753 8.32653 37.3562 9.394L36.3138 12.7887H47.4396C49.2903 12.7887 50.1199 12.2763 50.4391 11.2088ZM34.6546 17.1868L33.6122 20.5814H44.7379C46.5674 20.5814 47.4183 20.069 47.7374 19.0015L48.7798 15.6069H37.6541C35.8246 15.6069 34.9949 16.1193 34.6546 17.1868ZM53.0343 3.43737L54.0769 0.042712H42.951C41.1003 0.042712 40.2706 0.555112 39.9515 1.62261L38.9091 5.01727H50.0349C51.8646 5.01727 52.6939 4.50487 53.0343 3.43737ZM36.2288 4.12057C35.7607 0.960765 34.0802 0.042712 29.9958 0.042712H22.5503L18.2106 12.7887H20.9548C22.5928 12.7887 23.4225 12.81 24.2947 10.4615L26.1029 4.99591H28.8683C31.2296 4.99591 30.6978 7.96359 29.5065 10.8458C28.4429 13.3865 26.5921 15.6282 24.3584 15.6282H19.7423C17.8915 15.6282 17.0406 16.1406 16.7002 17.2081L15.5515 20.6028H18.9339L22.2525 20.5814C25.1881 20.5601 27.5919 20.3466 30.4 17.8059C33.3782 15.0945 36.8244 8.13435 36.2288 4.12057ZM73.6267 0.0213623H67.181L61.1181 6.49041C60.4159 7.23765 59.6927 7.9849 58.9905 8.86029H58.9267L61.9474 0.0213623H56.6934L49.6094 20.5814H54.8638L57.1186 14.1124L59.4585 12.1268L61.3095 17.9767C61.8836 19.7915 62.4797 20.5814 63.7561 20.5814H67.7766L63.6494 9.09513L73.6267 0.0213623Z" fill="#DCA34C"/>
</svg>
