<svg width="123" height="23" viewBox="0 0 123 23" fill="none" xmlns="http://www.w3.org/2000/svg">
<g clip-path="url(#clip0_284_27043)">
<path d="M47.0591 19.2897C47.0591 19.0828 46.9806 18.9234 46.8231 18.8115C46.6662 18.6995 46.4496 18.6436 46.174 18.6436C45.9244 18.6436 45.7101 18.7069 45.5315 18.8336C45.3547 18.9582 45.2665 19.1165 45.2665 19.3087H44.8824C44.8824 19.0237 45.0059 18.7882 45.2537 18.6024C45.5033 18.4166 45.8102 18.3237 46.174 18.3237C46.5749 18.3237 46.8871 18.4081 47.1107 18.5771C47.3347 18.746 47.4467 18.9856 47.4467 19.296C47.4467 19.4607 47.3951 19.6096 47.2915 19.7426C47.1883 19.8756 47.0375 19.9791 46.8395 20.053C47.2875 20.1734 47.5115 20.4458 47.5115 20.8701C47.5115 21.1784 47.3898 21.4223 47.1464 21.6018C46.903 21.7812 46.5802 21.871 46.1776 21.871C45.7877 21.871 45.4645 21.7749 45.2083 21.5828C44.9521 21.3906 44.8242 21.1394 44.8242 20.829H45.2118C45.2118 21.0359 45.3044 21.209 45.4896 21.3484C45.6766 21.4856 45.9059 21.5542 46.1776 21.5542C46.4726 21.5542 46.7028 21.4941 46.8686 21.3738C47.0366 21.2513 47.1204 21.0855 47.1204 20.8765C47.1204 20.6463 47.0441 20.4806 46.8911 20.3792C46.7385 20.2779 46.5048 20.2272 46.1904 20.2272H45.6572V19.8978H46.2547C46.791 19.8851 47.0591 19.6824 47.0591 19.2897ZM53.4805 21.8108C53.4417 21.7031 53.417 21.5437 53.406 21.3325C53.2702 21.5057 53.0969 21.6398 52.8861 21.7348C52.6771 21.8277 52.4552 21.8742 52.2206 21.8742C51.8846 21.8742 51.6125 21.7823 51.4035 21.5986C51.1967 21.4149 51.0935 21.1827 51.0935 20.9018C51.0935 20.5682 51.2346 20.3043 51.5164 20.11C51.8008 19.9158 52.196 19.8186 52.7017 19.8186H53.4029V19.4291C53.4029 19.1841 53.3253 18.992 53.1701 18.8526C53.0175 18.7111 52.7935 18.6404 52.4985 18.6404C52.2295 18.6404 52.0063 18.708 51.8299 18.8431C51.6531 18.9782 51.5649 19.1408 51.5649 19.3309L51.1773 19.3277C51.1773 19.0553 51.3065 18.8199 51.5649 18.6214C51.8233 18.4208 52.1408 18.3205 52.5179 18.3205C52.9077 18.3205 53.2146 18.4166 53.4382 18.6087C53.6644 18.7988 53.7808 19.0648 53.787 19.4069V21.0285C53.787 21.36 53.8227 21.6081 53.8937 21.7728V21.8108H53.4805ZM52.2661 21.5384C52.5245 21.5384 52.7547 21.4772 52.9571 21.3547C53.1617 21.2323 53.3103 21.0686 53.4029 20.8638V20.11H52.7114C52.326 20.1142 52.0249 20.1839 51.8075 20.319C51.5896 20.4521 51.4811 20.6358 51.4811 20.8701C51.4811 21.0623 51.553 21.2217 51.6977 21.3484C51.8441 21.4751 52.0332 21.5384 52.2661 21.5384ZM57.7729 21.8108V18.3839H59.0553C59.4989 18.3839 59.8389 18.462 60.0757 18.6182C60.3129 18.7724 60.4311 18.9994 60.4311 19.2992C60.4311 19.4702 60.3786 19.6233 60.2728 19.7584C60.1674 19.8915 60.0135 19.9886 59.8111 20.0498C60.0391 20.0921 60.2225 20.1882 60.3601 20.338C60.4999 20.488 60.57 20.6622 60.57 20.8606C60.57 21.1626 60.4558 21.397 60.2278 21.5638C60.0016 21.7285 59.6806 21.8108 59.2652 21.8108H57.7729ZM58.1575 20.2335V21.4941H59.278C59.569 21.4941 59.7926 21.4392 59.95 21.3294C60.107 21.2196 60.1859 21.0612 60.1859 20.8543C60.1859 20.6643 60.107 20.5133 59.95 20.4014C59.7926 20.2895 59.569 20.2335 59.278 20.2335H58.1575ZM58.1575 19.9168H59.136C59.7432 19.9084 60.047 19.7056 60.047 19.3087C60.047 19.0997 59.9628 18.9476 59.7948 18.8526C59.629 18.7555 59.3825 18.7069 59.0553 18.7069H58.1575V19.9168ZM64.1295 20.0467C64.1295 19.7173 64.1944 19.4206 64.3236 19.1567C64.455 18.8928 64.6389 18.6879 64.8757 18.5422C65.1147 18.3944 65.385 18.3205 65.6866 18.3205C66.1514 18.3205 66.5284 18.481 66.8168 18.8019C67.1052 19.1208 67.2494 19.5441 67.2494 20.072V20.1512C67.2494 20.4827 67.1842 20.7814 67.0527 21.0475C66.9235 21.3114 66.7405 21.5152 66.5037 21.6588C66.2665 21.8024 65.9966 21.8742 65.6928 21.8742C65.2298 21.8742 64.8532 21.7147 64.5626 21.3959C64.2737 21.0749 64.1295 20.6506 64.1295 20.1227V20.0467ZM64.5172 20.1512C64.5172 20.5608 64.6248 20.8976 64.8404 21.1615C65.0578 21.4234 65.3418 21.5542 65.6928 21.5542C66.0416 21.5542 66.3238 21.4234 66.539 21.1615C66.7564 20.8976 66.8653 20.5503 66.8653 20.1195V20.0467C66.8653 19.7848 66.8159 19.5452 66.7167 19.3277C66.6175 19.1102 66.4786 18.9424 66.3 18.8241C66.1214 18.7037 65.9168 18.6436 65.6866 18.6436C65.3418 18.6436 65.0609 18.7766 64.8435 19.0426C64.6261 19.3066 64.5172 19.6529 64.5172 20.0815V20.1512ZM70.6476 21.4909L70.8191 21.2724C71.0903 20.9113 71.2464 20.3834 71.2874 19.6888L71.3487 18.3839H73.4124V21.4909H73.774V22.818H73.39V21.8108H70.764V22.818H70.3927L70.3958 21.4909H70.6476ZM71.0934 21.4909H73.0248V18.7386H71.7169L71.675 19.6286C71.6362 20.4458 71.4422 21.0665 71.0934 21.4909ZM81.869 21.4909L82.0401 21.2724C82.3113 20.9113 82.4674 20.3834 82.5084 19.6888L82.5697 18.3839H84.6334V21.4909H84.995V22.818H84.6109V21.8108H81.985V22.818H81.6136L81.6167 21.4909H81.869ZM82.3144 21.4909H84.2458V18.7386H82.9379L82.896 19.6286C82.8572 20.4458 82.6632 21.0665 82.3144 21.4909ZM90.0049 21.8742C89.7077 21.8742 89.4387 21.8024 89.1975 21.6588C88.9585 21.5152 88.7724 21.3157 88.6388 21.0602C88.5052 20.8026 88.4386 20.5144 88.4386 20.1955V20.0593C88.4386 19.7299 88.503 19.4333 88.6322 19.1693C88.7636 18.9054 88.9457 18.6985 89.1781 18.5486C89.4105 18.3965 89.6627 18.3205 89.9339 18.3205C90.3581 18.3205 90.6941 18.463 90.9415 18.7481C91.1916 19.031 91.3164 19.4185 91.3164 19.9105V20.1227H88.8227V20.1955C88.8227 20.584 88.936 20.9082 89.1618 21.1679C89.3902 21.4255 89.6764 21.5542 90.0212 21.5542C90.2276 21.5542 90.4097 21.5173 90.5672 21.4434C90.7263 21.3695 90.8705 21.2513 90.9997 21.0887L91.2418 21.2692C90.9579 21.6725 90.5455 21.8742 90.0049 21.8742ZM89.9339 18.6436C89.6433 18.6436 89.3977 18.7481 89.1975 18.9571C88.9995 19.1662 88.8787 19.447 88.8359 19.7996H90.9318V19.7584C90.9212 19.4291 90.8251 19.1609 90.6443 18.954C90.4635 18.747 90.2267 18.6436 89.9339 18.6436ZM95.9289 20.2399H95.3927V21.8108H95.002V18.3839H95.3927V19.9041H95.9223L97.2047 18.3839H97.6924L96.2583 20.0467L97.8507 21.8108H97.34L95.9289 20.2399ZM101.035 20.0467C101.035 19.7173 101.1 19.4206 101.229 19.1567C101.36 18.8928 101.545 18.6879 101.782 18.5422C102.021 18.3944 102.291 18.3205 102.592 18.3205C103.057 18.3205 103.434 18.481 103.723 18.8019C104.011 19.1208 104.155 19.5441 104.155 20.072V20.1512C104.155 20.4827 104.09 20.7814 103.958 21.0475C103.829 21.3114 103.646 21.5152 103.409 21.6588C103.172 21.8024 102.902 21.8742 102.599 21.8742C102.136 21.8742 101.759 21.7147 101.468 21.3959C101.18 21.0749 101.035 20.6506 101.035 20.1227V20.0467ZM101.423 20.1512C101.423 20.5608 101.531 20.8976 101.746 21.1615C101.964 21.4234 102.248 21.5542 102.599 21.5542C102.947 21.5542 103.23 21.4234 103.445 21.1615C103.662 20.8976 103.771 20.5503 103.771 20.1195V20.0467C103.771 19.7848 103.721 19.5452 103.623 19.3277C103.523 19.1102 103.384 18.9424 103.206 18.8241C103.027 18.7037 102.823 18.6436 102.592 18.6436C102.248 18.6436 101.967 18.7766 101.749 19.0426C101.532 19.3066 101.423 19.6529 101.423 20.0815V20.1512ZM110.677 20.1322C110.677 20.6664 110.556 21.0908 110.315 21.4054C110.074 21.7179 109.751 21.8742 109.346 21.8742C108.868 21.8742 108.502 21.7094 108.248 21.3801V23.1284H107.863V18.3839H108.222L108.241 18.8685C108.494 18.5032 108.858 18.3205 109.336 18.3205C109.754 18.3205 110.081 18.4757 110.318 18.7861C110.557 19.0965 110.677 19.5272 110.677 20.0784V20.1322ZM110.289 20.0657C110.289 19.6286 110.197 19.2834 110.014 19.03C109.831 18.7766 109.577 18.6499 109.249 18.6499C109.012 18.6499 108.809 18.7059 108.639 18.8178C108.468 18.9297 108.338 19.0923 108.248 19.3055V20.9493C108.341 21.1457 108.473 21.2956 108.645 21.3991C108.817 21.5025 109.021 21.5542 109.256 21.5542C109.581 21.5542 109.834 21.4276 110.014 21.1742C110.197 20.9187 110.289 20.5492 110.289 20.0657ZM116.652 21.8108C116.614 21.7031 116.588 21.5437 116.578 21.3325C116.442 21.5057 116.269 21.6398 116.058 21.7348C115.849 21.8277 115.627 21.8742 115.393 21.8742C115.057 21.8742 114.784 21.7823 114.575 21.5986C114.369 21.4149 114.265 21.1827 114.265 20.9018C114.265 20.5682 114.407 20.3043 114.688 20.11C114.973 19.9158 115.368 19.8186 115.874 19.8186H116.575V19.4291C116.575 19.1841 116.497 18.992 116.342 18.8526C116.189 18.7111 115.965 18.6404 115.67 18.6404C115.401 18.6404 115.178 18.708 115.002 18.8431C114.825 18.9782 114.737 19.1408 114.737 19.3309L114.349 19.3277C114.349 19.0553 114.478 18.8199 114.737 18.6214C114.995 18.4208 115.313 18.3205 115.69 18.3205C116.08 18.3205 116.386 18.4166 116.61 18.6087C116.836 18.7988 116.953 19.0648 116.959 19.4069V21.0285C116.959 21.36 116.995 21.6081 117.066 21.7728V21.8108H116.652ZM115.438 21.5384C115.696 21.5384 115.927 21.4772 116.129 21.3547C116.334 21.2323 116.482 21.0686 116.575 20.8638V20.11H115.883C115.498 20.1142 115.197 20.1839 114.979 20.319C114.762 20.4521 114.653 20.6358 114.653 20.8701C114.653 21.0623 114.725 21.2217 114.869 21.3484C115.016 21.4751 115.205 21.5384 115.438 21.5384Z" fill="black"/>
<path fill-rule="evenodd" clip-rule="evenodd" d="M11.0062 11.9623C11.0896 11.8434 11.1274 11.6953 11.3295 11.6317C11.4409 11.8081 11.3311 11.9915 11.2785 12.06C11.2705 12.0706 11.2443 12.0832 11.2329 12.0995L11.6396 12.1013C11.6522 12.0886 11.7054 12.0256 11.7254 12.0111C11.9183 11.8712 11.7562 11.8992 12.0533 11.901C11.8894 12.2338 11.8248 12.085 11.8393 12.3424L11.8697 12.5206C11.6356 12.6811 11.6947 12.7082 11.3972 12.8428C11.6568 12.8657 11.8337 12.8953 12.0244 13.0654C12.2357 12.8995 12.1155 12.9713 12.3671 12.8711C12.3659 13.2808 12.3336 12.9698 12.7701 13.1456C12.7033 13.4319 12.6778 13.2723 12.4495 13.4817C12.6639 13.5809 12.5501 13.5203 12.7101 13.6802L13.1235 14.3444C13.2287 14.5381 13.1986 14.5686 13.202 14.8023C13.3579 14.7674 13.3592 14.7474 13.5689 14.7218L13.5739 15.0578C13.7132 14.8633 13.5954 14.9121 13.8778 14.8898C14.0313 15.253 14.6019 15.1839 13.8442 15.5691L13.9448 15.6409C14.1635 15.8147 14.3619 16.0186 14.4472 16.2738C14.4804 16.3733 14.4346 16.3205 14.4958 16.4068C14.5093 16.3962 14.5216 16.3552 14.529 16.3673C14.572 16.4382 14.5739 16.2219 14.9587 16.1751C14.8532 16.5018 14.7612 16.5175 14.9157 16.8068C14.923 16.8201 14.9356 16.8385 14.943 16.8527L15.1134 17.2041L15.6204 17.1631C15.5391 17.4484 15.6062 17.1993 15.3792 17.5003C15.2352 17.6912 15.2928 17.4683 15.2709 17.7057C15.2349 18.094 15.2325 17.7836 15.3451 17.919L15.3558 17.7968C15.4638 17.5998 15.3743 17.5799 15.7308 17.5383L15.4149 18.1389C15.3995 18.1555 15.3469 18.2035 15.3322 18.2173C14.963 18.5696 15.4792 17.9 15.2439 18.2951C15.2199 18.4215 15.3325 18.5443 15.3909 18.6336L15.6828 18.9012C15.5305 19.1561 15.6262 18.9492 15.5148 19.1133L15.3211 19.4454L16.267 19.5069C16.0993 19.7929 16.2005 19.6245 15.9901 19.8318L15.7025 20.2378C15.6081 20.3681 15.5712 20.287 15.6684 20.5123C15.673 20.5226 15.684 20.5434 15.6893 20.5542C15.6951 20.566 15.7071 20.5862 15.7133 20.5983C15.7231 20.6167 15.7563 20.674 15.7665 20.6933C15.8086 20.7714 15.8357 20.8399 15.8855 20.9244L16.2131 20.9609L16.4306 20.5639C16.4457 20.5412 16.4623 20.5126 16.4838 20.4918C16.3749 21.0122 16.4383 20.9232 16.5229 21.3005L16.889 21.3744C17.0686 21.4501 17.0388 21.067 17.044 21.6013C17.4184 21.6872 17.4937 21.5955 17.7229 21.4058C18.0674 21.121 17.9204 21.0924 17.9681 20.6429L18.3652 20.3105C18.6411 19.6607 18.304 19.9325 18.1612 19.734C18.4907 19.6674 18.3541 19.7187 18.4799 19.4628C18.5716 19.2764 18.6408 19.2532 18.8078 19.1283C18.264 18.8282 18.5285 18.7431 18.7423 18.4194L18.8589 18.205C18.8623 18.1929 18.8638 18.1624 18.8657 18.1522C18.8678 18.1416 18.8736 18.1145 18.8681 18.0967L18.28 17.9923C18.5417 17.7805 18.5094 17.8412 18.897 17.8215C18.8936 17.6418 18.8469 17.5968 18.989 17.5139C19.0029 17.506 19.0357 17.4946 19.048 17.4885C19.0619 17.4816 19.0948 17.4759 19.1142 17.4623C19.1259 16.8035 19.125 17.275 18.9745 17.084L19.1237 17.0074C18.7149 16.9754 18.6565 17.1166 18.6192 16.8346C18.5473 16.2828 18.5851 16.7344 18.7399 16.6138C18.9195 16.4744 19.1852 16.4312 19.3821 16.3622C19.5439 16.3055 19.2785 16.5214 19.4597 16.2922C19.6559 16.0433 19.2665 16.3058 19.6697 16.0403C19.8949 16.1655 19.8866 16.2068 20.1862 16.2506C20.2123 15.6991 20.0069 15.9715 20.2708 15.6358C20.3733 15.5055 20.4465 15.3993 20.6042 15.3516C20.6393 15.3414 20.7608 15.3341 20.8039 15.3323L20.8279 14.45C21.0565 14.5399 20.9078 14.507 20.9934 14.5767C21.1816 14.7305 20.8968 14.6488 21.1367 14.6958C21.2072 14.5212 21.1229 14.6057 21.3179 14.5112C21.456 14.444 21.4259 14.4349 21.5379 14.5088C21.4794 14.2515 21.5628 14.4515 21.3201 14.3619L21.2238 14.3335C21.2459 14.1067 21.2662 14.1106 21.3865 13.9803C21.397 13.9692 21.4142 13.9556 21.4252 13.9456C21.5622 13.8195 21.4148 13.7598 21.827 13.7562C21.7061 13.6277 21.5163 13.6298 21.3468 13.6135L21.2478 13.6078C21.2302 13.6057 21.2081 13.6066 21.1893 13.6035L20.9054 13.5242L21.2139 13.1459C21.5877 13.3116 21.3625 13.2395 21.4576 13.3535L21.5231 13.4533C21.6277 13.1432 21.3475 13.311 21.6821 13.2262C21.8747 13.4003 21.8513 13.5158 22.0226 13.4672C22.3456 13.3755 22.0426 13.3393 22.0423 13.3378C21.9805 13.1664 21.9307 13.5803 21.9522 13.0983C22.1411 13.1046 22.1128 13.1037 22.2995 13.0748C22.6874 13.0144 22.5179 13.0217 22.6471 12.9444C22.6966 12.9149 22.7526 12.8419 22.9719 12.8126C23.2288 12.7783 23.0365 12.9215 23.2223 12.7674C23.202 12.752 23.1491 12.6917 23.143 12.6717C23.0747 12.4473 23.0873 12.5592 23.1064 12.2799C23.2691 12.2534 23.4798 12.2609 23.5718 12.2443C23.5911 12.2407 23.609 12.2365 23.6283 12.232L23.7459 12.1933C23.9255 12.136 23.7314 12.1517 24.071 12.0859C24.0605 12.117 24.0323 12.1219 24.0233 12.1722L23.9117 12.4126C23.8892 12.6289 24.0218 12.1279 24.0446 12.7671C23.9246 12.8627 23.9873 12.8081 23.8495 12.8651C23.3371 13.0778 23.9815 12.6642 23.685 12.9185C23.8554 13.1155 23.6379 12.8995 23.8794 12.9951C24.1172 13.089 24.044 12.9194 24.1374 13.1758C24.2931 13.6032 24.0673 13.3885 24.0153 13.4168C24.0104 13.4192 23.6364 13.4759 23.6271 13.4768C23.7991 13.682 23.7812 13.7417 23.7865 14.0497C23.9181 13.6497 23.7164 13.9197 24.0086 13.8226C23.9772 14.193 23.8803 14.2642 23.62 14.4331C23.6739 14.5782 23.6865 14.5158 23.8028 14.5686C23.8095 14.5719 23.8341 14.5758 23.8468 14.5845C23.2842 15.0874 24.3097 14.9794 23.6361 15.2847C23.6167 15.2934 23.4976 15.316 23.4727 15.323C23.9154 15.3402 23.7403 15.2723 23.8637 15.4934L23.4198 16.1748C23.5564 16.2551 23.6299 16.2551 23.7044 16.402C23.4902 16.8569 23.2168 16.668 23.1057 16.9531C23.0571 17.078 23.1011 16.9778 23.0944 17.1082L23.0931 17.2179C23.0928 17.2291 23.0968 17.2554 23.0913 17.2729C22.6231 17.3769 23.0325 17.1748 22.8476 17.2352C22.8261 17.5648 22.8704 17.4019 23.0322 17.5821L23.1297 17.6894C22.9242 17.868 22.5677 17.9504 22.3016 18.0692C22.2857 18.0762 22.2647 18.0846 22.249 18.0925L21.8544 18.5932C21.7433 18.9335 21.8301 18.9371 21.3733 18.9057L21.2915 19.3033C21.078 19.2282 21.1499 19.2484 21.0595 19.0831L21.0386 19.3564C21.2459 19.4671 21.2333 19.2602 21.3296 19.7338L20.918 20.0025C20.9088 20.014 20.8962 20.0402 20.8811 20.0559C20.7409 19.7971 20.8863 19.9213 20.6735 19.7811C20.5391 19.9555 20.556 20.1639 20.595 20.3011C20.6003 20.3195 20.6095 20.3434 20.6153 20.3609C20.6221 20.3817 20.6602 20.4673 20.6682 20.4915L20.5363 20.5509C20.5184 20.5581 20.4351 20.5934 20.4117 20.6025C20.2499 20.6634 20.4563 20.6143 20.1813 20.6761L20.3459 20.8411C20.3459 20.8411 20.4191 20.8809 20.4969 20.9458L20.2274 21.1488C20.2102 21.1572 20.1801 21.1632 20.1573 21.1729L20.2933 21.3159C20.3529 21.4067 20.3243 21.3418 20.3597 21.4616L20.0342 21.3455C19.9444 21.2878 19.9814 21.3201 19.9014 21.2345L19.6845 21.515C19.4301 21.8559 19.5802 21.8046 19.7141 21.893H20.6956C21.4065 20.9289 22.2574 19.9832 22.9107 19.0502C23.4327 18.3048 23.979 17.9856 24.5303 16.4128C25.1341 14.6904 25.0353 13.2108 25.0046 11.2525C24.9929 10.5149 25.2735 9.21393 24.5524 8.95598C24.0519 8.77682 23.6077 9.53094 23.0716 10.1934C22.9239 10.3756 22.9323 10.3813 22.7932 10.6075L19.9961 14.1495C18.9404 15.4666 19.1603 15.4165 18.5688 16.233C18.4698 16.37 18.387 16.5383 18.3095 16.7371C17.9127 17.7531 17.5845 19.0776 17.5756 20.1883C17.5715 20.6459 17.7207 21.2698 17.1311 21.2028C16.6681 21.1506 16.7358 20.6351 16.729 20.1862C16.7109 19.0128 16.366 17.8647 15.9461 16.8029C15.6262 15.9942 14.2684 14.3112 13.6228 13.4714C13.4207 13.2087 13.2099 12.99 13.0128 12.7119C12.4409 11.9071 11.8232 11.3068 11.1348 10.3029C10.7404 9.72822 10.1714 8.79823 9.64044 9.13246C9.06797 9.49293 9.22178 10.7571 9.19532 11.4796C9.13535 13.1152 9.1043 15.247 9.66319 16.5193C10.1028 17.5202 11.8411 19.5367 12.6301 20.5778C13.0152 21.0858 13.3505 21.5002 13.6474 21.893H14.8972L14.6548 21.7038C14.3921 21.4821 14.7818 21.7741 14.556 21.6368L14.4884 21.6061C14.3469 21.505 14.3379 21.4399 14.2976 21.2061L13.9267 21.2384L14.01 20.896C13.6686 20.8511 13.6237 20.7862 13.5157 20.5162C13.5093 20.5005 13.504 20.471 13.4917 20.4514L12.8543 20.5482C13.0638 20.3262 12.9989 20.6134 12.9943 20.1178C12.9608 20.1051 12.7704 20.0459 12.7688 20.0447C12.5498 19.9181 12.7489 20.1506 12.592 19.8855C12.9882 19.6538 12.6452 19.8077 12.8187 19.8426L13.1487 19.9989C13.2666 19.5956 13.1964 20.109 13.3324 19.6348C13.23 19.6269 13.1014 19.6363 13.0254 19.6321C12.9103 19.626 12.9916 19.6357 12.8891 19.623C12.7332 19.6037 12.8076 19.63 12.7171 19.5826C12.7867 19.4043 12.6249 19.4993 12.7888 19.5005C13.0847 19.5027 12.5923 19.3675 12.899 19.5527C12.9072 19.5579 12.927 19.5793 12.9417 19.592L12.8747 19.2282C12.8814 19.1298 12.8836 18.9693 12.7092 18.9389C12.3606 18.8782 12.7421 18.9214 12.4345 19.0291C12.3237 18.3383 11.9005 18.9313 12.0629 18.1108C11.5867 18.1395 11.9386 18.1287 11.6959 18.2339L11.5624 17.9163C11.3179 17.4985 11.0481 17.5097 10.5864 17.1591C10.6556 16.932 10.6306 17.0726 10.7291 16.9392C10.7986 16.8451 10.7232 17.0563 10.8853 16.7383C10.7832 16.6201 10.8484 16.6475 10.7315 16.5341C10.6288 16.4346 10.7208 16.4867 10.5257 16.402C10.611 16.0747 10.7306 16.5072 10.5861 15.9194C10.4236 16.0068 10.4215 16.1818 10.2483 16.2457L10.2068 15.9739C10.2012 15.9619 10.1898 15.9411 10.1831 15.9293L10.5088 15.7534C10.3224 15.589 10.3507 15.7024 10.3519 15.4174C10.4762 15.3178 10.3283 15.3565 10.6248 15.3278C10.4393 15.2415 10.5104 15.3166 10.3424 15.1902C10.6242 14.8304 10.3396 14.9661 10.4236 14.4708C10.5014 14.0117 10.4762 13.9384 10.2532 13.7327C10.4756 13.7088 10.4867 13.6521 10.5984 13.5242L10.3298 13.0591C10.292 12.9948 10.2797 13.1773 10.2003 12.7957C10.4381 12.869 10.4873 12.9296 10.7647 12.8902C10.9752 12.4986 10.8764 12.7276 10.842 12.1801C10.646 12.311 10.6242 12.3369 10.3064 12.3315C10.4169 12.0989 10.5817 12.0096 10.8321 11.9578C10.579 11.7463 10.531 11.6271 10.7116 11.3735C11.0238 11.4682 10.6962 11.1834 10.8128 11.4724L10.817 11.6135C10.8494 11.8211 10.9093 11.7104 11.0062 11.9623Z" fill="#5B5A5F"/>
<path fill-rule="evenodd" clip-rule="evenodd" d="M17.6376 15.53C18.0073 15.3963 18.4183 14.6615 18.6604 14.3541C21.2028 11.127 21.2065 10.8188 21.2145 6.25418C21.2157 5.56488 21.1517 5.01077 20.8776 4.46205C20.6786 4.06357 20.3538 3.38936 19.9782 3.13842L19.1378 4.14594C18.3801 5.02283 18.2048 5.84484 17.9169 6.57993C17.4017 7.89518 17.6843 13.5391 17.6376 15.53Z" fill="#5B5A5F"/>
<path fill-rule="evenodd" clip-rule="evenodd" d="M25.5686 21.8931C26.2343 21.865 26.793 21.8044 27.0532 21.6771C28.2249 21.1037 28.2768 20.7869 28.9733 19.9203C29.8619 18.8141 31.3326 17.3602 30.2572 16.3952C29.5614 15.7711 28.1458 16.118 27.2734 16.3566C26.7074 16.511 25.5238 17.3098 25.078 17.8437L23.8384 19.3556C23.6138 19.6033 23.3566 20.1194 23.0586 20.4099L21.9512 21.8931H25.5686Z" fill="#5B5A5F"/>
<path fill-rule="evenodd" clip-rule="evenodd" d="M16.585 15.7487C16.4899 13.5774 16.9538 10.9635 15.9901 9.25621C15.8987 9.09392 15.7991 8.8921 15.688 8.71805C15.6296 8.62633 15.5628 8.52951 15.4985 8.44657L15.2906 8.20164C14.9688 7.83087 14.7765 7.67494 14.2216 7.50633C13.4108 7.25985 9.74407 7.18356 11.0373 8.81007L12.6079 10.7566C12.8906 11.1002 13.1164 11.4224 13.4031 11.7919C13.6633 12.127 13.9024 12.4998 14.165 12.787L15.7135 14.7523C15.9387 15.0838 16.2257 15.6108 16.585 15.7487Z" fill="#5B5A5F"/>
<path fill-rule="evenodd" clip-rule="evenodd" d="M8.78099 19.3019C9.05108 19.3095 9.14797 19.2759 9.39839 19.2045C9.36916 19.4669 9.34455 19.4859 9.1492 19.6895C9.29688 19.6582 9.56601 19.384 9.74381 20.0973C9.87147 20.6108 9.80748 19.6998 9.74535 20.2029C9.6703 20.8117 9.8201 20.4934 9.80135 20.8702C9.4316 21.1052 9.36885 21.1178 8.46173 21.0313C7.99447 20.9866 8.26854 21.1552 8.08611 20.8388C8.01877 20.9438 8.11411 20.7863 8.03442 20.9697C8.02891 20.9821 8.01908 21.0065 8.0129 21.0204L7.93172 21.1863C7.7582 21.0581 7.91448 21.1411 7.80803 21.0669C7.34294 20.7426 7.45521 21.1697 7.23648 20.7187C7.10331 20.8922 7.19684 20.8542 6.92767 20.9034C6.91537 20.8862 6.90121 20.8367 6.89535 20.8494C6.82832 20.9963 6.93226 20.8666 6.71786 20.6253C6.63791 20.535 6.5939 20.5281 6.5416 20.3776C6.17339 20.7691 5.83014 20.3806 5.55695 20.2439C5.46836 20.1999 5.48159 20.2135 5.39053 20.177C5.27059 20.129 5.32932 20.1806 5.17922 20.0904C5.31733 19.8093 5.10355 20.0222 5.41575 19.8219C5.54866 19.7369 5.51237 19.809 5.66063 19.7341C5.48406 19.4527 5.47912 19.8286 5.49698 19.2793C5.4696 19.5981 5.50712 19.4687 5.11554 19.4533L5.10416 18.7972C5.09922 18.7834 5.08383 18.7664 5.07801 18.7535C5.06941 18.7345 5.02818 18.6905 5.02047 18.672L4.9971 18.4739C5.38255 18.3761 4.93188 18.4566 5.40561 18.6455C5.84826 18.822 5.07616 18.5526 5.52529 18.6832C5.61507 18.7091 5.65048 18.6959 5.7695 18.7387C5.97438 18.587 6.02452 18.4422 6.31 18.3333C6.63791 18.5559 6.34166 18.4331 6.5453 18.6093L6.63297 18.669C6.64527 18.6778 6.66679 18.6868 6.6791 18.6956C6.8326 18.8063 6.73849 18.5855 6.84155 18.8389C7.17131 18.396 7.33434 18.6525 7.51368 18.7058C7.51641 18.7067 7.70286 19.0135 8.06304 18.4956L8.16826 18.6117C8.18365 18.6265 8.21192 18.65 8.22607 18.6639C8.24239 18.679 8.26792 18.704 8.29036 18.7227C8.29252 18.3635 8.43218 18.276 8.79453 18.2642C8.49493 18.717 8.37005 18.3541 8.68565 18.9984L8.78099 19.3019ZM12.412 21.8931H6.1931C5.04631 21.6536 4.36465 20.767 3.75192 20.047C3.14991 19.3402 2.35629 18.4066 3.10316 17.5882L6.31124 17.6184C7.7007 17.7152 8.12641 17.4835 9.21967 18.1656C10.0613 18.6905 10.2859 19.1861 10.9087 19.9206C11.2425 20.3142 12.1866 21.4427 12.412 21.8931Z" fill="#5B5A5F"/>
<path fill-rule="evenodd" clip-rule="evenodd" d="M16.5801 7.86893C16.6617 7.75282 16.6207 7.881 16.649 7.68977C16.6681 7.55974 16.6586 7.63274 16.6512 7.50275C16.5198 5.20022 16.7552 2.41297 16.6084 0.253448C16.2861 0.424778 14.7089 2.58097 14.4798 2.90556C13.9479 3.65877 13.7791 4.14716 14.4435 5.16796C14.6518 5.4877 14.8597 5.80714 15.1116 6.10456C15.3826 6.42404 16.2879 7.69159 16.5801 7.86893Z" fill="#5B5A5F"/>
<path fill-rule="evenodd" clip-rule="evenodd" d="M34.6653 21.8483C34.5739 21.563 34.1962 21.1684 34.0174 20.9624C33.8224 20.737 33.5459 20.3507 33.345 20.1045C32.2585 18.7745 31.9694 17.9157 30.8863 19.2221L29.5306 20.9241C29.2563 21.2628 29.0179 21.5057 28.8828 21.8882L34.6653 21.8483Z" fill="#5B5A5F"/>
<path fill-rule="evenodd" clip-rule="evenodd" d="M6.7585 14.5943C5.85751 13.2884 4.83718 15.2054 4.73752 15.3098C4.41945 15.6431 3.96326 16.1788 3.78516 16.615L8.29348 16.5984L6.7585 14.5943Z" fill="#5B5A5F"/>
<path fill-rule="evenodd" clip-rule="evenodd" d="M3.72527 21.893C3.71512 21.8616 3.70437 21.8547 3.67178 21.7895C3.64594 21.7373 3.59302 21.658 3.55457 21.6049C3.24571 21.1757 1.95931 19.4598 1.60432 19.4611C1.26041 19.4626 1.10783 19.8134 0.96725 20.0242C0.773487 20.315 0.627966 20.3735 0.423399 20.6263L-0.472656 21.893H3.72527Z" fill="#5B5A5F"/>
<path fill-rule="evenodd" clip-rule="evenodd" d="M17.6482 4.30041C18.037 4.1677 17.953 3.9677 18.4295 3.37552C18.7435 2.98521 19.3277 2.75382 18.8272 1.63079C18.7442 1.44407 17.8656 0.291157 17.6675 0.18919C17.5946 0.897471 17.6986 3.35684 17.6482 4.30041Z" fill="#5B5A5F"/>
<path fill-rule="evenodd" clip-rule="evenodd" d="M25.9639 14.8651C26.2494 14.8163 26.58 14.2307 26.7274 14.0096C27.0414 13.5388 27.9821 13.191 26.7559 11.7246C26.6295 11.5732 26.1574 10.8688 25.9676 10.835L25.9639 14.8651Z" fill="#5B5A5F"/>
<path fill-rule="evenodd" clip-rule="evenodd" d="M22.1641 9.79771C22.376 9.72562 23.0697 8.78902 23.2118 8.52748C23.3696 8.23698 23.3991 8.29972 23.5899 8.07196C23.8331 7.54288 22.3151 5.98512 22.2182 5.95918L22.1641 9.79771Z" fill="#5B5A5F"/>
<path fill-rule="evenodd" clip-rule="evenodd" d="M8.27957 14.7623L8.16019 10.9274L7.86982 11.2664C7.72892 11.4707 7.65727 11.5859 7.51915 11.756C6.50805 12.9994 6.58465 12.803 8.00334 14.5098C8.10728 14.6347 7.98764 14.5146 8.12082 14.638C8.26541 14.7719 8.08267 14.6286 8.27957 14.7623Z" fill="#5B5A5F"/>
<path fill-rule="evenodd" clip-rule="evenodd" d="M11.6973 6.33747L14.0766 6.35105C14.0514 6.28229 13.3365 5.27204 12.9348 5.22499C12.3964 5.16194 11.8071 6.08951 11.6973 6.33747Z" fill="#5B5A5F"/>
<path fill-rule="evenodd" clip-rule="evenodd" d="M27.2324 15.1002L29.4275 15.0981C29.3251 14.746 28.7696 13.966 28.326 13.9832C27.9021 13.9998 27.2856 14.693 27.2324 15.1002Z" fill="#5B5A5F"/>
<path d="M14.2561 21.3743L13.0989 20.9616L11.3104 18.4857L9.73242 15.9066V10.7483L11.3104 10.9546L12.9937 13.1211L15.4133 16.1129L16.255 18.7952L16.6758 21.3743H17.7278L17.9382 18.8983L18.2538 17.7635L18.5694 16.4224L21.0943 12.9148L24.4608 11.4705L24.1452 16.6287L22.1463 19.5173L20.6735 21.4775L20.463 21.8901H14.3613L14.2561 21.3743Z" fill="#5B5A5F"/>
<path d="M4.57732 18.073H8.8906L10.2582 19.6205V21.3743H5.94495L4.26172 19.6205L4.57732 18.073Z" fill="#5B5A5F"/>
<path d="M48.6774 9.07779L47.5922 10.0163V12.2973H44.9473V3.64865H47.5922V7.46214L48.5116 6.3632L50.8783 3.64865H54.149L50.4409 7.47399L54.149 12.2973H51.0137L48.6774 9.07779ZM63.9073 10.6816H60.2825L59.6493 12.2973H56.8231L60.8474 3.64865H63.3345L67.3888 12.2973H64.548L63.9073 10.6816ZM60.9153 9.07187H63.2741L62.0909 6.07213L60.9153 9.07187ZM80.2145 12.2973H77.5845L73.696 6.91563V12.2973H71.0506V3.64865H73.696L77.577 9.03031V3.64865H80.2145V12.2973ZM93.1305 5.25838H89.8374V12.2973H87.192V5.25838H83.9592V3.64865H93.1305V5.25838ZM101.186 9.24411H99.7539V12.2973H97.109V3.64865H101.427C102.728 3.64865 103.746 3.87632 104.479 4.33172C105.213 4.78711 105.58 5.43061 105.58 6.26223C105.58 6.86417 105.424 7.36311 105.112 7.75913C104.806 8.15511 104.323 8.47589 103.665 8.72138L105.956 12.2082V12.2973H103.123L101.186 9.24411ZM99.7539 7.63438H101.427C101.929 7.63438 102.306 7.53141 102.558 7.32549C102.814 7.11563 102.942 6.82456 102.942 6.45232C102.942 6.08008 102.814 5.78901 102.558 5.57916C102.301 5.36532 101.924 5.25838 101.427 5.25838H99.7539V7.63438ZM113.687 7.40272L115.707 3.64865H118.563L115.029 9.19066V12.2973H112.346V9.19066L108.819 3.64865H111.66L113.687 7.40272Z" fill="black"/>
</g>
<defs>
<clipPath id="clip0_284_27043">
<rect width="123" height="23" fill="white"/>
</clipPath>
</defs>
</svg>
