<svg width="128" height="19" viewBox="0 0 128 19" fill="none" xmlns="http://www.w3.org/2000/svg">
<path d="M28.1632 12.4525C27.259 12.4525 26.4452 12.2608 25.7218 11.8774C25.0067 11.4856 24.4435 10.9438 24.0326 10.252C23.6215 9.56017 23.416 8.77666 23.416 7.90145C23.416 7.02625 23.6215 6.24274 24.0326 5.55093C24.4435 4.85911 25.0067 4.32149 25.7218 3.93806C26.4452 3.54631 27.259 3.35043 28.1632 3.35043C28.9524 3.35043 29.6634 3.49212 30.2964 3.77552C30.9292 4.05893 31.4554 4.46734 31.8746 5.0008L30.321 6.42613C29.7621 5.74264 29.0839 5.40089 28.2865 5.40089C27.818 5.40089 27.3987 5.50508 27.0288 5.71345C26.6671 5.92186 26.3835 6.21776 26.178 6.60119C25.9808 6.97624 25.8821 7.40968 25.8821 7.90145C25.8821 8.39323 25.9808 8.83083 26.178 9.21426C26.3835 9.58936 26.6671 9.88109 27.0288 10.0895C27.3987 10.2979 27.818 10.4021 28.2865 10.4021C29.0839 10.4021 29.7621 10.0603 30.321 9.37683L31.8746 10.8021C31.4554 11.3356 30.9292 11.744 30.2964 12.0274C29.6634 12.3108 28.9524 12.4525 28.1632 12.4525ZM34.7282 5.48843H32.0772V3.52547H39.8083V5.48843H37.1696V12.2775H34.7282V5.48843ZM44.6637 3.52547C45.4445 3.52547 46.1227 3.65884 46.6982 3.92556C47.2734 4.18396 47.7173 4.55905 48.0299 5.05082C48.3422 5.53427 48.4984 6.1052 48.4984 6.76371C48.4984 7.42222 48.3422 7.99315 48.0299 8.4766C47.7173 8.96004 47.2734 9.33515 46.6982 9.60185C46.1227 9.86028 45.4445 9.98944 44.6637 9.98944H43.1594V12.2775H40.718V3.52547H44.6637ZM44.5158 8.03899C45.017 8.03899 45.3952 7.93065 45.6501 7.7139C45.9048 7.48888 46.0324 7.17217 46.0324 6.76371C46.0324 6.35525 45.9048 6.03854 45.6501 5.81347C45.3952 5.58845 45.017 5.47594 44.5158 5.47594H43.1594V8.03899H44.5158ZM54.1617 12.4525C53.2496 12.4525 52.4274 12.2566 51.6958 11.8648C50.9722 11.4731 50.4011 10.9313 49.9818 10.2395C49.5706 9.54768 49.3653 8.76833 49.3653 7.90145C49.3653 7.03463 49.5706 6.25523 49.9818 5.56342C50.4011 4.87162 50.9722 4.32981 51.6958 3.93806C52.4274 3.54631 53.2496 3.35043 54.1617 3.35043C55.0744 3.35043 55.892 3.54631 56.6156 3.93806C57.3472 4.32981 57.9183 4.87162 58.3294 5.56342C58.7484 6.25523 58.9585 7.03463 58.9585 7.90145C58.9585 8.76833 58.7484 9.54768 58.3294 10.2395C57.9183 10.9313 57.3472 11.4731 56.6156 11.8648C55.892 12.2566 55.0744 12.4525 54.1617 12.4525ZM54.1617 10.4021C54.5973 10.4021 54.9918 10.2979 55.3454 10.0895C55.699 9.88109 55.9785 9.58936 56.184 9.21426C56.3891 8.83083 56.4921 8.39323 56.4921 7.90145C56.4921 7.40968 56.3891 6.97624 56.184 6.60119C55.9785 6.21776 55.699 5.92186 55.3454 5.71345C54.9918 5.50508 54.5973 5.40089 54.1617 5.40089C53.7261 5.40089 53.3311 5.50508 52.978 5.71345C52.6245 5.92186 52.3449 6.21776 52.1394 6.60119C51.9339 6.97624 51.8314 7.40968 51.8314 7.90145C51.8314 8.39323 51.9339 8.83083 52.1394 9.21426C52.3449 9.58936 52.6245 9.88109 52.978 10.0895C53.3311 10.2979 53.7261 10.4021 54.1617 10.4021ZM60.2987 3.52547H62.703V8.66415L66.2666 3.52547H68.56V12.2775H66.1556V7.1513L62.6045 12.2775H60.2987V3.52547ZM64.4168 3.00035C63.5457 3.00035 62.9041 2.82946 62.4935 2.48773C62.0905 2.14599 61.8894 1.63754 61.8894 0.962383H63.5292C63.5372 1.25411 63.6112 1.47084 63.7512 1.61253C63.8907 1.75422 64.1128 1.82508 64.4168 1.82508C64.7209 1.82508 64.9469 1.75422 65.0949 1.61253C65.2429 1.47084 65.321 1.25411 65.3295 0.962383H66.9692C66.9692 1.63754 66.7637 2.14599 66.3526 2.48773C65.9416 2.82946 65.2965 3.00035 64.4168 3.00035ZM74.6549 12.4525C73.7508 12.4525 72.9371 12.2608 72.2135 11.8774C71.4984 11.4856 70.9353 10.9438 70.5243 10.252C70.1132 9.56017 69.9077 8.77666 69.9077 7.90145C69.9077 7.02625 70.1132 6.24274 70.5243 5.55093C70.9353 4.85911 71.4984 4.32149 72.2135 3.93806C72.9371 3.54631 73.7508 3.35043 74.6549 3.35043C75.444 3.35043 76.1551 3.49212 76.7877 3.77552C77.4213 4.05893 77.9469 4.46734 78.3665 5.0008L76.8128 6.42613C76.2537 5.74264 75.5756 5.40089 74.7779 5.40089C74.3094 5.40089 73.8903 5.50508 73.5202 5.71345C73.1587 5.92186 72.8751 6.21776 72.6696 6.60119C72.4726 6.97624 72.3736 7.40968 72.3736 7.90145C72.3736 8.39323 72.4726 8.83083 72.6696 9.21426C72.8751 9.58936 73.1587 9.88109 73.5202 10.0895C73.8903 10.2979 74.3094 10.4021 74.7779 10.4021C75.5756 10.4021 76.2537 10.0603 76.8128 9.37683L78.3665 10.8021C77.9469 11.3356 77.4213 11.744 76.7877 12.0274C76.1551 12.3108 75.444 12.4525 74.6549 12.4525ZM85.0935 10.5771H81.4435L80.7654 12.2775H78.275L82.0846 3.52547H84.4894L88.3115 12.2775H85.7717L85.0935 10.5771ZM84.3784 8.75168L83.2688 5.95101L82.1586 8.75168H84.3784ZM96.7964 12.2775L96.7719 7.63891L94.5525 11.4148H93.4674L91.26 7.76391V12.2775H89.0037V3.52547H91.0135L94.0469 8.57662L97.0059 3.52547H99.0157L99.0407 12.2775H96.7964ZM106.551 10.5771H102.901L102.223 12.2775H99.7323L103.542 3.52547H105.947L109.769 12.2775H107.229L106.551 10.5771ZM105.836 8.75168L104.726 5.95101L103.616 8.75168H105.836ZM114.407 3.52547C115.188 3.52547 115.866 3.65884 116.442 3.92556C117.017 4.18396 117.461 4.55905 117.774 5.05082C118.086 5.53427 118.242 6.1052 118.242 6.76371C118.242 7.42222 118.086 7.99315 117.774 8.4766C117.461 8.96004 117.017 9.33515 116.442 9.60185C115.866 9.86028 115.188 9.98944 114.407 9.98944H112.903V12.2775H110.462V3.52547H114.407ZM114.26 8.03899C114.761 8.03899 115.139 7.93065 115.394 7.7139C115.648 7.48888 115.776 7.17217 115.776 6.76371C115.776 6.35525 115.648 6.03854 115.394 5.81347C115.139 5.58845 114.761 5.47594 114.26 5.47594H112.903V8.03899H114.26ZM124.782 10.5771H121.132L120.454 12.2775H117.963L121.773 3.52547H124.178L128 12.2775H125.46L124.782 10.5771ZM124.067 8.75168L122.957 5.95101L121.847 8.75168H124.067Z" fill="black"/>
<path d="M18.9579 15.988L16.4919 18.7855H0L1.3717e-06 2.87566L2.4969 0L18.9579 1.4592e-06V15.988Z" fill="#DCA34C"/>
<path d="M4.93202 7.5325C4.93202 7.07966 5.01732 6.65485 5.1879 6.25807C5.35848 5.86124 5.58926 5.51528 5.88026 5.22025C6.1763 4.92006 6.51996 4.68351 6.91132 4.51053C7.30263 4.33756 7.7216 4.25107 8.16812 4.25107H16.5226L18.9115 0.984692V2.96952L16.5226 6.44121H8.16812C8.01764 6.44121 7.87712 6.46918 7.7467 6.52513C7.61623 6.58108 7.50081 6.65998 7.4005 6.76168C7.30518 6.8584 7.22992 6.97284 7.17471 7.10515C7.11955 7.23736 7.09195 7.37982 7.09195 7.5325C7.09195 7.68511 7.11955 7.83007 7.17471 7.96746C7.22992 8.09972 7.30518 8.21675 7.4005 8.31844C7.50081 8.41516 7.61623 8.49142 7.7467 8.54742C7.87712 8.60337 8.01764 8.63135 8.16812 8.63135H10.3281C10.7746 8.63135 11.1935 8.71781 11.5848 8.89079C11.9812 9.05869 12.3249 9.2927 12.6159 9.59286C12.9119 9.88795 13.1427 10.2364 13.3083 10.6384C13.4788 11.0351 13.5642 11.4599 13.5642 11.9128C13.5642 12.3655 13.4788 12.7903 13.3083 13.1871C13.1427 13.5839 12.9119 13.9324 12.6159 14.2326C12.3249 14.5277 11.9812 14.7617 11.5848 14.9347C11.1935 15.1076 10.7746 15.1942 10.3281 15.1942H0.0615234V13.004H10.3281C10.4786 13.004 10.619 12.976 10.7495 12.92C10.8799 12.8641 10.9928 12.7878 11.0882 12.6911C11.1885 12.5894 11.2663 12.4723 11.3215 12.3401C11.3767 12.2078 11.4043 12.0653 11.4043 11.9128C11.4043 11.7601 11.3767 11.6176 11.3215 11.4854C11.2663 11.3531 11.1885 11.2387 11.0882 11.142C10.9928 11.0403 10.8799 10.9614 10.7495 10.9054C10.619 10.8495 10.4786 10.8215 10.3281 10.8215H8.16812C7.7216 10.8215 7.30263 10.735 6.91132 10.562C6.51996 10.3891 6.1763 10.1551 5.88026 9.85997C5.58926 9.55981 5.35848 9.21131 5.1879 8.81448C5.01732 8.41257 4.93202 7.98523 4.93202 7.5325Z" fill="white"/>
<path d="M26.359 14.9117H25.3639V17.2624H25.0088V14.9117H24.0137V14.5918H26.359V14.9117ZM31.186 17.2878C30.9327 17.2878 30.7043 17.2303 30.5009 17.1152C30.2976 16.9967 30.1375 16.8342 30.0208 16.6277C29.9041 16.4213 29.8458 16.1877 29.8458 15.9271C29.8458 15.6665 29.9041 15.4329 30.0208 15.2264C30.1375 15.02 30.2976 14.8592 30.5009 14.7441C30.7043 14.629 30.9327 14.5715 31.186 14.5715C31.4394 14.5715 31.6678 14.629 31.8711 14.7441C32.0745 14.8592 32.2329 15.02 32.3462 15.2264C32.4629 15.4329 32.5212 15.6665 32.5212 15.9271C32.5212 16.1877 32.4629 16.4213 32.3462 16.6277C32.2329 16.8342 32.0745 16.9967 31.8711 17.1152C31.6678 17.2303 31.4394 17.2878 31.186 17.2878ZM31.186 16.9679C31.3727 16.9679 31.5394 16.9256 31.6861 16.841C31.8361 16.753 31.9528 16.6294 32.0361 16.4704C32.1195 16.3113 32.1611 16.1302 32.1611 15.9271C32.1611 15.724 32.1195 15.5429 32.0361 15.3838C31.9528 15.2248 31.8361 15.1029 31.6861 15.0183C31.5394 14.9303 31.3727 14.8863 31.186 14.8863C30.9993 14.8863 30.8309 14.9303 30.6809 15.0183C30.5342 15.1029 30.4176 15.2248 30.3309 15.3838C30.2475 15.5429 30.2058 15.724 30.2058 15.9271C30.2058 16.1302 30.2475 16.3113 30.3309 16.4704C30.4176 16.6294 30.5342 16.753 30.6809 16.841C30.8309 16.9256 30.9993 16.9679 31.186 16.9679ZM37.9858 14.5715C38.2325 14.5715 38.4558 14.629 38.6559 14.7441C38.8559 14.8558 39.0126 15.0149 39.1259 15.2214C39.2393 15.4279 39.296 15.6631 39.296 15.9271C39.296 16.1945 39.2393 16.4314 39.1259 16.6379C39.0126 16.8444 38.8559 17.0051 38.6559 17.1202C38.4592 17.2319 38.2358 17.2878 37.9858 17.2878C37.7724 17.2878 37.579 17.2438 37.4057 17.1558C37.2356 17.0644 37.0956 16.9324 36.9856 16.7598V18.2474H36.6305V14.5918H36.9706V15.1198C37.0773 14.9438 37.2173 14.8084 37.3907 14.7137C37.5674 14.6189 37.7657 14.5715 37.9858 14.5715ZM37.9607 16.9679C38.1441 16.9679 38.3108 16.9256 38.4608 16.841C38.6108 16.753 38.7276 16.6294 38.8109 16.4704C38.8976 16.3113 38.9409 16.1302 38.9409 15.9271C38.9409 15.724 38.8976 15.5446 38.8109 15.3889C38.7276 15.2298 38.6108 15.1063 38.4608 15.0183C38.3108 14.9303 38.1441 14.8863 37.9607 14.8863C37.7741 14.8863 37.6057 14.9303 37.4557 15.0183C37.309 15.1063 37.1923 15.2298 37.1056 15.3889C37.0223 15.5446 36.9806 15.724 36.9806 15.9271C36.9806 16.1302 37.0223 16.3113 37.1056 16.4704C37.1923 16.6294 37.309 16.753 37.4557 16.841C37.6057 16.9256 37.7741 16.9679 37.9607 16.9679ZM45.2696 14.9117H43.7644V17.2624H43.4093V14.5918H45.2696V14.9117ZM50.0962 17.2878C49.843 17.2878 49.6146 17.2303 49.4113 17.1152C49.2079 16.9967 49.0479 16.8342 48.9312 16.6277C48.8145 16.4213 48.7562 16.1877 48.7562 15.9271C48.7562 15.6665 48.8145 15.4329 48.9312 15.2264C49.0479 15.02 49.2079 14.8592 49.4113 14.7441C49.6146 14.629 49.843 14.5715 50.0962 14.5715C50.3498 14.5715 50.5783 14.629 50.7813 14.7441C50.9849 14.8592 51.1434 15.02 51.2564 15.2264C51.3734 15.4329 51.4315 15.6665 51.4315 15.9271C51.4315 16.1877 51.3734 16.4213 51.2564 16.6277C51.1434 16.8342 50.9849 16.9967 50.7813 17.1152C50.5783 17.2303 50.3498 17.2878 50.0962 17.2878ZM50.0962 16.9679C50.2833 16.9679 50.4498 16.9256 50.5963 16.841C50.7463 16.753 50.8634 16.6294 50.9464 16.4704C51.0299 16.3113 51.0714 16.1302 51.0714 15.9271C51.0714 15.724 51.0299 15.5429 50.9464 15.3838C50.8634 15.2248 50.7463 15.1029 50.5963 15.0183C50.4498 14.9303 50.2833 14.8863 50.0962 14.8863C49.9097 14.8863 49.7413 14.9303 49.5913 15.0183C49.4446 15.1029 49.3279 15.2248 49.2413 15.3838C49.1579 15.5429 49.1162 15.724 49.1162 15.9271C49.1162 16.1302 49.1579 16.3113 49.2413 16.4704C49.3279 16.6294 49.4446 16.753 49.5913 16.841C49.7413 16.9256 49.9097 16.9679 50.0962 16.9679ZM57.2164 15.8814C57.5729 15.966 57.7514 16.1844 57.7514 16.5364C57.7514 16.7699 57.6664 16.9493 57.4964 17.0745C57.3264 17.1998 57.0728 17.2624 56.7363 17.2624H55.5411V14.5918H56.7013C57.0013 14.5918 57.2364 14.6511 57.4064 14.7695C57.5764 14.888 57.6614 15.0572 57.6614 15.2772C57.6614 15.4228 57.6214 15.548 57.5414 15.6529C57.4644 15.7545 57.3564 15.8306 57.2164 15.8814ZM55.8861 15.7799H56.6763C56.8793 15.7799 57.0343 15.7409 57.1413 15.6631C57.2514 15.5853 57.3064 15.4718 57.3064 15.3229C57.3064 15.174 57.2514 15.0623 57.1413 14.9878C57.0343 14.9133 56.8793 14.8761 56.6763 14.8761H55.8861V15.7799ZM56.7213 16.9781C56.9478 16.9781 57.1178 16.9409 57.2314 16.8664C57.3444 16.7919 57.4014 16.6751 57.4014 16.516C57.4014 16.357 57.3494 16.2402 57.2464 16.1657C57.1428 16.0879 56.9793 16.0489 56.7563 16.0489H55.8861V16.9781H56.7213ZM62.8392 14.5715C63.1823 14.5715 63.4458 14.6595 63.6294 14.8355C63.8124 15.0081 63.9044 15.2654 63.9044 15.6072V17.2624H63.5644V16.8461C63.4843 16.9848 63.3658 17.0932 63.2093 17.171C63.0558 17.2488 62.8722 17.2878 62.6592 17.2878C62.3657 17.2878 62.1321 17.2167 61.9591 17.0745C61.7856 16.9324 61.6991 16.7445 61.6991 16.511C61.6991 16.2842 61.7791 16.1014 61.9391 15.9626C62.1021 15.8239 62.3607 15.7545 62.7142 15.7545H63.5493V15.592C63.5493 15.3619 63.4858 15.1875 63.3593 15.0691C63.2323 14.9472 63.0473 14.8863 62.8042 14.8863C62.6372 14.8863 62.4772 14.9151 62.3242 14.9726C62.1706 15.0268 62.0391 15.1029 61.9291 15.2011L61.7691 14.932C61.9021 14.8169 62.0621 14.7289 62.2491 14.668C62.4357 14.6036 62.6322 14.5715 62.8392 14.5715ZM62.7142 17.0035C62.9142 17.0035 63.0858 16.9578 63.2293 16.8664C63.3723 16.7716 63.4793 16.6362 63.5493 16.4602V16.0236H62.7242C62.2741 16.0236 62.0491 16.1826 62.0491 16.5008C62.0491 16.6565 62.1071 16.7801 62.2241 16.8714C62.3407 16.9594 62.5042 17.0035 62.7142 17.0035ZM70.2204 14.5918V17.2624H69.8953V16.379H69.0702H68.9702L68.3601 17.2624H67.975L68.6301 16.3282C68.4266 16.2707 68.2701 16.1725 68.1601 16.0337C68.05 15.895 67.995 15.7189 67.995 15.5057C67.995 15.2078 68.0951 14.9811 68.2951 14.8253C68.4951 14.6696 68.7682 14.5918 69.1152 14.5918H70.2204ZM68.3551 15.5158C68.3551 15.9119 68.6031 16.1099 69.1002 16.1099H69.8953V14.9117H69.1252C68.6116 14.9117 68.3551 15.1131 68.3551 15.5158ZM80.1974 16.0743H79.5973V17.2624H79.2423V14.5918H79.5973V15.7646H80.2024L81.1276 14.5918H81.5126L80.4775 15.8865L81.5877 17.2624H81.1676L80.1974 16.0743ZM86.4909 17.2878C86.2379 17.2878 86.0094 17.2303 85.8058 17.1152C85.6028 16.9967 85.4428 16.8342 85.3257 16.6277C85.2092 16.4213 85.1507 16.1877 85.1507 15.9271C85.1507 15.6665 85.2092 15.4329 85.3257 15.2264C85.4428 15.02 85.6028 14.8592 85.8058 14.7441C86.0094 14.629 86.2379 14.5715 86.4909 14.5715C86.7445 14.5715 86.973 14.629 87.176 14.7441C87.3796 14.8592 87.5381 15.02 87.6511 15.2264C87.7681 15.4329 87.8261 15.6665 87.8261 15.9271C87.8261 16.1877 87.7681 16.4213 87.6511 16.6277C87.5381 16.8342 87.3796 16.9967 87.176 17.1152C86.973 17.2303 86.7445 17.2878 86.4909 17.2878ZM86.4909 16.9679C86.678 16.9679 86.8445 16.9256 86.991 16.841C87.141 16.753 87.258 16.6294 87.3411 16.4704C87.4246 16.3113 87.4661 16.1302 87.4661 15.9271C87.4661 15.724 87.4246 15.5429 87.3411 15.3838C87.258 15.2248 87.141 15.1029 86.991 15.0183C86.8445 14.9303 86.678 14.8863 86.4909 14.8863C86.3044 14.8863 86.1359 14.9303 85.9859 15.0183C85.8393 15.1029 85.7228 15.2248 85.6358 15.3838C85.5528 15.5429 85.5108 15.724 85.5108 15.9271C85.5108 16.1302 85.5528 16.3113 85.6358 16.4704C85.7228 16.6294 85.8393 16.753 85.9859 16.841C86.1359 16.9256 86.3044 16.9679 86.4909 16.9679ZM94.8762 14.5918V17.2624H94.5512V15.1503L93.486 16.9375H93.326L92.2608 15.1452V17.2624H91.9358V14.5918H92.2958L93.411 16.516L94.5462 14.5918H94.8762ZM101.597 14.5918V17.2624H101.242V14.9117H99.592V17.2624H99.2369V14.5918H101.597ZM106.862 14.5715C107.206 14.5715 107.469 14.6595 107.652 14.8355C107.836 15.0081 107.927 15.2654 107.927 15.6072V17.2624H107.587V16.8461C107.507 16.9848 107.389 17.0932 107.232 17.171C107.079 17.2488 106.896 17.2878 106.682 17.2878C106.389 17.2878 106.155 17.2167 105.982 17.0745C105.809 16.9324 105.722 16.7445 105.722 16.511C105.722 16.2842 105.802 16.1014 105.962 15.9626C106.125 15.8239 106.384 15.7545 106.737 15.7545H107.572V15.592C107.572 15.3619 107.509 15.1875 107.382 15.0691C107.256 14.9472 107.071 14.8863 106.827 14.8863C106.661 14.8863 106.501 14.9151 106.347 14.9726C106.194 15.0268 106.062 15.1029 105.952 15.2011L105.792 14.932C105.925 14.8169 106.085 14.7289 106.272 14.668C106.459 14.6036 106.656 14.5715 106.862 14.5715ZM106.737 17.0035C106.937 17.0035 107.109 16.9578 107.252 16.8664C107.396 16.7716 107.502 16.6362 107.572 16.4602V16.0236H106.747C106.297 16.0236 106.072 16.1826 106.072 16.5008C106.072 16.6565 106.13 16.7801 106.247 16.8714C106.364 16.9594 106.527 17.0035 106.737 17.0035ZM112.223 14.5918H112.578V15.7748H114.234V14.5918H114.589V17.2624H114.234V16.0845H112.578V17.2624H112.223V14.5918ZM118.948 14.5918H119.304V16.7141L121.059 14.5918H121.374V17.2624H121.019V15.1401L119.269 17.2624H118.948V14.5918ZM127.762 14.5918V17.2624H127.437V16.379H126.612H126.512L125.902 17.2624H125.517L126.172 16.3282C125.969 16.2707 125.812 16.1725 125.702 16.0337C125.592 15.895 125.537 15.7189 125.537 15.5057C125.537 15.2078 125.637 14.9811 125.837 14.8253C126.037 14.6696 126.31 14.5918 126.657 14.5918H127.762ZM125.897 15.5158C125.897 15.9119 126.145 16.1099 126.642 16.1099H127.437V14.9117H126.667C126.154 14.9117 125.897 15.1131 125.897 15.5158Z" fill="black"/>
</svg>
