<svg width="78" height="27" viewBox="0 0 78 27" fill="none" xmlns="http://www.w3.org/2000/svg">
<path d="M41.8666 17.0702C43.3931 17.0702 44.6306 15.9072 44.6306 14.4726C44.6306 13.038 43.3931 11.875 41.8666 11.875C40.34 11.875 39.1025 13.038 39.1025 14.4726C39.1025 15.9072 40.34 17.0702 41.8666 17.0702Z" fill="#DCA34C"/>
<path d="M41.8666 11.1327C43.3931 11.1327 44.6306 9.96973 44.6306 8.53511C44.6306 7.10049 43.3931 5.9375 41.8666 5.9375C40.34 5.9375 39.1025 7.10049 39.1025 8.53511C39.1025 9.96973 40.34 11.1327 41.8666 11.1327Z" fill="#DCA34C"/>
<path d="M41.8666 5.19522C43.3931 5.19522 44.6306 4.03223 44.6306 2.59761C44.6306 1.16299 43.3931 0 41.8666 0C40.34 0 39.1025 1.16299 39.1025 2.59761C39.1025 4.03223 40.34 5.19522 41.8666 5.19522Z" fill="#DCA34C"/>
<path d="M48.0863 17.0702C49.6128 17.0702 50.8503 15.9072 50.8503 14.4726C50.8503 13.038 49.6128 11.875 48.0863 11.875C46.5598 11.875 45.3223 13.038 45.3223 14.4726C45.3223 15.9072 46.5598 17.0702 48.0863 17.0702Z" fill="#DCA34C"/>
<path d="M48.0863 11.1327C49.6128 11.1327 50.8503 9.96973 50.8503 8.53511C50.8503 7.10049 49.6128 5.9375 48.0863 5.9375C46.5598 5.9375 45.3223 7.10049 45.3223 8.53511C45.3223 9.96973 46.5598 11.1327 48.0863 11.1327Z" fill="#DCA34C"/>
<path d="M48.0863 5.19522C49.6128 5.19522 50.8503 4.03223 50.8503 2.59761C50.8503 1.16299 49.6128 0 48.0863 0C46.5598 0 45.3223 1.16299 45.3223 2.59761C45.3223 4.03223 46.5598 5.19522 48.0863 5.19522Z" fill="#DCA34C"/>
<path d="M54.3041 17.0702C55.8306 17.0702 57.0681 15.9072 57.0681 14.4726C57.0681 13.038 55.8306 11.875 54.3041 11.875C52.7775 11.875 51.54 13.038 51.54 14.4726C51.54 15.9072 52.7775 17.0702 54.3041 17.0702Z" fill="#DCA34C"/>
<path d="M54.3041 11.1327C55.8306 11.1327 57.0681 9.96973 57.0681 8.53511C57.0681 7.10049 55.8306 5.9375 54.3041 5.9375C52.7775 5.9375 51.54 7.10049 51.54 8.53511C51.54 9.96973 52.7775 11.1327 54.3041 11.1327Z" fill="#DCA34C"/>
<path d="M54.3041 5.19522C55.8306 5.19522 57.0681 4.03223 57.0681 2.59761C57.0681 1.16299 55.8306 0 54.3041 0C52.7775 0 51.54 1.16299 51.54 2.59761C51.54 4.03223 52.7775 5.19522 54.3041 5.19522Z" fill="#DCA34C"/>
<path d="M24.5414 14.8437H19.5508V16.8229H24.5414V14.8437Z" fill="#DCA34C"/>
<path d="M24.5414 11.875H19.5508V13.8541H24.5414V11.875Z" fill="#DCA34C"/>
<path d="M24.5414 8.90624H19.5508V10.8854H24.5414V8.90624Z" fill="#DCA34C"/>
<path d="M24.5414 5.9375H19.5508V7.91663H24.5414V5.9375Z" fill="#DCA34C"/>
<path d="M24.5414 2.96875H19.5508V4.94788H24.5414V2.96875Z" fill="#DCA34C"/>
<path d="M24.5414 0H19.5508V1.97913H24.5414V0Z" fill="#DCA34C"/>
<path d="M30.5316 14.8437H25.541V16.8229H30.5316V14.8437Z" fill="#DCA34C"/>
<path d="M30.5316 11.875H25.541V13.8541H30.5316V11.875Z" fill="#DCA34C"/>
<path d="M30.5316 8.90624H25.541V10.8854H30.5316V8.90624Z" fill="#DCA34C"/>
<path d="M30.5316 5.9375H25.541V7.91663H30.5316V5.9375Z" fill="#DCA34C"/>
<path d="M30.5316 2.96875H25.541V4.94788H30.5316V2.96875Z" fill="#DCA34C"/>
<path d="M30.5316 0H25.541V1.97913H30.5316V0Z" fill="#DCA34C"/>
<path d="M36.5199 14.8437H31.5293V16.8229H36.5199V14.8437Z" fill="#DCA34C"/>
<path d="M36.5199 11.875H31.5293V13.8541H36.5199V11.875Z" fill="#DCA34C"/>
<path d="M36.5199 8.90624H31.5293V10.8854H36.5199V8.90624Z" fill="#DCA34C"/>
<path d="M36.5199 5.9375H31.5293V7.91663H36.5199V5.9375Z" fill="#DCA34C"/>
<path d="M36.5199 2.96875H31.5293V4.94788H36.5199V2.96875Z" fill="#DCA34C"/>
<path d="M36.5199 0H31.5293V1.97913H36.5199V0Z" fill="#DCA34C"/>
<path d="M3.99248 11.875L7.98495 16.8228H0L3.99248 11.875Z" fill="#DCA34C"/>
<path d="M12.9759 11.875L16.9683 16.8228H8.9834L12.9759 11.875Z" fill="#DCA34C"/>
<path d="M3.99248 7.91641L7.98495 12.8643H0L3.99248 7.91641Z" fill="#DCA34C"/>
<path d="M12.9759 7.91641L16.9683 12.8643H8.9834L12.9759 7.91641Z" fill="#DCA34C"/>
<path d="M3.99248 3.95858L7.98495 8.90643H0L3.99248 3.95858Z" fill="#DCA34C"/>
<path d="M12.9759 3.95858L16.9683 8.90643H8.9834L12.9759 3.95858Z" fill="#DCA34C"/>
<path d="M3.99248 0L7.98495 4.94781H0L3.99248 0Z" fill="#DCA34C"/>
<path d="M12.9759 0L16.9683 4.94781H8.9834L12.9759 0Z" fill="#DCA34C"/>
<path d="M77.5628 14.8437H59.5967V16.8229H77.5628V14.8437Z" fill="#DCA34C"/>
<path d="M77.5628 11.875H59.5967V13.8541H77.5628V11.875Z" fill="#DCA34C"/>
<path d="M77.5628 8.90624H59.5967V10.8854H77.5628V8.90624Z" fill="#DCA34C"/>
<path d="M77.5628 5.9375H59.5967V7.91663H77.5628V5.9375Z" fill="#DCA34C"/>
<path d="M77.5628 2.96875H59.5967V4.94788H77.5628V2.96875Z" fill="#DCA34C"/>
<path d="M77.5628 0H59.5967V1.97913H77.5628V0Z" fill="#DCA34C"/>
<path d="M0.534993 26.1812L1.51326 22.5155C1.77515 21.5252 2.62633 21.0288 4.06677 21.0263H5.99247C6.08235 21.0263 6.15812 21.0632 6.21973 21.137C6.28393 21.2108 6.316 21.2948 6.316 21.389V26.143C6.316 26.2422 6.28134 26.3275 6.21202 26.3988C6.14528 26.4676 6.0618 26.5019 5.96167 26.5019H5.22605C5.12592 26.5019 5.0399 26.4676 4.96799 26.3988C4.89866 26.3275 4.864 26.2422 4.864 26.143V22.1069H3.92426C3.67777 22.1069 3.46208 22.1769 3.2772 22.3169C3.09491 22.4544 2.97168 22.6402 2.90749 22.8744L2.0255 26.143C1.99982 26.2474 1.94207 26.3339 1.85219 26.4026C1.76231 26.4688 1.66732 26.5019 1.56718 26.5019H0.785337C0.695469 26.5019 0.628708 26.4739 0.585058 26.4179C0.543976 26.3619 0.523438 26.3148 0.523438 26.2766C0.526005 26.2385 0.529857 26.2066 0.534993 26.1812ZM7.81577 26.1353V21.3814C7.81577 21.2821 7.85171 21.1981 7.92362 21.1294C7.99548 21.0607 8.0815 21.0263 8.18163 21.0263H12.6224C12.7225 21.0263 12.8072 21.0619 12.8766 21.1332C12.9485 21.2045 12.9844 21.2897 12.9844 21.389V21.748C12.9844 21.8472 12.9485 21.9325 12.8766 22.0038C12.8072 22.0725 12.7225 22.1069 12.6224 22.1069H9.26773V23.2181H12.1563C12.2565 23.2181 12.3412 23.2537 12.4105 23.325C12.4824 23.3937 12.5184 23.4777 12.5184 23.577V23.936C12.5184 24.0352 12.4824 24.1205 12.4105 24.1918C12.3412 24.2605 12.2565 24.2949 12.1563 24.2949H9.26773V25.4213H12.6146C12.7122 25.4213 12.7957 25.4557 12.865 25.5244C12.9343 25.5931 12.969 25.6772 12.969 25.7764V26.143C12.969 26.2422 12.933 26.3275 12.8611 26.3988C12.7893 26.4676 12.7032 26.5019 12.6031 26.5019H8.18163C8.0815 26.5019 7.99548 26.4676 7.92362 26.3988C7.85171 26.3275 7.81577 26.2397 7.81577 26.1353ZM14.4842 25.8566C14.0092 25.406 13.7716 24.7098 13.7716 23.7679C13.7716 22.8235 14.0092 22.126 14.4842 21.6754C14.9617 21.2223 15.6768 20.9957 16.6294 20.9957H17.4883C18.0711 20.9957 18.5859 21.1459 19.0327 21.4463C19.482 21.7467 19.7067 22.1578 19.7067 22.6796C19.7067 22.8299 19.6618 22.9381 19.5719 23.0042C19.482 23.0679 19.3947 23.0997 19.31 23.0997H18.8517C18.6155 23.0997 18.4319 22.9597 18.3009 22.6796C18.1109 22.2775 17.7951 22.0764 17.3535 22.0764H16.6679C16.1056 22.0764 15.7243 22.196 15.524 22.4353C15.3238 22.6746 15.2236 23.1175 15.2236 23.7641C15.2236 24.4107 15.3238 24.8549 15.524 25.0967C15.7243 25.336 16.1056 25.4557 16.6679 25.4557H17.4344C17.876 25.4557 18.1905 25.2546 18.378 24.8523C18.5089 24.5698 18.6938 24.4285 18.9326 24.4285H19.3909C19.5116 24.4285 19.6066 24.4731 19.6759 24.5622C19.7478 24.6512 19.7837 24.748 19.7837 24.8523C19.7837 25.3742 19.5603 25.7853 19.1136 26.0857C18.6668 26.3835 18.152 26.5325 17.5692 26.5325H16.6294C15.6768 26.5325 14.9617 26.3072 14.4842 25.8566ZM20.9292 26.1353V21.3967C20.9292 21.2923 20.9638 21.2045 21.0332 21.1332C21.1025 21.0619 21.1872 21.0263 21.2874 21.0263H22.8549C22.955 21.0263 23.05 21.0619 23.1399 21.1332C23.2298 21.2045 23.2901 21.2897 23.3209 21.389L24.4571 24.65L25.5932 21.389C25.624 21.2897 25.6844 21.2045 25.7743 21.1332C25.8641 21.0619 25.9591 21.0263 26.0593 21.0263H27.6268C27.727 21.0263 27.8104 21.0619 27.8771 21.1332C27.9465 21.2045 27.9811 21.2923 27.9811 21.3967V26.1353C27.9811 26.2397 27.9452 26.3275 27.8733 26.3988C27.804 26.4676 27.7193 26.5019 27.6191 26.5019H26.9258C26.8257 26.5019 26.7397 26.4676 26.6678 26.3988C26.5985 26.3275 26.5638 26.2397 26.5638 26.1353V22.4047L25.2042 26.1583C25.1683 26.2525 25.1054 26.3339 25.0156 26.4026C24.9257 26.4688 24.8307 26.5019 24.7305 26.5019H24.1798C24.0796 26.5019 23.9846 26.4688 23.8947 26.4026C23.8075 26.3339 23.7446 26.2525 23.7061 26.1583L22.3503 22.4047V26.1353C22.3503 26.2397 22.3144 26.3275 22.2425 26.3988C22.1732 26.4676 22.0884 26.5019 21.9883 26.5019H21.295C21.1949 26.5019 21.1089 26.4676 21.037 26.3988C20.9651 26.3275 20.9292 26.2397 20.9292 26.1353ZM29.0264 26.1506L29.9931 22.5155C30.255 21.5252 31.1075 21.0288 32.5505 21.0263H34.6264C34.7214 21.0263 34.7997 21.0619 34.8614 21.1332C34.9256 21.2045 34.9577 21.2872 34.9577 21.3814V26.1506C34.9577 26.2499 34.9217 26.3339 34.8498 26.4026C34.7779 26.4688 34.6919 26.5019 34.5918 26.5019H33.8677C33.7624 26.5019 33.6751 26.4688 33.6058 26.4026C33.539 26.3339 33.5057 26.2474 33.5057 26.143V25.1807H30.7673L30.5092 26.143C30.4836 26.2474 30.4258 26.3339 30.3359 26.4026C30.2461 26.4688 30.151 26.5019 30.0509 26.5019H29.2922C29.192 26.5019 29.1202 26.4739 29.0765 26.4179C29.0328 26.3594 29.011 26.3085 29.011 26.2652C29.0136 26.2219 29.0187 26.1837 29.0264 26.1506ZM31.0523 24.1001H33.5057V22.1069H32.408C32.1615 22.1069 31.9458 22.1769 31.7609 22.3169C31.5786 22.4544 31.4554 22.6402 31.3912 22.8744L31.0523 24.1001ZM36.4535 26.143V21.389C36.4535 21.2897 36.4882 21.2045 36.5575 21.1332C36.6269 21.0619 36.7116 21.0263 36.8117 21.0263H39.7504C41.3039 21.0263 42.0804 21.7365 42.0804 23.157C42.0804 24.5749 41.3039 25.2838 39.7504 25.2838H37.9055V26.143C37.9055 26.2422 37.8696 26.3275 37.7977 26.3988C37.7284 26.4676 37.6436 26.5019 37.5435 26.5019H36.8194C36.7193 26.5019 36.6333 26.4676 36.5614 26.3988C36.4895 26.3275 36.4535 26.2422 36.4535 26.143ZM37.9055 24.2032H39.3113C39.7427 24.2032 40.0701 24.1319 40.2934 23.9894C40.5168 23.8443 40.6285 23.5668 40.6285 23.157C40.6285 22.7446 40.5168 22.4671 40.2934 22.3246C40.0701 22.1795 39.7427 22.1069 39.3113 22.1069H37.9055V24.2032ZM48.9028 26.3339C48.9028 26.4459 48.8362 26.5019 48.7026 26.5019H47.8209C47.7205 26.5019 47.6127 26.4676 47.4971 26.3988C47.3818 26.3275 47.292 26.2422 47.2276 26.143L46.5496 25.0777C46.3879 24.818 46.2249 24.6233 46.0606 24.4934C45.8963 24.3611 45.6986 24.2949 45.4673 24.2949H44.6395V26.1506C44.6395 26.2499 44.6036 26.3339 44.5317 26.4026C44.4625 26.4688 44.3774 26.5019 44.2775 26.5019H43.5532C43.4533 26.5019 43.3669 26.4663 43.2951 26.395C43.2232 26.3212 43.1873 26.2346 43.1873 26.1353V21.389C43.1873 21.2897 43.2232 21.2032 43.2951 21.1294C43.3669 21.0556 43.4533 21.0186 43.5532 21.0186H44.2775C44.3774 21.0186 44.4625 21.0556 44.5317 21.1294C44.6036 21.2032 44.6395 21.2897 44.6395 21.389V23.2181H45.4673C45.6934 23.2181 45.891 23.157 46.0606 23.0348C46.2328 22.9126 46.3958 22.7153 46.5496 22.4429L47.1465 21.389C47.2828 21.1446 47.4677 21.0212 47.7013 21.0186H48.5908C48.7144 21.0186 48.7757 21.0721 48.7757 21.179C48.7757 21.2376 48.7538 21.3076 48.7105 21.389L47.8748 22.8897C47.7538 23.1086 47.618 23.2894 47.4664 23.4319C47.3174 23.5744 47.1224 23.675 46.8809 23.7335C47.0505 23.7692 47.2236 23.8748 47.4011 24.0505C47.5808 24.2261 47.7385 24.4171 47.8748 24.6233L48.8375 26.143C48.8809 26.2168 48.9028 26.2804 48.9028 26.3339ZM49.852 26.1353V21.3814C49.852 21.2821 49.8879 21.1981 49.9598 21.1294C50.0317 21.0607 50.1175 21.0263 50.2179 21.0263H54.6587C54.7586 21.0263 54.8436 21.0619 54.9129 21.1332C54.9847 21.2045 55.0207 21.2897 55.0207 21.389V21.748C55.0207 21.8472 54.9847 21.9325 54.9129 22.0038C54.8436 22.0725 54.7586 22.1069 54.6587 22.1069H51.3038V23.2181H54.1924C54.2928 23.2181 54.3774 23.2537 54.4466 23.325C54.5185 23.3937 54.5544 23.4777 54.5544 23.577V23.936C54.5544 24.0352 54.5185 24.1205 54.4466 24.1918C54.3774 24.2605 54.2928 24.2949 54.1924 24.2949H51.3038V25.4213H54.6508C54.7485 25.4213 54.8318 25.4557 54.901 25.5244C54.9707 25.5931 55.0053 25.6772 55.0053 25.7764V26.143C55.0053 26.2422 54.9694 26.3275 54.8975 26.3988C54.8257 26.4676 54.7393 26.5019 54.6394 26.5019H50.2179C50.1175 26.5019 50.0317 26.4676 49.9598 26.3988C49.8879 26.3275 49.852 26.2397 49.852 26.1353ZM55.6499 21.748V21.389C55.6499 21.2847 55.6845 21.1981 55.7538 21.1294C55.823 21.0607 55.9107 21.0263 56.0158 21.0263H60.9032C61.0083 21.0263 61.096 21.0607 61.1652 21.1294C61.2345 21.1981 61.2691 21.2847 61.2691 21.389V21.748C61.2691 21.8524 61.2345 21.9389 61.1652 22.0076C61.096 22.0738 61.0083 22.1069 60.9032 22.1069H59.1854V26.1506C59.1854 26.2499 59.1495 26.3339 59.0776 26.4026C59.0084 26.4688 58.9238 26.5019 58.8234 26.5019H58.0956C57.9957 26.5019 57.9093 26.4688 57.8375 26.4026C57.7682 26.3339 57.7336 26.2499 57.7336 26.1506V22.1069H56.0158C55.9107 22.1069 55.823 22.0738 55.7538 22.0076C55.6845 21.9389 55.6499 21.8524 55.6499 21.748ZM62.6687 25.2647C63.0153 25.2647 63.1889 25.4379 63.1889 25.7841V26.0246C63.1889 26.185 63.1437 26.311 63.0539 26.4026C62.9667 26.4943 62.8383 26.5401 62.6687 26.5401H62.195C62.0254 26.5401 61.8957 26.4943 61.8059 26.4026C61.7187 26.311 61.6753 26.185 61.6753 26.0246V25.7841C61.6753 25.616 61.72 25.4875 61.8098 25.3984C61.8997 25.3093 62.0281 25.2647 62.195 25.2647H62.6687ZM64.4535 26.143V21.389C64.4535 21.2897 64.4882 21.2045 64.5574 21.1332C64.6271 21.0619 64.7116 21.0263 64.8116 21.0263H67.7502C69.3036 21.0263 70.0806 21.7365 70.0806 23.157C70.0806 24.5749 69.3036 25.2838 67.7502 25.2838H65.9053V26.143C65.9053 26.2422 65.8694 26.3275 65.7975 26.3988C65.7283 26.4676 65.6437 26.5019 65.5434 26.5019H64.8194C64.7191 26.5019 64.6332 26.4676 64.5613 26.3988C64.4895 26.3275 64.4535 26.2422 64.4535 26.143ZM65.9053 24.2032H67.3111C67.7427 24.2032 68.0701 24.1319 68.2936 23.9894C68.5166 23.8443 68.6283 23.5668 68.6283 23.157C68.6283 22.7446 68.5166 22.4671 68.2936 22.3246C68.0701 22.1795 67.7427 22.1069 67.3111 22.1069H65.9053V24.2032ZM73.6638 21.5189V21.1446C73.6638 21.0454 73.6997 20.9614 73.7716 20.8927C73.8435 20.8214 73.932 20.7857 74.0376 20.7857H74.7462C74.8513 20.7857 74.9386 20.8214 75.0082 20.8927C75.0801 20.9614 75.116 21.0454 75.116 21.1446V21.5189C75.9942 21.5189 76.6923 21.6983 77.2111 22.0572C77.7295 22.4136 77.9889 22.9826 77.9889 23.7641C77.9889 24.5456 77.7295 25.1158 77.2111 25.4747C76.6923 25.8312 75.9942 26.0093 75.116 26.0093V26.3835C75.116 26.4828 75.0788 26.5668 75.0043 26.6356C74.9324 26.7069 74.8461 26.7425 74.7462 26.7425H74.0376C73.9372 26.7425 73.85 26.7069 73.7756 26.6356C73.7011 26.5668 73.6638 26.4828 73.6638 26.3835V26.0093C72.7856 26.0093 72.0876 25.8312 71.5687 25.4747C71.0525 25.1158 70.7944 24.5456 70.7944 23.7641C70.7944 22.9826 71.0525 22.4136 71.5687 22.0572C72.0876 21.6983 72.7856 21.5189 73.6638 21.5189ZM73.7063 24.9784V22.5537C73.2545 22.5537 72.8974 22.6542 72.6353 22.8553C72.3764 23.0539 72.2466 23.3568 72.2466 23.7641C72.2466 24.1714 72.3764 24.4756 72.6353 24.6767C72.8974 24.8778 73.2545 24.9784 73.7063 24.9784ZM75.0775 24.9784C75.5293 24.9784 75.8851 24.8778 76.1441 24.6767C76.4061 24.4756 76.5371 24.1714 76.5371 23.7641C76.5371 23.3568 76.4061 23.0539 76.1441 22.8553C75.8851 22.6542 75.5293 22.5537 75.0775 22.5537V24.9784Z" fill="black"/>
</svg>
