<svg width="128" height="19" viewBox="0 0 128 19" fill="none" xmlns="http://www.w3.org/2000/svg">
<g clip-path="url(#clip0_284_26724)">
<path d="M28.1586 12.5947C27.2545 12.5947 26.4408 12.4008 25.7176 12.013C25.0025 11.6168 24.4395 11.0687 24.0286 10.369C23.6176 9.66931 23.4121 8.87685 23.4121 7.99166C23.4121 7.10646 23.6176 6.31401 24.0286 5.61429C24.4395 4.91459 25.0025 4.37083 25.7176 3.98302C26.4408 3.5868 27.2545 3.38868 28.1586 3.38868C28.9476 3.38868 29.6586 3.53198 30.2914 3.81862C30.9242 4.10527 31.4503 4.51834 31.8694 5.05789L30.3161 6.49949C29.7572 5.8082 29.0791 5.46255 28.2819 5.46255C27.8134 5.46255 27.3942 5.56792 27.0244 5.77867C26.6627 5.98947 26.3792 6.28874 26.1737 6.67655C25.9765 7.05588 25.8778 7.49427 25.8778 7.99166C25.8778 8.48905 25.9765 8.93164 26.1737 9.31945C26.3792 9.69883 26.6627 9.9939 27.0244 10.2046C27.3942 10.4154 27.8134 10.5208 28.2819 10.5208C29.0791 10.5208 29.7572 10.1752 30.3161 9.48388L31.8694 10.9255C31.4503 11.465 30.9242 11.8781 30.2914 12.1647C29.6586 12.4514 28.9476 12.5947 28.1586 12.5947ZM34.7225 5.55108H32.0719V3.56571H39.8019V5.55108H37.1636V12.4176H34.7225V5.55108ZM44.6565 3.56571C45.4372 3.56571 46.1153 3.70061 46.6907 3.97037C47.2658 4.23173 47.7096 4.61109 48.0222 5.10848C48.3344 5.59745 48.4906 6.1749 48.4906 6.84092C48.4906 7.50695 48.3344 8.0844 48.0222 8.57336C47.7096 9.06233 47.2658 9.44172 46.6907 9.71146C46.1153 9.97284 45.4372 10.1035 44.6565 10.1035H43.1524V12.4176H40.7114V3.56571H44.6565ZM44.5086 8.13077C45.0097 8.13077 45.3879 8.02118 45.6428 7.80196C45.8974 7.57438 46.025 7.25405 46.025 6.84092C46.025 6.4278 45.8974 6.10747 45.6428 5.87983C45.3879 5.65224 45.0097 5.53845 44.5086 5.53845H43.1524V8.13077H44.5086ZM54.153 12.5947C53.241 12.5947 52.419 12.3965 51.6875 12.0003C50.964 11.6041 50.393 11.0561 49.9738 10.3564C49.5626 9.65667 49.3573 8.86843 49.3573 7.99166C49.3573 7.11493 49.5626 6.32664 49.9738 5.62693C50.393 4.92723 50.964 4.37924 51.6875 3.98302C52.419 3.5868 53.241 3.38868 54.153 3.38868C55.0655 3.38868 55.883 3.5868 56.6065 3.98302C57.338 4.37924 57.909 4.92723 58.32 5.62693C58.739 6.32664 58.949 7.11493 58.949 7.99166C58.949 8.86843 58.739 9.65667 58.32 10.3564C57.909 11.0561 57.338 11.6041 56.6065 12.0003C55.883 12.3965 55.0655 12.5947 54.153 12.5947ZM54.153 10.5208C54.5885 10.5208 54.983 10.4154 55.3365 10.2046C55.69 9.9939 55.9695 9.69883 56.175 9.31945C56.38 8.93164 56.483 8.48905 56.483 7.99166C56.483 7.49427 56.38 7.05588 56.175 6.67655C55.9695 6.28874 55.69 5.98947 55.3365 5.77867C54.983 5.56792 54.5885 5.46255 54.153 5.46255C53.7175 5.46255 53.3225 5.56792 52.9695 5.77867C52.616 5.98947 52.3365 6.28874 52.131 6.67655C51.9255 7.05588 51.823 7.49427 51.823 7.99166C51.823 8.48905 51.9255 8.93164 52.131 9.31945C52.3365 9.69883 52.616 9.9939 52.9695 10.2046C53.3225 10.4154 53.7175 10.5208 54.153 10.5208ZM60.289 3.56571H62.693V8.76306L66.256 3.56571H68.549V12.4176H66.145V7.23294L62.5945 12.4176H60.289V3.56571ZM64.4065 3.0346C63.5355 3.0346 62.894 2.86176 62.4835 2.51613C62.0805 2.17049 61.8795 1.65623 61.8795 0.97337H63.519C63.527 1.26842 63.601 1.48763 63.741 1.63094C63.8805 1.77425 64.1025 1.84592 64.4065 1.84592C64.7105 1.84592 64.9365 1.77425 65.0845 1.63094C65.2325 1.48763 65.3105 1.26842 65.319 0.97337H66.9585C66.9585 1.65623 66.753 2.17049 66.342 2.51613C65.931 2.86176 65.286 3.0346 64.4065 3.0346ZM74.643 12.5947C73.739 12.5947 72.9255 12.4008 72.202 12.013C71.487 11.6168 70.924 11.0687 70.513 10.369C70.102 9.66931 69.8965 8.87685 69.8965 7.99166C69.8965 7.10646 70.102 6.31401 70.513 5.61429C70.924 4.91459 71.487 4.37083 72.202 3.98302C72.9255 3.5868 73.739 3.38868 74.643 3.38868C75.432 3.38868 76.143 3.53198 76.7755 3.81862C77.409 4.10527 77.9345 4.51834 78.354 5.05789L76.8005 6.49949C76.2415 5.8082 75.5635 5.46255 74.766 5.46255C74.2975 5.46255 73.8785 5.56792 73.5085 5.77867C73.147 5.98947 72.8635 6.28874 72.658 6.67655C72.461 7.05588 72.362 7.49427 72.362 7.99166C72.362 8.48905 72.461 8.93164 72.658 9.31945C72.8635 9.69883 73.147 9.9939 73.5085 10.2046C73.8785 10.4154 74.2975 10.5208 74.766 10.5208C75.5635 10.5208 76.2415 10.1752 76.8005 9.48388L78.354 10.9255C77.9345 11.465 77.409 11.8781 76.7755 12.1647C76.143 12.4514 75.432 12.5947 74.643 12.5947ZM85.08 10.6978H81.4305L80.7525 12.4176H78.2625L82.0715 3.56571H84.476L88.2975 12.4176H85.758L85.08 10.6978ZM84.365 8.85159L83.2555 6.01894L82.1455 8.85159H84.365ZM96.781 12.4176L96.7565 7.72612L94.5375 11.5451H93.4525L91.2455 7.85255V12.4176H88.9895V3.56571H90.999L94.032 8.67453L96.9905 3.56571H99L99.025 12.4176H96.781ZM106.534 10.6978H102.885L102.207 12.4176H99.7165L103.526 3.56571H105.93L109.752 12.4176H107.212L106.534 10.6978ZM105.819 8.85159L104.71 6.01894L103.6 8.85159H105.819ZM114.389 3.56571C115.17 3.56571 115.848 3.70061 116.424 3.97037C116.999 4.23173 117.442 4.61109 117.755 5.10848C118.067 5.59745 118.224 6.1749 118.224 6.84092C118.224 7.50695 118.067 8.0844 117.755 8.57336C117.442 9.06233 116.999 9.44172 116.424 9.71146C115.848 9.97284 115.17 10.1035 114.389 10.1035H112.885V12.4176H110.444V3.56571H114.389ZM114.242 8.13077C114.743 8.13077 115.121 8.02118 115.376 7.80196C115.63 7.57438 115.757 7.25405 115.757 6.84092C115.757 6.4278 115.63 6.10747 115.376 5.87983C115.121 5.65224 114.743 5.53845 114.242 5.53845H112.885V8.13077H114.242ZM124.762 10.6978H121.113L120.435 12.4176H117.945L121.754 3.56571H124.158L127.98 12.4176H125.44L124.762 10.6978ZM124.047 8.85159L122.938 6.01894L121.828 8.85159H124.047Z" fill="black"/>
<path d="M18.955 16.1705L16.4893 19H0L1.37149e-06 2.90848L2.49651 0L18.955 1.47586e-06V16.1705Z" fill="#625B55"/>
<path d="M4.93125 7.61849C4.93125 7.16048 5.01655 6.73083 5.1871 6.32952C5.35765 5.92815 5.5884 5.57825 5.87935 5.27984C6.17535 4.97623 6.51895 4.73698 6.91025 4.56202C7.3015 4.38707 7.7204 4.2996 8.16685 4.2996H16.52L18.9086 0.995934V3.00342L16.52 6.51474H8.16685C8.0164 6.51474 7.8759 6.54304 7.7455 6.59962C7.61505 6.65621 7.49965 6.73601 7.39935 6.83887C7.30405 6.93669 7.2288 7.05244 7.1736 7.18626C7.11845 7.31998 7.09085 7.46407 7.09085 7.61849C7.09085 7.77285 7.11845 7.91946 7.1736 8.05841C7.2288 8.19218 7.30405 8.31055 7.39935 8.41341C7.49965 8.51123 7.61505 8.58836 7.7455 8.645C7.8759 8.70159 8.0164 8.72988 8.16685 8.72988H10.3264C10.7729 8.72988 11.1918 8.81734 11.583 8.99229C11.9793 9.16211 12.323 9.39879 12.6139 9.70238C12.9099 10.0008 13.1406 10.3533 13.3062 10.7598C13.4767 11.1611 13.562 11.5908 13.562 12.0488C13.562 12.5067 13.4767 12.9363 13.3062 13.3377C13.1406 13.739 12.9099 14.0915 12.6139 14.3951C12.323 14.6935 11.9793 14.9302 11.583 15.1052C11.1918 15.2801 10.7729 15.3676 10.3264 15.3676H0.0615234V13.1525H10.3264C10.4769 13.1525 10.6174 13.1241 10.7478 13.0675C10.8782 13.0109 10.9911 12.9338 11.0864 12.836C11.1867 12.7331 11.2645 12.6147 11.3197 12.4809C11.3749 12.3472 11.4025 12.2031 11.4025 12.0488C11.4025 11.8944 11.3749 11.7503 11.3197 11.6165C11.2645 11.4827 11.1867 11.367 11.0864 11.2692C10.9911 11.1663 10.8782 11.0865 10.7478 11.0299C10.6174 10.9733 10.4769 10.945 10.3264 10.945H8.16685C7.7204 10.945 7.3015 10.8575 6.91025 10.6826C6.51895 10.5077 6.17535 10.271 5.87935 9.97254C5.5884 9.66895 5.35765 9.31647 5.1871 8.91511C5.01655 8.50861 4.93125 8.07639 4.93125 7.61849Z" fill="white"/>
<path d="M26.3548 15.0819H25.3598V17.4595H25.0048V15.0819H24.0098V14.7584H26.3548V15.0819ZM31.181 17.4851C30.9277 17.4851 30.6993 17.427 30.496 17.3105C30.2927 17.1907 30.1327 17.0264 30.016 16.8176C29.8993 16.6087 29.841 16.3725 29.841 16.1089C29.841 15.8453 29.8993 15.6091 30.016 15.4003C30.1327 15.1914 30.2927 15.0288 30.496 14.9124C30.6993 14.796 30.9277 14.7378 31.181 14.7378C31.4343 14.7378 31.6627 14.796 31.866 14.9124C32.0693 15.0288 32.2277 15.1914 32.341 15.4003C32.4577 15.6091 32.516 15.8453 32.516 16.1089C32.516 16.3725 32.4577 16.6087 32.341 16.8176C32.2277 17.0264 32.0693 17.1907 31.866 17.3105C31.6627 17.427 31.4343 17.4851 31.181 17.4851ZM31.181 17.1616C31.3677 17.1616 31.5343 17.1188 31.681 17.0332C31.831 16.9443 31.9477 16.8193 32.031 16.6584C32.1143 16.4975 32.156 16.3143 32.156 16.1089C32.156 15.9035 32.1143 15.7203 32.031 15.5595C31.9477 15.3986 31.831 15.2753 31.681 15.1897C31.5343 15.1007 31.3677 15.0562 31.181 15.0562C30.9943 15.0562 30.826 15.1007 30.676 15.1897C30.5293 15.2753 30.4127 15.3986 30.326 15.5595C30.2427 15.7203 30.201 15.9035 30.201 16.1089C30.201 16.3143 30.2427 16.4975 30.326 16.6584C30.4127 16.8193 30.5293 16.9443 30.676 17.0332C30.826 17.1188 30.9943 17.1616 31.181 17.1616ZM37.9797 14.7378C38.2264 14.7378 38.4497 14.796 38.6497 14.9124C38.8497 15.0254 39.0064 15.1863 39.1197 15.3951C39.233 15.604 39.2897 15.8419 39.2897 16.1089C39.2897 16.3794 39.233 16.619 39.1197 16.8278C39.0064 17.0367 38.8497 17.1993 38.6497 17.3157C38.453 17.4286 38.2297 17.4851 37.9797 17.4851C37.7664 17.4851 37.573 17.4406 37.3997 17.3516C37.2297 17.2592 37.0897 17.1257 36.9797 16.9511V18.4557H36.6247V14.7584H36.9647V15.2924C37.0714 15.1144 37.2114 14.9775 37.3847 14.8816C37.5614 14.7857 37.7597 14.7378 37.9797 14.7378ZM37.9547 17.1616C38.138 17.1616 38.3047 17.1188 38.4547 17.0332C38.6047 16.9443 38.7214 16.8193 38.8047 16.6584C38.8914 16.4975 38.9347 16.3143 38.9347 16.1089C38.9347 15.9035 38.8914 15.7221 38.8047 15.5646C38.7214 15.4037 38.6047 15.2787 38.4547 15.1897C38.3047 15.1007 38.138 15.0562 37.9547 15.0562C37.768 15.0562 37.5997 15.1007 37.4497 15.1897C37.303 15.2787 37.1864 15.4037 37.0997 15.5646C37.0164 15.7221 36.9747 15.9035 36.9747 16.1089C36.9747 16.3143 37.0164 16.4975 37.0997 16.6584C37.1864 16.8193 37.303 16.9443 37.4497 17.0332C37.5997 17.1188 37.768 17.1616 37.9547 17.1616ZM45.2624 15.0819H43.7574V17.4595H43.4024V14.7584H45.2624V15.0819ZM50.0883 17.4851C49.8351 17.4851 49.6067 17.427 49.4034 17.3105C49.2001 17.1907 49.0401 17.0264 48.9234 16.8176C48.8067 16.6087 48.7484 16.3725 48.7484 16.1089C48.7484 15.8453 48.8067 15.6091 48.9234 15.4003C49.0401 15.1914 49.2001 15.0288 49.4034 14.9124C49.6067 14.796 49.8351 14.7378 50.0883 14.7378C50.3418 14.7378 50.5703 14.796 50.7733 14.9124C50.9768 15.0288 51.1353 15.1914 51.2483 15.4003C51.3653 15.6091 51.4233 15.8453 51.4233 16.1089C51.4233 16.3725 51.3653 16.6087 51.2483 16.8176C51.1353 17.0264 50.9768 17.1907 50.7733 17.3105C50.5703 17.427 50.3418 17.4851 50.0883 17.4851ZM50.0883 17.1616C50.2753 17.1616 50.4418 17.1188 50.5883 17.0332C50.7383 16.9443 50.8553 16.8193 50.9383 16.6584C51.0218 16.4975 51.0633 16.3143 51.0633 16.1089C51.0633 15.9035 51.0218 15.7203 50.9383 15.5595C50.8553 15.3986 50.7383 15.2753 50.5883 15.1897C50.4418 15.1007 50.2753 15.0562 50.0883 15.0562C49.9017 15.0562 49.7334 15.1007 49.5834 15.1897C49.4367 15.2753 49.3201 15.3986 49.2334 15.5595C49.1501 15.7203 49.1084 15.9035 49.1084 16.1089C49.1084 16.3143 49.1501 16.4975 49.2334 16.6584C49.3201 16.8193 49.4367 16.9443 49.5834 17.0332C49.7334 17.1188 49.9017 17.1616 50.0883 17.1616ZM57.2073 16.0627C57.5638 16.1483 57.7423 16.3691 57.7423 16.7251C57.7423 16.9614 57.6573 17.1428 57.4873 17.2695C57.3173 17.3961 57.0638 17.4595 56.7273 17.4595H55.5323V14.7584H56.6923C56.9923 14.7584 57.2273 14.8183 57.3973 14.9381C57.5673 15.0579 57.6523 15.2291 57.6523 15.4516C57.6523 15.5988 57.6123 15.7255 57.5323 15.8316C57.4553 15.9343 57.3473 16.0114 57.2073 16.0627ZM55.8773 15.96H56.6673C56.8703 15.96 57.0253 15.9206 57.1323 15.8419C57.2423 15.7632 57.2973 15.6485 57.2973 15.4978C57.2973 15.3472 57.2423 15.2343 57.1323 15.1589C57.0253 15.0836 56.8703 15.0459 56.6673 15.0459H55.8773V15.96ZM56.7123 17.1719C56.9388 17.1719 57.1088 17.1343 57.2223 17.0589C57.3353 16.9836 57.3923 16.8655 57.3923 16.7046C57.3923 16.5437 57.3403 16.4256 57.2373 16.3503C57.1338 16.2715 56.9703 16.2322 56.7473 16.2322H55.8773V17.1719H56.7123ZM62.8293 14.7378C63.1723 14.7378 63.4358 14.8268 63.6193 15.0049C63.8023 15.1795 63.8943 15.4397 63.8943 15.7854V17.4595H63.5543V17.0384C63.4743 17.1787 63.3558 17.2883 63.1993 17.367C63.0458 17.4457 62.8623 17.4851 62.6493 17.4851C62.3558 17.4851 62.1223 17.4132 61.9493 17.2695C61.7758 17.1257 61.6893 16.9357 61.6893 16.6995C61.6893 16.4701 61.7693 16.2852 61.9293 16.1449C62.0923 16.0045 62.3508 15.9343 62.7043 15.9343H63.5393V15.77C63.5393 15.5372 63.4758 15.3609 63.3493 15.2411C63.2223 15.1178 63.0373 15.0562 62.7943 15.0562C62.6273 15.0562 62.4673 15.0853 62.3143 15.1435C62.1608 15.1983 62.0293 15.2753 61.9193 15.3746L61.7593 15.1024C61.8923 14.986 62.0523 14.897 62.2393 14.8354C62.4258 14.7703 62.6223 14.7378 62.8293 14.7378ZM62.7043 17.1976C62.9043 17.1976 63.0758 17.1514 63.2193 17.0589C63.3623 16.963 63.4693 16.8261 63.5393 16.6481V16.2065H62.7143C62.2643 16.2065 62.0393 16.3674 62.0393 16.6892C62.0393 16.8467 62.0973 16.9716 62.2143 17.0641C62.3308 17.153 62.4943 17.1976 62.7043 17.1976ZM70.2093 14.7584V17.4595H69.8843V16.5659H69.0593H68.9593L68.3493 17.4595H67.9643L68.6193 16.5146C68.4158 16.4564 68.2593 16.3571 68.1493 16.2168C68.0393 16.0764 67.9843 15.8984 67.9843 15.6827C67.9843 15.3814 68.0843 15.1521 68.2843 14.9946C68.4843 14.8371 68.7573 14.7584 69.1043 14.7584H70.2093ZM68.3443 15.693C68.3443 16.0935 68.5923 16.2938 69.0893 16.2938H69.8843V15.0819H69.1143C68.6008 15.0819 68.3443 15.2856 68.3443 15.693ZM80.1848 16.2578H79.5848V17.4595H79.2298V14.7584H79.5848V15.9446H80.1898L81.1148 14.7584H81.4998L80.4648 16.0678L81.5748 17.4595H81.1548L80.1848 16.2578ZM86.4773 17.4851C86.2243 17.4851 85.9958 17.427 85.7923 17.3105C85.5893 17.1907 85.4293 17.0264 85.3123 16.8176C85.1958 16.6087 85.1373 16.3725 85.1373 16.1089C85.1373 15.8453 85.1958 15.6091 85.3123 15.4003C85.4293 15.1914 85.5893 15.0288 85.7923 14.9124C85.9958 14.796 86.2243 14.7378 86.4773 14.7378C86.7308 14.7378 86.9593 14.796 87.1623 14.9124C87.3658 15.0288 87.5243 15.1914 87.6373 15.4003C87.7543 15.6091 87.8123 15.8453 87.8123 16.1089C87.8123 16.3725 87.7543 16.6087 87.6373 16.8176C87.5243 17.0264 87.3658 17.1907 87.1623 17.3105C86.9593 17.427 86.7308 17.4851 86.4773 17.4851ZM86.4773 17.1616C86.6643 17.1616 86.8308 17.1188 86.9773 17.0332C87.1273 16.9443 87.2443 16.8193 87.3273 16.6584C87.4108 16.4975 87.4523 16.3143 87.4523 16.1089C87.4523 15.9035 87.4108 15.7203 87.3273 15.5595C87.2443 15.3986 87.1273 15.2753 86.9773 15.1897C86.8308 15.1007 86.6643 15.0562 86.4773 15.0562C86.2908 15.0562 86.1223 15.1007 85.9723 15.1897C85.8258 15.2753 85.7093 15.3986 85.6223 15.5595C85.5393 15.7203 85.4973 15.9035 85.4973 16.1089C85.4973 16.3143 85.5393 16.4975 85.6223 16.6584C85.7093 16.8193 85.8258 16.9443 85.9723 17.0332C86.1223 17.1188 86.2908 17.1616 86.4773 17.1616ZM94.8613 14.7584V17.4595H94.5363V15.3232L93.4713 17.1308H93.3113L92.2463 15.3181V17.4595H91.9213V14.7584H92.2813L93.3963 16.7046L94.5313 14.7584H94.8613ZM101.581 14.7584V17.4595H101.226V15.0819H99.5763V17.4595H99.2213V14.7584H101.581ZM106.845 14.7378C107.189 14.7378 107.452 14.8268 107.635 15.0049C107.819 15.1795 107.91 15.4397 107.91 15.7854V17.4595H107.57V17.0384C107.49 17.1787 107.372 17.2883 107.215 17.367C107.062 17.4457 106.879 17.4851 106.665 17.4851C106.372 17.4851 106.139 17.4132 105.965 17.2695C105.792 17.1257 105.705 16.9357 105.705 16.6995C105.705 16.4701 105.785 16.2852 105.945 16.1449C106.109 16.0045 106.367 15.9343 106.72 15.9343H107.555V15.77C107.555 15.5372 107.492 15.3609 107.365 15.2411C107.239 15.1178 107.054 15.0562 106.81 15.0562C106.644 15.0562 106.484 15.0853 106.33 15.1435C106.177 15.1983 106.045 15.2753 105.935 15.3746L105.775 15.1024C105.909 14.986 106.069 14.897 106.255 14.8354C106.442 14.7703 106.639 14.7378 106.845 14.7378ZM106.72 17.1976C106.92 17.1976 107.092 17.1514 107.235 17.0589C107.379 16.963 107.485 16.8261 107.555 16.6481V16.2065H106.73C106.28 16.2065 106.055 16.3674 106.055 16.6892C106.055 16.8467 106.114 16.9716 106.23 17.0641C106.347 17.153 106.51 17.1976 106.72 17.1976ZM112.206 14.7584H112.561V15.9549H114.216V14.7584H114.571V17.4595H114.216V16.2681H112.561V17.4595H112.206V14.7584ZM118.93 14.7584H119.285V16.9049L121.04 14.7584H121.355V17.4595H121V15.313L119.25 17.4595H118.93V14.7584ZM127.742 14.7584V17.4595H127.417V16.5659H126.592H126.492L125.882 17.4595H125.497L126.152 16.5146C125.949 16.4564 125.792 16.3571 125.682 16.2168C125.572 16.0764 125.517 15.8984 125.517 15.6827C125.517 15.3814 125.617 15.1521 125.817 14.9946C126.017 14.8371 126.29 14.7584 126.637 14.7584H127.742ZM125.877 15.693C125.877 16.0935 126.125 16.2938 126.622 16.2938H127.417V15.0819H126.647C126.134 15.0819 125.877 15.2856 125.877 15.693Z" fill="black"/>
</g>
<defs>
<clipPath id="clip0_284_26724">
<rect width="128" height="19" fill="white"/>
</clipPath>
</defs>
</svg>
