<svg width="113" height="112" viewBox="0 0 113 112" fill="none" xmlns="http://www.w3.org/2000/svg">
<path d="M5.00164 64H12.0016C13.1179 70.0239 15.4296 75.7942 19.0016 81L14.0016 86C12.1412 87.8592 12.1412 91.1408 14.0016 93L19.0016 98C20.8621 99.8592 24.1412 99.8592 26.0016 98L30.0016 93C35.2109 96.5697 40.9738 98.8845 47.0016 100V107C47.0016 109.603 49.397 112 52.0016 112H59.0016C61.6062 112 64.0016 109.603 64.0016 107V100C69.955 98.8845 75.7924 96.5697 81.0016 93L86.0016 98C87.8621 99.8592 91.1412 99.8592 93.0016 98L98.0016 93C99.8621 91.1408 99.8621 87.8592 98.0016 86L93.0016 81C96.5737 75.7942 98.8854 69.9495 100.002 64H107.002C109.606 64 112.002 62.6029 112.002 60V53C112.002 50.3971 109.606 48 107.002 48H100.002C98.8854 42.0505 96.4993 36.1315 93.0016 31L98.0016 26C99.8621 24.1408 99.8621 20.8592 98.0016 19L93.0016 14C91.1412 12.1408 87.8621 12.1408 86.0016 14L81.0016 19C75.8668 15.4303 70.955 13.1899 65.0016 12V5C65.0016 2.39708 62.6062 0 60.0016 0H53.0016C50.397 0 48.0016 2.39708 48.0016 5V12C42.0483 13.1155 36.2109 15.5046 31.0016 19L26.0016 14C24.1412 12.1408 20.8621 12.1408 19.0016 14L14.0016 19C12.1412 20.8592 12.1412 24.1408 14.0016 26L19.0016 30C15.4296 35.2058 13.1923 40.9761 12.0016 47H5.00164C2.39703 47 0.00164012 49.3971 0.00164012 52V59C-0.0727772 61.6773 2.39703 64 5.00164 64ZM39.0016 39C48.5271 29.4807 63.4762 29.4807 73.0016 39C82.5271 48.5193 82.5271 63.4807 73.0016 73C63.4762 82.5193 48.5271 82.5193 39.0016 73C29.4762 63.4807 29.4018 48.5193 39.0016 39Z" fill="#373737"/>
<path d="M14.4598 63.5445L14.0809 61.5H12.0016H5.00164C3.68967 61.5 2.46851 60.2268 2.50067 59.0695L2.50164 59.0347V59V52C2.50164 51.4638 2.75953 50.8249 3.29288 50.2915C3.82615 49.7581 4.46484 49.5 5.00164 49.5H12.0016H14.0559L14.4542 47.4848C15.5878 41.7498 17.7072 36.3052 21.063 31.4144L22.3773 29.499L20.5634 28.0478L15.6931 24.1516C14.8862 23.2496 14.9115 21.6251 15.7688 20.7683L15.7694 20.7678L20.7688 15.7683C20.769 15.7681 20.7692 15.768 20.7694 15.7678C21.6536 14.8848 23.3496 14.8848 24.2339 15.7678C24.2341 15.768 24.2343 15.7681 24.2344 15.7683L29.2339 20.7678L30.6875 22.2214L32.3946 21.076C37.3276 17.766 42.8487 15.5091 48.4621 14.4572L50.5016 14.0751V12V5C50.5016 4.46377 50.7595 3.82494 51.2929 3.29147C51.8262 2.75808 52.4648 2.5 53.0016 2.5H60.0016C60.5384 2.5 61.1771 2.75808 61.7104 3.29147C62.2437 3.82494 62.5016 4.46377 62.5016 5V12V14.0498L64.5117 14.4515C70.0844 15.5653 74.682 17.6513 79.5746 21.0527L81.2911 22.246L82.7694 20.7678L87.7688 15.7683C87.769 15.7681 87.7692 15.768 87.7694 15.7678C88.6536 14.8848 90.3496 14.8848 91.2339 15.7678C91.2341 15.768 91.2343 15.7681 91.2344 15.7683L96.2339 20.7678L96.2344 20.7683C97.1178 21.6511 97.1178 23.3489 96.2344 24.2317L96.2339 24.2322L91.2339 29.2322L89.7694 30.6967L90.9359 32.408C94.233 37.2454 96.4899 42.8401 97.5445 48.461L97.9271 50.5H100.002H107.002C107.538 50.5 108.177 50.7581 108.71 51.2915C109.244 51.8249 109.502 52.4638 109.502 53V60C109.502 60.4295 109.346 60.7076 109.005 60.9567C108.596 61.2552 107.894 61.5 107.002 61.5H100.002H97.9271L97.5445 63.539C96.4883 69.1683 94.3034 74.6842 90.9402 79.5856L89.7648 81.2987L91.2339 82.7678L96.2339 87.7678L96.2344 87.7683C97.1178 88.6511 97.1178 90.3489 96.2344 91.2317L96.2339 91.2322L91.2344 96.2317C91.2343 96.2318 91.2341 96.232 91.2339 96.2322C90.3496 97.1152 88.6536 97.1152 87.7694 96.2322C87.7692 96.232 87.769 96.2318 87.7688 96.2317L82.7694 91.2322L81.3012 89.764L79.5884 90.9378C74.6818 94.3001 69.1724 96.4876 63.5412 97.5428L61.5016 97.9249V100V107C61.5016 107.536 61.2437 108.175 60.7104 108.709C60.1771 109.242 59.5384 109.5 59.0016 109.5H52.0016C51.4648 109.5 50.8262 109.242 50.2929 108.709C49.7595 108.175 49.5016 107.536 49.5016 107V100V97.9202L47.4566 97.5417C41.7607 96.4876 36.3262 94.3033 31.4148 90.9378L29.4998 89.6254L28.0495 91.4383L24.1538 96.3078C23.2507 97.1144 21.6276 97.0892 20.7694 96.2322C20.7692 96.232 20.769 96.2318 20.7688 96.2317L15.7694 91.2322L15.7688 91.2317C14.8855 90.3489 14.8855 88.6511 15.7688 87.7683L15.7694 87.7678L20.7694 82.7678L22.2385 81.2987L21.063 79.5856C17.6967 74.6795 15.5149 69.2384 14.4598 63.5445ZM74.7688 37.2317C64.2682 26.7379 47.7392 26.7369 37.2374 37.2287C26.6464 47.7349 26.7422 64.2828 37.2344 74.7683C47.736 85.2631 64.2672 85.2631 74.7688 74.7683C85.2713 64.2726 85.2713 47.7274 74.7688 37.2317Z" stroke="#6F746E" stroke-width="5"/>
</svg>
