<svg width="43" height="42" viewBox="0 0 43 42" fill="none" xmlns="http://www.w3.org/2000/svg">
<g clip-path="url(#clip0_37_26404)">
<rect x="17.873" y="-0.017334" width="7" height="24" rx="3.5" fill="#373737"/>
<path d="M32.0219 5.69479C33.0911 4.19253 35.1983 3.82498 36.5171 5.11363C39.0018 7.5415 40.8736 10.5479 41.9512 13.8853C43.3725 18.2874 43.3362 23.0305 41.8475 27.4102C40.3589 31.79 37.4974 35.5728 33.6879 38.197C29.8784 40.8212 25.3242 42.1468 20.7015 41.9769C16.0788 41.8069 11.6341 40.1506 8.02758 37.2538C4.42105 34.3571 1.84497 30.3743 0.681894 25.8971C-0.481178 21.4199 -0.169214 16.6869 1.57146 12.4011C2.89113 9.15179 4.97863 6.2909 7.63486 4.05201C9.04473 2.86365 11.1192 3.3849 12.0752 4.9616V4.9616C13.0312 6.53831 12.4928 8.56904 11.1694 9.85304C9.70214 11.2767 8.53633 12.9972 7.75797 14.9137C6.5579 17.8685 6.34282 21.1315 7.14468 24.2182C7.94653 27.305 9.72256 30.0508 12.209 32.0479C14.6955 34.045 17.7597 35.1869 20.9467 35.3041C24.1338 35.4212 27.2736 34.5073 29.9 32.6982C32.5263 30.889 34.4991 28.281 35.5254 25.2614C36.5517 22.2419 36.5768 18.9719 35.5969 15.937C34.9613 13.9685 33.925 12.1671 32.5662 10.6395C31.3406 9.26184 30.9528 7.19705 32.0219 5.69479V5.69479Z" fill="#373737"/>
</g>
<defs>
<clipPath id="clip0_37_26404">
<rect width="43" height="42" fill="white"/>
</clipPath>
</defs>
</svg>
