<svg width="52" height="52" viewBox="0 0 52 52" fill="none" xmlns="http://www.w3.org/2000/svg">
<g clip-path="url(#clip0_284_26924)">
<path d="M51.9848 0H0.0152344C0.00682066 0 0 0.00682066 0 0.0152344V51.9848C0 51.9932 0.00682066 52 0.0152344 52H51.9848C51.9932 52 52 51.9932 52 51.9848V0.0152344C52 0.00682066 51.9932 0 51.9848 0Z" fill="#5B5A5F"/>
<path d="M20.2109 41.0312C19.0938 41.0312 19.1953 40.625 18.8906 39.6094L15.6406 28.9453L40.5234 14.3203" fill="#888888"/>
<path d="M20.2109 41.0312C20.9219 41.0312 21.3281 40.625 21.8359 40.2188L26.4062 35.8516L20.7188 32.3984" fill="#625B55"/>
<path d="M20.7189 32.3984L34.4298 42.4531C35.8517 43.3672 37.0704 42.8594 37.4767 41.0312L43.0626 14.8281C43.5704 12.5937 42.1486 11.5781 40.6251 12.2891L8.02355 24.8828C5.89074 25.6953 5.89074 27.0156 7.6173 27.5234L16.047 30.1641L35.3439 17.875C36.2579 17.3672 37.0704 17.5703 36.4611 18.2812" fill="#FBEDD0"/>
</g>
<defs>
<clipPath id="clip0_284_26924">
<rect width="52" height="52" rx="11" fill="white"/>
</clipPath>
</defs>
</svg>
