<svg width="70" height="51" viewBox="0 0 70 51" fill="none" xmlns="http://www.w3.org/2000/svg">
<g clip-path="url(#clip0_284_26966)">
<path d="M54.743 16.9146L55.2687 15.232L53.5295 15.2865C53.3826 15.2865 52.3146 15.2562 51.2784 14.5049C51.3556 14.5125 51.4328 14.5231 51.5116 14.5231C52.5781 14.5231 53.6099 13.8809 54.0234 12.9631L54.7717 11.3046C53.834 11.3167 52.9766 11.1986 52.9766 11.1986C52.969 11.1971 52.2933 11.1108 51.5116 10.3126C50.9511 9.7401 50.2573 9.43717 49.5059 9.43717C49.1771 9.43717 48.8833 9.49627 48.6302 9.5766C48.6696 9.44175 48.7075 9.3054 48.7287 9.16455C48.9681 7.6122 47.9683 6.42778 47.9683 6.42934L46.6608 4.81021L45.8504 6.71254C45.8474 6.71862 45.6427 7.16387 45.2762 7.38199C45.1656 6.82312 44.8944 6.19456 44.3142 5.59325C43.2204 4.46034 41.8888 4.29229 41.192 4.29229C40.8693 4.29229 40.639 4.3271 40.5829 4.33621L39.0043 4.64668C39.0953 4.29378 39.2892 3.6804 39.6436 3.12753L40.5148 1.77051L38.3226 2.02039L37.6242 0.537685L36.2729 1.23438L35.0231 0L33.7764 1.23438L32.4204 0.537685L31.7236 2.02039L29.533 1.77051L30.4056 3.12753C30.7601 3.6804 30.954 4.29229 31.0434 4.64512L29.5376 4.34828L29.486 4.33918C29.4103 4.3271 29.1816 4.29229 28.8573 4.29229C28.1605 4.29229 26.8289 4.4619 25.7381 5.59325C25.1563 6.193 24.8852 6.82312 24.7731 7.38199C24.4095 7.16691 24.2065 6.72765 24.2065 6.72765L23.3945 4.8148L22.0659 6.44444C21.9038 6.655 21.1024 7.76812 21.3205 9.16762C21.3433 9.30697 21.3797 9.44325 21.419 9.57802C21.1676 9.49777 20.8736 9.43875 20.5449 9.43875C19.7935 9.43875 19.0996 9.74167 18.5376 10.3141C17.7589 11.1093 17.0863 11.1986 17.0924 11.1986C17.0924 11.1986 16.3818 11.3259 15.282 11.3062L16.0259 12.9646C16.4394 13.884 17.4726 14.5246 18.5376 14.5246C18.6179 14.5246 18.6951 14.514 18.7739 14.5064C17.7407 15.2576 16.6727 15.2879 16.544 15.2895L14.7715 15.232L15.3078 16.9131C15.5774 17.7794 16.4788 19.2152 18.2058 19.3697C18.0179 20.1572 17.6014 21.0387 16.6864 21.4189L15.3669 21.9626L16.0864 23.2152C16.4924 23.8907 17.4454 24.6813 18.8027 24.6813C19.0966 24.6797 19.3799 24.651 19.6526 24.5935C19.7223 24.9024 19.8101 25.2113 19.9132 25.5173C20.3177 26.7198 19.9692 27.559 19.9647 27.568L19.3132 28.9326L20.7676 29.3158C20.7857 29.3219 21.2251 29.4415 21.775 29.4415C22.025 29.4415 22.2628 29.4158 22.4871 29.3628C22.6567 29.3233 22.8188 29.2703 22.9748 29.2068C23.1627 29.5445 23.3915 29.8519 23.6581 30.1276C24.5897 31.0833 25.9092 31.5679 27.5818 31.5679H27.5878L28.7816 31.5529L26.3153 32.5767L28.1877 33.4809C28.8679 33.8125 29.6754 34.2048 30.4964 34.5047L30.2632 35.1439L30.9085 35.4376C30.9662 35.4634 32.2069 36.0193 34.2702 36.1374C34.2702 36.1374 34.7686 36.1601 35.0428 36.1601C35.317 36.1601 35.8094 36.1359 35.8094 36.1359C37.859 36.0148 39.0907 35.4649 39.1483 35.4376L39.7951 35.1423L39.5588 34.5016C40.4042 34.1926 41.2404 33.7852 41.8918 33.4672L43.7294 32.5752L41.2707 31.5498L42.469 31.5649C44.143 31.5649 45.4641 31.0802 46.3942 30.1231C46.6594 29.8489 46.8881 29.5415 47.0775 29.2038C47.2335 29.2674 47.3971 29.3203 47.5667 29.3597C47.7894 29.4127 48.0273 29.4385 48.2773 29.4385C48.8181 29.4385 49.2619 29.3188 49.2741 29.3158L50.7345 28.9296L50.0981 27.5907C50.0831 27.5559 49.7347 26.7184 50.1391 25.5142C50.2422 25.2068 50.3284 24.8978 50.3982 24.5904C50.6724 24.648 50.9587 24.6782 51.2542 24.6782C52.9826 24.6782 53.8114 23.462 53.9719 23.1985L54.6839 21.9596L53.3644 21.4174C52.4479 21.0373 52.0328 20.1542 51.8465 19.3682C53.5492 19.2228 54.4642 17.787 54.743 16.9146ZM31.1586 5.22525L31.1404 5.22976L31.1554 5.21006L31.1586 5.22525Z" fill="#FBEDD0"/>
<path d="M35.0239 5.15094C33.6271 5.15249 32.5803 5.6099 32.3516 6.14758L35.0239 7.2017L37.6962 6.14758C37.469 5.6099 36.4221 5.15249 35.0239 5.15094Z" fill="#FBEDD0"/>
<path d="M35.0515 33.0567H35.0485H35.0258H35H34.9985C34.1517 33.0628 32.9867 32.8885 32.4246 32.725L31.749 34.5531C32.1944 34.7121 33.7033 35.015 35.0258 35.015C36.3452 35.015 37.8557 34.7106 38.2996 34.5531L37.6254 32.725C37.0618 32.8901 35.8983 33.0628 35.0515 33.0567Z" fill="#FBEDD0"/>
<path d="M40.1642 31.2394C39.6612 31.5241 38.5387 31.9512 37.8857 32.1497L38.4341 33.6596C39.4446 33.384 40.2778 33.0614 40.9671 32.7161L39.8293 32.3375L40.1642 31.2394Z" fill="#FBEDD0"/>
<path d="M29.8859 31.2394L30.2222 32.3375L29.083 32.7161C29.7708 33.0614 30.6085 33.384 31.6144 33.6596L32.1629 32.1497C31.513 31.9512 30.3889 31.5227 29.8859 31.2394Z" fill="#FBEDD0"/>
<path d="M35.0243 3.40327C36.0772 3.40327 37.1104 3.65464 37.9042 4.09693C37.9769 3.85305 38.0784 3.55769 38.2163 3.24878L37.9163 3.28507L37.6012 3.3184L37.4679 3.03215L37.0665 2.184L36.3347 2.56572L36.05 2.7111L35.8227 2.48691L35.0273 1.69934L34.2335 2.48691L34.0062 2.7111L33.7215 2.56572L32.9852 2.184L32.5884 3.03215L32.4519 3.3184L32.1368 3.28507L31.8369 3.24878C31.9748 3.55924 32.0748 3.85305 32.149 4.09693C32.9443 3.65464 33.9745 3.40327 35.0243 3.40327Z" fill="#FBEDD0"/>
<path d="M51.0988 13.2055C51.2351 13.2525 51.3745 13.2736 51.5124 13.2736C52.1077 13.2736 52.6834 12.889 52.8819 12.4483C52.8819 12.4483 51.7896 12.3816 50.6156 11.1897C50.2413 10.8034 49.8459 10.6883 49.5066 10.6883C48.9794 10.6883 48.584 10.967 48.584 10.967C50.002 11.7213 50.2913 12.9329 51.0988 13.2055Z" fill="#FBEDD0"/>
<path d="M18.536 13.2736C18.6738 13.2736 18.8132 13.2525 18.9465 13.2055C19.7571 12.9329 20.0479 11.7213 21.4658 10.967C21.4658 10.967 21.069 10.6883 20.5447 10.6883C20.204 10.6883 19.8085 10.8034 19.4328 11.1897C18.2602 12.3816 17.168 12.4483 17.168 12.4483C17.3634 12.889 17.9406 13.2736 18.536 13.2736Z" fill="#FBEDD0"/>
<path d="M51.484 18.1293C51.5083 18.1308 51.5295 18.1308 51.5552 18.1308C53.0414 18.1308 53.5458 16.539 53.5458 16.539H53.517C53.2443 16.539 51.0341 16.4754 49.4722 14.4898C48.4435 13.1843 47.6012 12.0362 45.9363 11.5849L45.7727 11.5561L45.7364 11.3895C45.6909 11.135 45.8651 10.8973 46.2606 10.6398C48.5572 9.13583 46.9983 7.21839 46.9983 7.21839C46.9983 7.21839 46.3424 8.75266 44.8743 8.75266C44.8395 8.75266 44.8017 8.75116 44.7653 8.75116C44.5986 8.74208 44.438 8.73601 44.276 8.70121L44.0048 8.64811C44.0048 8.64811 44.4229 7.51073 43.414 6.46571C42.6535 5.67658 41.7278 5.54327 41.1931 5.54327C40.9234 5.54327 40.7522 5.57816 40.7522 5.57816C41.2597 6.24152 41.6263 7.34111 41.04 8.01961C40.5341 8.60273 39.2979 8.63146 39.2979 9.50086C39.2979 9.86888 39.6417 10.299 40.2599 10.6853C42.1187 11.8559 43.9638 13.4084 44.7304 15.4894C45.6894 18.0854 44.6092 19.8074 43.067 20.795C43.067 20.795 43.5503 21.2402 44.2518 21.2963C44.3941 21.3099 44.5335 21.316 44.6638 21.316C46.1439 21.316 46.9089 20.6223 46.9089 20.6223C46.9089 20.6223 46.7832 21.581 46.0121 22.4715C45.3016 23.294 44.3683 23.7771 42.9458 23.7983C42.9458 23.7983 42.9004 24.4587 43.5306 25.0296C43.9337 25.3901 44.8653 25.5083 44.8653 25.5083C44.8653 25.5083 43.1215 25.8611 42.9292 28.4359C42.8246 29.8308 42.4686 30.3155 42.4686 30.3155H42.5004C46.5468 30.3155 46.4422 26.8456 46.4422 26.8456C46.4422 26.8456 46.7241 27.8725 47.8528 28.1405C47.989 28.1769 48.1345 28.1906 48.2739 28.1906C48.6374 28.1906 48.9526 28.1057 48.9526 28.1057C48.9526 28.1057 48.3617 26.8592 48.948 25.1159C49.4343 23.6696 49.3555 22.5973 49.3555 22.5973C49.3555 22.5973 49.901 23.4212 51.2523 23.4288H51.2658C52.3915 23.4288 52.8822 22.5761 52.8822 22.5761C50.1842 21.4568 50.4509 17.8431 50.4509 17.8431C50.4509 17.8431 50.8008 18.1035 51.484 18.1293ZM50.672 21.9035C49.5752 21.3629 48.8814 19.9271 48.7132 19.4091C48.5314 22.2565 47.1408 24.233 45.5152 26.1353C44.6714 27.1212 44.3774 28.0799 44.3774 28.0799C44.3774 28.0799 44.5396 26.994 45.2698 26.1095C46.7862 24.2875 48.2268 22.0202 48.3345 19.3985C48.4087 17.5689 47.9375 16.0847 47.2028 14.8624C47.6133 16.1361 47.5558 17.6961 46.1605 19.1516C46.1605 19.1516 48.9374 15.8242 45.0547 12.4133C43.5003 11.1153 41.8006 10.3142 40.925 9.74618C44.0881 10.7777 45.6318 9.64171 45.6318 9.64171C44.6214 10.5172 43.3139 10.502 42.5035 10.3763C42.7232 10.4838 42.9519 10.5959 43.1988 10.7276C45.8651 12.1755 48.2618 14.558 48.6708 17.8582V17.8325C49.2919 21.0721 50.672 21.9035 50.672 21.9035Z" fill="#FBEDD0"/>
<path d="M25.1835 25.5083C25.1835 25.5083 26.1152 25.3916 26.5182 25.0296C27.1469 24.4587 27.103 23.7983 27.103 23.7983C25.6789 23.7786 24.7473 23.294 24.0321 22.4731C23.2671 21.5825 23.1399 20.6238 23.1399 20.6238C23.1399 20.6238 23.9049 21.3174 25.3835 21.3174C25.5168 21.3174 25.6547 21.3113 25.7971 21.2978C26.4985 21.2417 26.9832 20.7964 26.9832 20.7964C25.4411 19.8089 24.3594 18.0854 25.3168 15.4894C26.085 13.4099 27.9286 11.8559 29.7874 10.6853C30.4055 10.299 30.7494 9.87038 30.7494 9.50086C30.7494 8.63146 29.5147 8.60273 29.0088 8.01961C28.4225 7.34111 28.7906 6.23996 29.2965 5.57816C29.2965 5.57816 29.1284 5.54327 28.8572 5.54327C28.3241 5.54327 27.3983 5.67658 26.6379 6.46571C25.6259 7.51073 26.0455 8.64811 26.0455 8.64811L25.7743 8.70121C25.6122 8.73601 25.4502 8.74208 25.2851 8.75116C25.2472 8.75116 25.2138 8.75266 25.1774 8.75266C23.7064 8.75266 23.0536 7.21994 23.0536 7.21994C23.0536 7.21994 21.4946 9.13741 23.7899 10.6413C24.1852 10.8988 24.3578 11.1366 24.3124 11.391L24.2761 11.5577L24.1094 11.5864C22.4476 12.0377 21.6038 13.1858 20.5752 14.4914C19.0162 16.4739 16.8089 16.539 16.5333 16.539H16.5029C16.5029 16.539 17.0074 18.1308 18.4936 18.1308C18.5178 18.1308 18.539 18.1308 18.5648 18.1293C19.2481 18.1051 19.5996 17.8431 19.5996 17.8431C19.5996 17.8431 19.8631 21.4553 17.168 22.5761C17.168 22.5761 17.6589 23.4288 18.7845 23.4288H18.798C20.1509 23.4212 20.6948 22.5973 20.6948 22.5973C20.6948 22.5973 20.616 23.6696 21.1007 25.1159C21.687 26.8592 21.0993 28.1057 21.0993 28.1057C21.0993 28.1057 21.4144 28.1906 21.7764 28.1906C21.9173 28.1906 22.0613 28.1769 22.1961 28.1405C23.3232 27.8725 23.6065 26.8456 23.6065 26.8456C23.6065 26.8456 23.5035 30.3155 27.5499 30.3155H27.5787C27.5787 30.3155 27.2242 29.8308 27.1212 28.4359C26.9272 25.8611 25.1835 25.5083 25.1835 25.5083ZM24.5336 26.1353C22.9081 24.233 21.5189 22.2565 21.3356 19.4091C21.1674 19.9256 20.4766 21.3629 19.3799 21.9035C19.3799 21.9035 20.7584 21.0721 21.378 17.8325V17.8582C21.7886 14.5595 24.1837 12.1755 26.8515 10.7276C27.0954 10.5944 27.3271 10.4822 27.5453 10.3763C26.7348 10.502 25.4274 10.5172 24.417 9.64171C24.417 9.64171 25.9608 10.7777 29.1223 9.74618C28.2467 10.3142 26.5485 11.1153 24.9942 12.4133C21.1099 15.8242 23.8883 19.1516 23.8883 19.1516C22.4915 17.6947 22.4354 16.1361 22.846 14.8624C22.1097 16.0862 21.6401 17.5689 21.7158 19.3985C21.8219 22.0202 23.2626 24.2875 24.7761 26.1095C25.5077 26.9925 25.6729 28.0799 25.6729 28.0799C25.6729 28.0799 25.3759 27.1212 24.5336 26.1353Z" fill="#FBEDD0"/>
<path d="M32.0328 12.8222C32.0994 12.8935 32.1645 12.9707 32.2267 13.0479C32.2419 13.0661 32.2554 13.0828 32.2706 13.104C32.3281 13.1812 32.3873 13.263 32.4433 13.3463C32.4554 13.363 32.4675 13.3827 32.4812 13.4023C32.5494 13.5053 32.613 13.6114 32.6766 13.7204C33.2599 14.7277 34.1946 15.3289 35.0232 15.3304C35.8535 15.3289 36.7851 14.7277 37.3714 13.7204C37.4365 13.6084 37.5016 13.4993 37.5698 13.3978C37.5804 13.3827 37.5911 13.369 37.6001 13.3539C37.6577 13.2676 37.7183 13.1828 37.7819 13.1009C37.7956 13.0828 37.8077 13.0676 37.8198 13.0525C37.885 12.9722 37.9516 12.8935 38.0197 12.8208C38.0319 12.8086 38.041 12.7981 38.0516 12.789C38.3485 12.4846 38.703 12.2528 39.1666 12.124L38.9605 12.0044H38.9484L38.1274 11.5273L37.2836 11.0442L35.0293 12.271L35.0232 12.2664L35.0187 12.271L32.763 11.0442L31.9206 11.5258L31.098 12.0029H31.089L30.8799 12.1225C31.3449 12.2513 31.698 12.48 31.9964 12.7844C32.01 12.7966 32.0191 12.8102 32.0328 12.8222ZM34.1113 12.7238H35.0656H36.0185V13.3782C35.7943 13.104 35.358 13.16 35.358 13.16V14.1036C35.358 14.1036 35.3747 14.5671 35.5368 14.7685H35.0656H34.593C34.7581 14.5685 34.7733 14.1036 34.7733 14.1036V13.16C34.7733 13.16 34.3385 13.104 34.1113 13.3782V12.7238Z" fill="#FBEDD0"/>
<path d="M34.8288 11.4545V7.62419L32.3896 6.79721L33.0336 10.5094L34.8288 11.4545ZM34.3045 8.56469V9.17962L34.1864 9.12509C34.1803 9.12052 34.0076 9.08122 33.7047 8.84189C33.2047 8.45414 33.1957 8.09669 33.1957 8.09669L34.3045 8.56469Z" fill="#FBEDD0"/>
<path d="M37.0164 10.5094L37.6573 6.79721L35.2197 7.62419V11.4545L37.0164 10.5094ZM35.7439 8.56469L36.8528 8.09827C36.8528 8.09827 36.8437 8.45564 36.3423 8.84339C36.0408 9.08264 35.8666 9.12209 35.8605 9.12659L35.7424 9.18112V8.56469H35.7439Z" fill="#FBEDD0"/>
<path d="M31.3788 20.3345C31.6166 20.4209 31.9045 20.4391 32.0514 20.4391C32.0575 20.4209 32.0651 20.3982 32.0727 20.3709C32.0863 20.327 32.0984 20.2846 32.1075 20.2361C32.1483 20.0241 32.1635 19.7833 32.1665 19.6288C32.0666 19.5667 31.9257 19.4561 31.8469 19.2911C31.756 19.1002 31.6273 19.0124 31.4378 19.0124C31.1925 19.0124 30.9289 19.1593 30.8168 19.2289C30.7274 19.7576 31.1167 20.2376 31.3788 20.3345Z" fill="#FBEDD0"/>
<path d="M36.7737 18.3017C36.3207 18.794 35.4345 19.6512 35.3905 19.6952L35.3375 19.7496L32.5365 19.7057C32.5349 19.9829 32.4894 20.2192 32.4455 20.3918C32.438 20.4206 32.4304 20.4509 32.4229 20.4812L35.7556 21.0795C36.1026 20.8372 37.057 20.1404 37.4266 19.8679C37.1569 19.4741 37.1313 19.0076 37.1919 18.6788C37.0161 18.5653 36.8812 18.4381 36.7737 18.3017Z" fill="#FBEDD0"/>
<path d="M37.1543 14.9336C36.5089 15.5742 35.8894 15.8105 35.3365 15.865C35.2364 15.8756 35.135 15.8817 35.0319 15.8817H35.0243H35.0182C34.9152 15.8817 34.8122 15.8756 34.7123 15.865C34.6153 15.856 34.5138 15.8408 34.4123 15.8181C34.3759 15.962 34.3304 16.2634 34.4608 16.5481C34.5775 16.8071 34.8153 16.9995 35.1622 17.1267L35.2788 17.1721L35.2804 17.2978C35.2804 17.3357 35.3076 18.1505 36.1969 18.3762C36.3423 18.2263 36.4741 18.0914 36.5711 17.9794C36.3893 17.5522 36.4847 17.1161 36.7483 16.9025C36.7362 16.948 36.6211 18.0172 37.4785 18.414L37.6194 18.4807L37.577 18.6307C37.5633 18.676 37.2771 19.7105 38.3148 20.0952L38.4981 20.1649L38.4163 20.3436C38.3981 20.383 37.9906 21.322 38.9495 21.8551H41.0295V20.2042C40.2903 20.1133 39.9767 19.5197 39.8964 19.0987C39.5524 19.0396 39.2859 18.8911 39.1041 18.6488C38.6678 18.0748 39.0435 17.5492 39.048 17.5204C39.0465 17.525 39.048 18.0854 39.3934 18.4307C39.5646 18.5973 39.7676 18.7261 40.0751 18.7549L40.2266 18.7685L40.2403 18.9229C40.2433 18.9562 40.3266 19.7136 41.0311 19.8332L41.0295 16.4617C41.0295 15.9393 41.1825 15.4138 41.3659 14.929H37.1543V14.9336Z" fill="#FBEDD0"/>
<path d="M31.557 16.4782L31.501 18.6259L31.7448 18.6622L32.3417 16.6024L32.0387 15.9694L31.557 16.4782Z" fill="#FBEDD0"/>
<path d="M38.1374 26.3275C38.1556 26.3275 38.1767 26.3306 38.1965 26.3352C38.5676 26.4412 38.6616 27.7801 39.313 27.8998C39.3766 27.9133 39.4356 27.9164 39.4872 27.9164C39.6751 27.9164 39.7871 27.8361 39.9083 27.6937C39.9083 27.6937 39.5811 27.1787 39.3357 26.8319C39.01 26.3776 38.757 25.8278 38.1509 25.8278C38.1374 25.8278 38.1192 25.8278 38.1041 25.8293C37.904 25.8399 37.7814 25.9368 37.7814 25.9368C37.5359 25.7823 37.3071 25.7293 37.0997 25.7293C36.7194 25.7293 36.424 25.9035 36.277 25.9035H36.2709L34.9166 25.7703C34.7045 25.7506 34.5379 25.537 34.4773 25.4537C34.4621 25.431 34.4545 25.4173 34.4545 25.4173C34.4545 25.381 34.4545 25.3432 34.4515 25.3098C34.4061 24.2026 33.5487 23.7286 33.2441 23.7211C33.2441 23.7211 33.2805 23.5105 33.1972 23.4302L32.8987 23.7922L31.9186 23.3L32.6169 24.1163L32.0246 24.7813C31.9504 24.8569 31.9595 24.9599 31.9898 25.0024L32.2458 25.228L32.57 25.0311C32.5867 25.0189 32.6154 25.016 32.6517 25.016C32.7412 25.016 32.876 25.0387 32.9972 25.0387C33.129 25.0387 33.2441 25.0099 33.2578 24.8857C33.2169 25.2962 32.8366 26.0095 33.0866 26.5699L33.2714 26.9925L32.0746 26.8198L31.5141 27.7664C31.3414 28.0815 31.3141 28.4222 31.4807 28.607L31.6898 28.8691C31.6898 28.8691 31.9837 28.5571 32.0504 28.3525L31.9549 28.2481C31.8746 28.1602 31.8792 28.0815 31.9277 27.986L32.2791 27.403L33.6926 27.7361L33.7667 27.6089C33.8622 27.4499 34.0001 27.4015 34.1516 27.4015C34.2137 27.4015 34.2773 27.409 34.344 27.4196C34.6061 27.4711 35.0378 27.5407 35.4696 27.5407C35.9437 27.5407 36.4134 27.456 36.6634 27.1757C37.1753 27.9346 38.2131 28.0557 38.1313 28.4404L37.8586 29.7399C38.0389 29.7323 38.2131 29.7202 38.3782 29.6975L38.6373 28.345C38.6661 28.198 38.6934 27.9997 38.6934 27.9997C38.5934 27.8982 38.351 27.6831 38.2146 27.4226C38.0313 27.0712 38.1313 26.888 37.9601 26.4306C37.9662 26.4336 38.0177 26.3275 38.1374 26.3275ZM32.8502 24.4283C32.7806 24.4269 32.7305 24.3678 32.7336 24.298C32.7397 24.2314 32.7957 24.1785 32.8639 24.1845C32.9336 24.1875 32.9835 24.2481 32.9806 24.3147C32.9745 24.3814 32.9169 24.4328 32.8502 24.4283Z" fill="#FBEDD0"/>
<path d="M30.92 27.5574C30.92 27.5574 31.3881 27.365 31.4305 27.2273L31.3684 27.0712C31.3245 26.9697 31.3306 26.8592 31.4154 26.7986L31.9214 26.4487L32.7667 26.6108C32.7667 26.6108 32.6137 26.42 32.6289 26.164L31.823 25.9928L31.0624 26.4563C30.7367 26.7002 30.7125 27.0984 30.82 27.3348L30.92 27.5574Z" fill="#FBEDD0"/>
<path d="M36.8945 29.7595C37.046 29.7534 37.2126 29.7503 37.396 29.7503C37.396 29.7503 37.8308 28.4797 37.855 28.4387C37.6111 28.3313 37.1051 28.0632 36.9097 27.9404C37.0385 28.1329 37.352 28.3539 37.2899 28.5236L36.8945 29.7595Z" fill="#FBEDD0"/>
<path d="M41.0336 22.2232H29.0156V26.7427C29.0156 28.5904 30.3533 29.7475 32.3272 29.7475C33.9771 29.7475 34.4118 29.8111 35.0254 30.42C35.448 29.9989 35.798 29.8414 36.5161 29.7823L36.5328 29.7127L36.9115 28.5419C36.8903 28.5162 36.2707 27.8119 36.2707 27.8119C36.0252 27.8937 35.8192 27.9073 35.4723 27.9073C35.1163 27.9073 34.7148 27.8665 34.28 27.7846C34.2361 27.7741 34.1953 27.771 34.1543 27.771C34.1012 27.771 34.0967 27.7756 34.0831 27.8013L34.0073 27.9255L33.8695 28.1527L33.6104 28.0936L32.4576 27.8226L32.3 28.083L32.3243 28.1103L32.4651 28.2648L32.4031 28.4662C32.3182 28.7297 32.0425 29.0371 31.9591 29.122L31.6713 29.431L31.4093 29.0993L31.2122 28.8524C31.0048 28.6207 30.9562 28.2648 31.0729 27.8922C31.0699 27.8952 31.0654 27.8968 31.0608 27.8968L30.7351 28.0315L30.5881 27.7135L30.4851 27.4878C30.3078 27.091 30.373 26.5109 30.8502 26.161L31.7789 25.637L32.6621 25.8112C32.6833 25.7264 32.7151 25.4235 32.7408 25.3462C32.7241 25.3447 32.7075 25.3402 32.6909 25.3402L32.1818 25.5295L31.691 25.1902C31.691 25.1902 31.4987 25.0054 31.6728 24.8206L32.1485 24.1012L30.9442 22.5897L32.7954 23.35L32.918 23.197L33.1681 22.8987L33.4513 23.1682C33.5317 23.2455 33.5771 23.341 33.5998 23.4364C34.1103 23.6347 35.0238 24.2209 35.1041 25.1735L34.8178 25.2886V25.2962C34.883 25.3735 34.9374 25.4053 34.9542 25.4083L36.2752 25.5386C36.3085 25.5325 36.3509 25.5173 36.3979 25.5037C36.5615 25.4477 36.8084 25.3674 37.1009 25.3674C37.3387 25.3674 37.569 25.4219 37.7901 25.525C37.8719 25.4947 37.9719 25.4719 38.0871 25.4644L38.1507 25.4628C38.8581 25.4628 39.2096 25.9914 39.4914 26.4124C39.5384 26.4851 39.5853 26.5549 39.6339 26.623C39.8808 26.9713 40.2034 27.4817 40.217 27.503L40.3625 27.7301L40.1837 27.9376C40.0459 28.0966 39.8398 28.2829 39.4854 28.2829C39.4126 28.2829 39.3323 28.2754 39.246 28.2587C39.1702 28.2451 39.1021 28.2223 39.0354 28.1951C39.0247 28.2648 39.0112 28.3481 38.9975 28.4193L38.7657 29.6278C40.152 29.2871 41.0321 28.2406 41.0321 26.7442L41.0336 22.2232Z" fill="#DCA34C"/>
<path d="M29.0159 21.8598H38.3616C37.8949 21.3782 37.9009 20.7679 38.0206 20.371C37.8843 20.3059 37.7722 20.2271 37.6722 20.1423C37.3071 20.4119 36.1921 21.2237 35.9013 21.4267L35.8392 21.469L32.1714 20.8057H32.0972C32.0094 20.8057 31.8806 20.8027 31.7397 20.786C31.7003 20.9511 31.5579 21.0647 31.3943 21.0647C31.3761 21.0647 31.3549 21.0632 31.3352 21.0586C31.2398 21.0419 31.1564 20.9935 31.1004 20.9132C31.0428 20.8345 31.0201 20.7406 31.0368 20.6437L31.0504 20.5649C30.6717 20.2983 30.3233 19.7031 30.4778 19.0761L30.4929 19.0094L30.5459 18.9715C30.5535 18.9655 30.6171 18.9232 30.7111 18.8686L30.4445 18.8277C30.3444 18.8095 30.2778 18.7171 30.293 18.6187C30.3096 18.5187 30.4035 18.4475 30.502 18.4672L31.1368 18.5672L31.1943 16.3317L32.1396 15.332L32.729 16.5725L32.1064 18.7231L32.6669 18.811C32.7654 18.8262 32.8335 18.9185 32.8184 19.02C32.8031 19.1094 32.7275 19.1714 32.6381 19.1714C32.6289 19.1714 32.6183 19.1714 32.6093 19.17L32.1532 19.0957C32.1594 19.1094 32.1685 19.117 32.1745 19.1321C32.223 19.232 32.3305 19.3048 32.3942 19.3351L35.1907 19.3789C35.3089 19.2639 35.6028 18.976 35.9042 18.6717C35.2165 18.4111 34.9666 17.8174 34.9241 17.4237C34.5393 17.26 34.2742 17.0148 34.1273 16.6952C33.9484 16.2999 34.0122 15.9046 34.0591 15.7122C33.6864 15.5759 33.294 15.3275 32.8941 14.9307H28.6826C28.8629 15.4153 29.0159 15.9409 29.0159 16.4635V21.8598Z" fill="#DCA34C"/>
<path d="M32.865 24.1844C32.7968 24.1784 32.7391 24.2314 32.7347 24.2981C32.7301 24.3677 32.7815 24.4268 32.8513 24.4283C32.918 24.4343 32.977 24.3828 32.983 24.3147C32.983 24.248 32.9346 24.186 32.865 24.1844Z" fill="#5B5A5F"/>
<path d="M41.0175 32.3796L40.3252 32.1145L40.516 31.3996L40.7266 30.6197C40.7266 30.6197 39.4996 31.2845 37.771 31.7844C37.2802 31.9252 36.909 31.9888 36.909 31.9888V32.5189C36.909 32.5189 35.9848 32.6795 35.0502 32.6795H35.0396H35.026H35.0078H34.9972C34.0624 32.6795 33.1384 32.5189 33.1384 32.5189V31.9888C33.1384 31.9888 32.7656 31.9252 32.2764 31.7844C30.5478 31.2845 29.3222 30.6197 29.3222 30.6197L29.5298 31.3996L29.7252 32.1145L29.0313 32.3796L28.2617 32.6674C29.145 33.093 30.3675 33.7139 31.4871 34.0198L31.2235 34.7407C31.2235 34.7407 32.6429 35.3875 35.0078 35.3935V35.3951H35.0153H35.026H35.035H35.0411V35.3935C37.4089 35.3875 38.8269 34.7407 38.8269 34.7407L38.5618 34.0198C39.6813 33.7139 40.9069 33.093 41.7856 32.6674L41.0175 32.3796ZM29.0829 32.7158L30.2221 32.3371L29.8858 31.2391C30.3872 31.5238 31.5128 31.951 32.1642 32.1493L31.6143 33.6594C30.6084 33.3823 29.7706 33.0596 29.0829 32.7158ZM35.026 35.0149C33.7035 35.0149 32.193 34.7104 31.7491 34.5529L32.4248 32.7249C32.9853 32.8885 34.1519 33.0627 34.9986 33.0566H35.0002H35.026H35.0487H35.0517C35.8986 33.0627 37.062 32.8885 37.6255 32.7249L38.2997 34.5529C37.8558 34.712 36.3469 35.0149 35.026 35.0149ZM38.4345 33.6594L37.8862 32.1493C38.5391 31.951 39.6617 31.5238 40.1646 31.2391L39.8298 32.3371L40.9675 32.7158C40.2782 33.0596 39.445 33.3823 38.4345 33.6594Z" fill="#5B5A5F"/>
<path d="M35.0239 3.84552C36.4328 3.84552 37.56 4.31196 38.1825 4.81024C38.1825 4.81024 38.3674 3.6971 38.9991 2.71416L37.8644 2.84288L37.2706 1.58125L36.1298 2.16884L35.0239 1.07541L33.921 2.16884L32.7788 1.58125L32.1864 2.84288L31.0518 2.71416C31.6835 3.6971 31.8683 4.81024 31.8683 4.81024C32.4925 4.31196 33.6166 3.84552 35.0239 3.84552ZM32.1349 3.2851L32.45 3.31843L32.5864 3.03218L32.9834 2.18403L33.7196 2.56419L34.0044 2.70957L34.2317 2.48546L35.0254 1.69789L35.8208 2.48546L36.048 2.70957L36.3328 2.56419L37.0645 2.18403L37.466 3.03218L37.5993 3.31843L37.9144 3.2851L38.2143 3.24873C38.0765 3.55927 37.975 3.85307 37.9023 4.09688C37.1084 3.65467 36.0753 3.40322 35.0224 3.40322C33.974 3.40322 32.9424 3.65467 32.1456 4.09688C32.0713 3.85307 31.9714 3.55771 31.8335 3.24873L32.1349 3.2851Z" fill="#5B5A5F"/>
<path d="M51.5536 18.617C53.3761 18.617 53.985 16.7632 54.0108 16.6844L54.2138 16.0317L53.5306 16.0529H53.5276C53.2867 16.0529 51.2764 15.9998 49.8508 14.1884L49.7159 14.0203C48.7843 12.836 47.9011 11.7107 46.3225 11.1972C46.368 11.1563 46.4332 11.1048 46.5226 11.0473C47.3602 10.496 47.8481 9.82651 47.9708 9.04959C48.1496 7.88026 47.4042 6.94888 47.3708 6.91095L46.8634 6.28395L46.5468 7.0276C46.5256 7.07456 45.9923 8.26501 44.8713 8.26501H44.7879C44.7107 8.26044 44.638 8.25736 44.5652 8.25136C44.6046 7.71976 44.5076 6.89733 43.7624 6.12642C42.867 5.19799 41.7672 5.05869 41.1915 5.05869C40.8839 5.05869 40.6794 5.09653 40.6582 5.09957L39.8916 5.25102L40.3643 5.87351C40.7355 6.35364 41.0718 7.23964 40.6733 7.70311C40.5461 7.84996 40.2841 7.96966 40.0325 8.08929C39.5159 8.32711 38.8115 8.65726 38.8115 9.49944C38.8115 10.0446 39.2342 10.6141 40.0008 11.0987C42.2701 12.5255 43.6699 14.0142 44.2744 15.6576C45.2091 18.1854 43.9895 19.6272 42.8049 20.3861L42.2731 20.7284L42.7382 21.1554C42.8003 21.2099 43.3699 21.7113 44.2107 21.7839C44.3698 21.7946 44.5228 21.8036 44.6652 21.8036C45.2046 21.8036 45.6636 21.7188 46.0363 21.6053C45.9333 21.7855 45.8075 21.9687 45.6484 22.1535C44.9712 22.938 44.1381 23.2955 42.9397 23.3137L42.4943 23.3213L42.4595 23.768C42.455 23.8574 42.4216 24.6859 43.2063 25.3901C43.326 25.4992 43.4714 25.5885 43.623 25.6628C43.0912 26.1413 42.5504 26.9744 42.4459 28.4026C42.358 29.5945 42.0732 30.0353 42.0701 30.0398L41.5778 30.791L42.4671 30.8032C43.9365 30.8032 45.0621 30.3973 45.8423 29.5945C46.3028 29.119 46.5665 28.5828 46.7225 28.1072C46.9785 28.3253 47.3088 28.5162 47.739 28.6177C47.9027 28.6555 48.0814 28.6768 48.2738 28.6768C48.6889 28.6768 49.0358 28.5889 49.0752 28.5798L49.6433 28.4284L49.3918 27.8982C49.3736 27.8558 48.8995 26.7926 49.41 25.275C49.6297 24.6192 49.7417 24.0316 49.7963 23.5742C50.1538 23.7605 50.6325 23.915 51.2521 23.9165C52.658 23.9165 53.2777 22.8668 53.3064 22.823L53.5836 22.3413L53.0701 22.1293C51.3945 21.4341 51.0234 19.5666 50.9492 18.5549C51.1007 18.5837 51.2733 18.611 51.4688 18.617H51.5536ZM52.8822 22.5761C52.8822 22.5761 52.3914 23.4287 51.2658 23.4287H51.2521C49.9008 23.4212 49.3554 22.5973 49.3554 22.5973C49.3554 22.5973 49.4342 23.6696 48.9464 25.1159C48.3602 26.8593 48.9509 28.1057 48.9509 28.1057C48.9509 28.1057 48.6359 28.1906 48.2723 28.1906C48.1329 28.1906 47.9875 28.1769 47.8511 28.1405C46.7225 27.8725 46.4408 26.8456 46.4408 26.8456C46.4408 26.8456 46.5452 30.3155 42.4989 30.3155H42.4671C42.4671 30.3155 42.8231 29.8309 42.9291 28.4359C43.1215 25.8611 44.8652 25.5083 44.8652 25.5083C44.8652 25.5083 43.935 25.3916 43.532 25.0297C42.9019 24.4586 42.9458 23.7983 42.9458 23.7983C44.3698 23.7786 45.3015 23.294 46.012 22.4716C46.7816 21.581 46.9089 20.6223 46.9089 20.6223C46.9089 20.6223 46.1438 21.316 44.6636 21.316C44.5334 21.316 44.394 21.3099 44.2517 21.2963C43.5518 21.2402 43.067 20.795 43.067 20.795C44.6077 19.8074 45.6893 18.0839 44.7304 15.4879C43.9623 13.4084 42.1171 11.8544 40.2598 10.6837C39.6417 10.2976 39.2978 9.86889 39.2978 9.49944C39.2978 8.62996 40.5339 8.60274 41.0415 8.01811C41.6263 7.33962 41.2597 6.23848 40.7521 5.57667C40.7521 5.57667 40.9234 5.54178 41.193 5.54178C41.7277 5.54178 42.6534 5.67657 43.4139 6.46422C44.4243 7.50924 44.0047 8.64669 44.0047 8.64669L44.2759 8.69971C44.438 8.73451 44.5986 8.74059 44.7653 8.74809C44.8016 8.74809 44.8379 8.74966 44.8742 8.74966C46.3422 8.74966 46.9982 7.21542 46.9982 7.21542C46.9982 7.21542 48.5586 9.13434 46.2619 10.6368C45.8665 10.8943 45.6924 11.1321 45.7378 11.3865L45.7741 11.5531L45.9377 11.5819C47.6027 12.0332 48.445 13.1813 49.4737 14.4869C51.0356 16.4724 53.2458 16.536 53.5185 16.536H53.5473C53.5473 16.536 53.0428 18.1278 51.5567 18.1278C51.5324 18.1278 51.5112 18.1278 51.4855 18.1263C50.8022 18.1021 50.4522 17.84 50.4522 17.84C50.4522 17.84 50.1841 21.4553 52.8822 22.5761Z" fill="#5B5A5F"/>
<path d="M48.3523 11.3971C49.0324 11.759 49.4278 12.2437 49.7748 12.6738C50.1156 13.0934 50.4398 13.4978 50.9458 13.6658C51.126 13.7279 51.317 13.7567 51.5109 13.7567C52.2714 13.7567 53.0349 13.2917 53.3243 12.648L53.6152 12.0029L52.9107 11.9604C52.8774 11.959 51.9714 11.8771 50.9625 10.8458C50.5473 10.4231 50.046 10.2005 49.5051 10.2005C48.8446 10.2005 48.3553 10.5307 48.3008 10.564L47.6523 11.0199L48.3523 11.3971ZM49.5066 10.6882C49.846 10.6882 50.2414 10.8033 50.6155 11.1896C51.7896 12.3815 52.8818 12.4481 52.8818 12.4481C52.6834 12.8874 52.1078 13.2735 51.5123 13.2735C51.3745 13.2735 51.2367 13.2524 51.0988 13.2054C50.2914 12.9328 50.002 11.7212 48.5825 10.9669C48.5825 10.9669 48.9794 10.6882 49.5066 10.6882Z" fill="#5B5A5F"/>
<path d="M48.6707 17.8324V17.8566C48.2617 14.5579 45.865 12.1756 43.1987 10.726C42.9517 10.5943 42.7245 10.4823 42.5034 10.3747C43.3154 10.5004 44.6227 10.5156 45.6317 9.6402C45.6317 9.6402 44.088 10.7761 40.9248 9.74467C41.8004 10.3126 43.5017 11.1139 45.0545 12.4118C48.9373 15.8226 46.1589 19.1501 46.1589 19.1501C47.5542 17.6946 47.6117 16.1346 47.2011 14.8609C47.9359 16.0831 48.4056 17.5674 48.3328 19.3969C48.2253 22.0186 46.7846 24.286 45.2681 26.108C44.5395 26.9924 44.3758 28.0784 44.3758 28.0784C44.3758 28.0784 44.6697 27.1197 45.5135 26.1337C47.1391 24.2314 48.5282 22.255 48.71 19.4075C48.8782 19.924 49.5706 21.3613 50.6688 21.9021C50.6719 21.9036 49.2918 21.0721 48.6707 17.8324Z" fill="#5B5A5F"/>
<path d="M27.9783 30.0381C27.9768 30.0336 27.695 29.5928 27.6042 28.4009C27.498 26.9726 26.9587 26.1397 26.4255 25.661C26.58 25.5883 26.7224 25.4989 26.8421 25.3884C27.6253 24.6841 27.592 23.8557 27.5875 23.7663L27.5572 23.3194L27.1087 23.3119C25.9134 23.2922 25.0787 22.9348 24.4015 22.1518C24.244 21.967 24.1167 21.7837 24.0137 21.6035C24.3864 21.7171 24.8424 21.8019 25.3832 21.8019C25.5286 21.8019 25.6786 21.7928 25.8377 21.7822C26.6784 21.7095 27.2481 21.2098 27.3117 21.1537L27.7768 20.7266L27.2451 20.3842C26.0559 19.624 24.8408 18.1822 25.774 15.6558C26.3785 14.0125 27.7768 12.5237 30.0492 11.097C30.8157 10.6123 31.2354 10.0429 31.2354 9.49761C31.2354 8.65559 30.5325 8.32386 30.0159 8.08761C29.7645 7.96791 29.5024 7.84829 29.375 7.70136C28.9752 7.23942 29.3129 6.35187 29.6826 5.87174L30.1583 5.24925L29.3888 5.0978C29.366 5.09484 29.1645 5.05692 28.8554 5.05692C28.2798 5.05692 27.183 5.1963 26.2861 6.12473C25.5393 6.89712 25.4408 7.71959 25.4787 8.24961C25.4059 8.25569 25.3333 8.25876 25.2575 8.26326H25.1757C24.0516 8.26326 23.5199 7.07279 23.4987 7.02583L23.182 6.28218L22.67 6.90927C22.6412 6.9471 21.8928 7.88009 22.0746 9.04776C22.1958 9.82476 22.6836 10.4942 23.5214 11.0455C23.6123 11.1031 23.6759 11.1545 23.7214 11.1955C22.1442 11.7088 21.2626 12.8357 20.3309 14.0201L20.1961 14.1883C18.7721 15.9996 16.7572 16.0526 16.5164 16.0526L15.8301 16.0315L16.0391 16.6843C16.0633 16.7629 16.6708 18.6168 18.4948 18.6168L18.5827 18.6138C18.7751 18.6077 18.9478 18.582 19.1023 18.5517C19.0265 19.5619 18.6554 21.4294 16.9783 22.126L16.4663 22.3381L16.7436 22.8197C16.7709 22.8636 17.392 23.9132 18.8009 23.9132C19.4159 23.9116 19.8946 23.7572 20.2536 23.5709C20.3082 24.0283 20.4203 24.616 20.6399 25.2718C21.1504 26.7894 20.6748 27.8526 20.6566 27.895L20.4052 28.4251L20.9747 28.5766C21.0126 28.5856 21.3626 28.6735 21.7761 28.6735C21.97 28.6735 22.1489 28.6522 22.3094 28.6144C22.7411 28.513 23.0744 28.3221 23.3275 28.104C23.482 28.5796 23.7472 29.1157 24.2061 29.5912C24.9879 30.394 26.1119 30.7999 27.5814 30.7999L28.4722 30.7878L27.9783 30.0381ZM27.548 30.3152C23.5017 30.3152 23.6047 26.8453 23.6047 26.8453C23.6047 26.8453 23.3229 27.8722 22.1943 28.1404C22.0594 28.1767 21.9155 28.1903 21.7747 28.1903C21.4111 28.1903 21.0974 28.1056 21.0974 28.1056C21.0974 28.1056 21.6853 26.859 21.099 25.1158C20.6142 23.6693 20.693 22.597 20.693 22.597C20.693 22.597 20.1491 23.421 18.7963 23.4286H18.7827C17.6571 23.4286 17.1662 22.5758 17.1662 22.5758C19.8628 21.4566 19.5977 17.8429 19.5977 17.8429C19.5977 17.8429 19.2478 18.1033 18.563 18.1291C18.5388 18.1306 18.516 18.1306 18.4918 18.1306C17.0041 18.1306 16.5012 16.5388 16.5012 16.5388H16.5314C16.8057 16.5388 19.013 16.4752 20.5749 14.4896C21.6035 13.1841 22.4473 12.0376 24.1092 11.5846L24.2759 11.5559L24.3122 11.3893C24.3576 11.1349 24.1849 10.8971 23.7896 10.6396C21.4928 9.13559 23.0533 7.21824 23.0533 7.21824C23.0533 7.21824 23.7062 8.75091 25.1772 8.75091C25.2135 8.75091 25.2469 8.74949 25.2848 8.74949C25.4499 8.74034 25.6135 8.73426 25.774 8.69946L26.0452 8.64644C26.0452 8.64644 25.6256 7.50899 26.6376 6.46393C27.3981 5.67488 28.3238 5.54157 28.8569 5.54157C29.1281 5.54157 29.2963 5.57646 29.2963 5.57646C28.7903 6.23982 28.4237 7.33941 29.0085 8.01786C29.5144 8.60106 30.7491 8.62979 30.7491 9.49911C30.7491 9.86721 30.4052 10.2973 29.7871 10.6835C27.9283 11.8543 26.0831 13.4082 25.3165 15.4877C24.3591 18.0837 25.4393 19.8057 26.983 20.7947C26.983 20.7947 26.4982 21.2401 25.7968 21.296C25.6544 21.3097 25.5165 21.3157 25.3832 21.3157C23.9046 21.3157 23.1396 20.6221 23.1396 20.6221C23.1396 20.6221 23.2669 21.5808 24.0319 22.4713C24.747 23.2938 25.6786 23.7784 27.1027 23.7981C27.1027 23.7981 27.1482 24.4585 26.5179 25.0294C26.1134 25.3899 25.1832 25.508 25.1832 25.508C25.1832 25.508 26.9285 25.861 27.1193 28.4357C27.2239 29.8306 27.5768 30.3152 27.5768 30.3152H27.548Z" fill="#5B5A5F"/>
<path d="M18.5358 13.7584C18.7312 13.7584 18.9221 13.7296 19.1024 13.6675C19.6113 13.4994 19.934 13.095 20.2749 12.6755C20.6233 12.2454 21.0157 11.7607 21.6959 11.3987L22.3958 11.0231L21.7459 10.5672C21.6914 10.5324 21.2035 10.2037 20.5445 10.2037C20.0022 10.2037 19.4993 10.4249 19.0856 10.849C18.0768 11.8789 17.1724 11.9622 17.139 11.9637L16.4346 12.0046L16.7239 12.6512C17.0148 13.2919 17.7767 13.7584 18.5358 13.7584ZM19.4326 11.1913C19.8084 10.805 20.2037 10.69 20.5445 10.69C21.0687 10.69 21.4657 10.9686 21.4657 10.9686C20.0477 11.7244 19.7568 12.9345 18.9463 13.2071C18.813 13.2541 18.6736 13.2753 18.5358 13.2753C17.9404 13.2753 17.3647 12.8906 17.1677 12.4498C17.1677 12.4483 18.2585 12.3817 19.4326 11.1913Z" fill="#5B5A5F"/>
<path d="M21.7155 19.3985C21.6397 17.5689 22.1093 16.0846 22.8456 14.8624C22.435 16.1361 22.4911 17.6962 23.8879 19.1516C23.8879 19.1516 21.1095 15.8241 24.9938 12.4134C26.5481 11.1154 28.2479 10.3141 29.1219 9.74617C25.9604 10.7776 24.4167 9.64169 24.4167 9.64169C25.4255 10.5171 26.733 10.502 27.545 10.3747C27.3253 10.4823 27.0951 10.5943 26.8511 10.7262C24.1818 12.1756 21.7867 14.5579 21.3762 17.8567V17.8309C20.7565 21.0706 19.3779 21.9021 19.3779 21.9021C20.4748 21.3613 21.1656 19.9255 21.3338 19.4075C21.5171 22.255 22.9062 24.2314 24.5318 26.1337C25.3756 27.1197 25.6725 28.0784 25.6725 28.0784C25.6725 28.0784 25.5074 26.9925 24.7756 26.108C23.2622 24.289 21.8215 22.0202 21.7155 19.3985Z" fill="#5B5A5F"/>
<path d="M34.1104 12.7238V13.3782C34.3362 13.104 34.7725 13.1601 34.7725 13.1601V14.1036C34.7725 14.1036 34.7573 14.5671 34.5922 14.7685H35.0648H35.536C35.3739 14.5687 35.3572 14.1036 35.3572 14.1036V13.1601C35.3572 13.1601 35.7935 13.104 36.0177 13.3782V12.7238H35.0648H34.1104Z" fill="#5B5A5F"/>
<path d="M33.7044 8.84348C34.0059 9.08288 34.1801 9.12218 34.1861 9.12676L34.3043 9.18128V8.56486L33.1953 8.09836C33.1953 8.09986 33.2059 8.45581 33.7044 8.84348Z" fill="#5B5A5F"/>
<path d="M36.3425 8.84348C36.844 8.45581 36.8531 8.09836 36.8531 8.09836L35.7441 8.56486V9.18128L35.8608 9.12676C35.8684 9.12218 36.0411 9.08288 36.3425 8.84348Z" fill="#5B5A5F"/>
<path d="M38.3403 6.33389C38.3403 5.39947 36.7662 4.55887 35.0286 4.55887H35.0271H35.0225H35.018C33.2804 4.55887 31.7064 5.39947 31.7064 6.33389L31.7412 6.56415L32.435 10.5459L31.7382 10.9503L29.9354 12.0029H29.9415C29.9415 12.0029 29.5355 12.2105 29.3476 12.3392C28.6613 12.8162 28.5159 13.5114 28.9143 13.7992C29.0128 13.2328 29.4611 12.639 30.3005 12.639C30.905 12.639 31.3655 12.9511 31.7382 13.4191C31.8336 13.5372 31.9245 13.6628 32.0093 13.7992C32.1138 13.9703 32.2184 14.1203 32.3229 14.2657H27.6797C28.0205 14.9517 28.3447 15.6788 28.3447 16.4678V26.7426C28.3447 29.2295 30.2581 30.4169 32.3275 30.4169C33.9272 30.4169 34.1424 30.3442 35.0255 31.2227C35.9042 30.3427 36.1193 30.4169 37.7206 30.4169C39.7916 30.4169 41.7018 29.2295 41.7018 26.7426V16.4678C41.7018 15.6788 42.026 14.9517 42.3684 14.2657H37.7237C37.8267 14.1218 37.9311 13.9703 38.0357 13.7992C38.1221 13.6628 38.2114 13.5372 38.3054 13.4191C38.6811 12.9495 39.1401 12.639 39.7446 12.639C40.5838 12.639 41.0307 13.2312 41.1307 13.7992C41.5292 13.5114 41.3853 12.8162 40.6944 12.3392C40.5096 12.2105 40.1036 12.0029 40.1036 12.0029H40.1096L38.3069 10.9503L37.6131 10.5459L38.3069 6.56415L38.3403 6.33389ZM32.3896 6.79737L34.8286 7.62435V11.4547L33.0335 10.5081L32.3896 6.79737ZM32.8941 14.9336C33.294 15.3319 33.6863 15.5789 34.0591 15.7151C34.0106 15.9074 33.9469 16.3042 34.1271 16.6996C34.2742 17.0176 34.5408 17.263 34.9241 17.4266C34.9665 17.8204 35.2149 18.4126 35.9042 18.6746C35.6027 18.979 35.3088 19.2652 35.1891 19.3819L32.3941 19.3379C32.3305 19.3061 32.2229 19.235 32.1744 19.1335C32.1683 19.1198 32.1593 19.1123 32.1547 19.0971L32.6108 19.1713C32.6214 19.1729 32.6305 19.1729 32.6396 19.1729C32.7274 19.1729 32.8047 19.1123 32.8198 19.0214C32.835 18.92 32.7668 18.8275 32.6683 18.8124L32.1078 18.7246L32.7304 16.5754L32.1411 15.335L31.1959 16.3346L31.1382 18.5701L30.5035 18.4701C30.405 18.4504 30.3111 18.5231 30.2944 18.6215C30.2793 18.72 30.3459 18.8124 30.4459 18.8306L30.7126 18.8714C30.6171 18.926 30.555 18.9684 30.5474 18.9745L30.4929 19.0123L30.4777 19.0789C30.3232 19.706 30.6731 20.3011 31.0504 20.5677L31.0367 20.6465C31.0216 20.7435 31.0428 20.8374 31.1003 20.9161C31.1549 20.9964 31.2397 21.0449 31.3337 21.0615C31.3533 21.0645 31.3746 21.066 31.3927 21.066C31.5564 21.066 31.6988 20.9525 31.7396 20.7874C31.8806 20.8041 32.0093 20.8071 32.0971 20.8071H32.1715L35.839 21.4689L35.9011 21.428C36.1936 21.2236 37.307 20.4118 37.6721 20.1437C37.7721 20.2301 37.8842 20.3087 38.0206 20.3739C37.9024 20.7707 37.8948 21.3811 38.3629 21.8627H29.0158V16.4693C29.0158 15.9468 28.8628 15.4213 28.6825 14.9366H32.8941V14.9336ZM37.4267 19.868C37.0556 20.1407 36.1012 20.8374 35.7557 21.0797L32.4229 20.4815C32.4305 20.4511 32.438 20.4224 32.4456 20.3921C32.4896 20.2194 32.5335 19.9832 32.5365 19.706L35.3376 19.7514L35.3906 19.697C35.4331 19.6545 36.3209 18.7973 36.7737 18.3035C36.8814 18.4383 37.0162 18.5671 37.1919 18.6806C37.1313 19.0078 37.157 19.4742 37.4267 19.868ZM31.8473 19.291C31.926 19.4561 32.0684 19.5667 32.1668 19.6287C32.1639 19.7832 32.1487 20.024 32.1078 20.236C32.0987 20.2831 32.0866 20.327 32.0729 20.3709C32.0653 20.3981 32.0579 20.4208 32.0517 20.439C31.9048 20.439 31.6154 20.4209 31.3791 20.3345C31.1171 20.2376 30.7261 19.7575 30.817 19.2289C30.9307 19.1592 31.1927 19.0123 31.4381 19.0123C31.6276 19.0108 31.7564 19.1001 31.8473 19.291ZM31.5003 18.6261L31.5564 16.48L32.0381 15.9696L32.3411 16.6027L31.7442 18.6624L31.5003 18.6261ZM37.3964 29.752C37.2146 29.752 37.0465 29.7551 36.8949 29.7611L37.2918 28.5268C37.354 28.3556 37.0404 28.136 36.9117 27.9436C37.107 28.0663 37.6131 28.3344 37.857 28.4419C37.8312 28.4813 37.3964 29.752 37.3964 29.752ZM38.6417 28.3495L38.3827 29.7005C38.2175 29.7232 38.0418 29.7354 37.8615 29.743L38.1342 28.4434C38.216 28.0573 37.1782 27.9376 36.6662 27.1788C36.4163 27.4606 35.9451 27.5438 35.4724 27.5438C35.0407 27.5438 34.6089 27.4741 34.3468 27.4227C34.2802 27.412 34.2166 27.4045 34.1545 27.4045C34.0029 27.4045 33.8651 27.4514 33.7697 27.612L33.6939 27.7393L32.2805 27.406L31.929 27.9875C31.879 28.0815 31.876 28.1617 31.9562 28.2496L32.0517 28.3541C31.9866 28.5601 31.6927 28.8706 31.6927 28.8706L31.4821 28.6086C31.3155 28.4223 31.3427 28.083 31.5169 27.768L32.0775 26.8214L33.2743 26.994L33.088 26.5699C32.838 26.0096 33.2183 25.2962 33.2591 24.8858C33.2455 25.01 33.1319 25.0372 32.9986 25.0372C32.8774 25.0372 32.7426 25.0145 32.6532 25.0145C32.6184 25.0145 32.588 25.0175 32.5713 25.0296L32.2471 25.2265L31.9911 25.0009C31.9609 24.957 31.9502 24.8555 32.026 24.7798L32.6184 24.1164L31.9185 23.3L32.8986 23.7923L33.1971 23.4303C33.2788 23.5105 33.244 23.721 33.244 23.721C33.55 23.7286 34.4074 24.2027 34.4529 25.3083C34.456 25.3417 34.456 25.3795 34.456 25.4158C34.456 25.4158 34.4636 25.4295 34.4786 25.4522C34.5392 25.5355 34.7059 25.7491 34.9179 25.7687L36.2724 25.9021H36.2784C36.4269 25.9021 36.7223 25.7278 37.101 25.7278C37.307 25.7278 37.5373 25.7809 37.7827 25.9354C37.7827 25.9354 37.9054 25.8385 38.1054 25.8279C38.1206 25.8263 38.1372 25.8263 38.1524 25.8263C38.7599 25.8263 39.0113 26.3746 39.337 26.8305C39.5825 27.1773 39.9096 27.6922 39.9096 27.6922C39.7885 27.8361 39.6764 27.9149 39.4885 27.9149C39.4371 27.9149 39.3779 27.9103 39.3143 27.8983C38.6629 27.7786 38.569 26.4397 38.1978 26.3337C38.1782 26.3276 38.157 26.3261 38.1388 26.3261C38.019 26.3261 37.966 26.4321 37.966 26.4321C38.1357 26.888 38.0372 27.0728 38.219 27.4242C38.3554 27.6847 38.5978 27.8997 38.6977 28.0012C38.6977 28.0042 38.6705 28.2011 38.6417 28.3495ZM31.3685 27.0712L31.4306 27.2272C31.3897 27.3636 30.92 27.5575 30.92 27.5575L30.8186 27.3364C30.711 27.1001 30.7337 26.7017 31.061 26.4579L31.8215 25.9944L32.6274 26.1655C32.6123 26.4215 32.7652 26.6124 32.7652 26.6124L31.9199 26.4503L31.4139 26.8002C31.3291 26.8592 31.323 26.9698 31.3685 27.0712ZM38.7689 29.6263L39.0008 28.4177C39.0128 28.3465 39.028 28.2632 39.0386 28.1936C39.1038 28.2208 39.1734 28.2435 39.2492 28.2572C39.3355 28.2738 39.4158 28.2814 39.4885 28.2814C39.843 28.2814 40.049 28.0951 40.1869 27.9361L40.3657 27.7285L40.2203 27.5014C40.2066 27.4786 39.8854 26.9698 39.637 26.6214C39.5886 26.5533 39.5415 26.4851 39.4946 26.4109C39.2128 25.9899 38.8598 25.4613 38.1524 25.4613L38.0887 25.4628C37.9721 25.4704 37.8721 25.4931 37.7918 25.5234C37.5691 25.4189 37.3404 25.3659 37.1026 25.3659C36.8101 25.3659 36.5632 25.4461 36.3996 25.5022C36.3526 25.5158 36.3102 25.531 36.2769 25.537L34.9543 25.4068C34.9377 25.4038 34.8831 25.372 34.818 25.2932V25.2871L35.1043 25.172C35.0241 24.2194 34.109 23.6332 33.5985 23.4348C33.5758 23.3394 33.5303 23.244 33.45 23.1668L33.1652 22.8972L32.9152 23.1971L32.7926 23.35L30.9413 22.5897L32.1457 24.1012L31.67 24.8206C31.4958 25.0054 31.6882 25.1902 31.6882 25.1902L32.1789 25.5279L32.688 25.3386C32.7062 25.3386 32.7214 25.3432 32.738 25.3447C32.7138 25.4219 32.682 25.7248 32.6608 25.8097L31.7776 25.6354L30.8488 26.1595C30.3717 26.5093 30.3065 27.0895 30.4838 27.4862L30.5868 27.7119L30.7337 28.03L31.0579 27.8952C31.0625 27.8937 31.067 27.8922 31.07 27.8891C30.9534 28.2617 31.0004 28.6161 31.2094 28.8494L31.4064 29.0977L31.6684 29.4295L31.9562 29.1205C32.0411 29.0357 32.3153 28.7282 32.4002 28.4647L32.4623 28.2632L32.3214 28.1087L32.2987 28.0815L32.4562 27.821L33.609 28.0921L33.8681 28.1512L34.0059 27.924L34.0817 27.7998C34.0954 27.7741 34.0999 27.7695 34.1529 27.7695C34.1939 27.7695 34.2347 27.7741 34.2787 27.7831C34.7135 27.8649 35.115 27.9058 35.4709 27.9058C35.8163 27.9058 36.0224 27.8922 36.2693 27.8104C36.2693 27.8104 36.8889 28.5132 36.9101 28.5404L36.5314 29.7096L36.5147 29.7808C35.7966 29.8384 35.4466 29.9959 35.0241 30.4185C34.4104 29.8096 33.9757 29.746 32.3259 29.746C30.3519 29.746 29.0142 28.5889 29.0142 26.7411V22.2232H41.0307L41.0338 26.7411C41.0353 28.2406 40.1551 29.2855 38.7689 29.6263ZM41.3671 14.9336C41.1837 15.4183 41.0307 15.9438 41.0307 16.4664L41.0322 19.8377C40.3278 19.7196 40.2445 18.9608 40.2414 18.9275L40.2279 18.773L40.0764 18.7594C39.7703 18.7306 39.5673 18.6004 39.3961 18.4337C39.0508 18.0884 39.0492 17.528 39.0508 17.5235C39.0462 17.5523 38.6705 18.0778 39.1068 18.6518C39.2901 18.8941 39.5552 19.0426 39.899 19.1017C39.9794 19.5227 40.293 20.1164 41.0322 20.2072V21.8581H38.9538C37.9948 21.325 38.4009 20.386 38.4205 20.3467L38.5023 20.168L38.319 20.0983C37.2812 19.7136 37.5661 18.6776 37.5812 18.6337L37.6236 18.4823L37.4828 18.4156C36.6253 18.0188 36.742 16.948 36.7526 16.9041C36.489 17.1176 36.3935 17.5538 36.5753 17.981C36.4769 18.093 36.3451 18.2293 36.2011 18.3778C35.3134 18.152 35.2861 17.3357 35.2861 17.2979L35.2846 17.1721L35.168 17.1267C34.821 16.998 34.5832 16.8056 34.4666 16.5466C34.3348 16.2603 34.3817 15.9605 34.418 15.8165C34.5196 15.8393 34.621 15.856 34.718 15.8635C34.818 15.8742 34.9211 15.8802 35.0241 15.8802H35.0301H35.0377C35.1407 15.8802 35.2421 15.8742 35.3422 15.8635C35.8951 15.809 36.5147 15.5713 37.16 14.9321H41.3671V14.9336ZM38.1282 11.5258L38.9492 12.0029H38.9614L39.1674 12.1226C38.7038 12.2513 38.3493 12.4831 38.0524 12.7874C38.0418 12.7966 38.0312 12.8087 38.0206 12.8193C37.9524 12.892 37.8842 12.9707 37.8206 13.0511C37.8085 13.0661 37.7964 13.0828 37.7827 13.0995C37.7191 13.1813 37.66 13.2646 37.6025 13.3524C37.5933 13.3676 37.5827 13.3827 37.5721 13.3963C37.504 13.4978 37.4388 13.6069 37.3737 13.7189C36.7889 14.7261 35.8557 15.3274 35.0255 15.329C34.1969 15.3274 33.2637 14.7261 32.679 13.7189C32.6152 13.6099 32.5517 13.5038 32.4835 13.4009C32.4698 13.3812 32.4577 13.3615 32.4456 13.3448C32.3881 13.2615 32.3305 13.1798 32.2714 13.1025C32.2563 13.0814 32.2427 13.0646 32.2275 13.0465C32.1639 12.9692 32.0987 12.892 32.0336 12.8208C32.0199 12.8102 32.0108 12.7966 31.9972 12.7844C31.6988 12.48 31.3458 12.2498 30.8807 12.1226L31.0897 12.0029H31.0989L31.9199 11.5258L32.7637 11.0427L35.018 12.2695L35.0225 12.265L35.0286 12.2695L37.2828 11.0427L38.1282 11.5258ZM37.0162 10.5095L35.2194 11.4562V7.62435L37.657 6.79737L37.0162 10.5095ZM35.0241 7.2033L32.3517 6.14763C32.5789 5.60995 33.6272 5.15255 35.0241 5.15106C36.4223 5.15255 37.4707 5.60995 37.6963 6.14763L35.0241 7.2033Z" fill="#5B5A5F"/>
<path d="M4.80702 50.7147V45.9736H7.5887V44.2483H0V45.9736H2.78157V50.7147H4.80702ZM10.3572 48.0113V44.2483H8.39925V50.7147H10.1277L13.5034 46.9516V50.7147H15.4614V44.2483H13.7329L10.3572 48.0113ZM22.0483 48.3102V50.7147H24.0062V44.2483H22.0483V46.612H18.902V44.2483H16.9442V50.7147H18.902V48.3102H22.0483ZM29.4589 50.7147C29.9045 50.7147 30.3096 50.674 30.6877 50.5652C31.7004 50.2799 32.3621 49.4512 32.3621 48.3237C32.3621 47.2505 31.7948 46.5034 30.8902 46.1637C30.4581 46.0007 29.945 45.9871 29.4589 45.9871H27.4469V44.2483H25.489V50.7147H29.4589ZM29.1213 47.5087C29.3914 47.5087 29.6479 47.5087 29.8775 47.5902C30.2015 47.6988 30.3906 47.9705 30.3906 48.2965C30.3906 48.6362 30.2015 48.9215 29.891 49.0573C29.6749 49.1524 29.4589 49.1524 29.1213 49.1524H27.4469V47.5087H29.1213ZM35.8726 48.2694L38.2086 50.7147H40.8147L37.5605 47.3456L40.6931 44.2483H38.2357L35.8726 46.68H35.3325V44.2483H33.3745V50.7147H35.3325V48.2694H35.8726ZM44.8435 44.0716C42.2104 44.0716 40.6305 45.5659 40.6305 47.495C40.6305 49.4242 42.2104 50.9185 44.8435 50.9185C47.463 50.9185 49.0429 49.4242 49.0429 47.495C49.0429 45.5659 47.463 44.0716 44.8435 44.0716ZM44.8435 49.3426C43.5337 49.3426 42.6964 48.5547 42.6964 47.495C42.6964 46.4354 43.5337 45.661 44.8435 45.661C46.1397 45.661 46.9904 46.4354 46.9904 47.495C46.9904 48.5547 46.1397 49.3426 44.8435 49.3426ZM55.5635 43.8814H53.6055V44.5335C51.148 44.5879 49.6761 45.6339 49.6761 47.4814C49.6761 49.329 51.148 50.2936 53.6055 50.3479V51H55.5635V50.3479C58.0345 50.2936 59.5063 49.329 59.5063 47.4814C59.5063 45.6339 58.0345 44.5879 55.5635 44.5335V43.8814ZM53.6055 48.9622C52.2553 48.9079 51.661 48.3509 51.661 47.4814C51.661 46.612 52.2553 45.9871 53.6055 45.9328V48.9622ZM55.5635 45.9328C56.9273 45.9871 57.5079 46.612 57.5079 47.4814C57.5079 48.3509 56.9273 48.9079 55.5635 48.9622V45.9328ZM66.0204 43.8814H64.0624V44.5335C61.6049 44.5879 60.1331 45.6339 60.1331 47.4814C60.1331 49.329 61.6049 50.2936 64.0624 50.3479V51H66.0204V50.3479C68.4911 50.2936 69.9633 49.329 69.9633 47.4814C69.9633 45.6339 68.4911 44.5879 66.0204 44.5335V43.8814ZM64.0624 48.9622C62.7121 48.9079 62.118 48.3509 62.118 47.4814C62.118 46.612 62.7121 45.9871 64.0624 45.9328V48.9622ZM66.0204 45.9328C67.3843 45.9871 67.9648 46.612 67.9648 47.4814C67.9648 48.3509 67.3843 48.9079 66.0204 48.9622V45.9328Z" fill="#5B5A5F"/>
</g>
<defs>
<clipPath id="clip0_284_26966">
<rect width="70" height="51" fill="white"/>
</clipPath>
</defs>
</svg>
