<svg width="75" height="30" viewBox="0 0 75 30" fill="none" xmlns="http://www.w3.org/2000/svg">
<path d="M12.1802 0.0820312H8.24246C4.30473 0.0820312 0.916454 3.05151 0.916454 8.80486C0.916454 12.2383 2.56481 14.8366 5.40363 16.1358L0.0922783 25.7866C-0.0908719 26.0649 0.0922783 26.3433 0.367004 26.3433H2.83953C3.02268 26.3433 3.20583 26.2505 3.29741 26.0649L8.15089 16.5997H9.89081V26.0649C9.89081 26.1577 9.98239 26.3433 10.1655 26.3433H12.3633C12.5465 26.3433 12.6381 26.2505 12.6381 26.0649V0.453216C12.5465 0.174827 12.4549 0.0820312 12.1802 0.0820312ZM9.89081 14.3726H8.42561C2.10693 14.3726 2.56481 2.30914 8.15089 2.30914H9.98239V14.3726H9.89081Z" fill="#DCA34C"/>
<path d="M25.3665 8.80487H23.1687C22.9855 8.80487 22.894 8.89766 22.894 9.08325V15.7646H18.8647V9.08325C18.8647 8.89766 18.7731 8.80487 18.5899 8.80487H16.4837C16.3006 8.80487 16.209 8.89766 16.209 9.08325V26.0649C16.209 26.2505 16.3006 26.3433 16.4837 26.3433H18.6815C18.8647 26.3433 18.9562 26.2505 18.9562 26.0649V17.8989H22.9855V26.0649C22.9855 26.2505 23.0771 26.3433 23.2603 26.3433H25.4581C25.6412 26.3433 25.7328 26.2505 25.7328 26.0649V9.08325C25.6412 8.89766 25.5496 8.80487 25.3665 8.80487ZM74.8171 24.0234C74.8171 23.9306 74.7255 23.9306 74.6339 23.9306C73.7181 23.9306 68.1321 26.6217 68.1321 17.7133C68.1321 13.8159 69.5973 8.34089 73.0771 11.5887C73.1687 11.6815 73.2603 11.6815 73.3518 11.6815C73.4434 11.6815 73.535 11.5887 73.6266 11.4032L74.5423 9.82562C74.6339 9.73283 74.6339 9.64003 74.6339 9.54723C74.6339 9.36164 74.4507 9.26885 74.2676 9.17605C68.2236 6.11378 65.1101 11.7743 65.1101 18.3629C65.1101 26.9001 71.2456 28.1065 74.7255 25.5082C74.9086 25.4154 74.9086 25.2298 74.9086 25.137L74.8171 24.0234ZM59.7987 16.6925L64.0112 8.99046C64.1028 8.89766 64.0112 8.71207 63.9196 8.71207H61.8134C61.1724 8.71207 60.9892 8.89766 60.8061 9.36164C60.6229 9.82562 57.5094 16.4141 57.1431 16.6925V8.99046C57.1431 8.89766 57.0515 8.71207 56.9599 8.71207H54.6705C54.579 8.71207 54.4874 8.80487 54.4874 8.99046V26.0649C54.4874 26.1577 54.579 26.3433 54.6705 26.3433H56.9599C57.1431 26.3433 57.1431 26.2505 57.1431 26.0649V17.2493C57.4178 17.4349 61.2639 25.5082 61.3555 25.7866C61.5387 26.1577 61.905 26.3433 62.3628 26.3433H64.6522C64.8354 26.3433 64.8354 26.2505 64.7438 26.0649L59.7987 16.6925ZM39.7438 24.1162H39.2859C38.7365 24.1162 38.6449 23.9306 38.6449 23.4666V8.99046C38.6449 8.80487 38.5533 8.71207 38.4617 8.71207H31.4105C31.2273 8.71207 31.1357 8.80487 31.1357 8.99046C31.1357 12.8879 31.2273 19.3836 28.6632 24.1162H27.9306C27.7474 24.1162 27.6559 24.209 27.6559 24.3946V29.4984C27.6559 29.684 27.839 29.7768 27.9306 29.7768H29.5789C29.9452 29.7768 30.1284 29.4984 30.1284 29.22V26.3433H37.546V29.4984C37.546 29.5912 37.6376 29.7768 37.8207 29.7768H39.6522C39.8354 29.7768 40.1101 29.5912 40.1101 29.22V24.3946C40.0185 24.209 39.9269 24.1162 39.7438 24.1162ZM35.8976 24.1162H30.7694C32.2346 21.7035 33.6083 17.8061 33.6083 10.9392H35.8976V24.1162ZM46.8866 8.34088C43.1321 8.34088 41.3921 13.0735 41.3921 18.2701C41.3921 26.8073 47.2529 28.1065 51.2822 25.601C51.4654 25.5082 51.4654 25.4154 51.4654 25.3226L51.1907 24.1162C51.1907 24.0234 51.0991 23.9306 50.916 23.9306C49.4507 23.9306 44.3225 26.5289 44.3225 18.0845C46.154 18.2701 46.154 18.2701 51.6486 18.2701C51.557 14.0014 51.0991 8.34088 46.8866 8.34088ZM44.4141 16.1358C44.4141 9.36164 48.8097 8.0625 48.8097 15.9502C46.8866 15.9502 46.0625 15.9502 44.4141 16.1358Z" fill="#5B5A5F"/>
</svg>
