<svg width="225" height="142" viewBox="0 0 225 142" fill="none" xmlns="http://www.w3.org/2000/svg">
<path d="M223.61 13.6687C226.197 7.10663 221.361 0 214.307 0H76.4389C68.8227 0 61.8676 4.3257 58.5001 11.1569L1.10922 127.578C-2.16676 134.224 2.66945 142 10.0786 142H159.388C167.602 142 174.98 136.978 177.994 129.337L223.61 13.6687Z" fill="#5B5A5F"/>
<path d="M223.144 13.4852C225.603 7.2513 221.008 0.5 214.307 0.5H76.4389C69.0131 0.5 62.2319 4.71756 58.9486 11.378L1.55769 127.8C-1.55449 134.113 3.0399 141.5 10.0786 141.5H159.388C167.397 141.5 174.591 136.604 177.529 129.154L223.144 13.4852Z" stroke="#545853"/>
</svg>
