<svg width="217" height="142" viewBox="0 0 217 142"  fill="none" xmlns="http://www.w3.org/2000/svg">
<path d="M215.737 12.5215C217.388 6.18629 212.607 0 206.06 0H59.4122C53.151 0 47.5485 3.88896 45.3591 9.75485L1.03754 128.503C-1.40164 135.038 3.43073 142 10.4062 142H170.408C177.235 142 183.201 137.389 184.923 130.782L215.737 12.5215Z" fill="#DCA34C"/>
<path d="M215.254 12.3954C216.822 6.37697 212.28 0.5 206.06 0.5H59.4122C53.3597 0.5 47.944 4.25933 45.8275 9.92968L1.50597 128.678C-0.811249 134.886 3.7795 141.5 10.4062 141.5H170.408C177.008 141.5 182.775 137.043 184.439 130.656L215.254 12.3954Z" stroke="#545853"/>
</svg>
