<svg width="210" height="143" viewBox="0 0 210 143" fill="none" xmlns="http://www.w3.org/2000/svg">
<path d="M183.709 7.88136C182.711 3.28177 178.642 0 173.936 0H37.0096C32.3281 0 28.2732 3.24779 27.2509 7.81625L1.08966 124.724C-1.00792 134.098 6.1223 143 15.7276 143H194.4C203.964 143 211.086 134.169 209.059 124.822L183.709 7.88136Z" fill="#6F746E"/>
<path d="M183.22 7.98729C182.273 3.61768 178.407 0.5 173.936 0.5H37.0096C32.5622 0.5 28.71 3.5854 27.7388 7.92543L1.57759 124.834C-0.450073 133.895 6.44247 142.5 15.7276 142.5H194.4C203.645 142.5 210.529 133.964 208.571 124.928L183.22 7.98729Z" stroke="#545853"/>
</svg>
