<svg width="217" height="144" viewBox="0 0 217 144" fill="none" xmlns="http://www.w3.org/2000/svg">
<path d="M1.31221 12.5515C-0.361492 6.20908 4.42165 0 10.9812 0H157.537C163.823 0 169.443 3.91966 171.614 9.81895L216.048 130.546C218.451 137.074 213.62 144 206.664 144H47.5552C40.7449 144 34.7893 139.412 33.0517 132.827L1.31221 12.5515Z" fill="#D6C9AE"/>
<path d="M1.79566 12.424C0.205643 6.39863 4.74963 0.5 10.9812 0.5H157.537C163.614 0.5 169.046 4.289 171.145 9.99165L215.579 130.719C217.861 136.92 213.272 143.5 206.664 143.5H47.5552C40.9719 143.5 35.2148 139.065 33.5351 132.7L1.79566 12.424Z" stroke="#545853"/>
</svg>
