<svg width="226" height="144" viewBox="0 0 226 144" fill="none" xmlns="http://www.w3.org/2000/svg">
<path d="M1.2984 13.6245C-1.25091 7.06908 3.58483 0 10.6184 0H148.484C156.14 0 163.125 4.37059 166.472 11.2561L224.014 129.628C227.242 136.27 222.405 144 215.02 144H65.6813C57.4331 144 50.0308 138.936 47.0412 131.249L1.2984 13.6245Z" fill="#625B55"/>
<path d="M1.7644 13.4432C-0.657444 7.21563 3.93651 0.5 10.6184 0.5H148.484C155.949 0.5 162.759 4.76132 166.022 11.4747L223.564 129.847C226.631 136.156 222.036 143.5 215.02 143.5H65.6813C57.6393 143.5 50.4221 138.563 47.5073 131.068L1.7644 13.4432Z" stroke="#545853"/>
</svg>
