<svg width="274" height="160" viewBox="0 0 274 160" fill="none" xmlns="http://www.w3.org/2000/svg">
<path d="M273.088 13.9114C275.891 7.31616 271.051 0 263.884 0H91.956C84.593 0 77.8255 4.04563 74.3395 10.5311L1.91977 145.266C-1.6611 151.928 3.16452 160 10.728 160H197.769C205.791 160 213.037 155.206 216.175 147.823L273.088 13.9114Z" fill="#6F746E"/>
<path d="M272.627 13.7158C275.29 7.45035 270.692 0.5 263.884 0.5H91.956C84.7771 0.5 78.1787 4.44449 74.7799 10.7679L2.36017 145.502C-1.04166 151.831 3.54269 159.5 10.728 159.5H197.769C205.591 159.5 212.656 154.826 215.715 147.627L272.627 13.7158Z" stroke="#545853"/>
</svg>
