<svg width="245" height="159" viewBox="0 0 245 159" fill="none" xmlns="http://www.w3.org/2000/svg">
<path d="M244.817 11.0631C245.449 5.15325 240.817 0 234.874 0H65.4334C59.1618 0 53.5522 3.90179 51.3703 9.78164L1.0016 145.521C-1.4223 152.053 3.40955 159 10.377 159H215.518C223.185 159 229.618 153.218 230.433 145.595L244.817 11.0631Z" fill="#625B55"/>
<path d="M244.32 11.01C244.92 5.39559 240.52 0.5 234.874 0.5H65.4334C59.3708 0.5 53.9482 4.27173 51.8391 9.95559L1.47037 145.695C-0.832336 151.901 3.75792 158.5 10.377 158.5H215.518C222.93 158.5 229.148 152.911 229.936 145.542L244.32 11.01Z" stroke="#545853"/>
</svg>
