<svg width="257" height="160" viewBox="0 0 257 160" fill="none" xmlns="http://www.w3.org/2000/svg">
<path d="M0.405044 11.2404C-0.341023 5.27188 4.31284 6.10352e-05 10.3278 6.10352e-05H185.903C192.007 6.10352e-05 197.503 3.6991 199.8 9.35441L255.408 146.236C258.08 152.812 253.241 160 246.144 160H32.2417C24.6769 160 18.2959 154.367 17.3576 146.861L0.405044 11.2404Z" fill="#DCA34C"/>
<path d="M0.901183 11.1784C0.192419 5.50829 4.61359 0.500061 10.3278 0.500061H185.903C191.804 0.500061 197.116 4.07579 199.337 9.54259L254.945 146.424C257.483 152.671 252.887 159.5 246.144 159.5H32.2417C24.929 159.5 18.7607 154.055 17.8537 146.799L0.901183 11.1784Z" stroke="#545853"/>
</svg>
