<svg width="274" height="160" viewBox="0 0 274 160" fill="none" xmlns="http://www.w3.org/2000/svg">
<path d="M0.912349 13.9114C-1.89063 7.31616 2.94949 0 10.1157 0H182.978C190.376 0 197.169 4.0837 200.64 10.6169L272.195 145.308C275.734 151.969 270.906 160 263.364 160H76.2313C68.2088 160 60.9626 155.206 57.8247 147.823L0.912349 13.9114Z" fill="#5B5A5F"/>
<path d="M1.37251 13.7158C-1.29032 7.45035 3.3078 0.5 10.1157 0.5H182.978C190.191 0.5 196.815 4.48161 200.199 10.8515L271.754 145.543C275.115 151.871 270.529 159.5 263.364 159.5H76.2313C68.4093 159.5 61.3443 154.826 58.2849 147.627L1.37251 13.7158Z" stroke="#545853"/>
</svg>
