<svg width="2560" height="560" viewBox="0 0 2560 560" fill="none" xmlns="http://www.w3.org/2000/svg">
<g clip-path="url(#clip0_1_2)">
<path d="M1895.87 116H2097.37C2097.37 116 2094.87 131.5 2078.37 140C2061.87 148.5 2046.37 140 2046.37 140C2046.37 140 2034.87 184.5 1990.87 181C1946.87 177.5 1941.37 131.5 1941.37 131.5C1941.37 131.5 1922.75 138.104 1912.37 133.5C1903.79 129.69 1895.87 116 1895.87 116Z" fill="#FBEDD0"/>
<path d="M1984.37 361.5H1734.37C1734.37 361.5 1730.5 343 1745.5 335.5C1760.5 328 1767.87 335.5 1767.87 335.5C1767.87 335.5 1771.37 281 1838.87 278C1906.37 275 1916.87 335.5 1916.87 335.5C1916.87 335.5 1940.37 326 1959.37 337C1978.37 348 1984.37 361.5 1984.37 361.5Z" fill="#FBEDD0"/>
<path d="M714.001 290.609H906.77C906.77 290.609 904.706 272.976 888.608 263.778C872.509 254.58 853.934 262.127 853.934 262.127C853.934 262.127 838.248 220.435 792.429 226.627C754.453 231.759 749.087 274.097 749.087 274.097C749.087 274.097 739.593 268.445 727.622 274.097C715.652 279.75 714.001 290.609 714.001 290.609Z" fill="#FBEDD0"/>
<path d="M710.001 292.26H902.77C902.77 292.26 900.706 274.627 884.608 265.429C868.509 256.231 849.934 263.778 849.934 263.778C849.934 263.778 834.248 222.087 788.429 228.278C750.453 233.41 745.087 275.748 745.087 275.748C745.087 275.748 735.593 270.096 723.622 275.748C711.652 281.401 710.001 292.26 710.001 292.26Z" fill="#5B5A5F"/>
<path d="M1900 116.5H2101.5C2101.5 116.5 2099 132 2082.5 140.5C2066 149 2050.5 140.5 2050.5 140.5C2050.5 140.5 2039 185 1995 181.5C1951 178 1945.5 132 1945.5 132C1945.5 132 1926.88 138.604 1916.5 134C1907.91 130.19 1900 116.5 1900 116.5Z" fill="#DCA34C"/>
<path d="M1989.5 361.5H1739.5C1739.5 361.5 1732 342 1747 334.5C1762 327 1773 335.5 1773 335.5C1773 335.5 1776.5 281 1844 278C1911.5 275 1922 335.5 1922 335.5C1922 335.5 1945.5 326 1964.5 337C1983.5 348 1989.5 361.5 1989.5 361.5Z" fill="#DCA34C"/>
<path d="M1314.5 218.24H1081C1081 218.24 1083.5 196.953 1103 185.848C1122.5 174.744 1145 183.855 1145 183.855C1145 183.855 1164 133.522 1219.5 140.997C1265.5 147.193 1272 198.307 1272 198.307C1272 198.307 1283.5 191.483 1298 198.307C1312.5 205.131 1314.5 218.24 1314.5 218.24Z" fill="#FBEDD0"/>
<path d="M1319.5 218.5H1086C1086 218.5 1088.5 197.142 1108 186C1127.5 174.859 1150 184 1150 184C1150 184 1169 133.5 1224.5 141C1270.5 147.216 1277 198.5 1277 198.5C1277 198.5 1288.5 191.653 1303 198.5C1317.5 205.347 1319.5 218.5 1319.5 218.5Z" fill="#5B5A5F"/>
<path d="M1651.37 284.5H1487.87C1487.87 284.5 1485.87 239 1531.87 231C1577.87 223 1595.37 268.5 1595.37 268.5C1595.37 268.5 1611.87 257.805 1630.87 265.5C1643.87 270.766 1651.37 284.5 1651.37 284.5Z" fill="#FBEDD0"/>
<path d="M1656.5 284.5H1493C1493 284.5 1491 239 1537 231C1583 223 1600.5 268.5 1600.5 268.5C1600.5 268.5 1617 257.805 1636 265.5C1649 270.766 1656.5 284.5 1656.5 284.5Z" fill="#776053"/>
</g>
<defs>
<clipPath id="clip0_1_2">
<rect width="2560" height="560" fill="white"/>
</clipPath>
</defs>
</svg>
