<svg width="2560" height="560" viewBox="0 0 2560 560" fill="none" xmlns="http://www.w3.org/2000/svg">
<g clip-path="url(#clip0_1_300)">
<g clip-path="url(#clip1_1_300)">
<path d="M867.016 484.034C872.315 476.12 880.264 473.482 880.264 473.482C880.264 473.482 849.13 451.059 857.079 412.809C865.029 374.558 902.125 367.963 902.125 367.963C902.125 367.963 898.15 311.907 947.17 307.29C996.189 302.674 1001.49 354.773 1001.49 354.773C1001.49 354.773 1028.65 356.092 1049.18 386.429C1069.72 416.766 1053.82 447.762 1053.82 447.762C1053.82 447.762 1096.88 445.124 1113.44 483.374C1130 521.625 1101.52 556.578 1101.52 556.578C1101.52 556.578 1111.45 555.259 1120.73 563.173C1130 571.087 1130 579 1130 579H802.76C802.76 579 794.811 551.302 812.697 526.241C830.582 501.181 861.054 502.5 861.054 502.5C861.054 502.5 861.716 491.948 867.016 484.034Z" fill="#FBEDD0"/>
<path d="M863.016 484.034C868.315 476.12 876.264 473.482 876.264 473.482C876.264 473.482 845.13 451.059 853.079 412.809C861.029 374.558 898.125 367.963 898.125 367.963C898.125 367.963 894.15 311.907 943.17 307.29C992.189 302.674 997.489 354.773 997.489 354.773C997.489 354.773 1024.65 356.092 1045.18 386.429C1065.72 416.766 1049.82 447.762 1049.82 447.762C1049.82 447.762 1092.88 445.124 1109.44 483.374C1126 521.625 1097.52 556.578 1097.52 556.578C1097.52 556.578 1107.45 555.259 1116.73 563.173C1126 571.087 1126 579 1126 579H798.76C798.76 579 790.811 551.302 808.697 526.241C826.582 501.181 857.054 502.5 857.054 502.5C857.054 502.5 857.716 491.948 863.016 484.034Z" fill="#9F9E9E"/>
<path d="M2129.5 572.5H1986.5C1986.5 572.5 1988.97 545.699 1999 533C2010.15 518.874 2039.5 511 2039.5 511C2039.5 511 2029 491 2042 474.5C2055 458 2075 461 2075 461C2075 461 2052.02 440 2071 410C2089.98 380 2124.5 398 2124.5 398C2136.55 407.147 2143.62 418.496 2135 433C2193 439.5 2173 490 2173 490C2214.18 502.229 2234.77 525.251 2239 565.5L2129.5 572.5Z" fill="#FBEDD0"/>
<path d="M2132.5 573.5H1989.5C1989.5 573.5 1991.97 546.699 2002 534C2013.15 519.874 2042.5 512 2042.5 512C2042.5 512 2032 492 2045 475.5C2058 459 2078 462 2078 462C2078 462 2055.02 441 2074 411C2092.98 381 2127.5 399 2127.5 399C2139.55 408.147 2146.62 419.496 2138 434C2196 440.5 2176 491 2176 491C2217.18 503.229 2237.77 526.251 2242 566.5L2132.5 573.5Z" fill="#776053"/>
<path d="M1399 530L1458 374C1458 374 1461 366.5 1458 356C1455 345.5 1446 339.5 1446 339.5C1446 339.5 1467 317.5 1453.5 291C1440 264.5 1413 264.5 1413 264.5C1413 264.5 1406.5 231.5 1370 235C1333.5 238.5 1338 275 1338 275C1338 275 1316.5 274 1301.5 306C1286.5 338 1306.5 367.5 1306.5 367.5C1306.5 367.5 1295.5 372.5 1291 387C1286.5 401.5 1294 414.5 1294 414.5C1294 414.5 1276 423 1272 443C1268 463 1280.5 483 1280.5 483C1280.5 483 1272.7 481 1264.5 494.5C1256.3 508 1264.5 518 1264.5 518C1264.5 518 1246 517 1231 537C1216 557 1219.5 571 1219.5 571C1258.67 574.667 1337.4 582 1339 582C1340.6 582 1379.67 547.333 1399 530Z" fill="#FBEDD0"/>
<path d="M1402 531L1461 375C1461 375 1464 367.5 1461 357C1458 346.5 1449 340.5 1449 340.5C1449 340.5 1470 318.5 1456.5 292C1443 265.5 1416 265.5 1416 265.5C1416 265.5 1409.5 232.5 1373 236C1336.5 239.5 1341 276 1341 276C1341 276 1319.5 275 1304.5 307C1289.5 339 1309.5 368.5 1309.5 368.5C1309.5 368.5 1298.5 373.5 1294 388C1289.5 402.5 1297 415.5 1297 415.5C1297 415.5 1279 424 1275 444C1271 464 1283.5 484 1283.5 484C1283.5 484 1275.7 482 1267.5 495.5C1259.3 509 1267.5 519 1267.5 519C1267.5 519 1249 518 1234 538C1219 558 1222.5 572 1222.5 572C1261.67 575.667 1340.4 583 1342 583C1343.6 583 1382.67 548.333 1402 531Z" fill="#5B5A5F"/>
<path d="M1502 500.5C1498 494.5 1492 492.5 1492 492.5C1492 492.5 1515.5 475.5 1509.5 446.5C1503.5 417.5 1475.5 412.5 1475.5 412.5C1475.5 412.5 1478.5 370 1441.5 366.5C1404.5 363 1400.5 402.5 1400.5 402.5C1400.5 402.5 1380 403.5 1364.5 426.5C1349 449.5 1361 473 1361 473C1361 473 1328.5 471 1316 500C1303.5 529 1325 555.5 1325 555.5C1325 555.5 1317.5 554.5 1310.5 560.5C1303.5 566.5 1303.5 572.5 1303.5 572.5H1550.5C1550.5 572.5 1556.5 551.5 1543 532.5C1529.5 513.5 1506.5 514.5 1506.5 514.5C1506.5 514.5 1506 506.5 1502 500.5Z" fill="#FBEDD0"/>
<path d="M1505 502.5C1501 496.5 1495 494.5 1495 494.5C1495 494.5 1518.5 477.5 1512.5 448.5C1506.5 419.5 1478.5 414.5 1478.5 414.5C1478.5 414.5 1481.5 372 1444.5 368.5C1407.5 365 1403.5 404.5 1403.5 404.5C1403.5 404.5 1383 405.5 1367.5 428.5C1352 451.5 1364 475 1364 475C1364 475 1331.5 473 1319 502C1306.5 531 1328 557.5 1328 557.5C1328 557.5 1320.5 556.5 1313.5 562.5C1306.5 568.5 1306.5 574.5 1306.5 574.5H1553.5C1553.5 574.5 1559.5 553.5 1546 534.5C1532.5 515.5 1509.5 516.5 1509.5 516.5C1509.5 516.5 1509 508.5 1505 502.5Z" fill="#A89C8A"/>
<path d="M477.268 506.412L447.448 292.217C447.448 292.217 445.808 281.872 452.608 269.451C459.407 257.03 472.496 252.017 472.496 252.017C472.496 252.017 452.273 218.18 476.922 188.529C501.572 158.877 530.394 168.034 530.394 168.034C530.394 168.034 553.349 126.729 598.455 141.605C643.56 156.48 627.414 201.356 627.414 201.356C627.414 201.356 654.861 206.247 664.638 251.014C674.415 295.781 640.694 327.366 640.694 327.366C640.694 327.366 653.157 336.839 654.686 356.467C656.215 376.094 643.014 390.389 643.014 390.389C643.014 390.389 663.316 406.293 662.637 432.733C661.958 459.174 640.435 480.891 640.435 480.891C640.435 480.891 650.866 480.596 657.351 500.016C663.835 519.437 650.615 529.739 650.615 529.739C650.615 529.739 674.272 533.77 687.488 563.36C700.705 592.949 691.498 579.969 691.498 579.969C640.969 573.394 539.125 588.394 534.982 579.969C530.364 570.58 496.723 533.87 477.268 506.412Z" fill="#FBEDD0"/>
<path d="M474.386 505.453L444.567 291.257C444.567 291.257 441.016 278.398 447.815 265.977C454.614 253.555 469.614 251.058 469.614 251.058C469.614 251.058 449.392 217.221 474.041 187.569C498.69 157.917 529.433 166.594 529.433 166.594C529.433 166.594 550.468 125.769 595.573 140.645C640.679 155.52 624.533 200.397 624.533 200.397C624.533 200.397 651.979 205.287 661.756 250.054C671.533 294.821 637.813 326.406 637.813 326.406C637.813 326.406 650.276 335.879 651.804 355.507C653.333 375.134 640.133 389.429 640.133 389.429C640.133 389.429 660.435 405.333 659.756 431.774C659.076 458.214 637.553 479.931 637.553 479.931C637.553 479.931 647.984 479.636 654.469 499.057C660.954 518.478 647.734 528.779 647.734 528.779C647.734 528.779 671.39 532.81 684.607 562.4C697.823 591.99 684.607 579.009 684.607 579.009C634.079 572.434 536.244 587.434 532.1 579.009C527.483 569.62 493.841 532.91 474.386 505.453Z" fill="#5B5A5F"/>
<path d="M417.911 439.728C425.048 429.012 435.754 425.439 435.754 425.439C435.754 425.439 393.822 395.076 404.528 343.279C415.234 291.483 465.195 282.552 465.195 282.552C465.195 282.552 459.842 206.644 525.862 200.392C591.882 194.141 599.02 264.691 599.02 264.691C599.02 264.691 524.171 313.242 551.828 354.322C579.485 395.402 516.039 454.503 516.039 454.503C516.039 454.503 511.203 461.537 533.507 513.333C555.811 565.13 503.683 513.333 503.683 513.333C503.683 513.333 513.372 539.279 525.862 549.995C538.352 560.712 525.862 576 525.862 576L331.371 568.327C331.371 568.327 320.665 530.819 344.753 496.883C368.842 462.947 409.881 464.733 409.881 464.733C409.881 464.733 410.773 450.445 417.911 439.728Z" fill="#5B5A5F"/>
</g>
</g>
<defs>
<clipPath id="clip0_1_300">
<rect width="2560" height="560" fill="white"/>
</clipPath>
<clipPath id="clip1_1_300">
<rect width="2560" height="617" fill="white" transform="translate(0 -45)"/>
</clipPath>
</defs>
</svg>
