<svg width="2560" height="613" viewBox="0 0 2560 613" fill="none" xmlns="http://www.w3.org/2000/svg">
<style>

.rocket-1{
    animation: 5s rocketFly linear infinite;
}

@keyframes rocketFly{

    0%{transform: translate(0px, 0px)}
    1%{transform: translate(2px, -1px)}
    2%{transform: translate(-2px, -1px)}
    3%{transform: translate(2px, -2px)}
    4%{transform: translate(-2px, -3px)}
    5%{transform: translate(2px, -4px)}
    6%{transform: translate(-2px, -5px)}
    7%{transform: translate(2px, -6px)}
    8%{transform: translate(-2px, -7px)}
    9%{transform: translate(2px, -8px)}
    10%{transform: translate(-2px, -9px)}
    11%{transform: translate(2px, -10px)}
    12%{transform: translate(-2px, -11px)}
    13%{transform: translate(2px, -12px)}
    14%{transform: translate(-2px, -13px)}
    15%{transform: translate(2px, -14px)}
    16%{transform: translate(-2px, -15px)}
    17%{transform: translate(2px, -16px)}
    18%{transform: translate(-2px, -17px)}
    19%{transform: translate(2px, -18px)}
    20%{transform: translate(-2px, -19px)}
    21%{transform: translate(2px, -20px)}
    22%{transform: translate(-2px, -21px)}
    100%{transform: translate(0px, -250px)}
}
</style>

<g clip-path="url(#clip0_1_895)">
<path d="M1855 438H1869V600H1855V438Z" fill="#D9D9D9"/>
<path d="M1876 413.5C1876 449.675 1869.51 479 1861.5 479C1853.49 479 1847 449.675 1847 413.5C1847 377.325 1853.49 348 1861.5 348C1869.51 348 1876 377.325 1876 413.5Z" fill="#FBEDD0"/>
<path d="M1877 413.5C1877 449.675 1870.51 479 1862.5 479C1854.49 479 1848 449.675 1848 413.5C1848 377.325 1854.49 348 1862.5 348C1870.51 348 1877 377.325 1877 413.5Z" fill="#A89C8A"/>
<path d="M1869 406.5C1869 428.868 1865.42 447 1861 447C1856.58 447 1853 428.868 1853 406.5C1853 384.132 1856.58 366 1861 366C1865.42 366 1869 384.132 1869 406.5Z" fill="#FBEDD0"/>
<path d="M1870 406.5C1870 428.868 1866.42 447 1862 447C1857.58 447 1854 428.868 1854 406.5C1854 384.132 1857.58 366 1862 366C1866.42 366 1870 384.132 1870 406.5Z" fill="#DCA34C"/>
<path fill-rule="evenodd" clip-rule="evenodd" d="M1807.5 411.5C1808 412.5 1811.5 413 1817.5 411.5C1822.3 410.3 1825.83 409.333 1827 409L1849.5 390.5L1858 413.5H1864L1873.5 390.5L1896.5 409C1901.17 410.5 1910.8 413.5 1912 413.5C1913.2 413.5 1913.83 412.167 1914 411.5L1912 410.5L1875.5 351V194H1886.5V189.5H1875C1875 189.5 1870.5 153.5 1861 153.5C1851.5 153.5 1847 189.5 1847 189.5H1836V194H1847V351C1835.17 370.833 1811.2 410.5 1810 410.5C1808.8 410.5 1807.83 411.167 1807.5 411.5ZM1817.5 406.5L1847.5 359V388L1817.5 406.5ZM1875 359V388L1904.5 406.5L1875 359Z" fill="#FBEDD0"/>
<path fill-rule="evenodd" clip-rule="evenodd" d="M1809 411.5C1809.5 412.5 1813 413 1819 411.5C1823.8 410.3 1827.33 409.333 1828.5 409L1851 390.5L1859.5 413.5H1865.5L1875 390.5L1898 409C1902.67 410.5 1912.3 413.5 1913.5 413.5C1914.7 413.5 1915.33 412.167 1915.5 411.5L1913.5 410.5L1877 351V194H1888V189.5H1876.5C1876.5 189.5 1872 153.5 1862.5 153.5C1853 153.5 1848.5 189.5 1848.5 189.5H1837.5V194H1848.5V351C1836.67 370.833 1812.7 410.5 1811.5 410.5C1810.3 410.5 1809.33 411.167 1809 411.5ZM1819 406.5L1849 359V388L1819 406.5ZM1876.5 359V388L1906 406.5L1876.5 359Z" fill="#6F746E"/>
<path d="M564.075 535.932C564.075 578.219 556.486 612.5 547.125 612.5C537.763 612.5 530.175 578.219 530.175 535.932C530.175 493.645 537.763 459.365 547.125 459.365C556.486 459.365 564.075 493.645 564.075 535.932Z" fill="#FBEDD0"/>
<path d="M562.244 535.932C562.244 578.22 554.655 612.5 545.294 612.5C535.932 612.5 528.344 578.22 528.344 535.932C528.344 493.645 535.932 459.365 545.294 459.365C554.655 459.365 562.244 493.645 562.244 535.932Z" fill="#A89C8A"/>
<path d="M555.892 527.75C555.892 553.897 551.705 575.093 546.54 575.093C541.375 575.093 537.188 553.897 537.188 527.75C537.188 501.603 541.375 480.406 546.54 480.406C551.705 480.406 555.892 501.603 555.892 527.75Z" fill="#FBEDD0"/>
<path d="M554.061 527.75C554.061 553.897 549.874 575.093 544.709 575.093C539.544 575.093 535.357 553.897 535.357 527.75C535.357 501.603 539.544 480.406 544.709 480.406C549.874 480.406 554.061 501.603 554.061 527.75Z" fill="#DCA34C"/>
<path fill-rule="evenodd" clip-rule="evenodd" d="M485 533.594C485.584 534.763 489.676 535.348 496.69 533.594C502.301 532.192 506.431 531.062 507.795 530.672L534.097 509.046L544.033 535.932H551.047L562.152 509.046L589.038 530.672C594.493 532.426 605.755 535.932 607.157 535.932C608.56 535.932 609.3 534.374 609.495 533.594L607.157 532.426L564.49 462.872V279.343H577.349V274.083H563.905C563.905 274.083 558.645 232 547.54 232C536.435 232 531.174 274.083 531.174 274.083H518.316V279.343H531.174V462.872C517.341 486.056 489.325 532.426 487.922 532.426C486.52 532.426 485.39 533.205 485 533.594ZM496.689 527.75L531.758 472.223V506.124L496.689 527.75ZM563.905 472.223V506.124L598.39 527.75L563.905 472.223Z" fill="#FBEDD0"/>
<path fill-rule="evenodd" clip-rule="evenodd" d="M482.754 533.594C483.338 534.763 487.43 535.348 494.443 533.594C500.055 532.192 504.185 531.062 505.549 530.672L531.851 509.046L541.787 535.932H548.801L559.906 509.046L586.792 530.672C592.247 532.426 603.508 535.932 604.911 535.932C606.314 535.932 607.054 534.374 607.249 533.594L604.911 532.426L562.244 462.872V279.343H575.102V274.083H561.659C561.659 274.083 556.399 232 545.294 232C534.188 232 528.928 274.083 528.928 274.083H516.069V279.343H528.928V462.872C515.095 486.056 487.079 532.426 485.676 532.426C484.273 532.426 483.143 533.205 482.754 533.594ZM494.443 527.75L529.512 472.223V506.124L494.443 527.75ZM561.659 472.223V506.124L596.144 527.75L561.659 472.223Z" fill="#6F746E"/>
<g class="rocket-1">
<path d="M1710 530H1730V600H1710V530Z" fill="#D9D9D9"/>
<path d="M1739 481C1739 526.287 1730.05 563 1719 563C1707.95 563 1699 526.287 1699 481C1699 435.713 1707.95 399 1719 399C1730.05 399 1739 435.713 1739 481Z" fill="#FBEDD0"/>
<path d="M1741 481C1741 526.287 1732.05 563 1721 563C1709.95 563 1701 526.287 1701 481C1701 435.713 1709.95 399 1721 399C1732.05 399 1741 435.713 1741 481Z" fill="#776053"/>
<path d="M1721.5 464.5L1722 390H1716.5L1704 462L1705.5 463L1721.5 464.5Z" fill="#BD9558"/>
<path d="M1644.5 493L1698.5 403.5V411L1651.5 489L1644.5 493Z" fill="#FBEDD0"/>
<path d="M1646.5 493L1700.5 403.5V411L1653.5 489L1646.5 493Z" fill="#DCA34C"/>
<path d="M1736.5 404L1788.5 488.5L1795.5 492L1736.5 398.5V404Z" fill="#FBEDD0"/>
<path d="M1738.5 404L1790.5 488.5L1797.5 492L1738.5 398.5V404Z" fill="#4D504D"/>
<path d="M1772.5 490.5L1738 463H1735.5L1720 465V388.5H1724L1739.5 458.5L1800 494L1799 496.5L1772.5 490.5Z" fill="#FBEDD0"/>
<path d="M1774.5 490.5L1740 463H1737.5L1722 465V388.5H1726L1741.5 458.5L1802 494L1801 496.5L1774.5 490.5Z" fill="#5A5C59"/>
<path d="M1640 494.5L1698 460L1700.5 461.5L1669.5 490L1648 496.5H1641L1640 494.5Z" fill="#FBEDD0"/>
<path d="M1736.5 463H1741.5V332H1698V463H1703L1716 391H1723.5L1736.5 463Z" fill="#FBEDD0"/>
<path d="M1642 494.5L1700 460L1702.5 461.5L1671.5 490L1650 496.5H1643L1642 494.5Z" fill="#5A5C59"/>
<path d="M1718.5 403V463.5H1723V403C1723 403 1722.5 399.5 1720.5 399.5C1718.5 399.5 1718.5 403 1718.5 403Z" fill="#FBEDD0"/>
<path d="M1719.5 403V463.5H1724V403C1724 403 1723.5 399.5 1721.5 399.5C1719.5 399.5 1719.5 403 1719.5 403Z" fill="#DCA34C"/>
<path d="M1729 486C1729 518.585 1724.52 545 1719 545C1713.48 545 1709 518.585 1709 486C1709 453.415 1713.48 471.5 1719 471.5C1724.52 471.5 1729 453.415 1729 486Z" fill="#FBEDD0"/>
<path d="M1682.5 162.5H1698V333.5H1741.5V162.5H1757V157H1741.5C1741.5 157 1738.5 100.5 1719.5 100C1700.5 99.5001 1698 157 1698 157H1682.5V162.5Z" fill="#FBEDD0"/>
<path d="M1731 486C1731 518.585 1726.52 545 1721 545C1715.48 545 1711 518.585 1711 486C1711 453.415 1715.48 471.5 1721 471.5C1726.52 471.5 1731 453.415 1731 486Z" fill="#DCA34C"/>
<path d="M1684.5 162.5H1700V333.5H1743.5V162.5H1759V157H1743.5C1743.5 157 1740.5 100.5 1721.5 100C1702.5 99.5001 1700 157 1700 157H1684.5V162.5Z" fill="#4D504D"/>
</g>
<mask id="mask0_1_895" style="mask-type:alpha" maskUnits="userSpaceOnUse" x="1684" y="99" width="75" height="235">
<path d="M1684.5 162.5H1700V333.5H1743.5V162.5H1759V157H1743.5C1743.5 157 1740.5 100.5 1721.5 100C1702.5 99.5001 1700 157 1700 157H1684.5V162.5Z" fill="#4D504D"/>
</mask>
<g class="rocket-1" mask="url(#mask0_1_895)">
<path d="M1721.42 266.5C1721.42 343.544 1722.04 403 1707.8 403C1693.55 403 1699.04 352.044 1699.04 275C1701.58 233.27 1699.56 189.189 1700 159.5C1700.32 137.964 1693.59 120.376 1707.8 124C1722 127.624 1721.42 189.456 1721.42 266.5Z" fill="#DCA34C"/>
</g>
<path class="rocket-1" d="M1738.5 463H1743.5V332H1700V463H1705L1718 391H1725.5L1738.5 463Z" fill="#6F746E"/>
<path class="rocket-1" d="M1724.5 497.5H1716L1702.5 462.5H1737.5L1724.5 497.5Z" fill="#FBEDD0"/>
<path class="rocket-1" d="M1726.5 497.5H1718L1704.5 462.5H1739.5L1726.5 497.5Z" fill="#6F746E"/>
<path d="M894 289V590.5H937.5V289C937.5 289 934.5 228.5 915.5 228C896.5 227.5 894 289 894 289Z" fill="#FBEDD0"/>
<path d="M992 289V590.5H1034.5V289C1034.5 270.5 1028.5 228 1013 228C997.5 228 992 265.5 992 289Z" fill="#FBEDD0"/>
<path d="M891 289V590.5H934.5V289C934.5 289 931.5 228.5 912.5 228C893.5 227.5 891 289 891 289Z" fill="#4D504D"/>
<path d="M989 289V590.5H1031.5V289C1031.5 270.5 1025.5 228 1010 228C994.5 228 989 265.5 989 289Z" fill="#4D504D"/>
<mask id="mask1_1_895" style="mask-type:alpha" maskUnits="userSpaceOnUse" x="891" y="227" width="141" height="364">
<path d="M891 289V590.5H934.5V289C934.5 289 931.5 228.5 912.5 228C893.5 227.5 891 289 891 289Z" fill="#D9D9D9"/>
<path d="M989 289V590.5H1031.5V289C1031.5 270.5 1025.5 228 1010 228C994.5 228 989 265.5 989 289Z" fill="#D9D9D9"/>
</mask>
<g mask="url(#mask1_1_895)">
<path d="M913.5 591.5L912 284.5C913.167 254.666 918.5 202.2 930.5 231C942.5 259.8 940.5 301.333 938 318.5L937 593L913.5 591.5Z" fill="#DCA34C"/>
<path d="M1008.5 594.861L1007 287.861C1008.17 258.028 1013.5 205.561 1025.5 234.361C1037.5 263.161 1035.5 304.695 1033 321.861L1032 596.361L1008.5 594.861Z" fill="#DCA34C"/>
</g>
<path d="M943 165V590.5H986.5V165L1000.5 145.5V92C1000.5 92 998.758 12.3544 964.5 12C930.08 11.6438 927.5 92 927.5 92V145.5L943 165Z" fill="#FBEDD0"/>
<path d="M940 165V590.5H983.5V165L997.5 145.5V92C997.5 92 995.758 12.3544 961.5 12C927.08 11.6438 924.5 92 924.5 92V145.5L940 165Z" fill="#4D504D"/>
<mask id="mask2_1_895" style="mask-type:alpha" maskUnits="userSpaceOnUse" x="924" y="11" width="74" height="580">
<path d="M940 165V590.5H983.5V165L997.5 145.5V92C997.5 92 995.758 12.3544 961.5 12C927.08 11.6438 924.5 92 924.5 92V145.5L940 165Z" fill="#333333"/>
</mask>
<g mask="url(#mask2_1_895)">
<path d="M961.5 590.5V165H984L997.537 146.5H961.5V65C961.5 29.4 968.833 21.5 972.5 22L999 20.5V144.5L997.537 146.5L984 165L985.5 590.5H961.5Z" fill="#DCA34C"/>
</g>
<path d="M909.5 280V589H915.5V285H958V591.5H964.5V285H1007V591.5H1012.5V280H909.5Z" fill="#FBEDD0"/>
<rect x="892" y="291" width="12" height="19" fill="#FBEDD0"/>
<rect x="1023" y="291" width="12" height="19" fill="#FBEDD0"/>
<rect x="989" y="291" width="11" height="19" fill="#FBEDD0"/>
<rect x="940" y="291" width="11" height="19" fill="#FBEDD0"/>
<rect x="976" y="291" width="11" height="19" fill="#FBEDD0"/>
<rect x="927" y="291" width="11" height="19" fill="#FBEDD0"/>
<rect x="890" y="291" width="12" height="19" fill="#6F746E"/>
<rect x="1021" y="291" width="12" height="19" fill="#6F746E"/>
<rect x="987" y="291" width="11" height="19" fill="#6F746E"/>
<rect x="938" y="291" width="11" height="19" fill="#6F746E"/>
<rect x="974" y="291" width="11" height="19" fill="#6F746E"/>
<rect x="925" y="291" width="11" height="19" fill="#6F746E"/>
<path fill-rule="evenodd" clip-rule="evenodd" d="M900.5 605C902.953 605 905.132 603.822 906.5 602.001C907.868 603.822 910.047 605 912.5 605C914.953 605 917.132 603.822 918.5 602.001C919.868 603.822 922.047 605 924.5 605C928.642 605 932 601.642 932 597.5C932 593.358 928.642 590 924.5 590C922.047 590 919.868 591.178 918.5 592.999C917.132 591.178 914.953 590 912.5 590C910.047 590 907.868 591.178 906.5 592.999C905.132 591.178 902.953 590 900.5 590C896.358 590 893 593.358 893 597.5C893 601.642 896.358 605 900.5 605Z" fill="#6F746E"/>
<path fill-rule="evenodd" clip-rule="evenodd" d="M949.5 605C951.953 605 954.132 603.822 955.5 602.001C956.868 603.822 959.047 605 961.5 605C963.953 605 966.132 603.822 967.5 602.001C968.868 603.822 971.047 605 973.5 605C977.642 605 981 601.642 981 597.5C981 593.358 977.642 590 973.5 590C971.047 590 968.868 591.178 967.5 592.999C966.132 591.178 963.953 590 961.5 590C959.047 590 956.868 591.178 955.5 592.999C954.132 591.178 951.953 590 949.5 590C945.358 590 942 593.358 942 597.5C942 601.642 945.358 605 949.5 605Z" fill="#6F746E"/>
<path fill-rule="evenodd" clip-rule="evenodd" d="M998.5 605C1000.95 605 1003.13 603.822 1004.5 602.001C1005.87 603.822 1008.05 605 1010.5 605C1012.95 605 1015.13 603.822 1016.5 602.001C1017.87 603.822 1020.05 605 1022.5 605C1026.64 605 1030 601.642 1030 597.5C1030 593.358 1026.64 590 1022.5 590C1020.05 590 1017.87 591.178 1016.5 592.999C1015.13 591.178 1012.95 590 1010.5 590C1008.05 590 1005.87 591.178 1004.5 592.999C1003.13 591.178 1000.95 590 998.5 590C994.358 590 991 593.358 991 597.5C991 601.642 994.358 605 998.5 605Z" fill="#6F746E"/>
<path d="M896 518L893 591H936L932.5 518H928L914.5 588.5L900.5 518H896Z" fill="#FBEDD0"/>
<path d="M941.5 591L944 518H949L963.5 591L977.5 518H982L985.5 591H963.5H941.5Z" fill="#FBEDD0"/>
<path d="M993.5 518L990.5 591H1032.5L1031 518H1026L1011.5 588.5L998 518H993.5Z" fill="#FBEDD0"/>
<path d="M894 518L891 591H934L930.5 518H926L912.5 588.5L898.5 518H894Z" fill="#6F746E"/>
<path d="M939.5 591L942 518H947L961.5 591L975.5 518H980L983.5 591H961.5H939.5Z" fill="#6F746E"/>
<path d="M991.5 518L988.5 591H1030.5L1029 518H1024L1009.5 588.5L996 518H991.5Z" fill="#6F746E"/>
</g>
<defs>
<clipPath id="clip0_1_895">
<rect width="2560" height="613" fill="white"/>
</clipPath>
</defs>
</svg>
