<svg width="2560" height="560" viewBox="0 0 2560 560" fill="none" xmlns="http://www.w3.org/2000/svg">
<g clip-path="url(#clip0_1_598)">
<g clip-path="url(#clip1_1_598)">
<path d="M420 568L276.452 563.359C276.452 563.359 273.751 573.802 281.557 563.359C289.363 552.916 302.663 553.465 302.663 553.465C302.663 553.465 302.952 549.068 305.265 545.771C307.578 542.473 311.047 541.374 311.047 541.374C311.047 541.374 297.459 532.03 300.928 516.091C304.398 500.152 320.588 497.404 320.588 497.404C320.588 497.404 318.854 474.044 340.249 472.121C361.644 470.197 363.957 491.907 363.957 491.907C363.957 491.907 375.811 492.457 384.773 505.098C393.736 517.74 386.797 530.656 386.797 530.656C386.797 530.656 405.59 529.557 412.818 545.496C420.046 561.435 410.5 563.359 410.5 563.359C410.5 563.359 401.047 564.9 411.5 567C421.953 569.1 420 568 420 568Z" stroke="#DCA34C" stroke-width="3" stroke-linecap="round"/>
<path d="M1013 326H1045.74C1045.74 326 1049.41 276.972 1093.98 270.699C1143.09 263.786 1157.74 310.446 1157.74 310.446C1157.74 310.446 1174.11 298.349 1193.06 304.398C1210.29 309.897 1215.46 326 1215.46 326H1237" stroke="#9F9E9E" stroke-width="6.2963" stroke-linecap="round"/>
<path d="M1943 579L1799.45 574.359C1799.45 574.359 1796.75 584.802 1804.56 574.359C1812.36 563.916 1825.66 564.465 1825.66 564.465C1825.66 564.465 1825.95 560.068 1828.26 556.771C1830.58 553.473 1834.05 552.374 1834.05 552.374C1834.05 552.374 1820.46 543.03 1823.93 527.091C1827.4 511.152 1843.59 508.404 1843.59 508.404C1843.59 508.404 1841.85 485.044 1863.25 483.121C1884.64 481.197 1886.96 502.907 1886.96 502.907C1886.96 502.907 1898.81 503.457 1907.77 516.098C1916.74 528.74 1909.8 541.656 1909.8 541.656C1909.8 541.656 1928.59 540.557 1935.82 556.496C1943.04 572.435 1933.5 574.359 1933.5 574.359C1933.5 574.359 1924.05 575.9 1934.5 578C1944.95 580.1 1943 579 1943 579Z" stroke="#DCA34C" stroke-width="5" stroke-linecap="round"/>
<path d="M1484 369H1503C1503 369 1505.13 340.63 1531 337C1559.5 333 1568 360 1568 360C1568 360 1577.5 353 1588.5 356.5C1598.5 359.682 1601.5 369 1601.5 369H1614" stroke="#DCA34C" stroke-width="5" stroke-linecap="round"/>
<path d="M2136 297.805H2112.07C2112.07 297.805 2109.39 262.081 2076.81 257.509C2040.93 252.472 2030.22 286.472 2030.22 286.472C2030.22 286.472 2018.26 277.657 2004.41 282.065C1991.81 286.071 1988.04 297.805 1988.04 297.805H1972.3" stroke="#DCA34C" stroke-width="6.2963" stroke-linecap="round"/>
<path d="M678 187.805H701.926C701.926 187.805 704.613 152.081 737.185 147.509C773.074 142.472 783.778 176.472 783.778 176.472C783.778 176.472 795.741 167.657 809.593 172.065C822.185 176.071 825.963 187.805 825.963 187.805H841.704" stroke="#776053" stroke-width="6.2963" stroke-linecap="round"/>
<path d="M1628 369.5H1646" stroke="#DCA34C" stroke-width="5" stroke-linecap="round"/>
<path d="M1954.67 298.435H1932" stroke="#DCA34C" stroke-width="6.2963" stroke-linecap="round"/>
<path d="M639 188H661.667" stroke="#776053" stroke-width="6.2963" stroke-linecap="round"/>
<path d="M1601 574L1710.5 576.5C1710.5 576.5 1708.5 566 1704 559.5C1699.5 553 1690 551.5 1690 551.5C1690 551.5 1703 520 1676.5 510.5C1650 501 1639.5 530.5 1639.5 530.5C1639.5 530.5 1627.5 528 1617 539.5C1606.5 551 1612 567.5 1612 567.5C1612 567.5 1606.93 566.825 1604.5 568.5C1602.4 569.944 1601 574 1601 574Z" stroke="#525154" stroke-width="3" stroke-linecap="round"/>
</g>
</g>
<defs>
<clipPath id="clip0_1_598">
<rect width="2560" height="560" fill="white"/>
</clipPath>
<clipPath id="clip1_1_598">
<rect width="2560" height="617" fill="white" transform="translate(0 -45)"/>
</clipPath>
</defs>
</svg>
