<svg width="2560" height="560" viewBox="0 0 2560 560" fill="none" xmlns="http://www.w3.org/2000/svg">
<g clip-path="url(#clip0_1_3)">
<mask id="mask0_1_3" style="mask-type:luminance" maskUnits="userSpaceOnUse" x="0" y="0" width="2560" height="560">
<path d="M2560 0H0V560H2560V0Z" fill="white"/>
</mask>
<g mask="url(#mask0_1_3)">
<mask id="mask1_1_3" style="mask-type:luminance" maskUnits="userSpaceOnUse" x="0" y="0" width="2560" height="560">
<path d="M2560 0H0V560H2560V0Z" fill="white"/>
</mask>
<g mask="url(#mask1_1_3)">
<mask id="mask2_1_3" style="mask-type:luminance" maskUnits="userSpaceOnUse" x="0" y="-45" width="2560" height="617">
<path d="M2560 -45H0V572H2560V-45Z" fill="white"/>
</mask>
<g mask="url(#mask2_1_3)">
<path d="M1434.5 354.5L1433 536.5H1451.5L1447.5 354.5H1434.5Z" fill="#FBEDD0"/>
<path d="M1435.5 354L1434 536H1452.5L1448.5 354H1435.5Z" fill="#6D655F"/>
<path d="M1426 468L1419.5 454L1418.5 448.5H1422.5L1428.5 463.5L1437 449.5L1439.5 448.5L1440 453.5L1431.5 468L1439 483V489H1436L1428.5 473.5L1420 489H1416L1415 486.5L1426 468Z" fill="#FBEDD0"/>
<path d="M1453.83 467.284L1446.52 453.687L1445.2 448.255L1449.19 448.021L1456.06 462.646L1463.73 448.173L1466.17 447.029L1466.96 451.991L1459.32 466.963L1467.68 481.5L1468.03 487.489L1465.04 487.664L1456.64 472.629L1449.06 488.598L1445.07 488.832L1443.92 486.394L1453.83 467.284Z" fill="#FBEDD0"/>
<path d="M1424.44 514.222L1415.5 500L1416.64 494L1419 495.037L1427.04 510L1437 495.037L1438.48 494L1439.5 500L1430 514.222L1439 530.5V536.5L1436 536L1427.04 519.926L1417 535.5L1414.04 536L1412.5 533L1424.44 514.222Z" fill="#FBEDD0"/>
<path d="M1454.97 513.518L1445.21 499.842L1446 493.786L1448.42 494.683L1457.32 509.152L1466.39 493.633L1467.8 492.511L1469.17 498.441L1460.52 513.194L1470.45 528.919L1470.8 534.908L1467.78 534.584L1457.9 519.061L1448.78 535.194L1445.86 535.866L1444.14 532.961L1454.97 513.518Z" fill="#FBEDD0"/>
<path d="M1422.27 561.469L1412.33 545.667L1413.6 539L1416.22 540.152L1425.16 556.778L1436.22 540.152L1437.87 539L1439 545.667L1428.44 561.469L1437.87 579L1436.22 582.333L1434 581.5L1425.16 567.807L1417 580L1412.33 582.333H1409L1422.27 561.469Z" fill="#FBEDD0"/>
<path d="M1455.56 560.812L1444.72 545.616L1445.59 538.887L1448.28 539.884L1458.17 555.96L1468.24 538.716L1469.82 537.47L1474 542.5L1461.72 560.451L1472.15 577.402L1470.71 580.826L1468.44 580.123L1458.81 566.97L1451.38 579.618L1446.86 582.22L1443.53 582.415L1455.56 560.812Z" fill="#FBEDD0"/>
<path d="M1439 535H1413V543H1439V535Z" fill="#FBEDD0"/>
<path d="M1470.72 533.411L1444.76 534.929L1445.23 542.915L1471.18 541.398L1470.72 533.411Z" fill="#FBEDD0"/>
<path d="M1440 489H1414V497H1440V489Z" fill="#FBEDD0"/>
<path d="M1469.03 487.431L1443.07 488.949L1443.54 496.935L1469.49 495.418L1469.03 487.431Z" fill="#FBEDD0"/>
<path d="M1473.5 574.5L1464 449L1471.5 448L1481.5 574.5H1473.5Z" fill="#FBEDD0"/>
<path d="M1412 450.5L1403.5 572H1411L1420.5 450.5H1438.5V572H1446V450.5H1474V442.5H1409V450.5H1412Z" fill="#FBEDD0"/>
<path d="M1427 468L1420.5 454L1419.5 448.5H1423.5L1429.5 463.5L1438 449.5L1440.5 448.5L1441 453.5L1432.5 468L1440 483V489H1437L1429.5 473.5L1421 489H1417L1416 486.5L1427 468Z" fill="#BD9558"/>
<path d="M1454.83 467.284L1447.52 453.687L1446.2 448.255L1450.19 448.021L1457.06 462.646L1464.73 448.173L1467.17 447.029L1467.96 451.991L1460.32 466.963L1468.68 481.5L1469.03 487.489L1466.04 487.664L1457.64 472.629L1450.06 488.598L1446.07 488.832L1444.92 486.394L1454.83 467.284Z" fill="#666666"/>
<path d="M1425.44 514.222L1416.5 500L1417.64 494L1420 495.037L1428.04 510L1438 495.037L1439.48 494L1440.5 500L1431 514.222L1440 530.5V536.5L1437 536L1428.04 519.926L1418 535.5L1415.04 536L1413.5 533L1425.44 514.222Z" fill="#BD9558"/>
<path d="M1455.97 513.518L1446.21 499.842L1447 493.786L1449.42 494.683L1458.32 509.152L1467.39 493.633L1468.8 492.511L1470.17 498.441L1461.52 513.194L1471.45 528.919L1471.8 534.908L1468.78 534.584L1458.9 519.061L1449.78 535.194L1446.86 535.866L1445.14 532.961L1455.97 513.518Z" fill="#666666"/>
<path d="M1423.27 561.469L1413.33 545.667L1414.6 539L1417.22 540.152L1426.16 556.778L1437.22 540.152L1438.87 539L1440 545.667L1429.44 561.469L1438.87 579L1437.22 582.333L1435 581.5L1426.16 567.807L1418 580L1413.33 582.333H1410L1423.27 561.469Z" fill="#BD9558"/>
<path d="M1456.56 560.812L1445.72 545.616L1446.59 538.887L1449.28 539.884L1459.17 555.96L1469.24 538.716L1470.82 537.47L1475 542.5L1462.72 560.451L1473.15 577.402L1471.71 580.826L1469.44 580.123L1459.81 566.97L1452.38 579.618L1447.86 582.22L1444.53 582.415L1456.56 560.812Z" fill="#666666"/>
<path d="M1440 535H1414V543H1440V535Z" fill="#D5A051"/>
<path d="M1471.72 533.411L1445.76 534.929L1446.23 542.915L1472.18 541.398L1471.72 533.411Z" fill="#7D7D7D"/>
<path d="M1441 489H1415V497H1441V489Z" fill="#D5A051"/>
<path d="M1470.03 487.431L1444.07 488.949L1444.54 496.935L1470.49 495.418L1470.03 487.431Z" fill="#7D7D7D"/>
<path d="M1474.5 574.5L1465 449L1472.5 448L1482.5 574.5H1474.5Z" fill="#838383"/>
<path d="M1413 450.5L1404.5 572H1412L1421.5 450.5H1439.5V572H1447V450.5H1475V442.5H1410V450.5H1413Z" fill="#DCA34C"/>
</g>
</g>
</g>
</g>
<defs>
<clipPath id="clip0_1_3">
<rect width="2560" height="560" fill="white"/>
</clipPath>
</defs>
</svg>
