<svg width="1158" height="90" viewBox="0 0 1158 90" fill="none" xmlns="http://www.w3.org/2000/svg">
<path d="M313 90C356.15 90 364 74.5863 364 60V59C364 41.5066 352.22 33.938 321 33L306 32C290.567 31.6248 288 29.4706 288 26V26C288 22.6233 289.548 19 306 19H307C324.739 19 326.645 24.8578 327 28H361V27C361 13.2586 351.577 0 311 0H301C262.729 0 254 11.8833 254 26V28C254 41.4131 263.203 53.062 295 54H310C327.207 54.5628 329 57.5912 329 62V62C329 66.2208 326.517 70 309 70H308C290.129 70 287.31 62.643 287 58H253V59C253 70.3032 257.633 90 303 90H313Z" fill="white"/>
<path d="M402 88H433V25H469V2H366V25H402V88Z" fill="white"/>
<path d="M508 23H544C551.095 23 554 25.9579 554 30V30C554 34.1815 550.963 38 544 38H508V23ZM508 58H538C550.373 58 555 63.1968 555 73V83C555 85.4163 555.246 87.0708 556 88H588V87C587.202 85.5135 586 84.0398 586 78V65C586 53.8956 580.153 47.4624 570 45C576.163 43.5133 586 37.498 586 25V24C586 10.0152 575.901 2 552 2H477V88H508V58Z" fill="white"/>
<path d="M652 0C598.64 0 592 26.696 592 43V47C592 63.1635 598.64 90 652 90H657C710.227 90 717 63.1635 717 47V43C717 26.696 710.14 0 657 0H652ZM684 45C684 54.3233 678.367 67 654 67C629.674 67 625 54.089 625 45V44C625 34.8173 629.227 23 654 23C678.367 23 684 34.8173 684 44V45Z" fill="white"/>
<path d="M751 88H783V56L827 2H792L768 32L744 2H706L751 56V88Z" fill="white"/>
<path d="M862 88V49L902 88H943L893 41L941 2H902L862 36V2H830V88H862Z" fill="white"/>
<path d="M946 2V88H1038V66H977V55H1036V34H977V23H1037V2H946Z" fill="white"/>
<path d="M1078 23H1114C1121.05 23 1124 25.9579 1124 30V30C1124 34.1815 1120.96 38 1114 38H1078V23ZM1078 58H1108C1120.37 58 1125 63.1968 1125 73V83C1125 85.4163 1125.24 87.0708 1126 88H1158V87C1157.24 85.5135 1156 84.0398 1156 78V65C1156 53.8956 1150.15 47.4624 1140 45C1146.21 43.5133 1156 37.498 1156 25V24C1156 10.0152 1145.94 2 1122 2H1047V88H1078V58Z" fill="white"/>
<path d="M119 0V87H100.799C92.549 87 84.5803 84.0002 78.3782 78.5598L31 37V87H0V0H18.2009C26.451 0 34.4197 2.99975 40.6218 8.44019L88 50V0H119Z" fill="white"/>
<path d="M155 87H123L162.261 15.8395C167.652 6.06777 177.93 0 189.09 0V0C200.154 0 210.359 5.96455 215.789 15.6048L256 87H223L189 22H188L155 87ZM172.262 53H205.215L213.585 69H164.138L172.262 53Z" fill="white"/>
</svg>
