<svg width="1557" height="452" viewBox="0 0 1557 452" fill="none" xmlns="http://www.w3.org/2000/svg">
<path d="M837.401 265.499L844.4 208L874.9 300.5H682.4L712.4 208L718.4 265.499H837.401Z" fill="black"/>
<path d="M818.9 179.684L822.4 141L842.4 202.132H714.4L733.9 141.5L737.4 179.684H818.9Z" fill="black"/>
<path d="M682.4 263.499L668.4 301H474.9L568.4 210.5L563.721 263.499H682.4Z" fill="black"/>
<path d="M1096.95 41.5602C1097.43 42.1683 1103.76 43.1414 1111.05 43.6279C1118.47 43.9928 1127.11 44.601 1130.27 44.9659C1134.9 45.3308 1135.38 45.3308 1132.46 44.4794C1127.96 43.1414 1254.95 42.1683 1279.15 43.3847C1288.76 43.7496 1301.9 44.3577 1308.22 44.7226C1314.55 44.9659 1317.83 44.8443 1315.52 44.4794C1313.21 44.1145 1355.66 43.5063 1409.79 43.1414L1508.31 42.5332L1389.11 42.0467C1323.55 41.8034 1267.72 41.5602 1265.04 41.5602C1262.37 41.5602 1225.15 41.6818 1182.33 41.8034C1139.52 41.9251 1102.66 41.6818 1100.35 41.1953C1097.68 40.5871 1096.46 40.7087 1096.95 41.5602Z" fill="url(#paint0_linear_14_26428)"/>
<path d="M1331.94 46.7902C1336.68 47.2767 1343.74 47.6416 1347.75 47.6416H1355.05L1345.93 46.7902C1340.94 46.3036 1333.76 45.9387 1330.12 45.9387C1323.67 45.9387 1323.67 45.9387 1331.94 46.7902Z" fill="url(#paint1_linear_14_26428)"/>
<mask id="path-6-inside-1_14_26428" fill="white">
<path d="M767.99 34.6834L764.462 44.414H752.299H740.258L749.258 35.0483C758.381 25.6826 757.164 26.4123 744.393 38.2107L737.703 44.414L725.54 44.2924C714.106 44.2924 713.62 44.1708 716.782 42.4679C718.607 41.4948 720.066 40.4001 720.066 40.0352C720.066 39.6703 718.12 40.5217 715.688 41.8597C710.822 44.7789 714.958 44.5356 658.034 44.2924C645.627 44.1707 634.437 44.1707 633.099 44.1707C631.761 44.1707 615.341 44.1707 596.609 44.1707C577.878 44.1707 561.214 44.0491 559.511 44.1707C557.808 44.1707 533.238 44.2924 504.776 44.5356L453.082 44.9005L496.87 45.6303C520.953 45.9952 539.32 46.4818 537.617 46.6034C535.914 46.8467 535.184 47.2115 535.793 47.5764C536.522 47.8197 542.239 47.3332 548.686 46.4818C562.552 44.7789 620.814 45.0222 617.895 46.8466C615.584 48.3062 615.705 48.3062 625.801 46.4818C631.031 45.6303 641.857 45.1438 653.777 45.3871C671.778 45.752 672.995 45.8736 670.197 47.5764C668.129 48.7928 668.008 49.1577 669.589 48.6711C677.252 45.9952 681.144 45.6303 693.915 45.8736L708.146 46.2385L692.334 54.9961L676.643 63.8753L654.263 63.7536H631.883L649.276 56.9422C658.763 53.1716 666.426 49.8875 666.183 49.6442C665.94 49.401 657.061 52.5634 646.357 56.5773L627.017 63.8753L593.203 63.632L559.389 63.2671L587.487 56.0908C602.812 52.0769 615.219 48.6712 614.976 48.4279C614.732 48.1846 600.38 51.4687 582.986 55.8475L551.362 63.8753L499.789 63.7536L448.217 63.632L491.275 56.2124C514.993 52.0769 533.725 48.5495 533.117 48.4279C532.387 48.1846 510.493 51.5903 484.464 55.9691L437.027 63.8753L359.912 63.632L282.796 63.2671L306.515 60.5912C378.278 52.5634 411.484 48.6711 409.295 48.3062C407.957 48.1846 374.994 51.5903 336.072 55.9691L265.403 63.8753L148.149 63.7536C83.6834 63.632 32.1111 63.3887 33.449 63.1455C34.787 63.0238 71.5201 60.2263 114.943 56.9422C158.488 53.7797 192.545 50.9822 190.842 50.7389C189.017 50.4957 164.934 52.0769 137.323 54.1446C39.409 61.4426 22.3804 62.6589 11.1902 63.3887C-18.3666 65.5781 9.73063 66.3079 119.565 66.4295C223.44 66.5512 237.306 66.7945 225.629 68.1324C189.99 72.3896 3.64899 93.0671 1.94613 93.0671C0.85143 93.0671 0 93.5537 0 94.2835C0 95.1349 41.7201 95.4998 122.606 95.6214C189.991 95.6214 244.604 95.8647 243.874 96.108C242.414 96.7161 3.28409 136.855 1.33796 136.855C0.608164 136.855 0 137.706 0 138.679C0 140.261 14.7176 140.504 122.484 140.747C238.4 141.112 244.604 141.234 237.184 143.058C232.805 144.153 177.949 158.019 115.308 173.831C52.667 189.644 0.973063 202.537 0.608164 202.537C0.243266 202.537 0 203.631 0 204.969C0 207.402 0.973061 207.402 123.092 207.645L246.307 208.01L237.792 211.294C233.049 213.119 217.844 218.957 203.735 224.187C156.663 241.946 94.6304 265.543 50.4776 282.206C26.3943 291.45 5.23021 299.478 3.40572 300.086C0.729797 301.059 0 302.032 0 304.83V308.357L120.538 308.601L241.076 308.965L121.025 376.472L1.0947 443.978L10.5821 444.343L20.0694 444.708L138.053 376.472L256.037 308.357H354.316C441.527 308.357 457.096 308.722 451.501 311.033C450.893 311.155 420.363 339.374 383.63 373.431C346.897 407.61 314.664 437.653 311.988 440.086L303.246 447.989H313.937H323.746L397.739 376.472L467.678 308.357H566.687C660.345 308.357 665.575 308.479 664.724 310.425C664.237 311.641 653.29 341.077 640.275 375.864C627.261 410.651 613.355 447.029 612.746 448.489C611.652 451.287 614.367 451.489 624.463 451.489L632.746 451.989L654.75 383.526C665.818 349.834 675.792 319.183 677.008 315.29L679.198 308.357H778.45H877.703L879.892 315.29C881.108 319.183 891.082 349.834 902.151 383.405L922.099 444.586H932.437C938.154 444.586 942.533 444.221 942.29 443.613C941.925 443.126 930.735 413.448 917.355 377.688C903.975 341.928 892.663 311.641 892.177 310.425C891.326 308.479 896.556 308.357 990.213 308.357H1089.22L1159.16 376.472L1229.1 444.464H1239.44H1249.78L1242.11 437.531C1210.37 408.583 1104.55 309.939 1104.55 309.209C1104.43 308.722 1148.58 308.357 1202.71 308.357H1300.86L1418.85 376.472L1536.83 444.708L1546.32 444.343L1555.81 443.978L1435.88 376.472L1315.82 308.965L1436.36 308.601L1556.9 308.357V304.83C1556.9 302.032 1556.17 301.059 1553.62 300.086C1551.67 299.478 1516.03 285.855 1474.19 270.043C1432.35 254.231 1386.13 236.716 1371.41 231.12C1356.69 225.525 1337.35 218.227 1328.35 214.822C1319.35 211.416 1311.69 208.375 1311.45 208.01C1311.08 207.645 1366.18 207.402 1433.81 207.402C1556.05 207.402 1556.9 207.402 1556.9 204.969C1556.9 203.631 1556.66 202.537 1556.29 202.537C1555.93 202.537 1504.23 189.644 1441.59 173.831C1378.95 158.019 1324.1 144.153 1319.72 143.058C1312.3 141.234 1318.5 141.112 1434.42 140.747C1542.18 140.504 1556.9 140.261 1556.9 138.679C1556.9 137.706 1556.29 136.855 1555.56 136.855C1553.49 136.855 1314.49 96.7161 1313.03 96.108C1312.42 95.8647 1366.91 95.6214 1434.42 95.6214C1515.18 95.4998 1556.9 95.1349 1556.9 94.2835C1556.9 93.5537 1556.05 93.0671 1554.95 93.0671C1553.25 93.0671 1366.91 72.3896 1331.27 68.1324C1319.59 66.7945 1333.46 66.5512 1437.46 66.4295C1547.17 66.3079 1575.27 65.5781 1545.71 63.3887C1534.52 62.6589 1517.49 61.4426 1419.58 54.1446C1391.97 52.0769 1367.88 50.4957 1366.06 50.7389C1364.36 50.9822 1398.53 53.7797 1441.96 56.9422C1485.5 60.2263 1522.11 63.0238 1523.45 63.1455C1524.79 63.3887 1473.22 63.632 1408.75 63.7536L1291.5 63.8753L1220.83 55.9691C1181.91 51.5903 1148.94 48.1846 1147.61 48.3062C1145.42 48.6711 1178.62 52.5634 1250.39 60.5912L1274.1 63.2671L1196.99 63.632L1119.87 63.8753L1072.44 55.9691C1046.41 51.5903 1024.51 48.1846 1023.78 48.4279C1023.18 48.5495 1041.91 52.0769 1065.63 56.2124L1108.68 63.632L1056.99 63.7536L1005.3 63.8753L972.09 55.4826C953.723 50.8606 938.519 46.725 938.154 46.3601C936.695 44.9005 996.781 45.0222 1008.21 46.4818C1014.66 47.3332 1020.5 47.8197 1021.11 47.5764C1021.84 47.2115 1020.99 46.8467 1019.28 46.6034C1017.58 46.4818 1035.95 45.9952 1060.03 45.6303L1103.82 44.9005L1052.12 44.5356C1023.66 44.2924 999.092 44.1707 997.389 44.1707C995.686 44.0491 979.023 44.1707 960.291 44.1707C941.56 44.1707 925.139 44.1707 923.801 44.1707C922.463 44.1707 911.273 44.1707 898.867 44.2924C841.943 44.5356 846.078 44.7789 841.213 41.8597C838.78 40.5217 836.834 39.6703 836.834 40.0352C836.834 40.4001 838.294 41.4948 840.24 42.4679C843.281 44.1708 842.794 44.2924 831.36 44.2924L819.197 44.414L812.507 38.2107C799.736 26.4123 798.52 25.6826 807.642 35.0483L816.643 44.414H804.601H792.438L788.911 34.6834C786.965 29.2099 785.262 25.0744 784.897 25.3177C784.653 25.6826 785.87 29.8181 787.573 34.805C789.276 39.6703 790.613 43.8058 790.613 44.0491C790.613 44.2924 785.14 44.414 778.45 44.414C771.76 44.414 766.287 44.2924 766.287 44.0491C766.287 43.8058 767.625 39.6703 769.328 34.805C771.031 29.8181 772.247 25.6826 772.004 25.3177C771.639 25.0744 769.936 29.2099 767.99 34.6834ZM967.346 55.4826L997.511 63.2671L963.697 63.632L929.883 63.8753L910.543 56.5773C899.84 52.5634 890.961 49.401 890.717 49.6442C890.474 49.8875 898.137 53.1716 907.624 56.9422L925.018 63.7536H902.637L880.257 63.8753L866.756 56.334C859.336 52.1985 852.16 48.1846 850.943 47.3332C848.997 45.9952 855.201 45.752 884.879 45.752C904.827 45.752 921.369 45.5087 921.612 45.2654C922.463 44.414 936.33 47.4548 967.346 55.4826ZM726.756 54.7528L717.026 63.7536L698.173 63.8753H679.319L695.132 54.7528L710.944 45.752H723.715H736.487L726.756 54.7528ZM760.449 54.7528L757.164 63.8753H738.311L719.458 63.7536L728.946 54.7528L738.555 45.6303H751.083H763.733L760.449 54.7528ZM794.019 53.9014C795.479 58.5234 796.695 62.5373 796.695 63.0238C796.695 63.5104 788.546 63.8753 778.45 63.8753C768.476 63.8753 760.205 63.5104 760.205 63.0238C760.205 62.5373 761.422 58.5234 762.881 53.9014L765.557 45.6303H778.45H791.343L794.019 53.9014ZM827.955 54.7528L837.442 63.7536L818.589 63.8753H799.736L796.452 54.7528L793.168 45.6303H805.818H818.346L827.955 54.7528ZM861.769 54.7528L877.581 63.8753H858.728L839.875 63.7536L830.144 54.7528L820.414 45.752H833.185H845.956L861.769 54.7528ZM411.119 68.1324C406.132 68.9838 370.859 74.9438 332.787 81.3904L263.578 93.0671L144.865 92.9455L26.1511 92.8239L55.9511 89.2965C72.3715 87.472 95.3602 84.7961 107.037 83.4582C118.714 81.9986 152.649 78.2279 182.449 74.8222C212.249 71.5381 239.86 68.254 243.874 67.6459C247.888 67.0377 289.243 66.6728 335.707 66.5512C408.686 66.5512 419.025 66.7945 411.119 68.1324ZM488.356 79.6875L436.054 93.0671L356.992 92.9455L277.931 92.8239L297.392 89.4182C308.096 87.472 326.949 84.1879 339.356 82.1202C351.762 80.0524 376.94 75.6736 395.307 72.3896L428.756 66.5512H484.707L540.658 66.4295L488.356 79.6875ZM618.99 66.7944C618.746 67.0377 603.177 72.9977 584.446 80.1741L550.389 93.0671L498.086 92.9455C453.569 92.8239 446.636 92.5806 451.258 91.2426C454.299 90.3912 474.246 85.2826 495.654 79.6875C517.061 74.2141 537.009 68.9838 540.05 68.1324C543.82 67.0377 556.835 66.5512 582.5 66.4295C602.812 66.4295 619.233 66.5512 618.99 66.7944ZM671.292 66.7944C671.048 67.0377 660.466 72.9977 647.817 80.1741L624.95 93.0671L591.014 92.8239L557.078 92.459L590.284 79.5659L623.368 66.5512L647.573 66.4295C660.953 66.3079 671.535 66.5512 671.292 66.7944ZM704.011 75.7953C698.416 81.1471 691.969 87.1071 689.415 89.2965L685.036 93.0671L657.547 92.8239L629.937 92.459L652.195 79.4443L674.454 66.5512L694.28 66.4295L714.106 66.3079L704.011 75.7953ZM751.204 79.6875L746.218 93.0671H717.755H689.415L703.159 79.6875L717.026 66.4295L736.609 66.3079H756.191L751.204 79.6875ZM802.412 79.0794C804.601 85.7692 806.426 91.6076 806.426 92.0941C806.426 92.7022 793.898 93.0671 778.45 93.0671C763.124 93.0671 750.475 92.7022 750.475 92.3373C750.475 91.4859 757.894 68.3757 758.624 67.1593C758.867 66.6728 767.99 66.4295 778.815 66.5512L798.398 66.9161L802.412 79.0794ZM853.741 79.6875L867.485 93.0671H839.145H810.683L805.696 79.6875L800.709 66.3079H820.292L839.875 66.4295L853.741 79.6875ZM904.219 79.3226L926.964 92.459L899.353 92.8239L871.864 93.0671L867.485 89.2965C864.931 87.1071 858.485 81.1471 852.89 75.7953L842.794 66.3079H862.134H881.595L904.219 79.3226ZM966.008 79.3226L999.822 92.459L965.886 92.8239L931.951 93.0671L909.084 80.1741C896.434 72.9977 885.852 67.0377 885.609 66.7944C885.365 66.5512 895.704 66.3079 908.597 66.3079H932.194L966.008 79.3226ZM1018.43 68.6189C1023.18 69.9569 1043.61 75.1871 1063.68 80.4173C1083.75 85.5259 1102.6 90.3912 1105.64 91.2426C1110.26 92.5806 1103.33 92.8239 1058.81 92.9455L1006.51 93.0671L972.455 80.1741C953.723 72.9977 938.154 67.0377 937.911 66.7944C937.668 66.5512 953.601 66.3079 973.549 66.3079C1005.3 66.3079 1010.65 66.5512 1018.43 68.6189ZM1182.03 76.0385C1213.29 81.3904 1247.83 87.3504 1258.9 89.2965L1278.97 92.8239L1199.91 92.9455L1120.85 93.0671L1068.54 79.6875L1016.24 66.4295H1070.73L1125.23 66.3079L1182.03 76.0385ZM1342.22 70.93C1375.42 74.9438 1434.54 81.7553 1494.75 88.4451L1530.63 92.459L1412.04 92.8239L1293.57 93.0671L1224.23 81.3904C1186.16 74.9438 1150.77 68.9838 1145.78 68.1324C1137.88 66.7945 1148.7 66.5512 1223.63 66.7944L1310.59 67.0377L1342.22 70.93ZM423.161 95.9863C422.917 96.2296 386.428 105.595 342.153 116.664L261.754 136.855L142.067 136.733C76.3854 136.612 23.84 136.247 25.5429 136.004C27.2458 135.76 80.2777 126.516 143.527 115.569L258.47 95.7431L341.059 95.6214C386.549 95.4998 423.404 95.7431 423.161 95.9863ZM537.617 97.5676C533.968 99.1488 483.491 118.488 445.541 132.719L434.473 136.855L355.168 136.612L275.863 136.247L290.946 132.476C314.664 126.395 375.237 110.704 405.037 102.919L432.405 95.7431H487.14C537.496 95.7431 541.509 95.8647 537.617 97.5676ZM618.746 96.2296C618.381 96.5945 602.083 105.96 582.5 116.907L546.983 136.855L495.532 136.612L443.96 136.247L496.019 115.934L547.956 95.7431L583.716 95.6214C603.421 95.4998 619.233 95.8647 618.746 96.2296ZM679.928 98.419C678.225 100 668.251 109.244 657.669 119.097L638.451 136.855H595.758H552.943L588.703 116.177L624.585 95.4998H653.777H682.968L679.928 98.419ZM744.393 96.5945C744.393 97.081 741.109 106.325 737.217 116.907L730.04 136.247L687.226 136.612L644.411 136.855L665.453 116.299L686.617 95.6214L715.566 95.4998C731.378 95.4998 744.393 95.9863 744.393 96.5945ZM813.845 114.596C817.251 125.178 820.414 134.544 820.778 135.274C821.143 136.49 812.142 136.855 778.45 136.855C744.758 136.855 735.757 136.49 736.122 135.274C736.487 134.544 739.649 125.178 743.055 114.596L749.502 95.4998H778.45H807.399L813.845 114.596ZM891.447 116.299L912.49 136.855L869.675 136.612L826.86 136.247L819.684 116.907C815.791 106.325 812.507 97.081 812.507 96.5945C812.507 95.9863 825.522 95.4998 841.456 95.4998L870.283 95.6214L891.447 116.299ZM968.197 116.177L1003.96 136.855H961.143H918.45L899.232 119.097C888.65 109.244 878.676 100 876.973 98.419L873.932 95.4998H903.124H932.316L968.197 116.177ZM1060.27 115.812L1112.94 136.247L1061.37 136.612L1009.92 136.855L974.401 116.907C954.818 105.96 938.519 96.5945 938.154 96.2296C937.668 95.8647 953.237 95.4998 972.455 95.4998H1007.61L1060.27 115.812ZM1151.62 102.919C1167.43 107.055 1196.02 114.475 1215.11 119.34C1234.21 124.327 1256.83 130.165 1265.35 132.233L1281.04 136.247L1201.73 136.612L1122.43 136.855L1111.36 132.719C1073.41 118.488 1022.93 99.1488 1019.28 97.5676C1015.39 95.8647 1019.28 95.7431 1068.91 95.6214L1122.67 95.4998L1151.62 102.919ZM1405.95 114.475C1466.53 124.935 1520.29 134.179 1525.28 135.03C1533.06 136.368 1517 136.612 1414.83 136.733L1295.15 136.855L1214.75 116.664C1170.47 105.595 1133.98 96.2296 1133.74 95.9863C1133.5 95.7431 1169.74 95.4998 1214.5 95.4998H1295.75L1405.95 114.475ZM421.458 141.599C417.687 143.18 369.277 161.546 315.637 181.859C288.878 191.955 265.646 200.712 263.943 201.32C261.997 202.172 217.236 202.415 141.094 202.293L21.4074 201.929L32.2327 199.253C38.3143 197.671 52.7887 194.022 64.4654 190.982C76.1422 187.941 97.5495 182.346 111.902 178.697C126.255 175.048 144.135 170.426 151.433 168.479C158.852 166.533 177.949 161.546 194.004 157.411C210.06 153.275 231.102 147.924 240.833 145.369L258.47 140.747L341.18 140.626C386.671 140.626 422.796 141.112 421.458 141.599ZM538.225 141.599C537.496 142.207 513.047 156.073 483.612 172.615L430.337 202.537L352.37 202.293L274.404 201.929L323.057 183.197C349.694 172.858 385.333 159.114 401.997 152.546L432.405 140.626H485.923C516.331 140.504 538.834 140.99 538.225 141.599ZM630.666 144.031C628.599 145.977 613.638 159.965 597.339 175.048L567.66 202.537H503.682C465.124 202.537 440.433 202.05 441.527 201.32C442.5 200.712 466.584 186.846 495.046 170.426L546.74 140.504H590.527H634.315L630.666 144.031ZM724.08 151.694C721.769 157.897 716.539 171.885 712.525 182.711L705.227 202.537H641.127L577.148 202.415L608.772 171.52L640.397 140.626L684.306 140.504H728.337L724.08 151.694ZM832.577 171.52L842.429 201.929L810.44 202.293C792.803 202.415 764.098 202.415 746.461 202.293L714.471 201.929L723.959 172.737C729.189 156.681 733.689 142.815 734.054 141.964C734.419 140.747 744.028 140.504 778.572 140.747L822.603 141.112L832.577 171.52ZM948.128 171.52L979.753 202.415L915.774 202.537H851.673L844.375 182.711C840.361 171.885 835.131 157.897 832.82 151.694L828.563 140.504H872.594L916.503 140.626L948.128 171.52ZM1061.85 170.426C1090.32 186.846 1114.4 200.712 1115.37 201.32C1116.47 202.05 1091.78 202.537 1053.22 202.537H989.24L959.562 175.048C943.263 159.965 928.302 145.977 926.234 144.031L922.585 140.504H966.373H1010.16L1061.85 170.426ZM1159.4 154.37C1178.99 161.911 1214.75 175.777 1238.71 185.022L1282.5 201.929L1204.53 202.293L1126.56 202.537L1073.29 172.615C1043.85 156.073 1019.4 142.207 1018.8 141.599C1018.07 140.99 1040.45 140.504 1070.61 140.504H1123.77L1159.4 154.37ZM1325.68 147.924C1341.49 151.937 1361.68 157.168 1370.56 159.479C1404.98 168.358 1419.82 172.25 1445 178.697C1459.35 182.346 1480.76 187.941 1492.44 190.982C1504.11 194.022 1518.59 197.671 1524.67 199.253L1535.49 201.929L1415.81 202.293C1339.66 202.415 1294.9 202.172 1292.96 201.32C1291.25 200.712 1268.02 191.955 1241.26 181.859C1187.62 161.546 1139.21 143.18 1135.44 141.599C1134.1 141.112 1169.86 140.626 1214.99 140.626L1296.97 140.504L1325.68 147.924ZM419.025 208.497C418.295 209.105 381.197 230.147 336.436 255.325L255.186 301.059L137.567 300.816C26.516 300.451 20.3127 300.33 25.5429 298.383C30.8947 296.437 228.67 219.809 249.347 211.659L259.686 207.524H339.964C388.13 207.402 419.633 207.889 419.025 208.497ZM560.727 209.105C559.754 210.078 537.009 231.12 510.25 255.934L461.597 301.059H365.507C305.177 301.059 270.147 300.573 271.241 299.843C272.214 299.235 308.339 278.192 351.519 253.136L429.972 207.645L496.262 207.524C553.308 207.402 562.187 207.645 560.727 209.105ZM702.673 208.862C702.43 209.713 694.524 230.877 685.279 255.69L668.372 301.059H571.674H474.976L478.625 297.654C480.693 295.708 502.344 274.665 526.913 250.825L571.553 207.402H637.478C689.658 207.402 703.159 207.767 702.673 208.862ZM859.579 253.623C867.729 278.679 874.54 299.6 874.54 300.086C874.54 300.694 831.36 301.059 778.45 301.059C725.662 301.059 682.36 300.694 682.36 300.33C682.36 299.356 711.674 209.47 712.404 208.253C712.647 207.767 742.569 207.524 778.693 207.645L844.618 208.01L859.579 253.623ZM1029.99 250.825C1054.56 274.665 1076.21 295.708 1078.28 297.654L1081.92 301.059H985.226H888.528L871.621 255.69C862.377 230.877 854.471 209.713 854.227 208.862C853.741 207.767 867.242 207.402 919.423 207.402H985.348L1029.99 250.825ZM1203.07 251.92C1245.52 276.368 1281.89 297.41 1283.83 298.748C1287.48 300.938 1286.27 301.059 1191.39 301.059H1095.3L1046.65 255.934C1019.89 231.12 997.146 210.078 996.173 209.105C994.713 207.645 1003.35 207.402 1060.27 207.402H1125.96L1203.07 251.92ZM1336.99 223.093C1489.39 282.206 1526.49 296.681 1531.36 298.383C1536.59 300.33 1530.26 300.451 1419.33 300.816L1301.71 301.059L1220.46 255.325C1175.7 230.147 1138.61 209.105 1138 208.497C1137.27 207.889 1168.53 207.402 1216.69 207.402H1296.48L1336.99 223.093Z"/>
</mask>
<path d="M767.99 34.6834L764.462 44.414H752.299H740.258L749.258 35.0483C758.381 25.6826 757.164 26.4123 744.393 38.2107L737.703 44.414L725.54 44.2924C714.106 44.2924 713.62 44.1708 716.782 42.4679C718.607 41.4948 720.066 40.4001 720.066 40.0352C720.066 39.6703 718.12 40.5217 715.688 41.8597C710.822 44.7789 714.958 44.5356 658.034 44.2924C645.627 44.1707 634.437 44.1707 633.099 44.1707C631.761 44.1707 615.341 44.1707 596.609 44.1707C577.878 44.1707 561.214 44.0491 559.511 44.1707C557.808 44.1707 533.238 44.2924 504.776 44.5356L453.082 44.9005L496.87 45.6303C520.953 45.9952 539.32 46.4818 537.617 46.6034C535.914 46.8467 535.184 47.2115 535.793 47.5764C536.522 47.8197 542.239 47.3332 548.686 46.4818C562.552 44.7789 620.814 45.0222 617.895 46.8466C615.584 48.3062 615.705 48.3062 625.801 46.4818C631.031 45.6303 641.857 45.1438 653.777 45.3871C671.778 45.752 672.995 45.8736 670.197 47.5764C668.129 48.7928 668.008 49.1577 669.589 48.6711C677.252 45.9952 681.144 45.6303 693.915 45.8736L708.146 46.2385L692.334 54.9961L676.643 63.8753L654.263 63.7536H631.883L649.276 56.9422C658.763 53.1716 666.426 49.8875 666.183 49.6442C665.94 49.401 657.061 52.5634 646.357 56.5773L627.017 63.8753L593.203 63.632L559.389 63.2671L587.487 56.0908C602.812 52.0769 615.219 48.6712 614.976 48.4279C614.732 48.1846 600.38 51.4687 582.986 55.8475L551.362 63.8753L499.789 63.7536L448.217 63.632L491.275 56.2124C514.993 52.0769 533.725 48.5495 533.117 48.4279C532.387 48.1846 510.493 51.5903 484.464 55.9691L437.027 63.8753L359.912 63.632L282.796 63.2671L306.515 60.5912C378.278 52.5634 411.484 48.6711 409.295 48.3062C407.957 48.1846 374.994 51.5903 336.072 55.9691L265.403 63.8753L148.149 63.7536C83.6834 63.632 32.1111 63.3887 33.449 63.1455C34.787 63.0238 71.5201 60.2263 114.943 56.9422C158.488 53.7797 192.545 50.9822 190.842 50.7389C189.017 50.4957 164.934 52.0769 137.323 54.1446C39.409 61.4426 22.3804 62.6589 11.1902 63.3887C-18.3666 65.5781 9.73063 66.3079 119.565 66.4295C223.44 66.5512 237.306 66.7945 225.629 68.1324C189.99 72.3896 3.64899 93.0671 1.94613 93.0671C0.85143 93.0671 0 93.5537 0 94.2835C0 95.1349 41.7201 95.4998 122.606 95.6214C189.991 95.6214 244.604 95.8647 243.874 96.108C242.414 96.7161 3.28409 136.855 1.33796 136.855C0.608164 136.855 0 137.706 0 138.679C0 140.261 14.7176 140.504 122.484 140.747C238.4 141.112 244.604 141.234 237.184 143.058C232.805 144.153 177.949 158.019 115.308 173.831C52.667 189.644 0.973063 202.537 0.608164 202.537C0.243266 202.537 0 203.631 0 204.969C0 207.402 0.973061 207.402 123.092 207.645L246.307 208.01L237.792 211.294C233.049 213.119 217.844 218.957 203.735 224.187C156.663 241.946 94.6304 265.543 50.4776 282.206C26.3943 291.45 5.23021 299.478 3.40572 300.086C0.729797 301.059 0 302.032 0 304.83V308.357L120.538 308.601L241.076 308.965L121.025 376.472L1.0947 443.978L10.5821 444.343L20.0694 444.708L138.053 376.472L256.037 308.357H354.316C441.527 308.357 457.096 308.722 451.501 311.033C450.893 311.155 420.363 339.374 383.63 373.431C346.897 407.61 314.664 437.653 311.988 440.086L303.246 447.989H313.937H323.746L397.739 376.472L467.678 308.357H566.687C660.345 308.357 665.575 308.479 664.724 310.425C664.237 311.641 653.29 341.077 640.275 375.864C627.261 410.651 613.355 447.029 612.746 448.489C611.652 451.287 614.367 451.489 624.463 451.489L632.746 451.989L654.75 383.526C665.818 349.834 675.792 319.183 677.008 315.29L679.198 308.357H778.45H877.703L879.892 315.29C881.108 319.183 891.082 349.834 902.151 383.405L922.099 444.586H932.437C938.154 444.586 942.533 444.221 942.29 443.613C941.925 443.126 930.735 413.448 917.355 377.688C903.975 341.928 892.663 311.641 892.177 310.425C891.326 308.479 896.556 308.357 990.213 308.357H1089.22L1159.16 376.472L1229.1 444.464H1239.44H1249.78L1242.11 437.531C1210.37 408.583 1104.55 309.939 1104.55 309.209C1104.43 308.722 1148.58 308.357 1202.71 308.357H1300.86L1418.85 376.472L1536.83 444.708L1546.32 444.343L1555.81 443.978L1435.88 376.472L1315.82 308.965L1436.36 308.601L1556.9 308.357V304.83C1556.9 302.032 1556.17 301.059 1553.62 300.086C1551.67 299.478 1516.03 285.855 1474.19 270.043C1432.35 254.231 1386.13 236.716 1371.41 231.12C1356.69 225.525 1337.35 218.227 1328.35 214.822C1319.35 211.416 1311.69 208.375 1311.45 208.01C1311.08 207.645 1366.18 207.402 1433.81 207.402C1556.05 207.402 1556.9 207.402 1556.9 204.969C1556.9 203.631 1556.66 202.537 1556.29 202.537C1555.93 202.537 1504.23 189.644 1441.59 173.831C1378.95 158.019 1324.1 144.153 1319.72 143.058C1312.3 141.234 1318.5 141.112 1434.42 140.747C1542.18 140.504 1556.9 140.261 1556.9 138.679C1556.9 137.706 1556.29 136.855 1555.56 136.855C1553.49 136.855 1314.49 96.7161 1313.03 96.108C1312.42 95.8647 1366.91 95.6214 1434.42 95.6214C1515.18 95.4998 1556.9 95.1349 1556.9 94.2835C1556.9 93.5537 1556.05 93.0671 1554.95 93.0671C1553.25 93.0671 1366.91 72.3896 1331.27 68.1324C1319.59 66.7945 1333.46 66.5512 1437.46 66.4295C1547.17 66.3079 1575.27 65.5781 1545.71 63.3887C1534.52 62.6589 1517.49 61.4426 1419.58 54.1446C1391.97 52.0769 1367.88 50.4957 1366.06 50.7389C1364.36 50.9822 1398.53 53.7797 1441.96 56.9422C1485.5 60.2263 1522.11 63.0238 1523.45 63.1455C1524.79 63.3887 1473.22 63.632 1408.75 63.7536L1291.5 63.8753L1220.83 55.9691C1181.91 51.5903 1148.94 48.1846 1147.61 48.3062C1145.42 48.6711 1178.62 52.5634 1250.39 60.5912L1274.1 63.2671L1196.99 63.632L1119.87 63.8753L1072.44 55.9691C1046.41 51.5903 1024.51 48.1846 1023.78 48.4279C1023.18 48.5495 1041.91 52.0769 1065.63 56.2124L1108.68 63.632L1056.99 63.7536L1005.3 63.8753L972.09 55.4826C953.723 50.8606 938.519 46.725 938.154 46.3601C936.695 44.9005 996.781 45.0222 1008.21 46.4818C1014.66 47.3332 1020.5 47.8197 1021.11 47.5764C1021.84 47.2115 1020.99 46.8467 1019.28 46.6034C1017.58 46.4818 1035.95 45.9952 1060.03 45.6303L1103.82 44.9005L1052.12 44.5356C1023.66 44.2924 999.092 44.1707 997.389 44.1707C995.686 44.0491 979.023 44.1707 960.291 44.1707C941.56 44.1707 925.139 44.1707 923.801 44.1707C922.463 44.1707 911.273 44.1707 898.867 44.2924C841.943 44.5356 846.078 44.7789 841.213 41.8597C838.78 40.5217 836.834 39.6703 836.834 40.0352C836.834 40.4001 838.294 41.4948 840.24 42.4679C843.281 44.1708 842.794 44.2924 831.36 44.2924L819.197 44.414L812.507 38.2107C799.736 26.4123 798.52 25.6826 807.642 35.0483L816.643 44.414H804.601H792.438L788.911 34.6834C786.965 29.2099 785.262 25.0744 784.897 25.3177C784.653 25.6826 785.87 29.8181 787.573 34.805C789.276 39.6703 790.613 43.8058 790.613 44.0491C790.613 44.2924 785.14 44.414 778.45 44.414C771.76 44.414 766.287 44.2924 766.287 44.0491C766.287 43.8058 767.625 39.6703 769.328 34.805C771.031 29.8181 772.247 25.6826 772.004 25.3177C771.639 25.0744 769.936 29.2099 767.99 34.6834ZM967.346 55.4826L997.511 63.2671L963.697 63.632L929.883 63.8753L910.543 56.5773C899.84 52.5634 890.961 49.401 890.717 49.6442C890.474 49.8875 898.137 53.1716 907.624 56.9422L925.018 63.7536H902.637L880.257 63.8753L866.756 56.334C859.336 52.1985 852.16 48.1846 850.943 47.3332C848.997 45.9952 855.201 45.752 884.879 45.752C904.827 45.752 921.369 45.5087 921.612 45.2654C922.463 44.414 936.33 47.4548 967.346 55.4826ZM726.756 54.7528L717.026 63.7536L698.173 63.8753H679.319L695.132 54.7528L710.944 45.752H723.715H736.487L726.756 54.7528ZM760.449 54.7528L757.164 63.8753H738.311L719.458 63.7536L728.946 54.7528L738.555 45.6303H751.083H763.733L760.449 54.7528ZM794.019 53.9014C795.479 58.5234 796.695 62.5373 796.695 63.0238C796.695 63.5104 788.546 63.8753 778.45 63.8753C768.476 63.8753 760.205 63.5104 760.205 63.0238C760.205 62.5373 761.422 58.5234 762.881 53.9014L765.557 45.6303H778.45H791.343L794.019 53.9014ZM827.955 54.7528L837.442 63.7536L818.589 63.8753H799.736L796.452 54.7528L793.168 45.6303H805.818H818.346L827.955 54.7528ZM861.769 54.7528L877.581 63.8753H858.728L839.875 63.7536L830.144 54.7528L820.414 45.752H833.185H845.956L861.769 54.7528ZM411.119 68.1324C406.132 68.9838 370.859 74.9438 332.787 81.3904L263.578 93.0671L144.865 92.9455L26.1511 92.8239L55.9511 89.2965C72.3715 87.472 95.3602 84.7961 107.037 83.4582C118.714 81.9986 152.649 78.2279 182.449 74.8222C212.249 71.5381 239.86 68.254 243.874 67.6459C247.888 67.0377 289.243 66.6728 335.707 66.5512C408.686 66.5512 419.025 66.7945 411.119 68.1324ZM488.356 79.6875L436.054 93.0671L356.992 92.9455L277.931 92.8239L297.392 89.4182C308.096 87.472 326.949 84.1879 339.356 82.1202C351.762 80.0524 376.94 75.6736 395.307 72.3896L428.756 66.5512H484.707L540.658 66.4295L488.356 79.6875ZM618.99 66.7944C618.746 67.0377 603.177 72.9977 584.446 80.1741L550.389 93.0671L498.086 92.9455C453.569 92.8239 446.636 92.5806 451.258 91.2426C454.299 90.3912 474.246 85.2826 495.654 79.6875C517.061 74.2141 537.009 68.9838 540.05 68.1324C543.82 67.0377 556.835 66.5512 582.5 66.4295C602.812 66.4295 619.233 66.5512 618.99 66.7944ZM671.292 66.7944C671.048 67.0377 660.466 72.9977 647.817 80.1741L624.95 93.0671L591.014 92.8239L557.078 92.459L590.284 79.5659L623.368 66.5512L647.573 66.4295C660.953 66.3079 671.535 66.5512 671.292 66.7944ZM704.011 75.7953C698.416 81.1471 691.969 87.1071 689.415 89.2965L685.036 93.0671L657.547 92.8239L629.937 92.459L652.195 79.4443L674.454 66.5512L694.28 66.4295L714.106 66.3079L704.011 75.7953ZM751.204 79.6875L746.218 93.0671H717.755H689.415L703.159 79.6875L717.026 66.4295L736.609 66.3079H756.191L751.204 79.6875ZM802.412 79.0794C804.601 85.7692 806.426 91.6076 806.426 92.0941C806.426 92.7022 793.898 93.0671 778.45 93.0671C763.124 93.0671 750.475 92.7022 750.475 92.3373C750.475 91.4859 757.894 68.3757 758.624 67.1593C758.867 66.6728 767.99 66.4295 778.815 66.5512L798.398 66.9161L802.412 79.0794ZM853.741 79.6875L867.485 93.0671H839.145H810.683L805.696 79.6875L800.709 66.3079H820.292L839.875 66.4295L853.741 79.6875ZM904.219 79.3226L926.964 92.459L899.353 92.8239L871.864 93.0671L867.485 89.2965C864.931 87.1071 858.485 81.1471 852.89 75.7953L842.794 66.3079H862.134H881.595L904.219 79.3226ZM966.008 79.3226L999.822 92.459L965.886 92.8239L931.951 93.0671L909.084 80.1741C896.434 72.9977 885.852 67.0377 885.609 66.7944C885.365 66.5512 895.704 66.3079 908.597 66.3079H932.194L966.008 79.3226ZM1018.43 68.6189C1023.18 69.9569 1043.61 75.1871 1063.68 80.4173C1083.75 85.5259 1102.6 90.3912 1105.64 91.2426C1110.26 92.5806 1103.33 92.8239 1058.81 92.9455L1006.51 93.0671L972.455 80.1741C953.723 72.9977 938.154 67.0377 937.911 66.7944C937.668 66.5512 953.601 66.3079 973.549 66.3079C1005.3 66.3079 1010.65 66.5512 1018.43 68.6189ZM1182.03 76.0385C1213.29 81.3904 1247.83 87.3504 1258.9 89.2965L1278.97 92.8239L1199.91 92.9455L1120.85 93.0671L1068.54 79.6875L1016.24 66.4295H1070.73L1125.23 66.3079L1182.03 76.0385ZM1342.22 70.93C1375.42 74.9438 1434.54 81.7553 1494.75 88.4451L1530.63 92.459L1412.04 92.8239L1293.57 93.0671L1224.23 81.3904C1186.16 74.9438 1150.77 68.9838 1145.78 68.1324C1137.88 66.7945 1148.7 66.5512 1223.63 66.7944L1310.59 67.0377L1342.22 70.93ZM423.161 95.9863C422.917 96.2296 386.428 105.595 342.153 116.664L261.754 136.855L142.067 136.733C76.3854 136.612 23.84 136.247 25.5429 136.004C27.2458 135.76 80.2777 126.516 143.527 115.569L258.47 95.7431L341.059 95.6214C386.549 95.4998 423.404 95.7431 423.161 95.9863ZM537.617 97.5676C533.968 99.1488 483.491 118.488 445.541 132.719L434.473 136.855L355.168 136.612L275.863 136.247L290.946 132.476C314.664 126.395 375.237 110.704 405.037 102.919L432.405 95.7431H487.14C537.496 95.7431 541.509 95.8647 537.617 97.5676ZM618.746 96.2296C618.381 96.5945 602.083 105.96 582.5 116.907L546.983 136.855L495.532 136.612L443.96 136.247L496.019 115.934L547.956 95.7431L583.716 95.6214C603.421 95.4998 619.233 95.8647 618.746 96.2296ZM679.928 98.419C678.225 100 668.251 109.244 657.669 119.097L638.451 136.855H595.758H552.943L588.703 116.177L624.585 95.4998H653.777H682.968L679.928 98.419ZM744.393 96.5945C744.393 97.081 741.109 106.325 737.217 116.907L730.04 136.247L687.226 136.612L644.411 136.855L665.453 116.299L686.617 95.6214L715.566 95.4998C731.378 95.4998 744.393 95.9863 744.393 96.5945ZM813.845 114.596C817.251 125.178 820.414 134.544 820.778 135.274C821.143 136.49 812.142 136.855 778.45 136.855C744.758 136.855 735.757 136.49 736.122 135.274C736.487 134.544 739.649 125.178 743.055 114.596L749.502 95.4998H778.45H807.399L813.845 114.596ZM891.447 116.299L912.49 136.855L869.675 136.612L826.86 136.247L819.684 116.907C815.791 106.325 812.507 97.081 812.507 96.5945C812.507 95.9863 825.522 95.4998 841.456 95.4998L870.283 95.6214L891.447 116.299ZM968.197 116.177L1003.96 136.855H961.143H918.45L899.232 119.097C888.65 109.244 878.676 100 876.973 98.419L873.932 95.4998H903.124H932.316L968.197 116.177ZM1060.27 115.812L1112.94 136.247L1061.37 136.612L1009.92 136.855L974.401 116.907C954.818 105.96 938.519 96.5945 938.154 96.2296C937.668 95.8647 953.237 95.4998 972.455 95.4998H1007.61L1060.27 115.812ZM1151.62 102.919C1167.43 107.055 1196.02 114.475 1215.11 119.34C1234.21 124.327 1256.83 130.165 1265.35 132.233L1281.04 136.247L1201.73 136.612L1122.43 136.855L1111.36 132.719C1073.41 118.488 1022.93 99.1488 1019.28 97.5676C1015.39 95.8647 1019.28 95.7431 1068.91 95.6214L1122.67 95.4998L1151.62 102.919ZM1405.95 114.475C1466.53 124.935 1520.29 134.179 1525.28 135.03C1533.06 136.368 1517 136.612 1414.83 136.733L1295.15 136.855L1214.75 116.664C1170.47 105.595 1133.98 96.2296 1133.74 95.9863C1133.5 95.7431 1169.74 95.4998 1214.5 95.4998H1295.75L1405.95 114.475ZM421.458 141.599C417.687 143.18 369.277 161.546 315.637 181.859C288.878 191.955 265.646 200.712 263.943 201.32C261.997 202.172 217.236 202.415 141.094 202.293L21.4074 201.929L32.2327 199.253C38.3143 197.671 52.7887 194.022 64.4654 190.982C76.1422 187.941 97.5495 182.346 111.902 178.697C126.255 175.048 144.135 170.426 151.433 168.479C158.852 166.533 177.949 161.546 194.004 157.411C210.06 153.275 231.102 147.924 240.833 145.369L258.47 140.747L341.18 140.626C386.671 140.626 422.796 141.112 421.458 141.599ZM538.225 141.599C537.496 142.207 513.047 156.073 483.612 172.615L430.337 202.537L352.37 202.293L274.404 201.929L323.057 183.197C349.694 172.858 385.333 159.114 401.997 152.546L432.405 140.626H485.923C516.331 140.504 538.834 140.99 538.225 141.599ZM630.666 144.031C628.599 145.977 613.638 159.965 597.339 175.048L567.66 202.537H503.682C465.124 202.537 440.433 202.05 441.527 201.32C442.5 200.712 466.584 186.846 495.046 170.426L546.74 140.504H590.527H634.315L630.666 144.031ZM724.08 151.694C721.769 157.897 716.539 171.885 712.525 182.711L705.227 202.537H641.127L577.148 202.415L608.772 171.52L640.397 140.626L684.306 140.504H728.337L724.08 151.694ZM832.577 171.52L842.429 201.929L810.44 202.293C792.803 202.415 764.098 202.415 746.461 202.293L714.471 201.929L723.959 172.737C729.189 156.681 733.689 142.815 734.054 141.964C734.419 140.747 744.028 140.504 778.572 140.747L822.603 141.112L832.577 171.52ZM948.128 171.52L979.753 202.415L915.774 202.537H851.673L844.375 182.711C840.361 171.885 835.131 157.897 832.82 151.694L828.563 140.504H872.594L916.503 140.626L948.128 171.52ZM1061.85 170.426C1090.32 186.846 1114.4 200.712 1115.37 201.32C1116.47 202.05 1091.78 202.537 1053.22 202.537H989.24L959.562 175.048C943.263 159.965 928.302 145.977 926.234 144.031L922.585 140.504H966.373H1010.16L1061.85 170.426ZM1159.4 154.37C1178.99 161.911 1214.75 175.777 1238.71 185.022L1282.5 201.929L1204.53 202.293L1126.56 202.537L1073.29 172.615C1043.85 156.073 1019.4 142.207 1018.8 141.599C1018.07 140.99 1040.45 140.504 1070.61 140.504H1123.77L1159.4 154.37ZM1325.68 147.924C1341.49 151.937 1361.68 157.168 1370.56 159.479C1404.98 168.358 1419.82 172.25 1445 178.697C1459.35 182.346 1480.76 187.941 1492.44 190.982C1504.11 194.022 1518.59 197.671 1524.67 199.253L1535.49 201.929L1415.81 202.293C1339.66 202.415 1294.9 202.172 1292.96 201.32C1291.25 200.712 1268.02 191.955 1241.26 181.859C1187.62 161.546 1139.21 143.18 1135.44 141.599C1134.1 141.112 1169.86 140.626 1214.99 140.626L1296.97 140.504L1325.68 147.924ZM419.025 208.497C418.295 209.105 381.197 230.147 336.436 255.325L255.186 301.059L137.567 300.816C26.516 300.451 20.3127 300.33 25.5429 298.383C30.8947 296.437 228.67 219.809 249.347 211.659L259.686 207.524H339.964C388.13 207.402 419.633 207.889 419.025 208.497ZM560.727 209.105C559.754 210.078 537.009 231.12 510.25 255.934L461.597 301.059H365.507C305.177 301.059 270.147 300.573 271.241 299.843C272.214 299.235 308.339 278.192 351.519 253.136L429.972 207.645L496.262 207.524C553.308 207.402 562.187 207.645 560.727 209.105ZM702.673 208.862C702.43 209.713 694.524 230.877 685.279 255.69L668.372 301.059H571.674H474.976L478.625 297.654C480.693 295.708 502.344 274.665 526.913 250.825L571.553 207.402H637.478C689.658 207.402 703.159 207.767 702.673 208.862ZM859.579 253.623C867.729 278.679 874.54 299.6 874.54 300.086C874.54 300.694 831.36 301.059 778.45 301.059C725.662 301.059 682.36 300.694 682.36 300.33C682.36 299.356 711.674 209.47 712.404 208.253C712.647 207.767 742.569 207.524 778.693 207.645L844.618 208.01L859.579 253.623ZM1029.99 250.825C1054.56 274.665 1076.21 295.708 1078.28 297.654L1081.92 301.059H985.226H888.528L871.621 255.69C862.377 230.877 854.471 209.713 854.227 208.862C853.741 207.767 867.242 207.402 919.423 207.402H985.348L1029.99 250.825ZM1203.07 251.92C1245.52 276.368 1281.89 297.41 1283.83 298.748C1287.48 300.938 1286.27 301.059 1191.39 301.059H1095.3L1046.65 255.934C1019.89 231.12 997.146 210.078 996.173 209.105C994.713 207.645 1003.35 207.402 1060.27 207.402H1125.96L1203.07 251.92ZM1336.99 223.093C1489.39 282.206 1526.49 296.681 1531.36 298.383C1536.59 300.33 1530.26 300.451 1419.33 300.816L1301.71 301.059L1220.46 255.325C1175.7 230.147 1138.61 209.105 1138 208.497C1137.27 207.889 1168.53 207.402 1216.69 207.402H1296.48L1336.99 223.093Z" fill="url(#paint2_linear_14_26428)" stroke="url(#paint3_radial_14_26428)" stroke-width="2" mask="url(#path-6-inside-1_14_26428)"/>
<path fill-rule="evenodd" clip-rule="evenodd" d="M908.496 86.3424C910.771 93.2237 915.493 96.2193 922.35 91.3894C930.204 85.8583 929.212 79.7824 929.114 74.9481L932.915 79.1268C933.712 80.7006 934.131 82.2896 933.968 84.3952C933.799 86.6007 931.875 92.1926 931.116 94.5652C926.446 109.176 924.028 124.159 922.596 139.758C921.634 150.256 925.55 155.587 925.493 162.805L917.368 163.554C920.097 160.799 919.873 160.966 919.283 156.29C918.109 146.967 916.839 135.063 917.331 125.933C917.77 117.794 919.02 113.765 917.659 105.239C916.719 99.3343 919.103 100.12 917.097 96.7533C915.486 94.0507 913.285 93.3279 910.763 94.6498C908.696 98.0861 910.956 97.5391 912.276 101.603C914.436 108.25 904.73 134.889 909.862 162.486L902.974 158.709C902.536 153.178 904.235 146.203 903.806 138.868C903.421 132.317 902.866 125.116 903.324 118.572C905.277 90.762 897.224 87.9444 908.496 86.3424ZM894.61 55.2681C893.271 66.2499 898.001 63.1262 893.874 73.4612C896.416 77.5878 897.38 74.7354 898.333 81.7534C890.269 85.778 884.562 81.4365 879.73 90.9162C878.215 94.4567 876.86 98.644 875.935 103.003C875.08 107.03 875.762 112.819 874.296 115.915C872.848 121.413 869.358 127.17 867.671 132.495C865.748 138.566 868.071 146.242 867.736 153.395L868.292 163.74C870.843 164.926 873.441 165.707 876.806 165.555C881.636 165.336 883.01 162.998 883.806 168.345C881.599 169.352 883.72 168.655 882.152 168.36C878.356 167.644 880.405 166.834 869.981 167.327C869.184 171.805 871.737 176.472 873.283 179.672C874.633 180.931 875.681 181.743 876.799 182.706C883.789 174.57 880.344 174.807 881.406 172.115C884.549 173.205 881.529 172.645 884.59 178.039C885.298 179.287 886.973 181.467 887.892 182.991C891.691 189.308 888.929 193.808 895.051 209.072C896.716 213.227 897.239 218.48 898.283 223.163C902.273 236.539 900.803 238.295 901.626 252.261C900.938 258.077 889.72 268.651 897.026 276.203C899.855 278.38 908.008 276.669 911.318 266.458C913.721 259.043 919.454 255.552 919.693 248.992C920.127 255.311 921.747 258.995 921.43 265.101C921.187 269.775 921.957 276.871 924.41 280.151C927.508 284.293 933.028 282.027 934.865 277.108C936.653 272.313 935.913 264.554 935.162 259.08C938.522 252.628 937.457 236.152 938.375 227.411L945.084 190.625C947.377 181.106 954.228 187.658 953.107 173.146C952.309 162.807 949.43 151.801 950.188 141.288C951.013 142.244 950.82 141.814 951.523 143.407L955.964 168.666C959.036 168.866 960.872 170.581 963.733 171.464C967.78 172.714 968.674 171.327 972.275 172.951C972.024 173.138 971.717 173.324 971.476 173.442C967.248 175.491 967.591 175.347 958.804 173.505C957.629 178.083 957.456 182.481 956.053 187.723C954.738 192.642 953.861 195.824 952.999 201.116C951.664 209.3 953.216 223.697 953.216 232.829C953.592 234.487 954.749 234.967 955.797 235.822C955.932 235.931 956.236 236.133 956.346 236.217L957.486 236.999C969.675 238.777 968.322 235.469 970.806 224.602C972.479 217.282 973.988 209.404 975.753 202.415C978.026 191.96 978.347 187.577 978.9 176.431L978.753 157.441L974.45 155.73C974.457 151.456 975.989 147.531 975.562 144.484C975.154 141.566 973.343 139.745 972.894 136.129L970.315 129.184C963.26 108.603 968.168 123.23 964.758 106.7C962.527 98.8546 958.324 88.8778 950.765 86.9762C936.692 83.4358 938.748 81.7491 930.946 73.3678L934.756 61.8303C934.765 59.8267 932.551 45.541 931.91 44.0063C930.855 41.4752 923.025 36.1481 919.233 36.0266C907.24 35.6402 895.492 39.4043 892.248 51.3542C892.502 51.7168 893.512 52.8976 893.566 52.9801C894.022 53.69 894.046 53.3796 894.61 55.2681Z" fill="#979797"/>
<path fill-rule="evenodd" clip-rule="evenodd" d="M908.494 86.3406C897.222 87.9426 905.275 90.7602 903.321 118.57C902.863 125.114 903.419 132.315 903.803 138.866C904.233 146.201 902.533 153.176 902.972 158.707L909.86 162.484C904.728 134.887 914.433 108.248 912.274 101.601C910.954 97.5373 908.694 98.0843 910.761 94.648C913.283 93.326 915.484 94.0489 917.095 96.7515C919.101 100.118 916.717 99.3325 917.657 105.237C919.018 113.764 917.768 117.793 917.329 125.931C916.836 135.061 918.106 146.965 919.281 156.289C919.871 160.964 920.095 160.797 917.366 163.552L925.491 162.803C925.548 155.585 921.632 150.254 922.593 139.756C924.026 124.157 926.444 109.175 931.114 94.5633C931.873 92.1907 933.796 86.5989 933.966 84.3934C934.129 82.2878 933.71 80.6988 932.913 79.125L929.112 74.9463C929.21 79.7805 930.202 85.8565 922.348 91.3875C915.491 96.2175 910.769 93.2218 908.494 86.3406Z" fill="#FCFDFC"/>
<path fill-rule="evenodd" clip-rule="evenodd" d="M683.022 61.6923C687.653 66.1227 683.804 68.4035 686.808 74.736C689.16 79.696 691.174 81.8499 688.953 88.7919C687.058 87.1134 677.572 70.4364 676.386 67.3814C678.209 69.1542 678.603 70.2486 680.599 71.0693L683.022 61.6923V61.6923ZM684.352 55.0753L685.402 52.6695C692.377 55.7419 690.33 53.0885 691.12 55.8086C692.792 53.4458 690.632 54.2607 693.368 53.6026C694.182 57.2035 698.687 63.3223 699.749 71.605C700.225 75.3188 696.654 91.1788 694.41 93.596C694.162 84.411 697.385 81.7189 693.43 73.6507C691.44 69.5906 686.334 63.5113 689.022 58.7048L689.602 58.0647C689.663 57.9964 689.916 58.0019 689.994 57.8022C690.076 57.5921 690.283 57.6405 690.43 57.5655C687.014 55.8832 689.438 56.8188 687.16 54.6572C685.561 54.7386 685.792 54.8685 684.352 55.0753V55.0753ZM684.352 55.0753L683.022 61.6923L679.806 68.4067C675.735 66.1566 654.443 45.4515 667.048 38.755C669.036 43.6029 661.336 50.0953 684.352 55.0753ZM667.792 14.5812C665.504 25.2031 661.856 21.9413 664.652 34.3848C664.155 38.6761 666.279 35.7472 663.526 38.9973C659.208 44.0927 664.281 40.8517 656.278 48.1891C654.876 49.474 653.713 51.2925 652.588 52.6708C648.018 58.2726 640.389 63.2996 639.95 72.1902C640.677 75.2151 639.518 77.89 640.626 82.44C641.399 85.6138 642.692 88.7807 642.894 92.2461C642.842 97.2949 642.701 103.645 644.508 108.224C645.702 111.252 646.775 111.331 648.019 114.797C648.925 117.319 649.262 119.552 649.306 122.723C650.253 139.901 643.861 137.854 640.599 149.415C638.206 157.822 636.059 160.572 638.626 168.488C639.726 171.884 640.224 173.371 640.603 177.179C641.106 182.248 641.957 181.559 643.37 185.198C646.583 186.993 649.539 192.392 654.013 190.076C656.925 187.025 655.728 180.493 654.19 177.712C653.351 171.99 649.525 171.387 652.257 164.884C654.361 159.874 655.091 155.048 658.551 151.802C662.001 148.561 664.425 147.683 667.322 142.512C669.089 139.358 672.224 131.422 673.806 129.746C674.294 130.722 674.136 129.772 674.343 131.568C675.115 138.218 671.68 142.547 677.373 148.504C681.725 153.056 682.535 151.583 684.71 154.195C686.969 156.906 687.445 158.555 690.682 161.126C694.607 162.978 702.236 167.537 700.609 158.277C699.386 155.984 698.946 153.685 697.218 151.346C694.625 147.833 688.019 146.446 691.304 135.171C692.009 132.754 694.698 129.232 696.057 127.55C698.581 120.538 698.173 116.195 699.82 109.338C701.195 108.945 702.733 108.089 703.967 107.489C707.061 105.981 705.695 106.542 707.914 104.381C710.481 102.762 709.144 103.273 710.813 101.008C709.98 97.5264 709.476 100.78 709.73 94.9606C709.961 89.6847 710.503 92.6123 712.175 89.0186C713.644 85.858 711.639 79.1117 712.64 75.4717L712.214 73.8292C711.856 71.5234 712.288 75.0731 712.107 72.6795C711.64 66.4646 710.359 62.6327 709.189 55.3855C709.068 37.9384 706.864 47.3707 699.129 39.7363C699.05 35.3354 699.67 37.4083 701.002 34.2491C702.098 31.6531 701.341 31.0637 701.971 28.3608C703.964 27.2653 703.754 27.6575 705.57 27.5229C705.799 25.5987 705.707 23.2773 705.082 21.1987L698.857 12.6349C697.9 11.8998 697.188 11.8421 696.018 11.1581L694.06 9.49066C691.575 8.92466 688.375 7.8891 685.669 6.85111C681.722 5.3382 681.623 4.785 678.312 6.40623C674.232 8.40457 669.503 8.68099 667.792 14.5812V14.5812Z" fill="#979797"/>
<path fill-rule="evenodd" clip-rule="evenodd" d="M683.027 61.6929L684.357 55.0759C661.341 50.0959 669.041 43.6035 667.053 38.7556C654.448 45.4521 675.74 66.1573 679.811 68.4073L683.027 61.6929Z" fill="#FCFDFC"/>
<path fill-rule="evenodd" clip-rule="evenodd" d="M684.356 55.0741C685.795 54.8673 685.565 54.7374 687.164 54.6559C689.441 56.8175 687.018 55.882 690.434 57.5643C690.287 57.6393 690.08 57.5908 689.998 57.8009C689.92 58.0007 689.666 57.9952 689.606 58.0634L689.025 58.7035C686.338 63.51 691.444 69.5894 693.433 73.6494C697.389 81.7176 694.166 84.4098 694.414 93.5947C696.658 91.1775 700.229 75.3176 699.753 71.6037C698.691 63.321 694.186 57.2022 693.372 53.6013C690.636 54.2594 692.795 53.4446 691.124 55.8074C690.334 53.0873 692.381 55.7406 685.406 52.6683L684.356 55.0741V55.0741Z" fill="#FCFDFC"/>
<path fill-rule="evenodd" clip-rule="evenodd" d="M683.029 61.6933L680.606 71.0704C678.609 70.2496 678.215 69.1552 676.392 67.3824C677.578 70.4374 687.065 87.1144 688.96 88.7929C691.181 81.851 689.167 79.697 686.815 74.737C683.811 68.4045 687.659 66.1238 683.029 61.6933V61.6933Z" fill="#FCFDFC"/>
<path fill-rule="evenodd" clip-rule="evenodd" d="M562.509 122.607L562.305 125.98C562.11 126.051 561.847 126.116 561.702 126.143L557.342 126.139C555.024 125.585 554.717 125.351 553.318 124.314L551.603 123.927C550.663 123.444 550.585 123.214 549.923 122.607C543.85 117.042 545.675 116.352 543.658 111.693C542.497 109.008 536.98 100.092 534.572 98.1561C535.72 97.4003 533.504 96.8592 536.41 97.8393C537.412 99.7429 539.619 101.598 541.431 102.834C542.161 101.21 542.571 99.8932 543.178 98.2438C543.327 97.8359 544.055 96.0166 544.245 95.6747C545.358 93.6595 543.789 95.4416 545.34 94.3142L547.823 88.3536C549.108 88.7939 548.366 88.4326 549.294 89.0367C549.318 89.0527 550.449 90.1091 550.629 90.3031C552.368 87.7197 551.355 88.9335 554.733 87.7373C554.999 94.0002 554.353 90.3719 551.912 89.5821L556.004 93.3554C555.835 90.1722 554.477 89.3295 555.05 87.1262C555.42 85.7074 555.397 86.3353 555.834 85.9264C561.076 94.5585 566.593 112.949 562.509 122.607ZM536.41 97.8393C534.619 95.8263 532.942 95.3396 530.748 92.5969C525.735 86.3302 523.498 82.7038 523.733 72.9837C525.226 73.8793 523.981 72.9134 524.987 74.3573C531.684 83.9682 528.794 86.1351 545.893 89.7709L541.368 100.491C538.61 100.007 538.928 99.1932 536.41 97.8393ZM538.045 39.3404C532.459 40.2096 531.304 40.3377 526.105 42.9352C524.446 43.7642 524.222 44.5304 522.595 45.6128C517.564 54.0675 519.736 62.2766 521.513 69.8416C521.764 72.495 519.595 73.7121 517.687 75.0904L501.214 87.354C498.769 89.3603 494.739 97.5814 493.485 101.158C491.603 106.524 489.792 115.735 487.457 120.212C487.81 121.328 485.867 133.24 485.782 136.09C485.593 142.507 486.267 145.807 489.554 149.782C492.502 151.394 495.904 161.315 502.322 159.332C502.391 156.73 498.939 156.204 498.606 151.864C502.037 154.386 501.413 156.882 506.397 156.896C507.348 150.515 499.412 153.372 503.281 140.612C504.473 136.676 506.25 124.401 509.785 120.973L517.394 130.381C515.333 143.007 512.211 141.634 514.998 154.702C512.815 156.352 510.987 156.613 508.36 158.175C495.711 165.697 510.75 169.843 510.338 177.121C513.103 179.299 512.255 180.189 516.986 181.702C531.088 186.209 529.559 178.561 523.924 172.843C525.382 171.259 527.032 170.107 529.712 169.517C532.73 172.123 541.367 183.086 542.408 186.599C544.574 188 545.499 190.825 546.946 193.465C549.276 197.722 548.214 197.408 549.697 202.065C551.598 208.033 554.644 212.203 556.563 218.654C556.912 219.199 556.781 218.924 557.31 220.003C557.581 220.557 557.883 221.287 558.145 221.875C560.196 226.47 561.989 228.055 563.233 231.458C566.453 232.24 564.041 231.249 568.355 231.146C568.845 233.354 569.966 235.958 570.632 238.752C572.961 240.466 570.739 241.796 576.868 245.458C593.642 255.47 587.139 236.592 585.64 234.004C584.34 231.763 583.899 232.537 583.401 230.242C578.231 225.713 582.437 224.984 580.913 220.543C580.694 219.906 575.558 212.165 575.012 207.399C571.952 204.222 569.144 195.314 568.51 190.997C567.11 181.456 565.197 180.491 563.623 174.259L561.41 169.285C555.993 155.586 559.2 160.631 559.202 153.486C559.437 153.412 567.428 152.149 569.012 148.608C569.619 147.254 566.871 133.644 568.153 127.094C570.075 131.718 571.735 138.693 572.535 144.031C574.068 154.255 577.728 147.843 578.229 147.501C581.023 145.594 587.716 145.402 591.944 147.377C592.271 145.055 591.06 140.221 591.023 136.963C589.456 132.251 589.742 126.095 588.541 120.748C587.665 116.846 584.541 108.913 585.215 105.386C584.037 103.808 581.702 96.9069 581.291 94.3414C580.807 91.3251 581.266 83.9145 581.265 80.7465C578.919 76.6263 577.688 72.1062 574.456 68.2905C569.811 62.8083 567.39 61.9179 559.538 61.143L560.785 55.6962C559.364 53.9877 558.458 51.9412 556.978 49.9684C555.401 47.8645 554.918 47.2765 552.757 45.1439C546.798 39.2619 546.3 40.6115 538.045 39.3404Z" fill="#979797"/>
<path fill-rule="evenodd" clip-rule="evenodd" d="M545.337 94.3121L548.156 96.5654C546.173 104.285 548.913 105.518 550.971 110.599C552.511 114.397 552.966 119.835 553.316 124.312C554.715 125.349 555.022 125.583 557.34 126.137L561.699 126.141C561.845 126.114 562.107 126.049 562.303 125.978L562.507 122.605C557.852 103.592 555.778 106.534 552.637 98.3324C551.094 94.3 550.142 95.8964 550.626 90.3011C550.446 90.107 549.316 89.0506 549.291 89.0347C548.364 88.4305 549.105 88.7918 547.82 88.3516L545.337 94.3121Z" fill="#979797"/>
<path fill-rule="evenodd" clip-rule="evenodd" d="M536.405 97.8394C538.923 99.1934 538.605 100.007 541.364 100.491L545.888 89.771C528.789 86.1352 531.68 83.9683 524.982 74.3574C523.976 72.9135 525.221 73.8795 523.728 72.9839C523.493 82.704 525.73 86.3303 530.743 92.5971C532.938 95.3397 534.614 95.8265 536.405 97.8394V97.8394Z" fill="#FCFDFC"/>
<path fill-rule="evenodd" clip-rule="evenodd" d="M550.629 90.3039C550.145 95.8993 551.097 94.3028 552.64 98.3352C555.781 106.537 557.855 103.595 562.509 122.608C566.594 112.95 561.076 94.5593 555.834 85.9271C555.397 86.3361 555.421 85.7082 555.051 87.127C554.477 89.3302 555.836 90.1729 556.004 93.3562L551.912 89.5829C554.354 90.3727 554.999 94.001 554.734 87.7381C551.355 88.9342 552.369 87.7205 550.629 90.3039V90.3039Z" fill="#FCFDFC"/>
<path fill-rule="evenodd" clip-rule="evenodd" d="M536.408 97.8409C533.502 96.8608 535.718 97.402 534.57 98.1578C536.978 100.093 542.495 109.01 543.656 111.695C545.673 116.354 543.848 117.044 549.921 122.609C550.583 123.215 550.661 123.445 551.601 123.928L553.316 124.316C552.967 119.839 552.511 114.401 550.972 110.603C548.914 105.522 546.173 104.289 548.156 96.569L545.338 94.3158C543.787 95.4433 545.356 93.6611 544.243 95.6763C544.053 96.0183 543.325 97.8376 543.176 98.2454C542.569 99.8948 542.159 101.212 541.429 102.835C539.617 101.599 537.41 99.7446 536.408 97.8409V97.8409Z" fill="#FCFDFC"/>
<path d="M575.605 154.585C575.988 153.24 576.65 151.99 577.547 150.916L577.95 150.433C578.475 149.804 579.096 149.262 579.79 148.826V148.826C582.016 147.43 584.796 147.249 587.185 148.345L587.377 148.433C587.922 148.683 588.433 149.001 588.898 149.379V149.379C590.001 150.276 590.811 151.482 591.222 152.842L591.365 153.315C592.111 155.781 591.729 158.452 590.322 160.61L587.382 165.12C585.845 167.477 582.201 166.612 581.887 163.816L581.205 157.733C581.103 156.824 579.935 156.518 579.4 157.26L578.536 158.459C577.227 160.277 574.376 158.897 574.99 156.742L575.605 154.585Z" fill="#979797"/>
<defs>
<linearGradient id="paint0_linear_14_26428" x1="1382.52" y1="51.428" x2="1382.38" y2="39.8872" gradientUnits="userSpaceOnUse">
<stop/>
<stop offset="1" stop-opacity="0"/>
</linearGradient>
<linearGradient id="paint1_linear_14_26428" x1="1346.01" y1="50.0626" x2="1345.73" y2="45.5952" gradientUnits="userSpaceOnUse">
<stop/>
<stop offset="1" stop-opacity="0"/>
</linearGradient>
<linearGradient id="paint2_linear_14_26428" x1="1080.93" y1="1058.61" x2="772.329" y2="27.1389" gradientUnits="userSpaceOnUse">
<stop/>
<stop offset="0.916667" stop-opacity="0"/>
</linearGradient>
<radialGradient id="paint3_radial_14_26428" cx="0" cy="0" r="1" gradientUnits="userSpaceOnUse" gradientTransform="translate(770.9 442.001) rotate(-89.2043) scale(468.045 1737.48)">
<stop stop-color="#DCA34C"/>
<stop offset="0.807292" stop-color="#DCA34C" stop-opacity="0"/>
</radialGradient>
</defs>
</svg>
