<svg width="2560" height="560" viewBox="0 0 2560 560" fill="none" xmlns="http://www.w3.org/2000/svg">
<style>
   .floating{
        animation-name: floating;
        animation-iteration-count: infinite;
    }
    .floating.fl_1{animation-duration: 3.2s;}
    .floating.fl_2{animation-duration: 3.7s;}
    .floating.fl_3{animation-duration: 2.8s;}
    .floating.fl_4{animation-duration: 4s;}
    .floating.fl_5{animation-duration: 5s;}
    .floating.fl_6{animation-duration: 3.5s;}
    .floating.fl_7{animation-duration: 3.8s;}
    .floating.fl_8{animation-duration: 3.5s;}
    .floating.fl_9{animation-duration: 3.7s;}
    .floating.fl_10{animation-duration: 3.4s;}
    .floating.fl_11{animation-duration: 3s;}
    .floating.fl_12{animation-duration: 4.5s;}
    .floating.fl_13{animation-duration: 3.5s;}
    .floating.fl_14{animation-duration: 3.5s;}
    .floating.fl_15{animation-duration: 4.2s;}
    .floating.fl_16{animation-duration: 3.2s;}
    .floating.fl_17{animation-duration: 3.9s;}
    @keyframes floating {
        0%{transform:translateY(0); }
        50%{transform:translateY(10px);}
    }

    .rotate{
     transform-box: fill-box;
   transform-origin: top;
    display: block;
    -webkit-animation: rotating 20s linear infinite;
    animation-delay: 0.2s;
    }
       .rotate-2{
    animation-delay: 0.5s;
    animation-duration: 15s;
    }


    @-webkit-keyframes rotating {
        from{
            -webkit-transform: rotate(0deg);
        }
        to{
            -webkit-transform: rotate(360deg);
        }
}
</style>
<g clip-path="url(#clip0_5_2722)">
<mask id="mask0_5_2722" style="mask-type:luminance" maskUnits="userSpaceOnUse" x="0" y="0" width="2560" height="560">
<path d="M2560 0H0V560H2560V0Z" fill="white"/>
</mask>
<g mask="url(#mask0_5_2722)">
<mask id="mask1_5_2722" style="mask-type:luminance" maskUnits="userSpaceOnUse" x="0" y="-45" width="2560" height="617">
<path d="M2560 -45H0V572H2560V-45Z" fill="white"/>
</mask>
<g mask="url(#mask1_5_2722)">
<path d="M1572.5 556.5V572H1580.5V556.5H1598.5L1598 544H1589.5V552H1580.5V538.5H1598.5V534H1594.5V527H1589.5V534H1580.5V507.5H1598.5V502.5H1594.5V500H1598.5V489.5H1594.5V487.5H1598.5V482.5H1594.5V480H1598.5V470H1594.5V468H1598.5V463H1554.5V467.5H1558.5V470H1554V480H1558.5V482.5H1554V487.5H1558.5V489.5H1554V500H1558V502.5H1554V507.5H1572L1572.5 534H1563V527H1558V534H1554V538L1572.5 538.5V552H1563V544H1555V556.5H1572.5Z" fill="#FBEDD0"/>
<path d="M1574.5 556.5V572H1582.5V556.5H1600.5L1600 544H1591.5V552H1582.5V538.5H1600.5V534H1596.5V527H1591.5V534H1582.5V507.5H1600.5V502.5H1596.5V500H1600.5V489.5H1596.5V487.5H1600.5V482.5H1596.5V480H1600.5V470H1596.5V468H1600.5V463H1556.5V467.5H1560.5V470H1556V480H1560.5V482.5H1556V487.5H1560.5V489.5H1556V500H1560V502.5H1556V507.5H1574L1574.5 534H1565V527H1560V534H1556V538L1574.5 538.5V552H1565V544H1557V556.5H1574.5Z" fill="#5B5A5F"/>
<path d="M1959.5 495.5V572H1967.5L1967 495.5L1978 500V496.5C1982.4 491.326 1980.93 489.333 1978 485.5V481L1969.5 484.5C1964.74 479.992 1962.04 479.606 1957 484.5L1948.5 481V485.5C1944.9 489.704 1945.04 492.115 1948.5 496.5V500L1959.5 495.5Z" fill="#FBEDD0"/>
<path d="M1961.5 495.5V572H1969.5L1969 495.5L1980 500V496.5C1984.4 491.326 1982.93 489.333 1980 485.5V481L1971.5 484.5C1966.74 479.992 1964.04 479.606 1959 484.5L1950.5 481V485.5C1946.9 489.704 1947.04 492.115 1950.5 496.5V500L1961.5 495.5Z" fill="#5B5A5F"/>
<path d="M2017 229L1598 235.5L1597 236.5L2017 242V229Z" fill="#D9D9D9"/>
<path d="M2014.15 245C2013.81 238.167 2014.15 224.4 2014.15 224L2022.65 231L2030.15 233L2035.65 235L2031.65 236.5L2023.15 238.5L2014.15 245Z" fill="#FBEDD0"/>
<path d="M2016.15 245C2015.81 238.167 2016.15 224.4 2016.15 224L2024.65 231L2032.15 233L2037.65 235L2033.65 236.5L2025.15 238.5L2016.15 245Z" fill="#5B5A5F"/>
<path d="M0 415H2560" stroke="#FBEDD0" stroke-width="6"/>
<path d="M1155 268H1144V324H1155V268Z" fill="#FBEDD0"/>
<path d="M1154 268H1143V324H1154V268Z" fill="#776053"/>
<path fill-rule="evenodd" clip-rule="evenodd" d="M1162 322H1137V369H1125V569H1172V369H1162V322Z" fill="#FBEDD0"/>
<path fill-rule="evenodd" clip-rule="evenodd" d="M1161 322H1136V369H1124V569H1171V369H1161V322Z" fill="#5B5A5F"/>
<path d="M1101.05 505L1095 509.916L1145.55 572.162L1151.61 567.246L1101.05 505Z" fill="#FBEDD0"/>
<path d="M1101.05 438L1095 442.916L1145.55 505.162L1151.61 500.246L1101.05 438Z" fill="#FBEDD0"/>
<path d="M1100.05 371L1094 375.916L1144.55 438.162L1150.61 433.246L1100.05 371Z" fill="#FBEDD0"/>
<path d="M1198.93 374.241L1204.98 379.157L1157.06 438.162L1151 433.246L1198.93 374.241Z" fill="#FBEDD0"/>
<path d="M1198.93 441L1204.98 445.916L1157.06 504.921L1151 500.005L1198.93 441Z" fill="#FBEDD0"/>
<path d="M1198.93 506L1204.98 510.916L1157.06 569.921L1151 565.005L1198.93 506Z" fill="#FBEDD0"/>
<path d="M1102 373H1094V572H1102V373Z" fill="#FBEDD0"/>
<path d="M1100.05 505L1094 509.916L1144.55 572.162L1150.61 567.246L1100.05 505Z" fill="#666666"/>
<path d="M1100.05 438L1094 442.916L1144.55 505.162L1150.61 500.246L1100.05 438Z" fill="#666666"/>
<path d="M1099.05 371L1093 375.916L1143.55 438.162L1149.61 433.246L1099.05 371Z" fill="#666666"/>
<path d="M1197.93 374.241L1203.98 379.157L1156.06 438.162L1150 433.246L1197.93 374.241Z" fill="#D4A051"/>
<path d="M1197.93 441L1203.98 445.916L1156.06 504.921L1150 500.005L1197.93 441Z" fill="#D4A051"/>
<path d="M1197.93 506L1203.98 510.916L1156.06 569.921L1150 565.005L1197.93 506Z" fill="#D4A051"/>
<path d="M1101 373H1093V572H1101V373Z" fill="#838383"/>
<path fill-rule="evenodd" clip-rule="evenodd" d="M1154 373H1146V574H1154V373ZM1198 373H1206V508H1245V574H1206H1204H1198V373Z" fill="#FBEDD0"/>
<path fill-rule="evenodd" clip-rule="evenodd" d="M1153 373H1145V574H1153V373ZM1197 373H1205V508H1244V574H1205H1203H1197V373Z" fill="#BD9558"/>
<path fill-rule="evenodd" clip-rule="evenodd" d="M1166.64 366.235H1190.84H1210V374.264H1190.84V432.474H1210V440.503H1190.84V500.721H1210V508.75H1190.84V566.96H1210V578H1090V566.96H1166.64V508.75H1090V500.721H1166.64V440.503H1090V432.474H1166.64V374.264H1090V366.235H1166.64ZM1173.7 373.261H1183.7V379.261H1173.7V373.261ZM1183.7 382.261H1173.7V388.261H1183.7V382.261ZM1173.7 391.261H1183.7V397.261H1173.7V391.261ZM1183.7 400.261H1173.7V406.261H1183.7V400.261ZM1173.7 409.261H1183.7V415.261H1173.7V409.261ZM1183.7 418.261H1173.7V424.261H1183.7V418.261ZM1173.7 427.261H1183.7V433.261H1173.7V427.261ZM1183.7 436.261H1173.7V442.261H1183.7V436.261ZM1173.7 445.261H1183.7V451.261H1173.7V445.261ZM1183.7 454.261H1173.7V460.261H1183.7V454.261ZM1173.7 463.261H1183.7V469.261H1173.7V463.261ZM1183.7 472.261H1173.7V478.261H1183.7V472.261ZM1173.7 481.261H1183.7V487.261H1173.7V481.261ZM1183.7 490.261H1173.7V496.261H1183.7V490.261ZM1173.7 499.261H1183.7V505.261H1173.7V499.261ZM1183.7 508.261H1173.7V514.261H1183.7V508.261ZM1173.7 517.261H1183.7V523.261H1173.7V517.261ZM1183.7 526.261H1173.7V532.261H1183.7V526.261ZM1173.7 535.261H1183.7V541.261H1173.7V535.261ZM1183.7 544.261H1173.7V550.261H1183.7V544.261ZM1173.7 553.261H1183.7V559.261H1173.7V553.261ZM1183.7 562.261H1173.7V568.261H1183.7V562.261Z" fill="#FBEDD0"/>
<path fill-rule="evenodd" clip-rule="evenodd" d="M1166 367H1090V375H1166V433H1090V441H1166V501H1090V509H1166V567H1090V578H1209V567H1190V509H1209V501H1190V441H1209V433H1190V375H1209V367H1190H1166ZM1173 374H1183V380H1173V374ZM1183 383H1173V389H1183V383ZM1173 392H1183V398H1173V392ZM1183 401H1173V407H1183V401ZM1173 410H1183V416H1173V410ZM1183 419H1173V425H1183V419ZM1173 428H1183V434H1173V428ZM1183 437H1173V443H1183V437ZM1173 446H1183V452H1173V446ZM1183 455H1173V461H1183V455ZM1173 464H1183V470H1173V464ZM1183 473H1173V479H1183V473ZM1173 482H1183V488H1173V482ZM1183 491H1173V497H1183V491ZM1173 500H1183V506H1173V500ZM1183 509H1173V515H1183V509ZM1173 518H1183V524H1173V518ZM1183 527H1173V533H1183V527ZM1173 536H1183V542H1173V536ZM1183 545H1173V551H1183V545ZM1173 554H1183V560H1173V554ZM1183 563H1173V569H1183V563Z" fill="#DCA34C"/>
<path  d="M1576 115C1576 143.891 1570.31 172.499 1559.25 199.19C1548.2 225.882 1531.99 250.135 1511.56 270.564C1491.13 290.992 1466.88 307.198 1440.19 318.254C1413.5 329.31 1384.89 335 1356 335C1327.11 335 1298.5 329.31 1271.81 318.254C1245.12 307.197 1220.87 290.992 1200.44 270.563C1180.01 250.135 1163.8 225.882 1152.75 199.19C1141.69 172.499 1136 143.891 1136 115H1189.95C1189.95 136.806 1194.24 158.399 1202.59 178.546C1210.93 198.692 1223.16 216.997 1238.58 232.417C1254 247.836 1272.31 260.068 1292.45 268.413C1312.6 276.757 1334.19 281.053 1356 281.053C1377.81 281.053 1399.4 276.757 1419.55 268.413C1439.69 260.068 1458 247.836 1473.42 232.417C1488.84 216.998 1501.07 198.692 1509.41 178.546C1517.76 158.399 1522.05 136.806 1522.05 115H1576Z" fill="#767676"/>
<path class="rotate" d="M1576 115C1576 143.891 1570.31 172.499 1559.25 199.19C1548.2 225.882 1531.99 250.135 1511.56 270.564C1491.13 290.992 1466.88 307.198 1440.19 318.254C1413.5 329.31 1384.89 335 1356 335C1327.11 335 1298.5 329.31 1271.81 318.254C1245.12 307.197 1220.87 290.992 1200.44 270.563C1180.01 250.135 1163.8 225.882 1152.75 199.19C1141.69 172.499 1136 143.891 1136 115H1189.95C1189.95 136.806 1194.24 158.399 1202.59 178.546C1210.93 198.692 1223.16 216.997 1238.58 232.417C1254 247.836 1272.31 260.068 1292.45 268.413C1312.6 276.757 1334.19 281.053 1356 281.053C1377.81 281.053 1399.4 276.757 1419.55 268.413C1439.69 260.068 1458 247.836 1473.42 232.417C1488.84 216.998 1501.07 198.692 1509.41 178.546C1517.76 158.399 1522.05 136.806 1522.05 115H1576Z" fill="#767676"  />
<path d="M1576 115C1576 86.1092 1570.31 57.5013 1559.25 30.8097C1548.2 4.11805 1531.99 -20.1346 1511.56 -40.5634C1491.13 -60.9923 1466.88 -77.1974 1440.19 -88.2534C1413.5 -99.3095 1384.89 -105 1356 -105C1327.11 -105 1298.5 -99.3094 1271.81 -88.2534C1245.12 -77.1974 1220.87 -60.9923 1200.44 -40.5634C1180.01 -20.1345 1163.8 4.11815 1152.75 30.8098C1141.69 57.5014 1136 86.1093 1136 115H1188.23C1188.23 92.9688 1192.57 71.1532 1201 50.7989C1209.44 30.4446 1221.79 11.9502 1237.37 -3.62829C1252.95 -19.2068 1271.44 -31.5644 1291.8 -39.9954C1312.15 -48.4264 1333.97 -52.7658 1356 -52.7658C1378.03 -52.7658 1399.85 -48.4264 1420.2 -39.9954C1440.56 -31.5644 1459.05 -19.2068 1474.63 -3.62835C1490.21 11.9502 1502.56 30.4445 1511 50.7988C1519.43 71.1531 1523.77 92.9687 1523.77 115H1576Z" stroke="#FBEDD0" stroke-width="4"/>
<path  d="M1523 117C1523 139.062 1518.65 160.908 1510.21 181.291C1501.77 201.674 1489.39 220.194 1473.79 235.794C1458.19 251.394 1439.67 263.769 1419.29 272.212C1398.91 280.655 1377.06 285 1355 285C1332.94 285 1311.09 280.655 1290.71 272.212C1270.33 263.769 1251.81 251.394 1236.21 235.794C1220.61 220.194 1208.23 201.674 1199.79 181.291C1191.35 160.908 1187 139.062 1187 117H1239.96C1239.96 132.108 1242.93 147.068 1248.71 161.025C1254.5 174.983 1262.97 187.665 1273.65 198.348C1284.33 209.031 1297.02 217.505 1310.97 223.286C1324.93 229.068 1339.89 232.043 1355 232.044C1370.11 232.044 1385.07 229.068 1399.03 223.286C1412.98 217.505 1425.67 209.031 1436.35 198.348C1447.03 187.665 1455.5 174.983 1461.29 161.025C1467.07 147.068 1470.04 132.108 1470.04 117H1523Z" fill="#DCA34C"/>
<path class="rotate rotate-2" d="M1523 117C1523 139.062 1518.65 160.908 1510.21 181.291C1501.77 201.674 1489.39 220.194 1473.79 235.794C1458.19 251.394 1439.67 263.769 1419.29 272.212C1398.91 280.655 1377.06 285 1355 285C1332.94 285 1311.09 280.655 1290.71 272.212C1270.33 263.769 1251.81 251.394 1236.21 235.794C1220.61 220.194 1208.23 201.674 1199.79 181.291C1191.35 160.908 1187 139.062 1187 117H1239.96C1239.96 132.108 1242.93 147.068 1248.71 161.025C1254.5 174.983 1262.97 187.665 1273.65 198.348C1284.33 209.031 1297.02 217.505 1310.97 223.286C1324.93 229.068 1339.89 232.043 1355 232.044C1370.11 232.044 1385.07 229.068 1399.03 223.286C1412.98 217.505 1425.67 209.031 1436.35 198.348C1447.03 187.665 1455.5 174.983 1461.29 161.025C1467.07 147.068 1470.04 132.108 1470.04 117H1523Z" fill="#DCA34C"  />
<path d="M1187 116C1187 71.4436 1204.7 28.7121 1236.21 -2.79397C1267.71 -34.3001 1310.44 -52 1355 -52C1399.56 -52 1442.29 -34.3 1473.79 -2.79392C1505.3 28.7122 1523 71.4437 1523 116H1472.6C1472.6 84.8106 1460.21 54.8986 1438.16 32.8443C1416.1 10.79 1386.19 -1.59999 1355 -1.6C1323.81 -1.6 1293.9 10.79 1271.84 32.8442C1249.79 54.8985 1237.4 84.8105 1237.4 116H1187Z" stroke="#FBEDD0" stroke-width="3"/>
<path d="M721.328 437H691.328V575H721.328V437Z" fill="#FBEDD0"/>
<path d="M719.328 437H689.328V575H719.328V437Z" fill="#6D655F"/>
<path d="M727.472 465.066L736.155 446.363L737.491 439.016H732.148L724.132 459.055L712.777 440.352L709.437 439.016L708.769 445.695L720.124 465.066L710.105 485.105V493.121H714.113L724.132 472.414L735.487 493.121H740.831L742.167 489.781L727.472 465.066Z" fill="#FBEDD0"/>
<path d="M690.637 465.098L700.398 446.934L702.16 439.677L696.826 439.365L687.654 458.901L677.41 439.568L674.154 438.039L673.097 444.668L683.302 464.669L672.13 484.089L671.663 492.09L675.663 492.324L686.874 472.238L697.002 493.572L702.336 493.884L703.865 490.628L690.637 465.098Z" fill="#FBEDD0"/>
<path d="M729.556 526.815L741.499 507.816L739.976 499.8L736.823 501.185L726.083 521.175L712.777 501.185L710.8 499.8L709.437 507.816L722.128 526.815L710.105 548.561V556.577L714.113 555.909L726.083 534.435L739.495 555.241L743.449 555.909L745.507 551.901L729.556 526.815Z" fill="#FBEDD0"/>
<path d="M688.774 525.875L701.806 507.605L700.753 499.514L697.525 500.713L685.636 520.042L673.519 499.31L671.626 497.811L669.798 505.734L681.359 525.442L668.087 546.449L667.619 554.45L671.659 554.018L684.862 533.279L697.037 554.832L700.945 555.73L703.233 551.849L688.774 525.875Z" fill="#FBEDD0"/>
<path d="M725.472 465.066L734.155 446.363L735.491 439.016H730.148L722.132 459.054L710.777 440.352L707.437 439.016L706.769 445.695L718.124 465.066L708.105 485.105V493.12H712.113L722.132 472.414L733.487 493.12H738.831L740.167 489.781L725.472 465.066Z" fill="#BD9558"/>
<path d="M688.637 465.097L698.398 446.933L700.16 439.676L694.826 439.364L685.654 458.901L675.41 439.567L672.154 438.039L671.097 444.668L681.302 464.669L670.13 484.088L669.663 492.09L673.663 492.324L684.874 472.238L695.002 493.572L700.336 493.884L701.865 490.628L688.637 465.097Z" fill="#666666"/>
<path d="M727.556 526.815L739.499 507.815L737.976 499.8L734.823 501.185L724.083 521.175L710.777 501.185L708.8 499.8L707.437 507.815L720.128 526.815L708.105 548.561V556.576L712.113 555.908L724.083 534.435L737.495 555.24L741.449 555.908L743.507 551.901L727.556 526.815Z" fill="#BD9558"/>
<path d="M686.774 525.875L699.806 507.605L698.753 499.514L695.525 500.713L683.636 520.041L671.519 499.309L669.626 497.811L667.798 505.733L679.359 525.441L666.087 546.448L665.619 554.45L669.659 554.017L682.862 533.279L695.037 554.832L698.945 555.73L701.233 551.849L686.774 525.875Z" fill="#666666"/>
<path d="M708.105 554.573H742.839V565.26H708.105V554.573Z" fill="#D5A051"/>
<path d="M665.736 552.45L700.411 554.477L699.787 565.146L665.113 563.119L665.736 552.45Z" fill="#7D7D7D"/>
<path d="M706.769 493.12H741.503V503.808H706.769V493.12Z" fill="#D5A051"/>
<path d="M667.989 491.025L702.664 493.052L702.04 503.721L667.366 501.694L667.989 491.025Z" fill="#7D7D7D"/>
<path d="M665.688 577L675.707 439.683L666.328 433.5L655 577H665.688Z" fill="#FBEDD0"/>
<path d="M664.688 577L674.707 439.683L665.328 433.5L654 577H664.688Z" fill="#838383"/>
<path d="M745.175 441.687L754.53 584.002H744.511L733.329 435.5L709.773 438.5V584.002H699.754V437.5L669.329 436.5L662.348 431H749.183L745.175 433V441.687Z" fill="#FBEDD0"/>
<path d="M744.175 441.687L753.53 584.002H743.511L732.329 435.5L708.773 438.5V584.002H698.754V437.5L668.329 436.5L661.348 431H748.183L744.175 433V441.687Z" fill="#DCA34C"/>
<path d="M734.328 365H728.328V378H734.328V365Z" fill="#FBEDD0"/>
<path d="M733.328 365H727.328V378H733.328V365Z" fill="#BD9558"/>
<path d="M680.328 365H674.328V378H680.328V365Z" fill="#FBEDD0"/>
<path d="M679.328 365H673.328V378H679.328V365Z" fill="#666666"/>
<path d="M689 361.765L704 350L719 361.765V374H689V361.765Z" fill="#FBEDD0"/>
<path d="M688.328 362L703.328 349.5L718.328 362V375H688.328V362Z" fill="#666666"/>
<mask id="mask2_5_2722" style="mask-type:alpha" maskUnits="userSpaceOnUse" x="688" y="349" width="31" height="26">
<path d="M688.328 362L703.328 349.5L718.328 362V375H688.328V362Z" fill="#666666"/>
</mask>
<g mask="url(#mask2_5_2722)">
<path d="M703.328 363V348L720.328 363H703.328Z" fill="#BD9558"/>
</g>
<path d="M655.328 396.826C655.328 384.22 665.548 374 678.154 374H734.039C745.244 374 754.328 383.084 754.328 394.29V409V421.174C754.328 433.78 744.109 444 731.502 444H679.169C666.002 444 655.328 433.326 655.328 420.159V409V396.826Z" fill="#FBEDD0"/>
<path d="M654.328 394.826C654.328 382.22 664.548 372 677.154 372H733.038C744.244 372 753.328 381.084 753.328 392.29V407V419.174C753.328 431.78 743.108 442 730.502 442H678.169C665.002 442 654.328 431.326 654.328 418.159V407V394.826Z" fill="#838383"/>
<mask id="mask3_5_2722" style="mask-type:alpha" maskUnits="userSpaceOnUse" x="654" y="372" width="100" height="70">
<path d="M654.328 394.826C654.328 382.22 664.548 372 677.154 372H733.038C744.244 372 753.328 381.084 753.328 392.29V407V419.174C753.328 431.78 743.108 442 730.502 442H678.169C665.002 442 654.328 431.326 654.328 418.159V407V394.826Z" fill="#838383"/>
</mask>
<g mask="url(#mask3_5_2722)">
<path d="M756.328 441.5V372C745.828 367.5 723.828 359 719.828 361C714.828 363.5 702.328 379.5 702.328 403.5C702.328 422.7 712.328 439.833 717.328 446L756.328 441.5Z" fill="#DCA34C"/>
</g>
<path d="M0 116H2560" stroke="#FBEDD0" stroke-width="6"/>
<path d="M1355.5 235C1421.5 235 1475 181.498 1475 115.5C1475 49.502 1421.5 -4 1355.5 -4C1289.5 -4 1236 49.502 1236 115.5C1236 181.498 1289.5 235 1355.5 235Z" fill="#E4DAC4" stroke="#FBEDD0" stroke-width="4"/>
<path d="M1434.5 354.5L1433 536.5H1451.5L1447.5 354.5H1434.5Z" fill="#FBEDD0"/>
<path d="M1435.5 354L1434 536H1452.5L1448.5 354H1435.5Z" fill="#6D655F"/>
<path d="M1426 468L1419.5 454L1418.5 448.5H1422.5L1428.5 463.5L1437 449.5L1439.5 448.5L1440 453.5L1431.5 468L1439 483V489H1436L1428.5 473.5L1420 489H1416L1415 486.5L1426 468Z" fill="#FBEDD0"/>
<path d="M1453.83 467.284L1446.52 453.687L1445.2 448.255L1449.19 448.021L1456.06 462.646L1463.73 448.173L1466.17 447.029L1466.96 451.991L1459.32 466.963L1467.68 481.5L1468.03 487.489L1465.04 487.664L1456.64 472.629L1449.06 488.598L1445.07 488.832L1443.92 486.394L1453.83 467.284Z" fill="#FBEDD0"/>
<path d="M1424.44 514.222L1415.5 500L1416.64 494L1419 495.037L1427.04 510L1437 495.037L1438.48 494L1439.5 500L1430 514.222L1439 530.5V536.5L1436 536L1427.04 519.926L1417 535.5L1414.04 536L1412.5 533L1424.44 514.222Z" fill="#FBEDD0"/>
<path d="M1454.97 513.518L1445.21 499.842L1446 493.786L1448.42 494.683L1457.32 509.152L1466.39 493.633L1467.8 492.511L1469.17 498.441L1460.52 513.194L1470.45 528.919L1470.8 534.908L1467.78 534.584L1457.9 519.061L1448.78 535.194L1445.86 535.866L1444.14 532.961L1454.97 513.518Z" fill="#FBEDD0"/>
<path d="M1422.27 561.469L1412.33 545.667L1413.6 539L1416.22 540.152L1425.16 556.778L1436.22 540.152L1437.87 539L1439 545.667L1428.44 561.469L1437.87 579L1436.22 582.333L1434 581.5L1425.16 567.807L1417 580L1412.33 582.333H1409L1422.27 561.469Z" fill="#FBEDD0"/>
<path d="M1455.56 560.812L1444.72 545.616L1445.59 538.887L1448.28 539.884L1458.17 555.96L1468.24 538.716L1469.82 537.47L1474 542.5L1461.72 560.451L1472.15 577.402L1470.71 580.826L1468.44 580.123L1458.81 566.97L1451.38 579.618L1446.86 582.22L1443.53 582.415L1455.56 560.812Z" fill="#FBEDD0"/>
<path d="M1439 535H1413V543H1439V535Z" fill="#FBEDD0"/>
<path d="M1470.72 533.411L1444.76 534.929L1445.23 542.915L1471.18 541.398L1470.72 533.411Z" fill="#FBEDD0"/>
<path d="M1440 489H1414V497H1440V489Z" fill="#FBEDD0"/>
<path d="M1469.03 487.431L1443.07 488.949L1443.54 496.935L1469.49 495.418L1469.03 487.431Z" fill="#FBEDD0"/>
<path d="M1473.5 574.5L1464 449L1471.5 448L1481.5 574.5H1473.5Z" fill="#FBEDD0"/>
<path d="M1412 450.5L1403.5 572H1411L1420.5 450.5H1438.5V572H1446V450.5H1474V442.5H1409V450.5H1412Z" fill="#FBEDD0"/>
<path d="M1427 468L1420.5 454L1419.5 448.5H1423.5L1429.5 463.5L1438 449.5L1440.5 448.5L1441 453.5L1432.5 468L1440 483V489H1437L1429.5 473.5L1421 489H1417L1416 486.5L1427 468Z" fill="#BD9558"/>
<path d="M1454.83 467.284L1447.52 453.687L1446.2 448.255L1450.19 448.021L1457.06 462.646L1464.73 448.173L1467.17 447.029L1467.96 451.991L1460.32 466.963L1468.68 481.5L1469.03 487.489L1466.04 487.664L1457.64 472.629L1450.06 488.598L1446.07 488.832L1444.92 486.394L1454.83 467.284Z" fill="#666666"/>
<path d="M1425.44 514.222L1416.5 500L1417.64 494L1420 495.037L1428.04 510L1438 495.037L1439.48 494L1440.5 500L1431 514.222L1440 530.5V536.5L1437 536L1428.04 519.926L1418 535.5L1415.04 536L1413.5 533L1425.44 514.222Z" fill="#BD9558"/>
<path d="M1455.97 513.518L1446.21 499.842L1447 493.786L1449.42 494.683L1458.32 509.152L1467.39 493.633L1468.8 492.511L1470.17 498.441L1461.52 513.194L1471.45 528.919L1471.8 534.908L1468.78 534.584L1458.9 519.061L1449.78 535.194L1446.86 535.866L1445.14 532.961L1455.97 513.518Z" fill="#666666"/>
<path d="M1423.27 561.469L1413.33 545.667L1414.6 539L1417.22 540.152L1426.16 556.778L1437.22 540.152L1438.87 539L1440 545.667L1429.44 561.469L1438.87 579L1437.22 582.333L1435 581.5L1426.16 567.807L1418 580L1413.33 582.333H1410L1423.27 561.469Z" fill="#BD9558"/>
<path d="M1456.56 560.812L1445.72 545.616L1446.59 538.887L1449.28 539.884L1459.17 555.96L1469.24 538.716L1470.82 537.47L1475 542.5L1462.72 560.451L1473.15 577.402L1471.71 580.826L1469.44 580.123L1459.81 566.97L1452.38 579.618L1447.86 582.22L1444.53 582.415L1456.56 560.812Z" fill="#666666"/>
<path d="M1440 535H1414V543H1440V535Z" fill="#D5A051"/>
<path d="M1471.72 533.411L1445.76 534.929L1446.23 542.915L1472.18 541.398L1471.72 533.411Z" fill="#7D7D7D"/>
<path d="M1441 489H1415V497H1441V489Z" fill="#D5A051"/>
<path d="M1470.03 487.431L1444.07 488.949L1444.54 496.935L1470.49 495.418L1470.03 487.431Z" fill="#7D7D7D"/>
<path d="M1474.5 574.5L1465 449L1472.5 448L1482.5 574.5H1474.5Z" fill="#838383"/>
<path d="M1413 450.5L1404.5 572H1412L1421.5 450.5H1439.5V572H1447V450.5H1475V442.5H1410V450.5H1413Z" fill="#DCA34C"/>
<path d="M1942.57 45.5214L1843 -44H1851.78L1948.93 37.9605C1948.93 37.9605 1954.07 42.1946 1951.05 45.5214C1948.02 48.8482 1942.57 45.5214 1942.57 45.5214Z" fill="#FBEDD0"/>
<path d="M1944.57 44.5214L1845 -45H1853.78L1950.93 36.9605C1950.93 36.9605 1956.07 41.1946 1953.05 44.5214C1950.02 47.8482 1944.57 44.5214 1944.57 44.5214Z" fill="#9F9E9E"/>
<path class="fallingStar fall-1" d="M852.5 146L688 -2H702.5L863 133.5C863 133.5 871.5 140.5 866.5 146C861.5 151.5 852.5 146 852.5 146Z" fill="#FBEDD0"/>
<path class="fallingStar fall-1" d="M850.5 147L686 -1H700.5L861 134.5C861 134.5 869.5 141.5 864.5 147C859.5 152.5 850.5 147 850.5 147Z" fill="#767676"/>
<path class="floating fl_6" d="M1073.78 57L1065.46 21.1961L1030 13.6013L1065.46 6.54902L1073.78 -26L1082.09 6.54902L1117 13.6013L1082.09 21.1961L1073.78 57Z" fill="#FBEDD0"/>
<path class="floating fl_6" d="M1073.5 52.5L1066 19.5L1034 12.5L1066 6L1073.5 -24L1081 6L1112.5 12.5L1081 19.5L1073.5 52.5Z" fill="#9F9E9E"/>
<path class="floating fl_12" d="M1788.25 44L1780.61 10.7843L1748 3.73856L1780.61 -2.80392L1788.25 -33L1795.9 -2.80392L1828 3.73856L1795.9 10.7843L1788.25 44Z" fill="#FBEDD0"/>
<path class="floating fl_12" d="M1788.23 40L1781.35 9.37255L1752 2.87582L1781.35 -3.15686L1788.23 -31L1795.11 -3.15686L1824 2.87582L1795.11 9.37255L1788.23 40Z" fill="#9F9E9E"/>
<path d="M2027.5 43C2056.49 43 2080 19.4949 2080 -9.5C2080 -38.4949 2056.49 -62 2027.5 -62C1998.51 -62 1975 -38.4949 1975 -9.5C1975 19.4949 1998.51 43 2027.5 43Z" fill="#FBEDD0"/>
<path d="M2029.5 42C2058.49 42 2082 18.4949 2082 -10.5C2082 -39.4949 2058.49 -63 2029.5 -63C2000.51 -63 1977 -39.4949 1977 -10.5C1977 18.4949 2000.51 42 2029.5 42Z" fill="#4E4E4E"/>
<mask id="mask4_5_2722" style="mask-type:alpha" maskUnits="userSpaceOnUse" x="1977" y="-63" width="105" height="105">
<path d="M2029.5 42C2058.49 42 2082 18.4949 2082 -10.5C2082 -39.4949 2058.49 -63 2029.5 -63C2000.51 -63 1977 -39.4949 1977 -10.5C1977 18.4949 2000.51 42 2029.5 42Z" fill="#4E4E4E"/>
</mask>
<g mask="url(#mask4_5_2722)">
<path d="M2047.5 -6C2059 11 2030.23 28 2012 28C1993.77 28 1978 12.0163 1978 -4C1978 -20.0163 1992.77 -33 2011 -33C2029.23 -33 2047.5 -22.0163 2047.5 -6Z" fill="#DCA34C"/>
<path d="M2029 1.75453C2018.5 2.56083 2015.89 5.56304 2019.07 17C2019.07 17 2008.09 11.9182 2011.75 3.27902C2015.41 -5.36013 2029 1.75453 2029 1.75453Z" fill="#FBEDD0"/>
<path d="M2029 2.00022C2018.96 2.79354 2016.46 5.74742 2019.5 17.0002C2019.5 17.0002 2009 12.0002 2012.5 3.50017C2016 -4.99989 2029 2.00022 2029 2.00022Z" fill="#4E4E4E"/>
<path d="M2053.03 8.35474C2055.77 17.7918 2054.48 25.8859 2037.21 24.5293C2037.21 24.5293 2045.97 33.3753 2053.95 26.5537C2061.92 19.732 2053.03 8.35474 2053.03 8.35474Z" fill="#FBEDD0"/>
<path d="M2053 8.5C2056 18.5236 2055 27 2038 25C2038 25 2046.9 34.6011 2054.5 27.6853C2062.11 20.7695 2053 8.5 2053 8.5Z" fill="#DCA34C"/>
</g>
<path class="floating fl_15" d="M1994 63C1997.87 63 2001 59.866 2001 56C2001 52.134 1997.87 49 1994 49C1990.13 49 1987 52.134 1987 56C1987 59.866 1990.13 63 1994 63Z" fill="#FBEDD0"/>
<path class="floating fl_14" d="M1879 64C1881.76 64 1884 61.7614 1884 59C1884 56.2386 1881.76 54 1879 54C1876.24 54 1874 56.2386 1874 59C1874 61.7614 1876.24 64 1879 64Z" fill="#FBEDD0"/>
<path class="floating fl_17" d="M2098 89C2100.76 89 2103 86.7614 2103 84C2103 81.2386 2100.76 79 2098 79C2095.24 79 2093 81.2386 2093 84C2093 86.7614 2095.24 89 2098 89Z" fill="#FBEDD0"/>
<path class="floating fl_16" d="M2018 98C2020.76 98 2023 95.7614 2023 93C2023 90.2386 2020.76 88 2018 88C2015.24 88 2013 90.2386 2013 93C2013 95.7614 2015.24 98 2018 98Z" fill="#FBEDD0"/>
<path class="floating fl_4" d="M859 59C855.134 59 852 55.866 852 52C852 48.134 855.134 45 859 45C862.866 45 866 48.134 866 52C866 55.866 862.866 59 859 59Z" fill="#FBEDD0"/>
<path class="floating fl_3" d="M722.5 76C718.91 76 716 73.0899 716 69.5C716 65.9101 718.91 63 722.5 63C726.09 63 729 65.9101 729 69.5C729 73.0899 726.09 76 722.5 76Z" fill="#FBEDD0"/>
<path class="floating fl_13" d="M1829 90C1833.42 90 1837 86.4183 1837 82C1837 77.5817 1833.42 74 1829 74C1824.58 74 1821 77.5817 1821 82C1821 86.4183 1824.58 90 1829 90Z" fill="#FBEDD0"/>
<path class="floating fl_15" d="M1995 63C1998.87 63 2002 59.866 2002 56C2002 52.134 1998.87 49 1995 49C1991.13 49 1988 52.134 1988 56C1988 59.866 1991.13 63 1995 63Z" fill="#DCA34C"/>
<path class="floating fl_14" d="M1880 64C1882.76 64 1885 61.7614 1885 59C1885 56.2386 1882.76 54 1880 54C1877.24 54 1875 56.2386 1875 59C1875 61.7614 1877.24 64 1880 64Z" fill="#9F9E9E"/>
<path class="floating fl_17" d="M2099 89C2101.76 89 2104 86.7614 2104 84C2104 81.2386 2101.76 79 2099 79C2096.24 79 2094 81.2386 2094 84C2094 86.7614 2096.24 89 2099 89Z" fill="#5B5A5F"/>
<path class="floating fl_16" d="M2019 98C2021.76 98 2024 95.7614 2024 93C2024 90.2386 2021.76 88 2019 88C2016.24 88 2014 90.2386 2014 93C2014 95.7614 2016.24 98 2019 98Z" fill="#776053"/>
<path class="floating fl_4" d="M858 59C854.134 59 851 55.866 851 52C851 48.134 854.134 45 858 45C861.866 45 865 48.134 865 52C865 55.866 861.866 59 858 59Z" fill="#DCA34C"/>
<path class="floating fl_3" d="M720.5 76C716.91 76 714 73.0899 714 69.5C714 65.9101 716.91 63 720.5 63C724.09 63 727 65.9101 727 69.5C727 73.0899 724.09 76 720.5 76Z" fill="#DCA34C"/>
<path class="floating fl_13" d="M1830 90C1834.42 90 1838 86.4183 1838 82C1838 77.5817 1834.42 74 1830 74C1825.58 74 1822 77.5817 1822 82C1822 86.4183 1825.58 90 1830 90Z" fill="#DCA34C"/>
<path class="floating fl_11" d="M1711.5 27C1714.54 27 1717 24.5376 1717 21.5C1717 18.4624 1714.54 16 1711.5 16C1708.46 16 1706 18.4624 1706 21.5C1706 24.5376 1708.46 27 1711.5 27Z" fill="#FBEDD0"/>
<path class="floating fl_10" d="M1634.5 6C1636.99 6 1639 3.98528 1639 1.5C1639 -0.985281 1636.99 -3 1634.5 -3C1632.01 -3 1630 -0.985281 1630 1.5C1630 3.98528 1632.01 6 1634.5 6Z" fill="#FBEDD0"/>
<path class="floating fl_9" d="M1625.5 87C1629.64 87 1633 83.6421 1633 79.5C1633 75.3579 1629.64 72 1625.5 72C1621.36 72 1618 75.3579 1618 79.5C1618 83.6421 1621.36 87 1625.5 87Z" fill="#FBEDD0"/>
<path class="floating fl_9" d="M1624.5 87C1628.64 87 1632 83.6421 1632 79.5C1632 75.3579 1628.64 72 1624.5 72C1620.36 72 1617 75.3579 1617 79.5C1617 83.6421 1620.36 87 1624.5 87Z" fill="#5B5A5F"/>
<path class="floating fl_7" d="M1103 94C1097.48 94 1093 89.5228 1093 84C1093 78.4772 1097.48 74 1103 74C1108.52 74 1113 78.4772 1113 84C1113 89.5228 1108.52 94 1103 94Z" fill="#FBEDD0"/>
<path class="floating fl_7" d="M1102 94C1096.48 94 1092 89.5228 1092 84C1092 78.4772 1096.48 74 1102 74C1107.52 74 1112 78.4772 1112 84C1112 89.5228 1107.52 94 1102 94Z" fill="#DCA34C"/>
<path class="floating fl_8" d="M1169 21C1159.61 21 1152 13.3888 1152 4C1152 -5.38884 1159.61 -13 1169 -13C1178.39 -13 1186 -5.38884 1186 4C1186 13.3888 1178.39 21 1169 21Z" fill="#FBEDD0"/>
<path class="floating fl_5" d="M898 90C900.209 90 902 88.2091 902 86C902 83.7909 900.209 82 898 82C895.791 82 894 83.7909 894 86C894 88.2091 895.791 90 898 90Z" fill="#FBEDD0"/>
<path class="floating fl_2" d="M641.5 63C644.538 63 647 60.5376 647 57.5C647 54.4624 644.538 52 641.5 52C638.462 52 636 54.4624 636 57.5C636 60.5376 638.462 63 641.5 63Z" fill="#FBEDD0"/>
<path class="floating fl_5" d="M897 90C899.209 90 901 88.2091 901 86C901 83.7909 899.209 82 897 82C894.791 82 893 83.7909 893 86C893 88.2091 894.791 90 897 90Z" fill="#5B5A5F"/>
<path class="floating fl_2" d="M640.5 63C643.538 63 646 60.5376 646 57.5C646 54.4624 643.538 52 640.5 52C637.462 52 635 54.4624 635 57.5C635 60.5376 637.462 63 640.5 63Z" fill="#776053"/>
<path class="floating fl_1" d="M622.5 5C624.985 5 627 2.98528 627 0.5C627 -1.98528 624.985 -4 622.5 -4C620.015 -4 618 -1.98528 618 0.5C618 2.98528 620.015 5 622.5 5Z" fill="#FBEDD0"/>
</g>
</g>
</g>
<defs>
<clipPath id="clip0_5_2722">
<rect width="2560" height="560" fill="white"/>
</clipPath>
</defs>
</svg>
