<svg width="1130" height="469" viewBox="0 0 1130 469" fill="none" xmlns="http://www.w3.org/2000/svg">
<style>


    .floating{
        animation-name: floating;
        animation-iteration-count: infinite;
    }

    .floating.fl_1{animation-duration: 3.2s;}
    .floating.fl_2{animation-duration: 3.7s;}
    .floating.fl_3{animation-duration: 2.8s;}
    .floating.fl_4{animation-duration: 4s;}
    .floating.fl_5{animation-duration: 5s;}
    .floating.fl_6{animation-duration: 3.5s;}
    .floating.fl_7{animation-duration: 3.5s;}
    .floating.fl_8{animation-duration: 3.5s;}

    @keyframes floating {
        0%{transform:translateY(0); filter: blur(0px); opacity: 1;}
        50%{transform:translateY(10px); filter: blur(3px); opacity: 0.5;}
    }

    .quart-1{
      transform-origin: center center;
        animation: 2s quartAnim1 linear infinite;
      animation-delay: 0;
    }
    .quart-2{
       transform-origin: center center;
       animation: 2s quartAnim2 linear infinite;
       animation-delay: 0.5s;
    }
       

    @keyframes quartAnim1 {
        0%{opacity: 0; transform: scale(0.8) rotate(16deg) translate(-39px, -7.5px);}
        50%{opacity: 1; }
        to{opacity: 0; transform: scale(1) rotate(18deg) translate(-33px, 13px);}
    }

     @keyframes quartAnim2 {
        0%{opacity: 0; transform: scale(0.8) rotate(17deg) translate(-44px, -4px);}
        50%{opacity: 1; }
        to{opacity: 0; transform: scale(1) rotate(17deg) translate(-35px, 15px);}
    }

   .path {
    animation: dash 4s linear;
     animation-fill-mode: forwards;
    }

    @keyframes dash {
        0%{opacity: 0;}
        50%{opacity: 1;}
    }

</style>
<g clip-path="url(#clip0_0_3)">
<rect class="quart quart-1" x="536.88" y="122.392" width="42.77" height="42.77" rx="6.885" transform="rotate(16.9771 536.88 122.392)" stroke="#DCA34C" stroke-width="2.23"/>
<rect x="541.14" y="130" width="30" height="30" rx="4" transform="rotate(16.9771 541.14 130)" fill="#DCA34C"/>
<rect class="quart quart-2" x="531.741" y="111.392" width="59.77" height="59.77" rx="8.885" transform="rotate(16.9771 531.741 111.392)" stroke="#DCA34C" stroke-width="2.23"/>
<path d="M550 139C549 137.5 542 136 538.5 136.5C536.833 137 532.7 138.7 529.5 141.5C525.5 145 522.5 159 521.5 164.5C520.7 168.9 517.833 199.333 516.5 214C528.333 216.5 552 220.6 552 217C552 212.5 552 187 553 181.5C554 176 555.5 153 555 149.5C554.5 146 551 140.5 550 139Z" fill="#282828"/>
<path fill-rule="evenodd" clip-rule="evenodd" d="M485.108 307.109L501.767 311.916C501.546 315.421 497.803 324.715 496.32 328.427C495.197 331.238 493.897 334.289 492.395 336.94C490.792 339.769 490.172 341.225 488.197 336.171C484.805 327.487 484.162 318.501 485.108 307.109ZM445.055 268.964C446.132 274.7 441.954 275.162 445.149 285.189C446.126 288.257 447.271 286.898 446.32 290.812C439.718 284.144 442.592 271.337 445.055 268.964ZM448.599 282.71C448.314 282.164 446.191 267.147 446.26 265.814C446.592 259.352 452.125 251.062 458.713 255.88C463.199 259.16 464.501 266.629 463.071 272.321C460.952 280.761 453.693 282.089 448.599 282.71ZM511.908 276.141C512.021 278.288 507.217 295.802 505.853 297.931C502.481 294.478 500.808 290.633 501.885 285.754C503.197 279.807 508.056 276.587 511.908 276.141ZM459.157 214.275L448.58 250.605C449.518 241.775 444.773 241.073 448.013 231.239C449.218 227.584 450.311 224.052 451.461 220.406C452.536 216.994 451.987 217.71 458.01 214.775L459.157 214.275ZM595.714 294.148C597.895 296.38 599.422 299.196 602.666 300.817L604.863 298.701L602.401 304.304C598.567 301.316 596.688 297.615 595.714 294.148ZM592.701 285.196C595.938 280.447 601.473 277.287 605.908 282.877C609.278 287.126 604.861 293.697 602.389 298.952C598.135 295.921 593.815 288.794 592.701 285.196ZM455.328 201.931C459.849 198.852 456.696 202.909 463.535 196.195L464.561 195.302C464.644 195.233 464.795 195.107 464.923 195.026C464.643 198.935 462.565 203.593 461.424 207.561C460.161 211.955 460.234 212.409 453.168 215.425C455.026 208.253 455.604 208.357 455.328 201.931ZM601.012 255.823C604.635 259.874 608.731 266.26 610.528 270.495C613.298 277.025 612.875 281.133 608.545 289.464C608.463 286.551 609.449 281.154 602.609 278.673C597.267 276.734 593.665 282.605 591.267 283.703C590.322 281.001 589.431 278.927 588.287 276.085C590.712 272.467 594.197 270.706 596.711 267.69C598.71 265.294 599.45 259.08 601.012 255.823ZM620.645 247.341C618.482 245.374 615.554 239.663 614.331 237.291C613.034 234.777 610.458 229.31 615.665 227.225C620.135 225.435 623.096 232.804 623.049 234.981C622.991 237.65 621.493 244.575 620.645 247.341ZM456.486 160.326C459.555 157.561 462.574 155.809 466.031 152.202C469.834 148.233 471.113 146.994 475.205 144.159C473.663 147.97 469.581 152.188 466.777 154.69C463.31 157.783 460.03 159.731 456.486 160.326ZM615.158 241.909C616.554 244.29 618.996 247.455 620.006 249.597C616.945 255.608 611.706 255.215 605.62 251.542C595.848 245.646 599.734 230.816 607.564 223.269C610.293 220.637 610.966 222.04 612.196 217.763C612.993 214.99 613.726 212.113 614.71 209.352C621.153 214.536 625.529 224.31 623.74 231.295C622.13 229.034 619.714 224.219 615.526 225.5C612.449 226.441 610.048 230.853 611.031 233.87C611.5 235.306 613.953 239.854 615.158 241.909ZM545.321 138.515C553.483 140.519 552.983 148.246 551.323 154.843C549.17 163.397 544.602 167.944 536.47 164.543C528.982 161.412 528.445 153.887 530.121 147.248C532.438 138.073 537.785 136.665 545.321 138.515ZM634.758 142.256C640.7 146.277 642.595 150.63 639.728 157.349C637.439 162.714 630.695 168.002 626.937 168.271L634.758 142.256ZM515.766 59.5749C519.102 59.7073 609.352 87.3079 622.609 91.2371C627.178 92.5906 634.163 94.2457 638.303 96.0698L585.941 271.462C581.532 266.144 579.196 261.098 570.125 259.014C562.449 257.251 559.315 259.63 553.479 263.743C551.708 256.461 552.186 238.811 552.652 230.611C553.314 218.933 552.627 208.197 552.591 196.999C552.555 185.782 554.749 174.027 555.796 162.376C556.732 151.953 557.244 136.322 542.461 135.187C519.132 133.395 519.521 176.891 517.443 195.799C516.061 208.377 514.799 218.022 515.246 230.105C515.545 238.198 516.179 256.914 514.507 264.799L459.461 248.204L515.766 59.5749ZM457.783 248.866C461.898 251.362 504.615 262.709 514.662 266.337C513.239 272.139 514.211 273.753 510.753 274.885C502.657 277.536 498.546 284.382 500.461 291.434C501.926 296.825 502.374 295.354 505.546 299.936L503.294 307.819L484.46 302.2C485.149 298.762 483.737 289.717 483.138 286.715C481.822 280.124 481.317 278.25 478.494 271.956C474.182 262.343 464.888 252.261 452.253 253.089C456.223 242.593 459.511 229.082 462.796 218.121L494.366 112.259C501.356 88.8176 508.118 65.4981 515.268 42.1234C517.281 35.5412 522.317 31.5679 526.825 30.5505C532.205 29.3362 537.661 31.6554 543.943 33.5307L614.017 54.4831C622.848 57.1306 642.835 60.753 646.957 68.7278C649.607 73.8523 649.602 77.298 647.43 84.3743L610.67 207.638C609.017 213.138 607.88 220.273 604.391 224.723C594.572 237.246 600.462 242.269 598.158 249.626C597.257 252.502 596.33 255.632 595.48 258.512C594.258 262.649 592.457 273.008 586.957 274.109C587.233 270.541 639.275 97.7555 640.043 95.1939C636.555 93.407 607.082 85.0562 600.733 83.134L521.682 59.5318C513.646 57.1038 515.715 54.7363 511.077 70.1853L481.503 169.34C473.51 195.626 466.285 222.855 457.783 248.866ZM481.196 150.491C481.92 148.346 481.305 146.715 481.748 144.568C482.185 142.454 483.102 139.943 483.719 137.831L495.309 98.9879C500.485 81.7855 505.612 64.4537 510.762 47.1833C514.108 35.9671 515.045 31.0275 525.127 27.6962C531.867 25.4684 541.939 30.0054 550.053 32.3424L627.728 55.5674C636.566 58.2152 648.439 59.84 651.454 70.5718C652.28 73.5089 652.573 75.6412 651.941 78.9244C650.907 84.295 626.931 163.366 625.043 169.549C623.053 176.067 611.593 218.483 608.687 220.52C608.537 218.119 641.637 108.848 646.432 92.792C649.539 82.3865 652.423 77.4667 648.729 68.9868C645.276 61.0608 635.104 59.2609 626.864 56.8346L550.142 33.8733C541.54 31.36 532.73 27.3568 525.686 29.49C516.392 32.3049 514.925 38.7448 511.761 48.9066C508.951 57.9278 483.753 145.263 481.196 150.491ZM300.819 388.161L301.552 389.228L353.305 335.98C366.224 322.894 367.458 321.205 375.584 303.326C381.232 290.898 384.512 277.717 388.638 264.731C392.438 252.771 394.185 237.967 400.728 227.538C409.414 213.694 415.121 201.613 422.468 187.143C426.888 178.437 427.928 176.728 435.045 172.322C437.965 170.514 450.268 162.814 452.91 162.142C454.627 161.705 455.42 162.302 457.331 162C465.478 160.708 473.04 149.994 477.469 143.536C480.68 144.718 480.433 146.57 479.9 149.587C479.4 152.421 478.411 155.203 477.599 158.012C474.337 169.294 472.787 181.284 465.853 190.768C464.175 193.064 462.645 195.315 460.611 197.181C458.02 199.558 456.499 199.114 453.939 201.202C453.443 206.395 455.528 202.994 452.072 213.775L445.692 233.605C444.039 238.922 447.329 241.533 446.895 251.42C446.226 266.639 436.291 276.145 443.037 288.693C446.488 295.113 446.906 289.821 443.969 300.582C440.424 313.571 447.764 326.451 447.311 347.708C447.02 361.371 441.232 369.476 450.116 388.964C450.917 390.721 451.652 392.244 452.414 394.295C450.818 395.907 434.413 401.788 430.496 403.083C427.954 403.924 425.758 404.512 423.16 406.829C419.191 410.368 403.482 435.225 400.977 440.765L401.783 441.662C404.543 438.973 417.383 414.489 423.628 408.368C428.914 403.187 446.064 400.736 452.588 395.904C454.776 398.191 467.732 427.306 469.953 431.805C471.976 435.901 473.875 439.621 475.839 443.74C480.229 452.944 483.714 457.282 487.82 467.544L495.225 485.912C496.162 488.496 496.023 490.061 497.776 491.842L498.568 492.639C499.276 491.325 496.198 484.902 495.574 483.348C491.816 473.988 488.986 464.224 483.78 455.435C476.316 442.835 460.27 408.366 454.263 394.562C445.265 373.885 445.479 373.424 448.262 353.905C451.681 329.927 440.703 315.968 446.043 298.689C448.012 292.316 447.75 289.656 448.485 284.214C450.238 284.171 451.55 283.979 453.128 283.523C463.107 280.637 466.757 272.263 464.673 263.708C463.049 257.039 462.916 259.124 460.97 255.621C476.13 261.238 481.934 282.269 482.971 296.892C483.838 309.108 482.16 321.262 485.142 332.273C485.61 334.001 488.015 341.333 490.711 341.545C496.994 339.557 515.353 274.633 516.374 262.574C517.017 254.987 517.084 246.15 516.866 238.925C516.038 211.362 517.348 215.137 519.516 190.302C520.417 179.995 522.092 148.783 530.767 141C526.692 150.899 525.038 162.276 536.718 166.386C549.376 170.84 551.925 159.283 554.101 148.788C555.949 156.822 553.053 173.175 551.992 183.003C550.674 195.22 551.323 205.114 551.508 216.767C551.686 228.077 550.443 239.341 550.895 250.588C551.122 256.245 551.471 261.573 552.278 267.172C552.82 270.925 553.222 280.36 556.166 283.001C556.943 280.202 556.106 280.726 555.529 277.914C555.228 276.449 554.951 275.167 554.733 273.705C554.296 270.761 553.912 268.105 553.605 265.28C557.448 263.309 560.788 257.952 570.66 260.653C583.219 264.089 588.067 279.153 592.304 289.952C599.526 308.36 599.912 304.418 612.124 309.278C630.017 316.398 628.084 324.805 632.782 329.979C637.534 335.212 650.91 341.724 651.436 352.117C651.702 357.363 649.98 359.3 651.362 361.001C653.06 359.745 652.955 354.121 652.886 352.087C652.523 341.471 640.133 334.959 634.647 329.811C631.95 327.281 631.415 324.572 630.007 321.939C628.562 319.238 626.916 316.712 624.15 314.463C616.855 308.534 611.399 308.074 603.636 304.815C606.24 299.608 608.141 293.983 610.68 288.522C615.759 277.595 614.348 273.142 607.718 262.438C602.174 253.486 600.264 255.42 602.437 251.056C607.616 255.212 614.754 257.233 618.733 253.902C622.53 250.724 623.516 241.543 624.212 237.057C625.652 227.774 626.492 228.835 624.221 220.843C623.028 216.644 619.542 211.523 615.151 207.771L626.597 169.977C633.642 169.971 649.557 154.443 638.978 143.72L635.652 140.633C635.669 140.431 635.446 140.391 635.366 140.255L647.732 98.4417C651.497 85.8314 659.348 71.0808 646.651 61.1377C641.471 57.0809 612.504 49.5738 604.406 47.1159L573.169 37.7762C566.523 35.7784 565.999 36.4402 564.132 33.7772C562.32 31.192 557.25 30.5855 554.101 29.6702C545.661 27.215 547.834 27.0345 544.349 28.3257C539.844 29.9952 534.421 23.4626 524.668 26.2366C506.91 31.2879 507.102 63.4337 501.444 72.2854C498.386 77.0691 497.467 81.9744 495.828 87.5289C493.804 94.3909 498.16 89.6364 493.489 96.6711C492.226 98.5749 488.649 110.863 488.485 112.489C488.238 114.921 489.279 114.12 488.371 117.357L479.78 142.736C479.637 142.693 479.479 142.639 479.32 142.591C478.659 142.392 478.723 142.319 477.907 142.158C473.482 141.285 468.273 147.717 465.495 150.602C450.862 165.795 431.718 166.591 423.171 182.572C415.883 196.198 410.278 209.947 401.881 223.041C396.48 231.463 395.399 233.403 393.148 242.674C390.726 252.651 379.084 292.605 375.465 300.175C365.624 320.761 369.678 317.311 352.817 334.41C344.05 343.3 335.268 352.511 326.472 361.506L300.819 388.161Z" fill="#625B55"/>
<path fill-rule="evenodd" clip-rule="evenodd" d="M552.408 56.514C553.725 54.6054 552.595 55.0582 558.986 56.9845L580.851 63.5229C585.49 64.9235 608.121 70.7093 609.619 72.9865C608.248 74.9433 609.505 74.6027 603.175 72.7049L581.308 66.16C577.352 64.9628 553.553 58.7725 552.408 56.514ZM609.613 75.4999L611.233 72.656C608.987 69.2737 601.713 68.1832 597.351 66.904L566.079 57.5557C560.557 55.891 552.898 52.4577 551.277 55.3365C548.781 59.7712 560.159 61.3779 563.037 62.2416C571.21 64.6928 606.354 75.8852 609.613 75.4999Z" fill="#625B55"/>
<path class="path" d="M523.904 90.4068L524.837 90.0471L523.904 90.4068ZM377.706 48.9926L377.1 48.1969L377.706 48.9926ZM361.797 60.2217C361.723 60.769 362.107 61.2728 362.654 61.3469L371.572 62.5548C372.12 62.629 372.623 62.2454 372.697 61.698C372.771 61.1507 372.387 60.6469 371.84 60.5728L363.913 59.4991L364.984 51.571C365.058 51.0237 364.674 50.5199 364.127 50.4458C363.579 50.3716 363.076 50.7552 363.002 51.3026L361.797 60.2217ZM530.736 105.338L524.837 90.0471L522.971 90.7665L528.87 106.057L530.736 105.338ZM377.1 48.1969L362.182 59.5602L363.394 61.1515L378.312 49.7883L377.1 48.1969ZM524.837 90.0471C501.812 30.3625 427.973 9.44581 377.1 48.1969L378.312 49.7883C428.125 11.8444 500.426 32.3254 522.971 90.7665L524.837 90.0471Z" fill="#675335"/>
</g>
<g class="floating fl_1" opacity="0.8" clip-path="url(#clip1_0_3)">
<path d="M256.521 242.08L261.621 236.972L259.909 235.257L256.712 238.459L250.903 232.638L249 234.55L256.521 242.08ZM258.621 227.984L259.909 229.269L262.551 226.613L264.085 228.15L261.436 230.806L263.075 232.441L266.346 229.164L267.88 230.701L262.705 235.89L255.178 228.359L260.359 223.164L261.892 224.701L258.621 227.984ZM275.37 223.213L270.251 221.744C270.536 221.133 270.621 220.448 270.494 219.785C270.367 219.123 270.034 218.518 269.543 218.055C269.249 217.782 268.903 217.569 268.526 217.43C268.148 217.292 267.747 217.23 267.345 217.248C266.944 217.267 266.55 217.365 266.187 217.537C265.823 217.71 265.499 217.953 265.231 218.252L261.418 222.07L268.976 229.607L270.885 227.695L264.8 221.596L266.032 220.367C266.157 220.237 266.307 220.132 266.472 220.06C266.638 219.987 266.816 219.948 266.997 219.945C267.178 219.941 267.358 219.974 267.526 220.04C267.694 220.106 267.848 220.205 267.978 220.33C268.234 220.593 268.374 220.947 268.368 221.314C268.362 221.68 268.211 222.03 267.947 222.285L266.826 223.41L273.331 225.254L275.37 223.213ZM271.926 211.25C274.279 208.895 277.39 209.123 279.589 211.33C281.788 213.537 282.022 216.654 279.669 219.008C277.316 221.363 274.212 221.135 272.007 218.91C269.801 216.684 269.573 213.586 271.926 211.231M273.417 212.762C272.222 213.955 272.622 215.412 274.076 216.869C275.53 218.326 276.977 218.713 278.172 217.527C279.367 216.34 278.967 214.877 277.513 213.42C276.06 211.963 274.612 211.533 273.417 212.762ZM281.856 207.291L280.451 203.037L282.681 200.805L284.548 208.102L287.492 211.053L285.589 212.965L282.657 210.027L275.678 207.82L277.778 205.717L281.813 207.285L281.856 207.291ZM316.652 233.259L324.179 225.728L322.171 223.717L314.65 231.248L316.652 233.259ZM287.874 204.426L293.726 201.629L289.402 205.957L291.145 207.703L298.66 200.166L296.276 197.774L290.615 200.541L293.448 194.94L290.985 192.475L283.464 200.006L285.201 201.752L289.525 197.424L286.734 203.283L287.874 204.426ZM300.914 205.496L299.627 206.781L302.516 209.67L300.982 211.207L298.099 208.317L296.461 209.953L299.972 213.469L298.438 215.006L293.017 209.578L300.538 202.041L305.959 207.469L304.425 209.006L300.914 205.496ZM308.17 224.769L313.27 229.883L314.989 228.162L311.792 224.965L317.601 219.144L315.691 217.238L308.17 224.769ZM328.436 229.988L326.021 237.974H326.015L331.214 232.773L333 234.562L325.479 242.093L323.12 239.732L325.177 231.5H325.183L320.046 236.646L318.309 234.906L325.824 227.375L328.436 229.988ZM306.747 223.342L308.195 218.215C308.807 218.504 309.495 218.59 310.16 218.462C310.824 218.334 311.431 217.998 311.891 217.502C312.162 217.208 312.373 216.862 312.511 216.486C312.648 216.11 312.71 215.711 312.692 215.311C312.674 214.911 312.577 214.518 312.407 214.156C312.237 213.793 311.996 213.468 311.7 213.199L307.653 209.141L300.126 216.697L302.035 218.609L308.133 212.51L309.581 213.992C309.707 214.117 309.807 214.266 309.876 214.431C309.944 214.595 309.979 214.771 309.98 214.949C309.98 215.126 309.945 215.303 309.877 215.467C309.809 215.631 309.71 215.781 309.584 215.907C309.458 216.033 309.309 216.133 309.144 216.201C308.98 216.269 308.803 216.305 308.625 216.305C308.447 216.305 308.27 216.27 308.106 216.203C307.941 216.135 307.791 216.035 307.665 215.91L306.285 214.539L304.684 221.301L306.747 223.342Z" fill="#FBEDD0"/>
<path d="M257.95 243.525H324.062L291.003 210.408L257.95 243.525Z" fill="#DCA34C"/>
</g>
<g class="floating fl_1" opacity="0.8" clip-path="url(#clip2_0_3)">
<path d="M256.521 242.08L261.621 236.972L259.909 235.257L256.712 238.459L250.903 232.638L249 234.55L256.521 242.08ZM258.621 227.984L259.909 229.269L262.551 226.613L264.085 228.15L261.436 230.806L263.075 232.441L266.346 229.164L267.88 230.701L262.705 235.89L255.178 228.359L260.359 223.164L261.892 224.701L258.621 227.984ZM275.37 223.213L270.251 221.744C270.536 221.133 270.621 220.448 270.494 219.785C270.367 219.123 270.034 218.518 269.543 218.055C269.249 217.782 268.903 217.569 268.526 217.43C268.148 217.292 267.747 217.23 267.345 217.248C266.944 217.267 266.55 217.365 266.187 217.537C265.823 217.71 265.499 217.953 265.231 218.252L261.418 222.07L268.976 229.607L270.885 227.695L264.8 221.596L266.032 220.367C266.157 220.237 266.307 220.132 266.472 220.06C266.638 219.987 266.816 219.948 266.997 219.945C267.178 219.941 267.358 219.974 267.526 220.04C267.694 220.106 267.848 220.205 267.978 220.33C268.234 220.593 268.374 220.947 268.368 221.314C268.362 221.68 268.211 222.03 267.947 222.285L266.826 223.41L273.331 225.254L275.37 223.213ZM271.926 211.25C274.279 208.895 277.39 209.123 279.589 211.33C281.788 213.537 282.022 216.654 279.669 219.008C277.316 221.363 274.212 221.135 272.007 218.91C269.801 216.684 269.573 213.586 271.926 211.231M273.417 212.762C272.222 213.955 272.622 215.412 274.076 216.869C275.53 218.326 276.977 218.713 278.172 217.527C279.367 216.34 278.967 214.877 277.513 213.42C276.06 211.963 274.612 211.533 273.417 212.762ZM281.856 207.291L280.451 203.037L282.681 200.805L284.548 208.102L287.492 211.053L285.589 212.965L282.657 210.027L275.678 207.82L277.778 205.717L281.813 207.285L281.856 207.291ZM316.652 233.259L324.179 225.728L322.171 223.717L314.65 231.248L316.652 233.259ZM287.874 204.426L293.726 201.629L289.402 205.957L291.145 207.703L298.66 200.166L296.276 197.774L290.615 200.541L293.448 194.94L290.985 192.475L283.464 200.006L285.201 201.752L289.525 197.424L286.734 203.283L287.874 204.426ZM300.914 205.496L299.627 206.781L302.516 209.67L300.982 211.207L298.099 208.317L296.461 209.953L299.972 213.469L298.438 215.006L293.017 209.578L300.538 202.041L305.959 207.469L304.425 209.006L300.914 205.496ZM308.17 224.769L313.27 229.883L314.989 228.162L311.792 224.965L317.601 219.144L315.691 217.238L308.17 224.769ZM328.436 229.988L326.021 237.974H326.015L331.214 232.773L333 234.562L325.479 242.093L323.12 239.732L325.177 231.5H325.183L320.046 236.646L318.309 234.906L325.824 227.375L328.436 229.988ZM306.747 223.342L308.195 218.215C308.807 218.504 309.495 218.59 310.16 218.462C310.824 218.334 311.431 217.998 311.891 217.502C312.162 217.208 312.373 216.862 312.511 216.486C312.648 216.11 312.71 215.711 312.692 215.311C312.674 214.911 312.577 214.518 312.407 214.156C312.237 213.793 311.996 213.468 311.7 213.199L307.653 209.141L300.126 216.697L302.035 218.609L308.133 212.51L309.581 213.992C309.707 214.117 309.807 214.266 309.876 214.431C309.944 214.595 309.979 214.771 309.98 214.949C309.98 215.126 309.945 215.303 309.877 215.467C309.809 215.631 309.71 215.781 309.584 215.907C309.458 216.033 309.309 216.133 309.144 216.201C308.98 216.269 308.803 216.305 308.625 216.305C308.447 216.305 308.27 216.27 308.106 216.203C307.941 216.135 307.791 216.035 307.665 215.91L306.285 214.539L304.684 221.301L306.747 223.342Z" fill="#FBEDD0"/>
<path d="M257.95 243.525H324.062L291.003 210.408L257.95 243.525Z" fill="#DCA34C"/>
</g>
<g class="floating fl_2" clip-path="url(#clip3_0_3)">
<path d="M810.75 149.713V105.463H801.75V98.0875H818.25V149.713H810.75Z" fill="#FBEDD0"/>
<path d="M817.5 98.825V148.975H811.5V106.2V104.725H810H802.5V98.825H817.5ZM819 97.35H801V106.2H810V150.45H819V97.35Z" fill="#DCA34C"/>
<path d="M822.75 149.713V93.6625H810.75V86.2875H830.25V149.713H822.75Z" fill="#FBEDD0"/>
<path d="M829.5 87.025V148.975H823.5V94.4V92.925H822H811.5V87.025H829.5ZM831 85.55H810V94.4H822V150.45H831V85.55Z" fill="#DCA34C"/>
<path d="M870 149.713C852.218 149.713 837.75 135.486 837.75 118C837.75 100.514 852.218 86.2875 870 86.2875C887.532 86.2875 901.842 100.116 902.241 117.263H894.74C894.342 104.182 883.396 93.6625 870 93.6625C856.353 93.6625 845.25 104.58 845.25 118C845.25 131.42 856.353 142.338 870 142.338H920.25V149.713H870Z" fill="#FBEDD0"/>
<path d="M870 87.025C886.866 87.025 900.679 100.127 901.465 116.525H895.457C894.677 103.383 883.557 92.925 870 92.925C855.939 92.925 844.5 104.173 844.5 118C844.5 131.827 855.939 143.075 870 143.075H919.5V148.975H870C852.631 148.975 838.5 135.079 838.5 118C838.5 100.921 852.631 87.025 870 87.025ZM870 85.55C851.804 85.55 837 100.107 837 118C837 135.893 851.804 150.45 870 150.45H921V141.6H870C856.767 141.6 846 131.012 846 118C846 104.988 856.767 94.4 870 94.4C883.233 94.4 894 104.988 894 118H903C903 100.107 888.196 85.55 870 85.55Z" fill="#DCA34C"/>
<path d="M870 134.963C860.488 134.963 852.75 127.353 852.75 118C852.75 108.647 860.488 101.038 870 101.038C879.26 101.038 886.84 108.25 887.233 117.263H879.721C879.337 112.318 875.124 108.413 870 108.413C864.624 108.413 860.25 112.714 860.25 118C860.25 123.286 864.624 127.588 870 127.588H920.25V134.963H870Z" fill="#FBEDD0"/>
<path d="M870 101.775C878.593 101.775 885.672 108.266 886.432 116.525H880.393C879.663 111.528 875.281 107.675 870 107.675C864.21 107.675 859.5 112.307 859.5 118C859.5 123.694 864.21 128.325 870 128.325H919.5V134.225H870C860.902 134.225 853.5 126.946 853.5 118C853.5 109.054 860.902 101.775 870 101.775ZM870 100.3C860.074 100.3 852 108.24 852 118C852 127.76 860.074 135.7 870 135.7H921V126.85H870C865.036 126.85 861 122.881 861 118C861 113.119 865.036 109.15 870 109.15C874.963 109.15 879 113.119 879 118H888C888 108.24 879.925 100.3 870 100.3Z" fill="#DCA34C"/>
</g>
<g class="floating fl_2" clip-path="url(#clip4_0_4)">
<path d="M810.75 149.713V105.463H801.75V98.0875H818.25V149.713H810.75Z" fill="#FBEDD0"/>
<path d="M817.5 98.825V148.975H811.5V106.2V104.725H810H802.5V98.825H817.5ZM819 97.35H801V106.2H810V150.45H819V97.35Z" fill="#DCA34C"/>
<path d="M822.75 149.713V93.6625H810.75V86.2875H830.25V149.713H822.75Z" fill="#FBEDD0"/>
<path d="M829.5 87.025V148.975H823.5V94.4V92.925H822H811.5V87.025H829.5ZM831 85.55H810V94.4H822V150.45H831V85.55Z" fill="#DCA34C"/>
<path d="M870 149.713C852.218 149.713 837.75 135.486 837.75 118C837.75 100.514 852.218 86.2875 870 86.2875C887.532 86.2875 901.842 100.116 902.241 117.263H894.74C894.342 104.182 883.396 93.6625 870 93.6625C856.353 93.6625 845.25 104.58 845.25 118C845.25 131.42 856.353 142.338 870 142.338H920.25V149.713H870Z" fill="#FBEDD0"/>
<path d="M870 87.025C886.866 87.025 900.679 100.127 901.465 116.525H895.457C894.677 103.383 883.557 92.925 870 92.925C855.939 92.925 844.5 104.173 844.5 118C844.5 131.827 855.939 143.075 870 143.075H919.5V148.975H870C852.631 148.975 838.5 135.079 838.5 118C838.5 100.921 852.631 87.025 870 87.025ZM870 85.55C851.804 85.55 837 100.107 837 118C837 135.893 851.804 150.45 870 150.45H921V141.6H870C856.767 141.6 846 131.012 846 118C846 104.988 856.767 94.4 870 94.4C883.233 94.4 894 104.988 894 118H903C903 100.107 888.196 85.55 870 85.55Z" fill="#DCA34C"/>
<path d="M870 134.963C860.488 134.963 852.75 127.353 852.75 118C852.75 108.647 860.488 101.038 870 101.038C879.26 101.038 886.84 108.25 887.233 117.263H879.721C879.337 112.318 875.124 108.413 870 108.413C864.624 108.413 860.25 112.714 860.25 118C860.25 123.286 864.624 127.588 870 127.588H920.25V134.963H870Z" fill="#FBEDD0"/>
<path d="M870 101.775C878.593 101.775 885.672 108.266 886.432 116.525H880.393C879.663 111.528 875.281 107.675 870 107.675C864.21 107.675 859.5 112.307 859.5 118C859.5 123.694 864.21 128.325 870 128.325H919.5V134.225H870C860.902 134.225 853.5 126.946 853.5 118C853.5 109.054 860.902 101.775 870 101.775ZM870 100.3C860.074 100.3 852 108.24 852 118C852 127.76 860.074 135.7 870 135.7H921V126.85H870C865.036 126.85 861 122.881 861 118C861 113.119 865.036 109.15 870 109.15C874.963 109.15 879 113.119 879 118H888C888 108.24 879.925 100.3 870 100.3Z" fill="#DCA34C"/>
</g>
<g class="floating fl_3" opacity="0.9">
<g class="floating fl_3" clip-path="url(#clip5_0_3)">
<path d="M734.985 300H685.015C685.007 300 685 300.007 685 300.015V349.985C685 349.993 685.007 350 685.015 350H734.985C734.993 350 735 349.993 735 349.985V300.015C735 300.007 734.993 300 734.985 300Z" fill="#5B5A5F"/>
<path d="M704.434 339.453C703.359 339.453 703.457 339.062 703.164 338.086L700.039 327.832L723.965 313.77" fill="#888888"/>
<path d="M704.434 339.453C705.117 339.453 705.508 339.062 705.996 338.672L710.391 334.473L704.922 331.152" fill="#625B55"/>
<path d="M704.922 331.152L718.105 340.82C719.473 341.699 720.645 341.211 721.035 339.453L726.406 314.258C726.895 312.109 725.527 311.133 724.063 311.816L692.715 323.926C690.664 324.707 690.664 325.977 692.324 326.465L700.43 329.004L718.984 317.188C719.863 316.699 720.645 316.895 720.059 317.578" fill="#FBEDD0"/>
</g>
</g>
<g class="floating fl_3" opacity="0.9">
<g class="floating fl_3" clip-path="url(#clip6_0_3)">
<path d="M734.985 300H685.015C685.007 300 685 300.007 685 300.015V349.985C685 349.993 685.007 350 685.015 350H734.985C734.993 350 735 349.993 735 349.985V300.015C735 300.007 734.993 300 734.985 300Z" fill="#5B5A5F"/>
<path d="M704.434 339.453C703.359 339.453 703.457 339.062 703.164 338.086L700.039 327.832L723.965 313.77" fill="#888888"/>
<path d="M704.434 339.453C705.117 339.453 705.508 339.062 705.996 338.672L710.391 334.473L704.922 331.152" fill="#625B55"/>
<path d="M704.922 331.152L718.105 340.82C719.473 341.699 720.645 341.211 721.035 339.453L726.406 314.258C726.895 312.109 725.527 311.133 724.063 311.816L692.715 323.926C690.664 324.707 690.664 325.977 692.324 326.465L700.43 329.004L718.984 317.188C719.863 316.699 720.645 316.895 720.059 317.578" fill="#FBEDD0"/>
</g>
</g>
<g class="floating fl_4" opacity="0.8">
<path d="M24.8464 47.0752H16.8135C8.78048 47.0752 1.8684 53.1314 1.8684 64.8652C1.8684 71.8676 5.23103 77.1668 11.0222 79.8163L0.187078 99.4989C-0.186548 100.067 0.187078 100.634 0.747518 100.634H5.79147C6.1651 100.634 6.53873 100.445 6.72554 100.067L16.6266 80.7626H20.1761V100.067C20.1761 100.256 20.3629 100.634 20.7365 100.634H25.22C25.5937 100.634 25.7805 100.445 25.7805 100.067V47.8322C25.5937 47.2645 25.4069 47.0752 24.8464 47.0752ZM20.1761 76.2205H17.1871C4.29697 76.2205 5.23103 51.6173 16.6266 51.6173H20.3629V76.2205H20.1761Z" fill="#DCA34C"/>
<path d="M51.7473 64.8652H47.2638C46.8902 64.8652 46.7033 65.0544 46.7033 65.4329V79.0593H38.4836V65.4329C38.4836 65.0544 38.2967 64.8652 37.9231 64.8652H33.6264C33.2528 64.8652 33.066 65.0544 33.066 65.4329V100.067C33.066 100.445 33.2528 100.634 33.6264 100.634H38.1099C38.4836 100.634 38.6704 100.445 38.6704 100.067V83.4122H46.8902V100.067C46.8902 100.445 47.077 100.634 47.4506 100.634H51.9341C52.3077 100.634 52.4946 100.445 52.4946 100.067V65.4329C52.3077 65.0544 52.1209 64.8652 51.7473 64.8652ZM152.626 95.903C152.626 95.7138 152.44 95.7138 152.253 95.7138C150.385 95.7138 138.989 101.202 138.989 83.0337C138.989 75.085 141.978 63.9189 149.077 70.5428C149.264 70.7321 149.451 70.7321 149.637 70.7321C149.824 70.7321 150.011 70.5428 150.198 70.1643L152.066 66.947C152.253 66.7577 152.253 66.5685 152.253 66.3792C152.253 66.0007 151.879 65.8115 151.506 65.6222C139.176 59.3768 132.824 70.9213 132.824 84.3585C132.824 101.77 145.341 104.23 152.44 98.9311C152.813 98.7419 152.813 98.3633 152.813 98.1741L152.626 95.903ZM121.989 80.9519L130.582 65.2437C130.769 65.0544 130.582 64.6759 130.396 64.6759H126.099C124.791 64.6759 124.418 65.0544 124.044 66.0007C123.67 66.947 117.319 80.3841 116.571 80.9519V65.2437C116.571 65.0544 116.385 64.6759 116.198 64.6759H111.528C111.341 64.6759 111.154 64.8652 111.154 65.2437V100.067C111.154 100.256 111.341 100.634 111.528 100.634H116.198C116.571 100.634 116.571 100.445 116.571 100.067V82.0874C117.132 82.4659 124.978 98.9311 125.165 99.4989C125.539 100.256 126.286 100.634 127.22 100.634H131.89C132.264 100.634 132.264 100.445 132.077 100.067L121.989 80.9519ZM81.077 96.0923H80.1429C79.022 96.0923 78.8352 95.7138 78.8352 94.7675V65.2437C78.8352 64.8652 78.6484 64.6759 78.4616 64.6759H64.077C63.7033 64.6759 63.5165 64.8652 63.5165 65.2437C63.5165 73.1924 63.7033 86.4403 58.4726 96.0923H56.9781C56.6044 96.0923 56.4176 96.2815 56.4176 96.6601V107.069C56.4176 107.448 56.7913 107.637 56.9781 107.637H60.3407C61.088 107.637 61.4616 107.069 61.4616 106.501V100.634H76.5935V107.069C76.5935 107.258 76.7803 107.637 77.1539 107.637H80.8902C81.2638 107.637 81.8242 107.258 81.8242 106.501V96.6601C81.6374 96.2815 81.4506 96.0923 81.077 96.0923ZM73.2308 96.0923H62.7693C65.7583 91.1717 68.5605 83.2229 68.5605 69.218H73.2308V96.0923ZM95.6484 63.9189C87.9891 63.9189 84.4396 73.5709 84.4396 84.1692C84.4396 101.581 96.3957 104.23 104.615 99.1204C104.989 98.9311 104.989 98.7419 104.989 98.5526L104.429 96.0923C104.429 95.903 104.242 95.7138 103.868 95.7138C100.879 95.7138 90.4176 101.013 90.4176 83.7907C94.1539 84.1692 94.1539 84.1692 105.363 84.1692C105.176 75.4635 104.242 63.9189 95.6484 63.9189ZM90.6045 79.8163C90.6045 66.0007 99.5715 63.3511 99.5715 79.4378C95.6484 79.4378 93.9671 79.4378 90.6045 79.8163Z" fill="#5B5A5F"/>
</g>
<g class="floating fl_4" opacity="0.8">
<path d="M24.8464 47.0752H16.8135C8.78048 47.0752 1.8684 53.1314 1.8684 64.8652C1.8684 71.8676 5.23103 77.1668 11.0222 79.8163L0.187078 99.4989C-0.186548 100.067 0.187078 100.634 0.747518 100.634H5.79147C6.1651 100.634 6.53873 100.445 6.72554 100.067L16.6266 80.7626H20.1761V100.067C20.1761 100.256 20.3629 100.634 20.7365 100.634H25.22C25.5937 100.634 25.7805 100.445 25.7805 100.067V47.8322C25.5937 47.2645 25.4069 47.0752 24.8464 47.0752ZM20.1761 76.2205H17.1871C4.29697 76.2205 5.23103 51.6173 16.6266 51.6173H20.3629V76.2205H20.1761Z" fill="#DCA34C"/>
<path d="M51.7473 64.8652H47.2638C46.8902 64.8652 46.7033 65.0544 46.7033 65.4329V79.0593H38.4836V65.4329C38.4836 65.0544 38.2967 64.8652 37.9231 64.8652H33.6264C33.2528 64.8652 33.066 65.0544 33.066 65.4329V100.067C33.066 100.445 33.2528 100.634 33.6264 100.634H38.1099C38.4836 100.634 38.6704 100.445 38.6704 100.067V83.4122H46.8902V100.067C46.8902 100.445 47.077 100.634 47.4506 100.634H51.9341C52.3077 100.634 52.4946 100.445 52.4946 100.067V65.4329C52.3077 65.0544 52.1209 64.8652 51.7473 64.8652ZM152.626 95.903C152.626 95.7138 152.44 95.7138 152.253 95.7138C150.385 95.7138 138.989 101.202 138.989 83.0337C138.989 75.085 141.978 63.9189 149.077 70.5428C149.264 70.7321 149.451 70.7321 149.637 70.7321C149.824 70.7321 150.011 70.5428 150.198 70.1643L152.066 66.947C152.253 66.7577 152.253 66.5685 152.253 66.3792C152.253 66.0007 151.879 65.8115 151.506 65.6222C139.176 59.3768 132.824 70.9213 132.824 84.3585C132.824 101.77 145.341 104.23 152.44 98.9311C152.813 98.7419 152.813 98.3633 152.813 98.1741L152.626 95.903ZM121.989 80.9519L130.582 65.2437C130.769 65.0544 130.582 64.6759 130.396 64.6759H126.099C124.791 64.6759 124.418 65.0544 124.044 66.0007C123.67 66.947 117.319 80.3841 116.571 80.9519V65.2437C116.571 65.0544 116.385 64.6759 116.198 64.6759H111.528C111.341 64.6759 111.154 64.8652 111.154 65.2437V100.067C111.154 100.256 111.341 100.634 111.528 100.634H116.198C116.571 100.634 116.571 100.445 116.571 100.067V82.0874C117.132 82.4659 124.978 98.9311 125.165 99.4989C125.539 100.256 126.286 100.634 127.22 100.634H131.89C132.264 100.634 132.264 100.445 132.077 100.067L121.989 80.9519ZM81.077 96.0923H80.1429C79.022 96.0923 78.8352 95.7138 78.8352 94.7675V65.2437C78.8352 64.8652 78.6484 64.6759 78.4616 64.6759H64.077C63.7033 64.6759 63.5165 64.8652 63.5165 65.2437C63.5165 73.1924 63.7033 86.4403 58.4726 96.0923H56.9781C56.6044 96.0923 56.4176 96.2815 56.4176 96.6601V107.069C56.4176 107.448 56.7913 107.637 56.9781 107.637H60.3407C61.088 107.637 61.4616 107.069 61.4616 106.501V100.634H76.5935V107.069C76.5935 107.258 76.7803 107.637 77.1539 107.637H80.8902C81.2638 107.637 81.8242 107.258 81.8242 106.501V96.6601C81.6374 96.2815 81.4506 96.0923 81.077 96.0923ZM73.2308 96.0923H62.7693C65.7583 91.1717 68.5605 83.2229 68.5605 69.218H73.2308V96.0923ZM95.6484 63.9189C87.9891 63.9189 84.4396 73.5709 84.4396 84.1692C84.4396 101.581 96.3957 104.23 104.615 99.1204C104.989 98.9311 104.989 98.7419 104.989 98.5526L104.429 96.0923C104.429 95.903 104.242 95.7138 103.868 95.7138C100.879 95.7138 90.4176 101.013 90.4176 83.7907C94.1539 84.1692 94.1539 84.1692 105.363 84.1692C105.176 75.4635 104.242 63.9189 95.6484 63.9189ZM90.6045 79.8163C90.6045 66.0007 99.5715 63.3511 99.5715 79.4378C95.6484 79.4378 93.9671 79.4378 90.6045 79.8163Z" fill="#5B5A5F"/>
</g>
<g class="floating fl_5" opacity="0.5">
<path fill-rule="evenodd" clip-rule="evenodd" d="M129.458 328.389H121.351C108.704 328.389 117.892 301.609 128.539 301.609H141.347C143.401 301.609 147.022 301.986 148.806 296.921L151.562 289.054H133.997C124.486 289.054 117.081 292.395 111.731 297.999C102.489 307.59 99.3547 322.569 101.571 329.736C103.678 336.364 109.407 340.728 118.378 340.836L125.35 340.89H133.943L136.051 334.585C137.618 330.113 134.105 328.389 129.458 328.389ZM228.143 317.289L230.791 308.721H202.526C197.824 308.721 195.716 310.015 194.906 312.709L192.257 321.276H220.523C225.225 321.276 227.332 319.983 228.143 317.289ZM188.042 332.376L185.394 340.944H213.659C218.307 340.944 220.469 339.65 221.279 336.956L223.928 328.389H195.662C191.014 328.389 188.907 329.682 188.042 332.376ZM234.736 297.675L237.385 289.108H209.119C204.418 289.108 202.31 290.401 201.499 293.095L198.851 301.663H227.116C231.765 301.663 233.872 300.369 234.736 297.675ZM192.041 299.4C190.852 291.425 186.583 289.108 176.206 289.108H157.291L146.266 321.276H153.237C157.399 321.276 159.506 321.33 161.722 315.403L166.316 301.609H173.342C179.341 301.609 177.99 309.099 174.963 316.373C172.261 322.785 167.559 328.443 161.884 328.443H150.157C145.455 328.443 143.293 329.736 142.428 332.43L139.51 340.998H148.103L156.534 340.944C163.992 340.89 170.099 340.351 177.233 333.939C184.799 327.096 193.555 309.53 192.041 299.4ZM287.052 289.054H270.677L255.274 305.381C253.49 307.267 251.652 309.152 249.868 311.362H249.706L257.381 289.054H244.033L226.035 340.944H239.385L245.113 324.617L251.057 319.606L255.76 334.37C257.219 338.95 258.733 340.944 261.976 340.944H272.19L261.705 311.954L287.052 289.054Z" fill="#DCA34C"/>
</g>
<g class="floating fl_5" opacity="0.5">
<path fill-rule="evenodd" clip-rule="evenodd" d="M129.458 328.389H121.351C108.704 328.389 117.892 301.609 128.539 301.609H141.347C143.401 301.609 147.022 301.986 148.806 296.921L151.562 289.054H133.997C124.486 289.054 117.081 292.395 111.731 297.999C102.489 307.59 99.3547 322.569 101.571 329.736C103.678 336.364 109.407 340.728 118.378 340.836L125.35 340.89H133.943L136.051 334.585C137.618 330.113 134.105 328.389 129.458 328.389ZM228.143 317.289L230.791 308.721H202.526C197.824 308.721 195.716 310.015 194.906 312.709L192.257 321.276H220.523C225.225 321.276 227.332 319.983 228.143 317.289ZM188.042 332.376L185.394 340.944H213.659C218.307 340.944 220.469 339.65 221.279 336.956L223.928 328.389H195.662C191.014 328.389 188.907 329.682 188.042 332.376ZM234.736 297.675L237.385 289.108H209.119C204.418 289.108 202.31 290.401 201.499 293.095L198.851 301.663H227.116C231.765 301.663 233.872 300.369 234.736 297.675ZM192.041 299.4C190.852 291.425 186.583 289.108 176.206 289.108H157.291L146.266 321.276H153.237C157.399 321.276 159.506 321.33 161.722 315.403L166.316 301.609H173.342C179.341 301.609 177.99 309.099 174.963 316.373C172.261 322.785 167.559 328.443 161.884 328.443H150.157C145.455 328.443 143.293 329.736 142.428 332.43L139.51 340.998H148.103L156.534 340.944C163.992 340.89 170.099 340.351 177.233 333.939C184.799 327.096 193.555 309.53 192.041 299.4ZM287.052 289.054H270.677L255.274 305.381C253.49 307.267 251.652 309.152 249.868 311.362H249.706L257.381 289.054H244.033L226.035 340.944H239.385L245.113 324.617L251.057 319.606L255.76 334.37C257.219 338.95 258.733 340.944 261.976 340.944H272.19L261.705 311.954L287.052 289.054Z" fill="#DCA34C"/>
</g>
<g class="floating fl_6" clip-path="url(#clip7_0_3)">
<path fill-rule="evenodd" clip-rule="evenodd" d="M95.7468 152C73.8299 152 56 169.83 56 191.747C56 213.664 73.8299 231.494 95.7468 231.494C117.662 231.494 135.494 213.664 135.494 191.747C135.494 169.83 117.662 152 95.7468 152Z" fill="#5B5A5F"/>
<path fill-rule="evenodd" clip-rule="evenodd" d="M115.805 163.238C112.771 171.018 105.865 172.637 95.8615 172.637C94.7879 172.637 93.7244 172.62 92.698 172.605C91.7054 172.592 90.7668 172.576 89.8468 172.576C89.0297 172.576 88.2059 172.587 87.3939 172.622C88.7951 169.182 91.0318 166.844 94.2156 165.426C98.6537 163.451 104.424 163.43 109.515 163.415C111.733 163.407 113.857 163.398 115.805 163.238Z" fill="#5B5A5F"/>
<path fill-rule="evenodd" clip-rule="evenodd" d="M118.921 165.735C114.434 175.509 104.434 176.488 95.8616 176.488C93.9793 176.488 92.1764 176.442 90.5068 176.432L88.3477 184.876C99.4049 175.862 114.027 184.799 112.464 198.401C111.411 207.563 104.879 213.554 97.97 215.276C90.4427 217.153 82.1034 214.344 78.3642 206.673C77.9675 205.863 77.2771 204.239 77.0137 203.371L84.9512 201.332C85.0914 201.789 85.3294 202.232 85.5792 202.635C90.8934 211.206 101.662 206.92 102.877 198.028C104.115 188.983 91.4235 184.166 85.64 194.737L78.6005 191.737L78.479 191.683L81.8738 178.055C82.0831 177.086 82.7888 174.379 82.9103 173.936C86.7474 159.826 99.1601 159.603 109.117 159.566C104.999 157.853 100.485 156.904 95.7468 156.904C76.5022 156.904 60.904 172.502 60.904 191.747C60.904 210.991 76.5022 226.59 95.7468 226.59C114.991 226.59 130.59 210.991 130.59 191.747C130.59 181.402 126.079 172.116 118.921 165.735Z" fill="#DCA34C"/>
</g>
<g class="floating fl_6" opacity="0.8">
<path d="M953.887 239.869H953.746L950.799 226.061H937.932V251.277H945.335V231.435H945.564L949.883 251.277H957.117L961.607 231.435H961.807V251.277H969.587V226.061H956.716L953.887 239.869Z" fill="#5B5A5F"/>
<path d="M1072.45 232.379H1055.86C1055.86 235.889 1056.69 242.837 1053.8 245.873H1051.8V254.652H1059.18V251.277H1067.33V254.652H1074.74V245.873H1072.45V232.379ZM1065.04 245.873H1060.89C1062.43 243.241 1062.3 240.759 1062.3 237.81H1065.04V245.873Z" fill="#5B5A5F"/>
<path d="M1085.66 231.95C1079.46 231.95 1075.16 235.439 1075.16 241.842C1075.16 248.184 1079.51 251.706 1085.66 251.706C1091.76 251.706 1096.21 248.174 1096.21 241.842C1096.21 235.452 1091.81 231.95 1085.66 231.95ZM1085.66 246.302C1084.04 246.302 1083.85 244.028 1083.85 242.843V240.813C1083.85 239.592 1084.02 237.382 1085.66 237.382C1087.53 237.382 1087.43 240.557 1087.43 241.842C1087.43 243.087 1087.51 246.302 1085.66 246.302Z" fill="#5B5A5F"/>
<path d="M1116.45 226.061L1113.65 239.869H1113.51L1110.51 226.061H1097.67V251.277H1105.05V231.435H1105.27L1109.62 251.277H1116.85L1121.35 231.435H1121.54V251.277H1129.32V226.061H1116.45Z" fill="#5B5A5F"/>
<path d="M1038.7 241.241H1038.5V232.379H1031.07V251.277H1039.13L1042.88 242.469H1043.02V251.277H1050.48V232.379H1042.48L1038.7 241.241Z" fill="#5B5A5F"/>
<path d="M980.452 231.95C978.411 231.95 974.958 232.427 973.046 233.093V238.039C974.602 237.243 977.204 236.552 978.993 236.552C981.07 236.552 983.106 236.935 982.967 239.468C978.016 239.468 971.013 239.224 971.013 246.042C971.013 249.634 973.405 251.706 976.933 251.706C979.484 251.706 981.236 251.015 982.853 248.989H982.967V251.278H990.431V239.239C990.434 233.319 985.356 231.95 980.452 231.95ZM982.97 244.1C982.97 245.509 982.328 247.131 980.681 247.131C979.611 247.131 978.794 246.413 978.794 245.331C978.794 243.31 980.591 243.015 982.225 243.015C982.473 243.015 982.717 243.054 982.967 243.042V244.1H982.97Z" fill="#5B5A5F"/>
<path d="M1021.52 241.869C1021.52 239.043 1023.13 237.381 1025.95 237.381C1026.99 237.381 1028.36 237.737 1029.27 238.238V232.834C1027.46 232.288 1025.46 231.947 1023.58 231.947C1017.21 231.947 1012.74 235.011 1012.74 241.694C1012.74 248.024 1017.03 251.703 1023.23 251.703C1025.38 251.703 1027.32 251.377 1029.38 250.759V245.328C1028.16 245.798 1027.05 246.302 1025.72 246.302C1023.08 246.302 1021.52 244.417 1021.52 241.869Z" fill="#5B5A5F"/>
<path d="M1014.22 232.379H1005.22L1000.58 240.641H1000.44V232.379H992.406V251.277H1000.44V242.954H1000.58L1005.27 251.277H1014.22L1008.42 241.67L1014.22 232.379Z" fill="#5B5A5F"/>
<path d="M1077.41 194.822L1064.69 207.533L1063.42 206.261L1076.11 193.562L1064.97 182.416H1044.05L1032.26 194.249L1020.43 182.428H999.803L988.124 194.105L975.329 206.9L988.106 219.698H997.801L1010.14 207.361L1022.47 219.698H1042.01L1054.46 207.229L1066.93 219.698H1076.65L1089.46 206.888L1077.41 194.822ZM988.603 218.498L977.681 207.56H985.871L996.809 218.498H988.603ZM985.886 206.242H977.684L988.621 195.305H996.809L985.886 206.242ZM989.846 194.08L1000.3 183.628H1008.49L998.03 194.08H989.846ZM1010.2 183.628H1018.39L1007.93 194.08H999.743L1010.2 183.628ZM999.812 195.323H1008L1018.92 206.242H1010.72L999.812 195.323ZM1022.97 218.498L1012.07 207.578H1020.26L1031.17 218.498H1022.97ZM1032.87 218.498L1021.85 207.47H1030.04L1041.07 218.498H1032.87ZM1030.17 206.242H1021.97L1032.93 195.281H1041.12L1030.17 206.242ZM1034.2 194.014L1044.55 183.616H1052.74L1042.4 194.014H1034.2ZM1054.55 183.616H1062.73L1052.33 194.08H1044.12L1054.55 183.616ZM1044.27 195.323H1052.46L1063.38 206.242H1055.18L1044.27 195.323ZM1067.43 218.498L1056.53 207.578H1064.72L1075.64 218.498H1067.43Z" fill="#DCA34C"/>
</g>
<g class="floating fl_6" opacity="0.8">
<path d="M953.887 239.869H953.746L950.799 226.061H937.932V251.277H945.335V231.435H945.564L949.883 251.277H957.117L961.607 231.435H961.807V251.277H969.587V226.061H956.716L953.887 239.869Z" fill="#5B5A5F"/>
<path d="M1072.45 232.379H1055.86C1055.86 235.889 1056.69 242.837 1053.8 245.873H1051.8V254.652H1059.18V251.277H1067.33V254.652H1074.74V245.873H1072.45V232.379ZM1065.04 245.873H1060.89C1062.43 243.241 1062.3 240.759 1062.3 237.81H1065.04V245.873Z" fill="#5B5A5F"/>
<path d="M1085.66 231.95C1079.46 231.95 1075.16 235.439 1075.16 241.842C1075.16 248.184 1079.51 251.706 1085.66 251.706C1091.76 251.706 1096.21 248.174 1096.21 241.842C1096.21 235.452 1091.81 231.95 1085.66 231.95ZM1085.66 246.302C1084.04 246.302 1083.85 244.028 1083.85 242.843V240.813C1083.85 239.592 1084.02 237.382 1085.66 237.382C1087.53 237.382 1087.43 240.557 1087.43 241.842C1087.43 243.087 1087.51 246.302 1085.66 246.302Z" fill="#5B5A5F"/>
<path d="M1116.45 226.061L1113.65 239.869H1113.51L1110.51 226.061H1097.67V251.277H1105.05V231.435H1105.27L1109.62 251.277H1116.85L1121.35 231.435H1121.54V251.277H1129.32V226.061H1116.45Z" fill="#5B5A5F"/>
<path d="M1038.7 241.241H1038.5V232.379H1031.07V251.277H1039.13L1042.88 242.469H1043.02V251.277H1050.48V232.379H1042.48L1038.7 241.241Z" fill="#5B5A5F"/>
<path d="M980.452 231.95C978.411 231.95 974.958 232.427 973.046 233.093V238.039C974.602 237.243 977.204 236.552 978.993 236.552C981.07 236.552 983.106 236.935 982.967 239.468C978.016 239.468 971.013 239.224 971.013 246.042C971.013 249.634 973.405 251.706 976.933 251.706C979.484 251.706 981.236 251.015 982.853 248.989H982.967V251.278H990.431V239.239C990.434 233.319 985.356 231.95 980.452 231.95ZM982.97 244.1C982.97 245.509 982.328 247.131 980.681 247.131C979.611 247.131 978.794 246.413 978.794 245.331C978.794 243.31 980.591 243.015 982.225 243.015C982.473 243.015 982.717 243.054 982.967 243.042V244.1H982.97Z" fill="#5B5A5F"/>
<path d="M1021.52 241.869C1021.52 239.043 1023.13 237.381 1025.95 237.381C1026.99 237.381 1028.36 237.737 1029.27 238.238V232.834C1027.46 232.288 1025.46 231.947 1023.58 231.947C1017.21 231.947 1012.74 235.011 1012.74 241.694C1012.74 248.024 1017.03 251.703 1023.23 251.703C1025.38 251.703 1027.32 251.377 1029.38 250.759V245.328C1028.16 245.798 1027.05 246.302 1025.72 246.302C1023.08 246.302 1021.52 244.417 1021.52 241.869Z" fill="#5B5A5F"/>
<path d="M1014.22 232.379H1005.22L1000.58 240.641H1000.44V232.379H992.406V251.277H1000.44V242.954H1000.58L1005.27 251.277H1014.22L1008.42 241.67L1014.22 232.379Z" fill="#5B5A5F"/>
<path d="M1077.41 194.822L1064.69 207.533L1063.42 206.261L1076.11 193.562L1064.97 182.416H1044.05L1032.26 194.249L1020.43 182.428H999.803L988.124 194.105L975.329 206.9L988.106 219.698H997.801L1010.14 207.361L1022.47 219.698H1042.01L1054.46 207.229L1066.93 219.698H1076.65L1089.46 206.888L1077.41 194.822ZM988.603 218.498L977.681 207.56H985.871L996.809 218.498H988.603ZM985.886 206.242H977.684L988.621 195.305H996.809L985.886 206.242ZM989.846 194.08L1000.3 183.628H1008.49L998.03 194.08H989.846ZM1010.2 183.628H1018.39L1007.93 194.08H999.743L1010.2 183.628ZM999.812 195.323H1008L1018.92 206.242H1010.72L999.812 195.323ZM1022.97 218.498L1012.07 207.578H1020.26L1031.17 218.498H1022.97ZM1032.87 218.498L1021.85 207.47H1030.04L1041.07 218.498H1032.87ZM1030.17 206.242H1021.97L1032.93 195.281H1041.12L1030.17 206.242ZM1034.2 194.014L1044.55 183.616H1052.74L1042.4 194.014H1034.2ZM1054.55 183.616H1062.73L1052.33 194.08H1044.12L1054.55 183.616ZM1044.27 195.323H1052.46L1063.38 206.242H1055.18L1044.27 195.323ZM1067.43 218.498L1056.53 207.578H1064.72L1075.64 218.498H1067.43Z" fill="#DCA34C"/>
</g>
<g class="floating fl_7" clip-path="url(#clip8_0_3)">
<path d="M1016.87 365.891C1014.91 365.891 1013.33 364.303 1013.33 362.346V344.598C1013.33 342.642 1014.91 341.053 1016.87 341.053C1018.83 341.053 1020.42 342.642 1020.42 344.598V362.346C1020.42 364.303 1018.83 365.891 1016.87 365.891ZM1016.87 328.849C1007.41 328.849 999.72 336.542 999.72 346.005V361.033C999.72 370.496 1007.41 378.188 1016.87 378.188C1026.33 378.188 1034.03 370.496 1034.03 361.033V346.005C1034.03 336.542 1026.33 328.849 1016.87 328.849ZM1054.68 326.571H1058.34C1062.09 326.571 1065.14 324.178 1065.14 320.42C1065.14 316.667 1062.09 314.274 1058.34 314.274H1054.61C1045.16 314.274 1037.46 321.743 1037.46 331.196V371.383C1037.46 375.141 1040.51 378.188 1044.26 378.188C1048.02 378.188 1051.06 375.141 1051.06 371.383V344.863H1055.76C1059.52 344.863 1062.56 342.517 1062.56 338.764C1062.56 335.001 1059.51 332.602 1055.76 332.602H1051.06V330.516C1051.07 328.247 1052.41 326.571 1054.68 326.571ZM1072.4 363.348C1068.25 363.348 1064.89 366.706 1064.89 370.859C1064.89 375.001 1068.25 378.365 1072.4 378.365C1076.55 378.365 1079.91 375.001 1079.91 370.859C1079.91 366.706 1076.56 363.348 1072.4 363.348ZM1082.82 326.571H1086.47C1090.23 326.571 1093.27 324.178 1093.27 320.42C1093.27 316.667 1090.22 314.274 1086.47 314.274H1082.75C1073.3 314.274 1065.6 321.743 1065.6 331.201V354.274C1065.6 358.032 1068.65 361.079 1072.41 361.079C1076.16 361.079 1079.21 358.032 1079.21 354.274V344.863H1083.9C1087.66 344.863 1090.71 342.517 1090.71 338.764C1090.71 335.001 1087.66 332.602 1083.9 332.602H1079.21V330.516C1079.21 328.247 1080.55 326.571 1082.82 326.571ZM989.65 312C985.892 312 982.845 315.042 982.845 318.8V332.576H973.6V318.805C973.6 315.052 970.553 312 966.8 312C963.042 312 960 315.047 960 318.805V371.399C960 375.152 963.047 378.199 966.8 378.199C970.558 378.199 973.6 375.152 973.6 371.399V344.868H979.398C981.298 344.868 982.845 346.41 982.845 348.315V371.394C982.85 375.152 985.892 378.199 989.65 378.199C993.403 378.199 996.45 375.152 996.45 371.394V318.795C996.45 315.042 993.403 312 989.65 312Z" fill="#FBEDD0"/>
</g>
<g class="floating fl_7" clip-path="url(#clip9_0_3)">
<path d="M1016.87 365.891C1014.91 365.891 1013.33 364.303 1013.33 362.346V344.598C1013.33 342.642 1014.91 341.053 1016.87 341.053C1018.83 341.053 1020.42 342.642 1020.42 344.598V362.346C1020.42 364.303 1018.83 365.891 1016.87 365.891ZM1016.87 328.849C1007.41 328.849 999.72 336.542 999.72 346.005V361.033C999.72 370.496 1007.41 378.188 1016.87 378.188C1026.33 378.188 1034.03 370.496 1034.03 361.033V346.005C1034.03 336.542 1026.33 328.849 1016.87 328.849ZM1054.68 326.571H1058.34C1062.09 326.571 1065.14 324.178 1065.14 320.42C1065.14 316.667 1062.09 314.274 1058.34 314.274H1054.61C1045.16 314.274 1037.46 321.743 1037.46 331.196V371.383C1037.46 375.141 1040.51 378.188 1044.26 378.188C1048.02 378.188 1051.06 375.141 1051.06 371.383V344.863H1055.76C1059.52 344.863 1062.56 342.517 1062.56 338.764C1062.56 335.001 1059.51 332.602 1055.76 332.602H1051.06V330.516C1051.07 328.247 1052.41 326.571 1054.68 326.571ZM1072.4 363.348C1068.25 363.348 1064.89 366.706 1064.89 370.859C1064.89 375.001 1068.25 378.365 1072.4 378.365C1076.55 378.365 1079.91 375.001 1079.91 370.859C1079.91 366.706 1076.56 363.348 1072.4 363.348ZM1082.82 326.571H1086.47C1090.23 326.571 1093.27 324.178 1093.27 320.42C1093.27 316.667 1090.22 314.274 1086.47 314.274H1082.75C1073.3 314.274 1065.6 321.743 1065.6 331.201V354.274C1065.6 358.032 1068.65 361.079 1072.41 361.079C1076.16 361.079 1079.21 358.032 1079.21 354.274V344.863H1083.9C1087.66 344.863 1090.71 342.517 1090.71 338.764C1090.71 335.001 1087.66 332.602 1083.9 332.602H1079.21V330.516C1079.21 328.247 1080.55 326.571 1082.82 326.571ZM989.65 312C985.892 312 982.845 315.042 982.845 318.8V332.576H973.6V318.805C973.6 315.052 970.553 312 966.8 312C963.042 312 960 315.047 960 318.805V371.399C960 375.152 963.047 378.199 966.8 378.199C970.558 378.199 973.6 375.152 973.6 371.399V344.868H979.398C981.298 344.868 982.845 346.41 982.845 348.315V371.394C982.85 375.152 985.892 378.199 989.65 378.199C993.403 378.199 996.45 375.152 996.45 371.394V318.795C996.45 315.042 993.403 312 989.65 312Z" fill="#FBEDD0"/>
</g>
<g class="floating fl_7" clip-path="url(#clip10_0_3)">
<path fill-rule="evenodd" clip-rule="evenodd" d="M955.095 248.714H944.911L950.004 235.576L955.095 248.714ZM958.527 257.567L960.799 263.438H972.003L955.155 221.563H945.025L928.173 263.438H939.204L941.481 257.567H958.527ZM910.315 263.441V238.554L899.378 251.699L888.446 238.554V263.441H877.492V221.566H888.296L899.378 235.964L910.463 221.566H921.267V263.441H910.315ZM978.968 221.566V263.441H989.925V231.291H1005.24V221.566H978.968ZM1040.21 247.036V263.441H1051.16V221.566H1040.21V237.194H1023.93V221.566H1012.98V263.441H1023.93V247.036H1040.21ZM1120.03 263.441V231.291H1107.24V221.566H1143.85V231.291H1130.99V263.441H1120.03ZM1088.58 239.576V263.441H1099.54V221.566H1090.08L1072.93 245.18V221.566H1061.98V263.441H1071.14L1088.58 239.576ZM788 229.03C788 223.693 790.095 218.668 793.906 214.876C795.775 213.007 797.992 211.526 800.43 210.518C802.868 209.509 805.48 208.994 808.117 209H854.571V219.177H808.117C805.499 219.175 802.987 220.216 801.132 222.073C800.212 222.98 799.48 224.063 798.98 225.257C798.48 226.451 798.222 227.734 798.22 229.03L798.162 246.113C797.689 250.651 794.253 254.31 789.809 254.986L788 255.262V229.03ZM788 276V265.821H834.454C835.75 265.823 837.033 265.568 838.231 265.071C839.428 264.573 840.516 263.843 841.432 262.922C842.355 262.018 843.089 260.937 843.59 259.743C844.091 258.549 844.348 257.266 844.347 255.97L844.356 239.756C844.356 234.927 847.97 230.74 852.764 230.011L854.571 229.738V255.97C854.571 261.307 852.476 266.33 848.663 270.121C846.796 271.992 844.58 273.474 842.141 274.483C839.703 275.492 837.091 276.007 834.454 276H788ZM827.419 255.262V242.292L821.285 249.389L815.148 242.292V255.262H807.02V229.738H814.72L821.285 237.944L827.848 229.738H835.551V255.262H827.419Z" fill="#DCA34C"/>
</g>
<g class="floating fl_8" opacity="0.8" clip-path="url(#clip11_0_3)">
<path d="M1052.25 65.4006L1039.4 78.248L991.87 78.2513L988 74.3798V26.85L1000.85 14H1048.38L1052.25 17.8695V65.4006Z" fill="#DCA34C"/>
<path d="M1048.38 14L1033.93 28.4509V49.5437L1022.09 33.2769H997.138V38.3886H1004.49V57.887L988.001 74.3798V78.2513L991.87 78.248L1010.04 60.0817V38.3886H1017.39V58.9737H1022.86V42.7062L1034.7 58.9737H1039.4V30.7182L1052.25 17.8695L1052.25 14H1048.38Z" fill="white"/>
</g>
<g class="floating fl_8" opacity="0.8" clip-path="url(#clip12_0_3)">
<path d="M1052.25 65.4006L1039.4 78.248L991.87 78.2513L988 74.3798V26.85L1000.85 14H1048.38L1052.25 17.8695V65.4006Z" fill="#DCA34C"/>
<path d="M1048.38 14L1033.93 28.4509V49.5437L1022.09 33.2769H997.138V38.3886H1004.49V57.887L988.001 74.3798V78.2513L991.87 78.248L1010.04 60.0817V38.3886H1017.39V58.9737H1022.86V42.7062L1034.7 58.9737H1039.4V30.7182L1052.25 17.8695L1052.25 14H1048.38Z" fill="white"/>
</g>
<defs>
<clipPath id="clip0_0_3">
<rect width="319" height="451" fill="white" transform="translate(348 18)"/>
</clipPath>
<clipPath id="clip1_0_3">
<rect width="84" height="68" fill="white" transform="translate(249 184)"/>
</clipPath>
<clipPath id="clip2_0_3">
<rect width="84" height="68" fill="white" transform="translate(249 184)"/>
</clipPath>
<clipPath id="clip3_0_3">
<rect width="120" height="118" fill="white" transform="translate(801 59)"/>
</clipPath>
<clipPath id="clip4_0_3">
<rect width="120" height="118" fill="white" transform="translate(801 59)"/>
</clipPath>
<clipPath id="clip5_0_3">
<rect x="685" y="300" width="50" height="50" rx="11" fill="white"/>
</clipPath>
<clipPath id="clip6_0_3">
<rect x="685" y="300" width="50" height="50" rx="11" fill="white"/>
</clipPath>
<clipPath id="clip7_0_3">
<rect width="89" height="81" fill="white" transform="translate(56 152)"/>
</clipPath>
<clipPath id="clip8_0_3">
<rect width="133.405" height="68" fill="white" transform="translate(960 312)"/>
</clipPath>
<clipPath id="clip9_0_3">
<rect width="133.405" height="68" fill="white" transform="translate(960 312)"/>
</clipPath>
<clipPath id="clip10_0_3">
<rect width="79" height="67" fill="white" transform="translate(788 209)"/>
</clipPath>
<clipPath id="clip11_0_3">
<rect width="64" height="64" fill="white" transform="translate(988 14)"/>
</clipPath>
<clipPath id="clip12_0_3">
<rect width="64" height="64" fill="white" transform="translate(988 14)"/>
</clipPath>
</defs>
</svg>
