<svg width="407" height="435" viewBox="0 0 407 435" fill="none" xmlns="http://www.w3.org/2000/svg">
<g clip-path="url(#clip0_284_28398)">
<path fill-rule="evenodd" clip-rule="evenodd" d="M174.996 368.597L196.797 374.394C196.516 378.862 191.129 390.54 189.237 395.272C187.805 398.854 186.466 402.986 184.55 406.365C182.507 409.971 182.176 411.367 179.659 404.926C175.334 393.858 173.788 383.115 174.996 368.597ZM124.074 319.278C125.447 326.589 120.498 327.088 124.57 339.868C125.816 343.778 127.424 342.517 126.211 347.506C117.794 339.007 120.933 322.302 124.074 319.278ZM128.198 337.255C127.835 336.56 125.844 317.434 125.932 315.736C126.356 307.499 133.438 296.487 141.838 302.627C147.557 306.807 149.513 316.514 147.69 323.769C144.987 334.526 134.694 336.464 128.198 337.255ZM209.304 329.006C209.447 331.742 203.354 353.878 201.614 356.593C197.315 352.192 195.188 346.606 196.561 340.388C198.236 332.808 204.392 329.575 209.304 329.006ZM142.413 249.847L128.557 295.655C129.753 284.401 123.551 284.013 127.683 271.479C129.22 266.819 130.948 262.797 132.414 258.15C133.786 253.801 133.384 254.008 141.063 250.268L142.413 249.847ZM316.204 351.239C318.984 354.085 320.836 358.294 324.972 360.359L327.715 357.281L324.885 364.831C319.997 361.023 317.445 355.659 316.204 351.239ZM312.836 340.436C316.964 334.382 323.336 330.497 328.99 337.621C333.286 343.037 328.167 351.426 325.015 358.123C319.591 354.261 314.255 345.021 312.836 340.436ZM137.36 233.642C143.125 229.716 139.06 235.246 147.781 226.688L149.131 226.267C149.236 226.179 149.432 225.485 149.595 225.382C149.237 230.365 146.277 235.888 144.821 240.946C143.21 246.546 143.789 247.641 134.779 251.486C137.149 242.345 137.711 241.831 137.36 233.642ZM323.398 303.063C328.017 308.225 332.823 316.238 335.113 321.636C338.644 329.959 338.387 334.685 332.866 345.303C332.761 341.59 333.791 335.338 325.07 332.176C318.26 329.706 313.701 336.756 310.644 338.156C309.439 334.712 308.269 331.86 306.811 328.238C309.904 323.627 314.533 322.006 317.739 318.163C320.287 315.109 321.406 307.215 323.398 303.063ZM348.202 292.366C345.444 289.859 341.966 282.262 340.406 279.238C338.753 276.035 334.913 268.944 341.551 266.287C347.252 264.005 351.266 273.097 351.205 275.871C351.13 279.273 349.283 288.841 348.202 292.366ZM138.821 181.326C142.734 177.802 146.69 175.428 151.099 170.83C155.948 165.772 158.159 163.948 163.377 160.334C161.41 165.191 155.517 170.341 151.941 173.531C147.521 177.473 143.339 180.567 138.821 181.326ZM340.741 285.061C342.521 288.096 345.522 292.294 346.809 295.023C342.905 302.685 336.643 301.588 328.884 296.907C316.425 289.394 321.828 270.794 331.812 261.174C335.292 257.82 336.193 259.585 337.762 254.133C338.779 250.599 339.844 246.979 341.099 243.461C349.314 250.067 354.459 262.961 352.177 271.864C350.123 268.982 346.934 262.418 341.595 264.051C337.671 265.251 334.769 270.834 336.022 274.678C336.619 276.509 339.204 282.442 340.741 285.061ZM251.609 153.568C262.015 156.12 262.278 165.461 260.16 173.868C257.414 184.771 251.502 190.801 241.133 186.468C231.586 182.479 230.487 172.394 232.625 163.932C235.58 152.238 241.999 151.211 251.609 153.568ZM366.446 158.509C374.023 163.633 375.998 168.85 372.341 177.415C369.422 184.253 360.762 191.066 355.971 191.409L366.446 158.509ZM214.209 52.6186C218.463 52.787 334.266 87.8841 351.17 92.8904C356.996 94.615 364.994 97.2048 370.272 99.5291L303.777 323.257C298.155 316.479 295.53 309.863 283.963 307.209C274.177 304.963 270.272 307.815 262.831 313.057C260.574 303.776 260.824 280.979 261.418 270.528C262.265 255.644 261.4 241.85 261.356 227.578C261.311 213.281 264.007 198.216 265.342 183.365C266.537 170.081 266.959 150.917 248.11 149.473C218.365 147.192 219.302 202.6 216.651 226.699C214.888 242.731 213.447 255.091 214.014 270.491C214.395 280.806 214.86 303.813 212.727 313.862L142.476 292.797L214.209 52.6186ZM140.662 294.103C145.908 297.284 199.874 311.476 212.684 316.098C210.869 323.492 212.406 325.748 207.997 327.191C197.674 330.57 192.176 339.415 194.617 348.402C196.484 355.273 197.527 352.989 201.571 358.829L198.233 369.501L174.24 361.424C175.12 357.041 173.579 346.432 172.816 342.605C171.139 334.205 170.52 331.721 166.921 323.699C161.425 311.448 149.516 298.272 133.405 299.329C138.469 285.95 142.607 268.377 146.797 254.407L186.973 119.639C195.888 89.7605 204.173 60.4717 213.292 30.6788C215.86 22.2892 223.028 17.5166 228.777 16.2193C235.637 14.671 242.612 17.3909 250.622 19.7803L339.554 46.1341C350.814 49.5073 376.421 54.6936 381.677 64.8572C385.055 71.3884 385.408 75.5417 382.637 84.561L335.322 241.558C333.213 248.568 331.747 257.65 327.298 263.322C314.776 279.284 322.46 286.005 319.522 295.381C318.373 299.048 317.269 302.382 316.185 306.053C314.626 311.325 312.518 325.018 305.504 326.423C305.856 321.875 371.991 101.952 372.972 98.6874C368.524 96.4103 330.845 84.9386 322.75 82.4894L222.264 52.3295C212.018 49.236 214.044 46.6771 208.129 66.3681L171.247 192.701C161.053 226.205 151.505 260.95 140.662 294.103ZM170.373 168.525C171.296 165.79 170.402 163.668 170.968 160.931C171.525 158.237 172.59 154.723 173.376 152.03L188.626 103.565C195.227 81.6394 201.237 58.8469 207.806 36.8343C212.073 22.5384 213.773 15.9505 226.629 11.7033C235.224 8.86312 247.911 15.1632 258.256 18.1408L356.971 47.3711C368.239 50.7448 383.61 53.0825 387.453 66.7603C388.506 70.5037 388.508 72.8703 387.701 77.055C386.382 83.9001 356.565 184.835 354.157 192.716C351.619 201.023 336.026 255.455 332.319 258.052C332.129 254.992 374.534 115.277 380.649 94.8118C384.612 81.5492 388.621 75.7088 383.912 64.9011C379.51 54.7995 366.549 52.2339 356.043 49.1424L258.213 20.3769C247.245 17.1746 236.452 11.6844 227.471 14.4041C215.619 17.993 213.149 25.6975 209.113 38.6496C205.529 50.1478 173.634 161.86 170.373 168.525ZM-59.5446 471.36L-59.1236 472.71L7.03996 404.666C23.5143 387.986 25.2076 385.961 35.5707 363.172C42.7745 347.331 46.9072 330.837 52.1699 314.286C57.0168 299.042 59.4964 280.465 67.8403 267.171C78.9167 249.526 85.868 233.362 95.2377 214.918C100.874 203.822 102.619 202.069 111.695 196.452C115.418 194.148 130.938 184.331 134.307 183.474C136.496 182.917 137.692 183.527 140.127 183.141C150.516 181.494 160.428 167.724 166.076 159.493C170.17 160.999 169.282 163.749 168.603 167.595C167.964 171.206 166.301 174.687 165.265 178.267C161.105 192.647 159.874 208.4 151.031 220.489C148.891 223.415 146.326 225.572 143.732 227.951C140.427 230.98 138.853 230.051 135.589 232.712C134.956 239.331 137.879 235.929 133.472 249.671L124.94 274.557C122.832 281.334 127.298 284.361 126.743 296.962C125.888 316.36 113.184 329.19 121.784 345.182C126.183 353.364 126.577 346.697 122.831 360.413C118.308 376.968 127.176 392.896 126.596 419.989C126.223 437.403 119.166 448.021 130.492 472.857C131.513 475.097 132.975 476.575 133.947 479.189C131.912 481.243 110.552 488.612 105.558 490.263C102.317 491.335 99.3788 492.492 96.0661 495.445C91.0058 499.956 71.1512 531.228 67.9564 538.289L69.2629 540.104C72.7825 536.677 89.4086 505.062 97.3726 497.26C104.113 490.657 125.584 487.585 133.903 481.425C136.693 484.34 153.443 521.317 156.275 527.05C158.853 532.271 161.523 537.164 164.027 542.414C169.624 554.144 173.413 559.597 178.646 572.676L188.04 595.677C189.234 598.971 189.68 601.089 191.916 603.359L192.337 604.709C193.24 603.034 189.343 594.536 188.547 592.555C183.756 580.627 179.766 568.557 173.129 557.356C163.614 541.297 143.376 497.711 135.718 480.118C124.247 453.765 124.686 452.505 128.237 427.627C132.6 397.065 118.762 379.359 125.573 357.335C128.085 349.213 127.682 345.541 128.619 338.605C130.855 338.55 132.429 338.854 134.44 338.272C147.164 334.592 151.448 323.957 148.792 313.053C146.721 304.554 146.555 307.135 144.073 302.671C163.402 309.828 171.7 336.499 173.021 355.136C174.124 370.706 171.474 386.333 175.275 400.366C175.872 402.569 179.212 411.873 182.65 412.143C190.661 409.609 213.703 327.04 215.006 311.67C215.826 302.001 216.309 290.924 216.033 281.716C214.98 246.585 216.713 250.803 219.481 219.149C220.63 206.013 222.156 166.259 233.219 156.338C228.022 168.955 226.197 183.468 241.089 188.704C257.229 194.38 260.213 179.694 262.989 166.318C265.344 176.558 261.706 197.583 260.352 210.11C258.67 225.681 260.181 238.208 260.415 253.06C260.641 267.475 258.553 282.096 259.128 296.431C259.417 303.641 259.48 310.349 260.509 317.486C261.198 322.268 262.186 333.912 265.939 337.277C266.932 333.71 265.455 334.575 264.72 330.99C264.337 329.123 264.198 327.916 263.921 326.053C263.363 322.3 263.179 318.894 262.787 315.293C267.688 312.78 271.798 305.118 284.384 308.56C300.398 312.938 306.419 332.917 311.82 346.679C321.026 370.14 321.711 365.146 337.281 371.338C360.095 380.411 357.173 390.755 363.163 397.348C369.221 404.017 386.982 412.769 387.652 426.014C387.99 432.701 385.673 435.027 387.435 437.195C389.601 435.594 389.089 428.185 389.001 425.593C388.541 412.063 372.393 403.952 365.398 397.392C361.959 394.166 362.475 390.364 360.68 387.009C358.837 383.566 355.904 379.87 352.376 377.003C343.076 369.447 336.553 369.914 326.656 365.761C329.976 359.124 332.327 351.423 335.565 344.461C342.043 330.534 340.197 324.475 331.745 310.832C324.677 299.424 321.643 302.382 324.413 296.819C331.016 302.116 341.183 304.626 346.258 300.38C351.1 296.329 352.044 284.756 352.932 279.037C354.77 267.206 355.331 268.633 352.436 258.448C350.915 253.096 346.741 246.006 341.142 241.225L355.927 193.645C364.91 193.637 384.826 173.612 371.338 159.947L367.84 155.852C367.862 155.595 367.055 155.561 366.954 155.387L382.29 102.45C387.092 86.3768 397.617 67.2337 381.429 54.5625C374.824 49.3926 337.99 39.637 327.666 36.5054L287.648 24.5344C279.174 21.9889 278.939 23.2365 276.559 19.8426C274.249 16.5479 267.249 16.2731 263.234 15.1069C252.473 11.9787 255.196 11.426 250.752 13.0721C245.007 15.2005 238.644 6.8162 226.208 10.3528C203.565 16.7931 203.661 57.9877 196.445 69.2702C192.546 75.3676 191.019 80.8331 188.929 87.9126C186.347 96.6589 191.968 90.9682 186.013 99.9347C184.401 102.361 180.013 118.32 179.803 120.392C179.488 123.492 181.295 122.09 180.137 126.215L168.776 158.651C168.594 158.595 168.094 158.247 167.89 158.186C167.048 157.933 166.696 158.347 165.655 158.142C160.014 157.031 153.335 165.337 149.792 169.015C131.133 188.38 107.574 189.657 96.6741 210.025C87.3797 227.393 79.5633 244.238 68.8556 260.928C61.9681 271.663 60.9596 273.953 58.0886 285.77C54.9993 298.487 39.8078 349.937 35.1929 359.586C22.6418 385.826 28.1207 381.52 6.6189 403.316C-4.56068 414.648 -15.9218 426.083 -27.1378 437.548L-59.5446 471.36Z" fill="#625B55"/>
<path fill-rule="evenodd" clip-rule="evenodd" d="M261.877 47.9853C263.54 45.5833 262.21 46.5729 270.353 49.0466L297.467 57.6321C303.379 59.4307 332.443 66.2085 334.364 69.094C332.632 71.5566 334.374 71.8206 326.309 69.3832L298.309 60.3329C293.268 58.7956 263.348 50.8449 261.877 47.9853ZM334.742 72.6805L336.599 69.1379C333.721 64.852 324.405 63.7219 318.848 62.0785L278.83 50.1079C271.793 47.97 262.15 43.4304 260.106 47.0558C256.958 52.6405 271.025 54.7334 274.694 55.8426C285.109 58.9906 330.597 73.1462 334.742 72.6805Z" fill="#625B55"/>
<path d="M222.317 127.343C232.724 130.532 235.949 127.221 237.088 123.502C238.454 119.041 236.077 116.132 228.62 113.586L224.795 112.414C221.103 111.178 221.285 110.215 221.556 109.33C221.82 108.469 221.998 107.374 225.966 108.589L226.923 108.882C231.201 110.193 230.985 112.388 230.825 113.216L238.474 115.559L238.767 114.603C239.839 111.099 239.129 107.393 229.342 104.394L226.474 103.515C217.244 100.687 214.053 103.094 212.951 106.693C211.904 110.113 212.868 113.727 220.463 116.316L224.288 117.488C228.394 118.903 228.534 120.697 228.19 121.821C227.861 122.898 227.049 123.563 222.824 122.269C218.514 120.948 218.927 118.186 219.214 116.979L210.609 114.343L210.317 115.299C209.434 118.181 209.462 123.404 220.404 126.757L222.317 127.343Z" fill="#5B5A5F"/>
<path d="M244.044 131.804L251.693 134.148L255.791 120.761L264.396 123.398L265.86 118.617L241 111L239.537 115.781L248.142 118.418L244.044 131.804Z" fill="#5B5A5F"/>
<path d="M274.186 126.125L282.791 128.761C284.502 129.286 284.672 129.449 284.41 130.303C284.14 131.187 283.592 132.144 281.913 131.63L273.308 128.993L274.186 126.125ZM272.137 132.818L278.829 134.869C281.814 135.783 283.073 138.087 282.439 140.158L281.854 142.071C281.697 142.581 281.439 142.775 281.561 143.027L289.21 145.37C289.114 144.997 289.405 144.734 289.795 143.458L290.674 140.589C291.392 138.244 289.646 135.614 287.357 134.344C288.939 134.485 292.5 134.624 293.308 131.984C294.213 129.029 291.931 126.332 286.167 124.566L268 119L262.438 137.168L270.087 139.511L272.137 132.818Z" fill="#5B5A5F"/>
<path d="M310.342 129.394C297.69 125.518 294.053 131.361 292.78 135.518L292.488 136.474C291.226 140.596 290.664 148.466 303.317 152.343L304.273 152.636C316.894 156.503 320.866 149.677 322.127 145.556L322.42 144.6C323.693 140.442 323.899 133.548 311.299 129.687L310.342 129.394ZM314.478 143.212C313.751 145.59 310.851 148.376 305.073 146.606C299.305 144.838 299.427 141.135 300.137 138.818C300.853 136.476 302.712 133.332 308.586 135.131C314.364 136.902 315.195 140.871 314.478 143.212Z" fill="#5B5A5F"/>
<path d="M328.912 157.683L336.561 160.027L338.61 153.333L352.64 145.082L344.035 142.445L336.249 147.381L332.562 138.93L323 136L330.961 150.99L328.912 157.683Z" fill="#5B5A5F"/>
<path d="M209.502 155.424L212.137 146.818L219.063 158.353L228.624 161.283L220.371 147.249L234.772 141.203L225.211 138.273L213.308 142.993L215.65 135.344L208 133L201.853 153.08L209.502 155.424Z" fill="#5B5A5F"/>
<path d="M237 142L232.317 157.299L235.551 154.386C236.28 153.729 237.087 153.164 237.953 152.704L238.532 152.397C239.766 151.741 241.098 151.289 242.476 151.058L242.6 151.037L242.23 148.832L245.098 149.71L246.708 149.576C249.15 149.373 251.594 149.944 253.693 151.209C253.894 151.33 254.109 151.426 254.334 151.494L255.908 151.977L257.079 148.152L237 142Z" fill="#5B5A5F"/>
<path d="M265.186 156.125L273.791 158.761C275.49 159.282 275.407 160.316 275.118 161.259C274.819 162.236 274.299 163.1 272.62 162.586L264.015 159.949L265.186 156.125ZM265.419 165.609L269.244 166.781C272.228 167.695 273.847 168.825 273.146 171.114L272.268 173.983C272.095 174.547 271.859 174.666 271.975 174.939L279.624 177.283C279.548 176.88 280.071 175.824 280.503 174.414L281.381 171.546C282.175 168.953 280.336 166.625 278.064 165.3C279.668 165.412 283.122 165.858 284.016 162.94L284.308 161.984C285.308 158.718 282.94 156.335 277.167 154.566L259 149L257.83 152.825C258.453 153.016 259.006 153.387 259.419 153.892L260.01 154.615C260.714 155.475 261.331 156.404 261.853 157.386L262.395 158.407L264.093 163.111L265.419 165.609Z" fill="#5B5A5F"/>
<path d="M253.64 80.0816L247.493 100.162C242.541 98.6445 238.253 95.4873 235.334 91.2093L229.015 81.9494L225.502 93.4236L217.853 91.08L224 71C228.952 72.5171 233.24 75.6743 236.159 79.9523L242.478 89.2122L245.991 77.7379L253.64 80.0816Z" fill="#5B5A5F"/>
<path d="M254.502 102.424L246.853 100.08L261.196 86.5973C263.223 84.6916 266.116 84.0185 268.777 84.8337C271.437 85.6489 273.457 87.8274 274.07 90.542L278.405 109.747L270.756 107.404L266.835 89.4682L254.502 102.424ZM260.5 96.1228L268.853 98.6991L269.793 103L257.5 99.2742L260.5 96.1228Z" fill="#5B5A5F"/>
</g>
<defs>
<clipPath id="clip0_284_28398">
<rect width="407" height="435" fill="white"/>
</clipPath>
</defs>
</svg>
