<svg width="484" height="132" viewBox="0 0 484 132" fill="none" xmlns="http://www.w3.org/2000/svg">
<path d="M448.5 11.5L369.5 7L292 14.5L270 38L299 101L334 124.5H401.5L426.5 102.5L446 75L448.5 11.5Z" fill="url(#paint0_linear_513_26398)"/>
<path d="M32 14.5L106.5 4.5L186 14.5L214.5 39.5L186 106.5L145 125L80 121L51.5 102.5L42 74L32 14.5Z" fill="url(#paint1_linear_513_26398)"/>
<mask id="path-3-inside-1_513_26398" fill="white">
<path fill-rule="evenodd" clip-rule="evenodd" d="M3.10386 13.1584C3.38088 14.088 3.66285 15.0342 3.93291 15.9645C5.18292 20.2704 6.43144 24.2724 6.89878 25.3738C8.4292 28.7439 10.4329 30.8377 13.9809 32.6061C17.5289 34.3745 18.9909 36.2056 18.9909 36.2056C20.5728 38.0979 22.5337 41.786 24.6796 46.6729C26.8409 51.5952 29.2323 57.8345 31.6569 64.9129L31.6581 64.9164C38.7086 85.7563 42.7664 94.6416 49.3369 103.666L49.34 103.67C61.7676 120.928 80.2036 128.751 114.231 130.761H114.233C138.408 132.227 161.918 126.89 177.785 116.41C193.652 105.93 209.326 72.0713 209.326 72.0713C211.896 66.8982 214.644 61.3203 215.425 59.5691C216.488 57.1223 218.242 53.9425 219.951 51.1907C220.809 49.8108 221.663 48.5252 222.424 47.4819C223.165 46.4666 223.871 45.6048 224.431 45.1358C227.295 42.7057 231.769 41.0877 236.556 40.3603C241.362 39.63 246.623 39.7756 251.145 40.9972C253.047 41.4912 255.222 42.4262 257.089 43.4641C258.914 44.479 260.61 45.6833 261.416 46.78C263.851 50.018 266.707 55.2786 273.007 67.8897L273.008 67.8904C279.588 81.0839 285.292 91.2889 290.436 99.0075C295.584 106.733 300.137 111.917 304.4 115.116L304.401 115.117C313.7 122.117 326.997 127.046 344.03 129.688L344.034 129.689C347.502 130.241 355.029 130.55 362.761 130.593C370.482 130.636 378.272 130.414 382.251 129.93C398.744 127.826 411.805 123.578 421.354 117.2C423.439 115.806 426.245 113.306 428.977 110.484C431.704 107.668 434.301 104.591 435.984 102.075L435.986 102.071C442.227 92.8365 445.993 84.3294 452.995 63.8312C455.42 56.6552 457.713 50.6707 459.791 46.0384C461.869 41.4061 468.347 33.5388 470.942 32.1271C473.537 30.7154 475.069 29.4731 476.486 26.8238C477.959 24.0698 479.301 19.8068 481.356 12.2796C482.369 8.53577 482.885 6.11739 482.983 4.48536C483.079 2.88611 482.762 2.25893 482.331 1.85783L482.326 1.85272C482.194 1.72815 482.081 1.64436 481.805 1.56177C481.476 1.46335 480.935 1.37495 479.944 1.30524C477.97 1.16641 474.504 1.11719 468.046 1.04318C460.462 0.944991 442.311 1.09232 427.806 1.43658L427.803 1.43665C413.291 1.73189 389.401 2.17474 374.741 2.42078C347.81 2.86331 340.894 3.30513 325.502 5.36411C308.647 7.67329 286.673 11.7016 274.526 14.6921C266.963 16.583 262.779 17.5929 258.939 18.1612C255.088 18.7312 251.598 18.8545 245.435 19.002H245.433C231.722 19.2991 226.701 18.7481 213.047 15.4814C191.127 10.2271 165.013 5.80657 142.899 3.64629L142.891 3.64537C137.862 3.11005 125.675 2.71628 106.457 2.42079C90.5624 2.17474 68.1511 1.73186 56.5974 1.43654C43.649 1.14153 30.5046 0.994053 20.3836 1.00018C15.322 1.00327 11.022 1.04475 7.88291 1.12518C7.38015 1.13806 6.97828 1.13481 6.61131 1.13183C5.83182 1.12552 5.20984 1.12048 4.11308 1.27408C2.5 1.5 1.00018 3.5 1.09082 5.26118C1.16186 6.64138 2.10032 9.79066 3.10386 13.1584ZM168.114 112.163C159.228 117.826 125.5 123.911 113.555 123.014C101.61 122.117 93.6921 120.468 86.1683 117.408C78.6445 114.348 71.5212 109.104 66.0843 103.684C60.6474 98.2638 56.8658 93.0265 53.6937 85.362C50.5216 77.6975 44.9808 52.7857 44.9808 52.7857C44.9808 52.7857 42.6432 40.1059 42.5928 35.3816C42.5682 32.9077 42.5904 31.3451 42.7628 30.1096C42.9416 28.8276 43.2785 27.9176 43.8176 26.7403C45.7036 22.5586 49.6355 19.1587 55.1578 16.5855C60.6878 14.0086 67.8992 12.218 76.5062 11.3005C84.763 10.4079 85.6587 10.36 110.921 10.5076C129.651 10.6059 136.925 10.8014 142.13 11.4498C160.237 13.6139 172.394 15.647 183.406 20.5862C184.215 20.9426 185.236 21.5913 186.097 22.1783C186.097 22.1783 187.298 22.8411 188.502 23.9593C189.706 25.0775 197.722 32.5372 200.722 35.8077L202.261 37.3419C202.672 37.751 202.885 38.3183 202.845 38.8966C202.845 38.8966 202.714 41.2278 202.58 42.7176C201.574 53.9305 199.403 60.4435 195.661 70.7029C191.919 80.9623 187.099 91.2147 182.326 98.3645L182.043 98.7884C177.527 105.556 176.821 106.614 168.114 112.163ZM418.914 103.241C427.803 93.5001 428.927 90.9402 432.132 81.8054C434.031 76.4 436.436 66.6395 438.368 57.2902C440.294 47.9703 441.786 38.896 441.813 34.8902C441.835 31.7036 440.814 29.8434 439.898 28.1755C439.663 27.7467 439.435 27.3307 439.233 26.9081C438.246 24.8415 437.09 23.4763 435.334 21.5942C429.049 14.8566 418.868 13.568 412.511 12.7634C411.787 12.6718 411.113 12.5864 410.5 12.5001C405.959 11.8605 403 11.5001 397.5 11.5001L378.5 11.0001C378.5 11.0001 353.702 11.3648 338 13.5001C323.581 15.4609 301.5 21.0001 301.5 21.0001C299.97 21.5554 298.973 22.0001 297.914 22.6881C296.855 23.3761 294.042 25.3085 291.802 27.2839C291.216 27.8009 290.712 28.2894 290.253 28.7344C289.968 29.0106 289.7 29.2701 289.441 29.5093C287.968 30.8655 286.82 31.923 284.741 34.3493C283.871 35.3635 282.488 36.998 281.921 37.6692L281.865 37.7351L281.808 37.8023C281.51 38.1507 281.19 38.5243 281 39.0001C280.048 41.3801 280.071 41.4943 281.736 49.6965L281.804 50.0314L282 51.0001C283.924 60.5001 288.708 72.3548 293.228 82.2878C297.739 92.2024 302.992 100.801 308.073 105.942C318.854 116.889 338.913 123.214 361.894 123.165C384.875 123.116 396.5 118 396.5 118C396.5 118 410.025 112.982 418.914 103.241Z"/>
</mask>
<path fill-rule="evenodd" clip-rule="evenodd" d="M3.10386 13.1584C3.38088 14.088 3.66285 15.0342 3.93291 15.9645C5.18292 20.2704 6.43144 24.2724 6.89878 25.3738C8.4292 28.7439 10.4329 30.8377 13.9809 32.6061C17.5289 34.3745 18.9909 36.2056 18.9909 36.2056C20.5728 38.0979 22.5337 41.786 24.6796 46.6729C26.8409 51.5952 29.2323 57.8345 31.6569 64.9129L31.6581 64.9164C38.7086 85.7563 42.7664 94.6416 49.3369 103.666L49.34 103.67C61.7676 120.928 80.2036 128.751 114.231 130.761H114.233C138.408 132.227 161.918 126.89 177.785 116.41C193.652 105.93 209.326 72.0713 209.326 72.0713C211.896 66.8982 214.644 61.3203 215.425 59.5691C216.488 57.1223 218.242 53.9425 219.951 51.1907C220.809 49.8108 221.663 48.5252 222.424 47.4819C223.165 46.4666 223.871 45.6048 224.431 45.1358C227.295 42.7057 231.769 41.0877 236.556 40.3603C241.362 39.63 246.623 39.7756 251.145 40.9972C253.047 41.4912 255.222 42.4262 257.089 43.4641C258.914 44.479 260.61 45.6833 261.416 46.78C263.851 50.018 266.707 55.2786 273.007 67.8897L273.008 67.8904C279.588 81.0839 285.292 91.2889 290.436 99.0075C295.584 106.733 300.137 111.917 304.4 115.116L304.401 115.117C313.7 122.117 326.997 127.046 344.03 129.688L344.034 129.689C347.502 130.241 355.029 130.55 362.761 130.593C370.482 130.636 378.272 130.414 382.251 129.93C398.744 127.826 411.805 123.578 421.354 117.2C423.439 115.806 426.245 113.306 428.977 110.484C431.704 107.668 434.301 104.591 435.984 102.075L435.986 102.071C442.227 92.8365 445.993 84.3294 452.995 63.8312C455.42 56.6552 457.713 50.6707 459.791 46.0384C461.869 41.4061 468.347 33.5388 470.942 32.1271C473.537 30.7154 475.069 29.4731 476.486 26.8238C477.959 24.0698 479.301 19.8068 481.356 12.2796C482.369 8.53577 482.885 6.11739 482.983 4.48536C483.079 2.88611 482.762 2.25893 482.331 1.85783L482.326 1.85272C482.194 1.72815 482.081 1.64436 481.805 1.56177C481.476 1.46335 480.935 1.37495 479.944 1.30524C477.97 1.16641 474.504 1.11719 468.046 1.04318C460.462 0.944991 442.311 1.09232 427.806 1.43658L427.803 1.43665C413.291 1.73189 389.401 2.17474 374.741 2.42078C347.81 2.86331 340.894 3.30513 325.502 5.36411C308.647 7.67329 286.673 11.7016 274.526 14.6921C266.963 16.583 262.779 17.5929 258.939 18.1612C255.088 18.7312 251.598 18.8545 245.435 19.002H245.433C231.722 19.2991 226.701 18.7481 213.047 15.4814C191.127 10.2271 165.013 5.80657 142.899 3.64629L142.891 3.64537C137.862 3.11005 125.675 2.71628 106.457 2.42079C90.5624 2.17474 68.1511 1.73186 56.5974 1.43654C43.649 1.14153 30.5046 0.994053 20.3836 1.00018C15.322 1.00327 11.022 1.04475 7.88291 1.12518C7.38015 1.13806 6.97828 1.13481 6.61131 1.13183C5.83182 1.12552 5.20984 1.12048 4.11308 1.27408C2.5 1.5 1.00018 3.5 1.09082 5.26118C1.16186 6.64138 2.10032 9.79066 3.10386 13.1584ZM168.114 112.163C159.228 117.826 125.5 123.911 113.555 123.014C101.61 122.117 93.6921 120.468 86.1683 117.408C78.6445 114.348 71.5212 109.104 66.0843 103.684C60.6474 98.2638 56.8658 93.0265 53.6937 85.362C50.5216 77.6975 44.9808 52.7857 44.9808 52.7857C44.9808 52.7857 42.6432 40.1059 42.5928 35.3816C42.5682 32.9077 42.5904 31.3451 42.7628 30.1096C42.9416 28.8276 43.2785 27.9176 43.8176 26.7403C45.7036 22.5586 49.6355 19.1587 55.1578 16.5855C60.6878 14.0086 67.8992 12.218 76.5062 11.3005C84.763 10.4079 85.6587 10.36 110.921 10.5076C129.651 10.6059 136.925 10.8014 142.13 11.4498C160.237 13.6139 172.394 15.647 183.406 20.5862C184.215 20.9426 185.236 21.5913 186.097 22.1783C186.097 22.1783 187.298 22.8411 188.502 23.9593C189.706 25.0775 197.722 32.5372 200.722 35.8077L202.261 37.3419C202.672 37.751 202.885 38.3183 202.845 38.8966C202.845 38.8966 202.714 41.2278 202.58 42.7176C201.574 53.9305 199.403 60.4435 195.661 70.7029C191.919 80.9623 187.099 91.2147 182.326 98.3645L182.043 98.7884C177.527 105.556 176.821 106.614 168.114 112.163ZM418.914 103.241C427.803 93.5001 428.927 90.9402 432.132 81.8054C434.031 76.4 436.436 66.6395 438.368 57.2902C440.294 47.9703 441.786 38.896 441.813 34.8902C441.835 31.7036 440.814 29.8434 439.898 28.1755C439.663 27.7467 439.435 27.3307 439.233 26.9081C438.246 24.8415 437.09 23.4763 435.334 21.5942C429.049 14.8566 418.868 13.568 412.511 12.7634C411.787 12.6718 411.113 12.5864 410.5 12.5001C405.959 11.8605 403 11.5001 397.5 11.5001L378.5 11.0001C378.5 11.0001 353.702 11.3648 338 13.5001C323.581 15.4609 301.5 21.0001 301.5 21.0001C299.97 21.5554 298.973 22.0001 297.914 22.6881C296.855 23.3761 294.042 25.3085 291.802 27.2839C291.216 27.8009 290.712 28.2894 290.253 28.7344C289.968 29.0106 289.7 29.2701 289.441 29.5093C287.968 30.8655 286.82 31.923 284.741 34.3493C283.871 35.3635 282.488 36.998 281.921 37.6692L281.865 37.7351L281.808 37.8023C281.51 38.1507 281.19 38.5243 281 39.0001C280.048 41.3801 280.071 41.4943 281.736 49.6965L281.804 50.0314L282 51.0001C283.924 60.5001 288.708 72.3548 293.228 82.2878C297.739 92.2024 302.992 100.801 308.073 105.942C318.854 116.889 338.913 123.214 361.894 123.165C384.875 123.116 396.5 118 396.5 118C396.5 118 410.025 112.982 418.914 103.241Z" fill="#282828"/>
<path d="M432.132 81.8053L431.189 81.4738L431.188 81.4742L432.132 81.8053ZM438.368 57.2901L437.389 57.0877V57.0877L438.368 57.2901ZM441.813 34.8901L442.813 34.8968L441.813 34.8901ZM439.233 26.908L438.331 27.339L439.233 26.908ZM435.334 21.5941L436.065 20.912L436.065 20.912L435.334 21.5941ZM412.511 12.7633L412.637 11.7712L412.511 12.7633ZM410.5 12.5L410.64 11.5098L410.64 11.5098L410.5 12.5ZM397.5 11.5L397.474 12.4997L397.487 12.5H397.5V11.5ZM308.073 105.942L308.786 105.24L308.784 105.239L308.073 105.942ZM293.228 82.2877L294.138 81.8736L294.138 81.8735L293.228 82.2877ZM282 51L282.98 50.8015V50.8015L282 51ZM281 39L280.072 38.6286V38.6286L281 39ZM281.807 37.8025L281.048 37.1525L281.047 37.1526L281.807 37.8025ZM281.921 37.6691L282.685 38.3145L282.685 38.3144L281.921 37.6691ZM284.741 34.3492L285.5 35.0003L285.5 34.9999L284.741 34.3492ZM289.441 29.5092L290.118 30.2449L290.119 30.2443L289.441 29.5092ZM290.253 28.7344L290.949 29.4523V29.4523L290.253 28.7344ZM291.802 27.2838L291.141 26.5338V26.5338L291.802 27.2838ZM168.114 112.163L167.577 111.32L168.114 112.163ZM66.0844 103.684L66.7904 102.976L66.0844 103.684ZM44.9809 52.7856L43.9975 52.9669L44.0008 52.9849L44.0047 53.0027L44.9809 52.7856ZM42.5929 35.3815L41.5929 35.3914L41.5929 35.3922L42.5929 35.3815ZM42.7629 30.1095L43.7533 30.2477L43.7533 30.2476L42.7629 30.1095ZM43.8177 26.7402L44.7269 27.1565L44.7293 27.1513L43.8177 26.7402ZM55.1579 16.5854L55.5803 17.4918L55.5803 17.4918L55.1579 16.5854ZM76.5063 11.3004L76.6123 12.2948L76.6137 12.2946L76.5063 11.3004ZM110.921 10.5075L110.915 11.5075L110.916 11.5075L110.921 10.5075ZM142.13 11.4497L142.006 12.442L142.011 12.4426L142.13 11.4497ZM183.406 20.5861L182.997 21.4985L183.003 21.5012L183.406 20.5861ZM186.097 22.1782L185.534 23.0044L185.573 23.031L185.614 23.0537L186.097 22.1782ZM200.722 35.8076L199.985 36.4836L200 36.5L200.016 36.5158L200.722 35.8076ZM202.261 37.3418L201.555 38.05L201.556 38.0505L202.261 37.3418ZM202.845 38.8965L201.847 38.8275L201.847 38.8403L202.845 38.8965ZM202.58 42.7175L201.584 42.6281V42.6281L202.58 42.7175ZM182.326 98.3644L183.158 98.9197L183.158 98.9196L182.326 98.3644ZM378.5 11L378.526 10.0003L378.506 9.99981L378.485 10.0001L378.5 11ZM439.899 28.1755L439.022 28.6565V28.6565L439.899 28.1755ZM301.5 21L301.257 20.0301L301.207 20.0425L301.159 20.06L301.5 21ZM396.5 118L396.152 117.062L396.124 117.073L396.097 117.085L396.5 118ZM281.736 49.6965L280.756 49.8954V49.8954L281.736 49.6965ZM338 13.5L337.865 12.5091L338 13.5ZM182.043 98.7882L181.211 98.2331L181.211 98.2332L182.043 98.7882ZM419.653 103.915C424.103 99.038 426.665 95.9004 428.513 92.8089C430.364 89.7114 431.475 86.6973 433.076 82.1364L431.188 81.4742C429.584 86.0481 428.53 88.8813 426.796 91.7828C425.059 94.6901 422.614 97.703 418.175 102.567L419.653 103.915ZM433.076 82.1367C434.998 76.6644 437.414 66.8488 439.347 57.4925L437.389 57.0877C435.458 66.43 433.064 76.1353 431.189 81.4738L433.076 82.1367ZM439.347 57.4925C441.27 48.191 442.785 39.0186 442.813 34.8968L440.813 34.8834C440.787 38.7732 439.319 47.7494 437.389 57.0877L439.347 57.4925ZM440.135 26.477C439.08 24.2677 437.837 22.8116 436.065 20.912L434.603 22.2762C436.342 24.1409 437.412 25.4151 438.331 27.339L440.135 26.477ZM436.065 20.912C432.761 17.3694 428.464 15.292 424.243 13.9978C420.024 12.7042 415.808 12.1727 412.637 11.7712L412.386 13.7554C415.571 14.1586 419.625 14.6737 423.657 15.91C427.687 17.1456 431.623 19.0813 434.603 22.2762L436.065 20.912ZM412.637 11.7712C411.911 11.6794 411.245 11.595 410.64 11.5098L410.361 13.4902C410.982 13.5778 411.664 13.664 412.386 13.7554L412.637 11.7712ZM410.64 11.5098C406.074 10.8668 403.065 10.5 397.5 10.5V12.5C402.935 12.5 405.844 12.854 410.361 13.4902L410.64 11.5098ZM361.892 122.165C339.041 122.214 319.299 115.916 308.786 105.24L307.361 106.644C318.409 117.862 338.785 124.214 361.896 124.165L361.892 122.165ZM308.784 105.239C303.824 100.22 298.63 91.7449 294.138 81.8736L292.318 82.7018C296.849 92.6597 302.16 101.382 307.362 106.645L308.784 105.239ZM294.138 81.8735C289.622 71.9489 284.88 60.1822 282.98 50.8015L281.02 51.1985C282.968 60.8178 287.794 72.7605 292.318 82.7019L294.138 81.8735ZM281.929 39.3714C282.048 39.0719 282.256 38.8169 282.568 38.4523L281.047 37.1526C280.764 37.4846 280.332 37.9768 280.072 38.6286L281.929 39.3714ZM282.567 38.4524C282.605 38.408 282.645 38.3613 282.685 38.3145L281.157 37.0237C281.122 37.0652 281.086 37.1073 281.048 37.1525L282.567 38.4524ZM282.685 38.3144C283.252 37.643 284.633 36.0112 285.5 35.0003L283.982 33.6981C283.109 34.7156 281.724 36.3528 281.157 37.0238L282.685 38.3144ZM285.5 34.9999C287.543 32.6157 288.66 31.5881 290.118 30.2449L288.764 28.7735C287.277 30.1427 286.097 31.2301 283.982 33.6985L285.5 34.9999ZM290.119 30.2443C290.389 29.9952 290.666 29.7266 290.949 29.4523L289.557 28.0164C289.27 28.2946 289.012 28.545 288.763 28.7741L290.119 30.2443ZM290.949 29.4523C291.409 29.0063 291.897 28.5333 292.464 28.0338L291.141 26.5338C290.534 27.0685 290.015 27.5724 289.557 28.0164L290.949 29.4523ZM292.464 28.0338C294.651 26.1047 297.418 24.2026 298.459 23.5265L297.369 21.8495C296.292 22.5494 293.433 24.5122 291.141 26.5338L292.464 28.0338ZM167.577 111.32C165.482 112.654 161.825 114.065 157.238 115.414C152.678 116.756 147.289 118.012 141.793 119.066C130.767 121.182 119.46 122.455 113.63 122.017L113.48 124.011C119.594 124.47 131.125 123.149 142.17 121.031C147.711 119.968 153.166 118.697 157.802 117.333C162.411 115.977 166.303 114.503 168.651 113.006L167.577 111.32ZM66.7904 102.976C61.4351 97.6369 57.7334 92.5076 54.6178 84.9795L52.7698 85.7443C55.9984 93.5452 59.8598 98.8905 65.3783 104.392L66.7904 102.976ZM44.9809 52.7856C45.9643 52.6043 45.9643 52.6043 45.9643 52.6042C45.9643 52.6041 45.9643 52.604 45.9642 52.6038C45.9642 52.6035 45.9641 52.603 45.9639 52.6022C45.9637 52.6008 45.9633 52.5986 45.9627 52.5956C45.9616 52.5896 45.96 52.5807 45.9578 52.5688C45.9534 52.545 45.9469 52.5094 45.9384 52.4628C45.9214 52.3695 45.8964 52.2317 45.8646 52.0545C45.8008 51.7002 45.7096 51.1882 45.6 50.5589C45.3807 49.3001 45.0879 47.5732 44.7937 45.7C44.2005 41.9235 43.6171 37.6469 43.5928 35.3708L41.5929 35.3922C41.6191 37.8404 42.2297 42.2658 42.8179 46.0103C43.1144 47.8976 43.4091 49.6359 43.6297 50.9022C43.74 51.5355 43.8318 52.051 43.8961 52.4086C43.9283 52.5873 43.9536 52.7266 43.9708 52.8213C43.9795 52.8687 43.9861 52.9049 43.9906 52.9294C43.9928 52.9416 43.9945 52.9509 43.9957 52.9572C43.9963 52.9603 43.9967 52.9627 43.997 52.9644C43.9971 52.9652 43.9973 52.9658 43.9973 52.9662C43.9974 52.9664 43.9974 52.9666 43.9974 52.9667C43.9975 52.9668 43.9975 52.9669 44.9809 52.7856ZM43.5928 35.3716C43.5681 32.887 43.5928 31.3978 43.7533 30.2477L41.7725 29.9713C41.5882 31.2922 41.5684 32.9282 41.5929 35.3914L43.5928 35.3716ZM43.7533 30.2476C43.9136 29.0982 44.2094 28.2867 44.7269 27.1565L42.9085 26.3239C42.3478 27.5483 41.9698 28.5568 41.7725 29.9714L43.7533 30.2476ZM44.7293 27.1513C46.4818 23.2656 50.183 20.0068 55.5803 17.4918L54.7355 15.679C49.0882 18.3104 44.9256 21.8514 42.9061 26.3291L44.7293 27.1513ZM55.5803 17.4918C60.9787 14.9762 68.0736 13.205 76.6123 12.2948L76.4003 10.306C67.7249 11.2308 60.3971 13.0408 54.7355 15.679L55.5803 17.4918ZM76.6137 12.2946C84.8055 11.409 85.6459 11.3598 110.915 11.5075L110.927 9.50752C85.6716 9.35996 84.7206 9.40656 76.3988 10.3062L76.6137 12.2946ZM110.916 11.5075C129.667 11.6059 136.873 11.8026 142.006 12.442L142.254 10.4574C136.977 9.8 129.635 9.60571 110.926 9.50752L110.916 11.5075ZM142.011 12.4426C160.122 14.6072 172.139 16.6287 182.997 21.4985L183.815 19.6737C172.649 14.6651 160.352 12.6204 142.249 10.4568L142.011 12.4426ZM183.003 21.5012C183.72 21.8172 184.675 22.419 185.534 23.0044L186.66 21.352C185.797 20.7634 184.71 20.0678 183.809 19.671L183.003 21.5012ZM187.821 24.6919C189.04 25.8241 197.019 33.2502 199.985 36.4836L201.459 35.1316C198.425 31.824 190.371 24.3307 189.183 23.2265L187.821 24.6919ZM200.016 36.5158L201.555 38.05L202.967 36.6336L201.428 35.0994L200.016 36.5158ZM201.556 38.0505C201.761 38.255 201.867 38.5385 201.847 38.8275L203.843 38.9655C203.903 38.0979 203.583 37.2468 202.966 36.6331L201.556 38.0505ZM202.845 38.8965C201.847 38.8403 201.847 38.8403 201.847 38.8403C201.847 38.8403 201.847 38.8403 201.847 38.8403C201.847 38.8404 201.847 38.8405 201.847 38.8406C201.847 38.8409 201.847 38.8412 201.846 38.8418C201.846 38.8429 201.846 38.8445 201.846 38.8466C201.846 38.851 201.846 38.8575 201.845 38.8661C201.844 38.8833 201.843 38.9088 201.841 38.9419C201.837 39.008 201.831 39.1043 201.824 39.2246C201.81 39.4652 201.789 39.8015 201.765 40.184C201.715 40.9515 201.65 41.8964 201.584 42.6281L203.576 42.8069C203.644 42.0488 203.711 41.0832 203.761 40.3126C203.785 39.9261 203.806 39.5865 203.821 39.3435C203.828 39.2219 203.834 39.1245 203.837 39.0573C203.839 39.0237 203.841 38.9977 203.842 38.98C203.842 38.9711 203.843 38.9644 203.843 38.9598C203.843 38.9575 203.843 38.9558 203.843 38.9546C203.843 38.954 203.843 38.9536 203.843 38.9533C203.843 38.9531 203.843 38.953 203.843 38.9529C203.843 38.9529 203.843 38.9528 203.843 38.9528C203.843 38.9528 203.843 38.9528 202.845 38.8965ZM194.722 70.3601C190.995 80.5758 186.208 90.7486 181.494 97.8092L183.158 98.9196C187.99 91.6806 192.843 81.3485 196.6 71.0455L194.722 70.3601ZM378.474 11.9997L397.474 12.4997L397.526 10.5003L378.526 10.0003L378.474 11.9997ZM438.331 27.339C438.547 27.7914 438.789 28.2323 439.022 28.6565L440.775 27.6944C440.537 27.2611 440.323 26.8699 440.135 26.477L438.331 27.339ZM439.022 28.6565C439.918 30.2899 440.833 31.9625 440.813 34.8834L442.813 34.8968C442.836 31.4445 441.709 29.3968 440.775 27.6944L439.022 28.6565ZM298.459 23.5265C299.427 22.8972 300.345 22.483 301.841 21.94L301.159 20.06C299.595 20.6276 298.518 21.1028 297.369 21.8495L298.459 23.5265ZM361.896 124.165C373.461 124.14 382.185 122.841 388.032 121.54C390.955 120.89 393.159 120.24 394.639 119.749C395.379 119.504 395.938 119.299 396.316 119.153C396.504 119.08 396.648 119.022 396.746 118.982C396.795 118.962 396.832 118.946 396.858 118.934C396.871 118.929 396.882 118.924 396.889 118.921C396.893 118.92 396.896 118.918 396.898 118.917C396.899 118.917 396.9 118.916 396.901 118.916C396.901 118.916 396.902 118.916 396.902 118.916C396.903 118.915 396.903 118.915 396.5 118C396.097 117.085 396.098 117.085 396.098 117.084C396.098 117.084 396.098 117.084 396.098 117.084C396.098 117.084 396.098 117.084 396.098 117.085C396.097 117.085 396.096 117.085 396.094 117.086C396.09 117.088 396.083 117.091 396.074 117.095C396.055 117.103 396.024 117.116 395.982 117.133C395.899 117.168 395.77 117.22 395.596 117.287C395.248 117.421 394.719 117.616 394.01 117.851C392.592 118.321 390.453 118.953 387.598 119.588C381.887 120.858 373.308 122.141 361.892 122.165L361.896 124.165ZM396.5 118C396.848 118.938 396.848 118.937 396.848 118.937C396.849 118.937 396.849 118.937 396.849 118.937C396.85 118.937 396.851 118.936 396.852 118.936C396.854 118.935 396.857 118.934 396.861 118.933C396.868 118.93 396.879 118.926 396.893 118.921C396.921 118.91 396.962 118.894 397.015 118.874C397.12 118.833 397.275 118.773 397.473 118.693C397.869 118.533 398.443 118.294 399.157 117.978C400.585 117.346 402.58 116.402 404.856 115.149C409.397 112.65 415.105 108.898 419.653 103.915L418.175 102.567C413.834 107.324 408.335 110.952 403.892 113.397C401.675 114.617 399.733 115.536 398.348 116.149C397.655 116.456 397.102 116.686 396.724 116.838C396.536 116.914 396.39 116.971 396.294 117.009C396.245 117.027 396.209 117.041 396.185 117.05C396.173 117.055 396.164 117.058 396.159 117.06C396.156 117.061 396.154 117.062 396.153 117.062C396.153 117.062 396.152 117.062 396.152 117.063C396.152 117.063 396.152 117.063 396.152 117.063C396.152 117.062 396.152 117.062 396.5 118ZM280.072 38.6286C279.838 39.2123 279.629 39.7392 279.503 40.3041C279.372 40.8913 279.337 41.4846 279.389 42.2349C279.49 43.6696 279.932 45.8356 280.756 49.8954L282.716 49.4976C281.875 45.3551 281.473 43.3629 281.384 42.0949C281.342 41.4939 281.375 41.0997 281.455 40.7398C281.541 40.3575 281.686 39.9777 281.929 39.3714L280.072 38.6286ZM280.756 49.8954C280.84 50.3089 280.928 50.7428 281.02 51.1985L282.98 50.8015C282.888 50.3453 282.8 49.9111 282.716 49.4976L280.756 49.8954ZM301.5 21C301.743 21.9699 301.743 21.9699 301.744 21.9699C301.744 21.9699 301.744 21.9698 301.744 21.9697C301.745 21.9696 301.746 21.9693 301.747 21.969C301.75 21.9684 301.754 21.9674 301.759 21.9661C301.769 21.9634 301.785 21.9595 301.806 21.9543C301.848 21.9438 301.91 21.9282 301.993 21.9078C302.157 21.867 302.401 21.8067 302.716 21.7293C303.346 21.5744 304.263 21.3508 305.409 21.0764C307.7 20.5274 310.905 19.775 314.56 18.9614C321.878 17.3327 330.969 15.4654 338.135 14.4909L337.865 12.5091C330.612 13.4955 321.453 15.3782 314.126 17.0092C310.458 17.8256 307.242 18.5805 304.943 19.1314C303.793 19.4069 302.872 19.6313 302.238 19.7871C301.922 19.8649 301.677 19.9256 301.51 19.9668C301.427 19.9874 301.364 20.0032 301.322 20.0138C301.3 20.0191 301.284 20.0232 301.273 20.0259C301.268 20.0273 301.264 20.0283 301.261 20.029C301.26 20.0293 301.259 20.0296 301.258 20.0298C301.258 20.0299 301.257 20.0299 301.257 20.03C301.257 20.03 301.257 20.0301 301.5 21ZM338.135 14.4909C345.938 13.4297 356.025 12.8061 364.182 12.4483C368.256 12.2696 371.841 12.1574 374.406 12.09C375.689 12.0563 376.717 12.0337 377.424 12.0196C377.777 12.0126 378.05 12.0076 378.235 12.0045C378.327 12.0029 378.397 12.0017 378.444 12.001C378.468 12.0006 378.486 12.0003 378.497 12.0002C378.503 12.0001 378.508 12 378.511 12C378.512 11.9999 378.513 11.9999 378.514 11.9999C378.514 11.9999 378.514 11.9999 378.515 11.9999C378.515 11.9999 378.515 11.9999 378.5 11C378.485 10.0001 378.485 10.0001 378.485 10.0001C378.485 10.0001 378.484 10.0001 378.484 10.0001C378.483 10.0001 378.482 10.0002 378.481 10.0002C378.477 10.0002 378.473 10.0003 378.467 10.0004C378.455 10.0006 378.436 10.0009 378.413 10.0012C378.365 10.002 378.294 10.0032 378.201 10.0048C378.014 10.008 377.739 10.0129 377.384 10.02C376.673 10.0342 375.641 10.0569 374.354 10.0907C371.779 10.1584 368.183 10.2709 364.094 10.4502C355.927 10.8086 345.764 11.435 337.865 12.5091L338.135 14.4909ZM113.63 122.017C101.748 121.125 93.9408 119.49 86.5451 116.482L85.7916 118.334C93.4436 121.446 101.472 123.11 113.48 124.011L113.63 122.017ZM44.9809 52.7856C44.0047 53.0027 44.0048 53.0028 44.0048 53.0031C44.0049 53.0033 44.0049 53.0036 44.005 53.004C44.0052 53.0048 44.0055 53.0059 44.0058 53.0075C44.0065 53.0106 44.0075 53.0152 44.0089 53.0212C44.0116 53.0334 44.0156 53.0515 44.0209 53.0753C44.0316 53.123 44.0474 53.1937 44.0681 53.2862C44.1096 53.4711 44.1709 53.7432 44.2499 54.0919C44.4079 54.7895 44.6371 55.7942 44.922 57.0236C45.4918 59.4822 46.2848 62.8409 47.1772 66.4402C48.9536 73.6047 51.1493 81.8287 52.7698 85.7443L54.6178 84.9795C53.0662 81.2306 50.9055 73.1665 49.1184 65.9589C48.2291 62.3723 47.4386 59.024 46.8704 56.5721C46.5863 55.3462 46.3578 54.3448 46.2005 53.6501C46.1218 53.3027 46.0608 53.032 46.0196 52.8483C45.999 52.7565 45.9833 52.6864 45.9728 52.6393C45.9676 52.6158 45.9636 52.598 45.961 52.5861C45.9596 52.5802 45.9587 52.5758 45.958 52.5728C45.9577 52.5713 45.9574 52.5702 45.9573 52.5695C45.9572 52.5692 45.9571 52.5689 45.9571 52.5687C45.9571 52.5686 45.957 52.5685 44.9809 52.7856ZM189.183 23.2265C188.533 22.6236 187.889 22.147 187.409 21.8216C187.168 21.6582 186.966 21.5313 186.822 21.444C186.75 21.4003 186.692 21.3664 186.651 21.3427C186.63 21.3309 186.614 21.3216 186.602 21.3149C186.596 21.3116 186.591 21.3089 186.588 21.3068C186.586 21.3058 186.584 21.305 186.583 21.3043C186.582 21.3039 186.582 21.3036 186.581 21.3034C186.581 21.3032 186.581 21.3031 186.581 21.303C186.581 21.3029 186.58 21.3029 186.58 21.3028C186.58 21.3028 186.58 21.3027 186.097 22.1782C185.614 23.0537 185.614 23.0537 185.614 23.0536C185.614 23.0536 185.613 23.0535 185.613 23.0535C185.613 23.0534 185.613 23.0534 185.613 23.0533C185.613 23.0532 185.613 23.0531 185.613 23.0531C185.613 23.0531 185.613 23.0532 185.613 23.0534C185.614 23.054 185.616 23.0551 185.619 23.0569C185.626 23.0605 185.636 23.0665 185.651 23.075C185.681 23.092 185.726 23.1186 185.785 23.1545C185.904 23.2264 186.077 23.3351 186.287 23.4772C186.708 23.7627 187.267 24.1766 187.821 24.6919L189.183 23.2265ZM181.494 97.8092C181.398 97.953 181.304 98.0943 181.211 98.2331L182.875 99.3433C182.968 99.2044 183.062 99.0633 183.158 98.9197L181.494 97.8092ZM181.211 98.2332C178.938 101.64 177.69 103.502 175.948 105.22C174.204 106.941 171.935 108.542 167.577 111.32L168.651 113.006C173.001 110.235 175.439 108.532 177.353 106.645C179.269 104.754 180.632 102.704 182.875 99.3433L181.211 98.2332ZM65.3783 104.392C70.8852 109.882 78.1165 115.213 85.7916 118.334L86.5451 116.482C79.1726 113.483 72.1573 108.326 66.7904 102.976L65.3783 104.392ZM201.584 42.6281C200.59 53.7111 198.454 60.1274 194.722 70.3601L196.6 71.0455C200.352 60.7594 202.558 54.1499 203.576 42.8069L201.584 42.6281ZM3.93291 15.9645L2.01221 16.5221L2.01221 16.5221L3.93291 15.9645ZM3.10386 13.1584L1.18715 13.7295L3.10386 13.1584ZM6.89878 25.3738L5.05767 26.155L5.06743 26.178L5.07776 26.2008L6.89878 25.3738ZM13.9809 32.6061L13.0887 34.3961L13.9809 32.6061ZM18.9909 36.2056L17.428 37.4535L17.442 37.4711L17.4564 37.4884L18.9909 36.2056ZM24.6796 46.6729L26.5108 45.8688L26.5108 45.8688L24.6796 46.6729ZM31.6569 64.9129L29.7648 65.561L29.7653 65.5624L31.6569 64.9129ZM31.6581 64.9164L33.5526 64.2754L33.5497 64.2669L31.6581 64.9164ZM49.3369 103.666L47.72 104.843L47.738 104.868L47.7566 104.892L49.3369 103.666ZM49.34 103.67L50.963 102.501L50.9421 102.472L50.9202 102.444L49.34 103.67ZM114.231 130.761L114.113 132.758L114.172 132.761H114.231V130.761ZM114.233 130.761L114.354 128.765L114.294 128.761H114.233V130.761ZM209.326 72.0713L207.535 71.1815L207.523 71.2061L207.511 71.2311L209.326 72.0713ZM215.425 59.5691L217.252 60.3837L217.256 60.3749L217.259 60.366L215.425 59.5691ZM219.951 51.1907L218.253 50.1346L218.252 50.1355L219.951 51.1907ZM222.424 47.4819L220.808 46.3029L220.808 46.3033L222.424 47.4819ZM224.431 45.1358L225.715 46.6691L225.725 46.6608L224.431 45.1358ZM236.556 40.3603L236.856 42.3376L236.556 40.3603ZM251.145 40.9972L250.623 42.928L250.633 42.9305L250.642 42.933L251.145 40.9972ZM257.089 43.4641L258.061 41.7162L258.061 41.7161L257.089 43.4641ZM261.416 46.78L259.805 47.9644L259.811 47.9733L259.818 47.9821L261.416 46.78ZM273.007 67.8897L271.218 68.7835L271.446 69.2392L271.863 69.5305L273.007 67.8897ZM273.008 67.8904L274.798 66.9978L274.57 66.5413L274.152 66.2496L273.008 67.8904ZM290.436 99.0075L292.1 97.8984L292.1 97.8984L290.436 99.0075ZM304.4 115.116L305.809 113.696L305.711 113.599L305.6 113.516L304.4 115.116ZM304.401 115.117L302.992 116.537L303.089 116.633L303.198 116.715L304.401 115.117ZM344.03 129.688L344.512 127.747L344.425 127.725L344.337 127.712L344.03 129.688ZM344.034 129.689L343.552 131.63L343.635 131.651L343.72 131.664L344.034 129.689ZM362.761 130.593L362.772 128.593H362.772L362.761 130.593ZM382.251 129.93L382.493 131.915L382.504 131.914L382.251 129.93ZM421.354 117.2L422.465 118.863L422.466 118.863L421.354 117.2ZM428.977 110.484L427.54 109.093L427.54 109.093L428.977 110.484ZM435.984 102.075L437.646 103.187L437.718 103.08L437.776 102.964L435.984 102.075ZM435.986 102.071L434.329 100.951L434.254 101.062L434.194 101.182L435.986 102.071ZM452.995 63.8312L454.888 64.4777L454.89 64.4715L452.995 63.8312ZM470.942 32.1271L469.986 30.3702L470.942 32.1271ZM476.486 26.8238L474.723 25.8805L476.486 26.8238ZM481.356 12.2796L483.285 12.8063L483.287 12.802L481.356 12.2796ZM482.983 4.48536L484.979 4.60523V4.60521L482.983 4.48536ZM482.331 1.85783L480.902 3.25727L480.935 3.29036L480.969 3.32192L482.331 1.85783ZM482.326 1.85272L483.755 0.453286L483.727 0.425205L483.699 0.398225L482.326 1.85272ZM481.805 1.56177L482.378 -0.35428L482.378 -0.354332L481.805 1.56177ZM479.944 1.30524L480.084 -0.689826L480.084 -0.689828L479.944 1.30524ZM468.046 1.04318L468.02 3.04302L468.023 3.04305L468.046 1.04318ZM427.806 1.43658L427.853 3.43603L427.854 3.43602L427.806 1.43658ZM427.803 1.43665L427.844 3.43625L427.85 3.4361L427.803 1.43665ZM374.741 2.42078L374.774 4.42051L374.775 4.4205L374.741 2.42078ZM325.502 5.36411L325.237 3.38176L325.231 3.38262L325.502 5.36411ZM274.526 14.6921L274.048 12.7501L274.041 12.7518L274.526 14.6921ZM258.939 18.1612L258.646 16.1828L258.646 16.1828L258.939 18.1612ZM245.435 19.002V21.002H245.459L245.483 21.0014L245.435 19.002ZM245.433 19.002V17.002H245.411L245.39 17.0025L245.433 19.002ZM213.047 15.4814L212.581 17.4263L212.582 17.4265L213.047 15.4814ZM142.899 3.64629L142.67 5.63318L142.687 5.63515L142.705 5.63682L142.899 3.64629ZM142.891 3.64537L143.12 1.65848L143.111 1.65751L143.103 1.65661L142.891 3.64537ZM106.457 2.42079L106.426 4.42055L106.426 4.42056L106.457 2.42079ZM56.5974 1.43654L56.6485 -0.562811L56.6429 -0.562937L56.5974 1.43654ZM20.3836 1.00018L20.3824 -0.999816H20.3824L20.3836 1.00018ZM7.88291 1.12518L7.93413 3.12453H7.93414L7.88291 1.12518ZM6.61131 1.13183L6.59511 3.13177L6.61131 1.13183ZM4.11308 1.27408L4.39048 3.25475L4.11308 1.27408ZM1.09082 5.26118L-0.906533 5.36398L1.09082 5.26118ZM168.114 112.163L167.039 110.476V110.476L168.114 112.163ZM66.0843 103.684L67.4963 102.268L66.0843 103.684ZM44.9808 52.7857L43.014 53.1483L43.0206 53.1842L43.0285 53.2199L44.9808 52.7857ZM42.5928 35.3816L40.5929 35.4014L40.5929 35.4029L42.5928 35.3816ZM42.7628 30.1096L44.7436 30.386L44.7437 30.3858L42.7628 30.1096ZM43.8176 26.7403L45.6361 27.573L45.6408 27.5625L43.8176 26.7403ZM55.1578 16.5855L56.0026 18.3983L56.0026 18.3983L55.1578 16.5855ZM76.5062 11.3005L76.7182 13.2892L76.7212 13.2889L76.5062 11.3005ZM110.921 10.5076L110.909 12.5075L110.91 12.5075L110.921 10.5076ZM142.13 11.4498L141.883 13.4344L141.893 13.4356L142.13 11.4498ZM183.406 20.5862L182.587 22.411L182.6 22.4164L183.406 20.5862ZM186.097 22.1783L184.97 23.8308L185.048 23.8838L185.131 23.9293L186.097 22.1783ZM200.722 35.8077L199.248 37.1596L199.278 37.1925L199.31 37.2241L200.722 35.8077ZM202.261 37.3419L200.849 38.7583L200.85 38.7593L202.261 37.3419ZM202.845 38.8966L200.85 38.7586L200.849 38.7713L200.848 38.7841L202.845 38.8966ZM202.58 42.7176L200.588 42.5388V42.5388L202.58 42.7176ZM195.661 70.7029L193.782 70.0175L195.661 70.7029ZM182.326 98.3645L180.663 97.254L180.662 97.2543L182.326 98.3645ZM182.043 98.7884L180.379 97.6782L180.379 97.6783L182.043 98.7884ZM432.132 81.8054L430.245 81.1424L430.245 81.1432L432.132 81.8054ZM438.368 57.2902L436.409 56.8854V56.8854L438.368 57.2902ZM441.813 34.8902L443.813 34.9036L441.813 34.8902ZM439.898 28.1755L438.145 29.1377L438.145 29.1377L439.898 28.1755ZM439.233 26.9081L437.428 27.77L439.233 26.9081ZM435.334 21.5942L436.797 20.2299V20.2299L435.334 21.5942ZM412.511 12.7634L412.762 10.7792L412.511 12.7634ZM410.5 12.5001L410.779 10.5196V10.5196L410.5 12.5001ZM397.5 11.5001L397.447 13.4994L397.474 13.5001H397.5V11.5001ZM378.5 11.0001L378.553 9.00075L378.512 8.99967L378.471 9.00027L378.5 11.0001ZM338 13.5001L338.27 15.4818L338 13.5001ZM301.5 21.0001L301.013 19.0602L300.914 19.0851L300.818 19.1201L301.5 21.0001ZM297.914 22.6881L296.824 21.011L296.824 21.011L297.914 22.6881ZM291.802 27.2839L293.125 28.7838V28.7838L291.802 27.2839ZM290.253 28.7344L291.645 30.1703L291.645 30.1703L290.253 28.7344ZM289.441 29.5093L290.796 30.9806L290.797 30.9796L289.441 29.5093ZM284.741 34.3493L286.259 35.6514L286.26 35.6506L284.741 34.3493ZM281.921 37.6692L283.446 38.9636L283.449 38.9598L281.921 37.6692ZM281.865 37.7351L283.386 39.0339L283.39 39.0295L281.865 37.7351ZM281.808 37.8023L283.328 39.1021L283.328 39.1012L281.808 37.8023ZM281 39.0001L279.143 38.2572L279.143 38.2573L281 39.0001ZM281.736 49.6965L279.776 50.0943L279.776 50.0944L281.736 49.6965ZM281.804 50.0314L283.764 49.634L283.764 49.6336L281.804 50.0314ZM282 51.0001L283.96 50.6031L283.96 50.6027L282 51.0001ZM293.228 82.2878L295.048 81.4595L295.048 81.4594L293.228 82.2878ZM308.073 105.942L309.498 104.539L309.496 104.536L308.073 105.942ZM396.5 118L395.804 116.125L395.749 116.146L395.694 116.169L396.5 118ZM5.85362 15.4069C5.58125 14.4687 5.29723 13.5156 5.02057 12.5872L1.18715 13.7295C1.46453 14.6603 1.74446 15.5998 2.01221 16.5221L5.85362 15.4069ZM8.7399 24.5926C8.33025 23.6272 7.11821 19.763 5.85362 15.4069L2.01221 16.5221C3.24764 20.7778 4.53264 24.9177 5.05767 26.155L8.7399 24.5926ZM14.873 30.8161C11.7233 29.2462 10.0545 27.486 8.71981 24.5468L5.07776 26.2008C6.80387 30.0018 9.14248 32.4292 13.0887 34.3961L14.873 30.8161ZM18.9909 36.2056C20.5538 34.9577 20.5534 34.9572 20.5529 34.9566C20.5528 34.9564 20.5523 34.9558 20.552 34.9555C20.5514 34.9547 20.5507 34.9539 20.5501 34.953C20.5487 34.9514 20.5473 34.9496 20.5458 34.9477C20.5427 34.9439 20.5392 34.9396 20.5354 34.935C20.5278 34.9256 20.5186 34.9145 20.508 34.9017C20.4866 34.8762 20.4591 34.8439 20.4253 34.8053C20.3577 34.7281 20.2648 34.6259 20.1455 34.5024C19.9069 34.2554 19.5624 33.9233 19.102 33.5369C18.1803 32.7635 16.7968 31.7749 14.873 30.8161L13.0887 34.3961C14.713 35.2057 15.8345 36.0168 16.5308 36.6011C16.8793 36.8935 17.1221 37.1298 17.2685 37.2813C17.3417 37.3571 17.3908 37.4118 17.417 37.4417C17.4301 37.4566 17.4375 37.4654 17.4392 37.4675C17.4401 37.4685 17.4396 37.4679 17.4377 37.4656C17.4368 37.4645 17.4355 37.4629 17.4339 37.4609C17.4331 37.4599 17.4322 37.4587 17.4312 37.4575C17.4307 37.4569 17.4302 37.4563 17.4296 37.4556C17.4294 37.4553 17.4289 37.4547 17.4288 37.4546C17.4284 37.454 17.428 37.4535 18.9909 36.2056ZM26.5108 45.8688C24.3671 40.9868 22.3096 37.0572 20.5253 34.9229L17.4564 37.4884C18.836 39.1386 20.7003 42.5852 22.8484 47.477L26.5108 45.8688ZM33.549 64.2648C31.1122 57.1508 28.7009 50.8566 26.5108 45.8688L22.8483 47.477C24.9809 52.3338 27.3524 58.5182 29.7648 65.561L33.549 64.2648ZM33.5497 64.2669L33.5485 64.2634L29.7653 65.5624L29.7665 65.5659L33.5497 64.2669ZM50.9537 102.489C44.5684 93.7188 40.5881 85.0711 33.5526 64.2755L29.7636 65.5574C36.829 86.4415 40.9644 95.5645 47.72 104.843L50.9537 102.489ZM50.9202 102.444L50.9171 102.44L47.7566 104.892L47.7597 104.896L50.9202 102.444ZM114.349 128.764C80.5752 126.769 62.8767 119.046 50.963 102.501L47.717 104.839C60.6585 122.81 79.8319 130.733 114.113 132.758L114.349 128.764ZM114.233 128.761H114.231V132.761H114.233V128.761ZM176.683 114.741C161.264 124.925 138.213 130.212 114.354 128.765L114.112 132.757C138.603 134.243 162.572 128.855 178.887 118.079L176.683 114.741ZM209.326 72.0713C207.511 71.2311 207.511 71.231 207.511 71.231C207.511 71.2312 207.511 71.2313 207.511 71.2317C207.51 71.2324 207.51 71.2336 207.509 71.2354C207.507 71.2388 207.505 71.2443 207.501 71.2518C207.494 71.2669 207.484 71.2899 207.469 71.3208C207.44 71.3825 207.397 71.4755 207.339 71.598C207.223 71.843 207.049 72.2059 206.822 72.6729C206.369 73.607 205.701 74.9567 204.851 76.6105C203.148 79.9199 200.715 84.4382 197.794 89.2769C191.887 99.0584 184.201 109.776 176.683 114.741L178.887 118.079C187.236 112.564 195.32 101.112 201.218 91.3444C204.198 86.4084 206.675 81.8071 208.407 78.4405C209.274 76.7563 209.955 75.3789 210.421 74.4204C210.653 73.9411 210.832 73.5664 210.954 73.3102C211.014 73.1822 211.061 73.0838 211.092 73.0167C211.108 72.9832 211.12 72.9575 211.128 72.9399C211.132 72.9311 211.135 72.9243 211.137 72.9196C211.138 72.9172 211.139 72.9153 211.14 72.914C211.14 72.9133 211.14 72.9127 211.141 72.9123C211.141 72.9118 211.141 72.9115 209.326 72.0713ZM213.598 58.7545C212.839 60.4572 210.116 65.9854 207.535 71.1815L211.117 72.9611C213.676 67.811 216.449 62.1834 217.252 60.3837L213.598 58.7545ZM218.252 50.1355C216.515 52.9327 214.707 56.2033 213.591 58.7722L217.259 60.366C218.269 58.0413 219.969 54.9523 221.65 52.2459L218.252 50.1355ZM220.808 46.3033C220.01 47.3976 219.128 48.7265 218.253 50.1346L221.649 52.2468C222.49 50.8951 223.316 49.6528 224.04 48.6605L220.808 46.3033ZM223.147 43.6025C222.381 44.2443 221.55 45.2872 220.808 46.3029L224.04 48.6609C224.78 47.646 225.361 46.9653 225.715 46.6691L223.147 43.6025ZM236.256 38.383C231.282 39.1387 226.396 40.8452 223.137 43.6108L225.725 46.6608C228.194 44.5662 232.256 43.0367 236.856 42.3376L236.256 38.383ZM251.667 39.0664C246.834 37.7608 241.288 37.6183 236.256 38.383L236.856 42.3376C241.436 41.6417 246.412 41.7904 250.623 42.928L251.667 39.0664ZM258.061 41.7161C256.086 40.6183 253.753 39.6081 251.648 39.0614L250.642 42.933C252.341 43.3743 254.358 44.2341 256.117 45.2122L258.061 41.7161ZM263.028 45.5956C261.948 44.1259 259.917 42.7481 258.061 41.7162L256.117 45.212C257.911 46.2099 259.273 47.2407 259.805 47.9644L263.028 45.5956ZM274.796 66.9959C268.524 54.4398 265.583 48.9929 263.015 45.5779L259.818 47.9821C262.12 51.0431 264.89 56.1174 271.218 68.7835L274.796 66.9959ZM274.152 66.2496L274.151 66.2489L271.863 69.5305L271.865 69.5312L274.152 66.2496ZM292.1 97.8984C287.022 90.2784 281.36 80.1564 274.798 66.9978L271.218 68.783C277.816 82.0114 283.562 92.2994 288.772 100.117L292.1 97.8984ZM305.6 113.516C301.598 110.513 297.193 105.54 292.1 97.8984L288.772 100.117C293.975 107.926 298.676 113.321 303.2 116.716L305.6 113.516ZM305.81 113.697L305.809 113.696L302.991 116.536L302.992 116.537L305.81 113.697ZM344.337 127.712C327.491 125.099 314.547 120.251 305.604 113.519L303.198 116.715C312.853 123.983 326.503 128.993 343.724 131.664L344.337 127.712ZM344.516 127.748L344.512 127.747L343.548 131.629L343.552 131.63L344.516 127.748ZM362.772 128.593C355.025 128.55 347.644 128.238 344.348 127.714L343.72 131.664C347.36 132.244 355.034 132.55 362.75 132.593L362.772 128.593ZM382.01 127.945C378.168 128.412 370.49 128.636 362.772 128.593L362.75 132.593C370.474 132.636 378.376 132.416 382.493 131.915L382.01 127.945ZM420.243 115.537C411.041 121.683 398.312 125.865 381.998 127.946L382.504 131.914C399.176 129.787 412.569 125.473 422.465 118.863L420.243 115.537ZM427.54 109.093C424.847 111.875 422.155 114.259 420.242 115.537L422.466 118.863C424.723 117.353 427.643 114.737 430.414 111.875L427.54 109.093ZM434.322 100.963C432.728 103.345 430.218 106.327 427.54 109.093L430.414 111.875C433.19 109.009 435.874 105.837 437.646 103.187L434.322 100.963ZM434.194 101.182L434.193 101.186L437.776 102.964L437.778 102.96L434.194 101.182ZM451.102 63.1847C444.114 83.6443 440.416 91.9445 434.329 100.951L437.643 103.191C444.038 93.7285 447.872 85.0145 454.888 64.4777L451.102 63.1847ZM457.966 45.2198C455.854 49.9296 453.538 55.9783 451.1 63.1909L454.89 64.4715C457.302 57.3321 459.573 51.4118 461.616 46.857L457.966 45.2198ZM469.986 30.3702C469.064 30.8719 468 31.8098 466.98 32.8333C465.917 33.901 464.753 35.2151 463.618 36.6167C461.376 39.386 459.111 42.6688 457.966 45.2198L461.616 46.857C462.55 44.7757 464.562 41.8087 466.727 39.1334C467.796 37.8126 468.868 36.6057 469.814 35.6565C470.804 34.6631 471.522 34.0882 471.898 33.884L469.986 30.3702ZM474.723 25.8805C473.541 28.0888 472.35 29.0846 469.986 30.3702L471.898 33.884C474.725 32.3462 476.597 30.8574 478.25 27.7671L474.723 25.8805ZM479.427 11.7529C477.358 19.3312 476.069 23.3627 474.723 25.8805L478.25 27.7671C479.849 24.7769 481.244 20.2824 483.285 12.8063L479.427 11.7529ZM480.987 4.36549C480.902 5.76793 480.441 8.00402 479.426 11.7572L483.287 12.802C484.297 9.06753 484.868 6.46686 484.979 4.60523L480.987 4.36549ZM480.969 3.32192C480.972 3.32483 480.956 3.30976 480.939 3.28317C480.922 3.25709 480.926 3.25298 480.938 3.29299C480.968 3.39278 481.027 3.69268 480.987 4.36551L484.979 4.60521C485.035 3.67879 484.984 2.86549 484.772 2.15159C484.541 1.37828 484.151 0.819248 483.694 0.393748L480.969 3.32192ZM480.897 3.25216L480.902 3.25727L483.76 0.458396L483.755 0.453286L480.897 3.25216ZM481.232 3.47783C481.264 3.48749 481.201 3.47173 481.102 3.41324C480.997 3.35148 480.935 3.28992 480.953 3.30722L483.699 0.398225C483.585 0.290957 483.4 0.125214 483.137 -0.0302254C482.88 -0.182406 482.622 -0.281349 482.378 -0.35428L481.232 3.47783ZM479.804 3.30031C480.766 3.36804 481.124 3.44572 481.232 3.47788L482.378 -0.354332C481.828 -0.519017 481.104 -0.618129 480.084 -0.689826L479.804 3.30031ZM468.023 3.04305C474.516 3.11746 477.904 3.16674 479.804 3.30032L480.084 -0.689828C478.036 -0.833909 474.492 -0.883076 468.069 -0.956685L468.023 3.04305ZM427.854 3.43602C442.346 3.09207 460.47 2.94526 468.02 3.04302L468.072 -0.956649C460.454 -1.05528 442.277 -0.907423 427.759 -0.562853L427.854 3.43602ZM427.85 3.4361L427.853 3.43603L427.759 -0.562867L427.756 -0.562797L427.85 3.4361ZM374.775 4.4205C389.437 4.17442 413.329 3.73153 427.844 3.43624L427.762 -0.562933C413.253 -0.267742 389.365 0.175064 374.708 0.421065L374.775 4.4205ZM325.767 7.34646C341.049 5.30228 347.877 4.86248 374.774 4.42051L374.708 0.421053C347.743 0.864145 340.74 1.30799 325.237 3.38177L325.767 7.34646ZM275.004 16.6341C287.065 13.6649 308.966 9.64825 325.774 7.3456L325.231 3.38262C308.328 5.69834 286.282 9.73826 274.048 12.7501L275.004 16.6341ZM259.232 20.1397C263.188 19.5542 267.473 18.517 275.011 16.6324L274.041 12.7518C266.453 14.649 262.37 15.6316 258.646 16.1828L259.232 20.1397ZM245.483 21.0014C251.633 20.8542 255.242 20.7303 259.232 20.1396L258.646 16.1828C254.935 16.7321 251.563 16.8548 245.387 17.0026L245.483 21.0014ZM245.433 21.002H245.435V17.002H245.433V21.002ZM212.582 17.4265C226.397 20.7319 231.589 21.3025 245.476 21.0015L245.39 17.0025C231.855 17.2958 227.005 16.7643 213.512 13.5363L212.582 17.4265ZM142.705 5.63682C164.724 7.78791 190.748 12.1928 212.581 17.4263L213.513 13.5365C191.506 8.26137 165.302 3.82524 143.093 1.65577L142.705 5.63682ZM142.662 5.63226L142.67 5.63318L143.128 1.6594L143.12 1.65848L142.662 5.63226ZM106.426 4.42056C125.679 4.71658 137.761 5.11063 142.679 5.63414L143.103 1.65661C137.963 1.10948 125.671 0.715983 106.488 0.42103L106.426 4.42056ZM56.5463 3.43589C68.1086 3.73143 90.5269 4.17443 106.426 4.42055L106.488 0.421033C90.5978 0.175053 68.1936 -0.267704 56.6485 -0.562803L56.5463 3.43589ZM20.3848 3.00018C30.4883 2.99406 43.617 3.14132 56.5518 3.43602L56.6429 -0.562937C43.681 -0.858256 30.5209 -1.00596 20.3824 -0.999816L20.3848 3.00018ZM7.93414 3.12453C11.0491 3.04472 15.3302 3.00327 20.3848 3.00018L20.3824 -0.999816C15.3137 -0.996722 10.9949 -0.955208 7.83169 -0.87416L7.93414 3.12453ZM6.59511 3.13177C6.96303 3.13475 7.39455 3.13835 7.93413 3.12453L7.83169 -0.87416C7.36576 -0.862224 6.99353 -0.865134 6.62752 -0.8681L6.59511 3.13177ZM4.39048 3.25475C5.3412 3.1216 5.8477 3.12571 6.59511 3.13177L6.62752 -0.8681C5.81594 -0.874675 5.07848 -0.880642 3.83569 -0.706586L4.39048 3.25475ZM3.08818 5.15839C3.07228 4.84948 3.20887 4.36085 3.55898 3.89732C3.92004 3.41929 4.27187 3.27136 4.39048 3.25475L3.83569 -0.706586C2.34121 -0.49728 1.13659 0.467756 0.367128 1.4865C-0.413282 2.51974 -0.981277 3.91171 -0.906533 5.36398L3.08818 5.15839ZM5.02057 12.5872C4.51634 10.8951 4.03991 9.29571 3.67987 7.94819C3.30377 6.54058 3.11122 5.6061 3.08818 5.15839L-0.906533 5.36398C-0.858541 6.29646 -0.546342 7.62672 -0.184567 8.98073C0.193264 10.3948 0.687838 12.0539 1.18715 13.7295L5.02057 12.5872ZM113.405 125.008C119.661 125.478 131.303 124.133 142.358 122.013C147.921 120.946 153.409 119.668 158.085 118.292C162.704 116.933 166.713 115.428 169.189 113.85L167.039 110.476C165.072 111.73 161.532 113.109 156.956 114.455C152.435 115.785 147.077 117.035 141.605 118.084C130.588 120.198 119.393 121.447 113.705 121.02L113.405 125.008ZM85.4148 119.261C93.1949 122.425 101.335 124.102 113.405 125.008L113.705 121.02C101.885 120.132 94.1893 118.511 86.9218 115.555L85.4148 119.261ZM64.6722 105.1C70.2491 110.66 77.5884 116.078 85.4148 119.261L86.9218 115.555C79.7006 112.619 72.7933 107.549 67.4963 102.268L64.6722 105.1ZM51.8457 86.1268C55.1308 94.0641 59.0721 99.5174 64.6722 105.1L67.4963 102.268C62.2227 97.0101 58.6009 91.9888 55.5417 84.5971L51.8457 86.1268ZM44.9808 52.7857C43.0285 53.2199 43.0286 53.22 43.0286 53.2203C43.0287 53.2205 43.0287 53.2208 43.0288 53.2212C43.029 53.2221 43.0293 53.2233 43.0296 53.2249C43.0303 53.228 43.0314 53.2327 43.0327 53.2388C43.0355 53.2511 43.0396 53.2694 43.0449 53.2933C43.0556 53.3413 43.0715 53.4123 43.0923 53.5051C43.134 53.6907 43.1954 53.9634 43.2745 54.3129C43.4329 55.0119 43.6624 56.0182 43.9478 57.2494C44.5183 59.7113 45.3125 63.0752 46.2065 66.6809C47.9775 73.8239 50.1907 82.1278 51.8457 86.1268L55.5417 84.5971C54.0247 80.9316 51.8814 72.9474 50.089 65.7183C49.2013 62.138 48.412 58.7949 47.8445 56.3463C47.5608 55.1223 47.3327 54.1225 47.1757 53.4292C47.0971 53.0825 47.0364 52.8125 46.9953 52.6295C46.9748 52.5379 46.9592 52.4681 46.9487 52.4214C46.9435 52.398 46.9396 52.3804 46.937 52.3687C46.9356 52.3628 46.9347 52.3584 46.934 52.3555C46.9337 52.3541 46.9335 52.353 46.9333 52.3524C46.9332 52.352 46.9332 52.3518 46.9332 52.3516C46.9331 52.3515 46.9331 52.3514 44.9808 52.7857ZM40.5929 35.4029C40.62 37.9372 41.2443 42.437 41.8299 46.1656C42.1275 48.0598 42.4232 49.8038 42.6445 51.0739C42.7551 51.7092 42.8473 52.2265 42.9119 52.5856C42.9442 52.7652 42.9696 52.9052 42.987 53.0007C42.9957 53.0484 43.0023 53.085 43.0069 53.1098C43.0092 53.1222 43.0109 53.1316 43.0121 53.1381C43.0127 53.1413 43.0131 53.1438 43.0135 53.1455C43.0136 53.1463 43.0137 53.147 43.0138 53.1474C43.0139 53.1477 43.0139 53.1479 43.0139 53.148C43.0139 53.1482 43.014 53.1483 44.9808 52.7857C46.9477 52.4231 46.9477 52.4231 46.9477 52.423C46.9477 52.423 46.9476 52.4229 46.9476 52.4227C46.9476 52.4224 46.9475 52.4219 46.9473 52.4212C46.9471 52.4199 46.9467 52.4177 46.9462 52.4148C46.9451 52.409 46.9435 52.4002 46.9413 52.3885C46.937 52.3651 46.9306 52.3299 46.9222 52.2836C46.9053 52.191 46.8804 52.054 46.8487 51.8776C46.7852 51.5248 46.6944 51.0146 46.5851 50.3874C46.3665 49.1323 46.0746 47.4111 45.7815 45.5449C45.1858 41.7524 44.6161 37.5502 44.5927 35.3602L40.5929 35.4029ZM40.782 29.8332C40.5858 31.2394 40.5685 32.9489 40.5929 35.4014L44.5927 35.3617C44.5679 32.8664 44.5951 31.4507 44.7436 30.386L40.782 29.8332ZM41.9992 25.9076C41.4169 27.1792 40.9978 28.2861 40.782 29.8333L44.7437 30.3858C44.8855 29.369 45.1401 28.6559 45.636 27.5729L41.9992 25.9076ZM54.3131 14.7726C48.5407 17.4623 44.1474 21.1444 41.9945 25.918L45.6408 27.5625C47.2598 23.9727 50.7303 20.855 56.0026 18.3983L54.3131 14.7726ZM76.2942 9.31173C67.5505 10.2438 60.1063 12.0731 54.3131 14.7726L56.0026 18.3983C61.2694 15.944 68.2479 14.1921 76.7182 13.2892L76.2942 9.31173ZM110.933 8.5076C85.6844 8.36008 84.6781 8.40538 76.2912 9.31205L76.7212 13.2889C84.8479 12.4103 85.633 12.3598 110.909 12.5075L110.933 8.5076ZM142.377 9.4651C137.028 8.79876 129.619 8.60567 110.931 8.50759L110.91 12.5075C129.682 12.6061 136.822 12.804 141.883 13.4344L142.377 9.4651ZM184.224 18.7613C172.903 13.6835 160.467 11.6271 142.367 9.46389L141.893 13.4356C160.007 15.6006 171.885 17.6105 182.587 22.411L184.224 18.7613ZM187.224 20.5258C186.358 19.9357 185.205 19.1932 184.212 18.7559L182.6 22.4164C183.225 22.692 184.114 23.2468 184.97 23.8308L187.224 20.5258ZM189.863 22.4938C189.167 21.8472 188.48 21.3393 187.97 20.9938C187.713 20.8198 187.497 20.6837 187.34 20.5887C187.261 20.5411 187.197 20.5037 187.15 20.4767C187.127 20.4631 187.108 20.4522 187.093 20.444C187.086 20.4399 187.08 20.4364 187.075 20.4336C187.072 20.4322 187.07 20.431 187.068 20.4299C187.067 20.4294 187.066 20.4289 187.065 20.4284C187.065 20.4282 187.065 20.428 187.064 20.4278C187.064 20.4277 187.064 20.4275 187.064 20.4275C187.064 20.4274 187.063 20.4272 186.097 22.1783C185.131 23.9293 185.13 23.9292 185.13 23.929C185.13 23.929 185.13 23.9289 185.13 23.9288C185.129 23.9286 185.129 23.9285 185.129 23.9283C185.128 23.928 185.128 23.9278 185.127 23.9276C185.127 23.9272 185.126 23.9269 185.126 23.9268C185.126 23.9266 185.126 23.927 185.128 23.928C185.132 23.93 185.139 23.9344 185.151 23.9412C185.175 23.9548 185.214 23.9778 185.267 24.0099C185.373 24.0741 185.532 24.1736 185.726 24.3051C186.118 24.5705 186.633 24.9532 187.141 25.4247L189.863 22.4938ZM202.196 34.4557C199.128 31.111 191.037 23.5841 189.863 22.4938L187.141 25.4247C188.375 26.5708 196.316 33.9633 199.248 37.1596L202.196 34.4557ZM203.673 35.9254L202.134 34.3912L199.31 37.2241L200.849 38.7583L203.673 35.9254ZM204.84 39.0345C204.92 37.8777 204.494 36.7428 203.672 35.9244L200.85 38.7593L200.85 38.7586L204.84 39.0345ZM204.572 42.8963C204.641 42.1251 204.709 41.1491 204.758 40.377C204.783 39.9885 204.804 39.6473 204.819 39.403C204.826 39.2808 204.832 39.1827 204.836 39.115C204.838 39.0812 204.839 39.0549 204.84 39.037C204.841 39.028 204.841 39.0212 204.841 39.0165C204.841 39.0141 204.842 39.0123 204.842 39.0111C204.842 39.0105 204.842 39.01 204.842 39.0096C204.842 39.0095 204.842 39.0093 204.842 39.0092C204.842 39.0092 204.842 39.0091 204.842 39.0091C204.842 39.0091 204.842 39.0091 202.845 38.8966C200.848 38.7841 200.848 38.7841 200.848 38.784C200.848 38.7841 200.848 38.7841 200.848 38.7841C200.848 38.7841 200.848 38.7842 200.848 38.7843C200.848 38.7845 200.848 38.7849 200.848 38.7854C200.848 38.7864 200.848 38.788 200.848 38.7901C200.848 38.7943 200.847 38.8007 200.847 38.8092C200.846 38.8262 200.844 38.8514 200.842 38.8842C200.839 38.9498 200.833 39.0456 200.826 39.1652C200.812 39.4046 200.791 39.7392 200.767 40.1198C200.717 40.8857 200.652 41.8202 200.588 42.5388L204.572 42.8963ZM197.54 71.3882C201.301 61.0755 203.543 54.3693 204.572 42.8963L200.588 42.5388C199.605 53.4917 197.505 59.8114 193.782 70.0175L197.54 71.3882ZM183.989 99.4749C188.881 92.1468 193.766 81.735 197.54 71.3882L193.782 70.0175C190.072 80.1896 185.316 90.2826 180.663 97.254L183.989 99.4749ZM183.707 99.8985L183.99 99.4747L180.662 97.2543L180.379 97.6782L183.707 99.8985ZM169.189 113.85C173.533 111.081 176.056 109.328 178.055 107.357C180.058 105.381 181.479 103.237 183.707 99.8984L180.379 97.6783C178.091 101.107 176.901 102.876 175.246 104.509C173.586 106.146 171.402 107.696 167.039 110.476L169.189 113.85ZM430.245 81.1432C428.638 85.7236 427.613 88.4663 425.938 91.2698C424.255 94.0851 421.869 97.0356 417.437 101.893L420.391 104.589C424.848 99.7056 427.468 96.5056 429.371 93.322C431.281 90.1266 432.421 87.0219 434.019 82.4675L430.245 81.1432ZM436.409 56.8854C434.48 66.2207 432.097 75.8709 430.245 81.1424L434.019 82.4683C435.965 76.929 438.392 67.0583 440.327 57.6949L436.409 56.8854ZM439.813 34.8767C439.788 38.6505 438.343 47.5286 436.409 56.8854L440.327 57.6949C442.245 48.4119 443.784 39.1414 443.813 34.9036L439.813 34.8767ZM438.145 29.1377C439.023 30.7365 439.831 32.2215 439.813 34.8767L443.813 34.9036C443.838 31.1856 442.605 28.9503 441.652 27.2133L438.145 29.1377ZM437.428 27.77C437.659 28.2522 437.915 28.718 438.145 29.1377L441.652 27.2133C441.412 26.7755 441.211 26.4092 441.038 26.0461L437.428 27.77ZM433.872 22.9584C435.595 24.8056 436.578 25.9888 437.428 27.77L441.038 26.0461C439.914 23.6941 438.585 22.147 436.797 20.2299L433.872 22.9584ZM412.26 14.7475C415.453 15.1517 419.425 15.6584 423.363 16.8661C427.298 18.0725 431.053 19.9373 433.872 22.9584L436.797 20.2299C433.33 16.5135 428.852 14.3652 424.536 13.0418C420.224 11.7196 415.927 11.1797 412.762 10.7792L412.26 14.7475ZM410.221 14.4805C410.851 14.5692 411.54 14.6564 412.26 14.7475L412.762 10.7792C412.035 10.6872 411.376 10.6037 410.779 10.5196L410.221 14.4805ZM397.5 13.5001C402.871 13.5001 405.728 13.8477 410.221 14.4805L410.779 10.5196C406.19 9.87321 403.129 9.50006 397.5 9.50006V13.5001ZM378.447 12.9994L397.447 13.4994L397.553 9.50075L378.553 9.00075L378.447 12.9994ZM338.27 15.4818C346.025 14.4271 356.075 13.805 364.226 13.4474C368.293 13.269 371.871 13.157 374.433 13.0897C375.713 13.0561 376.739 13.0336 377.444 13.0195C377.796 13.0125 378.068 13.0075 378.252 13.0044C378.344 13.0028 378.414 13.0017 378.46 13.0009C378.484 13.0005 378.501 13.0003 378.513 13.0001C378.518 13 378.523 12.9999 378.526 12.9999C378.527 12.9999 378.528 12.9999 378.529 12.9999C378.529 12.9998 378.529 12.9998 378.529 12.9998C378.529 12.9998 378.529 12.9998 378.5 11.0001C378.471 9.00027 378.47 9.00028 378.47 9.00028C378.47 9.00028 378.47 9.00029 378.469 9.00029C378.468 9.00031 378.467 9.00033 378.465 9.00035C378.462 9.0004 378.458 9.00047 378.451 9.00056C378.439 9.00075 378.421 9.00104 378.397 9.00142C378.348 9.00219 378.277 9.00336 378.183 9.00497C377.996 9.00819 377.72 9.01319 377.364 9.0203C376.651 9.03452 375.617 9.0572 374.327 9.0911C371.748 9.15888 368.146 9.27157 364.051 9.45124C355.877 9.80982 345.676 10.4377 337.731 11.5183L338.27 15.4818ZM301.5 21.0001C301.987 22.94 301.987 22.9399 301.987 22.9399C301.987 22.9399 301.987 22.9398 301.987 22.9398C301.988 22.9396 301.989 22.9394 301.99 22.9391C301.993 22.9384 301.996 22.9375 302.002 22.9362C302.012 22.9336 302.028 22.9297 302.048 22.9245C302.09 22.9142 302.152 22.8987 302.234 22.8784C302.397 22.8377 302.64 22.7777 302.954 22.7004C303.583 22.546 304.498 22.3229 305.641 22.0489C307.929 21.5009 311.129 20.7497 314.777 19.9376C322.09 18.31 331.147 16.4504 338.27 15.4818L337.731 11.5183C330.434 12.5106 321.241 14.401 313.908 16.0332C310.234 16.8509 307.013 17.6071 304.709 18.159C303.558 18.4349 302.635 18.6599 302 18.816C301.682 18.8941 301.436 18.9549 301.269 18.9964C301.186 19.0171 301.122 19.0329 301.079 19.0437C301.058 19.049 301.042 19.0531 301.031 19.0559C301.025 19.0573 301.021 19.0583 301.018 19.059C301.017 19.0594 301.015 19.0597 301.015 19.0598C301.014 19.0599 301.014 19.06 301.014 19.0601C301.014 19.0601 301.013 19.0602 301.5 21.0001ZM299.004 24.3651C299.882 23.7945 300.72 23.4107 302.182 22.8801L300.818 19.1201C299.22 19.7 298.064 20.2056 296.824 21.011L299.004 24.3651ZM293.125 28.7838C295.26 26.901 297.982 25.0293 299.004 24.3651L296.824 21.011C295.729 21.7229 292.824 23.716 290.479 25.7839L293.125 28.7838ZM291.645 30.1703C292.106 29.7233 292.579 29.2657 293.125 28.7838L290.479 25.7839C289.853 26.3362 289.318 26.8555 288.861 27.2985L291.645 30.1703ZM290.797 30.9796C291.078 30.7203 291.364 30.4426 291.645 30.1703L288.861 27.2985C288.572 27.5786 288.323 27.8199 288.085 28.0389L290.797 30.9796ZM286.26 35.6506C288.267 33.3086 289.351 32.3109 290.796 30.9806L288.086 28.0379C286.585 29.42 285.374 30.5373 283.222 33.0479L286.26 35.6506ZM283.449 38.9598C284.016 38.2882 285.395 36.6591 286.259 35.6514L283.223 33.0471C282.347 34.0678 280.96 35.7077 280.393 36.3786L283.449 38.9598ZM283.39 39.0295L283.446 38.9636L280.396 36.3748L280.34 36.4406L283.39 39.0295ZM283.328 39.1012L283.386 39.0339L280.344 36.4362L280.287 36.5035L283.328 39.1012ZM282.857 39.743C282.876 39.696 282.912 39.6262 282.989 39.5191C283.072 39.403 283.171 39.2856 283.328 39.1021L280.288 36.5026C280.018 36.8183 279.474 37.4291 279.143 38.2572L282.857 39.743ZM283.696 49.2988C282.847 45.1149 282.465 43.2096 282.382 42.0249C282.345 41.4986 282.376 41.204 282.431 40.9577C282.496 40.6668 282.61 40.3604 282.857 39.7428L279.143 38.2573C278.914 38.8297 278.674 39.4302 278.527 40.0863C278.371 40.7871 278.334 41.48 278.392 42.305C278.498 43.823 278.96 46.0759 279.776 50.0943L283.696 49.2988ZM283.764 49.6336L283.696 49.2987L279.776 50.0944L279.844 50.4292L283.764 49.6336ZM283.96 50.6027L283.764 49.634L279.844 50.4288L280.04 51.3974L283.96 50.6027ZM295.048 81.4594C290.536 71.5431 285.836 59.8644 283.96 50.6031L280.04 51.3971C282.012 61.1357 286.88 73.1664 291.408 83.1161L295.048 81.4594ZM309.496 104.536C304.656 99.6399 299.52 91.2876 295.048 81.4595L291.408 83.116C295.958 93.1171 301.328 101.962 306.651 107.348L309.496 104.536ZM361.89 121.165C339.169 121.214 319.744 114.943 309.498 104.539L306.648 107.345C317.964 118.836 338.657 125.215 361.898 125.165L361.89 121.165ZM396.5 118C395.694 116.169 395.695 116.169 395.696 116.169C395.696 116.169 395.696 116.169 395.696 116.169C395.697 116.168 395.697 116.168 395.697 116.168C395.698 116.168 395.697 116.168 395.696 116.169C395.694 116.17 395.689 116.172 395.681 116.175C395.666 116.182 395.639 116.193 395.6 116.209C395.524 116.241 395.402 116.29 395.236 116.354C394.902 116.483 394.389 116.672 393.695 116.902C392.308 117.362 390.202 117.984 387.381 118.612C381.739 119.867 373.231 121.141 361.89 121.165L361.898 125.165C373.538 125.14 382.333 123.832 388.249 122.516C391.206 121.859 393.443 121.2 394.954 120.699C395.709 120.448 396.284 120.237 396.676 120.086C396.872 120.01 397.022 119.949 397.127 119.906C397.18 119.884 397.221 119.867 397.251 119.854C397.266 119.848 397.278 119.843 397.287 119.839C397.291 119.837 397.295 119.835 397.298 119.834C397.3 119.833 397.301 119.833 397.303 119.832C397.303 119.832 397.304 119.831 397.304 119.831C397.305 119.831 397.306 119.831 396.5 118ZM417.437 101.893C413.198 106.538 407.804 110.103 403.409 112.521C401.222 113.725 399.307 114.631 397.943 115.235C397.261 115.537 396.719 115.762 396.35 115.911C396.166 115.985 396.025 116.04 395.933 116.076C395.887 116.094 395.853 116.107 395.831 116.115C395.82 116.119 395.812 116.122 395.808 116.124C395.806 116.124 395.804 116.125 395.804 116.125C395.803 116.125 395.803 116.125 395.803 116.125C395.803 116.125 395.804 116.125 395.804 116.125C395.804 116.125 395.804 116.125 396.5 118C397.196 119.875 397.196 119.875 397.197 119.875C397.197 119.875 397.197 119.875 397.198 119.874C397.199 119.874 397.2 119.874 397.201 119.873C397.204 119.872 397.207 119.871 397.212 119.869C397.22 119.866 397.232 119.861 397.247 119.856C397.277 119.844 397.32 119.828 397.375 119.807C397.485 119.764 397.644 119.702 397.847 119.62C398.253 119.456 398.836 119.214 399.562 118.893C401.011 118.251 403.032 117.294 405.338 116.026C409.928 113.5 415.741 109.686 420.391 104.589L417.437 101.893Z" fill="#DCA34C" mask="url(#path-3-inside-1_513_26398)"/>
<ellipse cx="21.8466" cy="15.4035" rx="5.5" ry="2.5" transform="rotate(9.84447 21.8466 15.4035)" fill="#6F746E"/>
<ellipse cx="5.5" cy="2.5" rx="5.5" ry="2.5" transform="matrix(-0.985276 0.170974 0.170974 0.985276 467.838 12)" fill="#6F746E"/>
<defs>
<linearGradient id="paint0_linear_513_26398" x1="358" y1="7" x2="358" y2="128" gradientUnits="userSpaceOnUse">
<stop stop-color="#1C1C1C"/>
<stop offset="1" stop-color="#322C21" stop-opacity="0"/>
</linearGradient>
<linearGradient id="paint1_linear_513_26398" x1="120" y1="7" x2="120" y2="128" gradientUnits="userSpaceOnUse">
<stop stop-color="#1C1C1C"/>
<stop offset="1" stop-color="#322C21" stop-opacity="0"/>
</linearGradient>
</defs>
</svg>
