<svg width="484" height="132" viewBox="0 0 484 132" fill="none" xmlns="http://www.w3.org/2000/svg">
<path d="M31 13L107.5 5.5L185 13L207 36.5L185 101L146 126.5L75.5 123L50.5 101L31 73.5V13Z" fill="url(#paint0_linear_1_30472)"/>
<path d="M444 13.5L367.5 6L290 13.5L268 37L290 101.5L329 127L399.5 123.5L424.5 101.5L444 74V13.5Z" fill="url(#paint1_linear_1_30472)"/>
<path d="M410.158 11.4527L410.154 11.4521C405.53 10.8008 399.38 10.6058 379.418 10.5075M410.158 11.4527L435.334 21.5941C436.766 22.8733 438.246 24.8414 439.233 26.908C440.714 29.9093 440.862 30.4998 440.813 34.8788L441.813 34.8852C441.813 34.8868 441.813 34.8884 441.813 34.8901C441.786 38.8959 440.294 47.9702 438.368 57.2901C436.436 66.6394 434.031 76.3999 432.132 81.8053C428.927 90.9401 425.099 97.0747 418.914 103.241L418.91 103.245C404.555 117.405 387.984 123.115 361.894 123.165C338.913 123.214 318.854 116.889 308.073 105.942C302.992 100.801 297.739 92.2023 293.228 82.2877C288.708 72.3547 284.895 61.0151 282.731 50.3301L282.731 50.3263C281.953 46.4054 281.551 40.6074 281.454 39.0742C281.421 38.5552 281.594 38.0563 281.921 37.6691C282.488 36.9979 283.871 35.3634 284.741 34.3492C286.82 31.9229 287.968 30.8654 289.441 29.5092C290.118 28.8849 290.865 28.1973 291.802 27.2838C293.685 25.4492 297.506 22.9531 297.914 22.688C297.926 22.6804 297.937 22.6729 297.948 22.6656C297.96 22.658 297.971 22.6504 297.983 22.6427L298.12 22.5503C298.428 22.3426 298.755 22.164 299.096 22.0167L299.974 21.6377C300.075 21.5942 300.17 21.556 300.28 21.516C301.81 20.9607 317.909 15.1665 328.901 13.2773L328.902 13.2771C344.289 10.6545 350.627 10.3106 379.418 10.5075M410.158 11.4527C421.765 13.1339 430.885 16.3672 435.993 20.8418L436.001 20.8484C437.537 22.2215 439.094 24.2972 440.134 26.4725L410.158 11.4527ZM379.418 10.5075L379.414 11.5075M379.418 10.5075C379.419 10.5075 379.42 10.5075 379.42 10.5075L379.414 11.5075M379.414 11.5075C350.639 11.3107 344.371 11.6551 329.07 14.2628L410.014 12.4423C405.474 11.8027 399.403 11.6059 379.414 11.5075ZM2.62882 1.42384L2.62118 1.42668L2.61349 1.42938C2.09795 1.61078 1.62405 2.06961 1.3176 2.77762C1.01279 3.4818 0.907443 4.36726 1.08952 5.25455L1.09084 5.26118C1.4758 7.20399 2.68453 11.6641 3.93293 15.9645C5.18294 20.2704 6.43146 24.2724 6.8988 25.3738C8.42922 28.7439 10.4329 30.8377 13.9809 32.6061C14.9229 33.0756 15.9301 33.6944 16.8115 34.3229C17.6797 34.942 18.4858 35.6131 18.9847 36.1981L18.9909 36.2056C20.5728 38.0979 22.5337 41.786 24.6796 46.6729C26.8409 51.5952 29.2323 57.8345 31.6569 64.9129L31.6581 64.9164C38.7086 85.7563 42.7664 94.6416 49.3369 103.666L49.34 103.67C61.7676 120.928 80.2036 128.751 114.231 130.761L114.233 130.761C138.408 132.227 161.918 126.89 177.785 116.41L177.786 116.409C187.56 109.977 196.838 97.0186 209.326 72.0713C211.896 66.8982 214.644 61.3203 215.425 59.5691C216.488 57.1223 218.242 53.9425 219.951 51.1907C220.809 49.8108 221.663 48.5252 222.424 47.4819C223.165 46.4666 223.871 45.6048 224.431 45.1358C227.295 42.7057 231.769 41.0877 236.556 40.3603C241.362 39.63 246.623 39.7756 251.145 40.9972C253.047 41.4912 255.222 42.4262 257.089 43.4641C258.914 44.479 260.61 45.6833 261.416 46.78C263.851 50.018 266.707 55.2786 273.007 67.8897L273.008 67.8904C279.588 81.0839 285.292 91.2889 290.436 99.0075C295.584 106.733 300.137 111.917 304.4 115.116L304.401 115.117C313.7 122.117 326.997 127.046 344.03 129.688L344.034 129.689C347.502 130.241 355.029 130.55 362.761 130.593C370.482 130.636 378.272 130.414 382.251 129.93C398.744 127.826 411.805 123.578 421.354 117.2C423.439 115.806 426.245 113.306 428.977 110.484C431.704 107.668 434.301 104.591 435.984 102.075L435.986 102.071C442.227 92.8365 445.993 84.3294 452.995 63.8312C455.42 56.6552 457.713 50.6707 459.791 46.0384C461.856 41.4346 463.746 38.077 465.385 36.2319L465.39 36.2263L465.395 36.2207C466.525 34.9869 468.99 33.1527 470.942 32.1271C473.537 30.7154 475.069 29.4731 476.486 26.8238C477.959 24.0698 479.301 19.8068 481.356 12.2796C482.369 8.53577 482.885 6.11739 482.983 4.48536C483.079 2.88611 482.762 2.25893 482.331 1.85783L482.326 1.85272C482.194 1.72815 482.081 1.64436 481.805 1.56177C481.476 1.46335 480.935 1.37495 479.944 1.30524C477.97 1.16641 474.504 1.11719 468.046 1.04318L468.045 1.04317C460.461 0.944977 442.311 1.09232 427.806 1.43658L427.803 1.43665C413.291 1.73189 389.401 2.17474 374.741 2.42078C347.81 2.86331 340.894 3.30513 325.502 5.36411C308.647 7.67329 286.673 11.7016 274.526 14.6921C266.963 16.583 262.779 17.5929 258.939 18.1612C255.088 18.7312 251.598 18.8545 245.435 19.002L245.433 19.002C231.722 19.2991 226.701 18.7481 213.047 15.4814L213.047 15.4813C191.127 10.227 165.013 5.80657 142.899 3.64629L142.891 3.64537C137.862 3.11005 125.675 2.71628 106.457 2.42079C90.5624 2.17474 68.1511 1.73186 56.5974 1.43654C43.649 1.14153 30.5046 0.994049 20.3836 1.00018C15.322 1.00327 11.022 1.04475 7.88293 1.12518C6.31223 1.16542 5.04071 1.21519 4.1131 1.27408C3.64839 1.30359 3.28035 1.33475 3.00896 1.36674C2.78102 1.39362 2.67149 1.41595 2.63801 1.42279C2.6264 1.42516 2.62393 1.42566 2.62882 1.42384ZM182.326 98.3644L182.324 98.3681C178.113 104.615 173.464 109.166 168.114 112.163C153.553 120.343 132.72 124.453 113.555 123.014L113.552 123.014C102.393 122.149 93.6792 120.463 86.1684 117.408C78.6446 114.348 72.3796 109.934 66.0858 103.685L66.0844 103.684C60.6475 98.2637 56.8659 93.0264 53.6938 85.3619C50.5381 77.737 47.9934 67.7274 44.9817 52.7894L44.9809 52.7856C43.1042 43.2833 42.6433 40.1058 42.5929 35.3815L42.5929 35.3808C42.5683 32.9069 42.5905 31.345 42.7629 30.1095C42.9417 28.8275 43.2786 27.9175 43.8177 26.7402C45.7037 22.5585 49.6356 19.1586 55.1579 16.5854C60.6879 14.0085 67.8993 12.2179 76.5063 11.3004C84.7631 10.4078 85.6588 10.3599 110.921 10.5075C129.651 10.6058 136.925 10.8013 142.13 11.4497C160.237 13.6138 172.394 15.6469 183.406 20.5861C184.215 20.9425 185.236 21.5912 186.097 22.1782C186.976 22.7778 187.755 23.3591 188.093 23.6155C188.239 23.7261 188.37 23.8369 188.502 23.9592C189.706 25.0774 197.722 32.5371 200.722 35.8076L202.261 37.3418C202.672 37.7509 202.885 38.3182 202.845 38.8965L202.58 42.7175C202.58 42.7183 202.58 42.719 202.58 42.7197C202.102 50.0922 199.4 60.4541 195.661 70.7028C191.919 80.9622 187.099 91.2146 182.326 98.3644Z" fill="#282828" stroke="#DCA34C" stroke-width="2"/>
<ellipse cx="26.847" cy="13.4035" rx="5.5" ry="2.5" transform="rotate(9.84447 26.847 13.4035)" fill="#6F746E"/>
<ellipse cx="5.5" cy="2.5" rx="5.5" ry="2.5" transform="matrix(-0.985276 0.170974 0.170974 0.985276 460.838 10)" fill="#6F746E"/>
<defs>
<linearGradient id="paint0_linear_1_30472" x1="119" y1="5.5" x2="119" y2="126.5" gradientUnits="userSpaceOnUse">
<stop stop-color="#1C1C1C"/>
<stop offset="1" stop-color="#322C21" stop-opacity="0"/>
</linearGradient>
<linearGradient id="paint1_linear_1_30472" x1="356" y1="6" x2="356" y2="127" gradientUnits="userSpaceOnUse">
<stop stop-color="#1C1C1C"/>
<stop offset="1" stop-color="#322C21" stop-opacity="0"/>
</linearGradient>
</defs>
</svg>
