<svg width="1145" height="469" viewBox="0 0 1145 469" fill="none" xmlns="http://www.w3.org/2000/svg">
<g clip-path="url(#clip0_8_3)">
<rect x="546.88" y="122.392" width="42.77" height="42.77" rx="6.885" transform="rotate(16.9771 546.88 122.392)" stroke="#DCA34C" stroke-width="2.23"/>
<rect x="551.14" y="130" width="30" height="30" rx="4" transform="rotate(16.9771 551.14 130)" fill="#DCA34C"/>
<rect x="541.741" y="111.392" width="59.77" height="59.77" rx="8.885" transform="rotate(16.9771 541.741 111.392)" stroke="#DCA34C" stroke-width="2.23"/>
<path d="M560 139C559 137.5 552 136 548.5 136.5C546.833 137 542.7 138.7 539.5 141.5C535.5 145 532.5 159 531.5 164.5C530.7 168.9 527.833 199.333 526.5 214C538.333 216.5 562 220.6 562 217C562 212.5 562 187 563 181.5C564 176 565.5 153 565 149.5C564.5 146 561 140.5 560 139Z" fill="#282828"/>
<path fill-rule="evenodd" clip-rule="evenodd" d="M495.108 307.109L511.767 311.916C511.546 315.421 507.803 324.715 506.32 328.427C505.197 331.238 503.897 334.289 502.395 336.94C500.792 339.769 500.172 341.225 498.197 336.171C494.805 327.487 494.162 318.5 495.108 307.109ZM455.055 268.964C456.132 274.7 451.954 275.162 455.149 285.189C456.126 288.257 457.271 286.898 456.32 290.812C449.718 284.144 452.592 271.337 455.055 268.964ZM458.599 282.71C458.314 282.164 456.191 267.147 456.26 265.814C456.592 259.352 462.125 251.062 468.713 255.88C473.199 259.16 474.501 266.629 473.071 272.321C470.952 280.761 463.693 282.089 458.599 282.71ZM521.908 276.141C522.021 278.288 517.217 295.802 515.853 297.931C512.481 294.478 510.808 290.633 511.885 285.754C513.197 279.807 518.056 276.587 521.908 276.141ZM469.157 214.275L458.58 250.605C459.518 241.775 454.773 241.073 458.013 231.239C459.218 227.584 460.311 224.052 461.461 220.406C462.536 216.993 461.987 217.71 468.01 214.775L469.157 214.275ZM605.714 294.148C607.895 296.38 609.422 299.196 612.666 300.817L614.863 298.701L612.401 304.304C608.567 301.316 606.688 297.615 605.714 294.148ZM602.701 285.196C605.938 280.447 611.473 277.287 615.908 282.877C619.278 287.126 614.861 293.697 612.389 298.952C608.135 295.921 603.815 288.794 602.701 285.196ZM465.328 201.931C469.849 198.851 466.696 202.909 473.535 196.195L474.561 195.302C474.644 195.233 474.795 195.107 474.923 195.026C474.643 198.935 472.565 203.593 471.424 207.561C470.161 211.955 470.234 212.409 463.168 215.425C465.026 208.253 465.604 208.357 465.328 201.931ZM611.012 255.823C614.635 259.874 618.731 266.26 620.528 270.495C623.298 277.025 622.875 281.133 618.545 289.464C618.463 286.551 619.449 281.154 612.609 278.673C607.267 276.734 603.665 282.605 601.267 283.703C600.322 281.001 599.431 278.927 598.287 276.085C600.712 272.467 604.197 270.705 606.711 267.69C608.71 265.294 609.45 259.08 611.012 255.823ZM630.645 247.341C628.482 245.373 625.554 239.663 624.331 237.291C623.034 234.777 620.458 229.31 625.665 227.225C630.136 225.435 633.096 232.804 633.049 234.981C632.991 237.65 631.493 244.575 630.645 247.341ZM466.486 160.326C469.555 157.561 472.574 155.809 476.031 152.202C479.834 148.233 481.113 146.994 485.205 144.159C483.663 147.97 479.581 152.188 476.777 154.69C473.31 157.783 470.03 159.731 466.486 160.326ZM625.158 241.909C626.554 244.29 628.996 247.455 630.006 249.596C626.945 255.608 621.706 255.215 615.62 251.542C605.848 245.646 609.734 230.815 617.564 223.269C620.293 220.637 620.966 222.04 622.196 217.762C622.993 214.99 623.726 212.112 624.71 209.352C631.153 214.536 635.529 224.31 633.74 231.295C632.13 229.034 629.714 224.219 625.526 225.5C622.449 226.441 620.048 230.853 621.031 233.87C621.5 235.306 623.953 239.854 625.158 241.909ZM555.321 138.515C563.483 140.519 562.983 148.246 561.323 154.843C559.17 163.397 554.602 167.944 546.47 164.543C538.982 161.412 538.445 153.887 540.121 147.248C542.438 138.073 547.785 136.665 555.321 138.515ZM644.758 142.256C650.701 146.277 652.595 150.63 649.728 157.349C647.439 162.714 640.695 168.002 636.937 168.271L644.758 142.256ZM525.766 59.5749C529.102 59.7073 619.352 87.3079 632.609 91.2371C637.178 92.5906 644.163 94.2457 648.303 96.0697L595.941 271.462C591.532 266.144 589.196 261.097 580.125 259.014C572.449 257.251 569.315 259.63 563.479 263.743C561.709 256.461 562.186 238.811 562.652 230.611C563.314 218.933 562.627 208.197 562.591 196.999C562.555 185.782 564.749 174.027 565.796 162.376C566.732 151.953 567.244 136.322 552.461 135.187C529.132 133.395 529.521 176.891 527.443 195.799C526.061 208.377 524.799 218.022 525.246 230.105C525.545 238.198 526.179 256.914 524.507 264.799L469.462 248.204L525.766 59.5749ZM467.783 248.866C471.898 251.362 514.615 262.709 524.662 266.337C523.239 272.138 524.211 273.753 520.753 274.885C512.657 277.535 508.546 284.382 510.461 291.434C511.926 296.825 512.374 295.354 515.546 299.936L513.294 307.819L494.46 302.2C495.149 298.761 493.737 289.717 493.138 286.715C491.822 280.124 491.317 278.25 488.494 271.956C484.182 262.343 474.888 252.261 462.253 253.089C466.223 242.593 469.511 229.082 472.796 218.121L504.366 112.259C511.356 88.8175 518.118 65.4981 525.268 42.1234C527.281 35.5412 532.317 31.5679 536.825 30.5505C542.205 29.3362 547.661 31.6554 553.943 33.5307L624.017 54.4831C632.848 57.1305 652.835 60.753 656.957 68.7277C659.607 73.8523 659.603 77.298 657.43 84.3743L620.67 207.638C619.017 213.138 617.88 220.273 614.391 224.723C604.572 237.246 610.462 242.269 608.158 249.626C607.257 252.502 606.33 255.632 605.48 258.512C604.258 262.649 602.457 273.008 596.957 274.109C597.233 270.541 649.275 97.7555 650.043 95.1939C646.555 93.4069 617.082 85.0562 610.733 83.134L531.682 59.5318C523.646 57.1038 525.715 54.7362 521.077 70.1853L491.503 169.34C483.51 195.626 476.285 222.855 467.783 248.866ZM491.196 150.491C491.92 148.346 491.305 146.715 491.748 144.568C492.185 142.454 493.102 139.943 493.719 137.831L505.31 98.9878C510.485 81.7855 515.612 64.4537 520.762 47.1832C524.108 35.967 525.045 31.0275 535.127 27.6961C541.868 25.4684 551.939 30.0054 560.053 32.3423L637.728 55.5673C646.566 58.2152 658.439 59.8399 661.454 70.5717C662.28 73.5088 662.573 75.6411 661.941 78.9244C660.907 84.2949 636.931 163.366 635.043 169.549C633.053 176.067 621.593 218.483 618.687 220.52C618.537 218.119 651.637 108.848 656.432 92.792C659.539 82.3865 662.423 77.4667 658.729 68.9868C655.276 61.0607 645.104 59.2609 636.864 56.8345L560.142 33.8733C551.54 31.3599 542.73 27.3567 535.686 29.49C526.392 32.3049 524.926 38.7448 521.761 48.9066C518.951 57.9278 493.753 145.263 491.196 150.491ZM310.819 388.161L311.552 389.228L363.305 335.98C376.224 322.894 377.458 321.205 385.584 303.326C391.232 290.898 394.512 277.717 398.638 264.731C402.438 252.771 404.185 237.967 410.728 227.538C419.414 213.694 425.121 201.613 432.468 187.143C436.888 178.437 437.928 176.728 445.046 172.322C447.965 170.514 460.269 162.814 462.91 162.142C464.627 161.705 465.42 162.302 467.331 162C475.478 160.708 483.04 149.994 487.469 143.536C490.68 144.718 490.433 146.57 489.9 149.587C489.4 152.421 488.411 155.203 487.599 158.012C484.337 169.294 482.787 181.284 475.853 190.768C474.175 193.064 472.645 195.315 470.611 197.181C468.02 199.557 466.499 199.114 463.939 201.202C463.443 206.395 465.528 202.994 462.072 213.775L455.692 233.605C454.039 238.922 457.33 241.533 456.895 251.42C456.226 266.639 446.291 276.145 453.037 288.693C456.488 295.113 456.906 289.821 453.969 300.582C450.424 313.571 457.764 326.451 457.311 347.708C457.02 361.371 451.232 369.476 460.116 388.964C460.917 390.721 461.652 392.244 462.414 394.295C460.818 395.907 444.413 401.788 440.496 403.083C437.954 403.924 435.758 404.512 433.16 406.829C429.191 410.368 413.482 435.225 410.977 440.765L411.783 441.662C414.543 438.973 427.383 414.489 433.628 408.368C438.914 403.187 456.064 400.736 462.588 395.904C464.776 398.191 477.732 427.306 479.953 431.805C481.976 435.901 483.875 439.621 485.839 443.74C490.229 452.944 493.714 457.282 497.82 467.544L505.225 485.912C506.162 488.496 506.023 490.061 507.776 491.842L508.568 492.639C509.276 491.325 506.198 484.902 505.574 483.348C501.816 473.988 498.986 464.224 493.78 455.435C486.317 442.834 470.27 408.366 464.263 394.562C455.265 373.885 455.479 373.424 458.262 353.905C461.681 329.926 450.703 315.968 456.043 298.689C458.012 292.316 457.75 289.656 458.485 284.214C460.238 284.171 461.55 283.979 463.128 283.523C473.107 280.637 476.757 272.263 474.673 263.708C473.049 257.039 472.916 259.124 470.97 255.621C486.13 261.238 491.934 282.269 492.971 296.892C493.838 309.108 492.16 321.262 495.142 332.273C495.61 334.001 498.015 341.333 500.711 341.545C506.994 339.557 525.353 274.633 526.374 262.574C527.017 254.987 527.084 246.15 526.866 238.925C526.038 211.362 527.348 215.137 529.516 190.302C530.417 179.995 532.092 148.783 540.767 141C536.692 150.899 535.038 162.276 546.718 166.386C559.376 170.84 561.925 159.283 564.101 148.788C565.949 156.822 563.053 173.175 561.992 183.003C560.674 195.22 561.323 205.114 561.508 216.767C561.686 228.077 560.443 239.341 560.895 250.588C561.122 256.245 561.471 261.573 562.278 267.172C562.82 270.925 563.222 280.36 566.166 283.001C566.943 280.202 566.106 280.726 565.529 277.913C565.228 276.449 564.951 275.167 564.733 273.705C564.296 270.761 563.912 268.105 563.605 265.28C567.448 263.309 570.788 257.952 580.66 260.653C593.219 264.089 598.067 279.153 602.304 289.952C609.526 308.36 609.912 304.418 622.124 309.278C640.017 316.398 638.084 324.805 642.782 329.979C647.534 335.212 660.91 341.724 661.436 352.117C661.702 357.363 659.98 359.3 661.362 361.001C663.06 359.745 662.955 354.121 662.886 352.087C662.523 341.471 650.133 334.959 644.647 329.811C641.95 327.281 641.415 324.571 640.007 321.939C638.562 319.238 636.916 316.712 634.15 314.463C626.855 308.534 621.399 308.074 613.636 304.815C616.24 299.608 618.141 293.983 620.68 288.522C625.759 277.595 624.348 273.142 617.718 262.438C612.174 253.486 610.265 255.419 612.437 251.056C617.616 255.212 624.754 257.233 628.733 253.902C632.53 250.724 633.516 241.543 634.212 237.057C635.652 227.774 636.492 228.835 634.221 220.843C633.028 216.644 629.542 211.523 625.151 207.771L636.597 169.977C643.642 169.971 659.557 154.443 648.978 143.72L645.652 140.633C645.669 140.431 645.446 140.391 645.366 140.255L657.732 98.4416C661.497 85.8313 669.348 71.0807 656.651 61.1377C651.471 57.0809 622.504 49.5737 614.406 47.1159L583.169 37.7761C576.523 35.7783 575.999 36.4402 574.132 33.7772C572.32 31.192 567.25 30.5855 564.101 29.6702C555.661 27.215 557.834 27.0344 554.349 28.3257C549.844 29.9951 544.421 23.4626 534.668 26.2365C516.91 31.2878 517.102 63.4337 511.444 72.2853C508.386 77.0691 507.467 81.9744 505.828 87.5288C503.804 94.3909 508.16 89.6364 503.489 96.6711C502.226 98.5749 498.649 110.863 498.485 112.488C498.238 114.921 499.279 114.12 498.371 117.357L489.78 142.736C489.637 142.693 489.479 142.639 489.32 142.591C488.659 142.392 488.723 142.319 487.907 142.158C483.482 141.285 478.273 147.717 475.495 150.602C460.862 165.794 441.718 166.591 433.171 182.571C425.883 196.198 420.278 209.947 411.881 223.041C406.48 231.463 405.399 233.402 403.148 242.673C400.726 252.651 389.084 292.605 385.466 300.175C375.624 320.761 379.678 317.311 362.817 334.41C354.05 343.3 345.268 352.511 336.472 361.505L310.819 388.161Z" fill="#625B55"/>
<path fill-rule="evenodd" clip-rule="evenodd" d="M562.408 56.514C563.725 54.6054 562.595 55.0582 568.986 56.9845L590.851 63.5229C595.49 64.9235 618.12 70.7093 619.619 72.9865C618.248 74.9433 619.505 74.6027 613.175 72.7049L591.308 66.16C587.352 64.9628 563.553 58.7725 562.408 56.514V56.514ZM619.613 75.4999L621.233 72.656C618.987 69.2737 611.713 68.1832 607.351 66.904L576.079 57.5557C570.557 55.891 562.898 52.4577 561.277 55.3365C558.781 59.7712 570.159 61.3779 573.037 62.2416C581.21 64.6928 616.354 75.8852 619.613 75.4999V75.4999Z" fill="#625B55"/>
<path d="M533.904 90.4067L534.837 90.047L534.837 90.047L533.904 90.4067ZM387.706 48.9926L387.1 48.1969L387.1 48.1969L387.706 48.9926ZM371.797 60.2216C371.723 60.7689 372.107 61.2727 372.654 61.3468L381.572 62.5548C382.12 62.6289 382.623 62.2453 382.697 61.698C382.771 61.1507 382.387 60.6469 381.84 60.5728L373.913 59.499L374.984 51.5709C375.057 51.0236 374.674 50.5198 374.127 50.4457C373.579 50.3716 373.076 50.7552 373.002 51.3025L371.797 60.2216ZM540.736 105.338L534.837 90.047L532.971 90.7664L538.87 106.057L540.736 105.338ZM387.1 48.1969L372.182 59.5602L373.394 61.1515L388.312 49.7882L387.1 48.1969ZM534.837 90.047C511.812 30.3625 437.973 9.44576 387.1 48.1969L388.312 49.7882C438.125 11.8444 510.426 32.3254 532.971 90.7664L534.837 90.047Z" fill="#675335"/>
</g>
<g opacity="0.8" clip-path="url(#clip1_8_3)" filter="url(#filter0_f_8_3)">
<path d="M266.521 242.08L271.621 236.972L269.909 235.257L266.712 238.459L260.903 232.638L259 234.55L266.521 242.08ZM268.621 227.984L269.909 229.269L272.551 226.613L274.085 228.15L271.436 230.806L273.075 232.441L276.346 229.164L277.88 230.701L272.705 235.89L265.178 228.359L270.359 223.164L271.892 224.701L268.621 227.984ZM285.37 223.213L280.251 221.744C280.536 221.133 280.621 220.448 280.494 219.785C280.367 219.123 280.034 218.518 279.543 218.055C279.249 217.782 278.903 217.569 278.526 217.43C278.148 217.292 277.747 217.23 277.345 217.248C276.944 217.267 276.55 217.365 276.187 217.537C275.823 217.71 275.499 217.953 275.231 218.252L271.418 222.07L278.976 229.607L280.885 227.695L274.8 221.596L276.032 220.367C276.157 220.237 276.307 220.132 276.472 220.06C276.638 219.987 276.816 219.948 276.997 219.945C277.178 219.941 277.358 219.974 277.526 220.04C277.694 220.106 277.848 220.205 277.978 220.33C278.234 220.593 278.374 220.947 278.368 221.314C278.362 221.68 278.211 222.03 277.947 222.285L276.826 223.41L283.331 225.254L285.37 223.213ZM281.926 211.25C284.279 208.895 287.39 209.123 289.589 211.33C291.788 213.537 292.022 216.654 289.669 219.008C287.316 221.363 284.212 221.135 282.007 218.91C279.801 216.684 279.573 213.586 281.926 211.231M283.417 212.762C282.222 213.955 282.622 215.412 284.076 216.869C285.53 218.326 286.977 218.713 288.172 217.527C289.367 216.34 288.967 214.877 287.513 213.42C286.06 211.963 284.612 211.533 283.417 212.762ZM291.856 207.291L290.451 203.037L292.681 200.805L294.548 208.102L297.492 211.053L295.589 212.965L292.657 210.027L285.678 207.82L287.778 205.717L291.813 207.285L291.856 207.291ZM326.652 233.259L334.179 225.728L332.171 223.717L324.65 231.248L326.652 233.259ZM297.874 204.426L303.726 201.629L299.402 205.957L301.145 207.703L308.66 200.166L306.276 197.774L300.615 200.541L303.448 194.94L300.985 192.475L293.464 200.006L295.201 201.752L299.525 197.424L296.734 203.283L297.874 204.426ZM310.914 205.496L309.627 206.781L312.516 209.67L310.982 211.207L308.099 208.317L306.461 209.953L309.972 213.469L308.438 215.006L303.017 209.578L310.538 202.041L315.959 207.469L314.425 209.006L310.914 205.496ZM318.17 224.769L323.27 229.883L324.989 228.162L321.792 224.965L327.601 219.144L325.691 217.238L318.17 224.769ZM338.436 229.988L336.021 237.974H336.015L341.214 232.773L343 234.562L335.479 242.093L333.12 239.732L335.177 231.5H335.183L330.046 236.646L328.309 234.906L335.824 227.375L338.436 229.988ZM316.747 223.342L318.195 218.215C318.807 218.504 319.495 218.59 320.16 218.462C320.824 218.334 321.431 217.998 321.891 217.502C322.162 217.208 322.373 216.862 322.511 216.486C322.648 216.11 322.71 215.711 322.692 215.311C322.674 214.911 322.577 214.518 322.407 214.156C322.237 213.793 321.996 213.468 321.7 213.199L317.653 209.141L310.126 216.697L312.035 218.609L318.133 212.51L319.581 213.992C319.707 214.117 319.807 214.266 319.876 214.431C319.944 214.595 319.979 214.771 319.98 214.949C319.98 215.126 319.945 215.303 319.877 215.467C319.809 215.631 319.71 215.781 319.584 215.907C319.458 216.033 319.309 216.133 319.144 216.201C318.98 216.269 318.803 216.305 318.625 216.305C318.447 216.305 318.27 216.27 318.106 216.203C317.941 216.135 317.791 216.035 317.665 215.91L316.285 214.539L314.684 221.301L316.747 223.342Z" fill="#FBEDD0"/>
<path d="M267.95 243.525H334.062L301.003 210.408L267.95 243.525Z" fill="#DCA34C"/>
</g>
<g clip-path="url(#clip2_8_3)" filter="url(#filter1_f_8_3)">
<path d="M820.75 149.713V105.463H811.75V98.0875H828.25V149.713H820.75Z" fill="#FBEDD0"/>
<path d="M827.5 98.825V148.975H821.5V106.2V104.725H820H812.5V98.825H827.5ZM829 97.35H811V106.2H820V150.45H829V97.35Z" fill="#DCA34C"/>
<path d="M832.75 149.712V93.6625H820.75V86.2875H840.25V149.712H832.75Z" fill="#FBEDD0"/>
<path d="M839.5 87.025V148.975H833.5V94.4V92.925H832H821.5V87.025H839.5ZM841 85.55H820V94.4H832V150.45H841V85.55Z" fill="#DCA34C"/>
<path d="M880 149.713C862.218 149.713 847.75 135.486 847.75 118C847.75 100.514 862.218 86.2876 880 86.2876C897.532 86.2876 911.842 100.116 912.241 117.263H904.74C904.342 104.182 893.396 93.6626 880 93.6626C866.353 93.6626 855.25 104.581 855.25 118C855.25 131.42 866.353 142.338 880 142.338H930.25V149.713H880Z" fill="#FBEDD0"/>
<path d="M880 87.025C896.866 87.025 910.679 100.127 911.465 116.525H905.457C904.677 103.383 893.557 92.925 880 92.925C865.939 92.925 854.5 104.173 854.5 118C854.5 131.827 865.939 143.075 880 143.075H929.5V148.975H880C862.631 148.975 848.5 135.079 848.5 118C848.5 100.921 862.631 87.025 880 87.025ZM880 85.55C861.804 85.55 847 100.107 847 118C847 135.893 861.804 150.45 880 150.45H931V141.6H880C866.767 141.6 856 131.012 856 118C856 104.988 866.767 94.4 880 94.4C893.233 94.4 904 104.988 904 118H913C913 100.107 898.196 85.55 880 85.55Z" fill="#DCA34C"/>
<path d="M880 134.963C870.488 134.963 862.75 127.353 862.75 118C862.75 108.647 870.488 101.038 880 101.038C889.259 101.038 896.84 108.25 897.233 117.263H889.721C889.337 112.318 885.124 108.413 880 108.413C874.624 108.413 870.25 112.714 870.25 118C870.25 123.286 874.624 127.588 880 127.588H930.25V134.963H880Z" fill="#FBEDD0"/>
<path d="M880 101.775C888.593 101.775 895.672 108.267 896.433 116.525H890.393C889.663 111.528 885.281 107.675 880 107.675C874.21 107.675 869.5 112.307 869.5 118C869.5 123.694 874.21 128.325 880 128.325H929.5V134.225H880C870.902 134.225 863.5 126.946 863.5 118C863.5 109.054 870.902 101.775 880 101.775ZM880 100.3C870.074 100.3 862 108.24 862 118C862 127.76 870.074 135.7 880 135.7H931V126.85H880C875.036 126.85 871 122.881 871 118C871 113.119 875.036 109.15 880 109.15C884.963 109.15 889 113.119 889 118H898C898 108.24 889.925 100.3 880 100.3Z" fill="#DCA34C"/>
</g>
<g opacity="0.9" filter="url(#filter2_f_8_3)">
<g clip-path="url(#clip3_8_3)">
<path d="M744.985 300H695.015C695.007 300 695 300.007 695 300.015V349.985C695 349.993 695.007 350 695.015 350H744.985C744.993 350 745 349.993 745 349.985V300.015C745 300.007 744.993 300 744.985 300Z" fill="#5B5A5F"/>
<path d="M714.434 339.453C713.359 339.453 713.457 339.062 713.164 338.086L710.039 327.832L733.965 313.77" fill="#888888"/>
<path d="M714.434 339.453C715.117 339.453 715.508 339.062 715.996 338.672L720.391 334.473L714.922 331.152" fill="#625B55"/>
<path d="M714.922 331.152L728.105 340.82C729.473 341.699 730.644 341.211 731.035 339.453L736.406 314.258C736.894 312.109 735.527 311.133 734.062 311.816L702.715 323.926C700.664 324.707 700.664 325.977 702.324 326.465L710.43 329.004L728.984 317.188C729.863 316.699 730.644 316.895 730.059 317.578" fill="#FBEDD0"/>
</g>
</g>
<g opacity="0.8" filter="url(#filter3_f_8_3)">
<path d="M34.8464 47.0752H26.8134C18.7804 47.0752 11.8683 53.1314 11.8683 64.8652C11.8683 71.8676 15.231 77.1668 21.0222 79.8163L10.187 99.4989C9.81339 100.067 10.187 100.634 10.7475 100.634H15.7914C16.165 100.634 16.5387 100.445 16.7255 100.067L26.6266 80.7626H30.176V100.067C30.176 100.256 30.3628 100.634 30.7365 100.634H35.22C35.5936 100.634 35.7804 100.445 35.7804 100.067V47.8322C35.5936 47.2645 35.4068 47.0752 34.8464 47.0752ZM30.176 76.2205H27.187C14.2969 76.2205 15.231 51.6173 26.6266 51.6173H30.3628V76.2205H30.176Z" fill="#DCA34C"/>
<path d="M61.7472 64.8652H57.2637C56.8901 64.8652 56.7033 65.0544 56.7033 65.433V79.0593H48.4835V65.433C48.4835 65.0544 48.2967 64.8652 47.9231 64.8652H43.6264C43.2527 64.8652 43.0659 65.0544 43.0659 65.433V100.067C43.0659 100.445 43.2527 100.634 43.6264 100.634H48.1099C48.4835 100.634 48.6703 100.445 48.6703 100.067V83.4122H56.8901V100.067C56.8901 100.445 57.0769 100.634 57.4505 100.634H61.9341C62.3077 100.634 62.4945 100.445 62.4945 100.067V65.433C62.3077 65.0544 62.1209 64.8652 61.7472 64.8652ZM162.626 95.903C162.626 95.7138 162.44 95.7138 162.253 95.7138C160.385 95.7138 148.989 101.202 148.989 83.0337C148.989 75.085 151.978 63.9189 159.077 70.5428C159.264 70.7321 159.451 70.7321 159.637 70.7321C159.824 70.7321 160.011 70.5428 160.198 70.1643L162.066 66.947C162.253 66.7577 162.253 66.5685 162.253 66.3792C162.253 66.0007 161.879 65.8115 161.505 65.6222C149.176 59.3768 142.824 70.9214 142.824 84.3585C142.824 101.77 155.341 104.23 162.44 98.9311C162.813 98.7419 162.813 98.3634 162.813 98.1741L162.626 95.903ZM131.989 80.9519L140.582 65.2437C140.769 65.0544 140.582 64.6759 140.396 64.6759H136.099C134.791 64.6759 134.418 65.0544 134.044 66.0007C133.67 66.947 127.319 80.3841 126.571 80.9519V65.2437C126.571 65.0544 126.385 64.6759 126.198 64.6759H121.527C121.341 64.6759 121.154 64.8652 121.154 65.2437V100.067C121.154 100.256 121.341 100.634 121.527 100.634H126.198C126.571 100.634 126.571 100.445 126.571 100.067V82.0874C127.132 82.4659 134.978 98.9311 135.165 99.4989C135.538 100.256 136.286 100.634 137.22 100.634H141.89C142.264 100.634 142.264 100.445 142.077 100.067L131.989 80.9519ZM91.0769 96.0923H90.1429C89.022 96.0923 88.8352 95.7138 88.8352 94.7675V65.2437C88.8352 64.8652 88.6483 64.6759 88.4615 64.6759H74.0769C73.7033 64.6759 73.5165 64.8652 73.5165 65.2437C73.5165 73.1924 73.7033 86.4403 68.4725 96.0923H66.978C66.6044 96.0923 66.4176 96.2816 66.4176 96.6601V107.069C66.4176 107.448 66.7912 107.637 66.978 107.637H70.3406C71.0879 107.637 71.4615 107.069 71.4615 106.501V100.634H86.5934V107.069C86.5934 107.258 86.7802 107.637 87.1538 107.637H90.8901C91.2637 107.637 91.8242 107.258 91.8242 106.501V96.6601C91.6374 96.2816 91.4505 96.0923 91.0769 96.0923ZM83.2308 96.0923H72.7692C75.7582 91.1717 78.5604 83.2229 78.5604 69.2181H83.2308V96.0923ZM105.648 63.9189C97.989 63.9189 94.4396 73.5709 94.4396 84.1692C94.4396 101.581 106.396 104.23 114.615 99.1204C114.989 98.9311 114.989 98.7419 114.989 98.5526L114.429 96.0923C114.429 95.903 114.242 95.7138 113.868 95.7138C110.879 95.7138 100.418 101.013 100.418 83.7907C104.154 84.1692 104.154 84.1692 115.363 84.1692C115.176 75.4635 114.242 63.9189 105.648 63.9189ZM100.604 79.8164C100.604 66.0007 109.571 63.3512 109.571 79.4378C105.648 79.4378 103.967 79.4378 100.604 79.8164Z" fill="#5B5A5F"/>
</g>
<g opacity="0.5" filter="url(#filter4_f_8_3)">
<path fill-rule="evenodd" clip-rule="evenodd" d="M139.457 328.389H131.351C118.704 328.389 127.892 301.609 138.539 301.609H151.347C153.401 301.609 157.022 301.986 158.806 296.921L161.562 289.054H143.997C134.485 289.054 127.081 292.395 121.731 297.999C112.489 307.59 109.355 322.569 111.57 329.736C113.678 336.364 119.407 340.728 128.378 340.836L135.35 340.89H143.943L146.051 334.585C147.618 330.113 144.105 328.389 139.457 328.389ZM238.143 317.289L240.791 308.721H212.526C207.824 308.721 205.716 310.015 204.906 312.709L202.257 321.276H230.523C235.225 321.276 237.332 319.983 238.143 317.289ZM198.042 332.376L195.394 340.944H223.659C228.307 340.944 230.469 339.65 231.279 336.956L233.928 328.389H205.662C201.014 328.389 198.907 329.682 198.042 332.376ZM244.736 297.675L247.385 289.108H219.119C214.417 289.108 212.31 290.401 211.499 293.095L208.851 301.663H237.116C241.765 301.663 243.872 300.369 244.736 297.675ZM202.041 299.4C200.852 291.425 196.583 289.108 186.206 289.108H167.291L156.265 321.276H163.237C167.399 321.276 169.506 321.33 171.722 315.403L176.316 301.609H183.342C189.341 301.609 187.99 309.099 184.963 316.373C182.261 322.785 177.559 328.443 171.884 328.443H160.157C155.455 328.443 153.293 329.736 152.428 332.43L149.51 340.998H158.103L166.534 340.944C173.992 340.89 180.099 340.351 187.233 333.939C194.799 327.096 203.554 309.53 202.041 299.4ZM297.052 289.054H280.677L265.274 305.381C263.49 307.267 261.652 309.152 259.868 311.362H259.706L267.381 289.054H254.033L236.035 340.944H249.384L255.113 324.617L261.057 319.606L265.76 334.37C267.219 338.95 268.733 340.944 271.976 340.944H282.19L271.705 311.954L297.052 289.054Z" fill="#DCA34C"/>
</g>
<g clip-path="url(#clip4_8_3)" filter="url(#filter5_f_8_3)">
<path fill-rule="evenodd" clip-rule="evenodd" d="M105.747 152C83.8299 152 66 169.83 66 191.747C66 213.664 83.8299 231.494 105.747 231.494C127.662 231.494 145.494 213.664 145.494 191.747C145.494 169.83 127.662 152 105.747 152Z" fill="#5B5A5F"/>
<path fill-rule="evenodd" clip-rule="evenodd" d="M125.805 163.238C122.771 171.018 115.865 172.637 105.862 172.637C104.788 172.637 103.724 172.62 102.698 172.605C101.705 172.592 100.767 172.576 99.8468 172.576C99.0297 172.576 98.2059 172.587 97.3939 172.622C98.7951 169.182 101.032 166.844 104.216 165.426C108.654 163.45 114.424 163.43 119.515 163.415C121.733 163.407 123.857 163.398 125.805 163.238Z" fill="#5B5A5F"/>
<path fill-rule="evenodd" clip-rule="evenodd" d="M128.921 165.735C124.434 175.509 114.434 176.488 105.861 176.488C103.979 176.488 102.176 176.442 100.507 176.432L98.3477 184.876C109.405 175.862 124.027 184.799 122.464 198.401C121.411 207.563 114.879 213.554 107.97 215.276C100.443 217.153 92.1033 214.344 88.3641 206.673C87.9674 205.863 87.277 204.239 87.0136 203.371L94.9512 201.332C95.0913 201.789 95.3293 202.232 95.5792 202.635C100.893 211.206 111.662 206.92 112.877 198.028C114.115 188.983 101.423 184.165 95.6399 194.736L88.6005 191.737L88.4789 191.683L91.8737 178.054C92.0831 177.086 92.7887 174.379 92.9102 173.935C96.7473 159.826 109.16 159.603 119.117 159.566C114.999 157.853 110.485 156.904 105.747 156.904C86.5021 156.904 70.9039 172.502 70.9039 191.747C70.9039 210.991 86.5021 226.59 105.747 226.59C124.991 226.59 140.589 210.991 140.589 191.747C140.589 181.402 136.079 172.116 128.921 165.735Z" fill="#DCA34C"/>
</g>
<g opacity="0.8" filter="url(#filter6_f_8_3)">
<path d="M963.888 239.869H963.746L960.8 226.061H947.932V251.277H955.335V231.435H955.564L959.883 251.277H967.117L971.608 231.435H971.807V251.277H979.587V226.061H966.716L963.888 239.869Z" fill="#5B5A5F"/>
<path d="M1082.45 232.379H1065.86C1065.86 235.889 1066.69 242.837 1063.8 245.873H1061.8V254.652H1069.18V251.277H1077.33V254.652H1084.74V245.873H1082.45V232.379ZM1075.04 245.873H1070.89C1072.43 243.241 1072.3 240.759 1072.3 237.81H1075.04V245.873Z" fill="#5B5A5F"/>
<path d="M1095.66 231.95C1089.46 231.95 1085.16 235.439 1085.16 241.842C1085.16 248.183 1089.51 251.706 1095.66 251.706C1101.76 251.706 1106.21 248.174 1106.21 241.842C1106.21 235.452 1101.81 231.95 1095.66 231.95ZM1095.66 246.302C1094.04 246.302 1093.85 244.028 1093.85 242.843V240.813C1093.85 239.592 1094.02 237.382 1095.66 237.382C1097.53 237.382 1097.43 240.557 1097.43 241.842C1097.43 243.087 1097.51 246.302 1095.66 246.302Z" fill="#5B5A5F"/>
<path d="M1126.45 226.061L1123.65 239.869H1123.51L1120.51 226.061H1107.67V251.277H1115.05V231.435H1115.27L1119.62 251.277H1126.85L1131.35 231.435H1131.54V251.277H1139.32V226.061H1126.45Z" fill="#5B5A5F"/>
<path d="M1048.7 241.241H1048.5V232.379H1041.07V251.277H1049.13L1052.88 242.469H1053.02V251.277H1060.48V232.379H1052.48L1048.7 241.241Z" fill="#5B5A5F"/>
<path d="M990.452 231.95C988.411 231.95 984.958 232.427 983.046 233.093V238.039C984.602 237.243 987.204 236.552 988.993 236.552C991.07 236.552 993.106 236.935 992.967 239.468C988.015 239.468 981.013 239.224 981.013 246.042C981.013 249.634 983.405 251.706 986.933 251.706C989.484 251.706 991.236 251.015 992.853 248.989H992.967V251.278H1000.43V239.239C1000.43 233.319 995.355 231.95 990.452 231.95ZM992.97 244.1C992.97 245.509 992.328 247.131 990.681 247.131C989.611 247.131 988.793 246.413 988.793 245.331C988.793 243.31 990.591 243.015 992.225 243.015C992.473 243.015 992.717 243.054 992.967 243.042V244.1H992.97Z" fill="#5B5A5F"/>
<path d="M1031.52 241.869C1031.52 239.043 1033.13 237.381 1035.95 237.381C1036.99 237.381 1038.36 237.737 1039.27 238.238V232.834C1037.46 232.288 1035.46 231.947 1033.58 231.947C1027.21 231.947 1022.74 235.011 1022.74 241.694C1022.74 248.024 1027.03 251.703 1033.23 251.703C1035.39 251.703 1037.32 251.377 1039.38 250.759V245.328C1038.16 245.798 1037.05 246.302 1035.72 246.302C1033.08 246.302 1031.52 244.417 1031.52 241.869Z" fill="#5B5A5F"/>
<path d="M1024.22 232.379H1015.22L1010.58 240.641H1010.44V232.379H1002.41V251.277H1010.44V242.954H1010.58L1015.27 251.277H1024.22L1018.42 241.67L1024.22 232.379Z" fill="#5B5A5F"/>
<path d="M1087.41 194.822L1074.69 207.533L1073.42 206.261L1086.11 193.562L1074.97 182.416H1054.05L1042.26 194.249L1030.43 182.428H1009.8L998.124 194.105L985.329 206.9L998.106 219.698H1007.8L1020.14 207.361L1032.47 219.698H1052.01L1064.46 207.229L1076.93 219.698H1086.65L1099.46 206.888L1087.41 194.822ZM998.603 218.498L987.681 207.56H995.871L1006.81 218.498H998.603ZM995.886 206.242H987.684L998.621 195.305H1006.81L995.886 206.242ZM999.846 194.08L1010.3 183.628H1018.49L1008.03 194.08H999.846ZM1020.2 183.628H1028.39L1017.93 194.08H1009.74L1020.2 183.628ZM1009.81 195.323H1018L1028.92 206.242H1020.72L1009.81 195.323ZM1032.97 218.498L1022.07 207.578H1030.26L1041.17 218.498H1032.97ZM1042.87 218.498L1031.85 207.47H1040.04L1051.07 218.498H1042.87ZM1040.17 206.242H1031.97L1042.93 195.281H1051.12L1040.17 206.242ZM1044.2 194.014L1054.55 183.616H1062.74L1052.4 194.014H1044.2ZM1064.55 183.616H1072.73L1062.33 194.08H1054.12L1064.55 183.616ZM1054.27 195.323H1062.46L1073.38 206.242H1065.18L1054.27 195.323ZM1077.43 218.498L1066.53 207.578H1074.72L1085.64 218.498H1077.43Z" fill="#DCA34C"/>
</g>
<g clip-path="url(#clip5_8_3)" filter="url(#filter7_f_8_3)">
<path d="M1026.87 365.891C1024.91 365.891 1023.33 364.303 1023.33 362.346V344.598C1023.33 342.642 1024.91 341.053 1026.87 341.053C1028.83 341.053 1030.42 342.642 1030.42 344.598V362.346C1030.42 364.303 1028.83 365.891 1026.87 365.891ZM1026.87 328.849C1017.41 328.849 1009.72 336.542 1009.72 346.005V361.033C1009.72 370.496 1017.41 378.188 1026.87 378.188C1036.33 378.188 1044.03 370.496 1044.03 361.033V346.005C1044.03 336.542 1036.33 328.849 1026.87 328.849ZM1064.68 326.571H1068.34C1072.09 326.571 1075.14 324.178 1075.14 320.42C1075.14 316.667 1072.09 314.274 1068.34 314.274H1064.61C1055.16 314.274 1047.46 321.743 1047.46 331.196V371.383C1047.46 375.141 1050.51 378.188 1054.26 378.188C1058.02 378.188 1061.06 375.141 1061.06 371.383V344.863H1065.76C1069.52 344.863 1072.56 342.517 1072.56 338.764C1072.56 335.001 1069.51 332.602 1065.76 332.602H1061.06V330.516C1061.07 328.247 1062.41 326.571 1064.68 326.571ZM1082.4 363.348C1078.25 363.348 1074.89 366.706 1074.89 370.859C1074.89 375.001 1078.25 378.365 1082.4 378.365C1086.55 378.365 1089.91 375.001 1089.91 370.859C1089.91 366.706 1086.56 363.348 1082.4 363.348ZM1092.82 326.571H1096.47C1100.23 326.571 1103.27 324.178 1103.27 320.42C1103.27 316.667 1100.22 314.274 1096.47 314.274H1092.75C1083.3 314.274 1075.6 321.743 1075.6 331.201V354.274C1075.6 358.032 1078.65 361.079 1082.41 361.079C1086.16 361.079 1089.21 358.032 1089.21 354.274V344.863H1093.9C1097.66 344.863 1100.71 342.517 1100.71 338.764C1100.71 335.001 1097.66 332.602 1093.9 332.602H1089.21V330.516C1089.21 328.247 1090.55 326.571 1092.82 326.571ZM999.65 312C995.892 312 992.845 315.042 992.845 318.8V332.576H983.6V318.805C983.6 315.052 980.553 312 976.8 312C973.042 312 970 315.047 970 318.805V371.399C970 375.152 973.047 378.199 976.8 378.199C980.558 378.199 983.6 375.152 983.6 371.399V344.868H989.398C991.298 344.868 992.845 346.41 992.845 348.315V371.394C992.85 375.152 995.892 378.199 999.65 378.199C1003.4 378.199 1006.45 375.152 1006.45 371.394V318.795C1006.45 315.042 1003.4 312 999.65 312Z" fill="#FBEDD0"/>
</g>
<g clip-path="url(#clip6_8_3)" filter="url(#filter8_f_8_3)">
<path fill-rule="evenodd" clip-rule="evenodd" d="M965.095 248.714H954.911L960.004 235.576L965.095 248.714ZM968.527 257.567L970.799 263.438H982.003L965.155 221.563H955.025L938.173 263.438H949.204L951.481 257.567H968.527ZM920.315 263.441V238.554L909.378 251.699L898.446 238.554V263.441H887.492V221.566H898.296L909.378 235.964L920.463 221.566H931.267V263.441H920.315ZM988.968 221.566V263.441H999.925V231.291H1015.24V221.566H988.968ZM1050.21 247.036V263.441H1061.16V221.566H1050.21V237.194H1033.93V221.566H1022.98V263.441H1033.93V247.036H1050.21ZM1130.03 263.441V231.291H1117.24V221.566H1153.85V231.291H1140.99V263.441H1130.03ZM1098.58 239.576V263.441H1109.54V221.566H1100.08L1082.93 245.18V221.566H1071.98V263.441H1081.14L1098.58 239.576ZM798 229.03C798 223.693 800.095 218.668 803.906 214.876C805.775 213.007 807.992 211.526 810.43 210.518C812.868 209.509 815.48 208.994 818.117 209H864.571V219.177H818.117C815.499 219.175 812.987 220.216 811.132 222.073C810.212 222.98 809.48 224.063 808.98 225.257C808.48 226.451 808.222 227.734 808.22 229.03L808.162 246.113C807.689 250.651 804.253 254.31 799.809 254.986L798 255.262V229.03ZM798 276V265.821H844.454C845.75 265.823 847.033 265.568 848.231 265.071C849.428 264.573 850.516 263.843 851.432 262.922C852.355 262.018 853.089 260.937 853.59 259.743C854.091 258.549 854.348 257.266 854.347 255.97L854.356 239.756C854.356 234.927 857.97 230.74 862.764 230.011L864.571 229.738V255.97C864.571 261.307 862.476 266.33 858.663 270.121C856.796 271.992 854.58 273.474 852.141 274.483C849.703 275.492 847.091 276.007 844.454 276H798ZM837.419 255.262V242.292L831.285 249.389L825.148 242.292V255.262H817.02V229.738H824.72L831.285 237.944L837.848 229.738H845.551V255.262H837.419Z" fill="#DCA34C"/>
</g>
<g opacity="0.8" clip-path="url(#clip7_8_3)" filter="url(#filter9_f_8_3)">
<path d="M1062.25 65.4006L1049.4 78.248L1001.87 78.2513L998 74.3798V26.85L1010.85 14H1058.38L1062.25 17.8695V65.4006Z" fill="#DCA34C"/>
<path d="M1058.38 14L1043.93 28.4509V49.5437L1032.09 33.2769H1007.14V38.3886H1014.49V57.887L998.001 74.3798V78.2513L1001.87 78.248L1020.04 60.0817V38.3886H1027.39V58.9737H1032.86V42.7062L1044.7 58.9737H1049.4V30.7182L1062.25 17.8695L1062.25 14H1058.38Z" fill="white"/>
</g>
<defs>
<filter id="filter0_f_8_3" x="254" y="179" width="94" height="78" filterUnits="userSpaceOnUse" color-interpolation-filters="sRGB">
<feFlood flood-opacity="0" result="BackgroundImageFix"/>
<feBlend mode="normal" in="SourceGraphic" in2="BackgroundImageFix" result="shape"/>
<feGaussianBlur stdDeviation="2.5" result="effect1_foregroundBlur_8_3"/>
</filter>
<filter id="filter1_f_8_3" x="806" y="54" width="130" height="128" filterUnits="userSpaceOnUse" color-interpolation-filters="sRGB">
<feFlood flood-opacity="0" result="BackgroundImageFix"/>
<feBlend mode="normal" in="SourceGraphic" in2="BackgroundImageFix" result="shape"/>
<feGaussianBlur stdDeviation="2.5" result="effect1_foregroundBlur_8_3"/>
</filter>
<filter id="filter2_f_8_3" x="691" y="296" width="58" height="58" filterUnits="userSpaceOnUse" color-interpolation-filters="sRGB">
<feFlood flood-opacity="0" result="BackgroundImageFix"/>
<feBlend mode="normal" in="SourceGraphic" in2="BackgroundImageFix" result="shape"/>
<feGaussianBlur stdDeviation="2" result="effect1_foregroundBlur_8_3"/>
</filter>
<filter id="filter3_f_8_3" x="0" y="-10" width="173" height="175" filterUnits="userSpaceOnUse" color-interpolation-filters="sRGB">
<feFlood flood-opacity="0" result="BackgroundImageFix"/>
<feBlend mode="normal" in="SourceGraphic" in2="BackgroundImageFix" result="shape"/>
<feGaussianBlur stdDeviation="5" result="effect1_foregroundBlur_8_3"/>
</filter>
<filter id="filter4_f_8_3" x="100" y="279" width="208" height="73" filterUnits="userSpaceOnUse" color-interpolation-filters="sRGB">
<feFlood flood-opacity="0" result="BackgroundImageFix"/>
<feBlend mode="normal" in="SourceGraphic" in2="BackgroundImageFix" result="shape"/>
<feGaussianBlur stdDeviation="5" result="effect1_foregroundBlur_8_3"/>
</filter>
<filter id="filter5_f_8_3" x="58" y="144" width="105" height="97" filterUnits="userSpaceOnUse" color-interpolation-filters="sRGB">
<feFlood flood-opacity="0" result="BackgroundImageFix"/>
<feBlend mode="normal" in="SourceGraphic" in2="BackgroundImageFix" result="shape"/>
<feGaussianBlur stdDeviation="4" result="effect1_foregroundBlur_8_3"/>
</filter>
<filter id="filter6_f_8_3" x="941.397" y="162.397" width="204.206" height="98.2062" filterUnits="userSpaceOnUse" color-interpolation-filters="sRGB">
<feFlood flood-opacity="0" result="BackgroundImageFix"/>
<feBlend mode="normal" in="SourceGraphic" in2="BackgroundImageFix" result="shape"/>
<feGaussianBlur stdDeviation="2.80155" result="effect1_foregroundBlur_8_3"/>
</filter>
<filter id="filter7_f_8_3" x="963" y="305" width="147.405" height="82" filterUnits="userSpaceOnUse" color-interpolation-filters="sRGB">
<feFlood flood-opacity="0" result="BackgroundImageFix"/>
<feBlend mode="normal" in="SourceGraphic" in2="BackgroundImageFix" result="shape"/>
<feGaussianBlur stdDeviation="3.5" result="effect1_foregroundBlur_8_3"/>
</filter>
<filter id="filter8_f_8_3" x="791" y="202" width="93" height="81" filterUnits="userSpaceOnUse" color-interpolation-filters="sRGB">
<feFlood flood-opacity="0" result="BackgroundImageFix"/>
<feBlend mode="normal" in="SourceGraphic" in2="BackgroundImageFix" result="shape"/>
<feGaussianBlur stdDeviation="3.5" result="effect1_foregroundBlur_8_3"/>
</filter>
<filter id="filter9_f_8_3" x="990" y="6" width="80" height="80" filterUnits="userSpaceOnUse" color-interpolation-filters="sRGB">
<feFlood flood-opacity="0" result="BackgroundImageFix"/>
<feBlend mode="normal" in="SourceGraphic" in2="BackgroundImageFix" result="shape"/>
<feGaussianBlur stdDeviation="4" result="effect1_foregroundBlur_8_3"/>
</filter>
<clipPath id="clip0_8_3">
<rect width="319" height="451" fill="white" transform="translate(358 18)"/>
</clipPath>
<clipPath id="clip1_8_3">
<rect width="84" height="68" fill="white" transform="translate(259 184)"/>
</clipPath>
<clipPath id="clip2_8_3">
<rect width="120" height="118" fill="white" transform="translate(811 59)"/>
</clipPath>
<clipPath id="clip3_8_3">
<rect x="695" y="300" width="50" height="50" rx="11" fill="white"/>
</clipPath>
<clipPath id="clip4_8_3">
<rect width="89" height="81" fill="white" transform="translate(66 152)"/>
</clipPath>
<clipPath id="clip5_8_3">
<rect width="133.405" height="68" fill="white" transform="translate(970 312)"/>
</clipPath>
<clipPath id="clip6_8_3">
<rect width="79" height="67" fill="white" transform="translate(798 209)"/>
</clipPath>
<clipPath id="clip7_8_3">
<rect width="64" height="64" fill="white" transform="translate(998 14)"/>
</clipPath>
</defs>
</svg>
