<svg width="931" height="518" viewBox="0 0 931 518" fill="none" xmlns="http://www.w3.org/2000/svg">
<style>

    .eye{
        animation: flashing 6s infinite;
    }
   
    
    @keyframes flashing {
         50% {
            opacity: 0;
        }
    }
    
</style>
<path d="M279.596 1.12357C275.804 2.72039 271.313 4.91601 269.117 6.21342C268.019 6.91203 265.025 8.70845 262.53 10.2055C256.542 13.7983 248.658 22.1816 245.464 28.3692C239.975 39.3474 239.576 40.8444 238.578 56.7127C237.381 74.7767 238.578 85.7548 242.071 89.2479C245.365 92.5413 246.662 97.6311 246.662 107.312C246.662 116.494 248.458 122.681 251.951 125.476C253.149 126.474 253.249 127.472 252.55 129.967C252.051 131.763 251.652 134.558 251.652 136.254V139.348L243.468 140.446C238.878 141.045 227.101 141.843 217.221 142.242C201.153 142.741 190.574 144.039 185.484 146.134C183.089 147.132 183.388 145.536 186.382 141.943C187.779 140.146 190.374 138.45 192.071 138.15C193.867 137.751 198.957 135.755 203.448 133.56C210.534 130.166 211.732 129.268 213.328 125.675C214.626 122.881 215.724 121.683 217.221 121.683C220.414 121.683 223.209 119.188 226.103 113.699C231.392 103.619 228.199 95.8347 218.818 95.7349C214.526 95.7349 204.746 100.026 204.746 101.923C204.746 102.322 204.346 102.721 203.847 102.721C201.053 102.721 201.053 83.7588 203.947 80.166C204.346 79.5672 205.444 76.5731 206.342 73.6789C207.241 70.6849 208.239 68.09 208.638 67.7906C209.037 67.4912 210.534 64.7966 212.031 61.9024C217.42 51.0241 214.726 43.8384 205.444 43.8384C202.849 43.8384 200.754 44.2376 200.754 44.8364C200.754 45.3354 199.257 45.8344 197.36 45.8344C195.165 45.8344 192.869 46.7326 190.973 48.3294C187.58 51.1239 186.582 51.3235 183.787 49.6269C182.29 48.6289 181.193 48.7287 178.498 50.0261C175.903 51.2237 174.306 53.3195 171.212 59.607C167.819 66.4932 166.921 67.6908 164.725 67.6908C162.131 67.7906 156.841 71.7827 156.841 73.6789C156.841 74.2777 155.144 76.5731 153.148 78.8686C150.853 81.4634 149.256 84.3576 148.757 87.0522C148.358 89.3477 147.061 95.4355 145.963 100.625C144.765 105.815 143.867 111.304 143.867 112.901C143.867 114.597 143.069 117.092 141.971 118.49C140.973 119.987 139.975 121.583 139.775 122.182C139.576 122.681 137.18 126.873 134.386 131.464C131.691 135.955 128.997 140.446 128.398 141.444C125.005 147.332 122.11 151.524 119.715 154.119C117.12 156.813 114.825 159.707 105.943 171.584C97.8587 182.362 92.9685 193.939 92.9685 202.223C92.9685 206.614 92.4695 207.712 89.4754 210.905C83.9864 216.694 85.0842 220.985 92.1701 222.183C94.5653 222.482 96.0623 222.183 97.2599 221.085C98.9565 219.388 101.551 218.989 102.15 220.386C102.25 220.885 104.246 222.382 106.342 223.879C109.436 225.975 111.332 226.474 116.322 226.474C119.715 226.474 122.909 226.075 123.408 225.576C124.007 225.077 126.901 224.179 129.895 223.58C135.583 222.382 143.168 220.386 150.853 217.991C157.041 215.995 174.306 215.796 176.602 217.592C177.5 218.39 179.197 219.488 180.294 220.087C181.392 220.686 184.286 222.283 186.781 223.68C192.869 227.073 198.159 227.971 200.055 225.975C202.151 223.979 208.338 223.979 209.137 226.075C209.436 226.973 209.736 235.357 209.736 244.738C209.736 254.119 210.135 264.299 210.634 267.293C212.231 276.275 213.927 287.552 214.426 291.345C215.225 298.431 215.624 299.329 218.019 299.129C221.313 298.93 227.7 301.325 227.7 302.822C227.7 303.521 227.999 305.417 228.299 307.113C228.798 309.608 228.498 310.207 226.702 310.806C223.708 311.804 221.712 317.094 221.712 324.279C221.712 329.668 221.412 330.666 219.017 332.663L216.323 335.058L215.724 355.018C215.424 365.996 215.025 375.178 214.726 375.377C214.426 375.677 212.73 376.375 210.933 377.174C209.137 377.872 207.54 379.369 207.241 380.567C204.546 392.144 203.847 477.274 206.243 496.935C209.137 520.388 208.438 517.893 212.33 517.893C216.223 517.893 216.123 518.193 214.326 512.704C212.43 506.715 210.434 492.145 210.933 487.953C211.332 485.258 211.432 485.757 211.632 489.949C211.732 492.943 212.73 498.831 213.827 502.923C215.025 507.015 216.323 511.905 216.722 513.702C217.62 517.394 218.418 518.592 219.317 517.594C219.716 517.195 218.818 512.803 217.42 507.713C215.923 502.624 214.326 495.538 213.728 491.945C212.73 485.458 212.231 395.138 213.229 395.138C213.528 395.138 216.622 396.435 220.115 398.032L226.402 400.827L227.101 432.663C228.798 504.42 229.197 516.795 229.995 517.494C230.394 517.893 230.893 517.993 231.193 517.793C231.392 517.494 231.193 509.51 230.594 499.929C230.095 490.348 229.297 463.801 228.997 441.046L228.498 399.629L224.806 397.932C222.81 397.034 219.217 395.338 216.822 394.24C214.326 393.042 212.231 392.144 212.031 392.144C211.931 392.144 211.632 397.833 211.432 404.918C211.133 417.593 211.133 417.593 211.033 402.124C211.033 393.641 211.233 385.557 211.632 384.16C212.43 381.365 216.722 379.968 216.722 382.563C216.722 384.16 224.207 392.144 225.804 392.144C227.101 392.144 242.47 403.322 247.261 407.813C249.456 409.908 254.347 416.096 257.94 421.585C267.62 436.256 277.6 446.036 288.479 451.326C290.375 452.324 292.471 453.023 293.269 453.023C294.267 453.023 294.467 453.921 294.067 456.715C293.269 462.104 291.872 471.186 290.574 480.468C289.876 484.859 288.778 492.045 288.079 496.436C287.381 500.827 286.483 506.815 286.183 509.709C285.784 512.604 285.285 515.598 284.886 516.496C284.487 517.694 284.886 517.993 287.181 517.694C289.976 517.394 290.075 517.095 291.373 509.41C292.071 505.019 293.069 498.432 293.668 494.739C295.764 479.071 296.662 473.582 297.76 466.795C298.958 459.609 298.958 459.51 299.756 463.502C300.155 465.697 300.455 470.188 300.555 473.482C300.555 476.775 301.054 482.364 301.553 485.957C302.151 489.55 302.95 497.334 303.449 503.422C304.646 516.596 305.046 517.893 308.239 517.893C310.335 517.893 310.535 517.594 309.936 515.598C309.137 513.103 307.74 495.638 308.239 495.039C308.439 494.739 311.233 495.039 314.327 495.737C317.521 496.436 327.401 496.935 336.183 496.935C349.357 496.935 352.451 496.636 353.449 495.438C354.447 494.24 354.647 488.352 354.148 468.192C353.748 454.12 353.15 437.254 352.85 430.767L352.152 418.99L348.259 419.589C341.673 420.787 335.385 425.078 324.607 436.056C318.718 441.945 315.525 444.739 317.122 442.444C340.076 409.908 340.375 409.709 363.429 397.334C373.01 392.244 376.503 389.25 378.2 384.958C381.892 375.577 381.992 378.272 383.489 480.468C383.589 489.749 383.29 500.129 382.691 503.422L381.693 509.41L381.493 502.723C381.493 499.031 380.795 494.24 379.996 492.244C379.298 490.148 378 486.456 377.302 483.961C374.507 474.28 360.735 444.04 359.238 444.04C358.739 444.04 358.439 460.607 358.439 480.967C358.439 504.62 358.838 517.893 359.437 517.893C360.036 517.893 360.535 505.518 360.635 484.26L360.934 450.727L364.128 457.114C368.22 465.498 372.711 476.376 374.307 481.965C375.006 484.46 376.104 487.753 376.803 489.45C379.397 495.338 380.395 501.526 379.397 505.019C378.799 506.915 378.399 510.508 378.399 513.103C378.399 517.893 378.399 517.893 381.693 517.893H385.086L386.683 510.408C388.08 504.121 388.379 496.935 388.28 467.693C388.28 448.332 387.88 420.687 387.481 406.216L386.783 379.868L383.789 377.274L380.894 374.679V357.014C380.894 340.746 380.695 339.249 378.799 336.555C377.202 334.459 376.603 331.565 376.004 324.878C375.405 315.996 374.407 313.301 371.812 313.301C369.816 313.301 370.016 305.217 372.311 292.443C375.505 274.978 376.703 262.103 376.204 252.522C375.904 247.532 375.904 243.44 376.204 243.44C376.403 243.44 380.695 244.838 385.685 246.534C392.471 248.83 394.866 249.329 395.365 248.43C396.463 246.634 400.954 247.832 414.527 253.52C418.32 255.117 426.104 257.512 431.992 258.91C437.981 260.307 445.266 262.103 448.26 262.902C456.144 264.997 473.809 265.896 478.799 264.498C481.095 263.9 484.288 262.003 486.085 260.407C489.079 257.512 489.278 257.413 491.574 258.91C494.667 260.906 501.055 260.506 502.552 258.211C504.049 255.716 500.955 249.628 497.662 248.83C494.867 248.131 494.867 248.43 496.264 242.542C497.961 234.957 495.965 229.768 487.582 220.586C483.59 216.195 480.097 211.704 479.697 210.606C478.799 207.612 473.609 205.217 469.817 205.915C467.122 206.414 465.126 205.316 453.25 197.033C445.865 191.743 438.679 186.254 437.282 184.658C434.188 181.165 428.998 177.572 426.903 177.572C424.008 177.572 420.316 175.276 420.316 173.38C420.316 169.388 416.024 162.602 411.533 159.308C407.441 156.414 391.473 148.23 385.884 146.134C384.787 145.735 375.605 145.236 365.425 145.136C351.952 144.937 345.665 144.438 341.972 143.24C339.277 142.342 335.684 141.643 333.988 141.643C329.597 141.643 328.898 140.745 328.199 134.757C327.8 131.763 327.102 128.869 326.603 128.37C326.004 127.771 326.403 126.274 327.501 124.278C328.499 122.581 329.896 118.19 330.595 114.597C331.593 109.108 331.593 107.312 330.495 104.717C329.397 102.122 329.397 100.625 330.495 96.1341C331.193 93.1401 332.191 90.7449 332.69 90.7449C334.786 90.7449 336.183 87.9504 336.882 82.7608C338.479 70.1859 338.679 65.4952 337.78 64.8964C337.281 64.597 336.283 58.9084 335.585 52.3215C334.487 42.4412 333.788 39.2476 330.894 33.3593C325.704 22.481 318.818 15.5947 304.048 6.11362C295.165 0.524766 285.684 -1.47125 279.596 1.12357ZM283.089 6.91203C282.69 8.10964 282.99 9.60666 283.588 10.4051C284.586 11.6027 284.487 11.9021 282.99 11.9021C281.293 11.9021 278.099 12.8003 269.916 15.6945C265.325 17.2913 254.746 26.8722 252.251 31.6627C248.558 38.7486 247.46 43.7386 246.961 55.0161C246.662 61.5032 246.063 66.7926 245.564 66.7926C245.165 66.7926 244.067 67.4912 243.269 68.3894C242.371 69.1879 241.672 69.4873 241.672 68.8885C241.672 68.3894 242.171 67.591 242.67 67.2916C243.269 66.8924 243.468 64.7966 243.069 61.9024C242.47 57.4113 244.666 42.9402 246.562 38.3493C251.053 27.97 251.752 26.8722 257.74 20.8842C262.231 16.3931 264.726 14.5967 270.415 11.7025C273.009 10.5049 275.305 9.10765 275.604 8.80825C276.004 8.20944 281.992 5.31521 283.389 5.01581C283.588 4.91601 283.389 5.81422 283.089 6.91203ZM289.976 9.30725C288.978 11.8023 286.083 10.8043 285.884 7.91004C285.784 6.41303 285.884 6.11362 286.183 7.11163C286.782 9.00785 287.78 9.40706 288.878 8.20944C289.277 7.91004 288.978 6.91203 288.379 6.01382C287.281 4.51681 287.381 4.51681 288.878 6.01382C289.976 6.91203 290.375 8.20944 289.976 9.30725ZM304.447 12.7005C314.227 18.8882 320.914 25.475 324.706 32.5609C328.998 40.2456 331.593 53.2197 331.493 65.096C331.393 77.8705 331.293 77.5711 332.591 75.7747C333.489 74.5771 333.589 74.5771 333.09 76.0741C332.79 77.0721 332.491 78.3695 332.491 78.9684C332.491 79.4674 331.792 79.168 330.894 78.2697C329.996 77.3715 328.599 76.8725 327.9 77.1719C327.102 77.4713 326.503 77.0721 326.503 76.2737C326.503 75.4753 327.102 75.0761 327.9 75.3755C329.197 75.8745 330.495 73.1799 330.495 69.4873C330.495 67.2916 328.798 67.1918 328.299 69.3875C328.1 70.2857 328 65.096 327.9 57.7107C327.9 45.535 327.7 43.7386 325.205 38.0499C319.617 24.5768 309.237 15.1955 297.461 12.7005C293.169 11.8023 291.672 11.1037 292.071 10.1057C292.371 9.40706 292.57 8.10964 292.57 7.31123C292.57 5.41502 294.566 6.31322 304.447 12.7005ZM300.754 15.5947C312.83 20.2854 321.812 31.1637 325.505 45.3354C326.802 50.5251 326.802 64.7966 325.505 64.7966C325.006 64.7966 324.507 64.3974 324.507 63.8984C324.507 63.3994 323.209 62.5012 321.513 61.8026C319.916 61.104 318.319 59.607 317.92 58.5091C317.521 57.4113 316.024 55.1159 314.527 53.5191C309.636 48.2296 298.359 48.7287 291.572 54.5171L288.678 56.9123L284.686 53.8185C281.193 51.0241 279.896 50.6249 274.407 50.4253C267.021 50.3255 262.231 52.6209 259.736 57.3115C258.738 59.3076 256.542 61.104 253.349 62.601L248.359 64.7966L248.957 54.1179C249.556 43.1398 251.153 37.1517 255.045 31.3633C258.938 25.5748 264.926 20.3852 271.512 17.1915C277.401 14.2973 278.998 13.9979 287.281 13.8981C293.668 13.8981 297.86 14.3971 300.754 15.5947ZM209.536 51.5231C209.935 54.2177 208.139 54.5171 204.945 52.2217C201.752 50.0261 202.251 48.6289 206.043 49.0281C208.438 49.2277 209.336 49.8265 209.536 51.5231ZM200.754 53.4193C202.849 55.5151 202.949 56.1139 201.752 56.8125C199.656 58.1099 199.456 58.1099 196.961 55.8145C194.466 53.5191 194.167 52.2217 196.063 51.5231C198.059 50.6249 198.358 50.7247 200.754 53.4193ZM279.696 53.3195C286.283 56.1139 287.481 57.7107 288.179 64.9962C288.878 71.5831 288.778 71.7827 285.684 74.6769C282.69 77.4713 281.692 79.7668 283.489 79.7668C283.888 79.7668 285.185 78.669 286.183 77.2717C287.98 74.7767 291.572 73.8785 291.572 75.7747C291.572 76.2737 292.071 76.7727 292.57 76.7727C294.167 76.7727 293.668 74.8765 291.572 72.7807C289.876 71.0841 289.576 69.6869 289.776 64.4972C290.075 58.3095 290.075 58.3095 294.966 55.0161C298.758 52.5211 300.854 51.8225 304.646 51.8225C308.838 51.8225 309.936 52.3215 313.03 55.3155C316.722 59.0082 317.221 60.3056 315.525 61.3036C314.227 62.102 314.227 72.7807 315.425 72.7807C315.924 72.7807 316.622 71.3835 317.022 69.6869C317.421 67.9902 318.219 66.8924 318.818 67.092C325.205 69.4873 326.902 68.1898 321.014 65.3954C319.118 64.4972 317.521 63.2996 317.521 62.7008C317.521 61.603 318.519 62.102 322.81 65.1958C325.405 67.092 325.505 67.4912 325.006 73.2797C324.108 83.2598 321.213 102.222 320.515 103.02C320.215 103.42 317.72 103.02 314.926 102.222C312.231 101.424 307.241 100.426 303.848 100.126C299.557 99.6272 297.561 99.0284 297.561 98.1301C297.561 97.0323 295.764 96.7329 290.075 96.7329C284.287 96.7329 282.59 97.0323 282.59 98.1301C282.59 99.1282 280.894 99.727 276.902 100.226C269.017 101.024 261.433 102.721 259.836 104.018C258.339 105.216 256.642 103.42 256.642 100.426C256.642 99.5274 256.143 98.729 255.544 98.729C254.746 98.729 254.646 99.8268 255.045 101.923C255.644 104.917 255.544 105.016 254.347 103.22C253.548 102.122 252.151 98.729 251.053 95.7349C250.055 92.7409 248.658 89.3477 247.959 88.2498C246.263 85.655 246.363 84.7568 248.159 84.7568C248.957 84.7568 249.656 83.9584 249.756 82.9604C249.756 82.0622 250.454 84.0582 251.353 87.4514C252.151 90.9445 253.249 93.7389 253.748 93.7389C254.945 93.7389 254.945 93.4395 252.65 82.661C251.452 77.4713 250.355 72.0821 250.055 70.6849C249.556 68.3894 249.856 67.9902 252.351 67.4912C253.848 67.1918 256.043 66.6928 257.241 66.2936C259.037 65.6948 259.437 66.1938 260.235 69.8865C260.734 72.1819 261.732 74.2777 262.53 74.5771C263.628 74.9763 263.728 74.4773 263.129 72.6809C262.73 71.3835 262.231 68.6889 261.932 66.7926C261.632 64.8964 261.033 62.8006 260.534 62.2018C259.337 60.7048 262.93 55.3155 266.323 53.5191C270.015 51.5231 275.604 51.4233 279.696 53.3195ZM193.767 54.9163C193.767 56.5131 196.861 58.7088 199.057 58.8086C201.053 58.8086 201.153 59.4074 199.556 61.3036C197.261 63.7986 196.263 65.2956 194.765 68.09C193.668 70.3855 192.869 70.7847 190.773 70.2857C186.781 69.2877 186.382 68.1898 188.179 64.2976C189.177 62.4014 189.775 60.0062 189.576 59.0082C189.476 58.0101 189.975 56.5131 190.773 55.6149C192.57 53.6189 193.767 53.3195 193.767 54.9163ZM185.284 56.4133C186.482 57.6109 186.582 58.3095 185.684 59.4074C184.087 61.3036 182.39 61.2038 180.394 58.9084C177.201 55.3155 181.891 53.0201 185.284 56.4133ZM208.139 58.0101C207.74 59.3076 206.442 61.9024 205.145 63.7986C203.847 65.6948 202.75 67.7906 202.75 68.4893C202.75 69.1879 201.552 69.7867 200.155 69.7867H197.66L199.456 66.593C200.454 64.7966 202.251 62.2018 203.548 60.8046C204.746 59.5072 205.744 57.8105 205.744 57.1119C205.744 56.4133 206.442 55.8145 207.34 55.8145C208.438 55.8145 208.738 56.4133 208.139 58.0101ZM183.089 61.603C186.282 62.102 186.282 61.9024 183.787 66.9922C182.69 69.2877 181.791 71.9823 181.791 72.8805C181.791 76.3735 175.005 76.0741 172.011 72.5811C171.113 71.3835 171.312 70.1859 173.109 66.6928C176.502 60.0062 176.901 59.607 178.698 60.4054C179.596 60.8046 181.492 61.3036 183.089 61.603ZM258.139 63.7986C257.84 64.2976 256.842 64.7966 256.043 64.7966C255.245 64.7966 254.846 64.2976 255.145 63.7986C255.445 63.1998 256.443 62.8006 257.241 62.8006C258.039 62.8006 258.439 63.1998 258.139 63.7986ZM200.155 73.9783C199.057 75.6749 195.764 74.7767 195.764 72.8805C195.764 71.1839 196.063 71.0841 198.159 72.0821C199.456 72.7807 200.354 73.5791 200.155 73.9783ZM249.456 77.2717C249.456 78.8686 249.257 79.4674 248.957 78.4694C248.259 75.7747 246.662 76.4733 246.562 79.4674L246.363 82.2618L245.963 79.4674C245.664 77.7707 244.866 76.7727 243.868 76.6729C242.87 76.6729 243.269 76.1739 244.965 75.5751C246.762 74.9763 247.66 73.8785 247.76 72.4813C247.76 70.3855 247.86 70.3855 248.658 72.2817C249.157 73.3795 249.456 75.5751 249.456 77.2717ZM190.374 72.7807C192.57 72.7807 192.769 72.9803 191.672 74.9763C190.075 77.9703 188.877 78.7688 185.384 78.7688C183.089 78.7688 182.69 78.4694 183.288 76.9723C183.688 76.0741 184.286 74.4773 184.486 73.4793C184.885 72.3815 185.584 71.8825 186.482 72.1819C187.28 72.4813 189.077 72.7807 190.374 72.7807ZM168.518 74.3775C171.911 77.7707 166.322 81.4634 162.729 78.1699C160.933 76.5731 160.933 76.3735 162.43 74.5771C164.526 72.3815 166.422 72.2817 168.518 74.3775ZM177.7 77.6709C179.995 78.2697 179.995 78.3695 178.398 80.0662C175.703 82.661 172.809 82.2618 172.809 79.2678C172.809 76.6729 173.508 76.4733 177.7 77.6709ZM193.368 90.6451C191.871 93.0403 190.773 96.1341 190.773 98.2299C190.773 102.022 189.775 102.621 187.38 100.226C184.885 97.7309 184.286 91.8427 186.183 88.7489C187.081 87.152 187.779 84.9564 187.779 83.8586C187.779 82.661 188.378 81.7628 189.077 81.7628C189.676 81.7628 191.372 80.8646 192.769 79.7668L195.264 77.8705L195.564 82.2618C195.764 85.5552 195.264 87.5512 193.368 90.6451ZM197.76 83.4594C197.36 87.651 197.261 87.8506 196.961 84.9564C196.662 81.9624 197.161 78.7688 197.959 78.7688C198.159 78.7688 198.059 80.8646 197.76 83.4594ZM162.43 80.8646C162.729 81.4634 164.626 81.7628 166.422 81.5632C168.318 81.3636 169.815 81.4634 169.815 81.8626C169.815 84.3576 167.32 88.6491 165.224 89.7469C163.029 90.9445 162.53 90.8447 160.634 89.0483C159.037 87.3516 158.737 86.2538 159.236 83.3596C159.935 79.7668 161.133 78.7688 162.43 80.8646ZM185.484 83.3596C185.783 84.2578 185.384 86.154 184.486 87.651C183.388 89.5473 182.989 92.3417 183.288 98.2299C183.388 102.621 183.588 106.513 183.688 106.813C183.688 107.212 185.883 107.811 188.378 108.21C190.973 108.509 193.767 109.607 194.765 110.505C198.259 113.899 199.756 123.679 196.662 123.679C196.163 123.679 195.764 125.476 195.764 127.671C195.764 131.364 195.564 131.663 192.071 132.561C189.975 133.16 186.382 133.659 183.987 133.659C179.496 133.659 179.496 133.959 182.59 127.971C183.288 126.673 183.787 124.877 183.787 123.979C183.887 122.282 183.887 122.282 184.885 123.879C186.482 126.673 190.674 126.174 191.871 122.981C192.57 120.985 192.47 120.186 191.572 119.488C189.576 118.29 185.783 118.589 185.783 119.887C185.783 120.885 185.584 120.885 184.985 119.987C184.586 119.288 181.093 118.49 177.201 118.09L170.214 117.392L169.216 120.785C168.318 123.579 167.719 124.178 165.723 123.879C164.426 123.779 162.33 122.581 161.033 121.284C158.737 119.088 158.737 118.789 159.735 108.809C160.334 103.12 160.833 97.9305 160.833 97.1321C160.833 96.3337 161.332 95.7349 161.831 95.7349C162.43 95.7349 162.829 96.9325 162.829 98.4296C162.829 100.026 163.528 102.122 164.326 103.12C165.125 104.118 165.524 105.416 165.224 105.915C164.925 106.414 164.925 107.911 165.224 109.308C165.923 111.803 168.917 112.501 171.711 110.805C173.707 109.507 171.711 104.218 169.216 104.218C168.019 104.218 166.721 102.921 165.723 100.725L164.027 97.2319L167.121 95.7349C169.915 94.4375 170.414 93.5393 171.212 88.9485C171.911 84.7568 172.51 83.7588 174.007 83.7588C175.604 83.7588 175.803 84.158 175.105 85.9544C174.705 87.2518 174.406 90.2459 174.506 92.7409C174.606 95.2359 174.705 100.126 174.805 103.619V110.006L178.298 109.408C181.492 108.909 181.692 109.008 180.793 110.705C179.197 113.699 179.596 114.697 182.69 114.697C184.286 114.697 186.881 115.396 188.378 116.194C192.57 118.39 193.767 118.09 193.767 114.697C193.767 112.002 191.272 109.408 189.077 109.807C188.678 109.907 186.781 109.408 185.085 108.709C182.59 107.811 181.791 106.913 181.791 105.116C181.791 103.42 181.193 102.721 179.795 102.721C178.498 102.721 177.799 102.022 177.799 100.925C177.799 99.9266 177.101 98.2299 176.302 97.1321C174.406 94.6371 174.406 91.6431 176.302 89.1481C177.101 88.15 177.799 86.653 177.799 85.8546C177.799 82.4614 184.286 80.3656 185.484 83.3596ZM156.941 93.2399C157.54 94.4375 157.839 97.7309 157.54 100.725L157.24 106.214L156.941 99.727L156.542 93.2399L155.843 97.7309C155.344 100.226 154.645 108.509 154.246 116.194C153.847 123.879 153.248 130.965 152.849 132.062C152.25 133.759 152.15 133.759 150.554 132.262C148.158 129.867 147.36 123.979 148.657 117.691C149.356 114.597 149.855 110.505 149.855 108.609C149.855 106.713 150.254 103.619 150.753 101.723C151.252 99.8268 152.15 95.5353 152.849 92.2419C154.546 83.8586 155.244 82.661 155.544 87.2518C155.743 89.4475 156.342 92.1421 156.941 93.2399ZM328.199 85.7548C329.497 85.7548 329.497 85.9544 328.399 87.3516C327.601 88.2498 326.503 91.1441 325.904 93.6391C324.806 98.1301 324.706 98.1301 324.607 94.7369C324.507 90.3457 325.704 82.8606 326.303 84.5572C326.503 85.156 327.401 85.7548 328.199 85.7548ZM196.163 91.4435C195.764 93.0403 195.165 94.7369 194.666 95.2359C194.266 95.8347 193.767 97.8307 193.568 99.727C193.268 102.222 192.969 102.721 192.47 101.623C191.971 100.725 192.57 97.6311 193.767 94.4375C196.063 88.4495 197.261 86.9524 196.163 91.4435ZM166.821 92.7409C166.023 93.2399 164.426 93.6391 163.328 93.6391C161.731 93.5393 161.731 93.4395 163.827 92.7409C167.32 91.6431 168.618 91.6431 166.821 92.7409ZM198.957 107.312C199.257 108.509 198.857 108.709 196.762 108.709C195.564 108.709 195.364 100.426 196.562 99.3278C196.961 98.9286 197.56 100.326 197.959 102.422C198.259 104.517 198.758 106.713 198.957 107.312ZM216.722 102.422C216.722 103.32 217.62 105.016 218.618 106.114C220.514 108.21 220.514 108.21 217.021 112.002L213.528 115.895L210.634 113.1C209.037 111.603 207.74 109.507 207.74 108.509C207.74 106.613 210.235 103.719 213.328 101.823C216.023 100.326 216.722 100.426 216.722 102.422ZM222.311 102.122C223.708 103.519 224.307 106.713 223.109 106.713C222.51 106.713 221.013 105.216 218.818 102.422C217.62 100.925 217.72 100.725 219.117 100.725C220.115 100.725 221.512 101.324 222.311 102.122ZM314.028 104.118C317.82 105.216 318.02 105.515 317.72 108.709C316.423 121.384 309.437 125.675 289.676 125.675C283.389 125.675 276.602 125.176 274.706 124.478C267.82 122.282 263.728 120.186 263.628 118.889C263.628 118.29 263.229 117.691 262.83 117.691C261.832 117.691 259.636 110.905 259.636 107.911C259.636 104.917 266.123 102.721 275.105 102.721C279.397 102.721 282.59 103.12 282.59 103.719C282.59 104.318 285.784 104.717 290.075 104.717C295.864 104.717 297.561 104.418 297.561 103.32C297.561 102.222 298.858 102.022 303.848 102.422C307.241 102.721 311.832 103.519 314.028 104.118ZM187.081 104.118C187.38 104.917 186.981 105.815 186.183 106.114C185.284 106.513 184.785 106.014 184.785 104.717C184.785 102.422 186.282 102.022 187.081 104.118ZM179.795 105.316C179.795 106.214 179.296 106.713 178.598 106.513C176.801 105.915 176.502 103.719 178.199 103.719C179.097 103.719 179.795 104.418 179.795 105.316ZM169.416 109.408C168.318 110.505 167.52 108.809 168.318 107.012C169.117 105.316 169.117 105.316 169.516 107.012C169.815 108.01 169.715 109.108 169.416 109.408ZM258.339 112.102C258.738 115.196 258.538 116.693 257.74 116.693C257.141 116.693 256.642 115.595 256.642 114.298C256.642 113 256.343 110.406 256.043 108.609C255.544 105.915 255.644 105.416 256.642 106.414C257.341 107.012 258.139 109.607 258.339 112.102ZM320.615 112.302C319.517 118.19 318.918 119.488 317.92 118.39C317.521 118.09 318.12 115.096 319.118 111.803C321.313 104.318 322.012 104.617 320.615 112.302ZM253.648 108.609C253.648 109.607 253.947 112.601 254.347 115.196C254.746 118.39 254.646 119.787 253.947 119.388C253.349 118.989 252.65 116.793 252.351 114.398C252.051 112.102 251.452 109.308 251.053 108.41C250.654 107.212 250.953 106.713 252.051 106.713C252.949 106.713 253.648 107.511 253.648 108.609ZM324.008 113.2C323.708 115.795 323.11 117.691 322.81 117.392C322.611 117.092 322.71 114.797 323.01 112.202C323.409 109.707 324.008 107.811 324.207 108.11C324.507 108.41 324.407 110.705 324.008 113.2ZM185.783 110.705C185.783 111.903 182.989 113.2 182.191 112.402C181.292 111.503 182.789 109.707 184.386 109.707C185.185 109.707 185.783 110.206 185.783 110.705ZM205.943 112.701C207.34 115.196 207.34 115.695 206.243 115.695C204.845 115.695 202.75 112.801 202.75 110.805C202.75 108.809 204.247 109.707 205.943 112.701ZM220.015 114.098C219.017 115.496 217.62 116.693 216.822 116.693C215.824 116.693 216.422 115.595 218.219 113.699C221.512 110.206 222.71 110.406 220.015 114.098ZM191.771 113.699C191.771 114.198 191.073 114.697 190.274 114.697C189.476 114.697 188.777 114.198 188.777 113.699C188.777 113.1 189.476 112.701 190.274 112.701C191.073 112.701 191.771 113.1 191.771 113.699ZM206.043 118.689C206.941 118.689 207.74 118.889 207.74 119.188C207.74 119.987 204.047 123.48 201.053 125.376L198.259 127.172L200.155 124.278C201.352 122.382 201.752 120.486 201.352 118.39C200.754 115.496 200.853 115.496 202.55 116.993C203.548 117.991 205.145 118.689 206.043 118.689ZM164.127 126.873C165.624 127.472 166.821 128.47 166.821 129.168C166.821 130.765 169.017 131.663 172.809 131.663C175.803 131.663 177.5 133.06 175.803 134.158C173.508 135.556 175.105 136.653 179.496 136.653C183.787 136.653 183.987 136.753 182.191 138.15C179.995 139.747 173.807 140.146 173.807 138.649C173.807 138.051 170.414 137.651 165.524 137.651C155.045 137.651 153.548 136.753 154.845 131.164C155.344 128.969 155.843 125.675 155.843 123.779V120.386L158.638 123.18C160.135 124.677 162.53 126.374 164.127 126.873ZM179.496 121.484C181.692 122.182 181.692 122.282 180.095 125.675C179.197 127.571 178.298 129.368 178.199 129.567C177.999 129.767 176.302 129.567 174.306 129.268C170.614 128.569 170.214 127.472 171.811 123.28C172.809 120.585 174.805 120.186 179.496 121.484ZM190.175 122.182C189.775 122.981 188.977 123.679 188.179 123.679C187.38 123.679 186.781 122.981 186.781 122.182C186.781 121.384 187.68 120.685 188.777 120.685C190.075 120.685 190.574 121.184 190.175 122.182ZM208.638 123.879C207.64 125.975 198.758 131.264 198.758 129.767C198.758 129.468 200.853 127.771 203.249 126.174C205.744 124.478 207.74 122.881 207.74 122.382C207.74 121.983 208.139 121.683 208.738 121.683C209.336 121.683 209.336 122.482 208.638 123.879ZM314.527 124.677V127.671H307.84L301.054 127.571L306.343 125.775C309.237 124.777 312.131 123.48 312.83 122.781C314.427 121.184 314.527 121.384 314.527 124.677ZM268.419 124.378L272.111 126.074L268.718 126.474C265.624 126.773 263.728 125.675 263.628 123.38C263.628 122.382 264.227 122.482 268.419 124.378ZM147.759 137.951C148.857 139.847 151.751 142.641 154.047 144.238C158.039 146.933 159.037 147.132 167.52 147.132C173.608 147.132 176.402 147.432 175.703 148.13C175.204 148.629 171.512 149.128 167.52 149.128C155.045 149.128 145.963 143.041 143.867 133.46C142.47 126.873 142.669 125.276 144.266 130.366C145.065 132.661 146.562 136.055 147.759 137.951ZM268.918 130.366C267.62 130.565 265.425 130.565 263.928 130.366C262.331 130.166 263.429 129.967 266.123 129.967C268.918 129.967 270.115 130.166 268.918 130.366ZM301.952 130.765L316.024 130.965L306.343 131.963C295.365 133.06 275.604 132.062 275.604 130.466C275.604 129.767 277.7 129.567 281.692 130.066C285.085 130.366 294.167 130.765 301.952 130.765ZM272.71 134.757L271.712 137.152V134.558C271.612 133.16 271.912 131.663 272.311 131.264C273.508 130.066 273.708 132.162 272.71 134.757ZM319.517 133.26C319.517 134.657 319.118 135.556 318.519 135.156C318.02 134.857 317.521 133.659 317.521 132.561C317.521 131.563 318.02 130.665 318.519 130.665C319.118 130.665 319.517 131.863 319.517 133.26ZM269.117 133.859C269.716 134.458 268.518 134.458 265.624 134.059C258.638 132.961 256.243 131.563 262.63 132.262C265.624 132.561 268.618 133.26 269.117 133.859ZM312.531 134.757C306.642 135.755 284.187 135.755 279.097 134.757C276.503 134.158 282.491 133.859 296.063 133.859C309.636 133.859 315.425 134.158 312.531 134.757ZM140.873 140.745C139.576 143.24 138.178 144.637 136.881 144.637C135.084 144.637 135.184 144.238 138.079 140.146C141.871 134.857 143.667 135.156 140.873 140.745ZM269.616 136.653C269.616 137.851 263.928 137.851 261.133 136.653C259.636 136.055 260.534 135.755 264.427 135.755C267.221 135.655 269.616 136.055 269.616 136.653ZM316.223 137.851C315.525 138.25 313.529 138.649 311.832 138.649C306.742 138.649 307.94 140.546 313.329 140.845C315.924 141.045 310.435 141.444 301.054 141.943C291.772 142.342 281.592 142.242 278.598 141.743C274.107 141.045 276.103 140.845 290.075 140.645L307.042 140.346L290.275 139.248C280.994 138.649 273.608 137.951 273.908 137.651C274.207 137.352 284.087 137.152 295.864 137.152C307.64 137.152 316.822 137.452 316.223 137.851ZM266.123 139.747C267.421 140.346 266.522 140.446 263.628 140.047C261.133 139.747 258.738 138.949 258.139 138.45C257.041 137.352 262.73 138.25 266.123 139.747ZM272.111 142.641C271.413 144.937 268.618 145.336 268.618 143.14C268.618 142.342 269.217 140.745 269.816 139.647C270.914 137.951 271.213 137.951 271.912 139.148C272.311 140.047 272.411 141.544 272.111 142.641ZM322.012 143.54C322.71 146.733 322.611 146.933 321.114 145.436C320.215 144.538 319.517 142.242 319.517 140.446C319.617 136.554 320.814 138.15 322.012 143.54ZM145.164 141.843C145.763 143.839 140.873 150.625 139.276 149.927C137.779 149.328 137.38 147.631 138.677 147.631C139.176 147.631 140.374 146.035 141.472 144.138C143.468 140.446 144.466 139.847 145.164 141.843ZM164.426 141.643C167.62 141.643 168.817 142.043 168.817 143.14C168.817 145.136 165.224 144.937 160.334 142.542C158.139 141.444 157.141 140.845 158.139 141.144C159.137 141.444 162.031 141.643 164.426 141.643ZM264.626 143.44C266.423 144.238 266.522 146.035 264.826 149.927C264.127 151.524 263.628 153.819 263.628 155.216C263.628 157.412 263.229 157.612 258.738 157.612C255.944 157.612 253.548 158.011 253.249 158.51C252.65 159.408 256.842 161.604 259.137 161.604C260.035 161.604 260.634 162.602 260.634 164.099C260.634 167.093 264.626 168.49 268.119 166.594C270.714 165.196 270.514 165.196 282.59 169.488C295.265 174.079 303.549 173.48 315.724 166.993C318.718 165.396 323.509 165.097 323.509 166.494C323.509 168.091 327.501 168.789 329.098 167.492C329.996 166.793 330.495 165.196 330.195 163.899C329.796 161.903 330.195 161.604 333.09 161.604C335.485 161.604 336.483 161.105 336.483 160.107C336.483 159.009 335.385 158.61 332.591 158.61C328.499 158.61 327.501 157.312 327.501 151.823C327.501 150.625 326.802 149.328 326.004 149.029C323.808 148.13 324.008 144.338 326.303 145.037C335.784 147.731 346.164 149.428 359.138 150.226C364.826 150.526 369.717 151.324 370.216 152.023C371.513 153.52 372.311 158.709 373.509 174.877C374.607 187.751 374.507 188.749 372.81 190.646C370.216 193.54 370.415 199.827 373.21 202.821C375.505 205.217 376.104 211.504 374.806 218.39C374.208 221.384 374.108 221.484 368.319 221.484C363.329 221.484 362.232 221.784 361.034 223.68C358.739 227.273 358.14 231.065 359.337 234.758C360.535 238.251 362.531 239.548 368.719 240.846L371.413 241.444V250.426C371.413 255.417 371.214 259.409 370.914 259.409C370.515 259.409 369.118 258.81 367.521 258.011C366.024 257.213 361.134 256.015 356.742 255.317L348.758 254.019L345.964 248.031C334.786 223.78 316.922 212.103 294.067 213.899C284.886 214.598 281.393 215.696 273.508 220.287C263.828 225.776 254.446 236.355 248.259 248.63C246.363 252.323 242.47 254.419 237.281 254.419C236.283 254.419 233.588 254.918 231.293 255.516C224.905 257.213 220.414 258.311 217.52 258.91L214.726 259.409V244.239C214.726 228.47 213.628 220.786 211.332 218.989C210.235 218.091 210.334 215.696 212.231 204.518C216.422 179.468 217.52 158.111 215.125 149.328C214.626 147.831 215.324 147.631 220.514 147.631C227.5 147.631 249.955 144.937 253.648 143.639C256.642 142.641 262.53 142.542 264.626 143.44ZM148.857 145.536C148.857 146.035 149.755 146.733 150.853 147.132C152.55 147.631 152.649 148.031 151.552 150.426C150.953 151.923 150.154 153.32 149.855 153.62C149.556 153.919 148.558 155.715 147.56 157.612C146.661 159.508 144.865 162.701 143.767 164.598C141.671 167.991 138.677 173.181 134.585 180.566C133.587 182.462 131.492 185.955 130.094 188.25L127.5 192.342L124.306 189.847C121.112 187.452 121.112 187.452 122.709 184.558C124.206 181.963 124.206 181.364 123.009 179.368C121.711 177.272 121.911 176.873 125.803 173.58C127.999 171.683 129.895 169.288 129.895 168.29C129.895 164.498 133.388 158.61 136.582 157.113C138.378 156.214 141.372 153.22 143.468 150.126C146.761 145.037 148.857 143.34 148.857 145.536ZM309.736 147.332C312.73 154.917 313.628 156.314 316.024 157.612C317.421 158.31 318.718 158.709 318.918 158.51C319.317 158.111 316.622 151.524 314.427 147.432C313.129 144.837 313.229 144.637 316.024 144.637C317.521 144.637 318.519 145.236 318.519 146.035C318.519 146.833 318.918 147.631 319.317 147.831C319.816 147.931 320.515 150.426 320.814 153.22C321.313 158.011 321.213 158.41 318.918 159.508C317.521 160.107 315.624 160.606 314.726 160.606C312.63 160.606 304.447 163.4 303.05 164.598C300.754 166.494 294.966 166.693 290.574 165.097C288.079 164.198 282.491 162.502 278.099 161.204C272.011 159.608 270.115 158.61 270.215 157.312C270.215 156.414 270.315 153.819 270.415 151.723C270.514 149.428 271.213 147.631 272.011 147.332C273.109 146.833 273.209 147.432 272.411 150.226C271.912 152.122 271.812 154.119 272.111 154.618C272.411 155.216 272.211 155.616 271.712 155.616C271.113 155.616 270.614 156.314 270.614 157.113C270.614 161.604 276.103 155.616 277.6 149.328L278.798 144.637H293.668H308.539L309.736 147.332ZM204.646 163.799C204.646 172.781 204.247 181.863 203.847 184.059L202.949 188.051L202.849 182.462C202.55 167.192 194.167 155.616 183.288 155.616C178.598 155.616 178.398 155.516 180.793 154.318C182.191 153.62 183.488 153.42 183.588 153.819C183.787 154.218 184.785 154.618 185.783 154.618C189.576 154.618 194.865 157.811 197.76 161.803L200.754 165.895V157.312C200.754 149.228 200.654 148.729 198.558 148.33C197.261 148.13 198.159 147.831 200.554 147.731L204.746 147.631L204.646 163.799ZM214.326 152.322C215.125 158.011 214.227 180.965 212.829 188.55C212.231 191.544 211.332 197.432 210.634 201.524C210.035 205.616 209.137 211.404 208.538 214.199C207.64 219.388 207.54 219.488 204.147 219.488C201.253 219.488 200.754 219.189 201.153 217.692C201.452 216.794 201.951 214.199 202.251 212.003C202.65 209.807 203.448 204.817 204.247 201.025C207.041 186.853 207.74 179.169 207.74 163.6V147.631H210.634C213.428 147.631 213.628 147.931 214.326 152.322ZM324.607 151.823C325.205 152.921 325.006 153.62 324.008 154.019C322.81 154.418 322.511 153.719 322.611 150.825C322.611 148.829 322.91 147.831 323.209 148.629C323.509 149.428 324.207 150.825 324.607 151.823ZM155.843 150.526C155.843 151.025 154.346 154.019 152.55 157.312C150.753 160.506 148.458 164.697 147.56 166.594C146.562 168.49 144.466 172.282 142.969 175.077C135.384 188.849 134.985 189.548 136.781 189.548C137.28 189.548 138.378 188.051 139.276 186.254C144.166 176.674 156.741 153.52 157.939 152.023C158.638 151.124 164.825 151.224 164.825 152.222C164.825 152.322 162.131 158.111 158.837 164.997C152.949 177.372 151.851 180.266 153.847 179.069C154.845 178.47 156.741 174.678 164.027 158.909C165.823 154.917 167.919 151.623 168.618 151.623C170.015 151.623 170.115 152.023 168.917 154.418C168.019 156.314 165.923 161.105 163.328 167.093C162.43 169.288 160.733 173.081 159.636 175.576C158.538 178.071 157.34 180.965 156.841 182.063C153.647 189.947 151.552 193.64 149.755 194.538C148.657 195.237 147.46 195.536 147.26 195.237C146.961 195.037 148.158 192.143 149.855 188.949C151.452 185.755 152.849 182.562 152.849 181.863C152.849 179.169 151.252 180.765 149.057 185.855C144.865 195.137 144.566 195.536 142.17 196.135C140.873 196.534 138.777 196.434 137.38 196.135C135.284 195.636 134.985 195.037 135.484 193.041C135.883 191.544 135.683 190.546 134.985 190.546C134.386 190.546 133.687 191.644 133.288 193.041C132.789 195.037 132.39 195.336 131.292 194.538C130.094 193.44 130.394 190.745 131.791 189.548C132.19 189.248 132.989 187.951 133.587 186.554C134.286 185.157 136.382 181.364 138.278 178.071C140.274 174.777 142.27 171.184 142.869 170.087C143.368 168.989 144.965 166.294 146.262 164.099C147.659 161.903 149.955 157.711 151.552 154.817C154.047 150.027 155.843 148.23 155.843 150.526ZM199.756 154.817V159.907L197.46 157.811C196.263 156.713 193.668 155.017 191.771 154.218L188.278 152.821L191.272 152.122C192.969 151.723 195.364 151.025 196.762 150.625C198.159 150.126 199.356 149.727 199.556 149.727C199.656 149.627 199.756 151.923 199.756 154.817ZM268.219 153.32C267.121 154.418 266.323 152.721 267.121 150.925C267.92 149.228 267.92 149.228 268.319 150.925C268.618 151.923 268.518 153.021 268.219 153.32ZM383.19 150.526C384.088 151.025 389.577 153.719 395.365 156.514C401.154 159.308 406.942 162.502 408.34 163.6L410.835 165.596H407.741C405.545 165.596 404.348 164.897 403.449 163.3C402.252 161.105 393.17 156.214 387.98 155.017C385.086 154.318 385.086 154.318 385.785 158.21C386.084 160.306 386.882 166.594 387.381 171.983C387.88 177.472 388.878 182.262 389.377 182.562C391.274 183.759 389.377 186.254 386.982 185.855C384.787 185.356 384.687 184.857 384.088 174.278C383.689 168.091 382.99 161.504 382.491 159.608C381.094 154.318 380.395 149.627 380.894 149.627C381.194 149.627 382.192 150.027 383.19 150.526ZM174.805 151.124C174.805 151.424 174.406 152.422 173.807 153.42C172.909 155.017 166.622 168.39 161.931 178.869C160.634 181.564 159.436 183.46 159.137 183.161C158.737 182.861 158.937 181.564 159.536 180.266C161.931 175.376 166.123 165.995 166.821 164.099C169.516 157.312 173.009 150.625 173.807 150.625C174.406 150.625 174.805 150.825 174.805 151.124ZM377.9 153.32C378.2 154.917 378.898 157.711 379.497 159.608C379.996 161.504 380.695 168.29 381.094 174.578L381.593 186.055L378.998 187.252L376.403 188.35V180.765C376.403 171.883 374.108 155.815 372.511 152.721C371.413 150.825 371.613 150.625 374.307 150.625C376.803 150.625 377.501 151.124 377.9 153.32ZM138.478 153.121C136.282 154.817 133.288 155.117 132.49 153.719C132.09 153.22 132.789 153.021 133.887 153.32C134.985 153.62 135.883 153.32 135.883 152.721C135.883 152.122 136.881 151.623 138.178 151.623C140.274 151.723 140.374 151.723 138.478 153.121ZM128.498 157.113C127.599 159.009 126.102 160.606 125.304 160.606C124.206 160.606 124.605 159.608 126.502 156.614C129.695 151.823 130.793 152.122 128.498 157.113ZM326.503 160.206C326.503 162.103 326.104 163.6 325.505 163.6C325.006 163.6 324.507 162.502 324.507 161.204C324.507 159.807 324.008 158.41 323.409 158.011C322.611 157.612 322.71 157.113 323.609 156.514C325.605 155.316 326.503 156.414 326.503 160.206ZM130.693 159.608C129.496 161.204 128.398 162.602 128.198 162.602C127.999 162.602 128.498 161.204 129.396 159.608C130.294 157.911 131.392 156.614 131.991 156.614C132.49 156.614 131.991 157.911 130.693 159.608ZM268.019 159.308C267.221 162.801 266.423 163.699 264.926 162.801C263.129 161.604 264.526 156.614 266.722 156.614C268.319 156.614 268.518 157.113 268.019 159.308ZM397.761 161.404L401.553 163.799L398.559 165.596C396.863 166.693 394.467 169.388 393.27 171.683C391.373 175.576 391.074 175.775 390.076 173.979C389.477 172.981 388.779 168.59 388.579 164.298L388.08 156.514L390.974 157.811C392.571 158.51 395.565 160.107 397.761 161.404ZM187.081 159.807L189.276 161.005L186.781 161.703C181.991 163.101 179.795 162.701 179.795 160.606C179.795 158.31 183.588 157.811 187.081 159.807ZM277.501 162.701C279.497 163.4 283.888 164.897 287.381 166.194C294.467 168.889 298.259 169.188 302.251 167.192C308.838 163.899 315.824 161.604 319.217 161.604C323.01 161.604 321.114 163.101 314.327 165.496C310.834 166.793 306.742 168.39 305.046 169.089C298.06 172.182 293.369 171.783 280.095 166.594C278.998 166.194 276.004 165.097 273.409 164.099C270.714 163.2 268.618 162.202 268.618 162.003C268.618 161.204 274.007 161.604 277.501 162.701ZM126.202 167.192C128.897 168.19 128.198 169.588 125.005 169.588C123.408 169.588 121.911 168.989 121.611 168.19C120.913 166.494 121.911 165.396 123.308 166.095C123.907 166.394 125.204 166.893 126.202 167.192ZM194.566 166.793C195.165 167.492 196.562 171.184 197.76 174.977C200.654 183.66 200.055 191.045 196.163 199.229C190.973 209.907 188.278 211.105 169.715 211.704L155.144 212.103L157.44 208.809C160.634 204.019 163.827 193.939 163.827 188.45C163.827 185.556 164.626 182.163 165.923 179.767L168.119 175.775L171.113 179.268C173.608 182.163 174.705 182.662 177.7 182.362C180.993 182.063 181.292 181.763 181.592 178.769C181.791 176.873 181.592 174.678 181.193 173.779C180.494 172.083 180.594 167.691 181.492 166.294C182.191 165.097 193.468 165.496 194.566 166.793ZM119.216 170.885C118.717 174.478 116.921 176.075 116.921 173.081C116.921 171.484 119.116 166.394 119.516 166.893C119.715 167.093 119.615 168.889 119.216 170.885ZM177.799 168.59C177.799 169.089 177.201 169.588 176.402 169.588C175.604 169.588 174.606 169.089 174.306 168.59C174.007 167.991 174.606 167.592 175.703 167.592C176.901 167.592 177.799 167.991 177.799 168.59ZM113.927 173.979C113.927 176.873 113.428 177.672 110.933 178.769C107.14 180.366 106.042 183.859 108.238 187.452C110.633 191.444 112.43 192.143 116.023 190.845C118.917 189.747 119.516 189.847 123.308 192.841C130.094 198.33 131.791 198.73 141.472 198.33C146.362 198.031 151.152 197.532 152.25 197.033C153.847 196.334 153.747 196.734 151.651 200.127C150.254 202.223 148.957 204.817 148.558 205.716C148.158 206.913 146.861 207.512 144.965 207.512C141.172 207.512 137.58 211.105 138.278 214.099C138.877 216.295 136.981 217.193 126.901 219.089C125.005 219.488 122.011 220.486 120.214 221.285C117.32 222.682 116.621 222.682 112.629 221.085C108.238 219.488 101.651 213.301 99.2559 208.71C97.4595 205.416 97.6591 198.53 99.5553 193.939C101.751 188.55 107.04 178.171 107.839 177.572C108.238 177.272 109.535 175.576 110.833 173.779C112.03 172.083 113.228 170.586 113.527 170.586C113.727 170.586 113.927 172.083 113.927 173.979ZM174.406 178.071C175.803 178.969 177.6 179.468 178.498 179.169C179.396 178.769 179.795 179.069 179.596 179.767C178.797 182.163 176.702 181.664 173.308 178.27C171.212 176.175 169.815 173.879 169.915 172.382C170.015 170.486 170.115 170.586 170.913 173.181C171.412 174.977 173.009 177.073 174.406 178.071ZM407.641 174.977C409.138 176.075 410.336 177.472 410.336 177.971C410.336 178.57 412.93 180.865 416.124 183.061C419.218 185.157 422.312 187.352 422.811 187.751C427.501 191.544 435.785 196.534 437.382 196.534C439.278 196.534 451.254 203.919 451.254 205.117C451.254 205.416 448.36 207.013 444.767 208.71C439.478 211.105 437.981 211.504 436.783 210.506C435.984 209.807 435.286 208.71 435.286 208.011C435.286 207.412 431.992 204.618 428.1 201.923C424.108 199.229 420.615 196.833 420.316 196.534C420.016 196.235 417.322 194.738 414.328 193.241C410.236 191.244 407.342 190.546 403.05 190.546C399.956 190.546 397.362 190.147 397.362 189.548C397.362 188.949 396.563 188.55 395.565 188.55C392.771 188.55 392.272 187.552 393.769 184.658C394.467 183.26 395.765 180.765 396.463 179.268C398.459 174.977 402.152 171.384 403.649 172.182C404.248 172.582 406.044 173.879 407.641 174.977ZM119.516 177.771C117.719 180.366 117.32 179.468 119.017 176.374C119.615 175.276 120.314 174.678 120.613 174.877C120.913 175.177 120.414 176.474 119.516 177.771ZM420.815 183.161C422.711 184.658 422.711 184.658 420.316 183.36C414.427 179.867 413.33 178.969 413.33 177.771C413.33 176.873 414.427 177.372 416.124 178.969C417.621 180.366 419.717 182.262 420.815 183.161ZM116.422 180.566C116.721 181.065 116.122 181.564 114.925 181.564C113.727 181.564 113.128 181.065 113.428 180.566C113.727 179.967 114.426 179.568 114.925 179.568C115.424 179.568 116.122 179.967 116.422 180.566ZM121.212 183.26C120.813 184.159 119.815 184.458 118.418 184.159C117.22 183.859 115.324 184.258 114.126 185.157C112.929 185.955 111.931 186.254 111.931 185.755C111.931 185.157 113.727 184.059 115.923 183.161C118.118 182.262 119.915 181.065 119.915 180.366C119.915 179.468 120.214 179.468 120.813 180.466C121.312 181.264 121.512 182.562 121.212 183.26ZM428.3 188.151C428.3 188.35 427.202 187.951 425.805 187.352C424.408 186.753 423.31 185.855 423.31 185.356C423.31 184.857 424.408 185.256 425.805 186.155C427.202 187.053 428.3 187.951 428.3 188.151ZM433.09 186.753C434.986 188.65 434.487 189.648 432.292 188.35C430.296 187.053 429.597 185.556 431.094 185.556C431.493 185.556 432.392 186.055 433.09 186.753ZM158.238 199.728C155.843 206.115 149.855 214.299 149.855 211.304C149.855 209.109 160.334 189.448 160.634 191.045C160.833 191.843 159.735 195.835 158.238 199.728ZM388.878 190.945C393.369 192.841 393.369 195.536 389.078 198.829C385.186 201.823 383.888 201.225 383.888 196.734C383.888 194.039 384.288 193.54 386.184 193.54C387.381 193.54 388.379 193.041 388.379 192.542C388.379 191.943 386.882 191.544 385.186 191.544C382.691 191.544 382.292 191.244 383.389 190.546C385.286 189.348 384.886 189.248 388.878 190.945ZM438.08 193.54C439.278 193.54 440.476 193.939 440.775 194.538C441.973 196.434 437.681 195.536 433.988 193.041C431.992 191.644 430.296 190.246 430.296 189.947C430.296 189.648 431.593 190.346 433.19 191.444C434.787 192.642 436.983 193.54 438.08 193.54ZM381.892 195.536C382.591 197.831 380.894 200.526 378.898 200.526C376.902 200.526 375.206 197.831 375.904 195.536C376.303 194.239 377.401 193.54 378.898 193.54C380.395 193.54 381.493 194.239 381.892 195.536ZM407.342 194.538C408.439 195.237 407.841 195.536 405.046 195.536C402.751 195.536 401.453 195.137 401.853 194.538C402.651 193.241 405.346 193.241 407.342 194.538ZM201.552 200.526C199.656 211.205 197.36 220.985 196.462 221.983C195.963 222.582 195.863 220.885 196.263 217.592C196.961 212.402 196.861 212.203 194.865 212.901C193.767 213.201 191.771 213.7 190.574 214.099L188.278 214.598L190.574 212.901C194.366 210.107 199.656 202.522 200.853 198.33C202.35 192.741 202.75 193.939 201.552 200.526ZM395.365 199.229C395.365 200.825 393.769 202.223 390.375 203.919L386.882 205.616L390.375 202.023C393.669 198.63 395.365 197.732 395.365 199.229ZM404.747 200.726C406.144 203.021 404.447 205.915 401.553 206.314C398.559 206.813 396.463 202.422 398.459 200.127C400.156 198.131 403.35 198.43 404.747 200.726ZM413.829 201.923C415.924 201.624 416.324 201.724 415.026 202.322C413.429 202.921 413.429 203.32 414.527 204.219C415.226 204.817 416.823 205.616 418.12 205.915C421.414 207.013 420.815 208.31 416.623 209.009C414.527 209.308 411.533 210.207 410.036 211.005C407.641 212.302 407.142 212.302 406.743 211.005C406.344 210.207 405.545 209.508 404.747 209.508C402.851 209.508 402.95 208.909 405.346 206.514C406.443 205.416 407.342 203.62 407.342 202.522C407.342 200.825 407.641 200.626 409.138 201.424C410.036 201.923 412.232 202.123 413.829 201.923ZM432.292 211.005C432.292 211.803 431.893 212.702 431.294 213.001C430.795 213.301 430.296 213.001 430.296 212.203C430.296 210.107 426.803 207.412 424.907 208.111C423.809 208.51 423.31 208.211 423.31 206.913C423.31 206.015 422.511 204.318 421.613 203.221C420.615 202.123 422.611 203.121 426.104 205.416C429.497 207.712 432.292 210.207 432.292 211.005ZM400.056 211.105C399.956 211.205 397.761 211.604 395.166 211.903L390.375 212.602V209.109C390.375 204.418 392.87 203.919 397.062 207.911C398.859 209.508 400.256 210.905 400.056 211.105ZM387.88 208.111C389.777 210.107 389.477 212.402 387.182 213.899C384.886 215.297 381.992 213.6 381.593 210.506C380.994 206.714 384.986 205.217 387.88 208.111ZM460.735 209.209C462.631 210.107 464.228 211.205 464.228 211.704C464.228 212.103 464.927 212.502 465.725 212.502C466.524 212.502 467.222 212.802 467.222 213.201C467.222 214.498 473.21 217.492 475.506 217.492C478.2 217.492 488.679 228.47 490.875 233.46C492.073 236.355 492.172 237.752 491.075 241.943C490.476 244.638 489.378 247.832 488.779 248.83C486.484 252.822 481.594 257.712 478.5 259.009C475.007 260.506 465.027 260.806 461.733 259.508C459.837 258.71 459.837 258.71 462.232 257.912C463.629 257.512 466.025 256.115 467.621 254.918C470.216 252.922 470.715 252.822 473.21 254.019C476.703 255.816 478.799 255.017 479.697 251.624C480.296 249.129 479.498 247.931 475.506 245.636C474.607 245.137 474.607 243.74 475.506 240.147C477.402 231.564 472.911 219.987 465.925 215.596C464.029 214.498 459.538 212.702 455.945 211.803C449.757 210.207 449.458 210.007 451.553 208.809C454.547 207.113 456.543 207.213 460.735 209.209ZM145.364 209.708C144.266 210.306 142.57 211.704 141.671 212.901C140.673 213.999 139.875 214.498 139.875 213.8C139.875 212.103 143.967 208.51 145.763 208.51C146.961 208.61 146.861 208.809 145.364 209.708ZM424.008 214.099C424.308 214.897 424.008 216.893 423.31 218.59C422.312 220.985 421.513 221.484 419.517 221.285C417.222 220.985 416.923 220.486 416.723 216.295C416.523 212.602 416.723 211.504 418.12 211.205C420.316 210.706 423.21 212.203 424.008 214.099ZM427.402 213.201C428.4 215.895 427.901 220.486 426.503 220.486C426.104 220.486 425.805 218.191 425.705 215.496C425.705 212.702 425.805 210.506 426.004 210.506C426.204 210.506 426.803 211.704 427.402 213.201ZM413.928 213.999C416.224 216.195 415.226 218.889 412.032 219.289C409.737 219.588 409.338 219.289 409.338 217.293C409.338 215.197 410.934 212.502 412.132 212.502C412.332 212.502 413.13 213.201 413.928 213.999ZM382.591 221.185C382.391 221.883 380.894 222.482 379.298 222.482C376.503 222.482 376.403 222.283 376.403 217.991V213.4L379.697 216.694C381.593 218.49 382.89 220.586 382.591 221.185ZM187.779 214.897C187.779 215.796 183.887 216.195 182.69 215.396C181.692 214.798 182.29 214.498 184.586 214.498C186.282 214.498 187.779 214.698 187.779 214.897ZM194.167 216.694C193.268 219.788 193.069 219.987 191.272 218.49C189.775 217.293 189.875 216.993 191.971 215.895C194.965 214.199 194.965 214.199 194.167 216.694ZM401.653 219.688C401.254 222.582 400.954 225.875 400.954 226.973C400.855 228.071 399.956 229.169 398.859 229.468C397.561 229.867 396.763 231.065 396.563 232.762C396.264 235.257 396.463 235.456 400.256 235.456C403.649 235.456 404.348 235.157 404.348 233.46C404.348 232.362 404.847 231.464 405.346 231.464C406.942 231.464 406.443 227.273 404.747 225.975C403.449 225.077 403.25 223.879 403.849 219.388C404.647 214.498 404.747 214.299 405.346 217.093C406.244 221.285 407.142 222.482 409.936 223.48C412.631 224.478 413.23 226.474 410.835 226.474C409.837 226.474 409.338 227.572 409.338 229.967C409.338 233.161 409.537 233.46 412.332 233.46C415.026 233.46 415.326 233.161 415.326 230.466C415.326 228.77 414.926 227.472 414.328 227.472C413.829 227.472 413.33 226.774 413.33 225.975C413.33 224.977 414.427 224.478 416.823 224.478C419.617 224.478 420.316 224.877 420.316 226.474C420.316 227.572 419.817 228.47 419.218 228.47C418.619 228.47 418.32 229.668 418.519 231.165C418.719 233.46 419.318 234.059 422.112 234.259C425.106 234.558 425.306 234.359 425.306 231.564C425.306 229.867 424.907 228.47 424.308 228.47C423.809 228.47 423.31 227.572 423.31 226.474C423.31 223.281 426.004 224.179 426.703 227.572C427.701 232.862 427.402 236.355 425.605 238.45C423.709 240.546 420.815 241.045 419.817 239.448C419.118 238.351 414.627 238.151 407.94 239.049C404.447 239.548 403.35 240.147 403.35 241.444C403.35 242.842 402.751 243.141 401.154 242.742C399.857 242.442 398.36 241.744 397.661 241.245C396.962 240.746 395.465 240.347 394.168 240.446C389.477 240.846 389.377 240.846 390.076 233.66C390.475 229.269 391.274 226.574 392.272 225.776C393.469 224.877 393.968 224.877 394.268 225.776C394.467 226.474 395.166 227.273 395.765 227.672C398.06 229.269 399.358 228.37 399.358 225.476C399.358 223.78 398.958 222.482 398.36 222.482C397.861 222.482 397.362 221.584 397.362 220.386C397.362 219.289 396.863 217.492 396.363 216.394C395.365 214.698 395.665 214.498 398.759 214.498H402.252L401.653 219.688ZM435.286 218.69C436.084 221.085 437.282 223.979 438.08 225.277C439.777 227.971 439.278 238.85 437.382 240.746C434.587 243.44 430.296 233.361 430.296 224.079C430.296 221.584 430.795 219.488 431.294 219.488C431.893 219.488 432.292 218.39 432.292 216.993C432.292 213.201 433.789 213.999 435.286 218.69ZM449.058 215.197C446.963 215.396 443.569 215.396 441.573 215.197C439.478 214.997 441.174 214.798 445.266 214.798C449.358 214.798 451.054 214.997 449.058 215.197ZM312.93 218.49C313.429 218.989 314.527 219.488 315.325 219.488C318.02 219.488 329.197 228.47 333.589 234.159C339.078 241.345 343.469 248.031 343.469 249.428C343.469 250.027 343.868 251.225 344.367 252.223C344.866 253.121 345.565 254.718 345.864 255.616C346.263 256.914 347.461 257.413 349.856 257.413C354.946 257.413 363.429 259.409 367.82 261.604L371.713 263.6L371.114 268.69C370.315 275.277 369.417 276.075 364.727 274.179C357.142 271.085 353.649 270.387 346.563 270.387C338.579 270.387 335.884 271.385 328 277.473C319.417 283.96 312.231 286.654 302.351 287.153C291.073 287.752 285.784 286.055 275.005 278.371C262.73 269.688 259.836 268.391 251.951 268.391C242.969 268.391 228.398 271.584 222.011 274.878C218.119 276.974 218.119 276.874 216.822 271.983C214.726 263.6 215.125 262.702 221.013 261.105C223.808 260.307 229.396 259.109 233.189 258.411C246.263 256.115 248.957 254.918 251.153 250.127C252.251 247.832 253.448 245.736 253.748 245.436C254.047 245.137 255.145 243.44 256.043 241.744C257.94 237.951 269.816 225.676 273.908 223.081C277.501 220.885 283.988 218.49 289.077 217.392C294.167 216.394 311.632 217.193 312.93 218.49ZM452.252 218.49C451.254 219.089 453.45 219.488 458.54 219.688C466.025 219.987 466.424 220.087 468.021 222.981C468.919 224.578 470.017 226.075 470.516 226.275C470.915 226.474 471.214 227.073 471.214 227.572C471.214 228.071 465.625 228.47 458.839 228.47H446.364L445.166 224.977C444.468 223.081 443.37 221.484 442.771 221.384C442.272 221.285 442.871 220.885 444.268 220.486C446.663 219.688 446.663 219.688 444.567 219.588C440.076 219.388 442.372 217.592 447.561 217.293C453.35 216.993 454.348 217.193 452.252 218.49ZM391.473 222.782C390.176 224.079 389.976 221.684 391.074 218.79C391.773 217.193 391.872 217.293 392.172 219.388C392.371 220.686 392.072 222.183 391.473 222.782ZM366.423 229.867C366.423 233.76 365.226 235.057 363.529 233.061C362.631 232.063 362.631 231.065 363.529 229.069C365.226 225.476 366.423 225.776 366.423 229.867ZM379.198 229.867C379.797 235.157 378.699 237.452 375.405 237.452C371.313 237.452 367.222 235.456 367.92 233.66C368.22 232.961 368.419 230.965 368.419 229.368C368.419 226.374 368.419 226.374 373.709 226.674C378.599 226.973 378.898 227.173 379.198 229.867ZM385.385 230.167C385.385 231.764 384.387 234.059 383.29 235.456C381.793 237.253 381.393 237.452 381.793 236.155C382.092 235.157 382.391 232.762 382.391 230.865C382.391 228.47 382.89 227.472 383.888 227.472C384.886 227.472 385.385 228.47 385.385 230.167ZM413.33 229.967C413.33 230.766 412.93 231.464 412.332 231.464C411.833 231.464 411.334 230.766 411.334 229.967C411.334 229.169 411.833 228.47 412.332 228.47C412.93 228.47 413.33 229.169 413.33 229.967ZM443.769 238.051C443.47 239.947 442.771 241.644 442.372 241.943C441.873 242.143 441.873 240.746 442.372 238.65C442.871 236.654 443.27 233.361 443.37 231.464L443.569 227.971L443.969 231.364C444.268 233.261 444.168 236.255 443.769 238.051ZM423.31 230.965C423.31 231.764 422.611 232.462 421.813 232.462C421.014 232.462 420.316 231.764 420.316 230.965C420.316 230.167 421.014 229.468 421.813 229.468C422.611 229.468 423.31 230.167 423.31 230.965ZM471.214 231.664C471.214 232.462 468.619 232.562 463.031 232.163C458.44 231.764 452.851 231.464 450.555 231.464C448.16 231.464 446.264 231.165 446.264 230.666C446.264 230.267 451.853 230.067 458.739 230.267C466.923 230.466 471.214 230.965 471.214 231.664ZM401.154 232.562C400.954 233.161 400.356 233.56 399.857 233.56C399.358 233.56 398.759 233.161 398.559 232.562C398.36 231.963 398.958 231.464 399.857 231.464C400.755 231.464 401.354 231.963 401.154 232.562ZM387.182 237.452C386.982 240.347 386.483 241.345 385.585 240.945C384.787 240.646 383.489 240.446 382.591 240.347C381.294 240.347 381.393 240.047 383.09 239.249C384.288 238.65 385.485 237.153 385.785 235.856C386.783 232.163 387.481 233.061 387.182 237.452ZM471.813 234.758C472.013 234.957 471.913 237.153 471.613 239.648L471.015 244.139L467.122 243.341C464.528 242.742 462.631 242.842 461.334 243.54C459.937 244.538 458.739 244.339 455.645 242.742C453.549 241.644 450.555 240.147 449.058 239.448C447.062 238.55 446.264 237.353 446.264 235.656V233.161L458.839 233.76C465.725 234.059 471.613 234.558 471.813 234.758ZM434.288 244.239C434.288 246.734 428 249.428 422.112 249.428C419.018 249.428 416.124 248.929 415.825 248.43C415.425 247.832 416.623 247.432 418.619 247.432C421.214 247.432 422.212 246.933 422.611 245.436C422.911 244.339 423.909 243.44 424.807 243.44C425.705 243.44 427.402 242.243 428.599 240.846L430.595 238.251L432.392 240.546C433.39 241.844 434.288 243.54 434.288 244.239ZM418.22 243.84C419.118 244.937 418.619 245.337 415.625 245.736C412.132 246.335 409.338 245.237 409.338 243.341C409.338 241.943 417.022 242.343 418.22 243.84ZM446.663 243.939C446.264 244.738 445.665 245.137 445.166 244.838C443.769 244.039 444.168 242.442 445.765 242.442C446.663 242.442 446.963 243.041 446.663 243.939ZM441.274 243.939C441.274 244.738 435.086 251.424 434.388 251.424C433.988 251.424 435.186 249.628 437.182 247.532C440.875 243.44 441.274 243.141 441.274 243.939ZM456.943 246.834C456.943 247.632 456.144 247.931 455.046 247.632C453.25 247.233 452.751 246.235 453.849 245.137C454.747 244.239 456.943 245.337 456.943 246.834ZM455.146 250.127C455.346 250.327 455.046 250.426 454.448 250.426C453.849 250.426 452.052 249.229 450.555 247.832L447.761 245.237L451.254 247.532C453.15 248.73 454.947 249.927 455.146 250.127ZM467.721 246.834C468.42 246.534 471.214 247.432 473.909 248.83C476.504 250.227 478.101 251.325 477.402 251.424C476.703 251.424 476.404 251.824 476.703 252.423C477.502 253.72 477.003 253.72 473.51 251.923C471.913 251.125 469.318 250.327 467.821 250.227C465.725 250.027 465.226 249.528 465.326 247.432C465.326 246.035 465.625 245.436 465.825 246.135C466.124 246.834 466.923 247.133 467.721 246.834ZM449.458 249.927C452.551 252.522 457.741 253.321 458.44 251.225C458.739 250.426 459.637 250.826 461.035 252.123C464.627 255.816 461.534 255.616 445.965 251.624C440.575 250.227 439.478 249.628 440.476 248.63C442.372 246.734 446.264 247.233 449.458 249.927ZM445.366 253.421C458.24 256.714 457.741 256.514 455.745 257.612C452.851 259.309 433.689 255.217 434.887 253.221C435.585 252.123 440.775 252.223 445.366 253.421ZM260.934 272.083C263.528 272.982 265.624 274.179 265.624 274.578C265.624 274.978 266.223 275.377 266.922 275.377C267.62 275.377 269.317 276.475 270.814 277.872C272.311 279.269 274.007 280.367 274.606 280.367C275.105 280.367 275.604 280.766 275.604 281.265C275.604 281.764 278.898 283.76 282.89 285.756C289.776 289.149 290.874 289.349 299.656 289.349C306.443 289.349 310.535 288.85 314.327 287.453C319.217 285.656 328.1 280.566 330.794 277.972C331.493 277.373 333.389 275.976 334.986 274.878C342.671 269.788 371.114 274.778 368.818 280.766C368.419 281.764 367.82 282.063 367.022 281.564C365.026 279.968 356.044 277.572 349.756 276.874C342.072 275.976 334.886 277.572 329.497 281.465C327.301 283.061 322.311 285.956 318.319 288.051C311.333 291.644 310.634 291.744 300.555 291.744C290.475 291.844 289.776 291.644 282.59 288.151C278.499 286.155 274.007 283.461 272.61 282.163C271.213 280.866 267.92 278.77 265.125 277.473C255.844 273.081 236.682 275.077 222.71 281.764L217.72 284.159V281.564C217.72 279.269 218.418 278.57 222.51 277.073C225.105 275.976 228.099 274.878 229.197 274.379C238.578 270.586 253.548 269.488 260.934 272.083ZM252.65 277.972C250.155 278.67 247.061 279.369 245.864 279.369C244.566 279.369 242.271 279.968 240.874 280.766C239.377 281.564 236.582 282.862 234.686 283.76C232.79 284.558 228.698 286.854 225.704 288.75C220.015 292.343 219.017 292.143 218.818 287.353C218.718 285.756 226.402 281.764 232.69 280.167C241.173 277.872 248.458 276.574 252.65 276.574L257.141 276.475L252.65 277.972ZM353.649 279.269C354.946 279.768 358.539 280.866 361.633 281.764C364.826 282.662 367.621 283.86 367.92 284.459C369.018 286.055 367.321 291.345 365.824 291.345C365.026 291.345 364.427 290.946 364.427 290.546C364.427 289.648 355.645 285.157 350.954 283.56C349.357 283.061 345.265 282.063 342.072 281.365C337.98 280.566 336.583 279.868 337.581 279.269C339.377 278.171 350.655 278.071 353.649 279.269ZM256.642 284.558C256.542 285.856 255.245 289.349 253.648 292.343C251.951 295.337 250.654 298.431 250.654 299.229C250.654 300.327 250.255 300.127 249.157 298.73C248.359 297.732 247.66 295.936 247.66 294.738C247.66 293.64 247.261 292.343 246.862 291.744C246.363 291.245 245.564 289.648 244.866 288.151C243.768 285.556 243.967 285.457 247.959 283.96C254.347 281.764 256.642 281.964 256.642 284.558ZM268.219 285.856C268.518 286.654 268.419 288.55 267.92 290.047L266.922 292.842L265.325 289.748C264.127 287.453 264.027 286.355 264.926 285.457C266.423 283.96 267.52 284.059 268.219 285.856ZM263.029 289.449C264.227 292.443 264.327 293.042 263.129 293.042C261.433 293.042 259.536 288.85 260.335 286.854C261.033 284.958 261.233 285.057 263.029 289.449ZM344.367 286.754L348.858 288.051L346.164 290.646C344.267 292.642 342.571 293.341 339.876 293.341C335.784 293.341 329.497 291.445 329.497 290.147C329.497 289.748 328.698 289.349 327.8 289.349C326.503 289.349 326.902 288.75 328.998 287.453C332.591 285.157 338.279 284.858 344.367 286.754ZM244.666 296.535C244.666 297.433 245.165 298.531 245.664 298.83C246.662 299.429 247.161 317.293 246.063 317.293C245.764 317.293 243.568 316.195 241.073 314.798C238.578 313.401 235.983 312.303 235.285 312.303C234.486 312.303 233.788 310.507 233.388 307.513C233.089 304.918 232.49 301.325 232.091 299.529C231.592 296.834 231.692 296.335 233.289 296.335C234.486 296.335 236.283 294.539 238.079 291.544L240.973 286.854L242.77 290.846C243.768 293.042 244.666 295.636 244.666 296.535ZM273.409 290.447C271.313 291.844 270.814 291.445 271.313 289.349C271.712 287.752 272.111 287.552 273.309 288.451C274.407 289.449 274.407 289.848 273.409 290.447ZM235.684 290.147C235.684 291.145 231.592 293.64 230.993 292.942C230.095 292.143 232.69 289.349 234.287 289.349C235.085 289.349 235.684 289.648 235.684 290.147ZM258.638 291.245C258.638 293.64 257.441 294.439 255.744 293.341C254.546 292.742 254.646 292.243 255.744 290.946C257.64 288.85 258.638 288.95 258.638 291.245ZM354.946 291.145C358.539 297.732 363.629 309.01 364.128 311.405C365.026 315.996 361.533 315.197 357.94 309.908C356.044 307.113 352.651 304.119 348.958 301.924C343.868 298.83 342.172 298.331 336.682 298.331C333.189 298.331 329.497 298.83 328.299 299.429C327.201 300.028 326.104 300.227 325.804 299.928C324.806 299.03 324.207 290.047 325.106 290.546C334.786 295.237 335.984 295.537 340.874 295.038C344.667 294.738 346.363 294.04 347.96 292.043C350.355 289.049 353.549 288.65 354.946 291.145ZM277.6 292.243C277.6 293.541 274.606 294.439 273.309 293.64C272.61 293.241 273.109 292.642 274.606 292.243C276.004 291.844 277.201 291.544 277.401 291.445C277.501 291.345 277.6 291.744 277.6 292.243ZM322.411 298.63C322.511 300.926 321.912 301.724 319.018 302.922C317.022 303.72 315.026 304.119 314.626 303.82C314.127 303.521 313.529 301.525 313.329 299.329C313.03 295.437 313.129 295.337 317.022 294.04C321.513 292.443 322.311 293.141 322.411 298.63ZM228.698 294.838C228.698 295.636 227.999 296.335 227.201 296.335C225.604 296.335 225.205 295.137 226.402 294.04C227.5 292.842 228.698 293.241 228.698 294.838ZM365.525 297.732C365.425 298.032 365.325 300.028 365.325 302.024C365.226 304.119 364.926 304.918 364.727 303.92C364.427 302.922 363.13 300.028 361.733 297.533L359.138 292.942L362.431 295.038C364.128 296.135 365.525 297.333 365.525 297.732ZM258.638 302.423L255.445 306.814L256.143 303.321C256.542 301.425 257.54 298.531 258.439 296.834C259.936 293.94 259.936 293.94 260.834 295.936C261.632 297.632 261.233 298.93 258.638 302.423ZM300.555 296.734L310.036 296.834L310.834 301.525L311.732 306.315L316.922 306.415C320.714 306.415 321.513 306.714 320.016 307.313C317.321 308.511 308.539 308.511 308.539 307.413C308.539 306.814 303.848 306.515 297.161 306.614C290.874 306.714 285.485 306.515 285.085 306.115C284.686 305.716 284.686 302.922 284.986 299.928C285.684 294.439 285.684 294.439 288.379 295.537C289.876 296.135 295.365 296.634 300.555 296.734ZM280.495 298.531C280.495 300.327 280.195 302.622 279.796 303.521C279.197 305.018 278.698 304.818 275.405 302.423C271.912 299.828 271.712 299.529 273.409 298.131C277.6 294.439 280.594 294.638 280.495 298.531ZM267.62 299.828C267.62 299.928 266.123 301.225 264.427 302.922C262.63 304.519 261.732 305.117 262.431 304.319C263.029 303.521 263.628 302.223 263.628 301.325C263.628 300.427 264.427 299.728 265.624 299.728C266.722 299.728 267.62 299.828 267.62 299.828ZM338.778 301.026C337.481 301.225 335.485 301.225 334.287 301.026C332.99 300.826 333.988 300.626 336.483 300.626C338.978 300.626 339.976 300.826 338.778 301.026ZM273.409 303.421C274.906 304.618 275.405 305.317 274.606 304.918C273.808 304.618 272.311 304.02 271.413 303.72C270.415 303.321 269.616 302.722 269.616 302.223C269.616 300.826 270.614 301.125 273.409 303.421ZM347.261 302.722C352.551 305.417 360.934 316.295 357.741 316.295C356.942 316.295 352.451 309.808 352.451 308.71C352.451 307.213 346.862 303.421 345.365 303.82C344.367 304.119 343.469 303.72 343.07 302.822C342.371 300.926 343.768 300.926 347.261 302.722ZM341.273 305.217C342.172 305.716 343.868 306.515 344.966 306.914C346.563 307.413 346.064 307.812 342.77 308.411C336.782 309.509 334.487 311.006 332.89 314.798C331.193 318.99 331.094 322.882 332.69 328.97C333.688 333.261 333.688 333.661 331.393 335.357L328.998 337.154L328.399 330.966C328 327.573 327.7 321.585 327.601 317.692C327.501 309.908 328.798 307.712 334.986 305.517C338.878 304.119 339.178 304.119 341.273 305.217ZM270.614 307.313C270.614 307.712 272.411 308.81 274.606 309.708C276.802 310.606 278.598 311.604 278.598 311.904C278.598 312.303 277.7 314.499 276.503 316.794L274.407 320.986L270.514 319.09C266.822 317.393 266.622 316.994 266.622 312.902C266.622 307.313 267.421 305.317 269.217 306.016C270.015 306.315 270.614 306.914 270.614 307.313ZM263.129 310.507C262.231 314.399 262.031 314.698 260.734 313.8C259.936 313.401 260.135 312.203 261.133 310.207C263.129 306.415 263.928 306.515 263.129 310.507ZM290.075 309.309C290.774 310.507 289.876 310.507 287.081 309.309C285.185 308.511 285.185 308.411 287.281 308.411C288.479 308.311 289.776 308.71 290.075 309.309ZM302.85 309.01C301.553 309.209 299.357 309.209 297.86 309.01C296.263 308.81 297.361 308.61 300.056 308.61C302.85 308.61 304.048 308.81 302.85 309.01ZM322.91 312.403C321.014 314.499 321.014 326.076 322.91 328.77C323.609 329.868 324.507 332.762 324.906 335.257C325.505 339.649 325.505 339.748 321.613 341.944L317.72 344.239L317.221 329.968C316.922 322.183 316.423 314.599 316.024 313.002C315.425 310.606 315.525 310.307 317.621 310.307C318.918 310.307 320.714 309.908 321.513 309.309C323.609 308.012 324.706 310.407 322.91 312.403ZM300.854 311.006C299.058 311.205 296.063 311.205 294.367 311.006C292.57 310.806 293.968 310.606 297.561 310.606C301.153 310.606 302.551 310.806 300.854 311.006ZM314.327 329.369C314.726 342.343 314.527 345.637 313.429 346.335C311.233 347.633 310.834 347.433 309.537 344.239C307.84 340.048 301.054 333.76 294.467 329.968C288.678 326.774 288.179 325.876 284.986 314.499C284.686 313.601 287.281 313.301 295.365 313.201C301.253 313.102 307.441 312.702 309.038 312.403C310.734 312.004 312.431 312.004 312.93 312.403C313.429 312.902 314.028 320.487 314.327 329.369ZM351.253 312.902C352.451 313.7 353.848 315.197 354.447 316.295C355.245 317.792 354.846 318.491 352.152 320.187C350.455 321.285 348.06 322.982 346.962 323.98C344.267 326.375 337.78 331.265 337.182 331.265C336.183 331.265 334.487 324.878 334.487 321.585C334.487 317.792 335.984 314.499 338.379 312.603C340.675 310.806 348.559 311.006 351.253 312.902ZM283.588 318.291C284.287 321.086 285.185 323.581 285.684 323.88C286.183 324.179 286.582 324.878 286.582 325.577C286.582 326.375 286.283 326.375 285.385 325.477C284.686 324.778 283.588 324.279 282.89 324.279C282.091 324.279 280.495 323.581 279.197 322.682L276.802 321.185L278.898 316.794C280.095 314.399 281.293 312.603 281.692 312.902C282.091 313.102 282.89 315.497 283.588 318.291ZM251.652 317.792C251.652 321.385 251.353 322.084 250.055 321.585C249.057 321.185 248.658 320.287 249.057 318.89C249.357 317.792 249.656 315.996 249.656 314.998C249.656 314.1 250.155 313.301 250.654 313.301C251.253 313.301 251.652 315.297 251.652 317.792ZM234.786 316.395C238.279 317.593 245.764 322.882 251.353 328.271C253.149 329.868 255.045 331.265 255.544 331.265C256.143 331.265 256.642 331.665 256.642 332.164C256.642 332.663 259.237 334.958 262.431 337.353C265.524 339.649 268.319 341.844 268.618 342.144C272.61 346.734 286.183 353.321 292.87 354.02C297.361 354.419 306.343 353.122 311.034 351.226C312.131 350.826 314.626 349.828 316.523 349.13C318.419 348.431 320.714 347.333 321.613 346.535C322.411 345.836 323.509 345.237 324.008 345.237C324.706 345.237 337.481 336.455 338.479 335.257C338.778 334.958 343.07 331.764 347.96 328.271C352.95 324.778 357.142 321.585 357.441 321.285C359.038 319.589 364.627 317.293 367.321 317.293C371.313 317.293 371.513 319.988 367.721 320.886C364.327 321.684 352.451 328.171 350.455 330.267C350.156 330.567 348.16 332.064 345.964 333.661C342.371 336.255 325.804 349.928 324.507 351.226C320.315 355.717 301.752 366.196 298.06 366.196C293.369 366.196 283.189 360.507 275.704 353.82C270.614 349.13 256.542 336.056 253.848 333.461C252.65 332.263 251.153 331.265 250.654 331.265C250.055 331.265 249.656 330.866 249.656 330.367C249.656 329.668 239.576 322.283 237.181 321.385C236.682 321.185 234.985 320.187 233.488 319.189C232.091 318.092 230.195 317.293 229.297 317.293C228.398 317.293 227.7 316.794 227.7 316.295C227.7 314.998 230.594 314.998 234.786 316.395ZM324.806 322.283C325.305 328.171 325.205 328.571 324.008 326.275C322.511 323.581 322.112 319.489 323.11 316.794C324.008 314.499 324.207 314.998 324.806 322.283ZM256.143 321.784C255.744 324.279 255.245 326.175 254.945 325.876C254.746 325.676 254.846 323.381 255.145 320.786C255.544 318.291 256.043 316.395 256.343 316.694C256.542 316.894 256.443 319.189 256.143 321.784ZM265.125 318.99C266.922 320.387 266.922 320.487 265.325 319.888C264.327 319.589 263.029 319.289 262.53 319.289C262.031 319.289 261.632 318.79 261.632 318.291C261.632 316.894 262.83 317.094 265.125 318.99ZM232.49 321.585C237.081 323.78 248.458 331.764 251.852 335.058C259.037 342.243 266.622 349.13 277.6 358.611C283.588 363.701 292.67 368.192 297.261 368.192C301.952 368.192 318.818 360.208 322.511 356.216C322.81 355.916 325.305 353.92 328 351.725C330.794 349.629 333.888 346.934 334.986 345.736C336.084 344.639 338.778 342.343 340.974 340.746C343.17 339.15 345.565 337.253 346.263 336.555C348.559 334.359 363.928 324.579 365.924 323.98C367.022 323.78 368.719 323.181 369.717 322.782C371.114 322.183 371.413 322.583 371.413 325.177C371.413 327.672 371.014 328.271 369.317 328.271C366.423 328.271 353.349 335.856 350.455 339.249C350.156 339.549 348.659 340.647 347.162 341.545C344.168 343.541 342.271 345.038 337.182 349.629C335.385 351.126 331.293 354.719 328 357.513C324.706 360.208 321.812 362.802 321.513 363.102C321.213 363.501 319.217 365.098 317.022 366.695C314.826 368.391 312.83 369.988 312.531 370.287C310.934 372.284 299.357 377.174 296.263 377.174C293.069 377.174 285.784 373.082 279.896 367.992C276.702 365.198 268.019 357.014 260.634 349.828C246.662 336.156 239.576 330.367 231.492 326.375C227.8 324.479 226.702 323.381 226.702 321.585C226.702 318.79 226.602 318.79 232.49 321.585ZM261.632 324.778C261.632 326.076 262.031 328.271 262.63 329.668C263.828 332.862 262.93 332.862 259.337 329.768C256.942 327.672 256.642 326.774 257.241 323.78C257.74 320.786 258.139 320.487 259.736 321.385C260.834 321.884 261.632 323.381 261.632 324.778ZM270.614 327.672C270.614 328.471 270.015 330.467 269.217 332.263C268.219 334.758 267.82 335.158 267.221 333.76C266.922 332.862 266.622 330.367 266.622 328.171C266.622 324.479 266.822 324.279 268.618 325.277C269.716 325.876 270.614 326.974 270.614 327.672ZM231.991 329.369C238.379 332.663 248.359 341.046 261.632 354.22C268.219 360.806 274.007 366.196 274.407 366.196C274.806 366.196 275.704 367.094 276.303 368.092C277.002 369.19 280.295 371.984 283.588 374.18C291.572 379.569 297.76 380.467 305.345 377.174C308.239 375.976 310.535 374.679 310.535 374.28C310.535 373.98 311.832 373.082 313.429 372.383C315.026 371.685 317.421 370.088 318.718 368.89C320.016 367.693 323.309 364.898 326.104 362.802C328.798 360.607 332.491 357.413 334.187 355.617C336.782 353.022 345.166 346.036 349.956 342.443C350.555 342.044 352.551 340.547 354.547 339.05C359.337 335.557 365.325 332.164 368.719 331.166C371.114 330.467 371.413 330.666 371.413 332.563C371.413 334.16 370.216 335.257 367.122 336.655C363.329 338.451 355.645 342.942 354.447 344.239C354.148 344.539 352.152 346.036 349.956 347.732C347.76 349.329 344.168 352.224 342.072 354.22C331.692 363.501 324.607 369.988 320.515 374.18C317.92 376.675 314.327 380.068 312.431 381.765C304.447 388.95 295.265 391.046 288.778 387.154C286.982 386.056 278.698 378.272 270.315 369.788C256.143 355.517 237.68 339.549 229.995 335.058C227.5 333.561 226.702 332.363 226.702 330.167C226.702 326.674 226.702 326.674 231.991 329.369ZM286.682 329.868C289.477 331.265 291.572 332.563 291.373 332.762C291.173 333.062 288.279 331.864 284.986 330.267C281.792 328.67 279.696 327.273 280.395 327.273C281.093 327.273 283.888 328.471 286.682 329.868ZM280.095 330.367C280.594 330.866 281.792 331.265 282.79 331.265C283.788 331.265 284.586 331.665 284.586 332.164C284.586 332.663 285.584 333.261 286.882 333.661C289.676 334.359 291.473 337.952 291.772 343.042C291.872 346.036 291.972 345.637 292.471 341.345L293.069 335.956L298.359 340.746C301.852 343.94 303.549 346.235 303.549 347.832C303.549 350.128 303.249 350.227 296.562 350.227C289.077 350.227 283.988 348.331 274.906 342.044C271.213 339.549 270.614 338.651 270.614 335.657C270.614 329.968 272.211 327.972 275.904 328.77C277.7 329.169 279.497 329.868 280.095 330.367ZM301.553 337.453C302.351 338.152 303.748 339.649 304.547 340.746C305.345 341.844 304.147 341.046 301.852 338.85C299.157 336.355 297.261 335.257 296.363 335.756C295.664 336.255 295.365 336.255 295.764 335.756C296.163 335.357 295.964 334.259 295.265 333.361C294.167 331.964 297.96 334.459 301.553 337.453ZM230.993 338.85C233.289 340.347 235.385 341.844 235.684 342.144C235.983 342.443 237.979 344.04 240.175 345.736C242.371 347.333 244.866 349.429 245.764 350.427C246.662 351.425 247.66 352.224 247.959 352.224C248.858 352.224 262.331 364.998 270.015 373.182C281.093 384.958 284.487 387.852 289.177 390.048C299.956 395.138 305.744 392.144 329.896 368.79C335.385 363.501 340.076 359.21 340.275 359.21C340.575 359.21 341.473 358.411 342.371 357.413C344.866 354.719 356.343 345.936 362.731 341.844C366.922 339.15 369.417 338.251 371.713 338.451L374.906 338.75L375.206 358.212C375.405 372.683 375.106 378.771 374.108 381.665C372.611 386.056 368.818 389.15 358.938 394.24C346.263 400.627 342.97 402.823 337.481 408.112C334.387 411.106 330.495 415.398 328.898 417.593C327.301 419.789 325.804 421.785 325.505 422.084C325.205 422.384 322.311 426.276 319.118 430.767C313.529 438.851 312.032 440.547 313.129 437.553C314.028 435.358 312.131 435.757 309.936 438.152C308.938 439.35 306.742 440.947 305.145 441.745C301.852 443.442 293.269 443.741 292.77 442.144C292.57 441.545 291.772 441.046 291.073 441.046C290.375 441.046 289.576 440.647 289.377 440.248C288.778 438.751 281.692 433.861 280.594 434.26C279.397 434.659 286.982 443.042 290.874 445.537C292.371 446.535 293.469 447.533 293.169 447.733C292.67 448.332 286.283 444.839 285.784 443.741C285.584 443.342 284.886 443.042 284.287 443.042C282.79 443.042 267.82 427.673 265.225 423.581C264.127 421.984 262.93 420.188 262.431 419.589C261.932 419.09 259.736 415.797 257.54 412.404C253.748 406.615 244.965 398.531 237.181 393.541C235.584 392.543 233.788 391.346 233.189 390.847C232.69 390.447 230.295 388.751 227.899 387.154C219.915 381.465 219.616 380.268 220.315 359.21C220.614 349.03 221.013 339.748 221.313 338.451C221.911 335.457 225.604 335.557 230.993 338.85ZM307.84 345.736C308.139 347.333 307.84 348.132 307.141 347.932C305.744 347.533 305.046 343.241 306.343 343.241C306.842 343.241 307.541 344.339 307.84 345.736ZM350.854 426.276C351.154 429.17 351.752 445.737 352.052 463.102L352.75 494.64L342.87 495.338C332.391 496.037 315.724 494.839 311.433 493.143C308.938 492.145 308.838 491.546 307.64 480.767C306.942 474.58 306.443 466.396 306.543 462.603C306.642 455.817 306.742 455.617 310.834 452.124C313.129 450.128 319.317 444.24 324.507 439.05C329.696 433.761 335.086 428.571 336.483 427.473C339.277 425.278 347.361 421.186 349.058 421.086C349.657 421.086 350.455 423.382 350.854 426.276ZM306.044 453.023C305.046 454.12 303.948 454.719 303.648 454.42C303.349 454.12 303.948 453.222 304.946 452.424C307.74 450.428 308.139 450.727 306.044 453.023Z" fill="#5B5A5F"/>
<path d="M278.898 22.9803C272.411 24.1779 269.916 26.0741 275.604 25.3755C278.099 25.0761 284.786 24.5771 290.575 24.1779C297.361 23.7787 300.355 23.2797 299.058 22.7807C296.463 21.7827 284.287 21.8825 278.898 22.9803Z" fill="#5B5A5F"/>
<path d="M288.279 83.3601C286.982 84.6576 287.58 85.7554 289.676 85.7554C290.774 85.7554 291.572 85.2564 291.373 84.5578C290.874 83.1605 289.177 82.4619 288.279 83.3601Z" fill="#5B5A5F"/>
<path d="M284.287 87.7513C282.092 90.3462 282.192 90.7454 284.487 90.7454C287.182 90.7454 288.978 88.3501 287.281 86.9529C286.283 86.0547 285.585 86.3541 284.287 87.7513Z" fill="#5B5A5F"/>
<path d="M289.577 87.6516C289.577 88.7494 295.465 91.2444 296.263 90.446C296.563 90.1466 296.064 89.1486 295.265 88.2504C293.569 86.6536 289.577 86.1546 289.577 87.6516Z" fill="#5B5A5F"/>
<path d="M280.395 117.991C277.7 118.59 275.604 119.288 275.604 119.687C275.604 120.386 302.75 119.787 303.449 119.089C305.744 116.993 288.179 116.194 280.395 117.991Z" fill="#5B5A5F"/>
<path d="M316.323 178.969C314.826 182.463 315.924 184.558 319.417 184.558C321.812 184.558 322.611 184.059 323.11 182.063C324.407 177.073 318.519 174.379 316.323 178.969Z" fill="#5B5A5F"/>
<path d="M293.568 193.241C293.568 197.033 293.169 200.427 292.77 201.025C292.371 201.524 287.38 202.123 281.592 202.223C269.516 202.423 259.536 204.419 248.159 208.71C243.767 210.407 237.58 212.004 234.386 212.203C226.801 212.802 224.705 211.105 224.705 204.618C224.705 199.029 223.807 195.536 222.41 195.536C220.813 195.536 222.21 210.706 224.206 214.898C225.903 218.491 229.995 221.485 233.189 221.485C234.087 221.485 239.077 219.688 244.466 217.393C257.839 211.604 262.031 210.806 279.396 209.908L294.566 209.209V197.932C294.566 191.644 294.367 186.554 294.067 186.554C293.768 186.554 293.568 189.548 293.568 193.241ZM290.374 204.718C291.073 205.417 291.572 206.315 291.572 206.714C291.572 207.113 286.083 207.512 279.396 207.512C263.628 207.612 254.346 209.808 239.177 217.093C232.989 220.087 232.889 220.087 229.196 216.994L226.202 214.598L232.789 214.499C238.977 214.499 242.869 213.401 253.149 209.109C257.74 207.113 265.125 205.516 270.414 205.417C273.009 205.317 276.502 204.918 278.099 204.518C282.889 203.321 289.077 203.421 290.374 204.718Z" fill="#5B5A5F"/>
<path d="M298.359 196.035C297.96 198.231 297.561 201.724 297.561 203.72V207.512H303.848C310.834 207.512 327.002 210.407 335.984 213.301C339.277 214.399 344.966 216.894 348.559 218.89C356.044 222.982 360.834 223.481 362.431 220.586C363.729 218.091 363.729 198.53 362.431 198.53C361.932 198.53 361.333 202.423 361.234 207.213C360.834 217.493 359.936 218.291 353.249 213.7C347.261 209.608 343.269 208.011 332.99 205.217C315.824 200.626 303.748 199.429 301.453 202.223C300.255 203.62 299.956 203.121 299.557 197.932L299.058 192.043L298.359 196.035ZM319.916 204.618C334.986 207.313 346.862 211.604 353.748 216.894C355.645 218.291 357.641 219.489 358.24 219.489C358.938 219.489 359.437 219.888 359.437 220.487C359.437 221.984 359.337 221.884 350.255 217.193C336.782 210.207 327.601 207.612 313.628 206.814C303.648 206.315 301.752 206.015 302.65 204.818C304.048 203.221 311.632 203.121 319.916 204.618Z" fill="#5B5A5F"/>
<path d="M289.177 148.73C283.988 152.821 287.281 158.61 294.766 158.61C299.856 158.61 302.551 156.514 302.551 152.422C302.551 146.933 294.367 144.638 289.177 148.73ZM298.559 151.624C298.559 153.221 297.86 153.62 295.066 153.62C292.87 153.62 291.573 153.121 291.573 152.322C291.573 150.326 292.571 149.628 295.764 149.628C297.86 149.628 298.559 150.127 298.559 151.624Z" fill="#5B5A5F"/>
<path d="M291.073 225.676C280.694 229.269 273.907 235.357 270.614 244.139C264.326 261.006 272.809 278.072 290.274 283.661C297.56 286.056 302.65 285.756 310.334 282.762C317.919 279.768 324.606 273.68 327.6 266.994C329.696 262.503 330.295 246.036 328.498 244.938C327.999 244.638 327.5 243.64 327.5 242.842C327.5 241.045 326.303 239.449 320.315 233.361C316.622 229.568 314.227 228.171 309.037 226.574C301.851 224.379 295.863 224.079 291.073 225.676ZM305.344 227.672C319.516 231.165 328.598 243.64 327.101 257.513C326.103 267.892 320.814 275.078 311.033 279.768C287.979 290.647 262.23 266.195 273.208 243.94C276.602 236.854 279.995 233.461 286.582 230.267C295.564 226.075 297.759 225.776 305.344 227.672Z" fill="#5B5A5F"/>
<path d="M287.581 233.062C278 238.451 275.106 243.641 275.106 255.317C275.106 263.401 275.305 264.2 278.299 268.491C280.096 271.086 283.688 274.479 286.283 275.976C290.475 278.571 292.072 278.87 299.058 278.87C305.345 278.87 307.94 278.371 311.234 276.575C325.804 268.89 328.898 250.926 317.92 238.551C310.535 230.367 296.862 227.872 287.581 233.062ZM306.743 233.86C311.633 235.557 316.723 239.948 319.517 244.738C321.413 248.032 321.713 249.728 321.313 255.916C321.014 262.204 320.515 263.9 317.92 267.493C312.331 275.178 301.952 278.87 292.87 276.276C286.383 274.379 278.399 266.395 276.603 260.108C274.008 250.826 279.696 239.549 289.078 235.058C294.866 232.263 301.054 231.864 306.743 233.86Z" fill="#5B5A5F"/>
<path d="M289.876 236.455C281.193 240.646 276.103 251.126 278.598 259.708C282.79 274.978 301.652 280.367 313.429 269.888C324.008 260.407 322.411 244.938 310.135 237.054C305.644 234.159 295.165 233.86 289.876 236.455ZM302.551 236.455C304.347 237.054 303.449 237.253 299.058 237.253C294.666 237.253 293.768 237.054 295.565 236.455C296.962 236.056 298.559 235.656 299.058 235.656C299.656 235.656 301.153 236.056 302.551 236.455ZM286.882 242.143C284.786 244.239 282.89 245.836 282.59 245.636C282.091 245.237 289.177 238.451 290.075 238.451C290.475 238.451 288.978 240.147 286.882 242.143ZM304.646 239.848C321.313 246.934 317.321 270.387 299.557 270.387C293.369 270.387 289.576 268.591 286.083 263.9C279.696 255.617 283.289 244.539 293.968 239.848C297.96 238.151 300.555 238.151 304.646 239.848ZM310.934 239.948C312.032 240.746 312.73 241.644 312.431 241.844C312.231 242.143 310.934 241.445 309.537 240.447C308.139 239.349 307.541 238.451 308.04 238.551C308.638 238.551 309.936 239.149 310.934 239.948ZM317.521 248.73C317.521 249.928 317.521 249.828 315.126 245.936L313.429 242.942L315.425 245.337C316.623 246.634 317.521 248.132 317.521 248.73ZM282.091 255.317C282.091 259.708 281.792 262.702 281.393 262.104C279.996 259.908 280.495 247.433 281.992 247.433C282.091 247.433 282.091 251.026 282.091 255.317ZM318.219 256.615C318.02 257.912 317.82 257.114 317.82 254.918C317.72 252.722 317.92 251.724 318.219 252.623C318.419 253.621 318.419 255.417 318.219 256.615ZM301.852 273.082C300.555 273.281 298.559 273.281 297.361 273.082C296.064 272.882 297.062 272.683 299.557 272.683C302.052 272.683 303.05 272.882 301.852 273.082Z" fill="#5B5A5F"/>
<path d="M292.87 242.343C286.183 245.437 282.989 253.521 285.784 260.108C288.279 265.896 292.371 268.391 299.556 268.391C305.345 268.391 308.638 266.694 311.533 261.904C316.123 254.419 312.231 244.139 303.748 241.644C298.658 240.048 297.86 240.147 292.87 242.343ZM307.341 246.834C310.634 249.928 311.034 250.726 310.934 254.918C310.834 258.91 310.335 260.108 307.441 262.802C304.646 265.497 303.349 265.896 298.858 265.896C294.267 265.896 293.369 265.497 290.674 262.503C288.279 259.808 287.58 258.112 287.58 254.818C287.58 251.225 288.179 249.928 291.073 246.934C294.067 243.94 295.365 243.441 299.057 243.441C302.85 243.441 304.247 244.04 307.341 246.834Z" fill="#5B5A5F"/>
<path d="M294.766 249.728C290.275 254.519 293.07 261.405 299.457 261.405C304.148 261.405 306.543 259.01 306.543 254.219C306.543 248.032 299.058 245.137 294.766 249.728ZM302.551 251.924C303.249 252.722 303.549 254.419 303.149 255.916C302.65 257.912 301.852 258.411 299.557 258.411C297.261 258.411 296.463 257.912 295.964 255.916C295.265 253.022 296.962 250.427 299.557 250.427C300.555 250.427 301.852 251.126 302.551 251.924Z" fill="#5B5A5F"/>
<path d="M369.916 395.937C368.319 396.735 366.722 397.733 366.423 398.133C366.123 398.432 364.027 399.829 361.732 401.127L357.44 403.522V414.201C357.44 424.879 357.44 424.979 361.732 433.761C368.818 448.133 372.011 454.919 376.602 465.997L380.894 476.476L381.193 462.504C381.592 444.839 378.498 397.733 376.802 395.039C376.003 393.741 373.409 394.141 369.916 395.937ZM376.203 404.32C376.902 408.911 377.9 422.284 378.399 434.061C378.898 445.837 379.496 458.512 379.796 462.205C380.095 465.997 380.095 468.991 379.995 468.991C379.796 468.991 378.898 466.895 377.999 464.201C376.103 459.211 374.806 456.317 366.023 437.654L360.335 425.877L360.634 414.799L360.933 403.622L367.421 399.929C371.013 397.833 374.107 396.137 374.407 396.137C374.706 396.137 375.604 399.829 376.203 404.32Z" fill="#5B5A5F"/>
<path d="M233.388 403.821C232.49 404.619 232.49 412.803 233.288 416.995C233.887 419.889 234.187 420.088 238.578 420.088C243.269 420.088 251.951 422.484 254.446 424.38C256.442 425.977 257.141 424.28 255.544 421.486C253.149 416.895 245.265 409.41 239.576 406.216C236.482 404.519 233.688 403.422 233.388 403.821ZM247.76 415.098C250.055 417.294 251.752 419.39 251.452 419.689C250.953 420.088 241.173 418.691 236.981 417.494C236.083 417.294 235.684 415.198 235.684 411.605V406.116L239.576 408.511C241.772 409.909 245.364 412.803 247.76 415.098Z" fill="#5B5A5F"/>
<path d="M347.461 409.31C345.565 410.608 343.869 411.905 343.669 412.304C343.469 412.803 342.87 413.103 342.272 413.103C340.675 413.103 337.182 417.494 338.379 417.893C340.176 418.492 338.579 420.089 336.284 420.089C335.186 420.089 333.589 420.887 332.89 421.785C329.996 425.678 332.192 426.277 336.882 422.783C340.874 419.889 344.068 418.392 348.459 417.294C351.753 416.496 351.952 416.197 352.252 411.805C352.451 409.211 352.152 407.115 351.753 407.115C351.354 407.115 349.358 408.113 347.461 409.31ZM350.455 412.604C350.455 414.5 349.956 415.099 348.459 415.099C347.262 415.099 344.966 415.797 343.17 416.696L339.976 418.392L341.972 416.097C343.569 414.201 349.258 410.109 350.256 410.109C350.356 410.109 350.455 411.207 350.455 412.604Z" fill="#5B5A5F"/>
<path d="M234.287 425.179C233.988 426.875 233.688 437.454 233.688 448.632V468.991H261.533C276.902 468.991 289.677 468.692 289.876 468.193C290.176 467.794 290.675 464.6 290.974 461.007L291.673 454.52L284.387 450.827C280.395 448.831 276.104 446.237 274.906 445.139C273.709 443.941 272.311 443.043 271.912 443.043C271.413 443.043 270.216 441.845 269.118 440.348C262.032 430.668 255.744 426.077 246.263 423.582C237.181 421.187 235.086 421.486 234.287 425.179ZM248.758 426.276C250.655 426.875 253.748 428.572 255.645 429.869C259.437 432.564 268.619 441.845 268.619 442.943C268.619 443.941 282.491 452.823 286.184 454.221C289.477 455.418 289.577 455.618 289.577 460.608C289.577 465.398 289.377 465.798 286.882 466.396C282.092 467.494 249.457 468.293 242.371 467.594L235.684 466.796V445.937V425.079H240.575C243.169 425.079 246.862 425.578 248.758 426.276Z" fill="#5B5A5F"/>
<path d="M274.607 474.181C270.515 474.68 259.637 474.979 250.355 474.779C241.173 474.58 233.688 474.779 233.688 475.179C233.688 476.376 253.249 477.274 267.122 476.576C283.19 475.877 289.577 475.079 289.577 473.881C289.577 472.783 284.786 472.883 274.607 474.181Z" fill="#5B5A5F"/>
<path d="M280.595 479.969C277.002 480.368 265.026 480.768 253.948 480.867C241.173 480.967 233.688 481.366 233.688 481.965C233.688 483.462 278.1 483.263 284.487 481.766C287.281 481.167 289.577 480.269 289.577 479.77C289.577 479.37 288.978 479.071 288.379 479.171C287.681 479.171 284.188 479.57 280.595 479.969Z" fill="#5B5A5F"/>
<path d="M268.119 488.153C264.826 488.652 255.944 488.852 248.459 488.652L234.686 488.153V492.345C234.686 501.926 236.083 517.894 236.882 517.894C237.281 517.894 237.381 511.606 237.081 503.922L236.383 489.95H257.94C270.116 489.95 280.595 489.55 282.191 488.952C284.786 487.953 284.786 487.953 284.187 491.147C283.888 492.944 283.189 498.233 282.69 502.924C282.191 507.614 281.393 512.904 280.994 514.6C280.595 516.596 280.694 517.894 281.293 517.894C281.892 517.894 282.591 515.499 282.89 512.604C283.589 507.015 286.183 492.844 287.181 489.151C287.78 487.055 287.581 486.955 280.994 487.055C277.201 487.155 271.413 487.654 268.119 488.153Z" fill="#5B5A5F"/>
<path d="M309.935 508.911C310.235 510.508 310.833 513.303 311.133 514.899C312.031 519.89 313.827 518.492 313.029 513.303L312.43 508.812L316.223 509.61C318.319 510.009 327.301 510.408 336.183 510.408H352.351L351.752 514.201C351.353 516.596 351.552 517.893 352.351 517.893C353.049 517.893 353.448 515.997 353.448 513.103V508.412L337.48 508.712C325.205 509.011 320.215 508.712 316.123 507.514C309.137 505.418 309.237 505.418 309.935 508.911Z" fill="#5B5A5F"/>
<rect x="293.97" y="54" width="19" height="19" rx="9.5" stroke="#5B5A5F" stroke-width="2"/>
<rect x="295.97" y="56" width="1" height="14" fill="#5B5A5F"/>
<rect x="298.97" y="54" width="1" height="18" fill="#5B5A5F"/>
<rect x="301.97" y="54" width="1" height="19" fill="#5B5A5F"/>
<rect width="1" height="11" transform="matrix(-1 0 0 1 310.97 58)" fill="#5B5A5F"/>
<rect width="1" height="17" transform="matrix(-1 0 0 1 308.97 55)" fill="#5B5A5F"/>
<rect width="1" height="19" transform="matrix(-1 0 0 1 305.97 54)" fill="#5B5A5F"/>
<circle class="eye" cx="303.47" cy="63.5" r="3.5" fill="#DCA34C"/>
<rect x="265.97" y="56" width="1" height="14" fill="#5B5A5F"/>
<rect x="268.97" y="54" width="1" height="18" fill="#5B5A5F"/>
<rect x="271.97" y="54" width="1" height="19" fill="#5B5A5F"/>
<rect width="1" height="13" transform="matrix(-1 0 0 1 280.97 57)" fill="#5B5A5F"/>
<rect width="1" height="17" transform="matrix(-1 0 0 1 278.97 55)" fill="#5B5A5F"/>
<rect width="1" height="19" transform="matrix(-1 0 0 1 275.97 54)" fill="#5B5A5F"/>
<g class="eye"  filter="url(#filter0_f_1_1224)">
<circle cx="273.47" cy="63.5" r="5.5" fill="#DCA34C" fill-opacity="0.5"/>
</g>
<g class="eye" filter="url(#filter1_f_1_1224)">
<circle class="eye" cx="303.47" cy="63.5" r="5.5" fill="#DCA34C" fill-opacity="0.5"/>
</g>
<circle class="eye" cx="273.47" cy="63.5" r="3.5" fill="#DCA34C"/>
<rect x="263.97" y="54" width="19" height="19" rx="9.5" stroke="#5B5A5F" stroke-width="2"/>
<defs>
<filter id="filter0_f_1_1224" x="264.008" y="54.0379" width="18.9243" height="18.9243" filterUnits="userSpaceOnUse" color-interpolation-filters="sRGB">
<feFlood flood-opacity="0" result="BackgroundImageFix"/>
<feBlend mode="normal" in="SourceGraphic" in2="BackgroundImageFix" result="shape"/>
<feGaussianBlur stdDeviation="1.98107" result="effect1_foregroundBlur_1_1224"/>
</filter>
<filter id="filter1_f_1_1224" x="294.008" y="54.0379" width="18.9243" height="18.9243" filterUnits="userSpaceOnUse" color-interpolation-filters="sRGB">
<feFlood flood-opacity="0" result="BackgroundImageFix"/>
<feBlend mode="normal" in="SourceGraphic" in2="BackgroundImageFix" result="shape"/>
<feGaussianBlur stdDeviation="1.98107" result="effect1_foregroundBlur_1_1224"/>
</filter>
</defs>
</svg>
