<svg width="745" height="370" viewBox="0 0 745 370" fill="none" xmlns="http://www.w3.org/2000/svg">
<rect x="53.5" y="1.5" width="543" height="275" rx="20.5" stroke="#625B55" stroke-width="3"/>
<rect x="53.5" y="1.5" width="543" height="275" rx="20.5" stroke="#625B55" stroke-width="3"/>
<rect x="65.5" y="12.5" width="520" height="250" rx="10.5" stroke="#625B55" stroke-width="3"/>
<rect x="65.5" y="12.5" width="520" height="250" rx="10.5" stroke="#625B55" stroke-width="3"/>
<path d="M282.972 315.041C291.104 303.888 293.353 289.546 289.119 276.5H363.789C358.991 289.538 360.785 304.153 368.708 315.677L374.398 323.954C383.809 337.643 398.381 346.917 414.766 349.648L424.5 351.271V352.5H225.5V351.271L235.074 349.675C251.596 346.921 266.379 337.798 276.247 324.264L282.972 315.041Z" stroke="#625B55" stroke-width="3"/>
<rect x="704.5" y="148.5" width="217" height="280" rx="20.5" transform="rotate(90 704.5 148.5)" fill="#282828"/>
<rect x="704.5" y="148.5" width="217" height="280" rx="20.5" transform="rotate(90 704.5 148.5)" stroke="#625B55" stroke-width="3"/>
<rect x="704.5" y="148.5" width="217" height="280" rx="20.5" transform="rotate(90 704.5 148.5)" stroke="#625B55" stroke-width="3"/>
<rect x="692.5" y="159.5" width="176" height="256" rx="10.5" transform="rotate(90 692.5 159.5)" fill="#282828"/>
<rect x="692.5" y="159.5" width="176" height="256" rx="10.5" transform="rotate(90 692.5 159.5)" stroke="#625B55" stroke-width="3"/>
<rect x="692.5" y="159.5" width="176" height="256" rx="10.5" transform="rotate(90 692.5 159.5)" stroke="#625B55" stroke-width="3"/>
<rect x="102.5" y="368.5" width="101" height="176" rx="15.5" transform="rotate(-180 102.5 368.5)" fill="#282828"/>
<rect x="102.5" y="368.5" width="101" height="176" rx="15.5" transform="rotate(-180 102.5 368.5)" stroke="#625B55" stroke-width="3"/>
<rect x="102.5" y="368.5" width="101" height="176" rx="15.5" transform="rotate(-180 102.5 368.5)" stroke="#625B55" stroke-width="3"/>
<rect x="95.5" y="355.5" width="88" height="156" rx="10.5" transform="rotate(-180 95.5 355.5)" fill="#282828"/>
<rect x="95.5" y="355.5" width="88" height="156" rx="10.5" transform="rotate(-180 95.5 355.5)" stroke="#625B55" stroke-width="3"/>
<rect x="95.5" y="355.5" width="88" height="156" rx="10.5" transform="rotate(-180 95.5 355.5)" stroke="#625B55" stroke-width="3"/>
<path d="M391 348H745C745 360.15 735.15 370 723 370H413C400.85 370 391 360.15 391 348Z" fill="#282828"/>
<path d="M743.446 349.5C742.678 360.122 733.817 368.5 723 368.5H413C402.183 368.5 393.322 360.122 392.554 349.5H743.446Z" stroke="#625B55" stroke-width="3"/>
<path d="M228 127C243.938 127 247 121.348 247 116C247 109.586 242.532 106.344 231 106H226C220.3 105.862 219 104.273 219 103C219 101.762 219.923 101 226 101C232.552 101 232.869 102.848 233 104H246C246 98.9615 242.988 94 228 94H224C209.864 94 206 98.8239 206 104C206 108.918 209.255 113.656 221 114H227C233.356 114.206 234 115.383 234 117C234 118.548 233.47 120 227 120H226C219.399 120 219.115 116.702 219 115H206V116C206 120.145 208.243 127 225 127H228Z" fill="#5B5A5F"/>
<path d="M261 127H272V104H285V95H248V104H261V127Z" fill="#5B5A5F"/>
<path d="M300 103H313C315.621 103 316 103.496 316 105V106C316 107.556 315.572 108 313 108H300V103ZM300 116H311C315.57 116 317 118.352 317 122V125C317 125.899 316.722 126.654 317 127H329C328.705 126.447 328 125.247 328 123V118C328 113.868 325.75 111.916 322 111C324.277 110.447 328 108.65 328 104V103C328 97.7964 324.828 95 316 95H288V127H300V116Z" fill="#5B5A5F"/>
<path d="M352 94C332.363 94 330 104.022 330 110V111C330 116.927 332.363 127 352 127H354C373.587 127 376 116.927 376 111V110C376 104.022 373.555 94 354 94H352ZM364 111C364 114.419 361.967 118 353 118C344.048 118 342 114.333 342 111V110C342 106.633 343.884 103 353 103C361.967 103 364 106.633 364 110V111Z" fill="#5B5A5F"/>
<path d="M388 127H400V115L416 95H403L395 106L386 95H372L388 115V127Z" fill="#5B5A5F"/>
<path d="M428 127V113L443 127H458L440 110L457 95H443L428 108V95H417V127H428Z" fill="#5B5A5F"/>
<path d="M459 95V127H493V119H470V115H492V107H470V103H493V95H459Z" fill="#5B5A5F"/>
<path d="M508 103H521C523.603 103 524 103.496 524 105V106C524 107.556 523.571 108 521 108H508V103ZM508 116H519C523.57 116 525 118.352 525 122V125C525 125.899 524.72 126.654 525 127H537C536.72 126.447 536 125.247 536 123V118C536 113.868 533.75 111.916 530 111C532.294 110.447 536 108.65 536 104V103C536 97.7964 532.843 95 524 95H496V127H508V116Z" fill="#5B5A5F"/>
<path d="M158 94V126C150.902 126 144.038 123.461 138.648 118.841L126 108V126H114V94C121.744 94 129.232 96.77 135.111 101.809L147 112V94H158Z" fill="#5B5A5F"/>
<path d="M171 126H159L173.813 99.6652C175.782 96.1657 179.485 94 183.5 94C187.515 94 191.218 96.1657 193.187 99.6652L208 126H196L183 102L171 126ZM177.5 113H188.958L192.208 119H174.5L177.5 113Z" fill="#5B5A5F"/>
<path d="M25 262C30.0536 262 31 259.783 31 258C31 255.862 29.6564 255.115 26 255H24C22.1926 254.954 22 254.424 22 254C22 253.587 22.0731 253 24 253C26.0775 253 26.9584 253.616 27 254H31C31 252.32 29.7523 251 25 251H24C19.5178 251 18 252.275 18 254C18 255.639 19.2761 257.885 23 258H25C27.0153 258.069 27 258.461 27 259C27 259.516 27.0515 260 25 260H24C21.907 260 22.0364 258.567 22 258H18C18 259.382 18.6868 262 24 262H25Z" fill="#5B5A5F"/>
<path d="M35 262H39V255H43V253H31V255H35V262Z" fill="#5B5A5F"/>
<path d="M49 255H53C53.831 255 54 255.577 54 256C54 256.438 53.8154 257 53 257H49V255ZM49 259H52C53.449 259 54 258.974 54 260V262C53.9117 261.903 54 262.253 54 262H58C57.9066 261.844 58 261.632 58 261V260C58 258.838 57.1891 257.258 56 257C56.7218 256.844 58 256.308 58 255C58 253.536 56.7992 253 54 253H45V262H49V259Z" fill="#5B5A5F"/>
<path d="M65 251C59.0237 251 58 254.007 58 256V257C58 258.976 59.0237 262 65 262C70.9614 262 72 258.976 72 257V256C72 254.007 70.9517 251 65 251ZM68 257C68 258.14 67.7291 259 65 259C62.2755 259 62 258.111 62 257V256C62 254.878 62.2255 254 65 254C67.7291 254 68 254.878 68 256V257Z" fill="#5B5A5F"/>
<path d="M77 262H81V259L86 253H82L79 256L76 253H72L77 259V262Z" fill="#5B5A5F"/>
<path d="M23 277V273L27 277H32L26 272L32 267H27L23 271V267H19V277H23Z" fill="#5B5A5F"/>
<path d="M34 267V277H44V274H37V273H44V271H37V269H44V267H34Z" fill="#5B5A5F"/>
<path d="M49 269H53C53.8254 269 54 269.53 54 270C54 270.486 53.8153 271 53 271H49V269ZM49 274H52C53.449 274 54 273.86 54 275V276C54 276.281 53.9113 276.892 54 277H58C57.9113 276.827 58 276.702 58 276V274C58 272.709 57.189 272.286 56 272C56.7272 271.827 58 271.453 58 270C58 268.374 56.8039 267 54 267H45V277H49V274Z" fill="#5B5A5F"/>
<path d="M32 237V247C29.4388 247 26.9826 245.983 25.1716 244.172L22 241V247H18V237C20.5612 237 23.0174 238.017 24.8284 239.828L28 243V237H32Z" fill="#5B5A5F"/>
<path d="M36 247H32L36.971 238.715C37.6094 237.651 38.7592 237 40 237C41.2408 237 42.3906 237.651 43.029 238.715L48 247H44L40 240L36 247ZM38.2857 243H41.7143L42.8571 245H37.1429L38.2857 243Z" fill="#5B5A5F"/>
<path d="M518 248C525.386 248 527 245.593 527 243V242C527 238.89 525.344 238.167 520 238H517C514.358 237.933 514 237.617 514 237C514 236.4 514.184 235 517 235C520.036 235 520.939 236.441 521 237H527C527 234.557 524.946 232 518 232H516C509.449 232 508 234.49 508 237C508 239.385 509.557 241.833 515 242H518C520.945 242.1 521 242.216 521 243C521 243.75 520.998 244 518 244H517C513.941 244 514.053 242.825 514 242H508V243C508 245.009 509.235 248 517 248H518Z" fill="#5B5A5F"/>
<path d="M534 247H540V236H546V232H528V236H534V247Z" fill="#5B5A5F"/>
<path d="M552 236H559C560.215 236 560 236.295 560 237C560 237.729 560.192 238 559 238H552V236ZM552 242H557C559.118 242 560 242.29 560 244V246C560 246.421 560.871 246.838 561 247H566C565.863 246.741 566 246.053 566 245V243C566 241.063 564.738 239.429 563 239C564.055 238.741 566 238.18 566 236C566 233.561 564.091 232 560 232H547V247H552V242Z" fill="#5B5A5F"/>
<path d="M578 232C568.609 232 567 237.102 567 240C567 242.874 568.609 248 578 248C587.368 248 589 242.874 589 240C589 237.102 587.353 232 578 232ZM583 240C583 241.657 582.289 244 578 244C573.719 244 573 241.616 573 240C573 238.368 573.64 236 578 236C582.289 236 583 238.368 583 240Z" fill="#5B5A5F"/>
<path d="M595 247H600V241L608 232H602L598 237L594 232H587L595 241V247Z" fill="#5B5A5F"/>
<path d="M614 247V240L621 247H628L619 239L628 232H621L614 238V232H608V247H614Z" fill="#5B5A5F"/>
<path d="M628 232V247H644V243H633V241H644V238H633V236H644V232H628Z" fill="#5B5A5F"/>
<path d="M651 236H658C659.206 236 659 236.295 659 237C659 237.729 659.192 238 658 238H651V236ZM651 242H656C658.118 242 659 242.29 659 244V246C659 246.421 659.87 246.838 660 247H665C664.87 246.741 665 246.053 665 245V243C665 241.063 663.738 239.429 662 239C663.063 238.741 665 238.18 665 236C665 233.561 663.098 232 659 232H646V247H651V242Z" fill="#5B5A5F"/>
<path d="M485 232V247C481.781 247 478.676 245.809 476.284 243.655L470 238V247H464V232C467.863 232 471.589 233.43 474.46 236.014L480 241V232H485Z" fill="#5B5A5F"/>
<path d="M490 247H485L491.353 235.088C492.367 233.187 494.346 232 496.5 232C498.654 232 500.633 233.187 501.647 235.088L508 247H502L496 236L490 247ZM493.273 241H498.727L500.364 244H491.636L493.273 241Z" fill="#5B5A5F"/>
</svg>
