<svg width="1233" height="1195" viewBox="0 0 1233 1195" fill="none" xmlns="http://www.w3.org/2000/svg">
<style>


    .pulse{
        opacity:0;
      transform-origin: center center;
        animation: 2s pulseAnim linear infinite;
    }

    .pulse-1{animation-delay: 0;}
    .pulse-2{animation-delay: 0.2s;}

    .pulse-3{animation-delay: 0.4;}
    .pulse-4{animation-delay: 0.6s;}

    .pulse-5{animation-delay: 1s;}
    .pulse-6{animation-delay: 1.2s;}

    .pulse-7{animation-delay: 1.6s;}
    .pulse-8{animation-delay: 1.8s;}

    .pulse-9{animation-delay: 1.8s;}
    .pulse-10{animation-delay: 2s;}

    
    .pulse-11{animation-delay: 2s;}
    .pulse-12{animation-delay: 2.2s;}

    @keyframes pulseAnim {
        0%{opacity: 0; }
        50%{opacity: 1; }
        to{opacity: 0; }
    }


    .appear{
        animation: 1s appearAnim linear;
        opacity: 0;
        animation-fill-mode: forwards;
    }

    .appear.ap-1{animation-delay: 1s;}
    .appear.ap-2{animation-delay: 1.3s;}
    .appear.ap-3{animation-delay: 1.6s;}
    .appear.ap-4{animation-delay: 1.9s;}
    .appear.ap-5{animation-delay: 2.2s;}
    .appear.ap-6{animation-delay: 2.5s;}
    .appear.ap-7{animation-delay: 2.8s;}
    .appear.ap-8{animation-delay: 3.1;}
    .appear.ap-9{animation-delay: 3.4s;}
    .appear.ap-10{animation-delay: 0s;}
    .appear.ap-11{animation-delay: 0s;}
    .appear.ap-13{animation-delay: 4.6s;}
    .appear.ap-14{animation-delay: 4.9s;}
    .appear.ap-15{animation-delay: 5.2s;}
    .appear.ap-16{animation-delay: 5.5s;}
    .appear.ap-17{animation-delay: 2s;}
    .appear.ap-18{animation-delay: 6.1s;}
    .appear.ap-19{animation-delay: 6.4s;}
    .appear.ap-20{animation-delay: 2s;}

    .appear.ap-21{animation-delay: 7s;}
    .appear.ap-22{animation-delay: 7.3s;}
    .appear.ap-23{animation-delay: 0s;}
    .appear.ap-26{animation-delay: 3s;}
    .appear.ap-27{animation-delay: 8.8s;}
    .appear.ap-28{animation-delay: 9.2s;}
    .appear.ap-29{animation-delay: 9.5s;}
    .appear.ap-30{animation-delay: 9.8s;}
    .appear.ap-31{animation-delay: 10.1s;}
    .appear.ap-32{animation-delay: 10.4s;}
    .appear.ap-33{animation-delay: 10.7s;}
    .appear.ap-34{animation-delay: 11s;}
    .appear.ap-35{animation-delay: 11.3s;}
    .appear.ap-36{animation-delay: 11.6s;}
    .appear.ap-37{animation-delay: 11.9s;}
    .appear.ap-38{animation-delay: 12.2s;}
    .appear.ap-39{animation-delay: 12.5s;}
    .appear.ap-40{animation-delay: 12.8s;}

    .appear.ap-41{animation-delay: 13.1s;}
    .appear.ap-42{animation-delay: 13.4s;}
    .appear.ap-43{animation-delay: 13.7s;}
    .appear.ap-44{animation-delay: 14s;}


     @keyframes appearAnim {
        0%{opacity: 0; }
        100%{opacity: 1; }
    }

</style>
<g clip-path="url(#clip0_11_40160)">
<path class="appear ap-1" d="M543.5 328C545.433 328 547 326.433 547 324.5C547 322.567 545.433 321 543.5 321C541.567 321 540 322.567 540 324.5C540 326.433 541.567 328 543.5 328Z" fill="white"/>
<path class="appear ap-2" d="M436.5 194C438.433 194 440 192.433 440 190.5C440 188.567 438.433 187 436.5 187C434.567 187 433 188.567 433 190.5C433 192.433 434.567 194 436.5 194Z" fill="white"/>
<path class="appear ap-3" d="M502.5 424C504.433 424 506 422.433 506 420.5C506 418.567 504.433 417 502.5 417C500.567 417 499 418.567 499 420.5C499 422.433 500.567 424 502.5 424Z" fill="white"/>
<path class="appear ap-4" d="M631.5 646C633.433 646 635 644.433 635 642.5C635 640.567 633.433 639 631.5 639C629.567 639 628 640.567 628 642.5C628 644.433 629.567 646 631.5 646Z" fill="white"/>
<path class="appear ap-5" d="M425.5 343C427.433 343 429 341.433 429 339.5C429 337.567 427.433 336 425.5 336C423.567 336 422 337.567 422 339.5C422 341.433 423.567 343 425.5 343Z" fill="white"/>
<path class="appear ap-6" d="M554.5 215C556.433 215 558 213.433 558 211.5C558 209.567 556.433 208 554.5 208C552.567 208 551 209.567 551 211.5C551 213.433 552.567 215 554.5 215Z" fill="#DCA34C"/>
<path class="appear ap-7" d="M385.5 524C387.433 524 389 522.433 389 520.5C389 518.567 387.433 517 385.5 517C383.567 517 382 518.567 382 520.5C382 522.433 383.567 524 385.5 524Z" fill="#DCA34C"/>
<path class="appear ap-8" d="M577.5 468C579.433 468 581 466.433 581 464.5C581 462.567 579.433 461 577.5 461C575.567 461 574 462.567 574 464.5C574 466.433 575.567 468 577.5 468Z" fill="#DCA34C"/>
<path class="appear ap-9" d="M694.5 591C696.433 591 698 589.433 698 587.5C698 585.567 696.433 584 694.5 584C692.567 584 691 585.567 691 587.5C691 589.433 692.567 591 694.5 591Z" fill="#DCA34C"/>
<path class="appear ap-10" d="M725 417C727.761 417 730 414.761 730 412C730 409.239 727.761 407 725 407C722.239 407 720 409.239 720 412C720 414.761 722.239 417 725 417Z" fill="#DCA34C"/>
<path class="pulse pulse-1" d="M725 421.5C730.247 421.5 734.5 417.247 734.5 412C734.5 406.753 730.247 402.5 725 402.5C719.753 402.5 715.5 406.753 715.5 412C715.5 417.247 719.753 421.5 725 421.5Z" stroke="#DCA34C"/>
<path class="pulse pulse-2" d="M725 426.5C733.008 426.5 739.5 420.008 739.5 412C739.5 403.992 733.008 397.5 725 397.5C716.992 397.5 710.5 403.992 710.5 412C710.5 420.008 716.992 426.5 725 426.5Z" stroke="#DCA34C"/>
<path class="appear ap-11" d="M842.5 206C844.433 206 846 204.433 846 202.5C846 200.567 844.433 199 842.5 199C840.567 199 839 200.567 839 202.5C839 204.433 840.567 206 842.5 206Z" fill="#DCA34C"/>
<path class="pulse pulse-3" d="M842.5 209.15C846.172 209.15 849.15 206.173 849.15 202.5C849.15 198.827 846.172 195.85 842.5 195.85C838.827 195.85 835.85 198.827 835.85 202.5C835.85 206.173 838.827 209.15 842.5 209.15Z" stroke="#DCA34C" stroke-width="0.7"/>
<path class="pulse pulse-4" d="M842.5 212.65C848.105 212.65 852.65 208.106 852.65 202.5C852.65 196.894 848.105 192.35 842.5 192.35C836.894 192.35 832.35 196.894 832.35 202.5C832.35 208.106 836.894 212.65 842.5 212.65Z" stroke="#DCA34C" stroke-width="0.7"/>
<path class="appear ap-14" d="M1121.5 398C1123.43 398 1125 396.433 1125 394.5C1125 392.567 1123.43 391 1121.5 391C1119.57 391 1118 392.567 1118 394.5C1118 396.433 1119.57 398 1121.5 398Z" fill="#DCA34C"/>
<path class="appear ap-15" d="M1121.5 401.15C1125.17 401.15 1128.15 398.173 1128.15 394.5C1128.15 390.827 1125.17 387.85 1121.5 387.85C1117.83 387.85 1114.85 390.827 1114.85 394.5C1114.85 398.173 1117.83 401.15 1121.5 401.15Z" stroke="#DCA34C" stroke-width="0.7"/>
<path class="appear ap-16" d="M1121.5 404.65C1127.11 404.65 1131.65 400.106 1131.65 394.5C1131.65 388.894 1127.11 384.35 1121.5 384.35C1115.89 384.35 1111.35 388.894 1111.35 394.5C1111.35 400.106 1115.89 404.65 1121.5 404.65Z" stroke="#DCA34C" stroke-width="0.7"/>
<path class="appear ap-17" d="M112.5 587C114.433 587 116 585.433 116 583.5C116 581.567 114.433 580 112.5 580C110.567 580 109 581.567 109 583.5C109 585.433 110.567 587 112.5 587Z" fill="#DCA34C"/>
<path class="pulse pulse-7" d="M112.5 590.15C116.172 590.15 119.15 587.173 119.15 583.5C119.15 579.827 116.172 576.85 112.5 576.85C108.827 576.85 105.85 579.827 105.85 583.5C105.85 587.173 108.827 590.15 112.5 590.15Z" stroke="#DCA34C" stroke-width="0.7"/>
<path class="pulse pulse-8 " d="M112.5 593.65C118.105 593.65 122.65 589.106 122.65 583.5C122.65 577.894 118.105 573.35 112.5 573.35C106.894 573.35 102.35 577.894 102.35 583.5C102.35 589.106 106.894 593.65 112.5 593.65Z" stroke="#DCA34C" stroke-width="0.7"/>
<path class="appear ap-20" d="M260.5 531C262.433 531 264 529.433 264 527.5C264 525.567 262.433 524 260.5 524C258.567 524 257 525.567 257 527.5C257 529.433 258.567 531 260.5 531Z" fill="#DCA34C"/>
<path class="pulse pulse-11" d="M260.5 534.15C264.172 534.15 267.15 531.173 267.15 527.5C267.15 523.827 264.172 520.85 260.5 520.85C256.827 520.85 253.85 523.827 253.85 527.5C253.85 531.173 256.827 534.15 260.5 534.15Z" stroke="#DCA34C" stroke-width="0.7"/>
<path class="pulse pulse-12" d="M260.5 537.65C266.105 537.65 270.65 533.106 270.65 527.5C270.65 521.894 266.105 517.35 260.5 517.35C254.894 517.35 250.35 521.894 250.35 527.5C250.35 533.106 254.894 537.65 260.5 537.65Z" stroke="#DCA34C" stroke-width="0.7"/>
<path class="appear ap-23" d="M1015 336.667C1017.02 336.667 1018.67 335.025 1018.67 333C1018.67 330.975 1017.02 329.333 1015 329.333C1012.97 329.333 1011.33 330.975 1011.33 333C1011.33 335.025 1012.97 336.667 1015 336.667Z" fill="white"/>
<path class="pulse pulse-5" d="M1015 339.967C1018.85 339.967 1021.97 336.847 1021.97 333C1021.97 329.152 1018.85 326.033 1015 326.033C1011.15 326.033 1008.03 329.152 1008.03 333C1008.03 336.847 1011.15 339.967 1015 339.967Z" stroke="white" stroke-width="0.733333"/>
<path class="pulse pulse-6" d="M1015 343.633C1020.87 343.633 1025.63 338.873 1025.63 333C1025.63 327.127 1020.87 322.367 1015 322.367C1009.13 322.367 1004.37 327.127 1004.37 333C1004.37 338.873 1009.13 343.633 1015 343.633Z" stroke="white" stroke-width="0.733333"/>
<path class="appear ap-26" d="M465.5 572.333C467.617 572.333 469.334 570.617 469.334 568.5C469.334 566.383 467.617 564.667 465.5 564.667C463.383 564.667 461.667 566.383 461.667 568.5C461.667 570.617 463.383 572.333 465.5 572.333Z" fill="white"/>
<path class="pulse pulse-9" d="M465.5 575.783C469.523 575.783 472.783 572.523 472.783 568.5C472.783 564.478 469.523 561.217 465.5 561.217C461.478 561.217 458.217 564.478 458.217 568.5C458.217 572.523 461.478 575.783 465.5 575.783Z" stroke="white" stroke-width="0.766667"/>
<path class="pulse pulse-10" d="M465.5 579.617C471.639 579.617 476.616 574.64 476.616 568.5C476.616 562.36 471.639 557.383 465.5 557.383C459.36 557.383 454.383 562.36 454.383 568.5C454.383 574.64 459.36 579.617 465.5 579.617Z" stroke="white" stroke-width="0.766667"/>
<path class="appear ap-29" d="M301.5 632C304.538 632 307 629.538 307 626.5C307 623.462 304.538 621 301.5 621C298.462 621 296 623.462 296 626.5C296 629.538 298.462 632 301.5 632Z" fill="white"/>
<path class="appear ap-30" d="M715.5 284C717.433 284 719 282.433 719 280.5C719 278.567 717.433 277 715.5 277C713.567 277 712 278.567 712 280.5C712 282.433 713.567 284 715.5 284Z" fill="#D9D9D9"/>
<path class="appear ap-31" d="M164.5 323C166.433 323 168 321.433 168 319.5C168 317.567 166.433 316 164.5 316C162.567 316 161 317.567 161 319.5C161 321.433 162.567 323 164.5 323Z" fill="#D9D9D9"/>
<path class="appear ap-32" d="M726.5 171C728.433 171 730 169.433 730 167.5C730 165.567 728.433 164 726.5 164C724.567 164 723 165.567 723 167.5C723 169.433 724.567 171 726.5 171Z" fill="#D9D9D9"/>
<path class="appear ap-33" d="M767.5 448C769.433 448 771 446.433 771 444.5C771 442.567 769.433 441 767.5 441C765.567 441 764 442.567 764 444.5C764 446.433 765.567 448 767.5 448Z" fill="#D9D9D9"/>
<path class="appear ap-34" d="M904 364C906.761 364 909 361.761 909 359C909 356.239 906.761 354 904 354C901.239 354 899 356.239 899 359C899 361.761 901.239 364 904 364Z" fill="#D9D9D9"/>
<path class="appear ap-35" d="M1024 522C1026.76 522 1029 519.761 1029 517C1029 514.239 1026.76 512 1024 512C1021.24 512 1019 514.239 1019 517C1019 519.761 1021.24 522 1024 522Z" fill="#D9D9D9"/>
<path class="appear ap-36" d="M985 204C987.761 204 990 201.761 990 199C990 196.239 987.761 194 985 194C982.239 194 980 196.239 980 199C980 201.761 982.239 204 985 204Z" fill="#D9D9D9"/>
<path class="appear ap-37" d="M924 262C926.761 262 929 259.761 929 257C929 254.239 926.761 252 924 252C921.239 252 919 254.239 919 257C919 259.761 921.239 262 924 262Z" fill="#D9D9D9"/>
<path class="appear ap-38" d="M807.5 519C809.433 519 811 517.433 811 515.5C811 513.567 809.433 512 807.5 512C805.567 512 804 513.567 804 515.5C804 517.433 805.567 519 807.5 519Z" fill="#DCA34C"/>
<path class="appear ap-39" d="M818.5 406C820.433 406 822 404.433 822 402.5C822 400.567 820.433 399 818.5 399C816.567 399 815 400.567 815 402.5C815 404.433 816.567 406 818.5 406Z" fill="#DCA34C"/>
<path class="appear ap-40" d="M841.5 659C843.433 659 845 657.433 845 655.5C845 653.567 843.433 652 841.5 652C839.567 652 838 653.567 838 655.5C838 657.433 839.567 659 841.5 659Z" fill="#DCA34C"/>
<path class="appear ap-41" d="M996 599C998.761 599 1001 596.761 1001 594C1001 591.239 998.761 589 996 589C993.239 589 991 591.239 991 594C991 596.761 993.239 599 996 599Z" fill="#DCA34C"/>
<path class="appear ap-42" d="M907 456C909.761 456 912 453.761 912 451C912 448.239 909.761 446 907 446C904.239 446 902 448.239 902 451C902 453.761 904.239 456 907 456Z" fill="#DCA34C"/>
<path class="appear ap-43" d="M664.5 348C666.985 348 669 345.985 669 343.5C669 341.015 666.985 339 664.5 339C662.015 339 660 341.015 660 343.5C660 345.985 662.015 348 664.5 348Z" fill="#DCA34C"/>
<path class="appear ap-44" d="M1109 467C1111.76 467 1114 464.761 1114 462C1114 459.239 1111.76 457 1109 457C1106.24 457 1104 459.239 1104 462C1104 464.761 1106.24 467 1109 467Z" fill="#DCA34C"/>
</g>
<defs>
<clipPath id="clip0_11_40160">
<rect width="1233" height="1195" fill="white"/>
</clipPath>
</defs>
</svg>
