<svg width="190" height="195" viewBox="0 0 190 195" fill="none" xmlns="http://www.w3.org/2000/svg">
<style>

.rotate{
    width: 90px;
    height: 90px;
     transform-box: fill-box;
    transform-origin: center;
    display: block;
    -webkit-animation: rotating 20s linear infinite;
}


.rotate_2{
     animation-direction: reverse;
}
@-webkit-keyframes rotating {
    from{
        -webkit-transform: rotate(0deg);
    }
    to{
        -webkit-transform: rotate(360deg);
    }
}
</style>
<path class="rotate rotate_1" d="M47 63.8804C36.6304 63.8804 28.1196 55.4674 28.1196 45C28.1196 34.6304 36.5326 26.1196 47 26.1196C57.3696 26.1196 65.8804 34.5326 65.8804 45C65.8804 55.3696 57.3696 63.8804 47 63.8804ZM47 33.0652C40.4456 33.0652 35.0652 38.4456 35.0652 45C35.0652 51.5543 40.4456 56.9348 47 56.9348C53.5543 56.9348 58.9348 51.5543 58.9348 45C58.9348 38.4456 53.5543 33.0652 47 33.0652ZM47 90H46.5109C43.0869 90 40.1522 89.6087 39.9565 89.6087C38.3913 89.413 37.2174 88.2391 36.9239 86.6739L35.9456 79.6304C33.7935 78.9456 31.7391 78.0652 29.7826 76.9891L24.3043 81.1956C23.0326 82.1739 21.3696 82.0761 20.0978 81.1956C20 81.0978 17.6522 79.2391 15.2065 76.8913L14.8152 76.5C12.3696 74.0543 10.6087 71.7065 10.5109 71.6087C9.53261 70.3369 9.53261 68.6739 10.5109 67.4022L14.8152 61.7282C13.7391 59.7717 12.9565 57.6196 12.2717 55.4674L5.42391 54.4891C3.8587 54.2935 2.68478 53.0217 2.48913 51.4565C2.3913 51.3587 2 48.4239 2 45V44.5109C2 41.0869 2.3913 38.1522 2.3913 37.9565C2.58696 36.3913 3.76087 35.2174 5.32609 34.9239L12.3696 33.9456C13.0543 31.7935 13.9348 29.7391 15.0109 27.7826L10.8043 22.3043C9.82609 21.0326 9.92391 19.3696 10.8043 18.0978C10.9022 18 12.7609 15.6522 15.1087 13.2065L15.5 12.8152C17.9456 10.3696 20.2935 8.60869 20.3913 8.51087C21.663 7.53261 23.3261 7.53261 24.5978 8.51087L30.2717 12.8152C32.2283 11.7391 34.3804 10.9565 36.5326 10.2717L37.5109 3.42391C37.7065 1.8587 38.9783 0.684782 40.5435 0.48913C40.6413 0.391304 43.5761 0 47 0H47.4891C50.913 0 53.8478 0.391304 54.0435 0.391304C55.6087 0.586956 56.7826 1.76087 57.0761 3.32609L58.0543 10.3696C60.2065 11.0543 62.2609 11.9348 64.2174 13.0109L69.6956 8.80435C70.9674 7.82609 72.6304 7.92391 73.9022 8.80435C74 8.90217 76.3478 10.7609 78.7935 13.1087L79.1848 13.5C81.6304 15.9456 83.3913 18.2935 83.4891 18.3913C84.4674 19.663 84.4674 21.3261 83.4891 22.5978L79.2826 28.2717C80.3587 30.2283 81.1413 32.3804 81.8261 34.5326L88.6739 35.5109C90.2391 35.7065 91.413 36.9783 91.6087 38.5435C91.6087 38.6413 92 41.6739 92 45.0978V45.5869C92 49.0109 91.6087 51.9456 91.6087 52.1413C91.413 53.7065 90.2391 54.8804 88.6739 55.1739L81.6304 56.1522C80.9456 58.3043 80.0652 60.3587 78.9891 62.3152L83.1956 67.8913C84.1739 69.163 84.0761 70.8261 83.1956 72.0978C83.0978 72.1956 81.2391 74.5435 78.8913 76.9891L78.5 77.3804C76.0543 79.8261 73.7065 81.5869 73.6087 81.6848C72.3369 82.663 70.6739 82.663 69.4022 81.6848L63.7282 77.2826C61.7717 78.3587 59.6196 79.1413 57.4674 79.8261L56.4891 86.6739C56.2935 88.2391 55.0217 89.413 53.4565 89.6087C53.3587 89.6087 50.4239 90 47 90ZM43.4783 82.9565C44.3587 83.0543 45.4348 83.0543 46.5109 83.0543H47C48.0761 83.0543 49.1522 83.0543 50.0326 82.9565L50.913 76.5C51.1087 75.0326 52.1848 73.9565 53.5543 73.5652C56.5869 72.8804 59.5217 71.7065 62.163 70.0435C62.9456 69.5543 63.9239 69.4565 64.8043 69.6522C65.2935 69.75 65.7826 70.0435 66.1739 70.3369L71.3587 74.25C72.0435 73.663 72.8261 72.9782 73.6087 72.1956L74 71.8043C74.7826 71.0217 75.4674 70.2391 76.0543 69.5543L72.1413 64.3696C71.2608 63.1956 71.2609 61.6304 71.9456 60.4565C73.6087 57.913 74.7826 55.0761 75.4674 52.1413C75.7608 50.6739 76.9348 49.5 78.4022 49.3043L84.9565 48.4239C85.0543 47.5435 85.0543 46.4674 85.0543 45.3913V45C85.0543 43.9239 85.0543 42.8478 84.9565 41.9674L78.5 41.0869C77.1304 40.8913 75.9565 39.8152 75.5652 38.4456C74.8804 35.413 73.7065 32.5761 72.1413 29.9348C71.9456 29.7391 71.8478 29.4456 71.75 29.1522C71.3587 28.0761 71.5543 26.8043 72.2391 25.9239L76.25 20.6413C75.663 19.9565 74.9782 19.1739 74.1956 18.3913L73.8043 18C73.0217 17.2174 72.2391 16.5326 71.5543 15.9456L66.3696 19.8587C65.0978 20.7391 63.4348 20.7391 62.2609 19.8587C59.7174 18.2935 56.8804 17.1196 53.9456 16.337C52.5761 16.0435 51.5 14.8696 51.3043 13.4022L50.4239 6.84782C49.5435 6.75 48.4674 6.75 47.3913 6.75H47C45.9239 6.75 44.8478 6.75 43.9674 6.84782L43.0869 13.5C42.8913 15.0652 41.7174 16.2391 40.1522 16.4348C37.2174 17.1196 34.3804 18.2935 31.837 19.8587C31.0543 20.3478 30.0761 20.4456 29.1956 20.25C28.7065 20.1522 28.2174 19.8587 27.8261 19.5652L22.7391 15.6522C22.0543 16.2391 21.2717 16.9239 20.4891 17.7065L20.0978 18.0978C19.3152 18.8804 18.6304 19.663 18.0435 20.3478L21.9565 25.5326C22.837 26.7065 22.837 28.1739 22.1522 29.4456C22.0543 29.5435 22.0543 29.6413 21.9565 29.7391C20.3913 32.2826 19.2174 35.1196 18.5326 38.0543C18.2391 39.4239 17.0652 40.5 15.5978 40.6956L9.04348 41.5761C8.94565 42.4565 8.94565 43.5326 8.94565 44.6087V45C8.94565 46.0761 8.94565 47.1522 9.04348 48.0326L15.5 48.913C17.0652 49.1087 18.2391 50.2826 18.4348 51.8478V51.9456C19.1196 54.8804 20.2935 57.6196 21.8587 60.163C22.3478 61.0435 22.5435 62.1196 22.1522 63.0978C22.0543 63.4891 21.7609 63.8804 21.4674 64.2717L17.6522 69.3587C18.2391 70.0435 18.9239 70.8261 19.7065 71.6087L20.0978 72C20.8804 72.7826 21.663 73.4674 22.3478 74.0543L27.5326 70.1413C28.8043 69.163 30.663 69.2609 31.837 70.2391C34.3804 71.8043 37.1196 72.8804 39.9565 73.663C41.3261 73.9565 42.4022 75.1304 42.5978 76.5978L43.4783 82.9565Z" fill="#DCA34C"/>
<path class="rotate rotate_2" d="M112.914 127.005C117.305 117.611 128.53 113.463 138.013 117.896C147.407 122.287 151.554 133.513 147.122 142.995C142.731 152.389 131.505 156.537 122.023 152.104C112.629 147.713 108.523 136.399 112.914 127.005ZM140.83 140.054C143.605 134.116 141.009 126.964 135.072 124.188C129.134 121.413 121.981 124.008 119.206 129.946C116.43 135.884 119.026 143.036 124.964 145.812C130.901 148.587 138.054 145.992 140.83 140.054ZM89.2516 115.944L89.4587 115.501C90.9086 112.399 92.5059 109.906 92.5887 109.729C93.4288 108.394 94.9893 107.828 96.5316 108.225L103.327 110.321C104.858 108.661 106.526 107.173 108.329 105.856L106.838 99.1122C106.491 97.5459 107.283 96.0808 108.62 95.3015C108.75 95.2543 111.428 93.9145 114.59 92.6931L115.11 92.5043C118.362 91.3244 121.234 90.7234 121.364 90.6762C122.931 90.3286 124.437 91.0328 125.175 92.4575L128.492 98.7596C130.72 98.6133 133.002 98.8156 135.241 99.1066L139.027 93.3174C139.867 91.9823 141.516 91.4573 143.017 91.9429C143.147 91.8957 145.972 92.784 149.073 94.2339L149.517 94.441C152.618 95.8909 155.111 97.4881 155.289 97.571C156.624 98.411 157.19 99.9716 156.793 101.514L154.697 108.309C156.356 109.841 157.845 111.508 159.161 113.311L165.905 111.821C167.472 111.473 168.937 112.266 169.716 113.602C169.763 113.732 171.103 116.41 172.325 119.573L172.513 120.093C173.693 123.344 174.294 126.216 174.341 126.347C174.689 127.913 173.985 129.419 172.56 130.157L166.258 133.475C166.404 135.703 166.202 137.984 165.911 140.224L171.7 144.01C173.035 144.85 173.56 146.499 173.075 148C173.122 148.13 172.234 150.954 170.784 154.056L170.577 154.499C169.127 157.601 167.53 160.094 167.447 160.271C166.607 161.606 165.046 162.172 163.504 161.775L156.709 159.679C155.177 161.339 153.51 162.827 151.706 164.144L153.197 170.888C153.545 172.454 152.752 173.919 151.416 174.699C151.286 174.746 148.608 176.086 145.445 177.307L144.925 177.496C141.674 178.676 138.801 179.277 138.671 179.324C137.105 179.671 135.598 178.967 134.86 177.542L131.502 171.329C129.274 171.475 126.992 171.273 124.753 170.982L120.967 176.771C120.127 178.106 118.478 178.631 116.977 178.146C116.888 178.104 113.975 177.175 110.873 175.725L110.43 175.518C107.328 174.068 104.836 172.47 104.658 172.388C103.323 171.548 102.757 169.987 103.154 168.445L105.25 161.65C103.59 160.118 102.102 158.45 100.785 156.647L93.9527 158.097C92.3864 158.444 90.9212 157.651 90.142 156.315C90.0948 156.185 88.7549 153.507 87.5336 150.345L87.3448 149.824C86.1649 146.573 85.5639 143.701 85.5167 143.571C85.169 142.004 85.8733 140.498 87.298 139.76L93.6887 136.484C93.5423 134.256 93.7447 131.975 94.0357 129.735L88.2465 125.949C86.9114 125.109 86.3864 123.46 86.872 121.959C86.9134 121.87 87.8017 119.046 89.2516 115.944ZM97.1237 115.737C96.6622 116.493 96.2066 117.468 95.7509 118.442L95.5437 118.885C95.0881 119.86 94.6324 120.835 94.3482 121.674L99.8244 125.206C101.071 126.004 101.59 127.435 101.365 128.841C100.701 131.879 100.521 135.034 100.91 138.131C101.021 139.048 100.696 139.975 100.146 140.69C99.8498 141.092 99.3768 141.41 98.9452 141.641L93.2048 144.681C93.4465 145.55 93.7355 146.549 94.113 147.589L94.3018 148.109C94.6794 149.149 95.0984 150.101 95.4702 150.923L101.824 149.574C103.26 149.273 104.678 149.936 105.452 151.053C107.052 153.637 109.125 155.902 111.493 157.765C112.699 158.652 113.265 160.213 112.821 161.625L110.843 167.935C111.599 168.397 112.574 168.853 113.549 169.308L113.903 169.474C114.878 169.93 115.853 170.385 116.692 170.67L120.224 165.193C120.981 164.035 122.453 163.428 123.859 163.653C126.896 164.317 129.964 164.455 133.019 164.155C133.279 164.061 133.587 164.097 133.894 164.132C135.034 164.234 136.104 164.949 136.611 165.942L139.698 171.813C140.567 171.571 141.566 171.282 142.607 170.905L143.127 170.716C144.167 170.338 145.119 169.919 145.941 169.548L144.591 163.194C144.332 161.669 145.036 160.162 146.331 159.471C148.826 157.83 151.091 155.757 153.043 153.43C153.889 152.313 155.408 151.836 156.82 152.28L163.13 154.258C163.592 153.502 164.048 152.527 164.503 151.552L164.669 151.197C165.125 150.223 165.58 149.248 165.865 148.409L160.211 144.794C158.876 143.954 158.31 142.394 158.795 140.893C159.418 137.944 159.555 134.877 159.215 131.91C159.103 130.994 159.428 130.066 159.979 129.351C160.274 128.95 160.747 128.631 161.179 128.401L166.878 125.449C166.636 124.58 166.347 123.582 165.97 122.541L165.781 122.021C165.403 120.981 164.984 120.029 164.612 119.207L158.258 120.556C156.822 120.857 155.493 120.236 154.631 119.077C154.584 118.947 154.495 118.905 154.448 118.775C152.806 116.28 150.733 114.015 148.365 112.152C147.248 111.306 146.771 109.787 147.215 108.375L149.193 102.065C148.436 101.603 147.462 101.147 146.487 100.692L146.132 100.526C145.157 100.07 144.183 99.6147 143.344 99.3305L139.812 104.807C138.972 106.142 137.411 106.708 135.91 106.223L135.822 106.181C132.873 105.559 129.895 105.462 126.928 105.803C125.923 105.873 124.865 105.595 124.145 104.826C123.832 104.572 123.601 104.14 123.371 103.709L120.378 98.0984C119.51 98.3402 118.511 98.6291 117.47 99.0067L116.95 99.1955C115.91 99.5731 114.958 99.9921 114.136 100.364L115.486 106.718C115.833 108.284 114.958 109.927 113.574 110.576C111.079 112.217 108.944 114.243 107.034 116.482C106.188 117.598 104.669 118.076 103.257 117.632L97.1237 115.737Z" fill="#DCA34C"/>
<path d="M138.552 77.5862C138.552 96.9869 127.924 113.905 112.172 122.837C112.172 138.491 114.5 142.759 87.3449 140.819C64.8449 141.207 70.6639 140.819 67.1725 125.829C48.0706 118.142 34.5863 99.4389 34.5863 77.5862C34.5863 48.8769 57.8598 25.6035 86.5691 25.6035C115.278 25.6035 138.552 48.8769 138.552 77.5862Z" fill="#373737"/>
<path d="M14.0001 181V147" stroke="#FBEDD0" stroke-width="4"/>
<path d="M32.0001 181L32.0001 131" stroke="#FBEDD0" stroke-width="4"/>
<path d="M14.0001 141L14.0001 131" stroke="#FBEDD0" stroke-width="4"/>
<path d="M14.8573 133H4.00012L22.6124 108L42.0001 133H31.143" stroke="#FBEDD0" stroke-width="4"/>
<path d="M141 77V43" stroke="#FBEDD0" stroke-width="4"/>
<path d="M159 77L159 27" stroke="#FBEDD0" stroke-width="4"/>
<path d="M141 37L141 27" stroke="#FBEDD0" stroke-width="4"/>
<path d="M141.857 29H131L149.612 4L169 29H158.143" stroke="#FBEDD0" stroke-width="4"/>
<path d="M112.173 124.719C129.258 115.569 140.88 97.5469 140.88 76.8104C140.88 46.8156 116.564 22.5001 86.5692 22.5001C56.5745 22.5001 32.2589 46.8156 32.2589 76.8104C32.2589 97.5469 43.8805 115.569 60.9658 124.719L66.0089 126.853" stroke="#6F746E" stroke-width="6"/>
<circle cx="86.5691" cy="85.3448" r="9.63793" stroke="#6F746E" stroke-width="4"/>
<circle cx="112.949" cy="60.5173" r="8.0862" stroke="#6F746E" stroke-width="4"/>
<circle cx="60.5777" cy="85.7328" r="4.59483" stroke="#6F746E" stroke-width="4"/>
<circle cx="86.5697" cy="85.3449" r="1.55172" fill="#6F746E"/>
<circle cx="112.948" cy="60.5172" r="1.55172" fill="#6F746E"/>
<path d="M93.5521 79.9138L106.742 66.7242" stroke="#6F746E" stroke-width="4"/>
<path d="M64.8449 85.7756H76.5684" stroke="#6F746E" stroke-width="4"/>
<path d="M57.0868 120.259V109.009H67.173V139.207C67.173 140.311 68.0684 141.207 69.173 141.207H110.173C111.278 141.207 112.173 140.311 112.173 139.207V86.5086H122.259V115.991" stroke="#6F746E" stroke-width="4"/>
<path d="M67.0818 159.095C66.7616 155.876 66.828 152.827 66.9266 150.966H112.419C112.518 152.827 112.584 155.876 112.264 159.095C111.934 162.416 111.211 165.703 109.854 168.067C106.138 174.533 98.0908 178 89.6729 178C81.2551 178 73.2074 174.533 69.4922 168.067C68.1344 165.703 67.412 162.416 67.0818 159.095Z" fill="#373737" stroke="#6F746E" stroke-width="4"/>
</svg>
