<svg width="141" height="182" viewBox="0 0 141 182" fill="none" xmlns="http://www.w3.org/2000/svg">
<circle cx="70.4782" cy="53.4783" r="34.8261" stroke="#6F746E" stroke-width="6"/>
<path d="M117.696 50.7096C117.696 63.4403 114.229 73.7361 106.703 88.2882C103.109 95.2376 98.6277 103.087 93.1879 112.615C92.906 113.108 92.6214 113.607 92.3343 114.11C86.5189 124.297 79.6763 136.322 71.7868 150.992C71.0298 152.4 68.989 152.423 68.198 151.058C63.4599 142.887 59.1727 135.572 55.2995 128.963C44.747 110.956 37.268 98.1941 32.1168 87.6619C25.1664 73.4511 22.6088 63.596 22.6088 50.7096C22.6088 24.351 43.904 3 70.1523 3C96.4005 3 117.696 24.351 117.696 50.7096Z" stroke="#6F746E" stroke-width="6" stroke-linejoin="round"/>
<path d="M65.6235 35.6035C65.9438 35.0487 66.5104 34.6809 67.1476 34.6143L81.6454 33.0987C82.5448 33.0047 83.3954 33.5259 83.72 34.3699L88.5336 46.8849C88.7504 47.4485 88.7009 48.0799 88.399 48.6029L72.7908 75.6371C72.2385 76.5937 71.0153 76.9215 70.0587 76.3692L50.8123 65.2572C49.8557 64.7049 49.5279 63.4817 50.0802 62.5252L65.6235 35.6035Z" stroke="#DCA34C" stroke-width="4"/>
<circle cx="73.7392" cy="47.6086" r="4.36957" stroke="#DCA34C" stroke-width="3"/>
<path d="M57.7608 149.348C49.0371 150.736 43.0869 153.508 43.0869 156.701C43.0869 161.284 55.3504 165 70.4782 165C85.606 165 97.8695 161.284 97.8695 156.701C97.8695 153.629 92.3612 150.946 84.1739 149.511" stroke="#FBEDD0" stroke-width="4"/>
<path d="M51.2391 139.239L38.6848 140.87C16.8754 144.34 2 151.269 2 159.251C2 170.71 32.6588 180 70.4783 180C108.298 180 138.957 170.71 138.957 159.251C138.957 151.571 125.186 144.866 104.717 141.278L90.6957 139.239" stroke="#FBEDD0" stroke-width="4"/>
</svg>
