<svg width="232" height="180" viewBox="0 0 232 180" fill="none" xmlns="http://www.w3.org/2000/svg">
<style>


    .galochka{
        animation: lds-facebook 2s infinite;
    }

    .gal-1{
     animation: lds-facebook 2s infinite;
    animation-delay: -0.24s;
    }

    .gal-2{
    animation: lds-facebook 2s infinite;
    animation-delay: -0.12s;
    }

    .gal-3{
    animation: lds-facebook 2s infinite;
    animation-delay: 0;
    }
    @keyframes lds-facebook {
            0% {
                opacity:0;
            }
            10%{
            opacity:1;
            }
            90% {opacity: 1;}
            100% {
                opacity: 0;
            }
    }

    
   
</style>
<path d="M32.813 81.2519C32.8544 81.0799 32.9028 80.8823 32.9582 80.6611C33.1883 79.7436 33.5395 78.4231 34.0188 76.8345C34.9805 73.6471 36.4434 69.4293 38.4549 65.2389C40.4785 61.0234 42.984 56.9913 45.9688 54.0505C48.9287 51.1342 52.1882 49.4466 55.8455 49.4466C58.9307 49.4466 62.2568 51.7526 64.874 56.5672C67.4351 61.2786 68.9152 67.7743 68.5141 74.5181C68.1146 81.2368 65.8617 88.0086 61.1919 93.4198C56.9049 98.3876 50.4211 102.396 40.9831 104.089L32.813 81.2519Z" stroke="#6F746E" stroke-width="6"/>
<path d="M29.6922 81.4348C29.6922 81.4348 37.1295 46.4466 55.8455 46.4466C74.5614 46.4466 84.516 101.45 38.993 107.433L29.6922 81.4348Z" fill="#6F746E"/>
<path d="M45.4086 13.6796C45.4086 10.9182 47.6472 8.6796 50.4086 8.6796H156.848C159.609 8.6796 161.848 10.9182 161.848 13.6796V148.078C161.848 150.84 159.609 153.078 156.848 153.078H50.4086C47.6472 153.078 45.4086 150.84 45.4086 148.078V13.6796Z" fill="#FBEDD0"/>
<path d="M56.6792 17.4409H150.161V140.974H56.6792V17.4409Z" fill="#373737"/>
<path d="M78.7949 3C78.7949 1.34315 80.1381 0 81.7949 0H126.712C128.369 0 129.712 1.34315 129.712 3V18.6173C129.712 20.2742 128.369 21.6173 126.712 21.6173H81.7949C80.1381 21.6173 78.7949 20.2742 78.7949 18.6173V3Z" fill="#6F746E"/>
<path opacity="0.2" d="M98.549 72.8533H121.646V77.945H98.549V72.8533Z" fill="#6F746E"/>
<path opacity="0.2" d="M98.5492 82.9713H135.139V88.063H98.5492V82.9713Z" fill="#6F746E"/>
<path opacity="0.2" d="M98.5492 105.594H121.646V110.686H98.5492V105.594Z" fill="#6F746E"/>
<path opacity="0.2" d="M98.5492 115.72H135.139V120.812H98.5492V115.72Z" fill="#6F746E"/>
<path d="M69.5707 38.2685H88.4361V57.1339H69.5707V38.2685Z" stroke="#6F746E" stroke-width="2"/>
<path d="M69.5707 70.8211H88.4361V89.6865H69.5707V70.8211Z" stroke="#6F746E" stroke-width="2"/>
<path d="M69.5707 103.374H88.4361V122.239H69.5707V103.374Z" stroke="#6F746E" stroke-width="2"/>
<path opacity="0.1" d="M105.937 103.878L102.864 109.223L113.211 107.907L124.179 103.918C124.179 103.918 129.794 112.909 139.193 118.237C149.561 123.929 157.523 133.177 161.611 144.276L161.872 145.004V95.1489L147.472 80.0536L105.937 103.878Z" fill="#6F746E"/>
<path d="M175.348 64.0571L178.966 71.5855L113.215 103.187L109.596 95.6587L175.348 64.0571Z" fill="#6F746E"/>
<path d="M160.287 77.3484C160.287 77.3484 148.534 66.8135 131.134 74.0792C117.51 79.8002 123.958 86.5265 131.281 86.2405C138.604 85.9544 150.896 80.9608 150.038 93.1221C149.262 103.837 135.973 88.4308 128.355 89.0356C120.738 89.6404 121.613 98.2955 130.995 103.044C140.378 107.792 153.552 118.074 163.809 109.999C174.066 101.924 171.132 87.5808 160.287 77.3484Z" fill="#6F746E"/>
<path d="M175.347 64.0572L178.966 71.5855L139.241 90.6779L126.836 87.3167L175.347 64.0572Z" fill="#6F746E"/>
<path d="M229.72 151.26L198.725 177.72L159.042 113.117L173.026 95.5316L229.72 151.26Z" fill="#6F746E" stroke="#373737" stroke-width="3"/>
<path d="M111.706 102.369L103.504 103.38L109.311 97.3892L111.706 102.369Z" stroke="#6F746E" stroke-width="2"/>
<path d="M44.3543 68.399C44.3543 68.399 58.804 53.6306 65.0399 54.9382C70.1889 56.0252 70.197 66.2659 58.9756 74.7984C56.6976 76.5112 54.8143 78.6938 53.4536 81.1982C52.0928 83.7025 51.2863 86.4702 51.0888 89.3135C50.77 94.0783 49.1927 99.7503 44.3543 104.025C34.1791 113.015 26.6273 105.185 27.608 93.024C28.5888 80.8627 29.2508 77.2666 44.3543 68.399Z" fill="#6F746E"/>
<path d="M23.4079 95.6075L48.3947 103.183L43.1679 175.455L1.91235 167.544L23.4079 95.6075Z" fill="#6F746E" stroke="#373737" stroke-width="3"/>
<path opacity="0.2" d="M98.549 39.565H121.646V44.6567H98.549V39.565Z" fill="#6F746E"/>
<path opacity="0.2" d="M98.549 49.6831H135.139V54.7748H98.549V49.6831Z" fill="#6F746E"/>
<path d="M43.1679 175.455L28.8245 172.703L38.0746 100.058L48.3947 103.184L43.1679 175.455Z" stroke="#373737" stroke-width="3"/>
<path d="M198.725 177.72L159.042 113.117L164.451 106.313L211.157 167.108L198.725 177.72Z" stroke="#373737" stroke-width="3"/>
<path class="galochka gal-1" d="M75 46.8703L78.157 51.4748L84.7019 43" stroke="#DCA34C" stroke-width="2" stroke-linecap="round" stroke-linejoin="round"/>
<path class="galochka gal-2" d="M75 78.8808L78.157 83.4853L84.7019 75" stroke="#DCA34C" stroke-width="2" stroke-linecap="round" stroke-linejoin="round"/>
<path class="galochka gal-3" d="M75 111.87L78.157 116.475L84.7019 108" stroke="#DCA34C" stroke-width="2" stroke-linecap="round" stroke-linejoin="round"/>
</svg>
