
<svg width="183" height="180" viewBox="0 0 183 180" fill="none" xmlns="http://www.w3.org/2000/svg">

<style>

        .line{
        animation: lds-facebook 5s infinite;
        opacity: 0;
        }

        .line-1{
        animation-delay: 0s;
        }

        .line-2{
        animation-delay: 0.2s;
        }

        .line-3{
        animation-delay: 0.6s;
        }

        .line-4{
        animation-delay: 0.8s;
        }
        @keyframes lds-facebook {
                0% {
                    transform: scaleY(0.7);
                    opacity: 0;
                }
                50%{
              transform: scaleY(1);
              opacity: 1;
                }
                100% {
                     transform: scaleY(0.7);
                       opacity: 0;
                }
        }

        .arrow-line {
            animation: dash 5s forwards  linear infinite;
            }

            

            @keyframes dash {
                 0% {
                    opacity: 0;
                    transform: translateX(-20px);
                }
                50%{
              transform: translateX(0px);
                }
                90%{transform: translateX(0px); opacity: 1;}
                100% {
                       opacity: 0;
                }
            }

    </style>
<mask id="path-1-inside-1_418_26645" fill="white">
<rect width="182.379" height="20.3423" rx="5"/>
</mask>
<rect width="182.379" height="20.3423" rx="5" stroke="#6F746E" stroke-width="12" mask="url(#path-1-inside-1_418_26645)"/>
<mask id="path-2-inside-2_418_26645" fill="white">
<rect x="14.0292" y="14.5476" width="154.321" height="130.471" rx="5"/>
</mask>
<rect x="14.0292" y="14.5476" width="154.321" height="130.471" rx="5" stroke="#6F746E" stroke-width="12" mask="url(#path-2-inside-2_418_26645)"/>
<circle cx="58.2211" cy="61.0268" r="28.267" stroke="#6F746E" stroke-width="8"/>
<circle cx="91.2962" cy="165.62" r="11.3799" stroke="#6F746E" stroke-width="6"/>
<line class="line line-1" x1="98.3981" y1="113.129" x2="98.3981" y2="130.978" stroke="#6F746E" stroke-width="6" stroke-linecap="round"/>
<line x1="36.0801" y1="130.867" x2="28.4539" y2="130.867" stroke="#6F746E" stroke-width="5" stroke-linecap="round"/>
<line x1="151.82" y1="31.2597" x2="144.194" y2="31.2597" stroke="#6F746E" stroke-width="5" stroke-linecap="round"/>
<line class="line line-2" x1="113.83" y1="96.9952" x2="113.83" y2="130.978" stroke="#6F746E" stroke-width="6" stroke-linecap="round"/>
<line class="line line-3" x1="129.262" y1="106.816" x2="129.262" y2="130.978" stroke="#6F746E" stroke-width="6" stroke-linecap="round"/>
<line class="line line-4" x1="144.694" y1="89.9807" x2="144.694" y2="130.978" stroke="#6F746E" stroke-width="6" stroke-linecap="round"/>
<line x1="91.9326" y1="144.226" x2="91.9326" y2="152.643" stroke="#6F746E" stroke-width="6"/>
<path class="arrow-line" d="M89 94.4808L109.489 77.337C110.187 76.7533 111.19 76.7138 111.931 77.2409L129.01 89.3856C129.885 90.008 131.096 89.828 131.752 88.9778L150.038 65.2885" stroke="#DCA34C" stroke-width="4" stroke-linecap="round"/>
<path class="arrow-line" d="M151.8 60.1C151.303 60.7627 151.437 61.7029 152.1 62.2C152.763 62.6971 153.703 62.5627 154.2 61.9L151.8 60.1ZM156 57L140.072 63.8038L153.928 74.1962L156 57Z" fill="#DCA34C"/>
<path d="M62 67H49" stroke="#FBEDD0" stroke-width="6" stroke-linecap="round"/>
<path d="M52.8558 59.1711V51C52.8558 49.8954 53.7512 49 54.8558 49H64.8849C65.9895 49 66.8849 49.8954 66.8849 51V57.1711C66.8849 58.2757 65.9895 59.1711 64.8849 59.1711H52.8558ZM52.8558 59.1711V72.9429M52.8558 59.1711H49" stroke="#FBEDD0" stroke-width="6" stroke-linecap="round"/>
</svg>
