<svg width="184" height="180" viewBox="0 0 184 180" fill="none" xmlns="http://www.w3.org/2000/svg">
<style>
.rotate{
     transform-box: fill-box;
    transform-origin: center;
    display: block;
    -webkit-animation: rotating 20s linear infinite;
}

@-webkit-keyframes rotating {
    from{
        -webkit-transform: rotate(0deg);
    }
    to{
        -webkit-transform: rotate(360deg);
    }
}

</style>
<path d="M137.153 180H131.681V125.847L132.489 125.044C142.897 114.714 148.63 100.987 148.63 86.3929C148.63 56.2124 123.835 31.6567 93.36 31.6567C62.8799 31.6567 38.0821 56.211 38.0821 86.3929C38.0821 87.2287 38.1149 88.0508 38.1491 88.8811L38.1806 89.6786L21.4249 118.438H32.8744V143.865C32.8744 150.904 38.6621 156.63 45.7781 156.63H73.2884V180H67.8167V162.102H45.7767C35.6445 162.102 27.4014 153.922 27.4014 143.865V123.91H11.9L32.6501 88.3011C32.6268 87.6678 32.6104 87.0345 32.6104 86.3929C32.6104 53.1947 59.8622 26.1864 93.36 26.1864C126.852 26.1864 154.101 53.1961 154.101 86.3929C154.101 102.075 148.091 116.843 137.153 128.111V180Z" fill="#6F746E"/>
<path d="M91.9029 128.238C68.5784 128.238 49.6012 109.425 49.6012 86.2986C49.6012 63.1766 68.5784 44.3662 91.9029 44.3662C115.232 44.3662 134.209 63.1766 134.209 86.2986C134.209 109.425 115.232 128.238 91.9029 128.238ZM91.9029 49.8393C71.5947 49.8393 55.0729 66.1956 55.0729 86.3C55.0729 106.408 71.5947 122.766 91.9029 122.766C112.214 122.766 128.737 106.408 128.737 86.2986C128.737 66.1956 112.214 49.8393 91.9029 49.8393Z" fill="#FBEDD0"/>
<path d="M91.9033 128.238C77.5374 128.238 66.2834 109.817 66.2834 86.2986C66.2834 62.7853 77.5387 44.3662 91.9033 44.3662C106.268 44.3662 117.522 62.7853 117.522 86.2986C117.522 109.817 106.269 128.238 91.9033 128.238ZM91.9033 49.8393C80.9818 49.8393 71.7551 66.5362 71.7551 86.3C71.7551 106.069 80.9818 122.767 91.9033 122.767C102.823 122.767 112.051 106.069 112.051 86.3C112.051 66.5362 102.823 49.8393 91.9033 49.8393Z" fill="#FBEDD0"/>
<path d="M129.027 103.019H55.1125C53.9768 103.019 52.96 102.313 52.5568 101.247C50.7351 96.4263 49.8112 91.4364 49.8112 86.4149C49.8112 81.3838 50.7378 76.3912 52.5664 71.5783C52.9696 70.515 53.9864 69.8112 55.1193 69.8112H129.027C130.16 69.8112 131.176 70.5136 131.58 71.5769C133.411 76.3898 134.339 81.3811 134.339 86.4149C134.339 91.4446 133.411 96.4359 131.581 101.253C131.177 102.316 130.16 103.019 129.027 103.019ZM57.0477 97.5307H127.095C128.275 93.895 128.873 90.1632 128.873 86.4149C128.873 82.6639 128.275 78.9335 127.096 75.2991H57.0518C55.8737 78.9335 55.2779 82.6639 55.2779 86.4149C55.2779 90.1577 55.8724 93.8895 57.0477 97.5307Z" fill="#FBEDD0"/>
<path d="M91.9032 128.236C90.393 128.236 89.1674 127.011 89.1674 125.501V47.1006C89.1674 45.5904 90.393 44.3647 91.9032 44.3647C115.232 44.3647 134.209 63.1751 134.209 86.2971C134.209 109.423 115.232 128.236 91.9032 128.236ZM94.6391 49.9363V122.665C113.678 121.275 128.737 105.496 128.737 86.2971C128.737 67.1038 113.678 51.3261 94.6391 49.9363Z" fill="#FBEDD0"/>
<mask id="mask0_418_26677" style="mask-type:alpha" maskUnits="userSpaceOnUse" x="0" y="0" width="184" height="154">
<path d="M20.3773 107.17L11.3207 109.434L0 91.3206L6.79244 49.4339L44.9056 12.8302L83.7734 0L129.056 4.52829L162.641 26.415L183.019 77.7357L169.811 129.811L144.528 153.585L136.981 144.528L20.3773 107.17Z" fill="#D9D9D9"/>
</mask>
<g mask="url(#mask0_418_26677)">
<circle class="rotate" cx="92.4527" cy="86.0376" r="77.8866" transform="rotate(151.404 92.4527 86.0376)" stroke="#DCA34C" stroke-width="8" stroke-dasharray="9 9"/>
</g>
</svg>
