<svg width="1177" height="446" viewBox="0 0 1177 446" fill="none" xmlns="http://www.w3.org/2000/svg">
<g clip-path="url(#clip0_100_26453)">
<rect x="1" y="335.037" width="118" height="111" stroke="#6F746E" stroke-width="2"/>
<rect x="119" y="335.037" width="117" height="111" stroke="#6F746E" stroke-width="2"/>
<rect x="236" y="335.037" width="118" height="111" stroke="#6F746E" stroke-width="2"/>
<rect x="354" y="335.037" width="117" height="111" stroke="#6F746E" stroke-width="2"/>
<rect x="471" y="335.037" width="118" height="111" stroke="#6F746E" stroke-width="2"/>
<rect x="589" y="335.037" width="118" height="111" stroke="#6F746E" stroke-width="2"/>
<rect x="707" y="335.037" width="117" height="111" stroke="#6F746E" stroke-width="2"/>
<rect x="824" y="335.037" width="118" height="111" stroke="#6F746E" stroke-width="2"/>
<rect x="942" y="335.037" width="117" height="111" stroke="#6F746E" stroke-width="2"/>
<rect x="1059" y="335.037" width="117" height="111" stroke="#6F746E" stroke-width="2"/>
<rect x="1" y="224.037" width="118" height="111" stroke="#6F746E" stroke-width="2"/>
<rect x="119" y="224.037" width="117" height="111" stroke="#6F746E" stroke-width="2"/>
<rect x="236" y="224.037" width="118" height="111" stroke="#6F746E" stroke-width="2"/>
<rect x="354" y="224.037" width="117" height="111" stroke="#6F746E" stroke-width="2"/>
<rect x="471" y="224.037" width="118" height="111" stroke="#6F746E" stroke-width="2"/>
<rect x="589" y="224.037" width="118" height="111" stroke="#6F746E" stroke-width="2"/>
<rect x="707" y="224.037" width="117" height="111" stroke="#6F746E" stroke-width="2"/>
<rect x="824" y="224.037" width="118" height="111" stroke="#6F746E" stroke-width="2"/>
<rect x="942" y="224.037" width="117" height="111" stroke="#6F746E" stroke-width="2"/>
<rect x="1059" y="224.037" width="117" height="111" stroke="#6F746E" stroke-width="2"/>
<rect x="1" y="113.037" width="118" height="111" stroke="#6F746E" stroke-width="2"/>
<rect x="119" y="113.037" width="117" height="111" stroke="#6F746E" stroke-width="2"/>
<rect x="236" y="113.037" width="118" height="111" stroke="#6F746E" stroke-width="2"/>
<rect x="354" y="113.037" width="117" height="111" stroke="#6F746E" stroke-width="2"/>
<rect x="471" y="113.037" width="118" height="111" stroke="#6F746E" stroke-width="2"/>
<rect x="589" y="113.037" width="118" height="111" stroke="#6F746E" stroke-width="2"/>
<rect x="707" y="113.037" width="117" height="111" stroke="#6F746E" stroke-width="2"/>
<rect x="824" y="113.037" width="118" height="111" stroke="#6F746E" stroke-width="2"/>
<rect x="942" y="113.037" width="117" height="111" stroke="#6F746E" stroke-width="2"/>
<rect x="1059" y="113.037" width="117" height="111" stroke="#6F746E" stroke-width="2"/>
<rect x="1" y="2.03662" width="118" height="111" stroke="#6F746E" stroke-width="2"/>
<rect x="119" y="2.03662" width="117" height="111" stroke="#6F746E" stroke-width="2"/>
<rect x="236" y="2.03662" width="118" height="111" stroke="#6F746E" stroke-width="2"/>
<rect x="354" y="2.03662" width="117" height="111" stroke="#6F746E" stroke-width="2"/>
<rect x="471" y="2.03662" width="118" height="111" stroke="#6F746E" stroke-width="2"/>
<rect x="589" y="2.03662" width="118" height="111" stroke="#6F746E" stroke-width="2"/>
<rect x="707" y="2.03662" width="117" height="111" stroke="#6F746E" stroke-width="2"/>
<rect x="824" y="2.03662" width="118" height="111" stroke="#6F746E" stroke-width="2"/>
<rect x="942" y="2.03662" width="117" height="111" stroke="#6F746E" stroke-width="2"/>
<rect x="1059" y="2.03662" width="117" height="111" stroke="#6F746E" stroke-width="2"/>
<path d="M2 224.037L54.3654 440.949L175.761 440.705L353.405 375.93L469.901 376.685L592.821 363.883L706.721 351.9L824.649 314.602L942.377 276.324L1057.69 221.189L1174.8 174.873" stroke="url(#paint0_linear_100_26453)" stroke-width="5"/>
<path d="M119.383 335.99L238.782 325.947L354.805 304.345L469.142 304.519L589.192 257.604L706.668 258.159L824.759 211.643L942.542 188.662L1057.98 114.112L1175.09 67.7954" stroke="#DCA34C" stroke-width="5"/>
<path d="M119.363 334.781L237.146 311.801L354.637 262.345L472.894 261.72L590.348 202.067L709.784 202.222L826.259 142.769L944.659 127.827L1060.28 49.1567L1176.81 5.00003" stroke="#5B5A5F" stroke-width="5"/>
<path d="M117.771 336.244L233.047 270.912L354.077 223.797L471.353 223.372L588.486 237.263L706.106 223.501L820.296 182.883L939.38 86.1575L1057.84 86.5125L1175.89 29.7987" stroke="#D9D9D9" stroke-width="5"/>
<path d="M118.941 336.412L231.673 218.529L354.259 113.946L469.177 111.96L585.67 57.6058L704.071 42.6638L824.83 29.2822L942.288 24.7379L1057.13 2.35631L1175.39 1.73141" stroke="#7E817E" stroke-width="5"/>
<circle cx="119" cy="336.037" r="10.5" fill="#D9D9D9" stroke="#DCA34C" stroke-width="3"/>
<path d="M381.562 211.037V202.309H385.347C386.011 202.309 386.57 202.399 387.021 202.578C387.476 202.757 387.818 203.01 388.048 203.336C388.281 203.663 388.398 204.048 388.398 204.491C388.398 204.812 388.327 205.105 388.185 205.369C388.045 205.633 387.849 205.855 387.597 206.034C387.344 206.21 387.048 206.332 386.71 206.4V206.485C387.085 206.5 387.426 206.595 387.733 206.771C388.04 206.944 388.284 207.184 388.466 207.491C388.648 207.795 388.739 208.153 388.739 208.565C388.739 209.042 388.614 209.467 388.364 209.839C388.116 210.211 387.764 210.504 387.307 210.717C386.849 210.93 386.304 211.037 385.67 211.037H381.562ZM383.932 209.145H385.04C385.438 209.145 385.736 209.071 385.935 208.923C386.134 208.772 386.233 208.551 386.233 208.258C386.233 208.054 386.186 207.88 386.092 207.738C385.999 207.596 385.865 207.488 385.692 207.414C385.521 207.341 385.315 207.304 385.074 207.304H383.932V209.145ZM383.932 205.838H384.903C385.111 205.838 385.294 205.805 385.453 205.74C385.612 205.674 385.736 205.581 385.824 205.458C385.915 205.333 385.96 205.182 385.96 205.003C385.96 204.733 385.864 204.527 385.67 204.385C385.477 204.24 385.233 204.167 384.938 204.167H383.932V205.838ZM391.078 205.241H392.885C393.621 205.241 394.263 205.359 394.811 205.595C395.362 205.831 395.79 206.163 396.094 206.592C396.401 207.021 396.553 207.525 396.55 208.105C396.553 208.684 396.401 209.194 396.094 209.635C395.79 210.075 395.362 210.419 394.811 210.666C394.263 210.913 393.621 211.037 392.885 211.037H389.629V202.309H391.999V209.179H392.885C393.172 209.179 393.412 209.132 393.605 209.038C393.801 208.944 393.949 208.815 394.048 208.65C394.151 208.485 394.2 208.298 394.197 208.088C394.2 207.789 394.089 207.542 393.865 207.346C393.641 207.147 393.314 207.048 392.885 207.048H391.078V205.241ZM399.533 202.309V211.037H397.163V202.309H399.533ZM400.652 211.037V202.309H404.419C405.067 202.309 405.634 202.437 406.12 202.693C406.605 202.949 406.983 203.308 407.253 203.771C407.523 204.234 407.658 204.775 407.658 205.395C407.658 206.02 407.519 206.561 407.24 207.018C406.965 207.476 406.577 207.828 406.077 208.075C405.58 208.322 404.999 208.446 404.334 208.446H402.084V206.605H403.857C404.135 206.605 404.373 206.557 404.569 206.46C404.767 206.36 404.919 206.22 405.025 206.038C405.132 205.856 405.186 205.642 405.186 205.395C405.186 205.145 405.132 204.932 405.025 204.755C404.919 204.576 404.767 204.44 404.569 204.346C404.373 204.25 404.135 204.201 403.857 204.201H403.022V211.037H400.652ZM409.789 211.156V209.315H410.215C410.465 209.315 410.662 209.295 410.807 209.255C410.955 209.213 411.069 209.139 411.148 209.034C411.23 208.926 411.3 208.775 411.357 208.582L411.442 208.326L408.169 202.309H410.59L412.414 205.855L413.811 202.309H416.198L413.198 209.128C413.033 209.485 412.837 209.819 412.61 210.129C412.382 210.436 412.1 210.684 411.762 210.875C411.424 211.062 411.005 211.156 410.505 211.156H409.789ZM417.493 202.309H419.777V205.054C419.777 205.326 419.824 205.549 419.918 205.723C420.015 205.896 420.175 206.024 420.4 206.106C420.627 206.189 420.936 206.23 421.328 206.23C421.4 206.23 421.515 206.228 421.674 206.226C421.836 206.22 422.01 206.213 422.198 206.204C422.385 206.193 422.557 206.18 422.713 206.166C422.873 206.149 422.985 206.13 423.05 206.11V207.9C422.976 207.926 422.854 207.949 422.684 207.968C422.513 207.985 422.33 208.001 422.134 208.015C421.941 208.027 421.767 208.037 421.614 208.045C421.461 208.051 421.365 208.054 421.328 208.054C420.561 208.054 419.89 207.944 419.313 207.726C418.736 207.507 418.289 207.176 417.971 206.733C417.652 206.289 417.493 205.73 417.493 205.054V202.309ZM422.607 202.309H424.908V211.037H422.607V202.309ZM431.917 211.037L429.241 207.508H428.908V211.037H426.539V202.309H428.908V205.599H429.215L431.721 202.309H434.704L431.38 206.503L434.891 211.037H431.917ZM437.794 211.037H435.238L438.118 202.309H441.357L444.238 211.037H441.681L439.772 204.713H439.703L437.794 211.037ZM437.317 207.593H442.124V209.366H437.317V207.593Z" fill="#D9D9D9"/>
<path d="M388.574 94.3093V103.037H386.239V96.1843H383.29V103.037H380.955V94.3093H388.574ZM390.09 103.037V94.3093H393.857C394.505 94.3093 395.071 94.4372 395.557 94.6929C396.043 94.9486 396.421 95.3079 396.691 95.771C396.961 96.2341 397.096 96.7753 397.096 97.3946C397.096 98.0196 396.956 98.5608 396.678 99.0182C396.402 99.4755 396.015 99.8278 395.515 100.075C395.017 100.322 394.436 100.446 393.772 100.446H391.522V98.6048H393.294C393.573 98.6048 393.81 98.5565 394.006 98.4599C394.205 98.3605 394.357 98.2199 394.462 98.038C394.57 97.8562 394.624 97.6417 394.624 97.3946C394.624 97.1446 394.57 96.9315 394.462 96.7554C394.357 96.5764 394.205 96.44 394.006 96.3463C393.81 96.2497 393.573 96.2014 393.294 96.2014H392.459V103.037H390.09ZM397.965 103.037V94.3093H404.255V96.2184H400.334V97.7184H403.931V99.6275H400.334V101.128H404.238V103.037H397.965ZM413.577 97.5821H411.174C411.157 97.3832 411.112 97.2028 411.038 97.0409C410.967 96.879 410.867 96.7397 410.739 96.6233C410.614 96.504 410.462 96.413 410.283 96.3505C410.104 96.2852 409.901 96.2525 409.674 96.2525C409.276 96.2525 408.94 96.3491 408.664 96.5423C408.391 96.7355 408.184 97.0125 408.042 97.3733C407.903 97.7341 407.833 98.1673 407.833 98.673C407.833 99.2071 407.904 99.6545 408.046 100.015C408.191 100.373 408.4 100.643 408.673 100.825C408.945 101.004 409.273 101.093 409.657 101.093C409.876 101.093 410.072 101.066 410.245 101.012C410.418 100.956 410.569 100.875 410.697 100.77C410.825 100.664 410.928 100.538 411.008 100.39C411.09 100.24 411.146 100.071 411.174 99.8832L413.577 99.9003C413.549 100.27 413.445 100.646 413.266 101.03C413.087 101.41 412.833 101.762 412.504 102.086C412.177 102.407 411.772 102.666 411.289 102.862C410.806 103.058 410.245 103.156 409.606 103.156C408.805 103.156 408.086 102.984 407.45 102.64C406.816 102.297 406.315 101.791 405.945 101.123C405.579 100.456 405.396 99.6389 405.396 98.673C405.396 97.7014 405.583 96.8832 405.958 96.2184C406.333 95.5508 406.839 95.0466 407.475 94.7057C408.112 94.3619 408.822 94.19 409.606 94.19C410.157 94.19 410.664 94.2653 411.127 94.4159C411.59 94.5665 411.996 94.7866 412.346 95.0764C412.695 95.3633 412.977 95.717 413.19 96.1375C413.403 96.5579 413.532 97.0395 413.577 97.5821ZM414.414 96.2184V94.3093H421.999V96.2184H419.374V103.037H417.039V96.2184H414.414ZM422.891 94.3093H425.26V98.8775H425.328L428.43 94.3093H430.442V103.037H428.072V98.4514H428.021L424.868 103.037H422.891V94.3093ZM439.199 94.3093V103.037H436.915V94.3093H439.199ZM431.358 103.037L434.034 98.4003L431.392 94.3093H434.324L436.08 97.7184H440.102L441.773 94.3093H444.688L442.165 98.3662L444.756 103.037H441.892L440.392 99.9003H435.773L434.205 103.037H431.358Z" fill="#7E817E"/>
<path d="M86.5625 426.037V417.309H90.3466C91.0114 417.309 91.5696 417.399 92.0213 417.578C92.4759 417.757 92.8182 418.01 93.0483 418.336C93.2813 418.663 93.3977 419.048 93.3977 419.491C93.3977 419.812 93.3267 420.105 93.1847 420.369C93.0455 420.633 92.8494 420.855 92.5966 421.034C92.3438 421.21 92.0483 421.332 91.7102 421.4V421.485C92.0852 421.5 92.4261 421.595 92.733 421.771C93.0398 421.944 93.2841 422.184 93.4659 422.491C93.6477 422.795 93.7386 423.153 93.7386 423.565C93.7386 424.042 93.6136 424.467 93.3636 424.839C93.1165 425.211 92.7642 425.504 92.3068 425.717C91.8494 425.93 91.304 426.037 90.6705 426.037H86.5625ZM88.9318 424.145H90.0398C90.4375 424.145 90.7358 424.071 90.9347 423.923C91.1335 423.772 91.233 423.551 91.233 423.258C91.233 423.054 91.1861 422.88 91.0923 422.738C90.9986 422.596 90.8651 422.488 90.6918 422.414C90.5213 422.341 90.3153 422.304 90.0739 422.304H88.9318V424.145ZM88.9318 420.838H89.9034C90.1108 420.838 90.294 420.805 90.4531 420.74C90.6122 420.674 90.7358 420.581 90.8239 420.458C90.9148 420.333 90.9602 420.182 90.9602 420.003C90.9602 419.733 90.8636 419.527 90.6705 419.385C90.4773 419.24 90.233 419.167 89.9375 419.167H88.9318V420.838ZM94.2884 426.037V424.213L94.527 424.179C94.8168 424.133 95.0568 424.008 95.2472 423.804C95.4403 423.596 95.5881 423.268 95.6903 422.819C95.7955 422.368 95.8622 421.753 95.8906 420.974L96.027 417.309H102.351V426.037H100.067V419.15H98.2088L98.0724 421.895C98.0213 422.912 97.8849 423.723 97.6634 424.328C97.4418 424.933 97.1051 425.369 96.6534 425.636C96.2017 425.903 95.6065 426.037 94.8679 426.037H94.2884ZM111.927 421.673C111.927 422.645 111.738 423.464 111.36 424.132C110.983 424.797 110.473 425.301 109.831 425.645C109.189 425.985 108.473 426.156 107.683 426.156C106.887 426.156 106.169 425.984 105.527 425.64C104.887 425.294 104.379 424.788 104.001 424.123C103.626 423.456 103.439 422.639 103.439 421.673C103.439 420.701 103.626 419.883 104.001 419.218C104.379 418.551 104.887 418.047 105.527 417.706C106.169 417.362 106.887 417.19 107.683 417.19C108.473 417.19 109.189 417.362 109.831 417.706C110.473 418.047 110.983 418.551 111.36 419.218C111.738 419.883 111.927 420.701 111.927 421.673ZM109.49 421.673C109.49 421.15 109.42 420.71 109.281 420.352C109.145 419.991 108.941 419.718 108.672 419.534C108.404 419.346 108.075 419.253 107.683 419.253C107.291 419.253 106.96 419.346 106.69 419.534C106.423 419.718 106.22 419.991 106.081 420.352C105.944 420.71 105.876 421.15 105.876 421.673C105.876 422.196 105.944 422.637 106.081 422.998C106.22 423.356 106.423 423.629 106.69 423.816C106.96 424.001 107.291 424.093 107.683 424.093C108.075 424.093 108.404 424.001 108.672 423.816C108.941 423.629 109.145 423.356 109.281 422.998C109.42 422.637 109.49 422.196 109.49 421.673ZM120.074 417.309V426.037H117.79V417.309H120.074ZM112.233 426.037L114.909 421.4L112.267 417.309H115.199L116.955 420.718H120.977L122.648 417.309H125.562L123.04 421.366L125.631 426.037H122.767L121.267 422.9H116.648L115.08 426.037H112.233ZM126.547 426.037V417.309H132.837V419.218H128.916V420.718H132.513V422.628H128.916V424.128H132.82V426.037H126.547ZM134.012 426.037V417.309H136.381V420.718H139.517V417.309H141.887V426.037H139.517V422.628H136.381V426.037H134.012ZM143.012 417.309H145.381V421.878H145.449L148.551 417.309H150.563V426.037H148.194V421.451H148.142L144.989 426.037H143.012V417.309ZM151.684 426.037V417.309H157.973V419.218H154.053V420.718H157.65V422.628H154.053V424.128H157.956V426.037H151.684Z" fill="#7B360F"/>
<path d="M386.94 250.037L384.264 246.508H383.932V250.037H381.562V241.309H383.932V244.599H384.239L386.744 241.309H389.727L386.403 245.503L389.915 250.037H386.94ZM390.261 250.037V248.213L390.5 248.179C390.789 248.133 391.029 248.008 391.22 247.804C391.413 247.596 391.561 247.268 391.663 246.819C391.768 246.368 391.835 245.753 391.863 244.974L392 241.309H398.324V250.037H396.039V243.15H394.181L394.045 245.895C393.994 246.912 393.858 247.723 393.636 248.328C393.414 248.933 393.078 249.369 392.626 249.636C392.174 249.903 391.579 250.037 390.841 250.037H390.261ZM399.445 241.309H401.815V245.878H401.883L404.985 241.309H406.996V250.037H404.627V245.451H404.576L401.423 250.037H399.445V241.309ZM408.117 250.037V241.309H414.407V243.218H410.487V244.718H414.083V246.628H410.487V248.128H414.39V250.037H408.117ZM415.582 250.037V241.309H417.951V244.718H421.088V241.309H423.457V250.037H421.088V246.628H417.951V250.037H415.582ZM424.343 243.218V241.309H431.929V243.218H429.304V250.037H426.968V243.218H424.343ZM434.32 244.241H436.127C436.863 244.241 437.505 244.359 438.053 244.595C438.604 244.831 439.032 245.163 439.336 245.592C439.643 246.021 439.795 246.525 439.792 247.105C439.795 247.684 439.643 248.194 439.336 248.635C439.032 249.075 438.604 249.419 438.053 249.666C437.505 249.913 436.863 250.037 436.127 250.037H432.871V241.309H435.241V248.179H436.127C436.414 248.179 436.654 248.132 436.847 248.038C437.043 247.944 437.191 247.815 437.29 247.65C437.393 247.485 437.442 247.298 437.44 247.088C437.442 246.789 437.332 246.542 437.107 246.346C436.883 246.147 436.556 246.048 436.127 246.048H434.32V244.241ZM442.775 241.309V250.037H440.406V241.309H442.775Z" fill="#5B5A5F"/>
<path d="M379.267 283.037C379.244 282.753 379.138 282.531 378.947 282.372C378.76 282.213 378.474 282.133 378.091 282.133C377.847 282.133 377.646 282.163 377.49 282.223C377.337 282.28 377.223 282.358 377.149 282.457C377.075 282.557 377.037 282.67 377.034 282.798C377.028 282.903 377.047 282.998 377.089 283.083C377.135 283.166 377.206 283.241 377.303 283.309C377.399 283.375 377.523 283.434 377.673 283.488C377.824 283.542 378.003 283.591 378.21 283.633L378.926 283.787C379.409 283.889 379.822 284.024 380.166 284.191C380.51 284.359 380.791 284.557 381.01 284.784C381.229 285.008 381.389 285.261 381.491 285.542C381.597 285.824 381.651 286.13 381.653 286.463C381.651 287.037 381.507 287.522 381.223 287.92C380.939 288.318 380.533 288.62 380.004 288.828C379.479 289.035 378.847 289.139 378.108 289.139C377.349 289.139 376.688 289.027 376.122 288.802C375.56 288.578 375.122 288.233 374.81 287.767C374.5 287.298 374.344 286.699 374.341 285.968H376.591C376.605 286.235 376.672 286.46 376.791 286.642C376.911 286.824 377.078 286.961 377.294 287.055C377.513 287.149 377.773 287.196 378.074 287.196C378.327 287.196 378.538 287.164 378.709 287.102C378.879 287.039 379.009 286.953 379.097 286.842C379.185 286.731 379.23 286.605 379.233 286.463C379.23 286.329 379.186 286.213 379.101 286.113C379.018 286.011 378.882 285.92 378.692 285.841C378.501 285.758 378.244 285.682 377.92 285.61L377.051 285.423C376.278 285.255 375.669 284.976 375.223 284.583C374.78 284.189 374.56 283.65 374.562 282.968C374.56 282.414 374.707 281.93 375.006 281.515C375.307 281.098 375.723 280.772 376.254 280.539C376.788 280.307 377.401 280.19 378.091 280.19C378.795 280.19 379.405 280.308 379.919 280.544C380.433 280.78 380.83 281.112 381.108 281.541C381.389 281.967 381.531 282.466 381.534 283.037H379.267ZM382.555 289.037V280.309H388.844V282.218H384.924V283.718H388.521V285.628H384.924V287.128H388.827V289.037H382.555ZM398.474 284.673C398.474 285.645 398.285 286.464 397.907 287.132C397.529 287.797 397.02 288.301 396.377 288.645C395.735 288.985 395.02 289.156 394.23 289.156C393.434 289.156 392.716 288.984 392.074 288.64C391.434 288.294 390.926 287.788 390.548 287.123C390.173 286.456 389.985 285.639 389.985 284.673C389.985 283.701 390.173 282.883 390.548 282.218C390.926 281.551 391.434 281.047 392.074 280.706C392.716 280.362 393.434 280.19 394.23 280.19C395.02 280.19 395.735 280.362 396.377 280.706C397.02 281.047 397.529 281.551 397.907 282.218C398.285 282.883 398.474 283.701 398.474 284.673ZM396.037 284.673C396.037 284.15 395.967 283.71 395.828 283.352C395.691 282.991 395.488 282.718 395.218 282.534C394.951 282.346 394.622 282.253 394.23 282.253C393.838 282.253 393.507 282.346 393.237 282.534C392.97 282.718 392.767 282.991 392.627 283.352C392.491 283.71 392.423 284.15 392.423 284.673C392.423 285.196 392.491 285.637 392.627 285.998C392.767 286.356 392.97 286.629 393.237 286.816C393.507 287.001 393.838 287.093 394.23 287.093C394.622 287.093 394.951 287.001 395.218 286.816C395.488 286.629 395.691 286.356 395.828 285.998C395.967 285.637 396.037 285.196 396.037 284.673ZM401.722 282.218V280.309H409.308V282.218H406.683V289.037H404.347V282.218H401.722ZM410.199 289.037V280.309H413.966C414.614 280.309 415.181 280.437 415.667 280.693C416.152 280.949 416.53 281.308 416.8 281.771C417.07 282.234 417.205 282.775 417.205 283.395C417.205 284.02 417.066 284.561 416.787 285.018C416.512 285.476 416.124 285.828 415.624 286.075C415.127 286.322 414.546 286.446 413.881 286.446H411.631V284.605H413.404C413.682 284.605 413.919 284.557 414.115 284.46C414.314 284.36 414.466 284.22 414.571 284.038C414.679 283.856 414.733 283.642 414.733 283.395C414.733 283.145 414.679 282.932 414.571 282.755C414.466 282.576 414.314 282.44 414.115 282.346C413.919 282.25 413.682 282.201 413.404 282.201H412.569V289.037H410.199ZM419.251 289.037H416.695L419.575 280.309H422.814L425.695 289.037H423.138L421.229 282.713H421.161L419.251 289.037ZM418.774 285.593H423.581V287.366H418.774V285.593ZM429.875 281.179H432.21C432.943 281.179 433.592 281.328 434.158 281.626C434.726 281.924 435.17 282.348 435.491 282.896C435.815 283.444 435.977 284.093 435.977 284.843C435.977 285.554 435.815 286.169 435.491 286.689C435.17 287.208 434.726 287.61 434.158 287.895C433.592 288.179 432.943 288.321 432.21 288.321H429.875C429.136 288.321 428.482 288.18 427.911 287.899C427.342 287.618 426.896 287.216 426.572 286.693C426.251 286.17 426.091 285.548 426.091 284.826C426.091 284.076 426.254 283.429 426.581 282.883C426.911 282.338 427.359 281.917 427.928 281.622C428.499 281.326 429.148 281.179 429.875 281.179ZM429.875 283.122C429.58 283.122 429.307 283.177 429.057 283.288C428.81 283.399 428.611 283.579 428.46 283.829C428.313 284.079 428.239 284.412 428.239 284.826C428.239 285.207 428.315 285.511 428.469 285.738C428.625 285.966 428.827 286.129 429.074 286.228C429.324 286.328 429.591 286.378 429.875 286.378H432.227C432.517 286.378 432.781 286.326 433.02 286.224C433.261 286.119 433.453 285.954 433.595 285.73C433.74 285.503 433.812 285.207 433.812 284.843C433.812 284.429 433.74 284.095 433.595 283.842C433.453 283.589 433.261 283.406 433.02 283.292C432.781 283.179 432.517 283.122 432.227 283.122H429.875ZM432.142 280.156V289.395H429.926V280.156H432.142ZM437.07 280.309H439.44V284.878H439.508L442.61 280.309H444.621V289.037H442.252V284.451H442.201L439.048 289.037H437.07V280.309ZM451.12 289.037L448.444 285.508H448.112V289.037H445.742V280.309H448.112V283.599H448.418L450.924 280.309H453.907L450.583 284.503L454.094 289.037H451.12Z" fill="#DCA34C"/>
<path d="M371.017 357.673C371.017 358.645 370.828 359.464 370.45 360.132C370.072 360.797 369.563 361.301 368.92 361.645C368.278 361.985 367.563 362.156 366.773 362.156C365.977 362.156 365.259 361.984 364.616 361.64C363.977 361.294 363.469 360.788 363.091 360.123C362.716 359.456 362.528 358.639 362.528 357.673C362.528 356.701 362.716 355.883 363.091 355.218C363.469 354.551 363.977 354.047 364.616 353.706C365.259 353.362 365.977 353.19 366.773 353.19C367.563 353.19 368.278 353.362 368.92 353.706C369.563 354.047 370.072 354.551 370.45 355.218C370.828 355.883 371.017 356.701 371.017 357.673ZM368.58 357.673C368.58 357.15 368.51 356.71 368.371 356.352C368.234 355.991 368.031 355.718 367.761 355.534C367.494 355.346 367.165 355.253 366.773 355.253C366.381 355.253 366.05 355.346 365.78 355.534C365.513 355.718 365.31 355.991 365.17 356.352C365.034 356.71 364.966 357.15 364.966 357.673C364.966 358.196 365.034 358.637 365.17 358.998C365.31 359.356 365.513 359.629 365.78 359.816C366.05 360.001 366.381 360.093 366.773 360.093C367.165 360.093 367.494 360.001 367.761 359.816C368.031 359.629 368.234 359.356 368.371 358.998C368.51 358.637 368.58 358.196 368.58 357.673ZM377.491 362.037L374.815 358.508H374.483V362.037H372.113V353.309H374.483V356.599H374.789L377.295 353.309H380.278L376.954 357.503L380.466 362.037H377.491ZM382.363 362.156V360.315H382.789C383.039 360.315 383.237 360.295 383.381 360.255C383.529 360.213 383.643 360.139 383.722 360.034C383.805 359.926 383.874 359.775 383.931 359.582L384.016 359.326L380.744 353.309H383.164L384.988 356.855L386.386 353.309H388.772L385.772 360.128C385.607 360.485 385.411 360.819 385.184 361.129C384.957 361.436 384.674 361.684 384.336 361.875C383.998 362.062 383.579 362.156 383.079 362.156H382.363ZM397.55 353.309V362.037H395.215V355.184H392.266V362.037H389.931V353.309H397.55ZM401.333 362.037H398.777L401.657 353.309H404.896L407.777 362.037H405.22L403.311 355.713H403.243L401.333 362.037ZM400.856 358.593H405.663V360.366H400.856V358.593ZM408.617 362.037V353.309H414.907V355.218H410.987V356.718H414.583V358.628H410.987V360.128H414.89V362.037H408.617ZM416.082 353.309H419.031L421.059 358.253H421.162L423.19 353.309H426.139V362.037H423.821V356.991H423.752L421.809 361.968H420.412L418.468 356.957H418.4V362.037H416.082V353.309ZM435.716 357.673C435.716 358.645 435.527 359.464 435.15 360.132C434.772 360.797 434.262 361.301 433.62 361.645C432.978 361.985 432.262 362.156 431.472 362.156C430.676 362.156 429.958 361.984 429.316 361.64C428.676 361.294 428.168 360.788 427.79 360.123C427.415 359.456 427.228 358.639 427.228 357.673C427.228 356.701 427.415 355.883 427.79 355.218C428.168 354.551 428.676 354.047 429.316 353.706C429.958 353.362 430.676 353.19 431.472 353.19C432.262 353.19 432.978 353.362 433.62 353.706C434.262 354.047 434.772 354.551 435.15 355.218C435.527 355.883 435.716 356.701 435.716 357.673ZM433.279 357.673C433.279 357.15 433.209 356.71 433.07 356.352C432.934 355.991 432.73 355.718 432.461 355.534C432.194 355.346 431.864 355.253 431.472 355.253C431.08 355.253 430.749 355.346 430.479 355.534C430.212 355.718 430.009 355.991 429.87 356.352C429.733 356.71 429.665 357.15 429.665 357.673C429.665 358.196 429.733 358.637 429.87 358.998C430.009 359.356 430.212 359.629 430.479 359.816C430.749 360.001 431.08 360.093 431.472 360.093C431.864 360.093 432.194 360.001 432.461 359.816C432.73 359.629 432.934 359.356 433.07 358.998C433.209 358.637 433.279 358.196 433.279 357.673ZM444.96 356.582H442.557C442.54 356.383 442.494 356.203 442.42 356.041C442.349 355.879 442.25 355.74 442.122 355.623C441.997 355.504 441.845 355.413 441.666 355.351C441.487 355.285 441.284 355.253 441.057 355.253C440.659 355.253 440.322 355.349 440.047 355.542C439.774 355.735 439.567 356.012 439.425 356.373C439.286 356.734 439.216 357.167 439.216 357.673C439.216 358.207 439.287 358.655 439.429 359.015C439.574 359.373 439.783 359.643 440.055 359.825C440.328 360.004 440.656 360.093 441.04 360.093C441.259 360.093 441.455 360.066 441.628 360.012C441.801 359.956 441.952 359.875 442.08 359.77C442.207 359.664 442.311 359.538 442.391 359.39C442.473 359.24 442.528 359.071 442.557 358.883L444.96 358.9C444.932 359.27 444.828 359.646 444.649 360.03C444.47 360.41 444.216 360.762 443.886 361.086C443.56 361.407 443.155 361.666 442.672 361.862C442.189 362.058 441.628 362.156 440.989 362.156C440.188 362.156 439.469 361.984 438.832 361.64C438.199 361.297 437.697 360.791 437.328 360.123C436.962 359.456 436.778 358.639 436.778 357.673C436.778 356.701 436.966 355.883 437.341 355.218C437.716 354.551 438.222 354.047 438.858 353.706C439.494 353.362 440.205 353.19 440.989 353.19C441.54 353.19 442.047 353.265 442.51 353.416C442.973 353.566 443.379 353.787 443.729 354.076C444.078 354.363 444.359 354.717 444.572 355.137C444.786 355.558 444.915 356.039 444.96 356.582ZM445.797 355.218V353.309H453.382V355.218H450.757V362.037H448.422V355.218H445.797ZM455.773 356.241H457.58C458.316 356.241 458.958 356.359 459.506 356.595C460.058 356.831 460.485 357.163 460.789 357.592C461.096 358.021 461.248 358.525 461.245 359.105C461.248 359.684 461.096 360.194 460.789 360.635C460.485 361.075 460.058 361.419 459.506 361.666C458.958 361.913 458.316 362.037 457.58 362.037H454.325V353.309H456.694V360.179H457.58C457.867 360.179 458.107 360.132 458.3 360.038C458.496 359.944 458.644 359.815 458.744 359.65C458.846 359.485 458.896 359.298 458.893 359.088C458.896 358.789 458.785 358.542 458.56 358.346C458.336 358.147 458.009 358.048 457.58 358.048H455.773V356.241Z" fill="#4F6B49"/>
</g>
<defs>
<linearGradient id="paint0_linear_100_26453" x1="126.58" y1="415.346" x2="946.748" y2="222.84" gradientUnits="userSpaceOnUse">
<stop stop-color="#7C360F"/>
<stop offset="1" stop-color="#477554"/>
</linearGradient>
<clipPath id="clip0_100_26453">
<rect width="1177" height="446" fill="white"/>
</clipPath>
</defs>
</svg>
