<svg width="215" height="17" viewBox="0 0 215 17" fill="none" xmlns="http://www.w3.org/2000/svg">
<path d="M58.1079 16.7171C66.1471 16.7171 67.5847 13.9505 67.5847 11.2532V10.9497C67.5847 7.71479 65.3209 6.29248 59.5043 6.11903L56.7529 6.05832C53.8776 5.98894 53.4233 5.46859 53.4233 4.82681V4.80079C53.4233 4.17636 53.729 3.61265 56.7942 3.61265H57.0007C60.3057 3.61265 60.6362 4.74008 60.7023 5.32114H67.0478V5.1477C67.0478 2.60662 65.3209 0.0742188 57.7609 0.0742188H55.9267C48.7964 0.0742188 47.1356 2.36378 47.1356 4.97425V5.17371C47.1356 7.65408 48.7138 9.83091 54.6378 10.0044L57.4717 10.0911C60.6775 10.1952 61.0659 10.7155 61.0659 11.5308V11.5568C61.0659 12.3373 60.5949 13.0658 57.3313 13.0658H57.1412C53.8116 13.0658 53.3819 11.6608 53.324 10.8022H46.9043V11.0191C46.9043 13.1093 47.7884 16.7171 56.2407 16.7171H58.1079Z" fill="white"/>
<path d="M74.5489 16.4144H80.3821V4.741H86.9836V0.361328H67.9473V4.741H74.5489V16.4144Z" fill="white"/>
<path d="M94.3292 4.264H101.03C102.352 4.264 102.798 4.87108 102.798 5.6256V5.64295C102.798 6.42349 102.327 7.03057 101.03 7.03057H94.3292V4.264ZM94.3292 10.9072H99.9229C102.228 10.9072 103.029 11.8612 103.029 13.6912V15.5731C103.029 16.0241 103.071 16.241 103.211 16.4144H109.176V16.3016C109.027 16.0241 108.887 15.6165 108.887 14.4891V12.1214C108.887 10.0486 107.631 8.75641 105.74 8.29676C106.888 8.01925 108.822 7.04791 108.822 4.71498V4.48081C108.822 1.87036 106.846 0.361328 102.393 0.361328H88.4961V16.4144H94.3292V10.9072Z" fill="white"/>
<path d="M121.064 0.0566406C111.15 0.0566406 109.902 5.00004 109.902 8.01811V8.66855C109.902 11.6606 111.15 16.7167 121.064 16.7167H121.982C131.872 16.7167 133.128 11.6606 133.128 8.66855V8.01811C133.128 5.00004 131.856 0.0566406 121.982 0.0566406H121.064ZM127.079 8.46908C127.079 10.1949 126.039 12.3718 121.511 12.3718C116.991 12.3718 115.942 10.1082 115.942 8.42572V8.16554C115.942 6.46571 116.908 4.3756 121.511 4.3756C126.039 4.3756 127.079 6.46571 127.079 8.16554V8.46908Z" fill="white"/>
<path d="M139.467 16.4144H145.3V10.4129L153.481 0.361328H147.094L142.549 5.90312L138.088 0.361328H131.098L139.467 10.3695V16.4144Z" fill="white"/>
<path d="M159.891 16.4144V9.22473L167.352 16.4144H174.961L165.774 7.65499L174.673 0.361328H167.418L159.891 6.70101V0.361328H154.059V16.4144H159.891Z" fill="white"/>
<path d="M175.555 0.361328V16.4144H192.634V12.399H181.306V10.1961H192.245V6.29339H181.306V4.29002H192.468V0.361328H175.555Z" fill="white"/>
<path d="M200.16 4.264H206.861C208.174 4.264 208.629 4.87108 208.629 5.6256V5.64295C208.629 6.42349 208.158 7.03057 206.861 7.03057H200.16V4.264ZM200.16 10.9072H205.745C208.05 10.9072 208.852 11.8612 208.852 13.6912V15.5731C208.852 16.0241 208.893 16.241 209.034 16.4144H214.999V16.3016C214.858 16.0241 214.71 15.6165 214.71 14.4891V12.1214C214.71 10.0486 213.454 8.75641 211.562 8.29676C212.719 8.01925 214.653 7.04791 214.653 4.71498V4.48081C214.653 1.87036 212.677 0.361328 208.216 0.361328H194.318V16.4144H200.16V10.9072Z" fill="white"/>
<path d="M22.1114 0V16.0883C18.3903 16.0883 14.7976 14.7271 12.0108 12.2613L5.84165 6.80295V16.0883H0V0C3.76419 0 7.39869 1.37531 10.2199 3.86726L16.3361 9.26959V0H22.1114Z" fill="white"/>
<path d="M28.7489 16.0883H22.877L30.0369 3.0158C31.0554 1.1562 33.0069 0 35.1272 0C37.2285 0 39.1657 1.13581 40.1919 2.96952L47.5334 16.0883H41.4413L35.1925 4.05349H34.9846L28.7489 16.0883ZM27.8265 9.75664H42.2727V12.7103H27.8265V9.75664Z" fill="white"/>
</svg>
