<svg width="312" height="22" viewBox="0 0 312 22" fill="none" xmlns="http://www.w3.org/2000/svg">
<path d="M84.3318 21.285C95.9576 21.285 98.0728 17.7295 98.0728 14.2798V14.0104C98.0728 9.87318 94.8989 8.0353 86.4873 7.81347L82.4458 7.54404C78.2878 7.45531 77.5961 7.01768 77.5961 6.19689V5.92746C77.5961 5.12887 78.013 4.58031 82.4458 4.58031H82.7152C87.4947 4.58031 88.0082 5.99261 88.1038 6.73575H97.2645V6.46632C97.2645 3.21648 94.7257 0 83.793 0H81.0987C70.7873 0 68.4354 2.8583 68.4354 6.19689V6.46632C68.4354 9.63853 70.9151 12.4414 79.4821 12.6632L83.5235 12.9326C88.1597 13.0658 88.6427 13.5065 88.6427 14.5492V14.8187C88.6427 15.8169 87.9737 16.7047 83.2541 16.7047H82.9847C78.1696 16.7047 77.4103 14.839 77.3266 13.7409H68.166V14.0104C68.166 16.6836 69.4143 21.285 81.6375 21.285H84.3318Z" fill="#F6EECA"/>
<path d="M108.311 21.0155H116.663V6.19688H126.363V0.538849H98.6113V6.19688H108.311V21.0155Z" fill="#F6EECA"/>
<path d="M136.871 5.38859H146.57C148.482 5.38859 149.265 6.31216 149.265 7.2746C149.265 8.27023 148.446 9.16061 146.57 9.16061H136.871V5.38859ZM136.871 14.0104H144.954C148.287 14.0104 149.534 15.1788 149.534 17.5129V19.9378C149.534 20.5131 149.6 20.7943 149.804 21.0155H158.425V20.7461C158.21 20.3922 157.886 20.0287 157.886 18.5907V15.6269C157.886 12.983 156.311 11.3635 153.576 10.7772C155.236 10.4232 157.886 9.17268 157.886 6.19688V5.92745C157.886 2.59766 155.165 0.538849 148.726 0.538849H128.519V21.0155H136.871V14.0104Z" fill="#F6EECA"/>
<path d="M175.668 0C161.291 0 159.502 6.38245 159.502 10.2383V11.0466C159.502 14.8693 161.291 21.285 175.668 21.285H177.015C191.356 21.285 193.181 14.8693 193.181 11.0466V10.2383C193.181 6.38245 191.333 0 177.015 0H175.668ZM184.29 10.7772C184.29 12.9822 182.772 15.6269 176.207 15.6269C169.653 15.6269 168.394 12.9267 168.394 10.7772V10.2383C168.394 8.06664 169.533 5.3886 176.207 5.3886C182.772 5.3886 184.29 8.06664 184.29 10.2383V10.7772Z" fill="#F6EECA"/>
<path d="M202.342 21.0155H210.964V13.4715L222.819 0.538849H213.389L206.922 7.54403L200.456 0.538849H190.218L202.342 13.2021V21.0155Z" fill="#F6EECA"/>
<path d="M232.249 21.0155V11.8549L243.026 21.0155H254.073L240.601 9.9689L253.534 0.538849H243.026L232.249 8.62175V0.538849H223.627V21.0155H232.249Z" fill="#F6EECA"/>
<path d="M254.881 0.538849V21.0155H279.668V15.8964H263.233V13.2021H279.13V8.08289H263.233V5.65802H279.399V0.538849H254.881Z" fill="#F6EECA"/>
<path d="M290.446 5.38859H300.145C302.044 5.38859 302.839 6.31216 302.839 7.2746C302.839 8.27023 302.021 9.16061 300.145 9.16061H290.446V5.38859ZM290.446 14.0104H298.528C301.862 14.0104 303.109 15.1788 303.109 17.5129V19.9378C303.109 20.5131 303.174 20.7943 303.378 21.0155H312V20.7461C311.796 20.3922 311.461 20.0287 311.461 18.5907V15.6269C311.461 12.983 309.886 11.3635 307.15 10.7772C308.823 10.4232 311.461 9.17268 311.461 6.19688V5.92745C311.461 2.59766 308.751 0.538849 302.301 0.538849H282.093V21.0155H290.446V14.0104Z" fill="#F6EECA"/>
<path d="M32.0622 0V20.4767C26.6471 20.4767 21.3847 18.6819 17.0982 15.373L8.35233 8.62176V20.4767H0V0C5.41507 0 10.6774 1.79482 14.964 5.10371L23.7098 11.8549V0H32.0622Z" fill="#F6EECA"/>
<path d="M41.7614 20.4767H33.1396L43.4682 4.12314C45.0893 1.55641 47.9131 0 50.9489 0C53.9553 0 56.7561 1.52664 58.3852 4.0534L68.9738 20.4767H60.0827L50.922 5.11917H50.6526L41.7614 20.4767ZM46.441 12.3938H55.2613L57.5112 16.1658H44.2572L46.441 12.3938Z" fill="#F6EECA"/>
</svg>
