<svg width="68" height="41" viewBox="0 0 68 41" fill="none" xmlns="http://www.w3.org/2000/svg">
<path d="M7.17033 25.9119C12.3154 25.9119 13.2355 24.0785 13.2355 22.2909V22.0897C13.2355 19.9459 11.7867 19.0033 8.06401 18.8884L6.30311 18.8481C4.46294 18.8022 4.17215 18.4573 4.17215 18.032V18.0147C4.17215 17.6009 4.3678 17.2273 6.32958 17.2273H6.46174C8.57693 17.2273 8.78844 17.9745 8.83077 18.3596H12.8919V18.2446C12.8919 16.5606 11.7867 14.8823 6.94828 14.8823H5.77433C1.21094 14.8823 0.148017 16.3997 0.148017 18.1297V18.2619C0.148017 19.9057 1.15806 21.3483 4.94946 21.4633L6.76315 21.5207C8.81491 21.5897 9.06344 21.9346 9.06344 22.4749V22.4921C9.06344 23.0094 8.76204 23.4922 6.67332 23.4922H6.55164C4.42068 23.4922 4.14568 22.561 4.10866 21.992H0V22.1357C0 23.5209 0.565797 25.9119 5.9753 25.9119H7.17033Z" fill="#5B5A5F"/>
<path d="M17.4438 24.8085H21.1615V18.3922H25.3689V15.9849H13.2363V18.3922H17.4438V24.8085Z" fill="#5B5A5F"/>
<path d="M30.2039 18.13H34.4925C35.3385 18.13 35.6241 18.4637 35.6241 18.8784V18.8879C35.6241 19.317 35.3227 19.6507 34.4925 19.6507H30.2039V18.13ZM30.2039 21.7815H33.7839C35.2592 21.7815 35.7721 22.3059 35.7721 23.3117V24.3461C35.7721 24.594 35.7986 24.7132 35.8885 24.8085H39.7061V24.7465C39.611 24.594 39.5213 24.37 39.5213 23.7503V22.4489C39.5213 21.3095 38.7175 20.5993 37.5069 20.3466C38.2418 20.1941 39.4793 19.6602 39.4793 18.3779V18.2492C39.4793 16.8143 38.2149 15.9849 35.365 15.9849H26.4706V24.8085H30.2039V21.7815Z" fill="#5B5A5F"/>
<path d="M46.5973 14.8823C40.4765 14.8823 39.7064 18.155 39.7064 20.1531V20.5837C39.7064 22.5646 40.4765 25.9119 46.5973 25.9119H47.1639C53.2695 25.9119 54.0449 22.5646 54.0449 20.5837V20.1531C54.0449 18.155 53.2595 14.8823 47.1639 14.8823H46.5973ZM50.3108 20.4517C50.3108 21.5943 49.6684 23.0354 46.8733 23.0354C44.0829 23.0354 43.4352 21.5368 43.4352 20.423V20.2507C43.4352 19.1254 44.0317 17.7416 46.8733 17.7416C49.6684 17.7416 50.3108 19.1254 50.3108 20.2507V20.4517Z" fill="#5B5A5F"/>
<path d="M58.3044 24.8085H62.041V21.5098L67.2812 15.9849H63.1899L60.2786 19.0309L57.4204 15.9849H52.9427L58.3044 21.4859V24.8085Z" fill="#5B5A5F"/>
<path d="M4.79732 40.2499V35.804L9.52139 40.2499H14.3396L8.52215 34.8334L14.1568 30.3232H9.563L4.79732 34.2435V30.3232H1.10406V40.2499H4.79732Z" fill="#5B5A5F"/>
<path d="M15.442 30.3232V40.2499H25.3686V37.7669H18.7846V36.4047H25.1426V33.9914H18.7846V32.7526H25.2722V30.3232H15.442Z" fill="#5B5A5F"/>
<path d="M30.2091 32.7365H34.4978C35.3382 32.7365 35.6291 33.1119 35.6291 33.5785V33.5892C35.6291 34.0719 35.3278 34.4473 34.4978 34.4473H30.2091V32.7365ZM30.2091 36.8444H33.7836C35.2589 36.8444 35.7718 37.4344 35.7718 38.5659V39.7296C35.7718 40.0085 35.798 40.1426 35.8883 40.2499H39.7061V40.1801C39.6158 40.0085 39.5207 39.7565 39.5207 39.0593V37.5952C39.5207 36.3135 38.7168 35.5145 37.5063 35.2302C38.2467 35.0586 39.4841 34.458 39.4841 33.0154V32.8706C39.4841 31.2564 38.2198 30.3232 35.365 30.3232H26.4706V40.2499H30.2091V36.8444Z" fill="#5B5A5F"/>
<path d="M14.3385 0.543457V10.4701V10.4701C11.9198 10.4701 9.57872 9.61589 7.72838 8.05815L3.78811 4.74096V10.4701H0V0.543457V0.543457C2.44671 0.543457 4.815 1.4065 6.68805 2.98069L10.5934 6.26291V0.543457H14.3385Z" fill="#5B5A5F"/>
<path d="M18.0158 10.4701H14.3384L18.8105 2.4257C19.4563 1.26392 20.6812 0.543457 22.0104 0.543457V0.543457C23.3276 0.543457 24.5433 1.25104 25.1939 2.39639L29.7798 10.4701H25.9645L22.0512 3.04451H21.921L18.0158 10.4701ZM17.4381 6.56342H26.4852V8.38589H17.4381V6.56342Z" fill="#5B5A5F"/>
</svg>
