<svg width="201" height="16" viewBox="0 0 201 16" fill="none" xmlns="http://www.w3.org/2000/svg">
<path d="M54.3237 15.6284C61.8394 15.6284 63.1834 13.042 63.1834 10.5203V10.2366C63.1834 7.21236 61.067 5.88267 55.6291 5.72052L53.0569 5.66377C50.3688 5.5989 49.9441 5.11243 49.9441 4.51244V4.48812C49.9441 3.90436 50.2299 3.37735 53.0955 3.37735H53.2886C56.3783 3.37735 56.6873 4.43137 56.7491 4.97459H62.6814V4.81244C62.6814 2.43684 61.067 0.0693359 53.9993 0.0693359H52.2845C45.6185 0.0693359 44.0658 2.20981 44.0658 4.65028V4.83676C44.0658 7.15561 45.5412 9.19069 51.0795 9.35285L53.7289 9.43392C56.726 9.53122 57.089 10.0177 57.089 10.7799V10.8042C57.089 11.5339 56.6487 12.215 53.5976 12.215H53.4199C50.3071 12.215 49.9054 10.9015 49.8513 10.0988H43.8496V10.3015C43.8496 12.2556 44.6761 15.6284 52.578 15.6284H54.3237Z" fill="#777679"/>
<path d="M69.6951 15.3437H75.1485V4.43041H81.3201V0.335938H63.5234V4.43041H69.6951V15.3437Z" fill="#777679"/>
<path d="M88.1876 3.98643H94.4521C95.688 3.98643 96.1051 4.55398 96.1051 5.25937V5.27558C96.1051 6.0053 95.6648 6.57284 94.4521 6.57284H88.1876V3.98643ZM88.1876 10.1971H93.4171C95.572 10.1971 96.3213 11.089 96.3213 12.7997V14.5591C96.3213 14.9808 96.36 15.1835 96.4913 15.3457H102.068V15.2402C101.929 14.9808 101.798 14.5997 101.798 13.5457V11.3322C101.798 9.39438 100.624 8.1863 98.8552 7.75659C99.9287 7.49714 101.736 6.58906 101.736 4.40804V4.18912C101.736 1.74866 99.8895 0.337891 95.7265 0.337891H82.7344V15.3457H88.1876V10.1971Z" fill="#777679"/>
<path d="M113.183 0.0537109C103.914 0.0537109 102.748 4.67521 102.748 7.49674V8.10483C102.748 10.902 103.914 15.6289 113.183 15.6289H114.041C123.287 15.6289 124.461 10.902 124.461 8.10483V7.49674C124.461 4.67521 123.272 0.0537109 114.041 0.0537109H113.183ZM118.806 7.91835C118.806 9.53182 117.834 11.5669 113.601 11.5669C109.375 11.5669 108.395 9.45073 108.395 7.87781V7.63457C108.395 6.04543 109.298 4.09143 113.601 4.09143C117.834 4.09143 118.806 6.04543 118.806 7.63457V7.91835Z" fill="#777679"/>
<path d="M130.383 15.3457H135.837V9.73491L143.484 0.337891H137.513L133.265 5.51881L129.093 0.337891H122.559L130.383 9.69438V15.3457Z" fill="#777679"/>
<path d="M149.478 15.3457V8.62413L156.453 15.3457H163.567L154.978 7.15661L163.297 0.337891H156.515L149.478 6.26474V0.337891H144.025V15.3457H149.478Z" fill="#777679"/>
<path d="M164.123 0.335938V15.3437H180.09V11.5897H169.5V9.53026H179.726V5.88172H169.5V4.0088H179.935V0.335938H164.123Z" fill="#777679"/>
<path d="M187.127 3.98643H193.392C194.62 3.98643 195.045 4.55398 195.045 5.25937V5.27558C195.045 6.0053 194.605 6.57284 193.392 6.57284H187.127V3.98643ZM187.127 10.1971H192.349C194.504 10.1971 195.253 11.089 195.253 12.7997V14.5591C195.253 14.9808 195.291 15.1835 195.423 15.3457H201V15.2402C200.868 14.9808 200.729 14.5997 200.729 13.5457V11.3322C200.729 9.39438 199.555 8.1863 197.787 7.75659C198.868 7.49714 200.676 6.58906 200.676 4.40804V4.18912C200.676 1.74866 198.829 0.337891 194.659 0.337891H181.666V15.3457H187.127V10.1971Z" fill="#777679"/>
<path d="M20.6716 0V15.0406V15.0406C17.1927 15.0406 13.8341 13.7681 11.2286 11.4628L5.46125 6.35996V15.0406H0V0V0C3.51908 0 6.9169 1.28575 9.55441 3.61543L15.2723 8.66598V0H20.6716Z" fill="#777679"/>
<path d="M26.8782 15.0406H21.3887L28.0824 2.81941C29.0346 1.08091 30.859 0 32.8412 0V0C34.8057 0 36.6167 1.06185 37.5761 2.77615L44.4395 15.0406H38.7441L32.9023 3.78953H32.7079L26.8782 15.0406ZM26.0159 9.12131H39.5214V11.8827H26.0159V9.12131Z" fill="#777679"/>
</svg>
