<svg width="314" height="198" viewBox="0 0 314 198" fill="none" xmlns="http://www.w3.org/2000/svg">
<rect x="277.907" y="1.5" width="192.141" height="248.023" rx="20.5" transform="rotate(90 277.907 1.5)" fill="#282828"/>
<rect x="277.907" y="1.5" width="192.141" height="248.023" rx="20.5" transform="rotate(90 277.907 1.5)" stroke="#625B55" stroke-width="3"/>
<rect x="277.907" y="1.5" width="192.141" height="248.023" rx="20.5" transform="rotate(90 277.907 1.5)" stroke="#625B55" stroke-width="3"/>
<rect x="267.263" y="11.2568" width="155.774" height="226.734" rx="10.5" transform="rotate(90 267.263 11.2568)" fill="#282828"/>
<rect x="267.263" y="11.2568" width="155.774" height="226.734" rx="10.5" transform="rotate(90 267.263 11.2568)" stroke="#625B55" stroke-width="3"/>
<rect x="267.263" y="11.2568" width="155.774" height="226.734" rx="10.5" transform="rotate(90 267.263 11.2568)" stroke="#625B55" stroke-width="3"/>
<path d="M1.56156 179.788H312.438C311.676 189.035 303.93 196.302 294.486 196.302H19.5141C10.0703 196.302 2.32383 189.035 1.56156 179.788Z" fill="#282828" stroke="#625B55" stroke-width="3"/>
</svg>
