<svg width="335" height="242" viewBox="0 0 335 242" fill="none" xmlns="http://www.w3.org/2000/svg">
<rect x="1.5" y="1.5" width="332" height="185.5" rx="4.5" fill="#282828"/>
<rect x="1.5" y="1.5" width="332" height="185.5" rx="4.5" stroke="#625B55" stroke-width="3"/>
<rect x="1.5" y="1.5" width="332" height="185.5" rx="4.5" stroke="#625B55" stroke-width="3"/>
<rect x="10.5" y="9.5" width="314" height="168" rx="3.5" fill="#282828"/>
<rect x="10.5" y="9.5" width="314" height="168" rx="3.5" stroke="#625B55" stroke-width="3"/>
<rect x="10.5" y="9.5" width="314" height="168" rx="3.5" stroke="#625B55" stroke-width="3"/>
<path d="M189.763 189.275C187.173 198.324 188.488 208.084 193.454 216.155L195.646 219.717C202.018 230.071 212.53 237.189 224.51 239.261L227.438 239.768V239.904H106.5V239.764L109.643 239.209C121.247 237.162 131.526 230.499 138.132 220.74L141.439 215.854C146.735 208.03 148.269 198.295 145.708 189.275H189.763Z" fill="#282828" stroke="#625B55" stroke-width="3"/>
</svg>
