<svg width="104" height="179" viewBox="0 0 104 179" fill="none" xmlns="http://www.w3.org/2000/svg">
<rect x="102.5" y="177.5" width="101" height="176" rx="13.5" transform="rotate(-180 102.5 177.5)" fill="#282828"/>
<rect x="102.5" y="177.5" width="101" height="176" rx="13.5" transform="rotate(-180 102.5 177.5)" stroke="#625B55" stroke-width="3"/>
<rect x="102.5" y="177.5" width="101" height="176" rx="13.5" transform="rotate(-180 102.5 177.5)" stroke="#625B55" stroke-width="3"/>
<rect x="92.5" y="157.5" width="81" height="147" rx="8.5" transform="rotate(-180 92.5 157.5)" fill="#282828"/>
<rect x="92.5" y="157.5" width="81" height="147" rx="8.5" transform="rotate(-180 92.5 157.5)" stroke="#625B55" stroke-width="3"/>
<rect x="92.5" y="157.5" width="81" height="147" rx="8.5" transform="rotate(-180 92.5 157.5)" stroke="#625B55" stroke-width="3"/>
<rect x="68" y="171" width="33" height="6.99999" rx="3.5" transform="rotate(-180 68 171)" fill="#282828"/>
<rect x="68" y="171" width="33" height="6.99999" rx="3.5" transform="rotate(-180 68 171)" stroke="#625B55" stroke-width="2"/>
<rect x="68" y="171" width="33" height="6.99999" rx="3.5" transform="rotate(-180 68 171)" stroke="#625B55" stroke-width="2"/>
</svg>
